<svg id="anotation" xmlns="http://www.w3.org/2000/svg" viewBox="0 0 1026.84 1289.79"><defs><style>.cls-1{fill:none;stroke:#000;stroke-miterlimit:10;stroke-width:5px;}</style></defs><title>anotation</title><line class="cls-1" x1="1023.15" y1="372.52" x2="696.65" y2="46.02"/><line class="cls-1" x1="317.15" y1="47.52" x2="700.15" y2="47.52"/><line class="cls-1" x1="1025.15" y1="885.9" x2="698.65" y2="1186.4"/><line class="cls-1" x1="319.15" y1="1185.02" x2="702.15" y2="1185.02"/><path d="M95.54,396.48v86.25H76.67V418.36H67.79V396.48Z" transform="translate(-43.85 -396.48)"/><path d="M102,482.73V460.86h19v21.87Z" transform="translate(-43.85 -396.48)"/><path d="M128.29,402.73a13.4,13.4,0,0,1,4.5-5.31,4.82,4.82,0,0,1,2.75-.94h34.63a4.92,4.92,0,0,1,2.68.94,13.47,13.47,0,0,1,2.69,2.31,12,12,0,0,1,2,3,7,7,0,0,1,.75,2.88v24.75a8.38,8.38,0,0,1-.69,3.18,14.22,14.22,0,0,1-1.62,3,11.25,11.25,0,0,1-2,2.19,3.14,3.14,0,0,1-1.81.88,11.72,11.72,0,0,1,4.06,3.31,8.06,8.06,0,0,1,2.06,5.31v25.38a6.8,6.8,0,0,1-.75,2.93,12.24,12.24,0,0,1-2,2.94,13.47,13.47,0,0,1-2.69,2.31,4.92,4.92,0,0,1-2.68.94H135.54a4.82,4.82,0,0,1-2.75-.94,12.84,12.84,0,0,1-2.56-2.31,13.24,13.24,0,0,1-1.94-2.94,6.8,6.8,0,0,1-.75-2.93V448.23a8.06,8.06,0,0,1,2.06-5.31,11.66,11.66,0,0,1,4.07-3.31,3.21,3.21,0,0,1-1.94-.88,10.94,10.94,0,0,1-2-2.19,12.14,12.14,0,0,1-1.56-3,9.07,9.07,0,0,1-.63-3.18V405.61A7,7,0,0,1,128.29,402.73Zm18.13,27.63h13v-12h-13Zm0,30.5h13v-12h-13Z" transform="translate(-43.85 -396.48)"/><path d="M194,482.73a6,6,0,0,1-3-.94,14.69,14.69,0,0,1-5.31-5.31,6,6,0,0,1-.94-3V405.73a6,6,0,0,1,.94-3,14.69,14.69,0,0,1,5.31-5.31,6,6,0,0,1,3-.94h33.38a4.94,4.94,0,0,1,2.68.94,13.47,13.47,0,0,1,2.69,2.31,12,12,0,0,1,2,3,7,7,0,0,1,.75,2.88v68a6.8,6.8,0,0,1-.75,2.93,12.24,12.24,0,0,1-2,2.94,13.47,13.47,0,0,1-2.69,2.31,4.94,4.94,0,0,1-2.68.94Zm9.63-64.37v24.25l6.87-24.25Zm13,42.5V436.61l-6.88,24.25Z" transform="translate(-43.85 -396.48)"/><path d="M242,396.48h17.25l14.63,15,14.37-15h17v86.25H286.54V428.48l-12.75,11.38L261,428.61v54.12H242Z" transform="translate(-43.85 -396.48)"/><path d="M107,1559.27V1473h42.63a5,5,0,0,1,2.69.94,14.05,14.05,0,0,1,2.68,2.31,11.73,11.73,0,0,1,2,3,7.07,7.07,0,0,1,.75,2.88v24.75a8.55,8.55,0,0,1-.68,3.18,14.24,14.24,0,0,1-1.63,3,10.94,10.94,0,0,1-2,2.19,3.08,3.08,0,0,1-1.81.88,11.64,11.64,0,0,1,4.06,3.31,8,8,0,0,1,2.06,5.31v25.38a6.77,6.77,0,0,1-.75,2.93,11.78,11.78,0,0,1-2,2.94,13.71,13.71,0,0,1-2.68,2.31,5,5,0,0,1-2.69.94Zm18.88-64.37v12h13v-12Zm13,42.5v-12h-13v12Z" transform="translate(-43.85 -396.48)"/><path d="M164.29,1559.27v-77a6.18,6.18,0,0,1,.94-3,15,15,0,0,1,2.31-3,14.66,14.66,0,0,1,3-2.31,6.08,6.08,0,0,1,3-.94H215v86.25h-18.5v-33.75H183.29v33.75Zm19-64.37V1507h12.63V1494.9Z" transform="translate(-43.85 -396.48)"/><path d="M227.79,1558.33a14.31,14.31,0,0,1-3-2.31,14.47,14.47,0,0,1-2.31-3,6.12,6.12,0,0,1-.94-3v-67.75a6.18,6.18,0,0,1,.94-3,15,15,0,0,1,2.31-3,14.66,14.66,0,0,1,3-2.31,6.08,6.08,0,0,1,3-.94h33.38a5,5,0,0,1,2.69.94,14.05,14.05,0,0,1,2.68,2.31,11.73,11.73,0,0,1,2,3,7.07,7.07,0,0,1,.75,2.88v15L253.42,1504v-9.12H240.54v42.5h12.88v-8.75h18.87v21.5a6.77,6.77,0,0,1-.75,2.93,11.78,11.78,0,0,1-2,2.94,13.71,13.71,0,0,1-2.68,2.31,5,5,0,0,1-2.69.94H230.79A6.08,6.08,0,0,1,227.79,1558.33Z" transform="translate(-43.85 -396.48)"/><path d="M172.67,1665.4H151.92v-10.75h-8.75V1633.9h8.75v-10.75h20.75v10.75h8.75v20.75h-8.75Z" transform="translate(-43.85 -396.48)"/><path d="M218.17,1621.9V1600h40.25a4.92,4.92,0,0,1,2.68.94,12.43,12.43,0,0,1,2.63,2.31,12.94,12.94,0,0,1,1.94,3,7.07,7.07,0,0,1,.75,2.88v24.75a9.07,9.07,0,0,1-.63,3.18,12.86,12.86,0,0,1-1.56,3,11.25,11.25,0,0,1-2,2.19,3.08,3.08,0,0,1-1.81.88,11.24,11.24,0,0,1,4,3.31,8.22,8.22,0,0,1,2,5.31v25.38a6.77,6.77,0,0,1-.75,2.93,13,13,0,0,1-1.94,2.94,12.16,12.16,0,0,1-2.63,2.31,4.92,4.92,0,0,1-2.68.94H218.17V1664.4h29.25v-12h-20v-18.5h20v-12Z" transform="translate(-43.85 -396.48)"/><path d="M92.1,1059H43.85v-41a8.66,8.66,0,0,1,1.12-4.19,15,15,0,0,1,2.75-3.62,17.57,17.57,0,0,1,3.38-2.57,6.26,6.26,0,0,1,2.87-1H73.35v-12H43.85V972.71H82a8.85,8.85,0,0,1,4.63,1.12A9.34,9.34,0,0,1,89.72,977a14.24,14.24,0,0,1,1.82,4.56,25,25,0,0,1,.56,5.31v27.88a10,10,0,0,1-.75,3.75,13.47,13.47,0,0,1-1.94,3.37,9.77,9.77,0,0,1-2.81,2.44,6.44,6.44,0,0,1-3.25.94H62.72v11.87H92.1Z" transform="translate(-43.85 -396.48)"/><path d="M126.35,972.71V1059H107.47V994.58H98.6V972.71Z" transform="translate(-43.85 -396.48)"/><path d="M163.09,1059V982a6.12,6.12,0,0,1,.94-3,15,15,0,0,1,2.31-3,14.31,14.31,0,0,1,3-2.31,6.08,6.08,0,0,1,3-.94h41.5V1059h-18.5v-33.75H182.09V1059Zm19-64.38v12.13h12.63V994.58Z" transform="translate(-43.85 -396.48)"/><path d="M270.84,1059H252v-58.25a20.73,20.73,0,0,0-.19-3.19,3.21,3.21,0,0,0-.81-1.81,3.63,3.63,0,0,0-1.88-.88,17.71,17.71,0,0,0-3.25-.25h-6.5V1059h-19V972.71h41.25a5.77,5.77,0,0,1,3,1,17,17,0,0,1,3,2.37,14.71,14.71,0,0,1,2.32,3,6,6,0,0,1,.93,2.88Z" transform="translate(-43.85 -396.48)"/><path d="M296.34,1006.71h22.88a6.61,6.61,0,0,1,3.37.94,9.73,9.73,0,0,1,2.81,2.43,13.23,13.23,0,0,1,1.94,3.38,10,10,0,0,1,.75,3.75v32.5a6,6,0,0,1-.94,3,14.69,14.69,0,0,1-5.31,5.31,6,6,0,0,1-3,.94H285.47a4.8,4.8,0,0,1-2.75-.94,14.38,14.38,0,0,1-2.63-2.31,12.44,12.44,0,0,1-2-2.94,6.81,6.81,0,0,1-.75-2.94v-14.62l18.88-6.63v8.5h12.87v-11.87H286.22a6.62,6.62,0,0,1-3.38-.94,10.16,10.16,0,0,1-2.81-2.37,12.49,12.49,0,0,1-1.94-3.32,10,10,0,0,1-.75-3.75V982a6,6,0,0,1,.94-3,14.69,14.69,0,0,1,5.31-5.31,6,6,0,0,1,3-.94H320a4.92,4.92,0,0,1,2.68.94,13.47,13.47,0,0,1,2.69,2.31,12,12,0,0,1,2,3,7,7,0,0,1,.75,2.87v14.63l-18.87,6.62v-8.5H296.34Z" transform="translate(-43.85 -396.48)"/><line class="cls-1" x1="999.15" y1="632.52" x2="317.15" y2="632.52"/></svg>