<svg id="flate_design" data-name="flate design" xmlns="http://www.w3.org/2000/svg" viewBox="0 0 653.51 653.51"><defs><style>.cls-1{fill:#ffff5f;}.cls-2{fill:#95850b;}</style></defs><title>NOTE SVG BANANE</title><rect class="cls-1" width="653.51" height="653.51"/><path class="cls-2" d="M132.56,469.09a13.84,13.84,0,0,1-5.37-5.23,15.32,15.32,0,0,1,0-15,13.83,13.83,0,0,1,5.39-5.23,15.78,15.78,0,0,1,7.71-1.89,16,16,0,0,1,5.9,1.07,12.2,12.2,0,0,1,4.6,3.12l-1.93,1.92a11.42,11.42,0,0,0-8.49-3.4,12.46,12.46,0,0,0-6.19,1.56,11.47,11.47,0,0,0-4.37,4.26,12.52,12.52,0,0,0,0,12.14,11.47,11.47,0,0,0,4.37,4.26,12.46,12.46,0,0,0,6.19,1.56,11.29,11.29,0,0,0,8.49-3.44l1.93,1.92a12.36,12.36,0,0,1-4.62,3.14,15.9,15.9,0,0,1-5.92,1.09A15.65,15.65,0,0,1,132.56,469.09Z" transform="translate(-94.9 -387.27)"/><path class="cls-2" d="M174.48,460.85h-18a7.73,7.73,0,0,0,2.59,5.43,8.55,8.55,0,0,0,5.9,2.07,9.27,9.27,0,0,0,3.69-.72,8,8,0,0,0,2.91-2.11l1.64,1.89a9.19,9.19,0,0,1-3.59,2.62,12.85,12.85,0,0,1-10.62-.51,10.16,10.16,0,0,1-4-3.92,11.1,11.1,0,0,1-1.44-5.65,11.51,11.51,0,0,1,1.38-5.66,9.9,9.9,0,0,1,3.77-3.9,11.11,11.11,0,0,1,10.76,0,9.88,9.88,0,0,1,3.73,3.88,11.66,11.66,0,0,1,1.35,5.68Zm-15.64-7.36a7.8,7.8,0,0,0-2.4,5.19h15.3a7.84,7.84,0,0,0-2.4-5.19,7.92,7.92,0,0,0-10.5,0Z" transform="translate(-94.9 -387.27)"/><path class="cls-2" d="M207.82,450.37a9.84,9.84,0,0,1,3.85,3.88,12.46,12.46,0,0,1,0,11.44,9.9,9.9,0,0,1-3.83,3.87,11,11,0,0,1-5.52,1.38,10.2,10.2,0,0,1-4.73-1.09,9,9,0,0,1-3.47-3.18v12h-2.91V449.16H194v4.27a8.93,8.93,0,0,1,3.46-3.28,10.14,10.14,0,0,1,4.86-1.15A11.16,11.16,0,0,1,207.82,450.37Zm-1.6,16.94a7.41,7.41,0,0,0,2.89-3,9.72,9.72,0,0,0,0-8.75,7.57,7.57,0,0,0-2.89-3,8.43,8.43,0,0,0-8.22,0,7.53,7.53,0,0,0-2.87,3,9.64,9.64,0,0,0,0,8.75,7.36,7.36,0,0,0,2.87,3,8.64,8.64,0,0,0,8.22,0Z" transform="translate(-94.9 -387.27)"/><path class="cls-2" d="M224.85,450.11a10.35,10.35,0,0,1,5-1.11v2.83l-.69,0a6.86,6.86,0,0,0-5.33,2.09,8.3,8.3,0,0,0-1.93,5.86v11H219V449.16h2.79v4.23A7,7,0,0,1,224.85,450.11Z" transform="translate(-94.9 -387.27)"/><path class="cls-2" d="M238.11,469.52a10.35,10.35,0,0,1-3.93-3.92,11.82,11.82,0,0,1,0-11.31,10.23,10.23,0,0,1,3.93-3.9,12.06,12.06,0,0,1,11.24,0,10,10,0,0,1,3.91,3.9,12,12,0,0,1,0,11.31,10.09,10.09,0,0,1-3.91,3.92,11.83,11.83,0,0,1-11.24,0Zm9.74-2.21a7.25,7.25,0,0,0,2.85-3,9.85,9.85,0,0,0,0-8.77,7.23,7.23,0,0,0-2.85-3,8.61,8.61,0,0,0-8.24,0,7.46,7.46,0,0,0-2.87,3,9.76,9.76,0,0,0,0,8.77,7.49,7.49,0,0,0,2.87,3,8.68,8.68,0,0,0,8.24,0Z" transform="translate(-94.9 -387.27)"/><path class="cls-2" d="M254.86,478.54a5,5,0,0,1-2-1l1-2.22a4.93,4.93,0,0,0,3.36,1.11,3.37,3.37,0,0,0,2.65-1,4.41,4.41,0,0,0,.92-3V449.16h2.91v23.17a6.8,6.8,0,0,1-1.64,4.8,6.08,6.08,0,0,1-4.67,1.76A9.33,9.33,0,0,1,254.86,478.54Zm5.93-34.75a2,2,0,0,1-.62-1.47,2,2,0,0,1,.62-1.44,2.05,2.05,0,0,1,1.52-.61,2.11,2.11,0,0,1,1.51.59,1.92,1.92,0,0,1,.62,1.42,2.14,2.14,0,0,1-3.65,1.51Z" transform="translate(-94.9 -387.27)"/><path class="cls-2" d="M290.64,460.85h-18a7.68,7.68,0,0,0,2.58,5.43,8.57,8.57,0,0,0,5.9,2.07,9.27,9.27,0,0,0,3.69-.72,8,8,0,0,0,2.91-2.11l1.64,1.89a9.16,9.16,0,0,1-3.58,2.62,12.21,12.21,0,0,1-4.74.91,12,12,0,0,1-5.88-1.42,10.19,10.19,0,0,1-4-3.92,11.1,11.1,0,0,1-1.44-5.65,11.51,11.51,0,0,1,1.38-5.66,9.9,9.9,0,0,1,3.77-3.9,10.53,10.53,0,0,1,5.39-1.39,10.38,10.38,0,0,1,5.37,1.39,9.88,9.88,0,0,1,3.73,3.88,11.56,11.56,0,0,1,1.36,5.68ZM275,453.49a7.83,7.83,0,0,0-2.39,5.19h15.29a7.8,7.8,0,0,0-2.4-5.19,7.92,7.92,0,0,0-10.5,0Z" transform="translate(-94.9 -387.27)"/><path class="cls-2" d="M308,469.42a5.63,5.63,0,0,1-2,1.13,8.19,8.19,0,0,1-2.52.39,5.73,5.73,0,0,1-6.32-6.28v-13h-3.85v-2.46h3.85v-4.71H300v4.71h6.56v2.46H300V464.5a4,4,0,0,0,1,2.93,3.64,3.64,0,0,0,2.76,1,5.39,5.39,0,0,0,1.75-.28,4.38,4.38,0,0,0,1.45-.82Z" transform="translate(-94.9 -387.27)"/><path class="cls-2" d="M342.79,460.85h-18a7.68,7.68,0,0,0,2.58,5.43,8.57,8.57,0,0,0,5.9,2.07,9.27,9.27,0,0,0,3.69-.72,8,8,0,0,0,2.91-2.11l1.64,1.89a9.16,9.16,0,0,1-3.58,2.62,12.21,12.21,0,0,1-4.74.91,12,12,0,0,1-5.88-1.42,10.19,10.19,0,0,1-4-3.92,11.09,11.09,0,0,1-1.43-5.65,11.51,11.51,0,0,1,1.37-5.66,9.9,9.9,0,0,1,3.77-3.9,10.53,10.53,0,0,1,5.39-1.39,10.38,10.38,0,0,1,5.37,1.39,9.88,9.88,0,0,1,3.73,3.88,11.56,11.56,0,0,1,1.36,5.68Zm-15.65-7.36a7.83,7.83,0,0,0-2.39,5.19H340a7.8,7.8,0,0,0-2.4-5.19,7.92,7.92,0,0,0-10.5,0Z" transform="translate(-94.9 -387.27)"/><path class="cls-2" d="M349.53,470.18a10.76,10.76,0,0,1-3.75-1.91l1.31-2.3a10.87,10.87,0,0,0,3.4,1.75,13.58,13.58,0,0,0,4.27.67,8.06,8.06,0,0,0,4.36-.92,2.92,2.92,0,0,0,1.42-2.6,2.34,2.34,0,0,0-.78-1.87,5.18,5.18,0,0,0-2-1,26.22,26.22,0,0,0-3.16-.68,37.73,37.73,0,0,1-4.22-1,6.3,6.3,0,0,1-2.72-1.75,4.8,4.8,0,0,1-1.13-3.4,5.35,5.35,0,0,1,2.25-4.43,10.15,10.15,0,0,1,6.28-1.72,16.28,16.28,0,0,1,4.18.55,11.56,11.56,0,0,1,3.44,1.46l-1.27,2.34a10.88,10.88,0,0,0-6.35-1.85,7.46,7.46,0,0,0-4.21,1,3,3,0,0,0-1.41,2.59,2.58,2.58,0,0,0,.8,2,4.84,4.84,0,0,0,2,1.08,33.2,33.2,0,0,0,3.28.72,40.53,40.53,0,0,1,4.14,1,6.11,6.11,0,0,1,2.66,1.68,4.65,4.65,0,0,1,1.11,3.29,5.21,5.21,0,0,1-2.36,4.48,11.18,11.18,0,0,1-6.54,1.67A16.72,16.72,0,0,1,349.53,470.18Z" transform="translate(-94.9 -387.27)"/><path class="cls-2" d="M380.18,469.42a5.63,5.63,0,0,1-2,1.13,8.19,8.19,0,0,1-2.52.39,5.73,5.73,0,0,1-6.32-6.28v-13h-3.85v-2.46h3.85v-4.71h2.91v4.71h6.56v2.46h-6.56V464.5a4,4,0,0,0,1,2.93,3.64,3.64,0,0,0,2.76,1,5.39,5.39,0,0,0,1.75-.28,4.38,4.38,0,0,0,1.45-.82Z" transform="translate(-94.9 -387.27)"/><path class="cls-2" d="M415.64,449.16v21.57h-2.79v-3.94a7.93,7.93,0,0,1-3.15,3.06,9.56,9.56,0,0,1-4.6,1.09,9.2,9.2,0,0,1-6.66-2.36c-1.62-1.57-2.44-3.88-2.44-6.91V449.16h2.91v12.22a7.23,7.23,0,0,0,1.68,5.17,6.35,6.35,0,0,0,4.8,1.76,7.05,7.05,0,0,0,5.37-2.07,8,8,0,0,0,2-5.76V449.16Z" transform="translate(-94.9 -387.27)"/><path class="cls-2" d="M441.25,451.36c1.6,1.57,2.39,3.86,2.39,6.87v12.5h-2.91V458.51a7.13,7.13,0,0,0-1.68-5.12,6.29,6.29,0,0,0-4.79-1.77,7.37,7.37,0,0,0-5.52,2.07,7.85,7.85,0,0,0-2,5.72v11.32H423.8V449.16h2.79v4a8,8,0,0,1,3.3-3.05,10.5,10.5,0,0,1,4.9-1.09A8.84,8.84,0,0,1,441.25,451.36Z" transform="translate(-94.9 -387.27)"/><path class="cls-2" d="M470.42,460.85h-18a7.68,7.68,0,0,0,2.58,5.43,8.58,8.58,0,0,0,5.9,2.07,9.27,9.27,0,0,0,3.69-.72,7.87,7.87,0,0,0,2.91-2.11l1.64,1.89a9.16,9.16,0,0,1-3.58,2.62,12.21,12.21,0,0,1-4.74.91,12,12,0,0,1-5.88-1.42,10.19,10.19,0,0,1-4-3.92,11.09,11.09,0,0,1-1.43-5.65,11.51,11.51,0,0,1,1.37-5.66,9.9,9.9,0,0,1,3.77-3.9A10.53,10.53,0,0,1,460,449a10.38,10.38,0,0,1,5.37,1.39,9.88,9.88,0,0,1,3.73,3.88,11.56,11.56,0,0,1,1.36,5.68Zm-15.64-7.36a7.8,7.8,0,0,0-2.4,5.19h15.29a7.8,7.8,0,0,0-2.4-5.19,7.91,7.91,0,0,0-10.49,0Z" transform="translate(-94.9 -387.27)"/><path class="cls-2" d="M490.36,469.54a10,10,0,0,1-3.95-3.91A11.29,11.29,0,0,1,485,460a11.13,11.13,0,0,1,1.44-5.66,10.08,10.08,0,0,1,3.95-3.9,11.62,11.62,0,0,1,5.72-1.39,11,11,0,0,1,5,1.09,8.24,8.24,0,0,1,3.47,3.17l-2.17,1.48a6.84,6.84,0,0,0-2.71-2.4,8.06,8.06,0,0,0-3.57-.8,8.39,8.39,0,0,0-4.2,1,7.37,7.37,0,0,0-2.91,3,9.72,9.72,0,0,0,0,8.79,7.4,7.4,0,0,0,2.91,3,8.49,8.49,0,0,0,4.2,1,8.18,8.18,0,0,0,3.57-.78,6.72,6.72,0,0,0,2.71-2.38l2.17,1.48a8.32,8.32,0,0,1-3.49,3.18,11.15,11.15,0,0,1-5,1.09A11.62,11.62,0,0,1,490.36,469.54Z" transform="translate(-94.9 -387.27)"/><path class="cls-2" d="M513.06,469.52a10.3,10.3,0,0,1-3.94-3.92,11.9,11.9,0,0,1,0-11.31,10.18,10.18,0,0,1,3.94-3.9,12,12,0,0,1,11.23,0,10.07,10.07,0,0,1,3.92,3.9,12,12,0,0,1,0,11.31,10.18,10.18,0,0,1-3.92,3.92,11.81,11.81,0,0,1-11.23,0Zm9.73-2.21a7.25,7.25,0,0,0,2.85-3,9.85,9.85,0,0,0,0-8.77,7.23,7.23,0,0,0-2.85-3,8.61,8.61,0,0,0-8.24,0,7.46,7.46,0,0,0-2.87,3,9.76,9.76,0,0,0,0,8.77,7.49,7.49,0,0,0,2.87,3,8.68,8.68,0,0,0,8.24,0Z" transform="translate(-94.9 -387.27)"/><path class="cls-2" d="M568.84,451.34c1.54,1.56,2.31,3.85,2.31,6.89v12.5h-2.91V458.51a7.3,7.3,0,0,0-1.62-5.12,5.88,5.88,0,0,0-4.57-1.77,6.88,6.88,0,0,0-5.29,2.07,8.11,8.11,0,0,0-1.92,5.72v11.32h-2.92V458.51a7.3,7.3,0,0,0-1.62-5.12,5.92,5.92,0,0,0-4.61-1.77,6.9,6.9,0,0,0-5.27,2.07,8.07,8.07,0,0,0-1.94,5.72v11.32h-2.91V449.16h2.78v3.94a7.79,7.79,0,0,1,3.2-3,10.1,10.1,0,0,1,4.72-1.07,9.19,9.19,0,0,1,4.69,1.15,7,7,0,0,1,3,3.4,8.49,8.49,0,0,1,3.43-3.34,10.5,10.5,0,0,1,5.1-1.21A8.58,8.58,0,0,1,568.84,451.34Z" transform="translate(-94.9 -387.27)"/><path class="cls-2" d="M595.67,450.37a9.78,9.78,0,0,1,3.85,3.88,12.39,12.39,0,0,1,0,11.44,9.77,9.77,0,0,1-3.83,3.87,11,11,0,0,1-5.51,1.38,10.28,10.28,0,0,1-4.74-1.09,9,9,0,0,1-3.46-3.18v12h-2.91V449.16h2.78v4.27a9,9,0,0,1,3.47-3.28,10.08,10.08,0,0,1,4.86-1.15A11.13,11.13,0,0,1,595.67,450.37Zm-1.6,16.94a7.34,7.34,0,0,0,2.89-3,9.64,9.64,0,0,0,0-8.75,7.51,7.51,0,0,0-2.89-3,8.43,8.43,0,0,0-8.22,0,7.59,7.59,0,0,0-2.87,3,9.72,9.72,0,0,0,0,8.75,7.43,7.43,0,0,0,2.87,3,8.64,8.64,0,0,0,8.22,0Z" transform="translate(-94.9 -387.27)"/><path class="cls-2" d="M606.82,443.83a2,2,0,0,1-.61-1.47,2,2,0,0,1,.61-1.44,2.07,2.07,0,0,1,1.52-.61,2.13,2.13,0,0,1,1.52.59,1.91,1.91,0,0,1,.61,1.42,2,2,0,0,1-.61,1.51,2.17,2.17,0,0,1-3,0Zm0,5.33h2.91v21.57h-2.91Z" transform="translate(-94.9 -387.27)"/><path class="cls-2" d="M617.89,440.31h2.91v30.42h-2.91Z" transform="translate(-94.9 -387.27)"/><path class="cls-2" d="M642.94,451.11q2.26,2.11,2.26,6.25v13.37h-2.79v-3.36a6.71,6.71,0,0,1-2.89,2.62,10.09,10.09,0,0,1-4.53.95,8.85,8.85,0,0,1-5.74-1.73,5.93,5.93,0,0,1-.14-9q2-1.68,6.33-1.68h6.85v-1.31a5.51,5.51,0,0,0-1.56-4.24,6.44,6.44,0,0,0-4.55-1.46,11.62,11.62,0,0,0-3.94.68,10,10,0,0,0-3.24,1.86l-1.31-2.17a11.52,11.52,0,0,1,3.94-2.15,15.19,15.19,0,0,1,4.84-.76Q640.68,449,642.94,451.11Zm-3.28,16.4a6.75,6.75,0,0,0,2.63-3.26v-3.52h-6.77q-5.53,0-5.53,3.85a3.53,3.53,0,0,0,1.43,3,6.51,6.51,0,0,0,4,1.09A7.66,7.66,0,0,0,639.66,467.51Z" transform="translate(-94.9 -387.27)"/><path class="cls-2" d="M651.51,458.35h10.74v2.54H651.51Z" transform="translate(-94.9 -387.27)"/><path class="cls-2" d="M138.53,518.62a5.63,5.63,0,0,1-2,1.13,8.19,8.19,0,0,1-2.52.39,5.71,5.71,0,0,1-6.32-6.28v-13h-3.85v-2.46h3.85v-4.71h2.91v4.71h6.56v2.46h-6.56V513.7a4,4,0,0,0,1,2.93,3.64,3.64,0,0,0,2.76,1,5.43,5.43,0,0,0,1.75-.28,4.38,4.38,0,0,0,1.45-.82Z" transform="translate(-94.9 -387.27)"/><path class="cls-2" d="M143.77,493a2,2,0,0,1-.61-1.47,2,2,0,0,1,.61-1.44,2.07,2.07,0,0,1,1.52-.61,2.13,2.13,0,0,1,1.52.59,1.91,1.91,0,0,1,.61,1.42,2,2,0,0,1-.61,1.51,2.17,2.17,0,0,1-3,0Zm0,5.33h2.91v21.57h-2.91Z" transform="translate(-94.9 -387.27)"/><path class="cls-2" d="M158,518.72a10.25,10.25,0,0,1-3.93-3.91,11.84,11.84,0,0,1,0-11.32,10.09,10.09,0,0,1,3.93-3.9,12.06,12.06,0,0,1,11.24,0,10,10,0,0,1,3.91,3.9,12,12,0,0,1,0,11.32,10.2,10.2,0,0,1-3.91,3.91,11.83,11.83,0,0,1-11.24,0Zm9.74-2.21a7.25,7.25,0,0,0,2.85-3,9.94,9.94,0,0,0,0-8.77,7.23,7.23,0,0,0-2.85-3,8.61,8.61,0,0,0-8.24,0,7.4,7.4,0,0,0-2.87,3,9.68,9.68,0,0,0,0,8.77,7.43,7.43,0,0,0,2.87,3,8.68,8.68,0,0,0,8.24,0Z" transform="translate(-94.9 -387.27)"/><path class="cls-2" d="M198,500.56q2.4,2.35,2.4,6.87v12.5h-2.92V507.71a7.13,7.13,0,0,0-1.68-5.12,6.29,6.29,0,0,0-4.79-1.77,7.37,7.37,0,0,0-5.52,2.07,7.85,7.85,0,0,0-2,5.72v11.32h-2.91V498.36h2.79v4a8,8,0,0,1,3.3-3,10.5,10.5,0,0,1,4.9-1.09A8.82,8.82,0,0,1,198,500.56Z" transform="translate(-94.9 -387.27)"/><path class="cls-2" d="M238.73,489.51v30.42h-2.79v-4.26a8.89,8.89,0,0,1-3.46,3.32,10.26,10.26,0,0,1-4.86,1.15,11,11,0,0,1-5.5-1.4,10,10,0,0,1-3.85-3.89,12.38,12.38,0,0,1,0-11.4,9.84,9.84,0,0,1,3.85-3.88,11.16,11.16,0,0,1,5.5-1.37,10.08,10.08,0,0,1,4.73,1.09,8.94,8.94,0,0,1,3.47,3.17V489.51Zm-6.79,27a7.36,7.36,0,0,0,2.87-3,9.68,9.68,0,0,0,0-8.77,7.33,7.33,0,0,0-2.87-3,8,8,0,0,0-4.08-1.05,8.12,8.12,0,0,0-4.12,1.05,7.46,7.46,0,0,0-2.87,3,9.76,9.76,0,0,0,0,8.77,7.49,7.49,0,0,0,2.87,3,8.22,8.22,0,0,0,4.12,1A8.09,8.09,0,0,0,231.94,516.51Z" transform="translate(-94.9 -387.27)"/><path class="cls-2" d="M245.62,491.23h2.58l-.2,10.82h-2.18Z" transform="translate(-94.9 -387.27)"/><path class="cls-2" d="M255.09,493a2,2,0,0,1-.62-1.47,2,2,0,0,1,.62-1.44,2,2,0,0,1,1.51-.61,2.11,2.11,0,0,1,1.52.59,1.92,1.92,0,0,1,.62,1.42,2.14,2.14,0,0,1-3.65,1.51Zm0,5.33H258v21.57h-2.91Z" transform="translate(-94.9 -387.27)"/><path class="cls-2" d="M266.16,489.51h2.91v30.42h-2.91Z" transform="translate(-94.9 -387.27)"/><path class="cls-2" d="M277.19,489.51h2.91v30.42h-2.91Z" transform="translate(-94.9 -387.27)"/><path class="cls-2" d="M307.65,498.36v21.57h-2.79V516a8,8,0,0,1-3.16,3.06,9.55,9.55,0,0,1-4.59,1.09,9.2,9.2,0,0,1-6.66-2.36c-1.63-1.57-2.44-3.88-2.44-6.91V498.36h2.91v12.22a7.23,7.23,0,0,0,1.68,5.17,6.34,6.34,0,0,0,4.8,1.76,7.05,7.05,0,0,0,5.37-2.07,8,8,0,0,0,2-5.76V498.36Z" transform="translate(-94.9 -387.27)"/><path class="cls-2" d="M316.57,519.38a10.91,10.91,0,0,1-3.76-1.91l1.32-2.3a10.76,10.76,0,0,0,3.4,1.75,13.56,13.56,0,0,0,4.26.67,8.1,8.1,0,0,0,4.37-.92,2.94,2.94,0,0,0,1.42-2.6,2.37,2.37,0,0,0-.78-1.87,5.18,5.18,0,0,0-2-1,26.66,26.66,0,0,0-3.16-.68,36.67,36.67,0,0,1-4.22-1,6.27,6.27,0,0,1-2.73-1.75,4.85,4.85,0,0,1-1.13-3.4,5.36,5.36,0,0,1,2.26-4.43,10.09,10.09,0,0,1,6.27-1.72,16.16,16.16,0,0,1,4.18.55,11.52,11.52,0,0,1,3.45,1.46l-1.27,2.34a10.91,10.91,0,0,0-6.36-1.85,7.32,7.32,0,0,0-4.2,1,3,3,0,0,0-1.42,2.58,2.58,2.58,0,0,0,.8,2,5,5,0,0,0,2,1.08,31.69,31.69,0,0,0,3.28.72,40.53,40.53,0,0,1,4.14,1,6.07,6.07,0,0,1,2.67,1.69,4.6,4.6,0,0,1,1.11,3.28,5.21,5.21,0,0,1-2.36,4.48,11.18,11.18,0,0,1-6.54,1.67A16.72,16.72,0,0,1,316.57,519.38Z" transform="translate(-94.9 -387.27)"/><path class="cls-2" d="M347.21,518.62a5.47,5.47,0,0,1-2,1.13,8.1,8.1,0,0,1-2.52.39,5.71,5.71,0,0,1-6.31-6.28v-13h-3.86v-2.46h3.86v-4.71h2.91v4.71h6.56v2.46h-6.56V513.7a4.09,4.09,0,0,0,1,2.93,3.67,3.67,0,0,0,2.77,1,5.37,5.37,0,0,0,1.74-.28,4.43,4.43,0,0,0,1.46-.82Z" transform="translate(-94.9 -387.27)"/><path class="cls-2" d="M358.34,499.31a10.39,10.39,0,0,1,5-1.11V501l-.7,0a6.91,6.91,0,0,0-5.33,2.09,8.35,8.35,0,0,0-1.93,5.86v11H352.5V498.36h2.79v4.23A7,7,0,0,1,358.34,499.31Z" transform="translate(-94.9 -387.27)"/><path class="cls-2" d="M382.6,500.31q2.25,2.12,2.25,6.25v13.37h-2.79v-3.36a6.65,6.65,0,0,1-2.89,2.62,10.09,10.09,0,0,1-4.53.95,8.87,8.87,0,0,1-5.74-1.73,5.93,5.93,0,0,1-.14-9c1.32-1.12,3.44-1.68,6.33-1.68h6.85v-1.31a5.51,5.51,0,0,0-1.56-4.24,6.43,6.43,0,0,0-4.55-1.46,11.52,11.52,0,0,0-3.93.68,9.89,9.89,0,0,0-3.24,1.86l-1.32-2.17a11.61,11.61,0,0,1,3.94-2.15,15.19,15.19,0,0,1,4.84-.76Q380.34,498.2,382.6,500.31Zm-3.28,16.4a6.73,6.73,0,0,0,2.62-3.26v-3.52h-6.76q-5.54,0-5.54,3.85a3.51,3.51,0,0,0,1.44,3,6.46,6.46,0,0,0,4,1.09A7.72,7.72,0,0,0,379.32,516.71Z" transform="translate(-94.9 -387.27)"/><path class="cls-2" d="M404.12,518.62a5.55,5.55,0,0,1-2,1.13,8.15,8.15,0,0,1-2.52.39,6.33,6.33,0,0,1-4.67-1.64,6.26,6.26,0,0,1-1.64-4.64v-13H389.4v-2.46h3.86v-4.71h2.91v4.71h6.56v2.46h-6.56V513.7a4.09,4.09,0,0,0,1,2.93,3.64,3.64,0,0,0,2.77,1,5.37,5.37,0,0,0,1.74-.28,4.43,4.43,0,0,0,1.46-.82Z" transform="translate(-94.9 -387.27)"/><path class="cls-2" d="M409.37,493a2,2,0,0,1-.62-1.47,2,2,0,0,1,.62-1.44,2.05,2.05,0,0,1,1.52-.61,2.11,2.11,0,0,1,1.51.59,1.92,1.92,0,0,1,.62,1.42,2.14,2.14,0,0,1-3.65,1.51Zm0,5.33h2.91v21.57h-2.91Z" transform="translate(-94.9 -387.27)"/><path class="cls-2" d="M423.64,518.72a10.35,10.35,0,0,1-3.94-3.91,11.92,11.92,0,0,1,0-11.32,10.18,10.18,0,0,1,3.94-3.9,12,12,0,0,1,11.23,0,10.07,10.07,0,0,1,3.92,3.9,12.07,12.07,0,0,1,0,11.32,10.23,10.23,0,0,1-3.92,3.91,11.81,11.81,0,0,1-11.23,0Zm9.73-2.21a7.25,7.25,0,0,0,2.85-3,9.85,9.85,0,0,0,0-8.77,7.23,7.23,0,0,0-2.85-3,8.61,8.61,0,0,0-8.24,0,7.46,7.46,0,0,0-2.87,3,9.76,9.76,0,0,0,0,8.77,7.49,7.49,0,0,0,2.87,3,8.68,8.68,0,0,0,8.24,0Z" transform="translate(-94.9 -387.27)"/><path class="cls-2" d="M463.59,500.56q2.4,2.35,2.4,6.87v12.5h-2.91V507.71a7.13,7.13,0,0,0-1.68-5.12,6.3,6.3,0,0,0-4.8-1.77,7.36,7.36,0,0,0-5.51,2.07,7.81,7.81,0,0,0-2,5.72v11.32h-2.91V498.36h2.78v4a8.17,8.17,0,0,1,3.3-3,10.5,10.5,0,0,1,4.9-1.09A8.82,8.82,0,0,1,463.59,500.56Z" transform="translate(-94.9 -387.27)"/><path class="cls-2" d="M474.66,519.38a10.76,10.76,0,0,1-3.75-1.91l1.31-2.3a10.87,10.87,0,0,0,3.4,1.75,13.58,13.58,0,0,0,4.27.67,8.06,8.06,0,0,0,4.36-.92,2.92,2.92,0,0,0,1.42-2.6,2.34,2.34,0,0,0-.78-1.87,5.18,5.18,0,0,0-2-1,26.22,26.22,0,0,0-3.16-.68,37.73,37.73,0,0,1-4.22-1,6.3,6.3,0,0,1-2.72-1.75,4.8,4.8,0,0,1-1.13-3.4,5.35,5.35,0,0,1,2.25-4.43,10.15,10.15,0,0,1,6.28-1.72,16.28,16.28,0,0,1,4.18.55,11.56,11.56,0,0,1,3.44,1.46l-1.27,2.34a10.88,10.88,0,0,0-6.35-1.85,7.37,7.37,0,0,0-4.21,1,3,3,0,0,0-1.41,2.58,2.58,2.58,0,0,0,.8,2,4.84,4.84,0,0,0,2,1.08,30.53,30.53,0,0,0,3.28.72,40.53,40.53,0,0,1,4.14,1,6,6,0,0,1,2.66,1.69,4.6,4.6,0,0,1,1.11,3.28,5.21,5.21,0,0,1-2.36,4.48,11.18,11.18,0,0,1-6.54,1.67A16.72,16.72,0,0,1,474.66,519.38Z" transform="translate(-94.9 -387.27)"/><path class="cls-2" d="M509,492.79a4.23,4.23,0,0,0-1,3v2.54h6.65v2.46H508.1v19.11h-2.92V500.82h-3.85v-2.46h3.85V495.7a6.32,6.32,0,0,1,1.71-4.67,6.45,6.45,0,0,1,4.81-1.73,8.21,8.21,0,0,1,2.38.35,5.28,5.28,0,0,1,1.93,1l-1,2.17a4.79,4.79,0,0,0-3.19-1.07A3.73,3.73,0,0,0,509,492.79Zm9.61-3.28h2.91v30.42h-2.91Z" transform="translate(-94.9 -387.27)"/><path class="cls-2" d="M543.64,500.31c1.5,1.41,2.26,3.49,2.26,6.25v13.37h-2.79v-3.36a6.71,6.71,0,0,1-2.89,2.62,10.09,10.09,0,0,1-4.53.95,8.85,8.85,0,0,1-5.74-1.73,5.94,5.94,0,0,1-.15-9q2-1.68,6.34-1.68H543v-1.31a5.51,5.51,0,0,0-1.56-4.24,6.44,6.44,0,0,0-4.55-1.46,11.62,11.62,0,0,0-3.94.68,9.89,9.89,0,0,0-3.24,1.86l-1.31-2.17a11.42,11.42,0,0,1,3.94-2.15,15.17,15.17,0,0,1,4.83-.76Q541.39,498.2,543.64,500.31Zm-3.28,16.4a6.75,6.75,0,0,0,2.63-3.26v-3.52h-6.77q-5.54,0-5.53,3.85a3.5,3.5,0,0,0,1.43,3,6.51,6.51,0,0,0,4,1.09A7.66,7.66,0,0,0,540.36,516.71Z" transform="translate(-94.9 -387.27)"/><path class="cls-2" d="M565.17,518.62a5.63,5.63,0,0,1-2,1.13,8.19,8.19,0,0,1-2.52.39,5.71,5.71,0,0,1-6.32-6.28v-13h-3.85v-2.46h3.85v-4.71h2.91v4.71h6.56v2.46h-6.56V513.7a4,4,0,0,0,1,2.93,3.64,3.64,0,0,0,2.76,1,5.43,5.43,0,0,0,1.75-.28,4.38,4.38,0,0,0,1.45-.82Z" transform="translate(-94.9 -387.27)"/><path class="cls-2" d="M585.48,492.79a4.27,4.27,0,0,0-1,3v2.54h6.64v2.46H584.6v19.11h-2.91V500.82h-3.86v-2.46h3.86V495.7a6.35,6.35,0,0,1,1.7-4.67,6.46,6.46,0,0,1,4.82-1.73,8.26,8.26,0,0,1,2.38.35,5.32,5.32,0,0,1,1.92,1l-1,2.17a4.81,4.81,0,0,0-3.2-1.07A3.73,3.73,0,0,0,585.48,492.79Z" transform="translate(-94.9 -387.27)"/><path class="cls-2" d="M597.92,518.72a10.39,10.39,0,0,1-3.93-3.91,11.84,11.84,0,0,1,0-11.32,10.23,10.23,0,0,1,3.93-3.9,12.06,12.06,0,0,1,11.24,0,10,10,0,0,1,3.91,3.9,12,12,0,0,1,0,11.32,10.13,10.13,0,0,1-3.91,3.91,11.83,11.83,0,0,1-11.24,0Zm9.74-2.21a7.25,7.25,0,0,0,2.85-3,9.85,9.85,0,0,0,0-8.77,7.23,7.23,0,0,0-2.85-3,8.61,8.61,0,0,0-8.24,0,7.46,7.46,0,0,0-2.87,3,9.76,9.76,0,0,0,0,8.77,7.49,7.49,0,0,0,2.87,3,8.68,8.68,0,0,0,8.24,0Z" transform="translate(-94.9 -387.27)"/><path class="cls-2" d="M626.28,499.31a10.33,10.33,0,0,1,5-1.11V501l-.7,0a6.91,6.91,0,0,0-5.33,2.09,8.34,8.34,0,0,0-1.92,5.86v11h-2.92V498.36h2.79v4.23A7,7,0,0,1,626.28,499.31Z" transform="translate(-94.9 -387.27)"/><path class="cls-2" d="M635.28,507.55H646v2.54H635.28Z" transform="translate(-94.9 -387.27)"/><path class="cls-2" d="M160.44,549.74c1.55,1.56,2.32,3.85,2.32,6.89v12.5h-2.91V556.91a7.3,7.3,0,0,0-1.62-5.12,5.89,5.89,0,0,0-4.57-1.77,6.85,6.85,0,0,0-5.29,2.07,8.07,8.07,0,0,0-1.93,5.72v11.32h-2.91V556.91a7.3,7.3,0,0,0-1.62-5.12A5.94,5.94,0,0,0,137.3,550a6.88,6.88,0,0,0-5.27,2.07,8,8,0,0,0-1.95,5.72v11.32h-2.91V547.56H130v3.94a7.73,7.73,0,0,1,3.2-3,10,10,0,0,1,4.71-1.07,9.22,9.22,0,0,1,4.7,1.15,7.09,7.09,0,0,1,3,3.4,8.4,8.4,0,0,1,3.42-3.34,10.52,10.52,0,0,1,5.11-1.21A8.56,8.56,0,0,1,160.44,549.74Z" transform="translate(-94.9 -387.27)"/><path class="cls-2" d="M184.69,549.51q2.26,2.12,2.26,6.25v13.37h-2.79v-3.36a6.71,6.71,0,0,1-2.89,2.62,10.09,10.09,0,0,1-4.53,1,8.85,8.85,0,0,1-5.74-1.73,5.94,5.94,0,0,1-.15-9q2-1.68,6.34-1.68H184v-1.31a5.51,5.51,0,0,0-1.56-4.24,6.44,6.44,0,0,0-4.55-1.46,11.62,11.62,0,0,0-3.94.68,9.89,9.89,0,0,0-3.24,1.86l-1.31-2.17a11.69,11.69,0,0,1,3.94-2.15,15.17,15.17,0,0,1,4.83-.76Q182.44,547.4,184.69,549.51Zm-3.28,16.4a6.75,6.75,0,0,0,2.63-3.26v-3.52h-6.77q-5.53,0-5.53,3.85a3.5,3.5,0,0,0,1.43,3,6.51,6.51,0,0,0,4,1.09A7.66,7.66,0,0,0,181.41,565.91Z" transform="translate(-94.9 -387.27)"/><path class="cls-2" d="M212.31,549.76q2.38,2.36,2.39,6.87v12.5h-2.91V556.91a7.13,7.13,0,0,0-1.68-5.12,6.29,6.29,0,0,0-4.79-1.77,7.37,7.37,0,0,0-5.52,2.07,7.85,7.85,0,0,0-2,5.72v11.32h-2.91V547.56h2.79v4a8,8,0,0,1,3.3-3,10.5,10.5,0,0,1,4.9-1.09A8.84,8.84,0,0,1,212.31,549.76Z" transform="translate(-94.9 -387.27)"/><path class="cls-2" d="M234,567.82a5.47,5.47,0,0,1-2,1.13,8.1,8.1,0,0,1-2.52.39,5.71,5.71,0,0,1-6.31-6.28V550h-3.86v-2.46h3.86v-4.71H226v4.71h6.56V550H226V562.9a4.09,4.09,0,0,0,1,2.93,3.67,3.67,0,0,0,2.77,1,5.37,5.37,0,0,0,1.74-.28,4.43,4.43,0,0,0,1.46-.82Z" transform="translate(-94.9 -387.27)"/><path class="cls-2" d="M269.44,547.56v21.57h-2.79v-3.94a8,8,0,0,1-3.16,3.06,9.55,9.55,0,0,1-4.59,1.09,9.18,9.18,0,0,1-6.66-2.36c-1.63-1.57-2.44-3.88-2.44-6.91V547.56h2.91v12.22a7.23,7.23,0,0,0,1.68,5.17,6.34,6.34,0,0,0,4.8,1.76,7.05,7.05,0,0,0,5.37-2.07,8,8,0,0,0,2-5.76V547.56Z" transform="translate(-94.9 -387.27)"/><path class="cls-2" d="M295,549.76q2.4,2.36,2.4,6.87v12.5h-2.91V556.91a7.13,7.13,0,0,0-1.68-5.12,6.3,6.3,0,0,0-4.8-1.77,7.36,7.36,0,0,0-5.51,2.07,7.81,7.81,0,0,0-2,5.72v11.32H277.6V547.56h2.78v4a8.13,8.13,0,0,1,3.31-3,10.46,10.46,0,0,1,4.89-1.09A8.82,8.82,0,0,1,295,549.76Z" transform="translate(-94.9 -387.27)"/><path class="cls-2" d="M324.21,559.25h-18a7.73,7.73,0,0,0,2.59,5.43,8.55,8.55,0,0,0,5.9,2.07,9.27,9.27,0,0,0,3.69-.72,8,8,0,0,0,2.91-2.11l1.64,1.89a9.19,9.19,0,0,1-3.59,2.62,12.85,12.85,0,0,1-10.62-.51,10.21,10.21,0,0,1-4-3.91,11.16,11.16,0,0,1-1.44-5.66,11.51,11.51,0,0,1,1.38-5.66,9.9,9.9,0,0,1,3.77-3.9,11.11,11.11,0,0,1,10.76,0,10,10,0,0,1,3.73,3.88,11.69,11.69,0,0,1,1.35,5.68Zm-15.64-7.36a7.8,7.8,0,0,0-2.4,5.19h15.3a7.84,7.84,0,0,0-2.4-5.19,7.92,7.92,0,0,0-10.5,0Z" transform="translate(-94.9 -387.27)"/><path class="cls-2" d="M357.55,548.77a9.84,9.84,0,0,1,3.85,3.88,12.46,12.46,0,0,1,0,11.44,9.9,9.9,0,0,1-3.83,3.87,11,11,0,0,1-5.52,1.38,10.2,10.2,0,0,1-4.73-1.09,9,9,0,0,1-3.47-3.18v12h-2.91V547.56h2.79v4.27a8.93,8.93,0,0,1,3.46-3.28,10.14,10.14,0,0,1,4.86-1.15A11.16,11.16,0,0,1,357.55,548.77ZM356,565.71a7.41,7.41,0,0,0,2.89-3,9.72,9.72,0,0,0,0-8.75,7.57,7.57,0,0,0-2.89-3,8.43,8.43,0,0,0-8.22,0,7.53,7.53,0,0,0-2.87,3,9.64,9.64,0,0,0,0,8.75,7.36,7.36,0,0,0,2.87,3,8.64,8.64,0,0,0,8.22,0Z" transform="translate(-94.9 -387.27)"/><path class="cls-2" d="M382.64,549.51q2.25,2.12,2.25,6.25v13.37H382.1v-3.36a6.59,6.59,0,0,1-2.89,2.62,10.09,10.09,0,0,1-4.53,1,8.87,8.87,0,0,1-5.74-1.73,5.93,5.93,0,0,1-.14-9q2-1.68,6.33-1.68H382v-1.31a5.51,5.51,0,0,0-1.56-4.24,6.43,6.43,0,0,0-4.55-1.46,11.56,11.56,0,0,0-3.93.68,9.89,9.89,0,0,0-3.24,1.86l-1.31-2.17a11.64,11.64,0,0,1,3.93-2.15,15.19,15.19,0,0,1,4.84-.76Q380.38,547.4,382.64,549.51Zm-3.28,16.4a6.73,6.73,0,0,0,2.62-3.26v-3.52h-6.76q-5.54,0-5.54,3.85a3.51,3.51,0,0,0,1.44,3,6.46,6.46,0,0,0,4,1.09A7.72,7.72,0,0,0,379.36,565.91Z" transform="translate(-94.9 -387.27)"/><path class="cls-2" d="M392.81,538.71h2.91v30.42h-2.91Z" transform="translate(-94.9 -387.27)"/><path class="cls-2" d="M422.61,559.25h-18a7.73,7.73,0,0,0,2.59,5.43,8.55,8.55,0,0,0,5.9,2.07,9.27,9.27,0,0,0,3.69-.72,8,8,0,0,0,2.91-2.11l1.64,1.89a9.19,9.19,0,0,1-3.59,2.62,12.85,12.85,0,0,1-10.62-.51,10.21,10.21,0,0,1-4-3.91,11.16,11.16,0,0,1-1.44-5.66,11.62,11.62,0,0,1,1.37-5.66,10,10,0,0,1,3.78-3.9,11.11,11.11,0,0,1,10.76,0,10,10,0,0,1,3.73,3.88,11.69,11.69,0,0,1,1.35,5.68ZM407,551.89a7.8,7.8,0,0,0-2.4,5.19h15.3a7.89,7.89,0,0,0-2.4-5.19,7.92,7.92,0,0,0-10.5,0Z" transform="translate(-94.9 -387.27)"/><path class="cls-2" d="M440,567.82a5.63,5.63,0,0,1-2,1.13,8.21,8.21,0,0,1-2.53.39,5.71,5.71,0,0,1-6.31-6.28V550h-3.85v-2.46h3.85v-4.71H432v4.71h6.56V550H432V562.9a4.09,4.09,0,0,0,1,2.93,3.67,3.67,0,0,0,2.77,1,5.37,5.37,0,0,0,1.74-.28,4.43,4.43,0,0,0,1.46-.82Z" transform="translate(-94.9 -387.27)"/><path class="cls-2" d="M456,567.82a5.63,5.63,0,0,1-2,1.13,8.19,8.19,0,0,1-2.52.39,5.71,5.71,0,0,1-6.32-6.28V550h-3.85v-2.46h3.85v-4.71h2.91v4.71h6.56V550h-6.56V562.9a4,4,0,0,0,1,2.93,3.64,3.64,0,0,0,2.76,1,5.43,5.43,0,0,0,1.75-.28,4.38,4.38,0,0,0,1.45-.82Z" transform="translate(-94.9 -387.27)"/><path class="cls-2" d="M479.31,559.25h-18a7.73,7.73,0,0,0,2.59,5.43,8.57,8.57,0,0,0,5.9,2.07,9.27,9.27,0,0,0,3.69-.72,8,8,0,0,0,2.91-2.11l1.64,1.89a9.16,9.16,0,0,1-3.58,2.62,12.85,12.85,0,0,1-10.62-.51,10.17,10.17,0,0,1-4-3.91,11.16,11.16,0,0,1-1.44-5.66,11.51,11.51,0,0,1,1.38-5.66,9.9,9.9,0,0,1,3.77-3.9,10.61,10.61,0,0,1,5.39-1.39,10.48,10.48,0,0,1,5.37,1.39,9.88,9.88,0,0,1,3.73,3.88,11.69,11.69,0,0,1,1.36,5.68Zm-15.64-7.36a7.89,7.89,0,0,0-2.4,5.19h15.3a7.8,7.8,0,0,0-2.4-5.19,7.92,7.92,0,0,0-10.5,0Z" transform="translate(-94.9 -387.27)"/><path class="cls-2" d="M515.72,538.71v30.42h-2.79v-4.26a8.89,8.89,0,0,1-3.46,3.32,10.23,10.23,0,0,1-4.86,1.15,10.94,10.94,0,0,1-5.49-1.4,10,10,0,0,1-3.86-3.89,12.38,12.38,0,0,1,0-11.4,9.87,9.87,0,0,1,3.86-3.88,11.13,11.13,0,0,1,5.49-1.37,10.15,10.15,0,0,1,4.74,1.09,9,9,0,0,1,3.46,3.17V538.71Zm-6.78,27a7.49,7.49,0,0,0,2.87-3,9.76,9.76,0,0,0,0-8.77,7.53,7.53,0,0,0-2.87-3,8.53,8.53,0,0,0-8.2,0,7.4,7.4,0,0,0-2.87,3,9.68,9.68,0,0,0,0,8.77,7.36,7.36,0,0,0,2.87,3,8.6,8.6,0,0,0,8.2,0Z" transform="translate(-94.9 -387.27)"/><path class="cls-2" d="M542.62,559.25h-18a7.68,7.68,0,0,0,2.58,5.43,8.58,8.58,0,0,0,5.9,2.07,9.27,9.27,0,0,0,3.69-.72,7.91,7.91,0,0,0,2.92-2.11l1.64,1.89a9.26,9.26,0,0,1-3.59,2.62,12.85,12.85,0,0,1-10.62-.51,10.23,10.23,0,0,1-4-3.91,11.15,11.15,0,0,1-1.43-5.66,11.51,11.51,0,0,1,1.37-5.66,10,10,0,0,1,3.77-3.9,10.63,10.63,0,0,1,5.39-1.39,10.48,10.48,0,0,1,5.37,1.39,10,10,0,0,1,3.74,3.88,11.69,11.69,0,0,1,1.35,5.68ZM527,551.89a7.8,7.8,0,0,0-2.4,5.19h15.29a7.8,7.8,0,0,0-2.4-5.19,7.91,7.91,0,0,0-10.49,0Z" transform="translate(-94.9 -387.27)"/><path class="cls-2" d="M562.56,567.94a10,10,0,0,1-3.95-3.91,11.29,11.29,0,0,1-1.44-5.68,11.13,11.13,0,0,1,1.44-5.66,10.08,10.08,0,0,1,3.95-3.9,11.73,11.73,0,0,1,5.72-1.39,11,11,0,0,1,5,1.09,8.24,8.24,0,0,1,3.47,3.17l-2.17,1.48a6.78,6.78,0,0,0-2.71-2.4,8.06,8.06,0,0,0-3.57-.8,8.42,8.42,0,0,0-4.2,1,7.43,7.43,0,0,0-2.91,3,9,9,0,0,0-1,4.39,9,9,0,0,0,1,4.4,7.4,7.4,0,0,0,2.91,3,8.52,8.52,0,0,0,4.2,1,8.18,8.18,0,0,0,3.57-.78,6.7,6.7,0,0,0,2.71-2.37l2.17,1.47a8.25,8.25,0,0,1-3.49,3.18,11.15,11.15,0,0,1-5,1.09A11.62,11.62,0,0,1,562.56,567.94Z" transform="translate(-94.9 -387.27)"/><path class="cls-2" d="M585.26,567.92a10.35,10.35,0,0,1-3.94-3.91,11.92,11.92,0,0,1,0-11.32,10.18,10.18,0,0,1,3.94-3.9,12,12,0,0,1,11.23,0,10.07,10.07,0,0,1,3.92,3.9,12.07,12.07,0,0,1,0,11.32,10.23,10.23,0,0,1-3.92,3.91,11.81,11.81,0,0,1-11.23,0Zm9.73-2.21a7.25,7.25,0,0,0,2.85-3,9.85,9.85,0,0,0,0-8.77,7.29,7.29,0,0,0-2.85-3,8.61,8.61,0,0,0-8.24,0,7.53,7.53,0,0,0-2.87,3,9.76,9.76,0,0,0,0,8.77,7.49,7.49,0,0,0,2.87,3,8.68,8.68,0,0,0,8.24,0Z" transform="translate(-94.9 -387.27)"/><path class="cls-2" d="M627.2,547.56v21.57h-2.79v-3.94a8,8,0,0,1-3.16,3.06,9.49,9.49,0,0,1-4.59,1.09A9.2,9.2,0,0,1,610,567c-1.63-1.57-2.44-3.88-2.44-6.91V547.56h2.91v12.22a7.23,7.23,0,0,0,1.68,5.17,6.34,6.34,0,0,0,4.8,1.76,7.05,7.05,0,0,0,5.37-2.07,8,8,0,0,0,2-5.76V547.56Z" transform="translate(-94.9 -387.27)"/><path class="cls-2" d="M635.36,538.71h2.91v30.42h-2.91Z" transform="translate(-94.9 -387.27)"/><path class="cls-2" d="M665.17,559.25h-18a7.68,7.68,0,0,0,2.58,5.43,8.57,8.57,0,0,0,5.9,2.07,9.27,9.27,0,0,0,3.69-.72,8,8,0,0,0,2.91-2.11l1.64,1.89a9.16,9.16,0,0,1-3.58,2.62,12.85,12.85,0,0,1-10.62-.51,10.23,10.23,0,0,1-4-3.91,11.16,11.16,0,0,1-1.44-5.66,11.51,11.51,0,0,1,1.38-5.66,9.9,9.9,0,0,1,3.77-3.9,10.63,10.63,0,0,1,5.39-1.39,10.48,10.48,0,0,1,5.37,1.39,9.88,9.88,0,0,1,3.73,3.88,11.58,11.58,0,0,1,1.36,5.68Zm-15.65-7.36a7.83,7.83,0,0,0-2.39,5.19h15.29a7.8,7.8,0,0,0-2.4-5.19,7.92,7.92,0,0,0-10.5,0Z" transform="translate(-94.9 -387.27)"/><path class="cls-2" d="M690.59,547.56v21.57H687.8v-3.94a8,8,0,0,1-3.16,3.06,9.55,9.55,0,0,1-4.59,1.09,9.17,9.17,0,0,1-6.66-2.36c-1.63-1.57-2.44-3.88-2.44-6.91V547.56h2.91v12.22a7.23,7.23,0,0,0,1.68,5.17,6.34,6.34,0,0,0,4.8,1.76,7.08,7.08,0,0,0,5.37-2.07,8,8,0,0,0,2-5.76V547.56Z" transform="translate(-94.9 -387.27)"/><path class="cls-2" d="M704.59,548.51a10.33,10.33,0,0,1,5-1.11v2.83l-.7,0a6.91,6.91,0,0,0-5.33,2.09,8.34,8.34,0,0,0-1.92,5.86v11h-2.92V547.56h2.79v4.23A7,7,0,0,1,704.59,548.51Z" transform="translate(-94.9 -387.27)"/><path class="cls-2" d="M713.52,568.68a2.23,2.23,0,0,1-.63-1.6,2.16,2.16,0,0,1,.63-1.58,2.12,2.12,0,0,1,1.54-.63,2.18,2.18,0,0,1,1.56.63,2.11,2.11,0,0,1,.66,1.58,2.17,2.17,0,0,1-.66,1.6,2.13,2.13,0,0,1-1.56.66A2.07,2.07,0,0,1,713.52,568.68Z" transform="translate(-94.9 -387.27)"/><path class="cls-2" d="M126.31,666.71a8.86,8.86,0,0,1-3.4-3l1.8-2a7.18,7.18,0,0,0,6.19,3.52q5.32,0,5.33-6.31V641.45h-10.5v-2.62h13.49v19.89q0,4.5-2.11,6.78t-6.25,2.28A9.87,9.87,0,0,1,126.31,666.71Z" transform="translate(-94.9 -387.27)"/><path class="cls-2" d="M166.49,657.65h-18a7.68,7.68,0,0,0,2.58,5.43,8.59,8.59,0,0,0,5.91,2.07,9.34,9.34,0,0,0,3.69-.72,8,8,0,0,0,2.91-2.11l1.64,1.89a9.26,9.26,0,0,1-3.59,2.62,12.85,12.85,0,0,1-10.62-.51,10.23,10.23,0,0,1-4-3.91,11.25,11.25,0,0,1-1.43-5.66,11.51,11.51,0,0,1,1.37-5.66,10,10,0,0,1,3.77-3.9,11.13,11.13,0,0,1,10.77,0,10,10,0,0,1,3.73,3.88,11.69,11.69,0,0,1,1.35,5.68Zm-15.64-7.36a7.8,7.8,0,0,0-2.4,5.19h15.29a7.8,7.8,0,0,0-2.4-5.19,7.91,7.91,0,0,0-10.49,0Z" transform="translate(-94.9 -387.27)"/><path class="cls-2" d="M183.22,637.11h2.91v30.42h-2.91Z" transform="translate(-94.9 -387.27)"/><path class="cls-2" d="M193,638.83h2.59l-.21,10.82h-2.17Z" transform="translate(-94.9 -387.27)"/><path class="cls-2" d="M216.55,647.91q2.25,2.12,2.25,6.25v13.37H216v-3.36a6.71,6.71,0,0,1-2.89,2.62,10.16,10.16,0,0,1-4.54,1,8.89,8.89,0,0,1-5.74-1.73,5.93,5.93,0,0,1-.14-9q2-1.68,6.34-1.68h6.84V654a5.51,5.51,0,0,0-1.56-4.24,6.41,6.41,0,0,0-4.55-1.46,11.56,11.56,0,0,0-3.93.68,9.89,9.89,0,0,0-3.24,1.86l-1.31-2.17a11.47,11.47,0,0,1,3.93-2.15,15.23,15.23,0,0,1,4.84-.76C212.89,645.8,215,646.5,216.55,647.91Zm-3.28,16.4a6.73,6.73,0,0,0,2.62-3.26v-3.52h-6.76q-5.53,0-5.54,3.85a3.51,3.51,0,0,0,1.44,3,6.47,6.47,0,0,0,4,1.09A7.69,7.69,0,0,0,213.27,664.31Z" transform="translate(-94.9 -387.27)"/><path class="cls-2" d="M226.68,640.63a2,2,0,0,1-.62-1.47,2,2,0,0,1,.62-1.44,2,2,0,0,1,1.51-.61,2.13,2.13,0,0,1,1.52.59,1.91,1.91,0,0,1,.61,1.42,2,2,0,0,1-.61,1.51,2.07,2.07,0,0,1-1.52.62A2.05,2.05,0,0,1,226.68,640.63Zm0,5.33h2.91v21.57h-2.91Z" transform="translate(-94.9 -387.27)"/><path class="cls-2" d="M265.93,648.16q2.4,2.36,2.4,6.87v12.5h-2.91V655.31a7.13,7.13,0,0,0-1.68-5.12,6.3,6.3,0,0,0-4.8-1.77,7.36,7.36,0,0,0-5.51,2.07,7.81,7.81,0,0,0-2,5.72v11.32h-2.91V646h2.78v4a8.13,8.13,0,0,1,3.31-3.05,10.46,10.46,0,0,1,4.89-1.09A8.82,8.82,0,0,1,265.93,648.16Z" transform="translate(-94.9 -387.27)"/><path class="cls-2" d="M279.52,666.32a10.32,10.32,0,0,1-3.93-3.91,11.84,11.84,0,0,1,0-11.32,10.16,10.16,0,0,1,3.93-3.9,12.06,12.06,0,0,1,11.24,0,10,10,0,0,1,3.91,3.9,12,12,0,0,1,0,11.32,10.2,10.2,0,0,1-3.91,3.91,11.83,11.83,0,0,1-11.24,0Zm9.74-2.21a7.25,7.25,0,0,0,2.85-3,9.85,9.85,0,0,0,0-8.77,7.23,7.23,0,0,0-2.85-3,8.61,8.61,0,0,0-8.24,0,7.4,7.4,0,0,0-2.87,3,9.68,9.68,0,0,0,0,8.77,7.43,7.43,0,0,0,2.87,3,8.68,8.68,0,0,0,8.24,0Z" transform="translate(-94.9 -387.27)"/><path class="cls-2" d="M335.3,648.14c1.55,1.56,2.32,3.85,2.32,6.89v12.5h-2.91V655.31a7.3,7.3,0,0,0-1.62-5.12,5.88,5.88,0,0,0-4.57-1.77,6.87,6.87,0,0,0-5.29,2.07,8.07,8.07,0,0,0-1.93,5.72v11.32h-2.91V655.31a7.3,7.3,0,0,0-1.62-5.12,5.94,5.94,0,0,0-4.61-1.77,6.9,6.9,0,0,0-5.27,2.07,8,8,0,0,0-1.95,5.72v11.32H302V646h2.79v3.94a7.73,7.73,0,0,1,3.2-3,10.06,10.06,0,0,1,4.71-1.07,9.2,9.2,0,0,1,4.7,1.15,7.09,7.09,0,0,1,3,3.4,8.4,8.4,0,0,1,3.42-3.34,10.52,10.52,0,0,1,5.11-1.21A8.56,8.56,0,0,1,335.3,648.14Z" transform="translate(-94.9 -387.27)"/><path class="cls-2" d="M378.8,648.14c1.55,1.56,2.32,3.85,2.32,6.89v12.5h-2.91V655.31a7.3,7.3,0,0,0-1.62-5.12,5.88,5.88,0,0,0-4.57-1.77,6.87,6.87,0,0,0-5.29,2.07,8.07,8.07,0,0,0-1.93,5.72v11.32h-2.91V655.31a7.3,7.3,0,0,0-1.62-5.12,5.94,5.94,0,0,0-4.61-1.77,6.9,6.9,0,0,0-5.27,2.07,8,8,0,0,0-1.95,5.72v11.32h-2.91V646h2.79v3.94a7.79,7.79,0,0,1,3.2-3,10.09,10.09,0,0,1,4.71-1.07,9.2,9.2,0,0,1,4.7,1.15,7.09,7.09,0,0,1,3,3.4,8.4,8.4,0,0,1,3.42-3.34,10.54,10.54,0,0,1,5.11-1.21A8.56,8.56,0,0,1,378.8,648.14Z" transform="translate(-94.9 -387.27)"/><path class="cls-2" d="M407.89,657.65h-18a7.73,7.73,0,0,0,2.59,5.43,8.55,8.55,0,0,0,5.9,2.07,9.27,9.27,0,0,0,3.69-.72,8,8,0,0,0,2.91-2.11l1.64,1.89a9.19,9.19,0,0,1-3.59,2.62,12.85,12.85,0,0,1-10.62-.51,10.21,10.21,0,0,1-4-3.91,11.16,11.16,0,0,1-1.44-5.66,11.51,11.51,0,0,1,1.38-5.66,9.9,9.9,0,0,1,3.77-3.9,11.11,11.11,0,0,1,10.76,0,9.88,9.88,0,0,1,3.73,3.88,11.69,11.69,0,0,1,1.35,5.68Zm-15.64-7.36a7.8,7.8,0,0,0-2.4,5.19h15.3a7.84,7.84,0,0,0-2.4-5.19,7.92,7.92,0,0,0-10.5,0Zm8.18-12.77h3.9l-6.65,5.08h-2.87Z" transform="translate(-94.9 -387.27)"/><path class="cls-2" d="M423.39,638.83H426l-.2,10.82H423.6Zm7,0H433l-.2,10.82h-2.17Z" transform="translate(-94.9 -387.27)"/><path class="cls-2" d="M453.94,647.91q2.25,2.12,2.25,6.25v13.37H453.4v-3.36a6.65,6.65,0,0,1-2.89,2.62,10.09,10.09,0,0,1-4.53,1,8.87,8.87,0,0,1-5.74-1.73,5.93,5.93,0,0,1-.14-9q2-1.68,6.33-1.68h6.85V654a5.51,5.51,0,0,0-1.56-4.24,6.43,6.43,0,0,0-4.55-1.46,11.62,11.62,0,0,0-3.94.68,10,10,0,0,0-3.23,1.86l-1.32-2.17a11.61,11.61,0,0,1,3.94-2.15,15.19,15.19,0,0,1,4.84-.76Q451.67,645.8,453.94,647.91Zm-13.25-10.39h3.9l5.61,5.08h-2.87Zm10,26.79a6.7,6.7,0,0,0,2.63-3.26v-3.52h-6.77q-5.53,0-5.53,3.85a3.53,3.53,0,0,0,1.43,3,6.51,6.51,0,0,0,4,1.09A7.66,7.66,0,0,0,450.65,664.31Z" transform="translate(-94.9 -387.27)"/><path class="cls-2" d="M491.45,647.17a9.84,9.84,0,0,1,3.85,3.88,12.39,12.39,0,0,1,0,11.44,9.83,9.83,0,0,1-3.83,3.87,11,11,0,0,1-5.51,1.38,10.28,10.28,0,0,1-4.74-1.09,8.94,8.94,0,0,1-3.46-3.18v12h-2.92V646h2.79v4.27A9,9,0,0,1,481.1,647,10.08,10.08,0,0,1,486,645.8,11.13,11.13,0,0,1,491.45,647.17Zm-1.6,16.94a7.41,7.41,0,0,0,2.89-3,9.64,9.64,0,0,0,0-8.75,7.57,7.57,0,0,0-2.89-3,8.43,8.43,0,0,0-8.22,0,7.59,7.59,0,0,0-2.87,3,9.64,9.64,0,0,0,0,8.75,7.43,7.43,0,0,0,2.87,3,8.64,8.64,0,0,0,8.22,0Z" transform="translate(-94.9 -387.27)"/><path class="cls-2" d="M502.64,637.11h2.91v30.42h-2.91Z" transform="translate(-94.9 -387.27)"/><path class="cls-2" d="M527.69,647.91Q530,650,530,654.16v13.37h-2.79v-3.36a6.71,6.71,0,0,1-2.89,2.62,10.09,10.09,0,0,1-4.53,1A8.85,8.85,0,0,1,514,666a5.93,5.93,0,0,1-.14-9q2-1.68,6.33-1.68H527V654a5.51,5.51,0,0,0-1.56-4.24,6.44,6.44,0,0,0-4.55-1.46A11.62,11.62,0,0,0,517,649a10,10,0,0,0-3.24,1.86l-1.31-2.17a11.52,11.52,0,0,1,3.94-2.15,15.19,15.19,0,0,1,4.84-.76Q525.43,645.8,527.69,647.91Zm-3.28,16.4a6.75,6.75,0,0,0,2.63-3.26v-3.52h-6.77q-5.53,0-5.53,3.85a3.53,3.53,0,0,0,1.43,3,6.51,6.51,0,0,0,4,1.09A7.66,7.66,0,0,0,524.41,664.31Z" transform="translate(-94.9 -387.27)"/><path class="cls-2" d="M549.22,666.22a5.63,5.63,0,0,1-2,1.13,8.19,8.19,0,0,1-2.52.39,5.71,5.71,0,0,1-6.32-6.28v-13H534.5V646h3.85v-4.71h2.91V646h6.56v2.46h-6.56V661.3a4,4,0,0,0,1,2.93,3.64,3.64,0,0,0,2.77,1,5.37,5.37,0,0,0,1.74-.28,4.38,4.38,0,0,0,1.45-.82Z" transform="translate(-94.9 -387.27)"/><path class="cls-2" d="M584.93,637.11v30.42h-2.79v-4.26a8.89,8.89,0,0,1-3.46,3.32,10.26,10.26,0,0,1-4.86,1.15,11,11,0,0,1-5.5-1.4,10,10,0,0,1-3.85-3.89,12.38,12.38,0,0,1,0-11.4,9.84,9.84,0,0,1,3.85-3.88,11.14,11.14,0,0,1,5.5-1.37,10.08,10.08,0,0,1,4.73,1.09,8.94,8.94,0,0,1,3.47,3.17V637.11Zm-6.79,27a7.36,7.36,0,0,0,2.87-3,9.68,9.68,0,0,0,0-8.77,7.33,7.33,0,0,0-2.87-3,8,8,0,0,0-4.08-1,8.12,8.12,0,0,0-4.12,1,7.46,7.46,0,0,0-2.87,3,9.76,9.76,0,0,0,0,8.77,7.49,7.49,0,0,0,2.87,3,8.22,8.22,0,0,0,4.12,1A8.09,8.09,0,0,0,578.14,664.11Z" transform="translate(-94.9 -387.27)"/><path class="cls-2" d="M611.82,657.65h-18a7.73,7.73,0,0,0,2.59,5.43,8.57,8.57,0,0,0,5.9,2.07,9.27,9.27,0,0,0,3.69-.72,8,8,0,0,0,2.91-2.11l1.64,1.89a9.12,9.12,0,0,1-3.59,2.62,12.82,12.82,0,0,1-10.61-.51,10.17,10.17,0,0,1-4-3.91,11.16,11.16,0,0,1-1.44-5.66,11.51,11.51,0,0,1,1.38-5.66,9.9,9.9,0,0,1,3.77-3.9,10.61,10.61,0,0,1,5.39-1.39,10.48,10.48,0,0,1,5.37,1.39,9.88,9.88,0,0,1,3.73,3.88,11.69,11.69,0,0,1,1.36,5.68Zm-15.64-7.36a7.84,7.84,0,0,0-2.4,5.19h15.3a7.8,7.8,0,0,0-2.4-5.19,7.92,7.92,0,0,0-10.5,0Z" transform="translate(-94.9 -387.27)"/><path class="cls-2" d="M631.77,666.34a10.13,10.13,0,0,1-4-3.91,11.38,11.38,0,0,1-1.43-5.68,11.23,11.23,0,0,1,1.43-5.66,10.17,10.17,0,0,1,4-3.9,11.73,11.73,0,0,1,5.72-1.39,11,11,0,0,1,5,1.09,8.3,8.3,0,0,1,3.47,3.17l-2.18,1.48a6.75,6.75,0,0,0-2.7-2.4,8.12,8.12,0,0,0-3.57-.8,8.39,8.39,0,0,0-4.2,1,7.24,7.24,0,0,0-2.91,3,9,9,0,0,0-1,4.39,9,9,0,0,0,1,4.4,7.28,7.28,0,0,0,2.91,3,8.49,8.49,0,0,0,4.2,1,8.25,8.25,0,0,0,3.57-.78,6.67,6.67,0,0,0,2.7-2.37l2.18,1.47a8.25,8.25,0,0,1-3.49,3.18,11.18,11.18,0,0,1-5,1.09A11.62,11.62,0,0,1,631.77,666.34Z" transform="translate(-94.9 -387.27)"/><path class="cls-2" d="M654.46,666.32a10.32,10.32,0,0,1-3.93-3.91,11.84,11.84,0,0,1,0-11.32,10.16,10.16,0,0,1,3.93-3.9,12.06,12.06,0,0,1,11.24,0,10,10,0,0,1,3.91,3.9,12,12,0,0,1,0,11.32,10.2,10.2,0,0,1-3.91,3.91,11.83,11.83,0,0,1-11.24,0Zm9.74-2.21a7.25,7.25,0,0,0,2.85-3,9.85,9.85,0,0,0,0-8.77,7.23,7.23,0,0,0-2.85-3,8.61,8.61,0,0,0-8.24,0,7.4,7.4,0,0,0-2.87,3,9.68,9.68,0,0,0,0,8.77,7.43,7.43,0,0,0,2.87,3,8.68,8.68,0,0,0,8.24,0Z" transform="translate(-94.9 -387.27)"/><path class="cls-2" d="M696.41,646v21.57h-2.79v-3.94a8,8,0,0,1-3.16,3.06,9.55,9.55,0,0,1-4.59,1.09,9.17,9.17,0,0,1-6.66-2.36c-1.63-1.57-2.44-3.88-2.44-6.91V646h2.91v12.22a7.23,7.23,0,0,0,1.68,5.17,6.34,6.34,0,0,0,4.8,1.76,7.07,7.07,0,0,0,5.37-2.07,8,8,0,0,0,2-5.76V646Z" transform="translate(-94.9 -387.27)"/><path class="cls-2" d="M703,655.15h10.74v2.54H703Z" transform="translate(-94.9 -387.27)"/><path class="cls-2" d="M127.17,686.31h2.91v30.42h-2.91Z" transform="translate(-94.9 -387.27)"/><path class="cls-2" d="M157,706.85h-18a7.68,7.68,0,0,0,2.58,5.43,8.58,8.58,0,0,0,5.9,2.07,9.27,9.27,0,0,0,3.69-.72,8,8,0,0,0,2.91-2.11l1.64,1.89a9.16,9.16,0,0,1-3.58,2.62,12.21,12.21,0,0,1-4.74.91,12,12,0,0,1-5.88-1.42,10.19,10.19,0,0,1-4-3.92A11.09,11.09,0,0,1,136,706a11.51,11.51,0,0,1,1.37-5.66,9.9,9.9,0,0,1,3.77-3.9,10.53,10.53,0,0,1,5.39-1.39,10.38,10.38,0,0,1,5.37,1.39,9.88,9.88,0,0,1,3.73,3.88A11.56,11.56,0,0,1,157,706Zm-15.65-7.36a7.83,7.83,0,0,0-2.39,5.19h15.29a7.8,7.8,0,0,0-2.4-5.19,7.92,7.92,0,0,0-10.5,0Z" transform="translate(-94.9 -387.27)"/><path class="cls-2" d="M182.4,695.16v21.57h-2.79v-3.94a8,8,0,0,1-3.16,3.06,9.55,9.55,0,0,1-4.59,1.09,9.17,9.17,0,0,1-6.66-2.36c-1.63-1.57-2.44-3.88-2.44-6.91V695.16h2.91v12.22a7.23,7.23,0,0,0,1.68,5.17,6.34,6.34,0,0,0,4.8,1.76,7.07,7.07,0,0,0,5.37-2.07,8,8,0,0,0,2-5.76V695.16Z" transform="translate(-94.9 -387.27)"/><path class="cls-2" d="M196.4,696.11a10.33,10.33,0,0,1,5-1.11v2.83l-.7,0a6.87,6.87,0,0,0-5.33,2.09,8.34,8.34,0,0,0-1.92,5.86v11h-2.91V695.16h2.78v4.23A7.07,7.07,0,0,1,196.4,696.11Z" transform="translate(-94.9 -387.27)"/><path class="cls-2" d="M207.59,716.18a10.76,10.76,0,0,1-3.75-1.91l1.31-2.3a10.87,10.87,0,0,0,3.4,1.75,13.58,13.58,0,0,0,4.27.67,8.06,8.06,0,0,0,4.36-.92,2.92,2.92,0,0,0,1.42-2.6,2.34,2.34,0,0,0-.78-1.87,5.18,5.18,0,0,0-2-1,26.22,26.22,0,0,0-3.16-.68,37.19,37.19,0,0,1-4.22-1,6.3,6.3,0,0,1-2.72-1.75,4.8,4.8,0,0,1-1.13-3.4,5.35,5.35,0,0,1,2.25-4.43,10.15,10.15,0,0,1,6.28-1.72,16.28,16.28,0,0,1,4.18.55,11.56,11.56,0,0,1,3.44,1.46l-1.27,2.34a10.88,10.88,0,0,0-6.35-1.85,7.46,7.46,0,0,0-4.21,1,3,3,0,0,0-1.41,2.59,2.54,2.54,0,0,0,.8,2,4.84,4.84,0,0,0,2,1.08,33.2,33.2,0,0,0,3.28.72,40.53,40.53,0,0,1,4.14,1,6.11,6.11,0,0,1,2.66,1.68,4.65,4.65,0,0,1,1.11,3.29,5.21,5.21,0,0,1-2.36,4.48,11.18,11.18,0,0,1-6.54,1.67A16.72,16.72,0,0,1,207.59,716.18Z" transform="translate(-94.9 -387.27)"/><path class="cls-2" d="M225.65,688h2.58l-.2,10.82h-2.17Zm7,0h2.58l-.2,10.82h-2.17Z" transform="translate(-94.9 -387.27)"/><path class="cls-2" d="M269.52,696.37a9.84,9.84,0,0,1,3.85,3.88,12.39,12.39,0,0,1,0,11.44,9.83,9.83,0,0,1-3.83,3.87,11,11,0,0,1-5.51,1.38,10.28,10.28,0,0,1-4.74-1.09,9,9,0,0,1-3.46-3.18v12h-2.92V695.16h2.79v4.27a9,9,0,0,1,3.47-3.28A10.08,10.08,0,0,1,264,695,11.13,11.13,0,0,1,269.52,696.37Zm-1.6,16.94a7.41,7.41,0,0,0,2.89-3,9.64,9.64,0,0,0,0-8.75,7.57,7.57,0,0,0-2.89-3,8.43,8.43,0,0,0-8.22,0,7.59,7.59,0,0,0-2.87,3,9.64,9.64,0,0,0,0,8.75,7.43,7.43,0,0,0,2.87,3,8.64,8.64,0,0,0,8.22,0Z" transform="translate(-94.9 -387.27)"/><path class="cls-2" d="M283.91,715.52A10.3,10.3,0,0,1,280,711.6a11.9,11.9,0,0,1,0-11.31,10.18,10.18,0,0,1,3.94-3.9,12,12,0,0,1,11.23,0,10,10,0,0,1,3.92,3.9,12,12,0,0,1,0,11.31,10.12,10.12,0,0,1-3.92,3.92,11.81,11.81,0,0,1-11.23,0Zm9.74-2.21a7.38,7.38,0,0,0,2.85-3,9.94,9.94,0,0,0,0-8.77,7.35,7.35,0,0,0-2.85-3,8.61,8.61,0,0,0-8.24,0,7.33,7.33,0,0,0-2.87,3,9.68,9.68,0,0,0,0,8.77,7.36,7.36,0,0,0,2.87,3,8.68,8.68,0,0,0,8.24,0Z" transform="translate(-94.9 -387.27)"/><path class="cls-2" d="M325.85,695.16v21.57h-2.78v-3.94a8,8,0,0,1-3.16,3.06,9.55,9.55,0,0,1-4.59,1.09,9.21,9.21,0,0,1-6.67-2.36c-1.62-1.57-2.44-3.88-2.44-6.91V695.16h2.92v12.22a7.23,7.23,0,0,0,1.68,5.17,6.33,6.33,0,0,0,4.79,1.76,7.05,7.05,0,0,0,5.37-2.07,8,8,0,0,0,2-5.76V695.16Z" transform="translate(-94.9 -387.27)"/><path class="cls-2" d="M339.85,696.11a10.39,10.39,0,0,1,5-1.11v2.83l-.7,0a6.86,6.86,0,0,0-5.33,2.09,8.3,8.3,0,0,0-1.93,5.86v11H334V695.16h2.79v4.23A7,7,0,0,1,339.85,696.11Z" transform="translate(-94.9 -387.27)"/><path class="cls-2" d="M362,716.18a10.76,10.76,0,0,1-3.75-1.91l1.31-2.3a10.93,10.93,0,0,0,3.41,1.75,13.47,13.47,0,0,0,4.26.67,8.12,8.12,0,0,0,4.37-.92,2.93,2.93,0,0,0,1.41-2.6,2.34,2.34,0,0,0-.78-1.87,5.11,5.11,0,0,0-2-1,26.43,26.43,0,0,0-3.15-.68,37.44,37.44,0,0,1-4.23-1,6.3,6.3,0,0,1-2.72-1.75,4.85,4.85,0,0,1-1.13-3.4,5.33,5.33,0,0,1,2.26-4.43,10.09,10.09,0,0,1,6.27-1.72,16.22,16.22,0,0,1,4.18.55,11.56,11.56,0,0,1,3.44,1.46l-1.27,2.34a10.86,10.86,0,0,0-6.35-1.85,7.4,7.4,0,0,0-4.2,1,3,3,0,0,0-1.42,2.59,2.58,2.58,0,0,0,.8,2,4.91,4.91,0,0,0,2,1.08c.79.23,1.89.47,3.28.72a40.53,40.53,0,0,1,4.14,1,6.14,6.14,0,0,1,2.67,1.68,4.69,4.69,0,0,1,1.1,3.29,5.18,5.18,0,0,1-2.36,4.48,11.16,11.16,0,0,1-6.53,1.67A16.79,16.79,0,0,1,362,716.18Z" transform="translate(-94.9 -387.27)"/><path class="cls-2" d="M384.44,715.52a10.3,10.3,0,0,1-3.94-3.92,11.9,11.9,0,0,1,0-11.31,10.18,10.18,0,0,1,3.94-3.9,12.06,12.06,0,0,1,11.24,0,10,10,0,0,1,3.91,3.9,12,12,0,0,1,0,11.31,10.16,10.16,0,0,1-3.91,3.92,11.83,11.83,0,0,1-11.24,0Zm9.74-2.21a7.38,7.38,0,0,0,2.85-3,9.94,9.94,0,0,0,0-8.77,7.35,7.35,0,0,0-2.85-3,8.61,8.61,0,0,0-8.24,0,7.33,7.33,0,0,0-2.87,3,9.68,9.68,0,0,0,0,8.77,7.36,7.36,0,0,0,2.87,3,8.68,8.68,0,0,0,8.24,0Z" transform="translate(-94.9 -387.27)"/><path class="cls-2" d="M426.38,695.16v21.57H423.6v-3.94a8,8,0,0,1-3.16,3.06,9.55,9.55,0,0,1-4.59,1.09,9.21,9.21,0,0,1-6.67-2.36c-1.62-1.57-2.43-3.88-2.43-6.91V695.16h2.91v12.22a7.23,7.23,0,0,0,1.68,5.17,6.33,6.33,0,0,0,4.79,1.76,7.05,7.05,0,0,0,5.37-2.07,8,8,0,0,0,2-5.76V695.16Z" transform="translate(-94.9 -387.27)"/><path class="cls-2" d="M434.54,686.31h2.91v30.42h-2.91Z" transform="translate(-94.9 -387.27)"/><path class="cls-2" d="M445.53,689.83a2,2,0,0,1-.61-1.47,2,2,0,0,1,.61-1.44,2.07,2.07,0,0,1,1.52-.61,2.11,2.11,0,0,1,1.51.59,1.92,1.92,0,0,1,.62,1.42,2.12,2.12,0,0,1-2.13,2.13A2.07,2.07,0,0,1,445.53,689.83Zm0,5.33h2.91v21.57h-2.91Z" transform="translate(-94.9 -387.27)"/><path class="cls-2" d="M476.57,695.16v19q0,5.49-2.69,8.13t-8.1,2.65a18.28,18.28,0,0,1-5.67-.88,11.71,11.71,0,0,1-4.37-2.44l1.48-2.22a11,11,0,0,0,3.79,2.18,14.12,14.12,0,0,0,4.69.78c2.74,0,4.74-.64,6-1.91s1.93-3.25,1.93-5.92v-2.75a8.81,8.81,0,0,1-3.55,3.11,10.83,10.83,0,0,1-4.86,1.07,11.42,11.42,0,0,1-5.51-1.33,9.86,9.86,0,0,1-3.9-3.73,10.53,10.53,0,0,1-1.41-5.44,10.42,10.42,0,0,1,1.41-5.41,9.91,9.91,0,0,1,3.88-3.69,11.61,11.61,0,0,1,5.53-1.31,10.9,10.9,0,0,1,5,1.11,8.89,8.89,0,0,1,3.57,3.2v-4.15Zm-6.81,17.16a7.15,7.15,0,0,0,2.93-2.81,8.49,8.49,0,0,0,0-8.18,7.29,7.29,0,0,0-2.91-2.78,9.4,9.4,0,0,0-8.44,0,7.11,7.11,0,0,0-2.92,2.78,8.6,8.6,0,0,0,0,8.2,7.25,7.25,0,0,0,2.92,2.81,8.69,8.69,0,0,0,4.2,1A8.83,8.83,0,0,0,469.76,712.32Z" transform="translate(-94.9 -387.27)"/><path class="cls-2" d="M502.17,697.36q2.4,2.35,2.4,6.87v12.5h-2.91V704.51a7.13,7.13,0,0,0-1.68-5.12,6.3,6.3,0,0,0-4.8-1.77,7.36,7.36,0,0,0-5.51,2.07,7.81,7.81,0,0,0-2,5.72v11.32h-2.91V695.16h2.78v4a8.17,8.17,0,0,1,3.3-3,10.5,10.5,0,0,1,4.9-1.09A8.82,8.82,0,0,1,502.17,697.36Z" transform="translate(-94.9 -387.27)"/><path class="cls-2" d="M531.34,706.85h-18a7.73,7.73,0,0,0,2.59,5.43,8.55,8.55,0,0,0,5.9,2.07,9.27,9.27,0,0,0,3.69-.72,8,8,0,0,0,2.91-2.11l1.64,1.89a9.19,9.19,0,0,1-3.59,2.62,12.85,12.85,0,0,1-10.62-.51,10.16,10.16,0,0,1-4-3.92,11.1,11.1,0,0,1-1.44-5.65,11.62,11.62,0,0,1,1.37-5.66,10,10,0,0,1,3.78-3.9,11.11,11.11,0,0,1,10.76,0,10,10,0,0,1,3.73,3.88,11.66,11.66,0,0,1,1.35,5.68Zm-15.64-7.36a7.8,7.8,0,0,0-2.4,5.19h15.3a7.89,7.89,0,0,0-2.4-5.19,7.92,7.92,0,0,0-10.5,0Z" transform="translate(-94.9 -387.27)"/><path class="cls-2" d="M543.17,696.11a10.35,10.35,0,0,1,5-1.11v2.83l-.69,0a6.86,6.86,0,0,0-5.33,2.09,8.3,8.3,0,0,0-1.93,5.86v11h-2.91V695.16h2.79v4.23A7,7,0,0,1,543.17,696.11Z" transform="translate(-94.9 -387.27)"/><path class="cls-2" d="M564.51,686.31h2.91v30.42h-2.91Z" transform="translate(-94.9 -387.27)"/><path class="cls-2" d="M594.32,706.85h-18a7.68,7.68,0,0,0,2.58,5.43,8.58,8.58,0,0,0,5.9,2.07,9.27,9.27,0,0,0,3.69-.72,8,8,0,0,0,2.91-2.11l1.64,1.89a9.16,9.16,0,0,1-3.58,2.62,12.21,12.21,0,0,1-4.74.91,12,12,0,0,1-5.88-1.42,10.19,10.19,0,0,1-4-3.92,11.09,11.09,0,0,1-1.43-5.65,11.51,11.51,0,0,1,1.37-5.66,9.9,9.9,0,0,1,3.77-3.9A10.53,10.53,0,0,1,583.9,695a10.38,10.38,0,0,1,5.37,1.39,9.88,9.88,0,0,1,3.73,3.88,11.56,11.56,0,0,1,1.36,5.68Zm-15.64-7.36a7.8,7.8,0,0,0-2.4,5.19h15.29a7.8,7.8,0,0,0-2.4-5.19,7.91,7.91,0,0,0-10.49,0Z" transform="translate(-94.9 -387.27)"/><path class="cls-2" d="M614.26,715.54a10,10,0,0,1-4-3.91,11.29,11.29,0,0,1-1.44-5.68,11.13,11.13,0,0,1,1.44-5.66,10.08,10.08,0,0,1,4-3.9A11.62,11.62,0,0,1,620,695a11,11,0,0,1,5,1.09,8.24,8.24,0,0,1,3.47,3.17l-2.17,1.48a6.84,6.84,0,0,0-2.71-2.4,8.06,8.06,0,0,0-3.57-.8,8.39,8.39,0,0,0-4.2,1.05,7.37,7.37,0,0,0-2.91,3,9.72,9.72,0,0,0,0,8.79,7.4,7.4,0,0,0,2.91,3,8.49,8.49,0,0,0,4.2,1,8.18,8.18,0,0,0,3.57-.78,6.72,6.72,0,0,0,2.71-2.38l2.17,1.48a8.32,8.32,0,0,1-3.49,3.18,11.15,11.15,0,0,1-5,1.09A11.62,11.62,0,0,1,614.26,715.54Z" transform="translate(-94.9 -387.27)"/><path class="cls-2" d="M637,715.52A10.3,10.3,0,0,1,633,711.6a11.9,11.9,0,0,1,0-11.31,10.18,10.18,0,0,1,3.94-3.9,12,12,0,0,1,11.23,0,10.07,10.07,0,0,1,3.92,3.9,12,12,0,0,1,0,11.31,10.18,10.18,0,0,1-3.92,3.92,11.81,11.81,0,0,1-11.23,0Zm9.73-2.21a7.25,7.25,0,0,0,2.85-3,9.85,9.85,0,0,0,0-8.77,7.23,7.23,0,0,0-2.85-3,8.61,8.61,0,0,0-8.24,0,7.46,7.46,0,0,0-2.87,3,9.76,9.76,0,0,0,0,8.77,7.49,7.49,0,0,0,2.87,3,8.68,8.68,0,0,0,8.24,0Zm-.1-21.51-4.06-3.4-4.06,3.4h-2.7l5.29-5.08h3l5.29,5.08Z" transform="translate(-94.9 -387.27)"/><path class="cls-2" d="M670.82,715.42a5.47,5.47,0,0,1-2,1.13,8.1,8.1,0,0,1-2.52.39,6.29,6.29,0,0,1-4.67-1.65,6.22,6.22,0,0,1-1.64-4.63v-13H656.1v-2.46H660v-4.71h2.91v4.71h6.56v2.46h-6.56V710.5a4.09,4.09,0,0,0,1,2.93,3.66,3.66,0,0,0,2.77,1,5.37,5.37,0,0,0,1.74-.28,4.43,4.43,0,0,0,1.46-.82Z" transform="translate(-94.9 -387.27)"/><path class="cls-2" d="M694.11,706.85h-18a7.68,7.68,0,0,0,2.58,5.43,8.59,8.59,0,0,0,5.91,2.07,9.27,9.27,0,0,0,3.69-.72,8,8,0,0,0,2.91-2.11l1.64,1.89a9.19,9.19,0,0,1-3.59,2.62,12.85,12.85,0,0,1-10.62-.51,10.19,10.19,0,0,1-4-3.92,11.19,11.19,0,0,1-1.43-5.65,11.62,11.62,0,0,1,1.37-5.66,10,10,0,0,1,3.77-3.9,10.54,10.54,0,0,1,5.4-1.39,10.43,10.43,0,0,1,5.37,1.39,10,10,0,0,1,3.73,3.88,11.66,11.66,0,0,1,1.35,5.68Zm-15.64-7.36a7.8,7.8,0,0,0-2.4,5.19h15.29a7.8,7.8,0,0,0-2.4-5.19,7.91,7.91,0,0,0-10.49,0Zm8.18-12.77h3.89l-6.64,5.08H681Z" transform="translate(-94.9 -387.27)"/><path class="cls-2" d="M131.45,738.79a4.27,4.27,0,0,0-1,3v2.54h6.64v2.46h-6.56v19.11h-2.91V746.82h-3.85v-2.46h3.85V741.7a6.35,6.35,0,0,1,1.7-4.67,6.48,6.48,0,0,1,4.82-1.73,8.26,8.26,0,0,1,2.38.35,5.37,5.37,0,0,1,1.93,1l-1,2.17a4.81,4.81,0,0,0-3.2-1.07A3.76,3.76,0,0,0,131.45,738.79Zm9.62-3.28H144v30.42h-2.91Z" transform="translate(-94.9 -387.27)"/><path class="cls-2" d="M166.12,746.31q2.25,2.12,2.25,6.25v13.37h-2.78v-3.36a6.71,6.71,0,0,1-2.89,2.62,10.15,10.15,0,0,1-4.53.95,8.85,8.85,0,0,1-5.74-1.73,5.92,5.92,0,0,1-.15-9q2-1.68,6.34-1.68h6.84v-1.31a5.54,5.54,0,0,0-1.55-4.24,6.45,6.45,0,0,0-4.56-1.46,11.56,11.56,0,0,0-3.93.68,9.89,9.89,0,0,0-3.24,1.86l-1.31-2.17A11.47,11.47,0,0,1,154.8,745a15.23,15.23,0,0,1,4.84-.76Q163.87,744.2,166.12,746.31Zm-3.28,16.4a6.73,6.73,0,0,0,2.62-3.26v-3.52H158.7q-5.53,0-5.54,3.85a3.51,3.51,0,0,0,1.44,3,6.47,6.47,0,0,0,4,1.09A7.69,7.69,0,0,0,162.84,762.71Z" transform="translate(-94.9 -387.27)"/><path class="cls-2" d="M187.64,764.62a5.47,5.47,0,0,1-2,1.13,8.1,8.1,0,0,1-2.52.39,5.71,5.71,0,0,1-6.31-6.28v-13h-3.86v-2.46h3.86v-4.71h2.91v4.71h6.56v2.46h-6.56V759.7a4.09,4.09,0,0,0,1,2.93,3.67,3.67,0,0,0,2.77,1,5.37,5.37,0,0,0,1.74-.28,4.43,4.43,0,0,0,1.46-.82Z" transform="translate(-94.9 -387.27)"/><path class="cls-2" d="M223.35,735.51v30.42h-2.78v-4.26A8.92,8.92,0,0,1,217.1,765a10.2,10.2,0,0,1-4.86,1.15,10.94,10.94,0,0,1-5.49-1.4,9.93,9.93,0,0,1-3.85-3.89,12.3,12.3,0,0,1,0-11.4,9.78,9.78,0,0,1,3.85-3.88,11.13,11.13,0,0,1,5.49-1.37,10.15,10.15,0,0,1,4.74,1.09,8.91,8.91,0,0,1,3.46,3.17v-13Zm-6.78,27a7.49,7.49,0,0,0,2.87-3,9.76,9.76,0,0,0,0-8.77,7.46,7.46,0,0,0-2.87-3,8.53,8.53,0,0,0-8.2,0,7.4,7.4,0,0,0-2.87,3,9.68,9.68,0,0,0,0,8.77,7.43,7.43,0,0,0,2.87,3,8.6,8.6,0,0,0,8.2,0Z" transform="translate(-94.9 -387.27)"/><path class="cls-2" d="M250.25,756.05h-18a7.68,7.68,0,0,0,2.58,5.43,8.59,8.59,0,0,0,5.91,2.07,9.27,9.27,0,0,0,3.69-.72,8,8,0,0,0,2.91-2.11l1.64,1.89a9.19,9.19,0,0,1-3.59,2.62,12.85,12.85,0,0,1-10.62-.51,10.23,10.23,0,0,1-4-3.91,11.25,11.25,0,0,1-1.43-5.66,11.62,11.62,0,0,1,1.37-5.66,10,10,0,0,1,3.77-3.9,10.64,10.64,0,0,1,5.4-1.39,10.53,10.53,0,0,1,5.37,1.39,10,10,0,0,1,3.73,3.88,11.69,11.69,0,0,1,1.35,5.68Zm-15.64-7.36a7.8,7.8,0,0,0-2.4,5.19H247.5a7.8,7.8,0,0,0-2.4-5.19,7.91,7.91,0,0,0-10.49,0ZM233,735.92h3.89L242.5,741h-2.87Z" transform="translate(-94.9 -387.27)"/><path class="cls-2" d="M257,765.38a10.85,10.85,0,0,1-3.75-1.91l1.31-2.3a10.93,10.93,0,0,0,3.41,1.75,13.51,13.51,0,0,0,4.26.67,8.1,8.1,0,0,0,4.37-.92,2.93,2.93,0,0,0,1.41-2.6,2.34,2.34,0,0,0-.78-1.87,5.14,5.14,0,0,0-2-1,27.12,27.12,0,0,0-3.16-.68,36.67,36.67,0,0,1-4.22-1,6.27,6.27,0,0,1-2.73-1.75,4.85,4.85,0,0,1-1.13-3.4,5.33,5.33,0,0,1,2.26-4.43,10.09,10.09,0,0,1,6.27-1.72,16.22,16.22,0,0,1,4.18.55,11.63,11.63,0,0,1,3.45,1.46l-1.28,2.34a10.86,10.86,0,0,0-6.35-1.85,7.32,7.32,0,0,0-4.2,1,3,3,0,0,0-1.42,2.58,2.58,2.58,0,0,0,.8,2,5,5,0,0,0,2,1.08A31.1,31.1,0,0,0,263,754a40.53,40.53,0,0,1,4.14,1,6.07,6.07,0,0,1,2.67,1.69,4.65,4.65,0,0,1,1.1,3.28,5.2,5.2,0,0,1-2.35,4.48,11.22,11.22,0,0,1-6.54,1.67A16.79,16.79,0,0,1,257,765.38Z" transform="translate(-94.9 -387.27)"/><path class="cls-2" d="M287,739a2,2,0,0,1-.62-1.47,2,2,0,0,1,.62-1.44,2,2,0,0,1,1.51-.61,2.13,2.13,0,0,1,1.52.59,1.91,1.91,0,0,1,.61,1.42A2,2,0,0,1,290,739a2.07,2.07,0,0,1-1.52.62A2.05,2.05,0,0,1,287,739Zm0,5.33h2.91v21.57H287Z" transform="translate(-94.9 -387.27)"/><path class="cls-2" d="M298.06,735.51H301v30.42h-2.91Z" transform="translate(-94.9 -387.27)"/><path class="cls-2" d="M309.08,735.51H312v30.42h-2.92Z" transform="translate(-94.9 -387.27)"/><path class="cls-2" d="M339.55,744.36v21.57h-2.79V762a8,8,0,0,1-3.16,3.06,9.55,9.55,0,0,1-4.59,1.09,9.17,9.17,0,0,1-6.66-2.36c-1.63-1.57-2.44-3.88-2.44-6.91V744.36h2.91v12.22a7.23,7.23,0,0,0,1.68,5.17,6.34,6.34,0,0,0,4.8,1.76,7.07,7.07,0,0,0,5.37-2.07,8,8,0,0,0,2-5.76V744.36Z" transform="translate(-94.9 -387.27)"/><path class="cls-2" d="M348.46,765.38a10.76,10.76,0,0,1-3.75-1.91l1.31-2.3a10.93,10.93,0,0,0,3.41,1.75,13.51,13.51,0,0,0,4.26.67,8.12,8.12,0,0,0,4.37-.92,2.93,2.93,0,0,0,1.41-2.6,2.34,2.34,0,0,0-.78-1.87,5.14,5.14,0,0,0-2-1,27.12,27.12,0,0,0-3.16-.68,36.67,36.67,0,0,1-4.22-1,6.27,6.27,0,0,1-2.73-1.75,4.85,4.85,0,0,1-1.13-3.4,5.33,5.33,0,0,1,2.26-4.43A10.09,10.09,0,0,1,354,744.2a16.22,16.22,0,0,1,4.18.55,11.63,11.63,0,0,1,3.45,1.46l-1.28,2.34A10.86,10.86,0,0,0,354,746.7a7.32,7.32,0,0,0-4.2,1,3,3,0,0,0-1.42,2.58,2.58,2.58,0,0,0,.8,2,4.91,4.91,0,0,0,2,1.08,31.1,31.1,0,0,0,3.28.72,40.53,40.53,0,0,1,4.14,1,6.07,6.07,0,0,1,2.67,1.69,4.65,4.65,0,0,1,1.1,3.28,5.2,5.2,0,0,1-2.35,4.48,11.22,11.22,0,0,1-6.54,1.67A16.79,16.79,0,0,1,348.46,765.38Z" transform="translate(-94.9 -387.27)"/><path class="cls-2" d="M379.11,764.62a5.55,5.55,0,0,1-2,1.13,8.15,8.15,0,0,1-2.52.39,6.33,6.33,0,0,1-4.67-1.64,6.26,6.26,0,0,1-1.64-4.64v-13h-3.86v-2.46h3.86v-4.71h2.91v4.71h6.56v2.46h-6.56V759.7a4.09,4.09,0,0,0,1,2.93,3.66,3.66,0,0,0,2.77,1,5.37,5.37,0,0,0,1.74-.28,4.43,4.43,0,0,0,1.46-.82Z" transform="translate(-94.9 -387.27)"/><path class="cls-2" d="M390.24,745.31a10.38,10.38,0,0,1,5-1.11V747l-.69,0a6.89,6.89,0,0,0-5.33,2.09,8.3,8.3,0,0,0-1.93,5.86v11H384.4V744.36h2.79v4.23A7,7,0,0,1,390.24,745.31Z" transform="translate(-94.9 -387.27)"/><path class="cls-2" d="M414.49,746.31q2.26,2.12,2.26,6.25v13.37H414v-3.36a6.71,6.71,0,0,1-2.89,2.62,10.09,10.09,0,0,1-4.53.95,8.85,8.85,0,0,1-5.74-1.73,5.93,5.93,0,0,1-.14-9q2-1.68,6.33-1.68h6.85v-1.31a5.51,5.51,0,0,0-1.56-4.24,6.44,6.44,0,0,0-4.55-1.46,11.62,11.62,0,0,0-3.94.68,10.1,10.1,0,0,0-3.24,1.86l-1.31-2.17a11.52,11.52,0,0,1,3.94-2.15,15.19,15.19,0,0,1,4.84-.76Q412.24,744.2,414.49,746.31Zm-3.28,16.4a6.75,6.75,0,0,0,2.63-3.26v-3.52h-6.77q-5.54,0-5.53,3.85a3.53,3.53,0,0,0,1.43,3,6.51,6.51,0,0,0,4,1.09A7.66,7.66,0,0,0,411.21,762.71Z" transform="translate(-94.9 -387.27)"/><path class="cls-2" d="M436,764.62a5.63,5.63,0,0,1-2,1.13,8.19,8.19,0,0,1-2.52.39,5.71,5.71,0,0,1-6.32-6.28v-13H421.3v-2.46h3.85v-4.71h2.91v4.71h6.56v2.46h-6.56V759.7a4.09,4.09,0,0,0,1,2.93,3.64,3.64,0,0,0,2.77,1,5.37,5.37,0,0,0,1.74-.28,4.38,4.38,0,0,0,1.45-.82Z" transform="translate(-94.9 -387.27)"/><path class="cls-2" d="M441.27,739a2,2,0,0,1-.62-1.47,2,2,0,0,1,.62-1.44,2,2,0,0,1,1.51-.61,2.13,2.13,0,0,1,1.52.59,1.92,1.92,0,0,1,.62,1.42,2.05,2.05,0,0,1-.62,1.51,2.07,2.07,0,0,1-1.52.62A2.05,2.05,0,0,1,441.27,739Zm0,5.33h2.91v21.57h-2.91Z" transform="translate(-94.9 -387.27)"/><path class="cls-2" d="M455.53,764.72a10.32,10.32,0,0,1-3.93-3.91,11.84,11.84,0,0,1,0-11.32,10.16,10.16,0,0,1,3.93-3.9,12.06,12.06,0,0,1,11.24,0,10,10,0,0,1,3.91,3.9,12,12,0,0,1,0,11.32,10.2,10.2,0,0,1-3.91,3.91,11.83,11.83,0,0,1-11.24,0Zm9.74-2.21a7.25,7.25,0,0,0,2.85-3,9.85,9.85,0,0,0,0-8.77,7.23,7.23,0,0,0-2.85-3,8.61,8.61,0,0,0-8.24,0,7.4,7.4,0,0,0-2.87,3,9.68,9.68,0,0,0,0,8.77,7.43,7.43,0,0,0,2.87,3,8.68,8.68,0,0,0,8.24,0Z" transform="translate(-94.9 -387.27)"/><path class="cls-2" d="M495.49,746.56q2.4,2.36,2.4,6.87v12.5H495V753.71a7.09,7.09,0,0,0-1.69-5.12,6.29,6.29,0,0,0-4.79-1.77,7.38,7.38,0,0,0-5.52,2.07,7.85,7.85,0,0,0-2,5.72v11.32H478V744.36h2.79v4a8,8,0,0,1,3.3-3.05,10.5,10.5,0,0,1,4.9-1.09A8.82,8.82,0,0,1,495.49,746.56Z" transform="translate(-94.9 -387.27)"/><path class="cls-2" d="M504.55,765.48a2.19,2.19,0,0,1-.64-1.6,2.13,2.13,0,0,1,.64-1.58,2.09,2.09,0,0,1,1.54-.63,2.14,2.14,0,0,1,1.55.63,2.11,2.11,0,0,1,.66,1.58,2.17,2.17,0,0,1-.66,1.6,2.1,2.1,0,0,1-1.55.66A2,2,0,0,1,504.55,765.48Z" transform="translate(-94.9 -387.27)"/><path class="cls-2" d="M147.38,815.13l-6.56-9.22a21.26,21.26,0,0,1-2.29.12h-7.71v9.1h-3v-28.7h10.75c3.66,0,6.53.88,8.61,2.62a9,9,0,0,1,3.11,7.22,8.89,8.89,0,0,1-6.56,9l7,9.84ZM145,801.56a7.39,7.39,0,0,0,0-10.64c-1.5-1.24-3.67-1.87-6.52-1.87h-7.62v14.4h7.62Q142.71,803.45,145,801.56Z" transform="translate(-94.9 -387.27)"/><path class="cls-2" d="M175.59,805.25h-18a7.72,7.72,0,0,0,2.58,5.43,8.59,8.59,0,0,0,5.91,2.07,9.27,9.27,0,0,0,3.69-.72,8,8,0,0,0,2.91-2.11l1.64,1.89a9.19,9.19,0,0,1-3.59,2.62,12.85,12.85,0,0,1-10.62-.51,10.23,10.23,0,0,1-4-3.91,11.25,11.25,0,0,1-1.43-5.66,11.62,11.62,0,0,1,1.37-5.66,10,10,0,0,1,3.78-3.9,11.11,11.11,0,0,1,10.76,0,10,10,0,0,1,3.73,3.88,11.69,11.69,0,0,1,1.35,5.68ZM160,797.89a7.8,7.8,0,0,0-2.4,5.19h15.29a7.8,7.8,0,0,0-2.4-5.19,7.91,7.91,0,0,0-10.49,0Zm8.18-12.77H172l-6.64,5.08h-2.87Z" transform="translate(-94.9 -387.27)"/><path class="cls-2" d="M195,795.51q2.27,2.12,2.26,6.25v13.37h-2.79v-3.36a6.71,6.71,0,0,1-2.89,2.62,10.09,10.09,0,0,1-4.53,1,8.85,8.85,0,0,1-5.74-1.73,5.93,5.93,0,0,1-.14-9q2-1.68,6.33-1.68h6.85v-1.31a5.51,5.51,0,0,0-1.56-4.24,6.44,6.44,0,0,0-4.55-1.46,11.62,11.62,0,0,0-3.94.68,10,10,0,0,0-3.24,1.86l-1.31-2.17a11.69,11.69,0,0,1,3.94-2.15,15.19,15.19,0,0,1,4.84-.76Q192.73,793.4,195,795.51Zm-3.28,16.4a6.75,6.75,0,0,0,2.63-3.26v-3.52h-6.77q-5.53,0-5.53,3.85a3.53,3.53,0,0,0,1.43,3,6.51,6.51,0,0,0,4,1.09A7.66,7.66,0,0,0,191.7,811.91Z" transform="translate(-94.9 -387.27)"/><path class="cls-2" d="M205.15,784.71h2.91v30.42h-2.91Z" transform="translate(-94.9 -387.27)"/><path class="cls-2" d="M216.14,788.23a2,2,0,0,1-.62-1.47,2,2,0,0,1,.62-1.44,2.05,2.05,0,0,1,1.52-.61,2.11,2.11,0,0,1,1.51.59,1.92,1.92,0,0,1,.62,1.42,2.14,2.14,0,0,1-3.65,1.51Zm0,5.33h2.91v21.57h-2.91Z" transform="translate(-94.9 -387.27)"/><path class="cls-2" d="M228,814.58a10.76,10.76,0,0,1-3.75-1.91l1.31-2.3a10.76,10.76,0,0,0,3.4,1.75,13.56,13.56,0,0,0,4.26.67,8.1,8.1,0,0,0,4.37-.92,2.94,2.94,0,0,0,1.42-2.6,2.35,2.35,0,0,0-.78-1.87,5.18,5.18,0,0,0-2-1,28.84,28.84,0,0,0-3.16-.68,37.19,37.19,0,0,1-4.22-1,6.27,6.27,0,0,1-2.73-1.75,4.84,4.84,0,0,1-1.12-3.4,5.35,5.35,0,0,1,2.25-4.43,10.09,10.09,0,0,1,6.27-1.72,16.29,16.29,0,0,1,4.19.55,11.56,11.56,0,0,1,3.44,1.46l-1.27,2.34a10.91,10.91,0,0,0-6.36-1.85,7.32,7.32,0,0,0-4.2,1,3,3,0,0,0-1.41,2.58,2.54,2.54,0,0,0,.8,2,4.87,4.87,0,0,0,2,1.08,31.69,31.69,0,0,0,3.28.72,39.27,39.27,0,0,1,4.14,1,6.07,6.07,0,0,1,2.67,1.69,4.6,4.6,0,0,1,1.11,3.28,5.21,5.21,0,0,1-2.36,4.48,11.18,11.18,0,0,1-6.54,1.67A16.72,16.72,0,0,1,228,814.58Z" transform="translate(-94.9 -387.27)"/><path class="cls-2" d="M266,805.25H248a7.68,7.68,0,0,0,2.58,5.43,8.57,8.57,0,0,0,5.9,2.07,9.27,9.27,0,0,0,3.69-.72,8,8,0,0,0,2.91-2.11l1.64,1.89a9.16,9.16,0,0,1-3.58,2.62,12.85,12.85,0,0,1-10.62-.51,10.23,10.23,0,0,1-4-3.91,11.16,11.16,0,0,1-1.44-5.66,11.51,11.51,0,0,1,1.38-5.66,9.9,9.9,0,0,1,3.77-3.9,10.63,10.63,0,0,1,5.39-1.39,10.48,10.48,0,0,1,5.37,1.39,9.88,9.88,0,0,1,3.73,3.88,11.58,11.58,0,0,1,1.36,5.68Zm-15.65-7.36a7.83,7.83,0,0,0-2.39,5.19h15.29a7.8,7.8,0,0,0-2.4-5.19,7.92,7.92,0,0,0-10.5,0Zm8.18-12.77h3.9l-6.64,5.08H253Z" transform="translate(-94.9 -387.27)"/><path class="cls-2" d="M283.52,814.58a10.76,10.76,0,0,1-3.75-1.91l1.31-2.3a10.87,10.87,0,0,0,3.4,1.75,13.58,13.58,0,0,0,4.27.67,8.12,8.12,0,0,0,4.37-.92,2.93,2.93,0,0,0,1.41-2.6,2.35,2.35,0,0,0-.78-1.87,5.11,5.11,0,0,0-2-1,28.59,28.59,0,0,0-3.15-.68,37.44,37.44,0,0,1-4.23-1,6.3,6.3,0,0,1-2.72-1.75,4.8,4.8,0,0,1-1.13-3.4,5.35,5.35,0,0,1,2.25-4.43,10.15,10.15,0,0,1,6.28-1.72,16.22,16.22,0,0,1,4.18.55,11.56,11.56,0,0,1,3.44,1.46l-1.27,2.34a10.88,10.88,0,0,0-6.35-1.85,7.37,7.37,0,0,0-4.21,1,3,3,0,0,0-1.41,2.58,2.58,2.58,0,0,0,.8,2,4.91,4.91,0,0,0,2,1.08,30.53,30.53,0,0,0,3.28.72,40.53,40.53,0,0,1,4.14,1,6,6,0,0,1,2.66,1.69,4.6,4.6,0,0,1,1.11,3.28,5.18,5.18,0,0,1-2.36,4.48,11.18,11.18,0,0,1-6.54,1.67A16.72,16.72,0,0,1,283.52,814.58Z" transform="translate(-94.9 -387.27)"/><path class="cls-2" d="M322.25,793.56v21.57h-2.79v-3.94a8,8,0,0,1-3.16,3.06,9.55,9.55,0,0,1-4.59,1.09,9.17,9.17,0,0,1-6.66-2.36c-1.63-1.57-2.44-3.88-2.44-6.91V793.56h2.91v12.22A7.23,7.23,0,0,0,307.2,811a6.34,6.34,0,0,0,4.8,1.76,7.08,7.08,0,0,0,5.37-2.07,8,8,0,0,0,2-5.76V793.56Z" transform="translate(-94.9 -387.27)"/><path class="cls-2" d="M336.25,794.51a10.33,10.33,0,0,1,5-1.11v2.83l-.7,0a6.91,6.91,0,0,0-5.33,2.09,8.34,8.34,0,0,0-1.92,5.86v11H330.4V793.56h2.79v4.23A7.07,7.07,0,0,1,336.25,794.51Z" transform="translate(-94.9 -387.27)"/><path class="cls-2" d="M357.55,788.23a2,2,0,0,1-.62-1.47,2,2,0,0,1,.62-1.44,2,2,0,0,1,1.51-.61,2.13,2.13,0,0,1,1.52.59,1.91,1.91,0,0,1,.61,1.42,2,2,0,0,1-.61,1.51,2.07,2.07,0,0,1-1.52.62A2.05,2.05,0,0,1,357.55,788.23Zm0,5.33h2.91v21.57h-2.91Z" transform="translate(-94.9 -387.27)"/><path class="cls-2" d="M368.62,784.71h2.91v30.42h-2.91Z" transform="translate(-94.9 -387.27)"/><path class="cls-2" d="M379.64,784.71h2.92v30.42h-2.92Z" transform="translate(-94.9 -387.27)"/><path class="cls-2" d="M410.11,793.56v21.57h-2.79v-3.94a8,8,0,0,1-3.16,3.06,9.55,9.55,0,0,1-4.59,1.09,9.17,9.17,0,0,1-6.66-2.36c-1.63-1.57-2.44-3.88-2.44-6.91V793.56h2.91v12.22a7.23,7.23,0,0,0,1.68,5.17,6.34,6.34,0,0,0,4.8,1.76,7.05,7.05,0,0,0,5.37-2.07,8,8,0,0,0,2-5.76V793.56Z" transform="translate(-94.9 -387.27)"/><path class="cls-2" d="M419,814.58a10.85,10.85,0,0,1-3.75-1.91l1.31-2.3a10.93,10.93,0,0,0,3.41,1.75,13.51,13.51,0,0,0,4.26.67,8.1,8.1,0,0,0,4.37-.92,2.93,2.93,0,0,0,1.41-2.6,2.35,2.35,0,0,0-.78-1.87,5.14,5.14,0,0,0-2-1,29.38,29.38,0,0,0-3.16-.68,36.67,36.67,0,0,1-4.22-1,6.27,6.27,0,0,1-2.73-1.75,4.85,4.85,0,0,1-1.13-3.4,5.33,5.33,0,0,1,2.26-4.43,10.09,10.09,0,0,1,6.27-1.72,16.22,16.22,0,0,1,4.18.55,11.63,11.63,0,0,1,3.45,1.46l-1.27,2.34a10.91,10.91,0,0,0-6.36-1.85,7.32,7.32,0,0,0-4.2,1,3,3,0,0,0-1.42,2.58,2.58,2.58,0,0,0,.8,2,5,5,0,0,0,2,1.08,31.1,31.1,0,0,0,3.28.72,40.53,40.53,0,0,1,4.14,1,6.07,6.07,0,0,1,2.67,1.69,4.6,4.6,0,0,1,1.1,3.28,5.2,5.2,0,0,1-2.35,4.48,11.22,11.22,0,0,1-6.54,1.67A16.79,16.79,0,0,1,419,814.58Z" transform="translate(-94.9 -387.27)"/><path class="cls-2" d="M449.67,813.82a5.47,5.47,0,0,1-2,1.13,8.1,8.1,0,0,1-2.52.39,6.33,6.33,0,0,1-4.67-1.64,6.26,6.26,0,0,1-1.64-4.64V796H435v-2.46h3.86v-4.71h2.91v4.71h6.56V796h-6.56V808.9a4.09,4.09,0,0,0,1,2.93,3.66,3.66,0,0,0,2.77,1,5.37,5.37,0,0,0,1.74-.28,4.43,4.43,0,0,0,1.46-.82Z" transform="translate(-94.9 -387.27)"/><path class="cls-2" d="M460.8,794.51a10.39,10.39,0,0,1,5-1.11v2.83l-.7,0a6.89,6.89,0,0,0-5.33,2.09,8.3,8.3,0,0,0-1.93,5.86v11H455V793.56h2.79v4.23A7,7,0,0,1,460.8,794.51Z" transform="translate(-94.9 -387.27)"/><path class="cls-2" d="M485.05,795.51q2.26,2.12,2.26,6.25v13.37h-2.79v-3.36a6.65,6.65,0,0,1-2.89,2.62,10.09,10.09,0,0,1-4.53,1,8.85,8.85,0,0,1-5.74-1.73,5.93,5.93,0,0,1-.14-9q2-1.68,6.33-1.68h6.85v-1.31a5.51,5.51,0,0,0-1.56-4.24,6.44,6.44,0,0,0-4.55-1.46,11.62,11.62,0,0,0-3.94.68,10.1,10.1,0,0,0-3.24,1.86l-1.31-2.17a11.78,11.78,0,0,1,3.94-2.15,15.19,15.19,0,0,1,4.84-.76Q482.79,793.4,485.05,795.51Zm-3.28,16.4a6.75,6.75,0,0,0,2.63-3.26v-3.52h-6.77q-5.53,0-5.53,3.85a3.53,3.53,0,0,0,1.43,3,6.51,6.51,0,0,0,4,1.09A7.66,7.66,0,0,0,481.77,811.91Z" transform="translate(-94.9 -387.27)"/><path class="cls-2" d="M506.58,813.82a5.55,5.55,0,0,1-2,1.13,8.19,8.19,0,0,1-2.52.39,5.71,5.71,0,0,1-6.32-6.28V796h-3.85v-2.46h3.85v-4.71h2.92v4.71h6.56V796h-6.56V808.9a4.09,4.09,0,0,0,1,2.93,3.64,3.64,0,0,0,2.77,1,5.37,5.37,0,0,0,1.74-.28,4.38,4.38,0,0,0,1.45-.82Z" transform="translate(-94.9 -387.27)"/><path class="cls-2" d="M514.29,813.92a10.35,10.35,0,0,1-3.94-3.91,11.92,11.92,0,0,1,0-11.32,10.18,10.18,0,0,1,3.94-3.9,12,12,0,0,1,11.23,0,10.07,10.07,0,0,1,3.92,3.9,12.07,12.07,0,0,1,0,11.32,10.23,10.23,0,0,1-3.92,3.91,11.81,11.81,0,0,1-11.23,0Zm9.73-2.21a7.25,7.25,0,0,0,2.85-3,9.85,9.85,0,0,0,0-8.77,7.29,7.29,0,0,0-2.85-3,8.61,8.61,0,0,0-8.24,0,7.53,7.53,0,0,0-2.87,3,9.76,9.76,0,0,0,0,8.77,7.49,7.49,0,0,0,2.87,3,8.68,8.68,0,0,0,8.24,0Z" transform="translate(-94.9 -387.27)"/><path class="cls-2" d="M542.64,794.51a10.35,10.35,0,0,1,5-1.11v2.83l-.7,0a6.91,6.91,0,0,0-5.33,2.09,8.34,8.34,0,0,0-1.92,5.86v11H536.8V793.56h2.78v4.23A7.12,7.12,0,0,1,542.64,794.51Z" transform="translate(-94.9 -387.27)"/><path class="cls-2" d="M580.58,794.77a9.87,9.87,0,0,1,3.86,3.88,12.46,12.46,0,0,1,0,11.44A9.86,9.86,0,0,1,580.6,814a11,11,0,0,1-5.51,1.38,10.28,10.28,0,0,1-4.74-1.09,9,9,0,0,1-3.46-3.18v12H564V793.56h2.79v4.27a8.93,8.93,0,0,1,3.46-3.28,10.14,10.14,0,0,1,4.86-1.15A11.13,11.13,0,0,1,580.58,794.77ZM579,811.71a7.34,7.34,0,0,0,2.89-3,9.64,9.64,0,0,0,0-8.75,7.51,7.51,0,0,0-2.89-3,8.43,8.43,0,0,0-8.22,0,7.66,7.66,0,0,0-2.87,3,9.72,9.72,0,0,0,0,8.75,7.49,7.49,0,0,0,2.87,3,8.64,8.64,0,0,0,8.22,0Z" transform="translate(-94.9 -387.27)"/><path class="cls-2" d="M595,813.92A10.32,10.32,0,0,1,591,810a11.84,11.84,0,0,1,0-11.32,10.16,10.16,0,0,1,3.93-3.9,12.06,12.06,0,0,1,11.24,0,10,10,0,0,1,3.91,3.9,12,12,0,0,1,0,11.32,10.2,10.2,0,0,1-3.91,3.91,11.83,11.83,0,0,1-11.24,0Zm9.74-2.21a7.25,7.25,0,0,0,2.85-3,9.85,9.85,0,0,0,0-8.77,7.29,7.29,0,0,0-2.85-3,8.61,8.61,0,0,0-8.24,0,7.46,7.46,0,0,0-2.87,3,9.68,9.68,0,0,0,0,8.77,7.43,7.43,0,0,0,2.87,3,8.68,8.68,0,0,0,8.24,0Z" transform="translate(-94.9 -387.27)"/><path class="cls-2" d="M636.92,793.56v21.57h-2.79v-3.94a8,8,0,0,1-3.16,3.06,9.55,9.55,0,0,1-4.59,1.09,9.17,9.17,0,0,1-6.66-2.36c-1.63-1.57-2.44-3.88-2.44-6.91V793.56h2.91v12.22a7.23,7.23,0,0,0,1.68,5.17,6.34,6.34,0,0,0,4.8,1.76,7.05,7.05,0,0,0,5.37-2.07,8,8,0,0,0,2-5.76V793.56Z" transform="translate(-94.9 -387.27)"/><path class="cls-2" d="M650.92,794.51a10.33,10.33,0,0,1,5-1.11v2.83l-.7,0a6.91,6.91,0,0,0-5.33,2.09,8.34,8.34,0,0,0-1.92,5.86v11h-2.91V793.56h2.78v4.23A7.07,7.07,0,0,1,650.92,794.51Z" transform="translate(-94.9 -387.27)"/><path class="cls-2" d="M675.48,813.94a10.13,10.13,0,0,1-4-3.91,11.29,11.29,0,0,1-1.44-5.68,11.13,11.13,0,0,1,1.44-5.66,10.17,10.17,0,0,1,4-3.9,11.7,11.7,0,0,1,5.72-1.39,11,11,0,0,1,5,1.09,8.27,8.27,0,0,1,3.46,3.17l-2.17,1.48a6.71,6.71,0,0,0-2.71-2.4,8,8,0,0,0-3.56-.8,8.46,8.46,0,0,0-4.21,1,7.43,7.43,0,0,0-2.91,3,9.15,9.15,0,0,0-1,4.39,9.05,9.05,0,0,0,1,4.4,7.4,7.4,0,0,0,2.91,3,8.56,8.56,0,0,0,4.21,1,8.17,8.17,0,0,0,3.56-.78,6.64,6.64,0,0,0,2.71-2.37l2.17,1.47a8.29,8.29,0,0,1-3.48,3.18,11.18,11.18,0,0,1-5,1.09A11.6,11.6,0,0,1,675.48,813.94Z" transform="translate(-94.9 -387.27)"/><path class="cls-2" d="M713.75,805.25h-18a7.68,7.68,0,0,0,2.58,5.43,8.59,8.59,0,0,0,5.91,2.07,9.27,9.27,0,0,0,3.69-.72,8,8,0,0,0,2.91-2.11l1.64,1.89a9.19,9.19,0,0,1-3.59,2.62,12.85,12.85,0,0,1-10.62-.51,10.23,10.23,0,0,1-4-3.91,11.25,11.25,0,0,1-1.43-5.66,11.62,11.62,0,0,1,1.37-5.66,10,10,0,0,1,3.77-3.9,10.64,10.64,0,0,1,5.4-1.39,10.53,10.53,0,0,1,5.37,1.39,10,10,0,0,1,3.73,3.88,11.69,11.69,0,0,1,1.35,5.68Zm-15.64-7.36a7.8,7.8,0,0,0-2.4,5.19H711a7.8,7.8,0,0,0-2.4-5.19,7.91,7.91,0,0,0-10.49,0Z" transform="translate(-94.9 -387.27)"/><path class="cls-2" d="M146.85,842.76v29.52h-2.91v-12a9,9,0,0,1-3.47,3.18,10.2,10.2,0,0,1-4.73,1.09,11,11,0,0,1-5.52-1.38,9.9,9.9,0,0,1-3.83-3.87,12.46,12.46,0,0,1,0-11.44,9.84,9.84,0,0,1,3.85-3.88,11.16,11.16,0,0,1,5.5-1.37,10.14,10.14,0,0,1,4.86,1.15,8.93,8.93,0,0,1,3.46,3.28v-4.27Zm-6.79,18.15a7.36,7.36,0,0,0,2.87-3,9.64,9.64,0,0,0,0-8.75,7.53,7.53,0,0,0-2.87-3,7.91,7.91,0,0,0-4.08-1.07,8,8,0,0,0-4.12,1.07,7.66,7.66,0,0,0-2.87,3,9.72,9.72,0,0,0,0,8.75,7.49,7.49,0,0,0,2.87,3,8.22,8.22,0,0,0,4.12,1A8.09,8.09,0,0,0,140.06,860.91Z" transform="translate(-94.9 -387.27)"/><path class="cls-2" d="M174.4,842.76v21.57h-2.79v-3.94a7.93,7.93,0,0,1-3.15,3.06,9.56,9.56,0,0,1-4.6,1.09,9.2,9.2,0,0,1-6.66-2.36c-1.62-1.57-2.44-3.88-2.44-6.91V842.76h2.91V855a7.23,7.23,0,0,0,1.68,5.17,6.35,6.35,0,0,0,4.8,1.76,7.05,7.05,0,0,0,5.37-2.07,8,8,0,0,0,2-5.76V842.76Z" transform="translate(-94.9 -387.27)"/><path class="cls-2" d="M182.52,837.43a2,2,0,0,1-.62-1.47,2,2,0,0,1,.62-1.44,2.07,2.07,0,0,1,1.52-.61,2.11,2.11,0,0,1,1.51.59,1.92,1.92,0,0,1,.62,1.42,2.12,2.12,0,0,1-2.13,2.13A2.07,2.07,0,0,1,182.52,837.43Zm0,5.33h2.91v21.57h-2.91Z" transform="translate(-94.9 -387.27)"/><path class="cls-2" d="M223.11,854.45h-18a7.68,7.68,0,0,0,2.58,5.43,8.59,8.59,0,0,0,5.91,2.07,9.27,9.27,0,0,0,3.69-.72,8,8,0,0,0,2.91-2.11L221.8,861a9.26,9.26,0,0,1-3.59,2.62,12.17,12.17,0,0,1-4.74.91,12,12,0,0,1-5.88-1.42,10.23,10.23,0,0,1-4-3.91,11.25,11.25,0,0,1-1.43-5.66,11.62,11.62,0,0,1,1.37-5.66,10,10,0,0,1,3.77-3.9,11.13,11.13,0,0,1,10.77,0,10,10,0,0,1,3.73,3.88,11.69,11.69,0,0,1,1.35,5.68Zm-15.64-7.36a7.8,7.8,0,0,0-2.4,5.19h15.29a7.8,7.8,0,0,0-2.4-5.19,7.91,7.91,0,0,0-10.49,0Z" transform="translate(-94.9 -387.27)"/><path class="cls-2" d="M229.85,863.78a10.76,10.76,0,0,1-3.75-1.91l1.31-2.3a10.93,10.93,0,0,0,3.41,1.75,13.47,13.47,0,0,0,4.26.67,8.12,8.12,0,0,0,4.37-.92,2.93,2.93,0,0,0,1.41-2.6,2.34,2.34,0,0,0-.78-1.87,5.11,5.11,0,0,0-2-1,26.43,26.43,0,0,0-3.15-.68,37.44,37.44,0,0,1-4.23-1,6.3,6.3,0,0,1-2.72-1.75,4.85,4.85,0,0,1-1.13-3.4,5.33,5.33,0,0,1,2.26-4.43,10.09,10.09,0,0,1,6.27-1.72,16.22,16.22,0,0,1,4.18.55,11.56,11.56,0,0,1,3.44,1.46L241.76,847a10.86,10.86,0,0,0-6.35-1.85,7.4,7.4,0,0,0-4.2,1,3,3,0,0,0-1.42,2.59,2.58,2.58,0,0,0,.8,2,4.91,4.91,0,0,0,2,1.08,31.1,31.1,0,0,0,3.28.72,40.53,40.53,0,0,1,4.14,1,6.14,6.14,0,0,1,2.67,1.68,4.69,4.69,0,0,1,1.1,3.29,5.2,5.2,0,0,1-2.35,4.48,11.22,11.22,0,0,1-6.54,1.67A16.79,16.79,0,0,1,229.85,863.78Z" transform="translate(-94.9 -387.27)"/><path class="cls-2" d="M260.5,863a5.55,5.55,0,0,1-2,1.13,8.19,8.19,0,0,1-2.52.39,6.33,6.33,0,0,1-4.67-1.64,6.26,6.26,0,0,1-1.64-4.64v-13h-3.86v-2.46h3.86v-4.71h2.91v4.71h6.56v2.46h-6.56V858.1a4.09,4.09,0,0,0,1,2.93,3.64,3.64,0,0,0,2.77,1,5.37,5.37,0,0,0,1.74-.28,4.43,4.43,0,0,0,1.46-.82Z" transform="translate(-94.9 -387.27)"/><path class="cls-2" d="M296.21,833.91v30.42h-2.79v-4.26a8.89,8.89,0,0,1-3.46,3.32,10.26,10.26,0,0,1-4.86,1.15,10.94,10.94,0,0,1-5.49-1.4,10,10,0,0,1-3.86-3.89,12.38,12.38,0,0,1,0-11.4,9.87,9.87,0,0,1,3.86-3.88,11.13,11.13,0,0,1,5.49-1.37,10.08,10.08,0,0,1,4.73,1.09,8.94,8.94,0,0,1,3.47,3.17v-13Zm-6.78,27a7.49,7.49,0,0,0,2.87-3,9.76,9.76,0,0,0,0-8.77,7.46,7.46,0,0,0-2.87-3,8.53,8.53,0,0,0-8.2,0,7.42,7.42,0,0,0-2.88,3,9.76,9.76,0,0,0,0,8.77,7.45,7.45,0,0,0,2.88,3,8.6,8.6,0,0,0,8.2,0Z" transform="translate(-94.9 -387.27)"/><path class="cls-2" d="M323.11,854.45h-18a7.68,7.68,0,0,0,2.58,5.43,8.58,8.58,0,0,0,5.9,2.07,9.27,9.27,0,0,0,3.69-.72,8,8,0,0,0,2.91-2.11l1.64,1.89a9.16,9.16,0,0,1-3.58,2.62,12.21,12.21,0,0,1-4.74.91,12,12,0,0,1-5.88-1.42,10.23,10.23,0,0,1-4-3.91,11.15,11.15,0,0,1-1.43-5.66,11.51,11.51,0,0,1,1.37-5.66,9.9,9.9,0,0,1,3.77-3.9,10.53,10.53,0,0,1,5.39-1.39,10.38,10.38,0,0,1,5.37,1.39,9.88,9.88,0,0,1,3.73,3.88,11.58,11.58,0,0,1,1.36,5.68Zm-15.65-7.36a7.83,7.83,0,0,0-2.39,5.19h15.29a7.8,7.8,0,0,0-2.4-5.19,7.92,7.92,0,0,0-10.5,0Z" transform="translate(-94.9 -387.27)"/><path class="cls-2" d="M329.85,863.78a10.76,10.76,0,0,1-3.75-1.91l1.31-2.3a10.87,10.87,0,0,0,3.4,1.75,13.58,13.58,0,0,0,4.27.67,8.06,8.06,0,0,0,4.36-.92,2.92,2.92,0,0,0,1.42-2.6,2.34,2.34,0,0,0-.78-1.87,5.18,5.18,0,0,0-2-1,26.43,26.43,0,0,0-3.15-.68,37.44,37.44,0,0,1-4.23-1,6.3,6.3,0,0,1-2.72-1.75,4.8,4.8,0,0,1-1.13-3.4,5.35,5.35,0,0,1,2.25-4.43,10.15,10.15,0,0,1,6.28-1.72,16.28,16.28,0,0,1,4.18.55,11.56,11.56,0,0,1,3.44,1.46L341.76,847a10.88,10.88,0,0,0-6.35-1.85,7.46,7.46,0,0,0-4.21,1,3,3,0,0,0-1.41,2.59,2.58,2.58,0,0,0,.8,2,4.84,4.84,0,0,0,2,1.08,30.53,30.53,0,0,0,3.28.72,40.53,40.53,0,0,1,4.14,1,6.05,6.05,0,0,1,2.66,1.68,4.65,4.65,0,0,1,1.11,3.29,5.21,5.21,0,0,1-2.36,4.48,11.18,11.18,0,0,1-6.54,1.67A16.72,16.72,0,0,1,329.85,863.78Z" transform="translate(-94.9 -387.27)"/><path class="cls-2" d="M359.84,837.43a2,2,0,0,1-.61-1.47,2,2,0,0,1,.61-1.44,2.07,2.07,0,0,1,1.52-.61,2.13,2.13,0,0,1,1.52.59,1.91,1.91,0,0,1,.61,1.42,2,2,0,0,1-.61,1.51,2.17,2.17,0,0,1-3,0Zm0,5.33h2.91v21.57h-2.91Z" transform="translate(-94.9 -387.27)"/><path class="cls-2" d="M370.91,833.91h2.91v30.42h-2.91Z" transform="translate(-94.9 -387.27)"/><path class="cls-2" d="M381.94,833.91h2.91v30.42h-2.91Z" transform="translate(-94.9 -387.27)"/><path class="cls-2" d="M412.4,842.76v21.57h-2.78v-3.94a8,8,0,0,1-3.16,3.06,9.55,9.55,0,0,1-4.59,1.09,9.21,9.21,0,0,1-6.67-2.36c-1.62-1.57-2.44-3.88-2.44-6.91V842.76h2.92V855a7.19,7.19,0,0,0,1.68,5.17,6.33,6.33,0,0,0,4.79,1.76,7.05,7.05,0,0,0,5.37-2.07,8,8,0,0,0,2-5.76V842.76Z" transform="translate(-94.9 -387.27)"/><path class="cls-2" d="M421.32,863.78a10.76,10.76,0,0,1-3.75-1.91l1.31-2.3a10.87,10.87,0,0,0,3.4,1.75,13.58,13.58,0,0,0,4.27.67,8.06,8.06,0,0,0,4.36-.92,2.92,2.92,0,0,0,1.42-2.6,2.34,2.34,0,0,0-.78-1.87,5.18,5.18,0,0,0-2-1,26.22,26.22,0,0,0-3.16-.68,37.73,37.73,0,0,1-4.22-1,6.3,6.3,0,0,1-2.72-1.75,4.8,4.8,0,0,1-1.13-3.4,5.35,5.35,0,0,1,2.25-4.43,10.15,10.15,0,0,1,6.28-1.72,16.28,16.28,0,0,1,4.18.55,11.56,11.56,0,0,1,3.44,1.46L433.23,847a10.88,10.88,0,0,0-6.35-1.85,7.46,7.46,0,0,0-4.21,1,3,3,0,0,0-1.41,2.59,2.58,2.58,0,0,0,.8,2,4.84,4.84,0,0,0,2,1.08,30.53,30.53,0,0,0,3.28.72,40.53,40.53,0,0,1,4.14,1,6.05,6.05,0,0,1,2.66,1.68,4.65,4.65,0,0,1,1.11,3.29,5.21,5.21,0,0,1-2.36,4.48,11.18,11.18,0,0,1-6.54,1.67A16.72,16.72,0,0,1,421.32,863.78Z" transform="translate(-94.9 -387.27)"/><path class="cls-2" d="M452,863a5.63,5.63,0,0,1-2,1.13,8.19,8.19,0,0,1-2.52.39,5.71,5.71,0,0,1-6.32-6.28v-13h-3.85v-2.46h3.85v-4.71H444v4.71h6.56v2.46H444V858.1a4,4,0,0,0,1,2.93,3.64,3.64,0,0,0,2.76,1,5.39,5.39,0,0,0,1.75-.28,4.38,4.38,0,0,0,1.45-.82Z" transform="translate(-94.9 -387.27)"/><path class="cls-2" d="M463.1,843.71a10.35,10.35,0,0,1,5-1.11v2.83l-.7,0a6.89,6.89,0,0,0-5.33,2.09,8.34,8.34,0,0,0-1.92,5.86v11h-2.91V842.76H460V847A7.12,7.12,0,0,1,463.1,843.71Z" transform="translate(-94.9 -387.27)"/><path class="cls-2" d="M487.35,844.71q2.25,2.12,2.25,6.25v13.37h-2.78V861a6.71,6.71,0,0,1-2.89,2.62,10.09,10.09,0,0,1-4.53.95,8.85,8.85,0,0,1-5.74-1.73,5.92,5.92,0,0,1-.15-9q2-1.68,6.34-1.68h6.84v-1.31a5.54,5.54,0,0,0-1.55-4.24,6.45,6.45,0,0,0-4.56-1.46,11.6,11.6,0,0,0-3.93.68,9.89,9.89,0,0,0-3.24,1.86l-1.31-2.17a11.47,11.47,0,0,1,3.93-2.15,15.23,15.23,0,0,1,4.84-.76Q485.1,842.6,487.35,844.71Zm-3.28,16.4a6.68,6.68,0,0,0,2.62-3.26v-3.52h-6.76q-5.54,0-5.54,3.85a3.51,3.51,0,0,0,1.44,3,6.51,6.51,0,0,0,4,1.09A7.69,7.69,0,0,0,484.07,861.11Z" transform="translate(-94.9 -387.27)"/><path class="cls-2" d="M508.88,863a5.63,5.63,0,0,1-2,1.13,8.21,8.21,0,0,1-2.53.39,5.71,5.71,0,0,1-6.31-6.28v-13h-3.85v-2.46H498v-4.71h2.91v4.71h6.56v2.46h-6.56V858.1a4.09,4.09,0,0,0,1,2.93,3.67,3.67,0,0,0,2.77,1,5.37,5.37,0,0,0,1.74-.28,4.43,4.43,0,0,0,1.46-.82Z" transform="translate(-94.9 -387.27)"/><path class="cls-2" d="M514.12,837.43a2,2,0,0,1-.61-1.47,2,2,0,0,1,.61-1.44,2.07,2.07,0,0,1,1.52-.61,2.13,2.13,0,0,1,1.52.59,1.91,1.91,0,0,1,.61,1.42,2,2,0,0,1-.61,1.51,2.17,2.17,0,0,1-3,0Zm0,5.33h2.91v21.57h-2.91Z" transform="translate(-94.9 -387.27)"/><path class="cls-2" d="M528.39,863.12a10.35,10.35,0,0,1-3.94-3.91,11.92,11.92,0,0,1,0-11.32,10.18,10.18,0,0,1,3.94-3.9,12,12,0,0,1,11.23,0,10,10,0,0,1,3.92,3.9,12.07,12.07,0,0,1,0,11.32,10.16,10.16,0,0,1-3.92,3.91,11.81,11.81,0,0,1-11.23,0Zm9.74-2.21a7.38,7.38,0,0,0,2.85-3,9.94,9.94,0,0,0,0-8.77,7.35,7.35,0,0,0-2.85-3,8.61,8.61,0,0,0-8.24,0,7.33,7.33,0,0,0-2.87,3,9.68,9.68,0,0,0,0,8.77,7.36,7.36,0,0,0,2.87,3,8.68,8.68,0,0,0,8.24,0Z" transform="translate(-94.9 -387.27)"/><path class="cls-2" d="M568.34,845q2.4,2.35,2.4,6.87v12.5h-2.91V852.11a7.13,7.13,0,0,0-1.68-5.12,6.3,6.3,0,0,0-4.8-1.77,7.36,7.36,0,0,0-5.51,2.07,7.85,7.85,0,0,0-2,5.72v11.32H550.9V842.76h2.79v4a8,8,0,0,1,3.3-3,10.5,10.5,0,0,1,4.9-1.09A8.8,8.8,0,0,1,568.34,845Z" transform="translate(-94.9 -387.27)"/><path class="cls-2" d="M579.41,863.78a10.76,10.76,0,0,1-3.75-1.91l1.31-2.3a10.93,10.93,0,0,0,3.41,1.75,13.51,13.51,0,0,0,4.26.67,8.12,8.12,0,0,0,4.37-.92,2.93,2.93,0,0,0,1.41-2.6,2.34,2.34,0,0,0-.78-1.87,5.14,5.14,0,0,0-2-1,27.12,27.12,0,0,0-3.16-.68,36.67,36.67,0,0,1-4.22-1,6.27,6.27,0,0,1-2.73-1.75,4.85,4.85,0,0,1-1.13-3.4,5.33,5.33,0,0,1,2.26-4.43A10.09,10.09,0,0,1,585,842.6a16.22,16.22,0,0,1,4.18.55,11.63,11.63,0,0,1,3.45,1.46L591.32,847A10.86,10.86,0,0,0,585,845.1a7.4,7.4,0,0,0-4.2,1,3,3,0,0,0-1.42,2.59,2.58,2.58,0,0,0,.8,2,5,5,0,0,0,2,1.08,31.1,31.1,0,0,0,3.28.72,40.53,40.53,0,0,1,4.14,1,6.14,6.14,0,0,1,2.67,1.68,4.69,4.69,0,0,1,1.1,3.29,5.2,5.2,0,0,1-2.35,4.48,11.22,11.22,0,0,1-6.54,1.67A16.79,16.79,0,0,1,579.41,863.78Z" transform="translate(-94.9 -387.27)"/><path class="cls-2" d="M600.59,860.7a2.2,2.2,0,0,1,.62,1.58,4.3,4.3,0,0,1-.15,1.07,10.39,10.39,0,0,1-.43,1.31l-1.72,5.66h-2l1.4-6a2.06,2.06,0,0,1-1.07-.76,2.36,2.36,0,0,1,.2-2.91,2.25,2.25,0,0,1,3.12,0Z" transform="translate(-94.9 -387.27)"/><path class="cls-2" d="M621.36,863.14a10.13,10.13,0,0,1-4-3.91,11.29,11.29,0,0,1-1.44-5.68,11.13,11.13,0,0,1,1.44-5.66,10.17,10.17,0,0,1,4-3.9,11.59,11.59,0,0,1,5.72-1.39,11,11,0,0,1,5,1.09,8.27,8.27,0,0,1,3.46,3.17l-2.17,1.48a6.71,6.71,0,0,0-2.71-2.4,8,8,0,0,0-3.56-.8,8.46,8.46,0,0,0-4.21,1.05,7.37,7.37,0,0,0-2.91,3,9.81,9.81,0,0,0,0,8.79,7.4,7.4,0,0,0,2.91,3,8.56,8.56,0,0,0,4.21,1,8.17,8.17,0,0,0,3.56-.78,6.59,6.59,0,0,0,2.71-2.38l2.17,1.48a8.29,8.29,0,0,1-3.48,3.18,11.18,11.18,0,0,1-5,1.09A11.6,11.6,0,0,1,621.36,863.14Z" transform="translate(-94.9 -387.27)"/><path class="cls-2" d="M659.63,854.45h-18a7.68,7.68,0,0,0,2.58,5.43,8.59,8.59,0,0,0,5.91,2.07,9.27,9.27,0,0,0,3.69-.72,8,8,0,0,0,2.91-2.11l1.64,1.89a9.19,9.19,0,0,1-3.59,2.62,12.85,12.85,0,0,1-10.62-.51,10.23,10.23,0,0,1-4-3.91,11.25,11.25,0,0,1-1.43-5.66,11.62,11.62,0,0,1,1.37-5.66,10,10,0,0,1,3.77-3.9,10.54,10.54,0,0,1,5.4-1.39,10.43,10.43,0,0,1,5.37,1.39,10,10,0,0,1,3.73,3.88,11.69,11.69,0,0,1,1.35,5.68ZM644,847.09a7.8,7.8,0,0,0-2.4,5.19h15.29a7.8,7.8,0,0,0-2.4-5.19,7.91,7.91,0,0,0-10.49,0Z" transform="translate(-94.9 -387.27)"/><path class="cls-2" d="M671.46,843.71a10.33,10.33,0,0,1,5-1.11v2.83l-.7,0a6.87,6.87,0,0,0-5.33,2.09,8.34,8.34,0,0,0-1.92,5.86v11h-2.91V842.76h2.78V847A7.07,7.07,0,0,1,671.46,843.71Z" transform="translate(-94.9 -387.27)"/><path class="cls-2" d="M680.46,852H691.2v2.54H680.46Z" transform="translate(-94.9 -387.27)"/><path class="cls-2" d="M138.53,912.22a5.63,5.63,0,0,1-2,1.13,8.19,8.19,0,0,1-2.52.39,5.71,5.71,0,0,1-6.32-6.28v-13h-3.85V892h3.85v-4.71h2.91V892h6.56v2.46h-6.56V907.3a4,4,0,0,0,1,2.93,3.64,3.64,0,0,0,2.76,1,5.43,5.43,0,0,0,1.75-.28,4.38,4.38,0,0,0,1.45-.82Z" transform="translate(-94.9 -387.27)"/><path class="cls-2" d="M157.84,893.91q2.25,2.12,2.25,6.25v13.37H157.3v-3.36a6.59,6.59,0,0,1-2.89,2.62,10.09,10.09,0,0,1-4.53,1,8.87,8.87,0,0,1-5.74-1.73,5.93,5.93,0,0,1-.14-9q2-1.68,6.33-1.68h6.85V900a5.51,5.51,0,0,0-1.56-4.24,6.43,6.43,0,0,0-4.55-1.46,11.56,11.56,0,0,0-3.93.68,9.89,9.89,0,0,0-3.24,1.86l-1.31-2.17a11.47,11.47,0,0,1,3.93-2.15,15.19,15.19,0,0,1,4.84-.76Q155.57,891.8,157.84,893.91Zm-3.28,16.4a6.73,6.73,0,0,0,2.62-3.26v-3.52h-6.76q-5.53,0-5.54,3.85a3.51,3.51,0,0,0,1.44,3,6.46,6.46,0,0,0,4,1.09A7.72,7.72,0,0,0,154.56,910.31Z" transform="translate(-94.9 -387.27)"/><path class="cls-2" d="M168,886.63a2,2,0,0,1-.61-1.47,2,2,0,0,1,.61-1.44,2.07,2.07,0,0,1,1.52-.61,2.13,2.13,0,0,1,1.52.59,1.91,1.91,0,0,1,.61,1.42,2,2,0,0,1-.61,1.51,2.17,2.17,0,0,1-3,0Zm0,5.33h2.91v21.57H168Z" transform="translate(-94.9 -387.27)"/><path class="cls-2" d="M196.48,894.16q2.4,2.36,2.4,6.87v12.5H196V901.31a7.13,7.13,0,0,0-1.68-5.12,6.3,6.3,0,0,0-4.8-1.77,7.4,7.4,0,0,0-5.52,2.07,7.85,7.85,0,0,0-2,5.72v11.32H179V892h2.79v4a8,8,0,0,1,3.3-3.05,10.5,10.5,0,0,1,4.9-1.09A8.82,8.82,0,0,1,196.48,894.16Z" transform="translate(-94.9 -387.27)"/><path class="cls-2" d="M225.65,903.65h-18a7.72,7.72,0,0,0,2.58,5.43,8.59,8.59,0,0,0,5.91,2.07,9.27,9.27,0,0,0,3.69-.72,8,8,0,0,0,2.91-2.11l1.64,1.89a9.19,9.19,0,0,1-3.59,2.62,12.85,12.85,0,0,1-10.62-.51,10.23,10.23,0,0,1-4-3.91,11.25,11.25,0,0,1-1.43-5.66,11.62,11.62,0,0,1,1.37-5.66,10,10,0,0,1,3.78-3.9,11.11,11.11,0,0,1,10.76,0,10,10,0,0,1,3.73,3.88,11.69,11.69,0,0,1,1.35,5.68ZM210,896.29a7.8,7.8,0,0,0-2.4,5.19H222.9a7.8,7.8,0,0,0-2.4-5.19,7.91,7.91,0,0,0-10.49,0Z" transform="translate(-94.9 -387.27)"/><path class="cls-2" d="M232.39,913a10.85,10.85,0,0,1-3.75-1.91l1.32-2.3a10.76,10.76,0,0,0,3.4,1.75,13.51,13.51,0,0,0,4.26.67,8.1,8.1,0,0,0,4.37-.92,2.93,2.93,0,0,0,1.41-2.6,2.35,2.35,0,0,0-.78-1.87,5.14,5.14,0,0,0-2-1,27.12,27.12,0,0,0-3.16-.68,36.67,36.67,0,0,1-4.22-1,6.27,6.27,0,0,1-2.73-1.75,4.85,4.85,0,0,1-1.13-3.4,5.33,5.33,0,0,1,2.26-4.43A10.09,10.09,0,0,1,238,891.8a16.22,16.22,0,0,1,4.18.55,11.63,11.63,0,0,1,3.45,1.46l-1.27,2.34A10.91,10.91,0,0,0,238,894.3a7.32,7.32,0,0,0-4.2,1,3,3,0,0,0-1.42,2.58,2.58,2.58,0,0,0,.8,2,5,5,0,0,0,2,1.08,31.1,31.1,0,0,0,3.28.72,37.7,37.7,0,0,1,4.14,1,6,6,0,0,1,2.67,1.68,4.6,4.6,0,0,1,1.1,3.28,5.22,5.22,0,0,1-2.35,4.49,11.28,11.28,0,0,1-6.54,1.66A16.79,16.79,0,0,1,232.39,913Z" transform="translate(-94.9 -387.27)"/><path class="cls-2" d="M263.19,913a10.91,10.91,0,0,1-3.76-1.91l1.32-2.3a10.76,10.76,0,0,0,3.4,1.75,13.56,13.56,0,0,0,4.26.67,8.1,8.1,0,0,0,4.37-.92,2.93,2.93,0,0,0,1.41-2.6,2.35,2.35,0,0,0-.78-1.87,5.06,5.06,0,0,0-2-1,27.12,27.12,0,0,0-3.16-.68,36.67,36.67,0,0,1-4.22-1,6.27,6.27,0,0,1-2.73-1.75,4.85,4.85,0,0,1-1.13-3.4,5.33,5.33,0,0,1,2.26-4.43,10.09,10.09,0,0,1,6.27-1.72,16.22,16.22,0,0,1,4.18.55,11.63,11.63,0,0,1,3.45,1.46l-1.27,2.34a10.91,10.91,0,0,0-6.36-1.85,7.32,7.32,0,0,0-4.2,1,3,3,0,0,0-1.42,2.58,2.58,2.58,0,0,0,.8,2,5,5,0,0,0,2,1.08,31.1,31.1,0,0,0,3.28.72,37.7,37.7,0,0,1,4.14,1,6,6,0,0,1,2.67,1.68,4.6,4.6,0,0,1,1.1,3.28,5.22,5.22,0,0,1-2.35,4.49,11.25,11.25,0,0,1-6.54,1.66A16.67,16.67,0,0,1,263.19,913Z" transform="translate(-94.9 -387.27)"/><path class="cls-2" d="M285.67,912.32a10.32,10.32,0,0,1-3.93-3.91,11.84,11.84,0,0,1,0-11.32,10.16,10.16,0,0,1,3.93-3.9,12.06,12.06,0,0,1,11.24,0,10,10,0,0,1,3.91,3.9,12,12,0,0,1,0,11.32,10.2,10.2,0,0,1-3.91,3.91,11.83,11.83,0,0,1-11.24,0Zm9.74-2.21a7.25,7.25,0,0,0,2.85-3,9.85,9.85,0,0,0,0-8.77,7.23,7.23,0,0,0-2.85-3,8.61,8.61,0,0,0-8.24,0,7.4,7.4,0,0,0-2.87,3,9.68,9.68,0,0,0,0,8.77,7.43,7.43,0,0,0,2.87,3,8.68,8.68,0,0,0,8.24,0Z" transform="translate(-94.9 -387.27)"/><path class="cls-2" d="M325.63,894.16q2.4,2.36,2.4,6.87v12.5h-2.91V901.31a7.09,7.09,0,0,0-1.69-5.12,6.29,6.29,0,0,0-4.79-1.77,7.38,7.38,0,0,0-5.52,2.07,7.85,7.85,0,0,0-2,5.72v11.32h-2.91V892H311v4a8,8,0,0,1,3.3-3.05,10.5,10.5,0,0,1,4.9-1.09A8.82,8.82,0,0,1,325.63,894.16Z" transform="translate(-94.9 -387.27)"/><path class="cls-2" d="M347.3,912.22a5.63,5.63,0,0,1-2,1.13,8.19,8.19,0,0,1-2.52.39,5.71,5.71,0,0,1-6.32-6.28v-13h-3.85V892h3.85v-4.71h2.91V892h6.56v2.46h-6.56V907.3a4,4,0,0,0,1,2.93,3.64,3.64,0,0,0,2.76,1,5.48,5.48,0,0,0,1.75-.28,4.38,4.38,0,0,0,1.45-.82Z" transform="translate(-94.9 -387.27)"/><path class="cls-2" d="M377.35,893.91q2.25,2.12,2.25,6.25v13.37h-2.79v-3.36a6.59,6.59,0,0,1-2.89,2.62,10.09,10.09,0,0,1-4.53,1,8.89,8.89,0,0,1-5.74-1.73,5.93,5.93,0,0,1-.14-9q2-1.68,6.34-1.68h6.84V900a5.51,5.51,0,0,0-1.56-4.24,6.41,6.41,0,0,0-4.55-1.46,11.56,11.56,0,0,0-3.93.68,9.89,9.89,0,0,0-3.24,1.86l-1.31-2.17a11.47,11.47,0,0,1,3.93-2.15,15.19,15.19,0,0,1,4.84-.76C373.69,891.8,375.84,892.5,377.35,893.91Zm-3.28,16.4a6.73,6.73,0,0,0,2.62-3.26v-3.52h-6.76q-5.54,0-5.54,3.85a3.51,3.51,0,0,0,1.44,3,6.47,6.47,0,0,0,4,1.09A7.71,7.71,0,0,0,374.07,910.31Z" transform="translate(-94.9 -387.27)"/><path class="cls-2" d="M405,894.16q2.4,2.36,2.4,6.87v12.5h-2.91V901.31a7.13,7.13,0,0,0-1.68-5.12,6.3,6.3,0,0,0-4.8-1.77,7.36,7.36,0,0,0-5.51,2.07,7.81,7.81,0,0,0-2,5.72v11.32h-2.91V892h2.78v4a8.17,8.17,0,0,1,3.3-3.05,10.53,10.53,0,0,1,4.9-1.09A8.82,8.82,0,0,1,405,894.16Z" transform="translate(-94.9 -387.27)"/><path class="cls-2" d="M415.23,886.63a2,2,0,0,1-.61-1.47,2,2,0,0,1,.61-1.44,2.07,2.07,0,0,1,1.52-.61,2.13,2.13,0,0,1,1.52.59,1.91,1.91,0,0,1,.61,1.42,2,2,0,0,1-.61,1.51,2.17,2.17,0,0,1-3,0Zm0,5.33h2.91v21.57h-2.91Z" transform="translate(-94.9 -387.27)"/><path class="cls-2" d="M459.57,894.14c1.55,1.56,2.32,3.85,2.32,6.89v12.5H459V901.31a7.3,7.3,0,0,0-1.62-5.12,5.88,5.88,0,0,0-4.57-1.77,6.87,6.87,0,0,0-5.29,2.07,8.07,8.07,0,0,0-1.93,5.72v11.32h-2.91V901.31a7.3,7.3,0,0,0-1.62-5.12,5.94,5.94,0,0,0-4.61-1.77,6.88,6.88,0,0,0-5.27,2.07,8,8,0,0,0-2,5.72v11.32H426.3V892h2.79v3.94a7.73,7.73,0,0,1,3.2-3A10.06,10.06,0,0,1,437,891.8a9.2,9.2,0,0,1,4.7,1.15,7.09,7.09,0,0,1,3,3.4,8.4,8.4,0,0,1,3.42-3.34,10.52,10.52,0,0,1,5.11-1.21A8.56,8.56,0,0,1,459.57,894.14Z" transform="translate(-94.9 -387.27)"/><path class="cls-2" d="M488.66,903.65h-18a7.76,7.76,0,0,0,2.58,5.43,8.59,8.59,0,0,0,5.91,2.07,9.27,9.27,0,0,0,3.69-.72,8,8,0,0,0,2.91-2.11l1.64,1.89a9.19,9.19,0,0,1-3.59,2.62,12.85,12.85,0,0,1-10.62-.51,10.14,10.14,0,0,1-4-3.91,11.16,11.16,0,0,1-1.44-5.66,11.62,11.62,0,0,1,1.37-5.66,10,10,0,0,1,3.78-3.9,11.11,11.11,0,0,1,10.76,0,10,10,0,0,1,3.73,3.88,11.69,11.69,0,0,1,1.35,5.68ZM473,896.29a7.8,7.8,0,0,0-2.4,5.19h15.29a7.83,7.83,0,0,0-2.39-5.19,7.92,7.92,0,0,0-10.5,0Zm8.18-12.77h3.89l-6.64,5.08h-2.87Z" transform="translate(-94.9 -387.27)"/><path class="cls-2" d="M513.43,903.65h-18a7.68,7.68,0,0,0,2.58,5.43,8.57,8.57,0,0,0,5.9,2.07,9.27,9.27,0,0,0,3.69-.72,8,8,0,0,0,2.91-2.11l1.64,1.89a9.16,9.16,0,0,1-3.58,2.62,12.85,12.85,0,0,1-10.62-.51,10.23,10.23,0,0,1-4-3.91,11.16,11.16,0,0,1-1.44-5.66,11.51,11.51,0,0,1,1.38-5.66,9.9,9.9,0,0,1,3.77-3.9A10.63,10.63,0,0,1,503,891.8a10.48,10.48,0,0,1,5.37,1.39,9.88,9.88,0,0,1,3.73,3.88,11.58,11.58,0,0,1,1.36,5.68Zm-15.65-7.36a7.83,7.83,0,0,0-2.39,5.19h15.29a7.8,7.8,0,0,0-2.4-5.19,7.92,7.92,0,0,0-10.5,0Z" transform="translate(-94.9 -387.27)"/><path class="cls-2" d="M520.17,913a10.76,10.76,0,0,1-3.75-1.91l1.31-2.3a10.87,10.87,0,0,0,3.4,1.75,13.58,13.58,0,0,0,4.27.67,8.06,8.06,0,0,0,4.36-.92,2.92,2.92,0,0,0,1.42-2.6,2.35,2.35,0,0,0-.78-1.87,5.18,5.18,0,0,0-2-1,26.22,26.22,0,0,0-3.16-.68,37.19,37.19,0,0,1-4.22-1,6.33,6.33,0,0,1-2.73-1.75,4.84,4.84,0,0,1-1.12-3.4,5.35,5.35,0,0,1,2.25-4.43,10.15,10.15,0,0,1,6.28-1.72,16.28,16.28,0,0,1,4.18.55,11.56,11.56,0,0,1,3.44,1.46l-1.27,2.34a10.88,10.88,0,0,0-6.35-1.85,7.37,7.37,0,0,0-4.21,1,3,3,0,0,0-1.41,2.58,2.54,2.54,0,0,0,.8,2,4.84,4.84,0,0,0,2,1.08,30.53,30.53,0,0,0,3.28.72,37.7,37.7,0,0,1,4.14,1,5.94,5.94,0,0,1,2.66,1.68,4.6,4.6,0,0,1,1.11,3.28,5.23,5.23,0,0,1-2.36,4.49,11.25,11.25,0,0,1-6.54,1.66A16.72,16.72,0,0,1,520.17,913Z" transform="translate(-94.9 -387.27)"/><path class="cls-2" d="M569.88,883.11v30.42h-2.79v-4.26a8.89,8.89,0,0,1-3.46,3.32,10.26,10.26,0,0,1-4.86,1.15,10.94,10.94,0,0,1-5.49-1.4,10,10,0,0,1-3.86-3.89,12.38,12.38,0,0,1,0-11.4,9.87,9.87,0,0,1,3.86-3.88,11.13,11.13,0,0,1,5.49-1.37,10.15,10.15,0,0,1,4.74,1.09,9,9,0,0,1,3.46,3.17V883.11Zm-6.78,27a7.49,7.49,0,0,0,2.87-3,9.76,9.76,0,0,0,0-8.77,7.46,7.46,0,0,0-2.87-3,8.53,8.53,0,0,0-8.2,0,7.33,7.33,0,0,0-2.87,3,9.68,9.68,0,0,0,0,8.77,7.36,7.36,0,0,0,2.87,3,8.6,8.6,0,0,0,8.2,0Z" transform="translate(-94.9 -387.27)"/><path class="cls-2" d="M576.77,884.83h2.58l-.2,10.82H577Z" transform="translate(-94.9 -387.27)"/><path class="cls-2" d="M600.3,893.91q2.26,2.12,2.26,6.25v13.37h-2.79v-3.36a6.71,6.71,0,0,1-2.89,2.62,10.09,10.09,0,0,1-4.53,1,8.85,8.85,0,0,1-5.74-1.73,5.93,5.93,0,0,1-.14-9q2-1.68,6.33-1.68h6.85V900a5.51,5.51,0,0,0-1.56-4.24,6.44,6.44,0,0,0-4.55-1.46,11.62,11.62,0,0,0-3.94.68,10,10,0,0,0-3.24,1.86l-1.31-2.17a11.52,11.52,0,0,1,3.94-2.15,15.19,15.19,0,0,1,4.84-.76Q598,891.8,600.3,893.91ZM597,910.31a6.75,6.75,0,0,0,2.63-3.26v-3.52h-6.77q-5.53,0-5.53,3.85a3.53,3.53,0,0,0,1.43,3,6.51,6.51,0,0,0,4,1.09A7.66,7.66,0,0,0,597,910.31Z" transform="translate(-94.9 -387.27)"/><path class="cls-2" d="M629.91,892v21.57h-2.79v-3.94a8,8,0,0,1-3.16,3.06,9.55,9.55,0,0,1-4.59,1.09,9.17,9.17,0,0,1-6.66-2.36c-1.63-1.57-2.44-3.88-2.44-6.91V892h2.91v12.22a7.23,7.23,0,0,0,1.68,5.17,6.34,6.34,0,0,0,4.8,1.76A7.08,7.08,0,0,0,625,909a8,8,0,0,0,2-5.76V892Z" transform="translate(-94.9 -387.27)"/><path class="cls-2" d="M649.42,912.22a5.55,5.55,0,0,1-2,1.13,8.19,8.19,0,0,1-2.52.39,6.33,6.33,0,0,1-4.67-1.64,6.26,6.26,0,0,1-1.64-4.64v-13H634.7V892h3.86v-4.71h2.91V892H648v2.46h-6.56V907.3a4.09,4.09,0,0,0,1,2.93,3.64,3.64,0,0,0,2.77,1,5.37,5.37,0,0,0,1.74-.28,4.43,4.43,0,0,0,1.46-.82Z" transform="translate(-94.9 -387.27)"/><path class="cls-2" d="M660.55,892.91a10.35,10.35,0,0,1,5-1.11v2.83l-.69,0a6.89,6.89,0,0,0-5.33,2.09,8.3,8.3,0,0,0-1.93,5.86v11h-2.91V892h2.79v4.23A7,7,0,0,1,660.55,892.91Z" transform="translate(-94.9 -387.27)"/><path class="cls-2" d="M689.4,903.65h-18a7.73,7.73,0,0,0,2.59,5.43,8.57,8.57,0,0,0,5.9,2.07,9.27,9.27,0,0,0,3.69-.72,8,8,0,0,0,2.91-2.11l1.64,1.89a9.16,9.16,0,0,1-3.58,2.62,12.85,12.85,0,0,1-10.62-.51,10.23,10.23,0,0,1-4-3.91,11.16,11.16,0,0,1-1.44-5.66,11.51,11.51,0,0,1,1.38-5.66,9.9,9.9,0,0,1,3.77-3.9A10.63,10.63,0,0,1,679,891.8a10.48,10.48,0,0,1,5.37,1.39,9.88,9.88,0,0,1,3.73,3.88,11.69,11.69,0,0,1,1.36,5.68Zm-15.65-7.36a7.89,7.89,0,0,0-2.4,5.19h15.3a7.8,7.8,0,0,0-2.4-5.19,7.92,7.92,0,0,0-10.5,0Z" transform="translate(-94.9 -387.27)"/><path class="cls-2" d="M696.14,913a10.76,10.76,0,0,1-3.75-1.91l1.31-2.3a10.87,10.87,0,0,0,3.4,1.75,13.58,13.58,0,0,0,4.27.67,8.09,8.09,0,0,0,4.36-.92,2.92,2.92,0,0,0,1.42-2.6,2.35,2.35,0,0,0-.78-1.87,5.18,5.18,0,0,0-2-1,26.22,26.22,0,0,0-3.16-.68,37.19,37.19,0,0,1-4.22-1,6.33,6.33,0,0,1-2.73-1.75,4.84,4.84,0,0,1-1.12-3.4,5.35,5.35,0,0,1,2.25-4.43,10.11,10.11,0,0,1,6.27-1.72,16.29,16.29,0,0,1,4.19.55,11.56,11.56,0,0,1,3.44,1.46l-1.27,2.34a10.91,10.91,0,0,0-6.36-1.85,7.36,7.36,0,0,0-4.2,1,3,3,0,0,0-1.41,2.58,2.54,2.54,0,0,0,.8,2,4.84,4.84,0,0,0,2,1.08,30.53,30.53,0,0,0,3.28.72,37.7,37.7,0,0,1,4.14,1,5.94,5.94,0,0,1,2.66,1.68,4.6,4.6,0,0,1,1.11,3.28,5.23,5.23,0,0,1-2.36,4.49,11.25,11.25,0,0,1-6.54,1.66A16.72,16.72,0,0,1,696.14,913Z" transform="translate(-94.9 -387.27)"/><path class="cls-2" d="M144.62,943.36q2.38,2.35,2.39,6.87v12.5H144.1V950.51a7.13,7.13,0,0,0-1.68-5.12,6.29,6.29,0,0,0-4.79-1.77,7.37,7.37,0,0,0-5.52,2.08,7.81,7.81,0,0,0-2,5.71v11.32h-2.91V941.16H130v4a8,8,0,0,1,3.3-3,10.5,10.5,0,0,1,4.9-1.09A8.84,8.84,0,0,1,144.62,943.36Z" transform="translate(-94.9 -387.27)"/><path class="cls-2" d="M158.21,961.52a10.35,10.35,0,0,1-3.94-3.91,11.92,11.92,0,0,1,0-11.32,10.18,10.18,0,0,1,3.94-3.9,12,12,0,0,1,11.23,0,10.07,10.07,0,0,1,3.92,3.9,12.07,12.07,0,0,1,0,11.32,10.23,10.23,0,0,1-3.92,3.91,11.81,11.81,0,0,1-11.23,0Zm9.73-2.21a7.25,7.25,0,0,0,2.85-3,9.85,9.85,0,0,0,0-8.77,7.29,7.29,0,0,0-2.85-3,8.61,8.61,0,0,0-8.24,0,7.53,7.53,0,0,0-2.87,3,9.76,9.76,0,0,0,0,8.77,7.49,7.49,0,0,0,2.87,3,8.68,8.68,0,0,0,8.24,0Z" transform="translate(-94.9 -387.27)"/><path class="cls-2" d="M198.16,943.36q2.4,2.35,2.4,6.87v12.5h-2.91V950.51a7.13,7.13,0,0,0-1.68-5.12,6.3,6.3,0,0,0-4.8-1.77,7.37,7.37,0,0,0-5.51,2.08,7.77,7.77,0,0,0-2,5.71v11.32h-2.91V941.16h2.78v4a8.17,8.17,0,0,1,3.3-3,10.5,10.5,0,0,1,4.9-1.09A8.82,8.82,0,0,1,198.16,943.36Z" transform="translate(-94.9 -387.27)"/><path class="cls-2" d="M210.36,959.1a2.19,2.19,0,0,1,.61,1.58,4.77,4.77,0,0,1-.14,1.07,12.32,12.32,0,0,1-.43,1.31l-1.72,5.66h-2l1.39-6A2.08,2.08,0,0,1,207,962a2.13,2.13,0,0,1-.41-1.33,2.19,2.19,0,0,1,.61-1.58,2.25,2.25,0,0,1,3.12,0Z" transform="translate(-94.9 -387.27)"/><path class="cls-2" d="M241.93,943.11q2.25,2.11,2.25,6.25v13.37h-2.79v-3.36A6.65,6.65,0,0,1,238.5,962a10.09,10.09,0,0,1-4.53,1,8.87,8.87,0,0,1-5.74-1.73,5.93,5.93,0,0,1-.14-9c1.32-1.12,3.44-1.68,6.33-1.68h6.85v-1.31a5.51,5.51,0,0,0-1.56-4.24,6.43,6.43,0,0,0-4.55-1.46,11.52,11.52,0,0,0-3.93.68,9.89,9.89,0,0,0-3.24,1.86l-1.32-2.17a11.61,11.61,0,0,1,3.94-2.15,15.19,15.19,0,0,1,4.84-.76Q239.67,941,241.93,943.11Zm-3.28,16.4a6.73,6.73,0,0,0,2.62-3.26v-3.52h-6.76q-5.53,0-5.54,3.85a3.51,3.51,0,0,0,1.44,3,6.46,6.46,0,0,0,4,1.09A7.72,7.72,0,0,0,238.65,959.51Z" transform="translate(-94.9 -387.27)"/><path class="cls-2" d="M269.81,941.16l-9.6,21.57h-3l-9.55-21.57h3l8.08,18.37,8.16-18.37Z" transform="translate(-94.9 -387.27)"/><path class="cls-2" d="M292.07,952.85H274a7.68,7.68,0,0,0,2.58,5.43,8.59,8.59,0,0,0,5.91,2.07,9.27,9.27,0,0,0,3.69-.72,8,8,0,0,0,2.91-2.11l1.64,1.89a9.26,9.26,0,0,1-3.59,2.62,12.17,12.17,0,0,1-4.74.91,12,12,0,0,1-5.88-1.42,10.23,10.23,0,0,1-4-3.91,11.25,11.25,0,0,1-1.43-5.66,11.62,11.62,0,0,1,1.37-5.66,10,10,0,0,1,3.77-3.9,10.64,10.64,0,0,1,5.4-1.39,10.53,10.53,0,0,1,5.37,1.39,10,10,0,0,1,3.73,3.88,11.69,11.69,0,0,1,1.35,5.68Zm-15.64-7.36a7.8,7.8,0,0,0-2.4,5.19h15.29a7.8,7.8,0,0,0-2.4-5.19,7.91,7.91,0,0,0-10.49,0Z" transform="translate(-94.9 -387.27)"/><path class="cls-2" d="M301.27,961.54a10,10,0,0,1-3.95-3.91,11.26,11.26,0,0,1-1.44-5.68,11.13,11.13,0,0,1,1.44-5.66,10.08,10.08,0,0,1,3.95-3.9A11.73,11.73,0,0,1,307,941a11,11,0,0,1,5,1.09,8.24,8.24,0,0,1,3.47,3.17l-2.17,1.48a6.85,6.85,0,0,0-2.71-2.4,8.06,8.06,0,0,0-3.57-.8,8.42,8.42,0,0,0-4.2,1.05,7.43,7.43,0,0,0-2.91,3,9,9,0,0,0-1.05,4.39,9,9,0,0,0,1.05,4.4,7.4,7.4,0,0,0,2.91,3,8.52,8.52,0,0,0,4.2,1,8.18,8.18,0,0,0,3.57-.78,6.7,6.7,0,0,0,2.71-2.37l2.17,1.47a8.19,8.19,0,0,1-3.49,3.18,11.15,11.15,0,0,1-5,1.09A11.62,11.62,0,0,1,301.27,961.54Z" transform="translate(-94.9 -387.27)"/><path class="cls-2" d="M345.9,943.11c1.5,1.41,2.26,3.49,2.26,6.25v13.37h-2.79v-3.36a6.71,6.71,0,0,1-2.89,2.62,10.09,10.09,0,0,1-4.53,1,8.85,8.85,0,0,1-5.74-1.73,5.94,5.94,0,0,1-.15-9q2-1.68,6.34-1.68h6.85v-1.31a5.51,5.51,0,0,0-1.56-4.24,6.44,6.44,0,0,0-4.55-1.46,11.62,11.62,0,0,0-3.94.68,9.89,9.89,0,0,0-3.24,1.86l-1.31-2.17a11.42,11.42,0,0,1,3.94-2.15,15.17,15.17,0,0,1,4.83-.76Q343.65,941,345.9,943.11Zm-3.28,16.4a6.75,6.75,0,0,0,2.63-3.26v-3.52h-6.77q-5.53,0-5.53,3.85a3.5,3.5,0,0,0,1.43,3,6.51,6.51,0,0,0,4,1.09A7.66,7.66,0,0,0,342.62,959.51Z" transform="translate(-94.9 -387.27)"/><path class="cls-2" d="M360.35,935.59a4.27,4.27,0,0,0-1,3v2.54H366v2.46h-6.56v19.11h-2.91V943.62h-3.85v-2.46h3.85V938.5a6.35,6.35,0,0,1,1.7-4.67,6.48,6.48,0,0,1,4.82-1.73,8.26,8.26,0,0,1,2.38.35,5.37,5.37,0,0,1,1.93,1l-1,2.17a4.81,4.81,0,0,0-3.2-1.07A3.76,3.76,0,0,0,360.35,935.59Z" transform="translate(-94.9 -387.27)"/><path class="cls-2" d="M381.32,961.42a5.5,5.5,0,0,1-2,1.13,8.21,8.21,0,0,1-2.53.39,5.71,5.71,0,0,1-6.31-6.28v-13h-3.85v-2.46h3.85v-4.71h2.91v4.71h6.56v2.46h-6.56V956.5a4.09,4.09,0,0,0,1,2.93,3.67,3.67,0,0,0,2.77,1,5.37,5.37,0,0,0,1.74-.28,4.43,4.43,0,0,0,1.46-.82Z" transform="translate(-94.9 -387.27)"/><path class="cls-2" d="M404.61,952.85h-18a7.73,7.73,0,0,0,2.59,5.43,8.55,8.55,0,0,0,5.9,2.07,9.27,9.27,0,0,0,3.69-.72,8,8,0,0,0,2.91-2.11l1.64,1.89a9.19,9.19,0,0,1-3.59,2.62,12.85,12.85,0,0,1-10.62-.51,10.21,10.21,0,0,1-4-3.91,11.16,11.16,0,0,1-1.44-5.66,11.62,11.62,0,0,1,1.37-5.66,10,10,0,0,1,3.78-3.9,11.11,11.11,0,0,1,10.76,0,10,10,0,0,1,3.73,3.88,11.69,11.69,0,0,1,1.35,5.68ZM389,945.49a7.8,7.8,0,0,0-2.4,5.19h15.3a7.89,7.89,0,0,0-2.4-5.19,7.92,7.92,0,0,0-10.5,0Z" transform="translate(-94.9 -387.27)"/><path class="cls-2" d="M416.44,942.11a10.35,10.35,0,0,1,5-1.11v2.83l-.69,0a6.89,6.89,0,0,0-5.33,2.09,8.3,8.3,0,0,0-1.93,5.86v11H410.6V941.16h2.79v4.23A7,7,0,0,1,416.44,942.11Z" transform="translate(-94.9 -387.27)"/><path class="cls-2" d="M456.56,952.85h-18a7.68,7.68,0,0,0,2.58,5.43,8.59,8.59,0,0,0,5.91,2.07,9.34,9.34,0,0,0,3.69-.72,8,8,0,0,0,2.91-2.11l1.64,1.89a9.26,9.26,0,0,1-3.59,2.62,12.17,12.17,0,0,1-4.74.91,12,12,0,0,1-5.88-1.42,10.23,10.23,0,0,1-4-3.91,11.15,11.15,0,0,1-1.43-5.66,11.51,11.51,0,0,1,1.37-5.66,10,10,0,0,1,3.77-3.9,11.13,11.13,0,0,1,10.77,0,10,10,0,0,1,3.73,3.88A11.69,11.69,0,0,1,456.6,952Zm-15.64-7.36a7.8,7.8,0,0,0-2.4,5.19h15.29a7.8,7.8,0,0,0-2.4-5.19,7.91,7.91,0,0,0-10.49,0Z" transform="translate(-94.9 -387.27)"/><path class="cls-2" d="M466.83,935.59a4.27,4.27,0,0,0-1,3v2.54h6.65v2.46H466v19.11H463V943.62h-3.86v-2.46H463V938.5a6.31,6.31,0,0,1,1.7-4.67,6.45,6.45,0,0,1,4.81-1.73,8.16,8.16,0,0,1,2.38.35,5.28,5.28,0,0,1,1.93,1l-1,2.17a4.83,4.83,0,0,0-3.2-1.07A3.73,3.73,0,0,0,466.83,935.59Z" transform="translate(-94.9 -387.27)"/><path class="cls-2" d="M480.73,935.59a4.23,4.23,0,0,0-1,3v2.54h6.65v2.46h-6.56v19.11h-2.92V943.62h-3.85v-2.46h3.85V938.5a6.32,6.32,0,0,1,1.71-4.67,6.45,6.45,0,0,1,4.81-1.73,8.21,8.21,0,0,1,2.38.35,5.28,5.28,0,0,1,1.93,1l-1,2.17a4.79,4.79,0,0,0-3.19-1.07A3.73,3.73,0,0,0,480.73,935.59Z" transform="translate(-94.9 -387.27)"/><path class="cls-2" d="M508.75,952.85h-18a7.68,7.68,0,0,0,2.58,5.43,8.59,8.59,0,0,0,5.91,2.07,9.27,9.27,0,0,0,3.69-.72,8,8,0,0,0,2.91-2.11l1.64,1.89a9.19,9.19,0,0,1-3.59,2.62,12.85,12.85,0,0,1-10.62-.51,10.23,10.23,0,0,1-4-3.91A11.25,11.25,0,0,1,487.8,952a11.62,11.62,0,0,1,1.37-5.66,10,10,0,0,1,3.77-3.9,10.64,10.64,0,0,1,5.4-1.39,10.53,10.53,0,0,1,5.37,1.39,10,10,0,0,1,3.73,3.88,11.69,11.69,0,0,1,1.35,5.68Zm-15.64-7.36a7.8,7.8,0,0,0-2.4,5.19H506a7.8,7.8,0,0,0-2.4-5.19,7.91,7.91,0,0,0-10.49,0Z" transform="translate(-94.9 -387.27)"/><path class="cls-2" d="M518,961.54a10,10,0,0,1-4-3.91,11.26,11.26,0,0,1-1.44-5.68,11.13,11.13,0,0,1,1.44-5.66,10.08,10.08,0,0,1,4-3.9,11.75,11.75,0,0,1,5.72-1.39,11.06,11.06,0,0,1,5,1.09,8.27,8.27,0,0,1,3.46,3.17L530,946.74a6.85,6.85,0,0,0-2.71-2.4,8.06,8.06,0,0,0-3.57-.8,8.42,8.42,0,0,0-4.2,1.05,7.43,7.43,0,0,0-2.91,3,9,9,0,0,0-1,4.39,9,9,0,0,0,1,4.4,7.4,7.4,0,0,0,2.91,3,8.52,8.52,0,0,0,4.2,1,8.18,8.18,0,0,0,3.57-.78A6.7,6.7,0,0,0,530,957.2l2.17,1.47a8.19,8.19,0,0,1-3.49,3.18,11.15,11.15,0,0,1-5,1.09A11.65,11.65,0,0,1,518,961.54Z" transform="translate(-94.9 -387.27)"/><path class="cls-2" d="M549.42,961.42a5.55,5.55,0,0,1-2,1.13,8.15,8.15,0,0,1-2.52.39,6.33,6.33,0,0,1-4.67-1.64,6.26,6.26,0,0,1-1.64-4.64v-13H534.7v-2.46h3.86v-4.71h2.91v4.71H548v2.46h-6.56V956.5a4.09,4.09,0,0,0,1,2.93,3.66,3.66,0,0,0,2.77,1,5.37,5.37,0,0,0,1.74-.28,4.43,4.43,0,0,0,1.46-.82Z" transform="translate(-94.9 -387.27)"/><path class="cls-2" d="M553.87,962.28a2.19,2.19,0,0,1-.64-1.6,2.13,2.13,0,0,1,.64-1.58,2.11,2.11,0,0,1,1.54-.63,2.14,2.14,0,0,1,1.55.63,2.11,2.11,0,0,1,.66,1.58,2.17,2.17,0,0,1-.66,1.6,2.1,2.1,0,0,1-1.55.66A2.06,2.06,0,0,1,553.87,962.28Z" transform="translate(-94.9 -387.27)"/></svg>