<?xml version="1.0" encoding="utf-8"?>
<!-- Generator: Adobe Illustrator 24.0.0, SVG Export Plug-In . SVG Version: 6.00 Build 0)  -->
<svg version="1.1" id="flate_design" xmlns="http://www.w3.org/2000/svg" xmlns:xlink="http://www.w3.org/1999/xlink" x="0px"
	 y="0px" viewBox="0 0 652.8 652.8" style="enable-background:new 0 0 652.8 652.8;" xml:space="preserve">
<style type="text/css">
	.st0{fill:#FFFF5F;}
	.st1{fill:#EDE321;}
	.st2{fill:#F4EE27;}
	.st3{fill:#D8CA19;}
	.st4{fill:#60580B;}
	.st5{fill:#6B6644;}
</style>
<rect class="st0" width="652.8" height="652.8"/>
<polygon class="st1" points="495.7,588.4 401.5,652.8 0,652.8 0,518.8 234.2,385.1 "/>
<path class="st1" d="M229,286.5c-0.6,1.4-1,2.9-1.2,4.4c-1.6,12.7-8,74.7,13.2,108.2c17.4,27.5,101,146.7,213.1,187.3
	c1.4,0.5,2.8,0.8,4.3,0.9c8.7,0.7,41.2,2.8,73.7-1.8c1.9-0.3,3.7-0.9,5.3-1.8l4.7-2.5c5.1-2.7,8.4-8,8.7-13.8l0.4-11.7
	c0.1-4.5-1.5-8.8-4.7-12l-7.4-7.6c-1-1-2.1-1.9-3.3-2.6C516.5,522,349,419.2,317.9,285.7c-0.6-2.6-1.8-5-3.5-7l-27.9-32.4
	c-1.8-2.1-3-4.5-3.6-7.2c-2.2-9.9-7.2-35.7-5.1-53.4c0.2-2,0.1-4-0.4-6l-2.1-8.1c-2.1-7.9-9.6-13.1-17.8-12.2l0,0
	c-8.7,1-15.1,8.7-14.4,17.5c1.4,19.5,3.8,51.8,4.7,63.4c0.2,2.8-0.3,5.6-1.5,8.2C242.4,256.8,233.4,276.2,229,286.5z"/>
<path class="st2" d="M257.6,268.1c-0.2,0.7-2.5,11.3-2.4,12c2.9,28.5,3.2,75.3,44.4,126.3c10.8,13.5,75.6,106.2,145.7,129.3
	c0.3,0.1,0.5,0.2,0.8,0.2l72,17.3c1.1,0.3,2.3,0.3,3.5,0.1l13.2-2.1c18.8-1.1,10.7-8.7,3.8-16.2c-0.3-0.2-0.6-0.5-0.9-0.6
	C493,504.2,382.6,428.3,341.1,345.2c0,0-21.3-39.8-23.8-60.8c-0.2-1.8-0.9-3.4-2.1-4.8l-29.9-34.7c-0.9-1.1-1.6-2.4-1.9-3.8
	c-2.1-8.7-9.4-41.6-5.8-56.2c0.4-1.5,0.4-3,0-4.4l-4-15.2c-1.1-4.3-5.3-7.1-9.7-6.6l0,0c-4.9,0.6-8.4,5-7.9,9.8l7.5,70
	c0.1,1,0,1.9-0.2,2.9L257.6,268.1z"/>
<path class="st3" d="M248.1,244.6l-10,38.8c0,0-2.2,68,5,89.7c2.2,6.8,57.3,106.2,130.9,151.9s88.2,46.8,88.2,46.8l78.3,10.2
	c0,0-21.8,10.3-84.4,5.1c0,0-104-27.1-215.1-188c0,0-24.4-44.6-12.9-110.5L248.1,244.6z"/>
<path class="st1" d="M272.7,161.8l5.2,20c0.2,0.7,0.2,1.4,0.1,2.1c-0.9,4.8-4.1,26.1,5.5,58.4c0.2,0.6,0.5,1.2,0.9,1.7l26.7,30
	c0.6,0.6,5.9,8.1,6,8.9c2.3,13.2,26.6,130.1,219.8,251.2c0.3,0.2,0.6,0.4,0.8,0.7l13.5,13.8c3.4,3.5-13.1-4.1-17.8-5.6l-18.9-5.8
	l-0.4-0.2c-4.3-1.8-74-31.6-133.4-90c-60.7-59.8-86.6-134.6-89.4-167.1c0-0.6-0.2-1.2-0.5-1.7l-18.4-37.4c-0.2-0.5-0.4-1-0.5-1.5
	l-8.7-75.7c-0.3-2.6,1.5-4.9,4.1-5.2c0,0,0,0,0.1,0l0,0C270,158.1,272.1,159.6,272.7,161.8z"/>
<path class="st4" d="M552.7,549.6l6.5,4.9c1.1,0.8,1.7,2.2,1.5,3.6l-1.1,8.1c-0.1,0.8-0.4,1.5-1,2.1l-7.7,8c-0.3,0.3-0.6,0.5-1,0.7
	l-6.6,3.5c-1.6,0.8-3.5,0.5-4.7-0.9l-9.3-10.6c-0.4-0.4-0.7-1-0.8-1.5l-2.9-10.6c-0.6-2,0.6-4.1,2.7-4.7c0.1,0,0.3-0.1,0.4-0.1
	l21.2-3.3C550.9,548.7,551.9,549,552.7,549.6z"/>
<path class="st4" d="M244.8,174.2l17.7-5.8c0.3-0.1,0.5-0.2,0.7-0.5l7.6-9c0.5-0.6,0.5-1.4,0-2l-7.7-9.3c-0.1-0.2-0.3-0.3-0.5-0.4
	l-19.4-10.5c-0.2-0.1-0.5-0.2-0.7-0.2h-13.8c-0.9-0.1-1.6,0.6-1.7,1.4c-0.1,0.7,0.3,1.3,1,1.6l17.7,9c0.7,0.4,1,1.2,0.7,2l-4.3,10.4
	c-0.1,0.2-0.1,0.5-0.1,0.7l0.8,11.1c0.1,0.9,0.8,1.5,1.7,1.4C244.6,174.3,244.7,174.2,244.8,174.2z"/>
<path class="st5" d="M242,161.5l1,13c0,0.1,0.1,0.3,0.3,0.3c0,0,0,0,0.1,0l19.7-6.5c0,0,0.1,0,0.1-0.1l8-9.5c0.1-0.1,0.1-0.3,0-0.4
	c-0.1-0.1-0.2-0.1-0.3,0l-18.3,6.2c-0.1,0-0.3,0-0.3-0.2c0,0,0-0.1,0-0.1c0-2.3,0.3-14.1-0.3-13s-8.8,9.2-9.8,10.1
	C242,161.3,241.9,161.4,242,161.5z"/>
<path class="st1" d="M349.5,71.1c3.3,1.8,5.9,4.4,7.7,7.8c1.9,3.3,2.8,7.2,2.8,11.6s-0.9,8.3-2.8,11.6c-1.9,3.3-4.4,5.9-7.7,7.8
	c-3.3,1.8-6.9,2.8-10.9,2.8c-5.9,0-10.4-1.9-13.5-5.6v5h-11.9V52.7h12.5v20.9c3.1-3.5,7.5-5.2,13-5.2
	C342.6,68.4,346.2,69.3,349.5,71.1z M344.3,99.2c2.1-2.2,3.1-5.1,3.1-8.7s-1-6.5-3.1-8.7c-2.1-2.2-4.7-3.2-7.9-3.2s-5.8,1.1-7.9,3.2
	c-2.1,2.2-3.1,5.1-3.1,8.7s1,6.5,3.1,8.7c2.1,2.2,4.7,3.2,7.9,3.2S342.2,101.4,344.3,99.2z"/>
<path class="st1" d="M400.3,73.1c3.6,3.2,5.4,8,5.4,14.4V112H394v-5.4c-2.3,4-6.7,6-13.1,6c-3.3,0-6.2-0.6-8.6-1.7
	c-2.4-1.1-4.3-2.7-5.6-4.6c-1.3-2-1.9-4.2-1.9-6.7c0-4,1.5-7.1,4.5-9.4c3-2.3,7.7-3.4,14-3.4h9.9c0-2.7-0.8-4.8-2.5-6.3
	c-1.7-1.5-4.1-2.2-7.4-2.2c-2.3,0-4.5,0.4-6.8,1.1c-2.2,0.7-4.1,1.7-5.6,2.9l-4.5-8.7c2.3-1.7,5.2-2.9,8.4-3.8
	c3.3-0.9,6.7-1.4,10.1-1.4C391.6,68.4,396.7,69.9,400.3,73.1z M389.7,102.8c1.7-1,2.8-2.4,3.5-4.4V94h-8.6c-5.1,0-7.7,1.7-7.7,5
	c0,1.6,0.6,2.9,1.9,3.8c1.3,0.9,3,1.4,5.2,1.4C386.1,104.3,388,103.8,389.7,102.8z"/>
<path class="st1" d="M456,73.2c3.3,3.2,4.9,7.9,4.9,14.2V112h-12.5V89.3c0-3.4-0.7-6-2.2-7.6c-1.5-1.7-3.7-2.5-6.5-2.5
	c-3.1,0-5.7,1-7.5,2.9c-1.9,1.9-2.8,4.8-2.8,8.7V112H417V69h11.9v5c1.7-1.8,3.7-3.2,6.2-4.2c2.5-1,5.1-1.5,8.1-1.5
	C448.5,68.4,452.8,69.9,456,73.2z"/>
<path class="st1" d="M505,73.1c3.6,3.2,5.4,8,5.4,14.4V112h-11.7v-5.4c-2.3,4-6.7,6-13.1,6c-3.3,0-6.2-0.6-8.6-1.7s-4.3-2.7-5.6-4.6
	c-1.3-2-1.9-4.2-1.9-6.7c0-4,1.5-7.1,4.5-9.4c3-2.3,7.7-3.4,14-3.4h9.9c0-2.7-0.8-4.8-2.5-6.3c-1.7-1.5-4.1-2.2-7.4-2.2
	c-2.3,0-4.5,0.4-6.8,1.1c-2.2,0.7-4.1,1.7-5.6,2.9l-4.5-8.7c2.3-1.7,5.2-2.9,8.4-3.8c3.3-0.9,6.7-1.4,10.1-1.4
	C496.3,68.4,501.4,69.9,505,73.1z M494.3,102.8c1.7-1,2.8-2.4,3.5-4.4V94h-8.6c-5.1,0-7.7,1.7-7.7,5c0,1.6,0.6,2.9,1.9,3.8
	c1.3,0.9,3,1.4,5.2,1.4C490.8,104.3,492.7,103.8,494.3,102.8z"/>
<path class="st1" d="M560.7,73.2c3.3,3.2,4.9,7.9,4.9,14.2V112h-12.5V89.3c0-3.4-0.7-6-2.2-7.6c-1.5-1.7-3.7-2.5-6.5-2.5
	c-3.1,0-5.7,1-7.5,2.9c-1.9,1.9-2.8,4.8-2.8,8.7V112h-12.5V69h11.9v5c1.7-1.8,3.7-3.2,6.2-4.2c2.5-1,5.1-1.5,8.1-1.5
	C553.1,68.4,557.4,69.9,560.7,73.2z"/>
<path class="st1" d="M619.3,94h-32.6c0.6,2.7,2,4.8,4.2,6.3c2.2,1.5,4.9,2.3,8.2,2.3c2.2,0,4.2-0.3,6-1c1.7-0.7,3.3-1.7,4.8-3.2
	l6.6,7.2c-4.1,4.6-10,7-17.8,7c-4.9,0-9.1-0.9-12.9-2.8c-3.7-1.9-6.6-4.5-8.6-7.9c-2-3.4-3-7.2-3-11.4c0-4.2,1-8,3-11.4
	c2-3.4,4.7-6,8.2-7.9c3.5-1.9,7.4-2.8,11.7-2.8c4.2,0,8,0.9,11.4,2.7c3.4,1.8,6.1,4.4,8,7.8c1.9,3.4,2.9,7.3,2.9,11.8
	C619.5,90.8,619.4,91.9,619.3,94z M590.1,80.2c-1.9,1.6-3.1,3.8-3.5,6.6h21.2c-0.4-2.7-1.6-4.9-3.5-6.5c-1.9-1.6-4.3-2.4-7-2.4
	C594.4,77.8,592,78.6,590.1,80.2z"/>
</svg>
