<svg id="panneau_4" data-name="panneau 4" xmlns="http://www.w3.org/2000/svg" viewBox="0 0 482.84 168.11"><defs><style>.cls-1{fill:#d40005;}.cls-2{fill:#ef4433;}.cls-3{fill:#fff;}.cls-4{fill:#f7f7ed;}</style></defs><title>pancarte lancer timer</title><polygon class="cls-1" points="0 168.11 7.48 160.46 17.29 168.11 50.84 168.11 49.67 143.42 60.58 168.11 76.64 168.11 94.71 168.11 108.13 168.11 127.74 168.11 165.94 168.11 175.23 143.94 175.23 168.11 215.48 168.11 253.16 168.11 253.16 138.59 260.39 168.11 308.13 168.11 357.68 168.11 388.84 168.11 424.52 164.33 452.39 168.11 480 168.11 482.84 67.04 480 6.78 476.13 0 465.29 0 443.1 0 424.52 0 411.61 0 396.64 0 388.84 0 378.58 0 370.32 0 357.68 0 349.68 0 341.94 0 335.23 6.78 328.26 0 318.19 0 312.52 0 308.13 0 303.23 0 299.1 0 292.39 0 286.19 0 279.48 0 272.26 0 264.52 0 260.39 0 253.84 0 240 20.07 245.52 0 240 0 236.32 0 228.39 0 220.84 0 216.39 0 206.71 0 207.74 19.04 204 0 200.9 0 193.55 0 187.35 0 179.23 0 176.13 0 170.81 0 163.79 0 159.1 0 153.29 0 147.48 0 139.74 0 134.32 0 130.84 0 126.58 0 118.45 0 112.13 4.07 105.55 4.07 99.74 4.07 91.36 0 84.77 0 81.29 0 73.94 0 63.48 0 51.87 0 49.81 164.33 48.77 0 43.74 0 37.16 0 30.58 0 16.26 0 14.71 20.07 12 0 0 0 2.32 46.91 0 168.11"/><path class="cls-2" d="M1394.23,573.06h151.44l4.7-12.21v12.21h285.68a4.38,4.38,0,0,0,4.38-4.38V433.25a4.38,4.38,0,0,0-4.38-4.38H1620.74l-5.6,8.11,2.23-8.11H1394.23a4.38,4.38,0,0,0-4.38,4.38V568.68A4.38,4.38,0,0,0,1394.23,573.06Z" transform="translate(-1375.14 -416.91)"/><polygon class="cls-1" points="34.45 6.78 34.45 18.4 37.16 21.11 34.45 30.01 34.45 58.66 37.16 46.66 37.16 31.17 39.87 21.88 37.16 16.46 37.16 6.78 34.45 6.78"/><path class="cls-1" d="M1436.69,433.37s.77,85.55,0,86.71-7,27.48-7,27.48l10.45,19.75,1.55,7.35-.9-7.35L1430.5,547.5l7-28.07.13-92.12Z" transform="translate(-1375.14 -416.91)"/><polygon class="cls-1" points="156.77 160.46 169.55 129.49 156.77 93.11 160.65 4.07 161.61 5.62 157.74 93.11 170.81 129.2 157.35 160.46 156.77 160.46"/><polygon class="cls-1" points="357.68 10.4 365.03 32.72 381.29 58.66 399.87 58.66 420 73.36 401.81 55.56 383.61 55.17 368.13 32.72 362.32 10.4 357.68 10.4"/><polygon class="cls-1" points="308.13 164.33 309.68 146.91 324.39 126.01 321.68 112.85 328.26 127.17 313.55 146.91 313.55 164.33 308.13 164.33"/><polygon class="cls-1" points="408.77 164.33 441.29 104.72 445.16 50.91 445.94 50.91 442.11 104.96 409.55 164.33 408.77 164.33"/><path class="cls-3" d="M1453.91,511.13V483.44h7.6V504.5h12.56v6.63Z" transform="translate(-1375.14 -416.91)"/><path class="cls-3" d="M1475.08,505.05a6,6,0,0,1,1.13-3.59,7.6,7.6,0,0,1,3.14-2.43,11.29,11.29,0,0,1,4.59-.88,12.83,12.83,0,0,1,2.28.19,6.94,6.94,0,0,1,1.85.59v-.63a2.49,2.49,0,0,0-.84-2.06,4.4,4.4,0,0,0-2.71-.67,9,9,0,0,0-3.22.57,16,16,0,0,0-3.14,1.66l-2.14-4.61a16.34,16.34,0,0,1,4.35-2,18.29,18.29,0,0,1,4.89-.64q4.88,0,7.55,2.15a7.71,7.71,0,0,1,2.67,6.38V503a2.4,2.4,0,0,0,.31,1.43,1.49,1.49,0,0,0,1.09.47v6.24c-.59.13-1.16.23-1.69.3a13,13,0,0,1-1.43.09,5.28,5.28,0,0,1-3-.72,3.32,3.32,0,0,1-1.34-2.12l-.16-.74a9.39,9.39,0,0,1-3.16,2.67,8.3,8.3,0,0,1-3.82.91,7.93,7.93,0,0,1-3.67-.84,6.42,6.42,0,0,1-2.57-2.32A6,6,0,0,1,1475.08,505.05Zm12,.43a3.16,3.16,0,0,0,.71-.64,1.2,1.2,0,0,0,.27-.72v-1.44a9.42,9.42,0,0,0-1.42-.37,7.91,7.91,0,0,0-1.43-.15,3.86,3.86,0,0,0-2.24.63,1.88,1.88,0,0,0-.92,1.59,1.57,1.57,0,0,0,.32.94,2,2,0,0,0,.85.66,3.1,3.1,0,0,0,1.25.24,5.42,5.42,0,0,0,1.39-.2A4.44,4.44,0,0,0,1487.09,505.48Z" transform="translate(-1375.14 -416.91)"/><path class="cls-3" d="M1520.21,511.13h-7.41V499.87a2.89,2.89,0,0,0-.69-2.15,2.19,2.19,0,0,0-1.58-.66,2.9,2.9,0,0,0-1.32.35,4.56,4.56,0,0,0-1.29,1,5,5,0,0,0-.93,1.44v11.31h-7.41V490.89h6.66V494a6.41,6.41,0,0,1,1.88-1.86,8.61,8.61,0,0,1,2.61-1.14,13.21,13.21,0,0,1,3.24-.38,6.58,6.58,0,0,1,3.35.73,4.82,4.82,0,0,1,1.87,1.88,7.27,7.27,0,0,1,.82,2.4,14.88,14.88,0,0,1,.2,2.28Z" transform="translate(-1375.14 -416.91)"/><path class="cls-3" d="M1533.93,511.52a12.79,12.79,0,0,1-4.81-.84,10.23,10.23,0,0,1-3.53-2.32,10.06,10.06,0,0,1-2.19-3.36,10.86,10.86,0,0,1,.57-9.11,9.88,9.88,0,0,1,3.82-3.85,12.1,12.1,0,0,1,6.14-1.46,11.7,11.7,0,0,1,6.24,1.56,10.07,10.07,0,0,1,3.79,4l-7.22,2.18a3.57,3.57,0,0,0-1.23-1.13,3.35,3.35,0,0,0-1.62-.39,3.41,3.41,0,0,0-1.83.51,3.57,3.57,0,0,0-1.3,1.44,4.8,4.8,0,0,0-.49,2.28,4.87,4.87,0,0,0,.49,2.27,3.57,3.57,0,0,0,1.3,1.46,3.71,3.71,0,0,0,3,.33,3.52,3.52,0,0,0,1.71-1.35L1544,506a9.46,9.46,0,0,1-2.25,2.88,10.52,10.52,0,0,1-3.35,2A12.63,12.63,0,0,1,1533.93,511.52Z" transform="translate(-1375.14 -416.91)"/><path class="cls-3" d="M1556.2,511.52a13,13,0,0,1-4.79-.82,10.09,10.09,0,0,1-3.53-2.25,9.75,9.75,0,0,1-2.17-3.26,10.42,10.42,0,0,1-.74-3.88,11.25,11.25,0,0,1,1.29-5.35,9.83,9.83,0,0,1,3.78-3.9,11.88,11.88,0,0,1,6.16-1.48,12.09,12.09,0,0,1,6.17,1.46,9.82,9.82,0,0,1,3.78,3.84,10.74,10.74,0,0,1,1.29,5.19q0,.57-.06,1.17c0,.4-.09.75-.14,1.06h-14.39a2.93,2.93,0,0,0,.6,1.68,3,3,0,0,0,1.33.94,4.69,4.69,0,0,0,1.66.3,4.92,4.92,0,0,0,2.28-.55,2.73,2.73,0,0,0,1.42-1.52l6.28,1.8a9,9,0,0,1-2.28,2.88,10.91,10.91,0,0,1-3.45,2A13.14,13.14,0,0,1,1556.2,511.52Zm-3.51-12.67h6.79a3.59,3.59,0,0,0-.57-1.61,3.07,3.07,0,0,0-1.17-1,4,4,0,0,0-3.31,0,3.15,3.15,0,0,0-1.17,1A3.59,3.59,0,0,0,1552.69,498.85Z" transform="translate(-1375.14 -416.91)"/><path class="cls-3" d="M1583.78,496.94a14.79,14.79,0,0,0-3.9.47,4.74,4.74,0,0,0-2.62,1.56v12.16h-7.41V490.89h6.79v3.63a8.6,8.6,0,0,1,2.73-3.18,6.08,6.08,0,0,1,3.47-1.11h.61a1.24,1.24,0,0,1,.33,0Z" transform="translate(-1375.14 -416.91)"/><path class="cls-3" d="M1608.31,510a22.85,22.85,0,0,1-2.17.8,15.36,15.36,0,0,1-2.34.57,14.23,14.23,0,0,1-2.32.19,8.31,8.31,0,0,1-3.08-.55,4.67,4.67,0,0,1-2.24-1.83,6.26,6.26,0,0,1-.84-3.46v-9.21h-2.53v-5.58h2.53v-6.43h7.41v6.43h4v5.58h-4V503a1.78,1.78,0,0,0,.43,1.37,1.61,1.61,0,0,0,1.17.4,4.81,4.81,0,0,0,1.25-.2,13.55,13.55,0,0,0,1.4-.47Z" transform="translate(-1375.14 -416.91)"/><path class="cls-3" d="M1610.41,488.9v-6.24h7.41v6.24Zm0,22.23V490.62h7.41v20.51Z" transform="translate(-1375.14 -416.91)"/><path class="cls-3" d="M1654.64,511.13h-7.41V499.87a3.12,3.12,0,0,0-.61-2.15,1.91,1.91,0,0,0-1.46-.66,3.11,3.11,0,0,0-1.87.79,4.6,4.6,0,0,0-1.48,2.06v11.22h-7.41V499.87a3.12,3.12,0,0,0-.61-2.15,1.91,1.91,0,0,0-1.46-.66,3.13,3.13,0,0,0-1.87.77,4.45,4.45,0,0,0-1.48,2v11.31h-7.41V490.89h6.67V494a6.89,6.89,0,0,1,3-2.52,11,11,0,0,1,4.52-.86,5.86,5.86,0,0,1,3.82,1.07,5.31,5.31,0,0,1,1.72,2.42,7.4,7.4,0,0,1,3-2.57,9.85,9.85,0,0,1,4.29-.92,6.2,6.2,0,0,1,3.24.73,4.73,4.73,0,0,1,1.81,1.88,7.47,7.47,0,0,1,.8,2.4,14.88,14.88,0,0,1,.2,2.28Z" transform="translate(-1375.14 -416.91)"/><path class="cls-3" d="M1668.33,511.52a13.05,13.05,0,0,1-4.8-.82,10.19,10.19,0,0,1-3.53-2.25,9.57,9.57,0,0,1-2.16-3.26,10.23,10.23,0,0,1-.75-3.88,11.25,11.25,0,0,1,1.29-5.35,9.83,9.83,0,0,1,3.78-3.9,11.89,11.89,0,0,1,6.17-1.48,12.08,12.08,0,0,1,6.16,1.46,9.82,9.82,0,0,1,3.78,3.84,10.74,10.74,0,0,1,1.29,5.19q0,.57-.06,1.17c0,.4-.08.75-.14,1.06H1665a2.93,2.93,0,0,0,.61,1.68,3,3,0,0,0,1.32.94,4.73,4.73,0,0,0,1.66.3,4.86,4.86,0,0,0,2.28-.55,2.75,2.75,0,0,0,1.43-1.52l6.27,1.8a9,9,0,0,1-2.28,2.88,10.8,10.8,0,0,1-3.45,2A13.08,13.08,0,0,1,1668.33,511.52Zm-3.51-12.67h6.78a3.58,3.58,0,0,0-.56-1.61,3.15,3.15,0,0,0-1.17-1,4,4,0,0,0-3.32,0,3.15,3.15,0,0,0-1.17,1A3.47,3.47,0,0,0,1664.82,498.85Z" transform="translate(-1375.14 -416.91)"/><path class="cls-3" d="M1695.9,496.94a14.79,14.79,0,0,0-3.9.47,4.71,4.71,0,0,0-2.61,1.56v12.16H1682V490.89h6.78v3.63a8.6,8.6,0,0,1,2.73-3.18,6.08,6.08,0,0,1,3.47-1.11h.61a1.24,1.24,0,0,1,.33,0Z" transform="translate(-1375.14 -416.91)"/><polygon class="cls-3" points="371.18 21.23 442.77 21.23 436.07 30.68 378.07 30.68 371.18 21.23"/><polygon class="cls-3" points="371.18 147.79 442.77 147.79 436.07 138.33 378.07 138.33 371.18 147.79"/><polygon class="cls-4" points="408.26 85.23 408.26 87.49 430.28 101.25 430.28 135.93 406.98 135.93 383.68 135.93 383.68 101.25 405.69 87.5 405.7 87.5 405.7 85.23 381.54 100.33 381.54 138.19 406.98 138.19 432.41 138.19 432.41 100.33 408.26 85.23"/><polygon class="cls-4" points="406.98 30.68 381.54 30.68 381.54 68.55 405.7 83.64 405.7 83.64 405.7 81.38 405.7 81.38 383.68 67.62 383.68 32.94 406.98 32.94 430.28 32.94 430.28 67.62 408.26 81.38 408.26 81.38 408.26 83.63 432.41 68.55 432.41 30.68 406.98 30.68"/><rect class="cls-4" x="405.24" y="83.35" width="0.46" height="2.27"/><rect class="cls-4" x="408.26" y="83.35" width="0.46" height="2.27"/><polygon class="cls-4" points="371.18 147.79 378.54 143.06 435.4 143.06 443.02 147.79 371.18 147.79"/><polygon class="cls-4" points="442.9 21.23 435.55 25.95 378.68 25.95 371.06 21.23 442.9 21.23"/><polygon class="cls-3" points="386.13 57.16 398.16 57.16 406.98 59.26 415.64 57.16 428.69 57.16 428.69 65.85 408.73 78.17 405.7 78.17 386.13 66.14 386.13 57.16"/><polygon class="cls-3" points="386.13 114.27 386.13 133.46 427.67 133.46 427.67 114.27 413.92 111.71 399.31 111.71 386.13 114.27"/><polygon class="cls-3" points="406.9 91.78 405.7 92.64 406.3 93.5 407.1 92.64 406.9 91.78"/><polygon class="cls-3" points="407.41 94.64 408.26 96.07 406.9 96.07 407.41 94.64"/><polygon class="cls-3" points="404.75 96.07 404.75 99.08 406.4 98.37 404.75 96.07"/><polygon class="cls-3" points="407.58 101.52 405.7 101.52 406.64 100.52 407.41 100.52 407.58 101.52"/><polygon class="cls-3" points="407.41 103.81 408.26 104.67 408.73 103.81 408.26 102.52 407.41 103.81"/><polygon class="cls-3" points="403.75 104.67 404.75 103.59 405.24 104.67 403.75 104.67"/><polygon class="cls-3" points="407.1 106.96 405.7 107.68 405.7 106.25 406.9 106.25 407.1 106.96"/><polygon class="cls-3" points="407.58 109.11 408.07 110.4 406.64 110.4 407.58 109.11"/><polygon class="cls-3" points="403.75 109.11 404.49 110.4 403.75 110.4 403.75 109.11"/><polygon class="cls-3" points="406.64 80.32 406.9 82.18 407.35 81.25 406.64 80.32"/><polygon class="cls-3" points="407.35 85.23 406.64 86.76 406.4 85.62 407.35 85.23"/><polygon class="cls-3" points="407.35 88.48 407.01 88.74 406.4 89.2 407.35 88.48"/></svg>