<svg id="panneau_2" data-name="panneau 2" xmlns="http://www.w3.org/2000/svg" viewBox="0 0 482.84 168.11"><defs><style>.cls-1{fill:#d40005;}.cls-2{fill:#ef4433;}.cls-3{fill:#fff;}.cls-4{fill:#f7f7ed;}</style></defs><title>pancarte passer</title><polygon class="cls-1" points="0 168.11 7.48 160.46 17.29 168.11 50.84 168.11 49.67 143.42 60.58 168.11 76.64 168.11 94.71 168.11 108.13 168.11 127.74 168.11 165.94 168.11 175.23 143.94 175.23 168.11 215.48 168.11 253.16 168.11 253.16 138.59 260.39 168.11 308.13 168.11 357.68 168.11 388.84 168.11 424.52 164.33 452.39 168.11 480 168.11 482.84 67.04 480 6.78 476.13 0 465.29 0 443.1 0 424.52 0 411.61 0 396.64 0 388.84 0 378.58 0 370.32 0 357.68 0 349.68 0 341.94 0 335.23 6.78 328.26 0 318.19 0 312.52 0 308.13 0 303.23 0 299.1 0 292.39 0 286.19 0 279.48 0 272.26 0 264.52 0 260.39 0 253.84 0 240 20.07 245.52 0 240 0 236.32 0 228.39 0 220.84 0 216.39 0 206.71 0 207.74 19.04 204 0 200.9 0 193.55 0 187.35 0 179.23 0 176.13 0 170.81 0 163.79 0 159.1 0 153.29 0 147.48 0 139.74 0 134.32 0 130.84 0 126.58 0 118.45 0 112.13 4.07 105.55 4.07 99.74 4.07 91.36 0 84.77 0 81.29 0 73.94 0 63.48 0 51.87 0 49.81 164.33 48.77 0 43.74 0 37.16 0 30.58 0 16.26 0 14.71 20.07 12 0 0 0 2.32 46.91 0 168.11"/><path class="cls-2" d="M770.7,230.93H922.15l4.69-12.2v12.2h285.68a4.38,4.38,0,0,0,4.38-4.38V91.12a4.38,4.38,0,0,0-4.38-4.38H997.21l-5.6,8.12,2.23-8.12H770.7a4.38,4.38,0,0,0-4.38,4.38V226.55A4.38,4.38,0,0,0,770.7,230.93Z" transform="translate(-751.61 -74.78)"/><polygon class="cls-1" points="34.45 6.78 34.45 18.4 37.16 21.11 34.45 30.01 34.45 58.66 37.16 46.66 37.16 31.17 39.87 21.88 37.16 16.46 37.16 6.78 34.45 6.78"/><path class="cls-1" d="M813.16,91.25s.78,85.54,0,86.71-7,27.48-7,27.48l10.46,19.74,1.54,7.36-.9-7.36L807,205.37l7-28.06.12-92.13Z" transform="translate(-751.61 -74.78)"/><polygon class="cls-1" points="156.77 160.46 169.55 129.49 156.77 93.11 160.65 4.07 161.61 5.62 157.74 93.11 170.81 129.2 157.35 160.46 156.77 160.46"/><polygon class="cls-1" points="357.68 10.4 365.03 32.72 381.29 58.66 399.87 58.66 420 73.36 401.81 55.56 383.61 55.17 368.13 32.72 362.32 10.4 357.68 10.4"/><polygon class="cls-1" points="308.13 164.33 309.68 146.91 324.39 126.01 321.68 112.85 328.26 127.17 313.55 146.91 313.55 164.33 308.13 164.33"/><polygon class="cls-1" points="408.77 164.33 441.29 104.72 445.16 50.91 445.94 50.91 442.11 104.96 409.55 164.33 408.77 164.33"/><g id="Calque_3" data-name="Calque 3"><polygon class="cls-3" points="390.07 40.94 454.89 88.36 386.14 133.99 399.11 110.54 435.86 87.3 399.79 63.23 390.07 40.94"/><polygon class="cls-3" points="332.19 37.73 397.02 85.14 328.26 130.77 341.23 107.32 377.98 84.09 341.91 60.02 332.19 37.73"/><polygon class="cls-4" points="393.31 48.36 447.77 87.46 390.72 125.71 386.14 133.99 454.89 88.36 390.07 40.94 393.31 48.36"/><polygon class="cls-4" points="335.43 45.14 389.89 84.25 332.84 122.5 328.26 130.77 397.02 85.14 332.19 37.73 335.43 45.14"/></g><path class="cls-3" d="M886,178.07V141.86h15.61a11.29,11.29,0,0,1,4.89,1.07,12.17,12.17,0,0,1,3.88,2.88,13.28,13.28,0,0,1,2.52,4.06,12,12,0,0,1,.89,4.53,12.84,12.84,0,0,1-1.5,6.07,12.69,12.69,0,0,1-4.18,4.67,10.88,10.88,0,0,1-6.25,1.81h-5.92v11.12Zm9.94-19.79h5.26a2.12,2.12,0,0,0,1.17-.36,2.6,2.6,0,0,0,.94-1.22,5.67,5.67,0,0,0,.39-2.3,5.24,5.24,0,0,0-.44-2.37,2.57,2.57,0,0,0-1.07-1.17,2.69,2.69,0,0,0-1.25-.33h-5Z" transform="translate(-751.61 -74.78)"/><path class="cls-3" d="M915.22,170.11a7.8,7.8,0,0,1,1.48-4.69,9.91,9.91,0,0,1,4.11-3.18,14.75,14.75,0,0,1,6-1.15,16.63,16.63,0,0,1,3,.25,9,9,0,0,1,2.43.77v-.82a3.23,3.23,0,0,0-1.1-2.69,5.66,5.66,0,0,0-3.55-.88,11.89,11.89,0,0,0-4.2.74,20,20,0,0,0-4.11,2.17l-2.8-6a21,21,0,0,1,5.68-2.58,23.57,23.57,0,0,1,6.4-.84q6.38,0,9.87,2.81t3.5,8.34v5.08a3.18,3.18,0,0,0,.4,1.87,2,2,0,0,0,1.43.62v8.16a22.47,22.47,0,0,1-2.22.38,14.45,14.45,0,0,1-1.86.13,6.88,6.88,0,0,1-3.95-1,4.36,4.36,0,0,1-1.76-2.77l-.2-1a12.31,12.31,0,0,1-4.14,3.49,10.8,10.8,0,0,1-5,1.2,10.41,10.41,0,0,1-4.8-1.1,8.53,8.53,0,0,1-3.36-3A7.87,7.87,0,0,1,915.22,170.11Zm15.71.57a4,4,0,0,0,.92-.85,1.48,1.48,0,0,0,.36-.94V167a13.2,13.2,0,0,0-1.86-.48,10.29,10.29,0,0,0-1.87-.19,5.05,5.05,0,0,0-2.93.82,2.44,2.44,0,0,0-1.2,2.07,2,2,0,0,0,.41,1.23,2.74,2.74,0,0,0,1.12.87,4,4,0,0,0,1.63.31,6.88,6.88,0,0,0,1.81-.26A5.83,5.83,0,0,0,930.93,170.68Z" transform="translate(-751.61 -74.78)"/><path class="cls-3" d="M958,178.58a21.31,21.31,0,0,1-6.91-1.15,15.61,15.61,0,0,1-5.74-3.34l3.32-6a26.6,26.6,0,0,0,4.82,2.55,11.43,11.43,0,0,0,4.21.92,3.92,3.92,0,0,0,1.58-.24.86.86,0,0,0,.51-.83.94.94,0,0,0-.36-.75,4.11,4.11,0,0,0-1.15-.6c-.52-.2-1.2-.42-2-.66q-3.16-1.09-5.28-2a7.86,7.86,0,0,1-3.16-2.33,5.89,5.89,0,0,1-1.05-3.68,8.45,8.45,0,0,1,1.38-4.78,9.35,9.35,0,0,1,4-3.28,14.59,14.59,0,0,1,6.2-1.2,18.38,18.38,0,0,1,5.43.84,14.86,14.86,0,0,1,5.28,3L965.36,161a26.19,26.19,0,0,0-4.31-2.24,9.11,9.11,0,0,0-3.14-.66,4,4,0,0,0-1.15.15,1.54,1.54,0,0,0-.74.44,1.2,1.2,0,0,0-.25.8,1,1,0,0,0,.36.82,3.19,3.19,0,0,0,1.12.6c.51.18,1.15.39,1.94.62a39.65,39.65,0,0,1,5.66,2,8,8,0,0,1,3.23,2.46,6.27,6.27,0,0,1,1,3.78,7.76,7.76,0,0,1-3,6.47Q963.17,178.58,958,178.58Z" transform="translate(-751.61 -74.78)"/><path class="cls-3" d="M983.56,178.58a21.31,21.31,0,0,1-6.91-1.15,15.48,15.48,0,0,1-5.73-3.34l3.31-6a26.94,26.94,0,0,0,4.82,2.55,11.43,11.43,0,0,0,4.21.92,3.92,3.92,0,0,0,1.58-.24.86.86,0,0,0,.51-.83.94.94,0,0,0-.36-.75,4.11,4.11,0,0,0-1.15-.6q-.78-.3-2-.66-3.17-1.09-5.28-2a7.93,7.93,0,0,1-3.16-2.33,5.89,5.89,0,0,1-1-3.68,8.45,8.45,0,0,1,1.38-4.78,9.41,9.41,0,0,1,3.95-3.28,14.62,14.62,0,0,1,6.2-1.2,18.38,18.38,0,0,1,5.43.84,14.86,14.86,0,0,1,5.28,3L990.91,161a26.19,26.19,0,0,0-4.31-2.24,9.11,9.11,0,0,0-3.14-.66,4,4,0,0,0-1.15.15,1.54,1.54,0,0,0-.74.44,1.2,1.2,0,0,0-.25.8,1,1,0,0,0,.36.82,3.19,3.19,0,0,0,1.12.6c.51.18,1.15.39,1.94.62a39.2,39.2,0,0,1,5.66,2,8.16,8.16,0,0,1,3.24,2.46,6.34,6.34,0,0,1,1,3.78,7.76,7.76,0,0,1-3,6.47Q988.72,178.58,983.56,178.58Z" transform="translate(-751.61 -74.78)"/><path class="cls-3" d="M1011.56,178.58a17.1,17.1,0,0,1-6.27-1.08,13.27,13.27,0,0,1-4.62-2.94,12.69,12.69,0,0,1-2.83-4.27,13.61,13.61,0,0,1-1-5.07,14.74,14.74,0,0,1,1.69-7,12.89,12.89,0,0,1,4.94-5.11,15.59,15.59,0,0,1,8.06-1.93,15.76,15.76,0,0,1,8.06,1.91,12.83,12.83,0,0,1,4.95,5,14.08,14.08,0,0,1,1.68,6.78c0,.51,0,1-.08,1.54s-.11,1-.17,1.38h-18.82a3.79,3.79,0,0,0,.79,2.2,3.83,3.83,0,0,0,1.73,1.23,6.17,6.17,0,0,0,2.17.39,6.54,6.54,0,0,0,3-.71,3.56,3.56,0,0,0,1.86-2l8.21,2.35a11.93,11.93,0,0,1-3,3.77,14.23,14.23,0,0,1-4.51,2.57A17.13,17.13,0,0,1,1011.56,178.58ZM1007,162h8.88a4.77,4.77,0,0,0-.74-2.1,4,4,0,0,0-1.53-1.34,5.15,5.15,0,0,0-4.34,0,4,4,0,0,0-1.53,1.34A4.65,4.65,0,0,0,1007,162Z" transform="translate(-751.61 -74.78)"/><path class="cls-3" d="M1047.62,159.5a19.69,19.69,0,0,0-5.1.62,6.2,6.2,0,0,0-3.42,2v15.91h-9.69V151.6h8.88v4.74a11.11,11.11,0,0,1,3.57-4.15,7.92,7.92,0,0,1,4.53-1.46h.8a2,2,0,0,1,.43.05Z" transform="translate(-751.61 -74.78)"/></svg>