<svg id="panneau_3" data-name="panneau 3" xmlns="http://www.w3.org/2000/svg" viewBox="0 0 482.84 168.11"><defs><style>.cls-1{fill:#d40005;}.cls-2{fill:#ef4433;}.cls-3{fill:#fff;}</style></defs><title>pancarte question suivante</title><polygon class="cls-1" points="0 168.11 7.48 160.46 17.29 168.11 50.84 168.11 49.67 143.42 60.58 168.11 76.64 168.11 94.71 168.11 108.13 168.11 127.74 168.11 165.94 168.11 175.23 143.94 175.23 168.11 215.48 168.11 253.16 168.11 253.16 138.59 260.39 168.11 308.13 168.11 357.68 168.11 388.84 168.11 424.52 164.33 452.39 168.11 480 168.11 482.84 67.04 480 6.78 476.13 0 465.29 0 443.1 0 424.52 0 411.61 0 396.64 0 388.84 0 378.58 0 370.32 0 357.68 0 349.68 0 341.94 0 335.23 6.78 328.26 0 318.19 0 312.52 0 308.13 0 303.23 0 299.1 0 292.39 0 286.19 0 279.48 0 272.26 0 264.52 0 260.39 0 253.84 0 240 20.07 245.52 0 240 0 236.32 0 228.39 0 220.84 0 216.39 0 206.71 0 207.74 19.04 204 0 200.9 0 193.55 0 187.35 0 179.23 0 176.13 0 170.81 0 163.79 0 159.1 0 153.29 0 147.48 0 139.74 0 134.32 0 130.84 0 126.58 0 118.45 0 112.13 4.07 105.55 4.07 99.74 4.07 91.36 0 84.77 0 81.29 0 73.94 0 63.48 0 51.87 0 49.81 164.33 48.77 0 43.74 0 37.16 0 30.58 0 16.26 0 14.71 20.07 12 0 0 0 2.32 46.91 0 168.11"/><path class="cls-2" d="M769.28,574.84H920.73l4.69-12.2v12.2H1211.1a4.38,4.38,0,0,0,4.38-4.38V435a4.39,4.39,0,0,0-4.38-4.38H995.79l-5.6,8.12,2.23-8.12H769.28A4.39,4.39,0,0,0,764.9,435V570.46A4.38,4.38,0,0,0,769.28,574.84Z" transform="translate(-750.19 -418.7)"/><polygon class="cls-1" points="34.45 6.78 34.45 18.4 37.16 21.11 34.45 30.01 34.45 58.66 37.16 46.66 37.16 31.17 39.87 21.88 37.16 16.46 37.16 6.78 34.45 6.78"/><path class="cls-1" d="M811.74,435.16s.78,85.55,0,86.71-7,27.48-7,27.48l10.46,19.74,1.54,7.36-.9-7.36-10.32-19.8,7-28.07.13-92.13Z" transform="translate(-750.19 -418.7)"/><polygon class="cls-1" points="156.77 160.46 169.55 129.49 156.77 93.11 160.65 4.07 161.61 5.62 157.74 93.11 170.81 129.2 157.35 160.46 156.77 160.46"/><polygon class="cls-1" points="357.68 10.4 365.03 32.72 381.29 58.66 399.87 58.66 420 73.36 401.81 55.56 383.61 55.17 368.13 32.72 362.32 10.4 357.68 10.4"/><polygon class="cls-1" points="308.13 164.33 309.68 146.91 324.39 126.01 321.68 112.85 328.26 127.17 313.55 146.91 313.55 164.33 308.13 164.33"/><polygon class="cls-1" points="408.77 164.33 441.29 104.72 445.16 50.91 445.94 50.91 442.11 104.96 409.55 164.33 408.77 164.33"/><path class="cls-3" d="M825.63,515.07a13.52,13.52,0,0,1-10.16-4.35,14.48,14.48,0,0,1-2.84-4.53,13.86,13.86,0,0,1-1-5.2,13.44,13.44,0,0,1,1.06-5.29,14.18,14.18,0,0,1,7.42-7.56,13.8,13.8,0,0,1,5.68-1.15,13.22,13.22,0,0,1,5.73,1.21,13.61,13.61,0,0,1,4.41,3.23,15.17,15.17,0,0,1,2.83,4.55,14,14,0,0,1,1,5.16,13.51,13.51,0,0,1-1,5.23,14.48,14.48,0,0,1-2.93,4.47,13.75,13.75,0,0,1-10.16,4.23Zm.08-6.75a6.23,6.23,0,0,0,2.85-.62,5.64,5.64,0,0,0,2-1.68,7.69,7.69,0,0,0,1.13-2.36A10,10,0,0,0,832,501a9.4,9.4,0,0,0-.39-2.71,7,7,0,0,0-1.17-2.32,5.56,5.56,0,0,0-2-1.62,6.25,6.25,0,0,0-2.81-.61,6,6,0,0,0-2.83.63,5.7,5.7,0,0,0-2,1.68,7.25,7.25,0,0,0-1.15,2.35,10.13,10.13,0,0,0-.37,2.68,9.26,9.26,0,0,0,.39,2.69,7.35,7.35,0,0,0,1.17,2.32,5.72,5.72,0,0,0,2,1.64A6.25,6.25,0,0,0,825.71,508.32Zm-3.12-5.15h7.1l10.76,11.7h-7.1Z" transform="translate(-750.19 -418.7)"/><path class="cls-3" d="M842.29,508V494.63h7.41v11.6a3.19,3.19,0,0,0,.6,2A2,2,0,0,0,852,509a5.2,5.2,0,0,0,1.17-.14,3.51,3.51,0,0,0,1.19-.6,5.53,5.53,0,0,0,1.19-1.25v-12.4h7.41v12.09a2.38,2.38,0,0,0,.31,1.43,1.49,1.49,0,0,0,1.09.48v6.24c-.65.13-1.23.23-1.75.3a12.18,12.18,0,0,1-1.37.09,5.47,5.47,0,0,1-3-.69,3.22,3.22,0,0,1-1.41-2.12l-.15-.73a8.36,8.36,0,0,1-3.45,2.71,11.72,11.72,0,0,1-4.55.83,6,6,0,0,1-4.74-1.88A8,8,0,0,1,842.29,508Z" transform="translate(-750.19 -418.7)"/><path class="cls-3" d="M877.46,515.26a13,13,0,0,1-4.79-.82,10.09,10.09,0,0,1-3.53-2.25,9.79,9.79,0,0,1-2.17-3.27,10.34,10.34,0,0,1-.74-3.88,11.21,11.21,0,0,1,1.29-5.34,9.92,9.92,0,0,1,3.78-3.91,13.7,13.7,0,0,1,12.33,0,9.82,9.82,0,0,1,3.78,3.84,10.74,10.74,0,0,1,1.29,5.19q0,.57-.06,1.17c0,.4-.09.75-.14,1H874.11a3,3,0,0,0,.6,1.69,3.09,3.09,0,0,0,1.33.94,4.69,4.69,0,0,0,1.66.3,4.92,4.92,0,0,0,2.28-.55,2.73,2.73,0,0,0,1.42-1.52l6.28,1.8a9,9,0,0,1-2.28,2.88,11.1,11.1,0,0,1-3.45,2A13.14,13.14,0,0,1,877.46,515.26ZM874,502.59h6.79a3.59,3.59,0,0,0-.57-1.61,3.07,3.07,0,0,0-1.17-1,3.89,3.89,0,0,0-3.31,0,3.15,3.15,0,0,0-1.17,1A3.59,3.59,0,0,0,874,502.59Z" transform="translate(-750.19 -418.7)"/><path class="cls-3" d="M899.34,515.26a16.25,16.25,0,0,1-5.28-.88,11.85,11.85,0,0,1-4.39-2.55l2.54-4.56a21,21,0,0,0,3.68,2,8.81,8.81,0,0,0,3.22.7,2.87,2.87,0,0,0,1.21-.19.65.65,0,0,0,.39-.63.74.74,0,0,0-.27-.58,3.66,3.66,0,0,0-.88-.46c-.41-.15-.92-.31-1.54-.49-1.62-.57-3-1.09-4-1.57a6.21,6.21,0,0,1-2.42-1.78,4.58,4.58,0,0,1-.8-2.82,6.39,6.39,0,0,1,1.06-3.65,7.05,7.05,0,0,1,3-2.51,11.16,11.16,0,0,1,4.74-.92,14,14,0,0,1,4.15.64,11.5,11.5,0,0,1,4,2.32L905,501.81a19.69,19.69,0,0,0-3.3-1.72,6.81,6.81,0,0,0-2.39-.51,2.84,2.84,0,0,0-.88.12,1.22,1.22,0,0,0-.57.34.91.91,0,0,0-.19.61.83.83,0,0,0,.27.63,2.51,2.51,0,0,0,.86.45c.39.14.88.3,1.48.48a30.72,30.72,0,0,1,4.33,1.54,6.29,6.29,0,0,1,2.48,1.88,4.86,4.86,0,0,1,.79,2.9,5.93,5.93,0,0,1-2.28,4.94A9.77,9.77,0,0,1,899.34,515.26Z" transform="translate(-750.19 -418.7)"/><path class="cls-3" d="M924.81,513.7c-.68.29-1.4.55-2.16.8a16,16,0,0,1-2.34.57,14.41,14.41,0,0,1-2.32.19,8.36,8.36,0,0,1-3.09-.55,4.72,4.72,0,0,1-2.24-1.83,6.26,6.26,0,0,1-.84-3.46v-9.21h-2.53v-5.58h2.53V488.2h7.41v6.43h4v5.58h-4v6.54a1.82,1.82,0,0,0,.43,1.37,1.69,1.69,0,0,0,1.17.4,4.74,4.74,0,0,0,1.25-.2,14.38,14.38,0,0,0,1.4-.47Z" transform="translate(-750.19 -418.7)"/><path class="cls-3" d="M926.92,492.64V486.4h7.41v6.24Zm0,22.23V494.36h7.41v20.51Z" transform="translate(-750.19 -418.7)"/><path class="cls-3" d="M948.17,515.26a13,13,0,0,1-4.84-.84,9.87,9.87,0,0,1-5.67-5.68,10.94,10.94,0,0,1-.72-3.95,11.12,11.12,0,0,1,.72-4,9.71,9.71,0,0,1,2.15-3.36,10.15,10.15,0,0,1,3.52-2.3,14.42,14.42,0,0,1,9.7,0,10.3,10.3,0,0,1,3.51,2.3,9.83,9.83,0,0,1,2.14,3.36,11.12,11.12,0,0,1,.72,4,10.94,10.94,0,0,1-.72,3.95,9.83,9.83,0,0,1-5.65,5.68A13,13,0,0,1,948.17,515.26Zm-3.63-10.47a5.14,5.14,0,0,0,.47,2.27,3.47,3.47,0,0,0,1.29,1.46,3.75,3.75,0,0,0,3.74,0,3.47,3.47,0,0,0,1.29-1.46,5.69,5.69,0,0,0,0-4.53,3.36,3.36,0,0,0-1.29-1.46,3.68,3.68,0,0,0-3.74,0,3.36,3.36,0,0,0-1.29,1.46A5.09,5.09,0,0,0,944.54,504.79Z" transform="translate(-750.19 -418.7)"/><path class="cls-3" d="M982.65,514.87h-7.41V503.61a2.88,2.88,0,0,0-.69-2.15,2.2,2.2,0,0,0-1.58-.67,3,3,0,0,0-1.32.35,4.6,4.6,0,0,0-1.29,1,5,5,0,0,0-.93,1.44v11.31H962V494.63h6.67v3.06a6.5,6.5,0,0,1,1.87-1.86,8.59,8.59,0,0,1,2.61-1.13,13.21,13.21,0,0,1,3.24-.38,6.58,6.58,0,0,1,3.35.73,4.76,4.76,0,0,1,1.87,1.88,7.22,7.22,0,0,1,.82,2.39,15,15,0,0,1,.2,2.29Z" transform="translate(-750.19 -418.7)"/><path class="cls-3" d="M1003.24,515.26a16.26,16.26,0,0,1-5.29-.88,11.73,11.73,0,0,1-4.38-2.55l2.53-4.56a21,21,0,0,0,3.69,2,8.76,8.76,0,0,0,3.21.7,2.84,2.84,0,0,0,1.21-.19.65.65,0,0,0,.39-.63.74.74,0,0,0-.27-.58,3.3,3.3,0,0,0-.88-.46c-.4-.15-.91-.31-1.54-.49-1.61-.57-2.95-1.09-4-1.57a6.13,6.13,0,0,1-2.42-1.78,4.52,4.52,0,0,1-.8-2.82,6.46,6.46,0,0,1,1.05-3.65,7.11,7.11,0,0,1,3-2.51,11.23,11.23,0,0,1,4.74-.92,14.07,14.07,0,0,1,4.16.64,11.46,11.46,0,0,1,4,2.32l-2.81,4.53a19.65,19.65,0,0,0-3.29-1.72,6.91,6.91,0,0,0-2.4-.51,2.88,2.88,0,0,0-.88.12,1.24,1.24,0,0,0-.56.34.91.91,0,0,0-.2.61.83.83,0,0,0,.27.63,2.61,2.61,0,0,0,.86.45c.39.14.89.3,1.48.48a30.26,30.26,0,0,1,4.33,1.54,6.22,6.22,0,0,1,2.48,1.88,4.86,4.86,0,0,1,.8,2.9,5.93,5.93,0,0,1-2.28,4.94A9.79,9.79,0,0,1,1003.24,515.26Z" transform="translate(-750.19 -418.7)"/><path class="cls-3" d="M1014.35,508V494.63h7.41v11.6a3.13,3.13,0,0,0,.61,2,2,2,0,0,0,1.66.74,5.26,5.26,0,0,0,1.17-.14,3.38,3.38,0,0,0,1.18-.6,5.32,5.32,0,0,0,1.19-1.25v-12.4H1035v12.09a2.37,2.37,0,0,0,.32,1.43,1.47,1.47,0,0,0,1.09.48v6.24c-.65.13-1.24.23-1.76.3a12,12,0,0,1-1.36.09,5.53,5.53,0,0,1-3-.69,3.24,3.24,0,0,1-1.4-2.12l-.16-.73a8.23,8.23,0,0,1-3.45,2.71,11.66,11.66,0,0,1-4.54.83,6,6,0,0,1-4.74-1.88A8,8,0,0,1,1014.35,508Z" transform="translate(-750.19 -418.7)"/><path class="cls-3" d="M1039.43,492.64V486.4h7.41v6.24Zm0,22.23V494.36h7.41v20.51Z" transform="translate(-750.19 -418.7)"/><path class="cls-3" d="M1055.65,514.87l-6.9-20.24h7.61l3.66,13.74,3.71-13.74h6.9l-6.9,20.24Z" transform="translate(-750.19 -418.7)"/><path class="cls-3" d="M1070.9,508.78a6,6,0,0,1,1.13-3.58,7.52,7.52,0,0,1,3.14-2.43,11.29,11.29,0,0,1,4.59-.88,12.83,12.83,0,0,1,2.28.19,6.94,6.94,0,0,1,1.85.59V502a2.49,2.49,0,0,0-.84-2.06,4.4,4.4,0,0,0-2.71-.67,9,9,0,0,0-3.22.57,15.93,15.93,0,0,0-3.14,1.65l-2.14-4.6a16.34,16.34,0,0,1,4.35-2,17.9,17.9,0,0,1,4.89-.64q4.88,0,7.55,2.15a7.7,7.7,0,0,1,2.67,6.38v3.88a2.42,2.42,0,0,0,.31,1.43,1.53,1.53,0,0,0,1.09.47v6.24c-.59.13-1.16.23-1.69.3a13,13,0,0,1-1.43.09,5.28,5.28,0,0,1-3-.72,3.37,3.37,0,0,1-1.35-2.12l-.15-.75a9.42,9.42,0,0,1-3.16,2.68,8.27,8.27,0,0,1-3.82.91,7.93,7.93,0,0,1-3.67-.84,6.49,6.49,0,0,1-2.57-2.32A6,6,0,0,1,1070.9,508.78Zm12,.44a3.42,3.42,0,0,0,.71-.64,1.2,1.2,0,0,0,.27-.72v-1.44a9.42,9.42,0,0,0-1.42-.37,7.91,7.91,0,0,0-1.43-.15,3.86,3.86,0,0,0-2.24.63,1.88,1.88,0,0,0-.92,1.59,1.57,1.57,0,0,0,.32.94,2,2,0,0,0,.85.66,3.1,3.1,0,0,0,1.25.24,5.36,5.36,0,0,0,1.39-.2A4.44,4.44,0,0,0,1082.91,509.22Z" transform="translate(-750.19 -418.7)"/><path class="cls-3" d="M1116,514.87h-7.41V503.61a2.88,2.88,0,0,0-.69-2.15,2.2,2.2,0,0,0-1.58-.67,3,3,0,0,0-1.32.35,4.6,4.6,0,0,0-1.29,1,5.19,5.19,0,0,0-.94,1.44v11.31h-7.41V494.63h6.67v3.06a6.66,6.66,0,0,1,1.88-1.86,8.59,8.59,0,0,1,2.61-1.13,13.21,13.21,0,0,1,3.24-.38,6.58,6.58,0,0,1,3.35.73,4.76,4.76,0,0,1,1.87,1.88,7.22,7.22,0,0,1,.82,2.39,15,15,0,0,1,.2,2.29Z" transform="translate(-750.19 -418.7)"/><path class="cls-3" d="M1134,513.7c-.67.29-1.39.55-2.16.8a16,16,0,0,1-2.34.57,14.32,14.32,0,0,1-2.32.19,8.31,8.31,0,0,1-3.08-.55,4.63,4.63,0,0,1-2.24-1.83,6.26,6.26,0,0,1-.84-3.46v-9.21h-2.54v-5.58H1121V488.2h7.41v6.43h4v5.58h-4v6.54a1.78,1.78,0,0,0,.43,1.37,1.66,1.66,0,0,0,1.17.4,4.81,4.81,0,0,0,1.25-.2c.46-.13.93-.29,1.4-.47Z" transform="translate(-750.19 -418.7)"/><path class="cls-3" d="M1146,515.26a13.05,13.05,0,0,1-4.8-.82,10.19,10.19,0,0,1-3.53-2.25,9.61,9.61,0,0,1-2.16-3.27,10.16,10.16,0,0,1-.75-3.88,11.21,11.21,0,0,1,1.29-5.34,9.92,9.92,0,0,1,3.78-3.91,13.7,13.7,0,0,1,12.33,0,9.82,9.82,0,0,1,3.78,3.84,10.74,10.74,0,0,1,1.29,5.19q0,.57-.06,1.17c0,.4-.09.75-.14,1h-14.39a3,3,0,0,0,.61,1.69,3.05,3.05,0,0,0,1.32.94,4.73,4.73,0,0,0,1.66.3,4.86,4.86,0,0,0,2.28-.55,2.75,2.75,0,0,0,1.43-1.52l6.28,1.8a9.15,9.15,0,0,1-2.29,2.88,11,11,0,0,1-3.45,2A13.12,13.12,0,0,1,1146,515.26Zm-3.51-12.67h6.78a3.58,3.58,0,0,0-.56-1.61,3.15,3.15,0,0,0-1.17-1,3.91,3.91,0,0,0-3.32,0,3.15,3.15,0,0,0-1.17,1A3.47,3.47,0,0,0,1142.47,502.59Z" transform="translate(-750.19 -418.7)"/><path class="cls-3" d="M1167.86,515.26a16.26,16.26,0,0,1-5.29-.88,11.85,11.85,0,0,1-4.39-2.55l2.54-4.56a21,21,0,0,0,3.68,2,8.85,8.85,0,0,0,3.22.7,2.84,2.84,0,0,0,1.21-.19.65.65,0,0,0,.39-.63.74.74,0,0,0-.27-.58,3.47,3.47,0,0,0-.88-.46c-.4-.15-.92-.31-1.54-.49-1.61-.57-3-1.09-4-1.57a6.21,6.21,0,0,1-2.42-1.78,4.58,4.58,0,0,1-.79-2.82,6.46,6.46,0,0,1,1-3.65,7.11,7.11,0,0,1,3-2.51,11.16,11.16,0,0,1,4.74-.92,14,14,0,0,1,4.15.64,11.5,11.5,0,0,1,4,2.32l-2.81,4.53a20,20,0,0,0-3.29-1.72,6.91,6.91,0,0,0-2.4-.51,2.88,2.88,0,0,0-.88.12,1.22,1.22,0,0,0-.57.34.91.91,0,0,0-.19.61.83.83,0,0,0,.27.63,2.51,2.51,0,0,0,.86.45c.39.14.88.3,1.48.48a30.72,30.72,0,0,1,4.33,1.54,6.22,6.22,0,0,1,2.48,1.88,4.86,4.86,0,0,1,.8,2.9,5.93,5.93,0,0,1-2.28,4.94A9.81,9.81,0,0,1,1167.86,515.26Z" transform="translate(-750.19 -418.7)"/></svg>