<svg id="PANNEAU" xmlns="http://www.w3.org/2000/svg" viewBox="0 0 482.84 168.11"><defs><style>.cls-1{fill:#d40005;}.cls-2{fill:#ef4433;}.cls-3{fill:#fff;}.cls-4{fill:#f7f7ed;}</style></defs><title>pancarte afficher réponse</title><polygon class="cls-1" points="0 168.11 7.48 160.46 17.29 168.11 50.84 168.11 49.67 143.42 60.58 168.11 76.64 168.11 94.71 168.11 108.13 168.11 127.74 168.11 165.94 168.11 175.23 143.94 175.23 168.11 215.48 168.11 253.16 168.11 253.16 138.59 260.39 168.11 308.13 168.11 357.68 168.11 388.84 168.11 424.52 164.33 452.39 168.11 480 168.11 482.84 67.04 480 6.78 476.13 0 465.29 0 443.1 0 424.52 0 411.61 0 396.64 0 388.84 0 378.58 0 370.32 0 357.68 0 349.68 0 341.94 0 335.23 6.78 328.26 0 318.19 0 312.52 0 308.13 0 303.23 0 299.1 0 292.39 0 286.19 0 279.48 0 272.26 0 264.52 0 260.39 0 253.84 0 240 20.07 245.52 0 240 0 236.32 0 228.39 0 220.84 0 216.39 0 206.71 0 207.74 19.04 204 0 200.9 0 193.55 0 187.35 0 179.23 0 176.13 0 170.81 0 163.79 0 159.1 0 153.29 0 147.48 0 139.74 0 134.32 0 130.84 0 126.58 0 118.45 0 112.13 4.07 105.55 4.07 99.74 4.07 91.36 0 84.77 0 81.29 0 73.94 0 63.48 0 51.87 0 49.81 164.33 48.77 0 43.74 0 37.16 0 30.58 0 16.26 0 14.71 20.07 12 0 0 0 2.32 46.91 0 168.11"/><path class="cls-2" d="M1387.61,232.72h151.44l4.69-12.2v12.2h285.69a4.38,4.38,0,0,0,4.38-4.38V92.91a4.38,4.38,0,0,0-4.38-4.38H1614.11l-5.59,8.12,2.23-8.12H1387.61a4.38,4.38,0,0,0-4.38,4.38V228.34A4.38,4.38,0,0,0,1387.61,232.72Z" transform="translate(-1368.52 -76.57)"/><polygon class="cls-1" points="34.45 6.78 34.45 18.4 37.16 21.11 34.45 30.01 34.45 58.66 37.16 46.66 37.16 31.17 39.87 21.88 37.16 16.46 37.16 6.78 34.45 6.78"/><path class="cls-1" d="M1430.06,93s.78,85.55,0,86.71-7,27.49-7,27.49L1433.55,227l1.55,7.35-.91-7.35-10.32-19.81,7-28.06L1431,87Z" transform="translate(-1368.52 -76.57)"/><polygon class="cls-1" points="156.77 160.46 169.55 129.49 156.77 93.11 160.65 4.07 161.61 5.62 157.74 93.11 170.81 129.2 157.35 160.46 156.77 160.46"/><path class="cls-3" d="M1422.72,141.62h8.5l8.82,27.69h-7.73l-1.43-5.42h-7.82l-1.43,5.42h-7.76Zm6.82,17.2-2.57-9.75-2.57,9.75Z" transform="translate(-1368.52 -76.57)"/><path class="cls-3" d="M1442.53,169.31V156.75H1440v-5.58h2.53v-.89a10,10,0,0,1,.94-4.49,6.93,6.93,0,0,1,2.65-3,7.62,7.62,0,0,1,4.05-1.06,13.21,13.21,0,0,1,3,.39,23.26,23.26,0,0,1,3.51,1.17l-1.29,5.62a11.62,11.62,0,0,0-1.89-.66,7.41,7.41,0,0,0-1.82-.28,2.3,2.3,0,0,0-.79.12,1.2,1.2,0,0,0-.55.37,1.88,1.88,0,0,0-.33.63,2.81,2.81,0,0,0-.12.87v1.17h4.49v5.58h-4.49v12.56Zm11.31-12.56h-2.53v-5.58h2.53V149a8.76,8.76,0,0,1,.68-3.51,7.7,7.7,0,0,1,1.93-2.67,9,9,0,0,1,3-1.72,11.24,11.24,0,0,1,3.74-.6,13,13,0,0,1,2.95.33,15.1,15.1,0,0,1,2.9,1,28.27,28.27,0,0,1,3.12,1.76l-2.81,5.61a11,11,0,0,0-2.8-1.83,7,7,0,0,0-2.85-.66,3.6,3.6,0,0,0-1.29.21,1.81,1.81,0,0,0-.84.67,2,2,0,0,0-.29,1.11v2.49h11.66v18.14h-7.41V156.75h-4.25v12.56h-7.41Z" transform="translate(-1368.52 -76.57)"/><path class="cls-3" d="M1486.76,169.7a12.64,12.64,0,0,1-4.82-.85,10.09,10.09,0,0,1-3.53-2.32,9.94,9.94,0,0,1-2.18-3.35,10.9,10.9,0,0,1,.56-9.11,9.9,9.9,0,0,1,3.82-3.86,12.12,12.12,0,0,1,6.15-1.46,11.79,11.79,0,0,1,6.24,1.56,10,10,0,0,1,3.78,4l-7.21,2.19a3.47,3.47,0,0,0-1.23-1.13,3.35,3.35,0,0,0-1.62-.39,3.41,3.41,0,0,0-1.84.5,3.64,3.64,0,0,0-1.3,1.44,5.53,5.53,0,0,0,0,4.55,3.5,3.5,0,0,0,1.3,1.46,3.6,3.6,0,0,0,3,.33,3,3,0,0,0,1-.52,3.74,3.74,0,0,0,.77-.82l7.21,2.18a9.46,9.46,0,0,1-2.24,2.89,10.75,10.75,0,0,1-3.36,2A12.57,12.57,0,0,1,1486.76,169.7Z" transform="translate(-1368.52 -76.57)"/><path class="cls-3" d="M1519.75,169.31h-7.41V158a2.91,2.91,0,0,0-.68-2.14,2.32,2.32,0,0,0-1.7-.67,2.79,2.79,0,0,0-1.15.33,4.93,4.93,0,0,0-1.31,1,4.53,4.53,0,0,0-1,1.48v11.31h-7.41V140.84h7.41v11.29a7,7,0,0,1,2.87-2.51,8.78,8.78,0,0,1,3.92-.87,7.26,7.26,0,0,1,3.47.71,4.76,4.76,0,0,1,1.91,1.83,7.62,7.62,0,0,1,.84,2.37,14.66,14.66,0,0,1,.21,2.38Z" transform="translate(-1368.52 -76.57)"/><path class="cls-3" d="M1533.44,169.7a13.13,13.13,0,0,1-4.8-.83,10.31,10.31,0,0,1-3.53-2.24,9.61,9.61,0,0,1-2.16-3.27,10.38,10.38,0,0,1-.74-3.88,11.21,11.21,0,0,1,1.29-5.34,9.72,9.72,0,0,1,3.78-3.91,13.6,13.6,0,0,1,12.32,0,9.68,9.68,0,0,1,3.78,3.84,10.67,10.67,0,0,1,1.29,5.18,11.46,11.46,0,0,1-.06,1.17c0,.4-.08.75-.13,1.06h-14.39a2.93,2.93,0,0,0,.6,1.68,3,3,0,0,0,1.33.95,4.63,4.63,0,0,0,1.65.29,5,5,0,0,0,2.29-.54,2.79,2.79,0,0,0,1.42-1.52l6.28,1.79a9.29,9.29,0,0,1-2.28,2.89,11.15,11.15,0,0,1-3.46,2A13.08,13.08,0,0,1,1533.44,169.7ZM1529.93,157h6.79a3.63,3.63,0,0,0-.57-1.61,3,3,0,0,0-1.17-1,3.89,3.89,0,0,0-3.31,0,2.9,2.9,0,0,0-1.17,1A3.63,3.63,0,0,0,1529.93,157Z" transform="translate(-1368.52 -76.57)"/><path class="cls-3" d="M1561,155.11a15.22,15.22,0,0,0-3.9.47,4.71,4.71,0,0,0-2.61,1.56v12.17h-7.41V149.07h6.79v3.62a8.46,8.46,0,0,1,2.73-3.17,6,6,0,0,1,3.47-1.12h.6a1.66,1.66,0,0,1,.33,0Z" transform="translate(-1368.52 -76.57)"/><path class="cls-3" d="M1585.08,155.11a15.35,15.35,0,0,0-3.91.47,4.71,4.71,0,0,0-2.61,1.56v12.17h-7.41V149.07h6.79v3.62a8.64,8.64,0,0,1,2.73-3.17,6,6,0,0,1,3.47-1.12h.6a1.86,1.86,0,0,1,.34,0Z" transform="translate(-1368.52 -76.57)"/><path class="cls-3" d="M1597.48,169.7a13.05,13.05,0,0,1-4.8-.83,10.31,10.31,0,0,1-3.53-2.24,9.61,9.61,0,0,1-2.16-3.27,10.18,10.18,0,0,1-.74-3.88,11.2,11.2,0,0,1,1.28-5.34,9.86,9.86,0,0,1,3.78-3.91,13.62,13.62,0,0,1,12.33,0,9.82,9.82,0,0,1,3.78,3.84,10.67,10.67,0,0,1,1.29,5.18,11.46,11.46,0,0,1-.06,1.17c0,.4-.08.75-.14,1.06h-14.39a2.93,2.93,0,0,0,.61,1.68,3,3,0,0,0,1.32.95,4.72,4.72,0,0,0,1.66.29,5,5,0,0,0,2.28-.54,2.78,2.78,0,0,0,1.43-1.52l6.28,1.79a9.18,9.18,0,0,1-2.29,2.89,11,11,0,0,1-3.45,2A13.08,13.08,0,0,1,1597.48,169.7ZM1594,157h6.78a3.63,3.63,0,0,0-.56-1.61,3,3,0,0,0-1.17-1,3.91,3.91,0,0,0-3.32,0,3,3,0,0,0-1.17,1A3.51,3.51,0,0,0,1594,157Zm5.85-9.4-4.68-1.24,1.95-5.54h6.59Z" transform="translate(-1368.52 -76.57)"/><path class="cls-3" d="M1624.93,169.7a8.23,8.23,0,0,1-3.86-.86,6,6,0,0,1-2.53-2.52v11.3h-7.41V149.07h6.43v3.1a7.6,7.6,0,0,1,2.71-2.53,8.08,8.08,0,0,1,3.92-.89,9.15,9.15,0,0,1,3.78.77,8.87,8.87,0,0,1,3,2.19,10.11,10.11,0,0,1,2,3.3,11.91,11.91,0,0,1,.7,4.14,12.52,12.52,0,0,1-1.13,5.41,9.53,9.53,0,0,1-3.1,3.76A7.69,7.69,0,0,1,1624.93,169.7Zm-2.57-6.24a3.24,3.24,0,0,0,1.5-.34,3.7,3.7,0,0,0,1.19-.93,4.31,4.31,0,0,0,.78-1.39,5.16,5.16,0,0,0,.27-1.69,4.49,4.49,0,0,0-.29-1.68,3.52,3.52,0,0,0-.84-1.29,3.67,3.67,0,0,0-1.29-.85,4.5,4.5,0,0,0-1.63-.29,4.21,4.21,0,0,0-1,.12,4,4,0,0,0-.91.37,4.64,4.64,0,0,0-.84.6,4.32,4.32,0,0,0-.76.87v3.49a5.29,5.29,0,0,0,1,1.54,4.73,4.73,0,0,0,1.35,1.08A3.21,3.21,0,0,0,1622.36,163.46Z" transform="translate(-1368.52 -76.57)"/><path class="cls-3" d="M1646.46,169.7a12.82,12.82,0,0,1-4.84-.85,9.81,9.81,0,0,1-5.67-5.67,11.25,11.25,0,0,1,0-7.92,9.74,9.74,0,0,1,2.14-3.36,10.15,10.15,0,0,1,3.53-2.3,14.26,14.26,0,0,1,9.7,0,10.15,10.15,0,0,1,3.51,2.3,9.74,9.74,0,0,1,2.14,3.36,11.25,11.25,0,0,1,0,7.92,9.85,9.85,0,0,1-5.65,5.67A12.78,12.78,0,0,1,1646.46,169.7Zm-3.63-10.47a5.09,5.09,0,0,0,.47,2.26,3.36,3.36,0,0,0,1.29,1.46,3.68,3.68,0,0,0,3.74,0,3.36,3.36,0,0,0,1.29-1.46,5.69,5.69,0,0,0,0-4.53,3.49,3.49,0,0,0-6.32,0A5.14,5.14,0,0,0,1642.83,159.23Z" transform="translate(-1368.52 -76.57)"/><path class="cls-3" d="M1680.94,169.31h-7.41V158a2.87,2.87,0,0,0-.69-2.14,2.16,2.16,0,0,0-1.58-.67,3,3,0,0,0-1.32.35,4.42,4.42,0,0,0-1.29,1,5,5,0,0,0-.93,1.44v11.31h-7.41V149.07H1667v3.06a6.66,6.66,0,0,1,1.88-1.86,8.35,8.35,0,0,1,2.61-1.13,12.73,12.73,0,0,1,3.24-.39,6.68,6.68,0,0,1,3.35.73,4.89,4.89,0,0,1,1.87,1.88,7.35,7.35,0,0,1,.82,2.4,14.88,14.88,0,0,1,.2,2.28Z" transform="translate(-1368.52 -76.57)"/><path class="cls-3" d="M1692.75,169.7a16.25,16.25,0,0,1-5.28-.88,12,12,0,0,1-4.39-2.55l2.54-4.57a19.7,19.7,0,0,0,3.68,2,8.81,8.81,0,0,0,3.22.7,3,3,0,0,0,1.21-.18.66.66,0,0,0,.39-.64.71.71,0,0,0-.27-.57,3.33,3.33,0,0,0-.88-.46c-.41-.15-.92-.32-1.54-.5-1.62-.56-3-1.08-4-1.57a6.11,6.11,0,0,1-2.42-1.78,4.55,4.55,0,0,1-.8-2.81,6.42,6.42,0,0,1,1.06-3.66,7.19,7.19,0,0,1,3-2.51,11.16,11.16,0,0,1,4.74-.92,14,14,0,0,1,4.15.65,11.35,11.35,0,0,1,4,2.32l-2.81,4.52a20.3,20.3,0,0,0-3.3-1.71,6.81,6.81,0,0,0-2.39-.51,3.2,3.2,0,0,0-.88.11,1.16,1.16,0,0,0-.57.35.89.89,0,0,0-.19.61.8.8,0,0,0,.27.62,2.51,2.51,0,0,0,.86.46c.39.14.88.3,1.48.48a29.5,29.5,0,0,1,4.33,1.54,6.2,6.2,0,0,1,2.48,1.88,4.84,4.84,0,0,1,.79,2.89,5.91,5.91,0,0,1-2.28,4.95A9.83,9.83,0,0,1,1692.75,169.7Z" transform="translate(-1368.52 -76.57)"/><path class="cls-3" d="M1714.16,169.7a13,13,0,0,1-4.79-.83,10.22,10.22,0,0,1-3.53-2.24,9.79,9.79,0,0,1-2.17-3.27,10.38,10.38,0,0,1-.74-3.88,11.21,11.21,0,0,1,1.29-5.34,9.86,9.86,0,0,1,3.78-3.91,13.62,13.62,0,0,1,12.33,0,9.82,9.82,0,0,1,3.78,3.84,10.67,10.67,0,0,1,1.29,5.18,11.46,11.46,0,0,1-.06,1.17c0,.4-.09.75-.14,1.06h-14.39a2.86,2.86,0,0,0,.61,1.68,3,3,0,0,0,1.32.95,4.68,4.68,0,0,0,1.66.29,5,5,0,0,0,2.28-.54,2.76,2.76,0,0,0,1.42-1.52l6.28,1.79a9,9,0,0,1-2.28,2.89,11,11,0,0,1-3.45,2A13.14,13.14,0,0,1,1714.16,169.7ZM1710.65,157h6.79a3.75,3.75,0,0,0-.56-1.61,3,3,0,0,0-1.17-1,3.59,3.59,0,0,0-1.66-.37,3.53,3.53,0,0,0-1.66.37,3,3,0,0,0-1.17,1A3.63,3.63,0,0,0,1710.65,157Z" transform="translate(-1368.52 -76.57)"/><polygon class="cls-1" points="357.68 10.4 365.03 32.72 381.29 58.66 399.87 58.66 420 73.36 401.81 55.56 383.61 55.17 368.13 32.72 362.32 10.4 357.68 10.4"/><polygon class="cls-1" points="308.13 164.33 309.68 146.91 324.39 126.01 321.68 112.85 328.26 127.17 313.55 146.91 313.55 164.33 308.13 164.33"/><polygon class="cls-1" points="408.77 164.33 441.29 104.72 445.16 50.91 445.94 50.91 442.11 104.96 409.55 164.33 408.77 164.33"/><g id="Calque_2-2" data-name="Calque 2-2"><polygon class="cls-3" points="412.66 142.02 413.7 131.02 393.61 140.2 412.66 142.02"/><polygon class="cls-3" points="415.4 116.22 416.62 90.9 398.93 89.1 395.26 125.27 415.4 116.22"/><polygon class="cls-3" points="446.34 61.13 430.9 26.77 393.25 26.13 371.21 56.68 386.71 58.25 399.63 40.34 421.79 39.41 430.84 59.55 417.92 77.47 392.55 74.89 398.93 89.1 424.3 91.68 446.34 61.13"/><polygon class="cls-4" points="376.29 57.19 395.55 31.3 427.43 31.69 440.61 60.05 424.34 85.43 408.45 84.14 407.5 91.69 405.94 120.47 395.26 125.27 398.93 89.1 392.55 74.89 417.92 77.47 430.84 59.55 421.79 39.41 399.63 40.34 386.71 58.25 376.29 57.19"/><polygon class="cls-4" points="393.61 140.2 405.94 134.57 404.94 141.28 393.61 140.2"/></g></svg>