<svg id="Calque_1" data-name="Calque 1" xmlns="http://www.w3.org/2000/svg" viewBox="0 0 642.21 1013"><defs><style>.cls-1{fill:#ffe600;}.cls-2{fill:#fff800;}.cls-3{fill:#efdd00;}.cls-4{fill:#edd000;}</style></defs><title>bouton pause</title><polygon class="cls-1" points="189.03 1013 0 1013 0 38.77 7.27 41.2 15.83 25.44 22.07 20.19 46.05 0 189.03 38.77 189.03 981.5 189.03 1013"/><polygon class="cls-2" points="235.07 981.5 46.05 981.5 46.05 617.35 58.16 598.59 46.05 591.09 46.05 38.77 46.05 0 179.34 0 208.42 12.12 221.39 0 235.07 0 235.07 133.29 235.07 167.22 235.07 230.23 235.07 269.63 205.99 295.66 235.07 315.05 235.07 981.5"/><polygon class="cls-3" points="0 1013 46.05 981.5 235.07 981.5 189.03 1013 0 1013"/><polygon class="cls-4" points="46.05 11 0 49.78 0 61.74 46.05 24.53 46.05 11"/><polygon class="cls-4" points="46.05 36.92 0 75.69 0 87.65 46.05 50.44 46.05 36.92"/><polygon class="cls-4" points="46.05 61.9 0 100.67 0 112.63 46.05 75.42 46.05 61.9"/><polygon class="cls-4" points="46.05 87.81 0 126.59 0 138.55 46.05 101.33 46.05 87.81"/><polygon class="cls-4" points="46.05 112.79 0 151.56 0 163.52 46.05 126.31 46.05 112.79"/><polygon class="cls-4" points="46.05 138.7 0 177.48 0 189.44 46.05 152.23 46.05 138.7"/><polygon class="cls-4" points="46.05 163.68 0 202.46 0 214.42 46.05 177.21 46.05 163.68"/><polygon class="cls-4" points="46.05 189.59 0 228.37 0 240.33 46.05 203.12 46.05 189.59"/><polygon class="cls-4" points="46.05 214.57 0 253.35 0 265.31 46.05 228.1 46.05 214.57"/><polygon class="cls-4" points="46.05 240.49 0 279.26 0 291.22 46.05 254.01 46.05 240.49"/><polygon class="cls-4" points="46.05 265.46 0 304.24 0 316.2 46.05 278.99 46.05 265.46"/><polygon class="cls-4" points="46.05 291.38 0 330.15 0 342.12 46.05 304.9 46.05 291.38"/><polygon class="cls-4" points="46.05 316.36 0 355.13 0 367.09 46.05 329.88 46.05 316.36"/><polygon class="cls-4" points="46.05 342.27 0 381.05 0 393.01 46.05 355.8 46.05 342.27"/><polygon class="cls-4" points="46.05 367.25 0 406.02 0 417.99 46.05 380.77 46.05 367.25"/><polygon class="cls-4" points="46.05 393.17 0 431.94 0 443.9 46.05 406.69 46.05 393.17"/><polygon class="cls-4" points="46.05 418.14 0 456.92 0 468.88 46.05 431.67 46.05 418.14"/><polygon class="cls-4" points="46.05 444.06 0 482.83 0 494.79 46.05 457.58 46.05 444.06"/><polygon class="cls-4" points="46.05 469.03 0 507.81 0 519.77 46.05 482.56 46.05 469.03"/><polygon class="cls-4" points="46.05 494.95 0 533.73 0 545.69 46.05 508.47 46.05 494.95"/><polygon class="cls-4" points="46.05 519.93 0 558.7 0 570.66 46.05 533.45 46.05 519.93"/><polygon class="cls-4" points="46.05 545.84 0 584.62 0 596.58 46.05 559.37 46.05 545.84"/><polygon class="cls-4" points="46.05 570.82 0 609.59 0 621.55 46.05 584.34 46.05 570.82"/><polygon class="cls-4" points="46.05 596.73 0 635.51 0 647.47 46.05 610.26 46.05 596.73"/><polygon class="cls-4" points="46.05 621.71 0 660.49 0 672.45 46.05 635.24 46.05 621.71"/><polygon class="cls-4" points="46.05 647.63 0 686.4 0 698.36 46.05 661.15 46.05 647.63"/><polygon class="cls-4" points="46.05 672.6 0 711.38 0 723.34 46.05 686.13 46.05 672.6"/><polygon class="cls-4" points="46.05 698.52 0 737.29 0 749.25 46.05 712.04 46.05 698.52"/><polygon class="cls-4" points="46.05 723.5 0 762.27 0 774.23 46.05 737.02 46.05 723.5"/><polygon class="cls-4" points="46.05 749.41 0 788.19 0 800.15 46.05 762.94 46.05 749.41"/><polygon class="cls-4" points="46.05 774.39 0 813.16 0 825.12 46.05 787.91 46.05 774.39"/><polygon class="cls-4" points="46.05 801.05 0 839.82 0 851.78 46.05 814.57 46.05 801.05"/><polygon class="cls-4" points="46.05 826.96 0 865.74 0 877.7 46.05 840.49 46.05 826.96"/><polygon class="cls-4" points="46.05 851.94 0 890.71 0 902.67 46.05 865.46 46.05 851.94"/><polygon class="cls-4" points="46.05 877.85 0 916.63 0 928.59 46.05 891.38 46.05 877.85"/><polygon class="cls-4" points="46.05 902.83 0 941.61 0 953.57 46.05 916.36 46.05 902.83"/><polygon class="cls-4" points="46.05 928.75 0 967.52 0 979.48 46.05 942.27 46.05 928.75"/><polygon class="cls-4" points="46.05 952.98 0 991.76 0 1003.72 46.05 966.5 46.05 952.98"/><polygon class="cls-1" points="596.17 1013 407.14 1013 407.14 351.4 414.41 334.44 407.14 325.91 407.14 38.77 453.18 0 596.17 38.77 596.17 981.5 596.17 1013"/><polygon class="cls-2" points="642.21 981.5 453.18 981.5 453.18 727.78 460.45 717.34 453.18 697.97 453.18 38.77 453.18 0 506.58 0 525.89 12.12 541.6 0 642.21 0 642.21 639.87 630.1 647.06 642.21 662.38 642.21 981.5"/><polygon class="cls-3" points="407.14 1013 453.18 981.5 501.65 981.5 511.35 971.8 524.68 981.5 642.21 981.5 596.17 1013 407.14 1013"/><polygon class="cls-4" points="453.18 15.28 407.14 54.06 407.14 66.02 453.18 28.81 453.18 15.28"/><polygon class="cls-4" points="453.18 41.2 407.14 79.97 407.14 91.94 453.18 54.72 453.18 41.2"/><polygon class="cls-4" points="453.18 66.18 407.14 104.95 407.14 116.91 453.18 79.7 453.18 66.18"/><polygon class="cls-4" points="453.18 92.09 407.14 130.87 407.14 142.83 453.18 105.61 453.18 92.09"/><polygon class="cls-4" points="453.18 117.07 407.14 155.84 407.14 167.8 453.18 130.59 453.18 117.07"/><polygon class="cls-4" points="453.18 142.98 407.14 181.76 407.14 193.72 453.18 156.51 453.18 142.98"/><polygon class="cls-4" points="453.18 167.96 407.14 206.74 407.14 218.7 453.18 181.49 453.18 167.96"/><polygon class="cls-4" points="453.18 193.88 407.14 232.65 407.14 244.61 453.18 207.4 453.18 193.88"/><polygon class="cls-4" points="453.18 218.85 407.14 257.63 407.14 269.59 453.18 232.38 453.18 218.85"/><polygon class="cls-4" points="453.18 244.77 407.14 283.54 407.14 295.5 453.18 258.29 453.18 244.77"/><polygon class="cls-4" points="453.18 269.75 407.14 308.52 407.14 320.48 453.18 283.27 453.18 269.75"/><polygon class="cls-4" points="453.18 295.66 409.56 329.59 414.41 334.44 409.56 344.13 453.18 309.19 453.18 295.66"/><polygon class="cls-4" points="453.18 320.64 407.14 359.41 407.14 371.37 453.18 334.16 453.18 320.64"/><polygon class="cls-4" points="453.18 346.55 407.14 385.33 407.14 397.29 453.18 360.08 453.18 346.55"/><polygon class="cls-4" points="453.18 371.53 407.14 410.31 407.14 422.27 453.18 385.05 453.18 371.53"/><polygon class="cls-4" points="453.18 397.44 407.14 436.22 407.14 448.18 453.18 410.97 453.18 397.44"/><polygon class="cls-4" points="453.18 422.42 407.14 461.2 407.14 473.16 453.18 435.95 453.18 422.42"/><polygon class="cls-4" points="453.18 448.34 407.14 487.11 407.14 499.07 453.18 461.86 453.18 448.34"/><polygon class="cls-4" points="453.18 473.31 407.14 512.09 407.14 524.05 453.18 486.84 453.18 473.31"/><polygon class="cls-4" points="453.18 499.23 407.14 538 407.14 549.97 453.18 512.75 453.18 499.23"/><polygon class="cls-4" points="453.18 524.21 407.14 562.98 407.14 574.94 453.18 537.73 453.18 524.21"/><polygon class="cls-4" points="453.18 550.12 407.14 588.9 407.14 600.86 453.18 563.65 453.18 550.12"/><polygon class="cls-4" points="453.18 575.1 407.14 613.87 407.14 625.84 453.18 588.62 453.18 575.1"/><polygon class="cls-4" points="453.18 601.01 407.14 639.79 407.14 651.75 453.18 614.54 453.18 601.01"/><polygon class="cls-4" points="453.18 625.99 407.14 664.77 407.14 676.73 453.18 639.52 453.18 625.99"/><polygon class="cls-4" points="453.18 651.91 407.14 690.68 407.14 702.64 453.18 665.43 453.18 651.91"/><polygon class="cls-4" points="453.18 676.88 407.14 715.66 407.14 727.62 453.18 690.41 453.18 676.88"/><polygon class="cls-4" points="453.18 702.8 407.14 741.57 407.14 753.53 458.03 712.49 453.18 702.8"/><polygon class="cls-4" points="453.18 727.78 407.14 766.55 407.14 778.51 453.18 741.3 453.18 727.78"/><polygon class="cls-4" points="453.18 753.69 407.14 792.47 407.14 804.43 453.18 767.22 453.18 753.69"/><polygon class="cls-4" points="453.18 778.67 407.14 817.44 407.14 829.4 453.18 792.19 453.18 778.67"/><polygon class="cls-4" points="453.18 805.33 407.14 844.1 407.14 856.06 453.18 818.85 453.18 805.33"/><polygon class="cls-4" points="453.18 831.24 407.14 870.02 407.14 881.98 453.18 844.77 453.18 831.24"/><polygon class="cls-4" points="453.18 856.22 407.14 894.99 407.14 906.96 453.18 869.74 453.18 856.22"/><polygon class="cls-4" points="453.18 882.13 407.14 920.91 407.14 932.87 453.18 895.66 453.18 882.13"/><polygon class="cls-4" points="453.18 907.11 407.14 945.89 407.14 957.85 453.18 920.63 453.18 907.11"/><polygon class="cls-4" points="453.18 933.03 407.14 971.8 407.14 983.76 453.18 946.55 453.18 933.03"/><polygon class="cls-4" points="453.18 957.26 407.14 996.04 407.14 1008 453.18 970.78 453.18 957.26"/></svg>