<svg id="anotation" xmlns="http://www.w3.org/2000/svg" viewBox="0 0 573.99 236.25"><title>clic sur ma tete</title><path d="M2074.2,745.15l-7.5,3.12,7.5,3.63v16.25L2057.45,760V735.77l16.75-6.87Zm20.75,0-7.5,3.12,7.5,3.63v16.25L2078.2,760V735.77L2095,728.9Z" transform="translate(-2057.45 -703.65)"/><path d="M2138,789a13.82,13.82,0,0,1-3-2.31,14.71,14.71,0,0,1-2.32-3,6.1,6.1,0,0,1-.93-3V712.9a6.1,6.1,0,0,1,.93-3,14.71,14.71,0,0,1,2.32-3,13.82,13.82,0,0,1,3-2.31,6,6,0,0,1,3-.94h33.37a5,5,0,0,1,2.69.94,14.05,14.05,0,0,1,2.69,2.31,12,12,0,0,1,2,3,7,7,0,0,1,.75,2.87V734.4h-18.88v-8.88H2150.7V768h12.87v-8.75h18.88v21.5a6.81,6.81,0,0,1-.75,2.94,12.44,12.44,0,0,1-2,2.94A14.05,14.05,0,0,1,2177,789a5,5,0,0,1-2.69.94H2141A6,6,0,0,1,2138,789Z" transform="translate(-2057.45 -703.65)"/><path d="M2188.94,789.9V703.65h19V768h29.13V789.9Z" transform="translate(-2057.45 -703.65)"/><path d="M2243.57,789.9V703.65h19.12V789.9Z" transform="translate(-2057.45 -703.65)"/><path d="M2300.07,799.65h-22.88l5.5-9.75h-5.75a4.82,4.82,0,0,1-2.75-.94,11.56,11.56,0,0,1-2.5-2.31,12.88,12.88,0,0,1-1.81-2.94,7.29,7.29,0,0,1-.69-2.94v-68a7,7,0,0,1,.75-2.87,13.4,13.4,0,0,1,4.5-5.31,4.82,4.82,0,0,1,2.75-.94h33.5a6,6,0,0,1,3,.94,14.69,14.69,0,0,1,5.31,5.31,6,6,0,0,1,.94,3v67.75a6,6,0,0,1-.94,3,14.69,14.69,0,0,1-5.31,5.31,6,6,0,0,1-3,.94h-5.37Zm1.12-31.63v-42.5h-13.12V768Z" transform="translate(-2057.45 -703.65)"/><path d="M2332.69,789a14.69,14.69,0,0,1-5.31-5.31,6,6,0,0,1-.94-3v-77h18.75V768h13.13V703.65h18.87v77.12a6.81,6.81,0,0,1-.75,2.94,12.44,12.44,0,0,1-2,2.94,13.47,13.47,0,0,1-2.69,2.31,4.94,4.94,0,0,1-2.68.94h-33.38A6,6,0,0,1,2332.69,789Z" transform="translate(-2057.45 -703.65)"/><path d="M2431.94,703.65v21.87h-29.25v12h20.13v18.63h-20.13V768h29.25V789.9h-48.25V703.65Z" transform="translate(-2057.45 -703.65)"/><path d="M2468.69,768h29.5V756.15h-20.63a6.61,6.61,0,0,1-3.37-.94,9.64,9.64,0,0,1-2.81-2.44,13.17,13.17,0,0,1-1.94-3.37,10,10,0,0,1-.75-3.75V717.77a25,25,0,0,1,.56-5.31,15.41,15.41,0,0,1,1.75-4.56,8.62,8.62,0,0,1,3.13-3.13,9.16,9.16,0,0,1,4.68-1.12h38.13v21.87h-29.5v12h19.37a6.33,6.33,0,0,1,2.88,1,17.52,17.52,0,0,1,3.37,2.57,14.73,14.73,0,0,1,2.75,3.62,8.68,8.68,0,0,1,1.13,4.19v27.37a25.49,25.49,0,0,1-.5,5.07,16,16,0,0,1-1.56,4.37,8.59,8.59,0,0,1-2.75,3.06,7.18,7.18,0,0,1-4.07,1.13h-39.37Z" transform="translate(-2057.45 -703.65)"/><path d="M2529.69,789a13.82,13.82,0,0,1-3-2.31,14.31,14.31,0,0,1-2.31-3,6,6,0,0,1-.94-3v-77h18.75V768h13.12V703.65h18.88v77.12a6.81,6.81,0,0,1-.75,2.94,12.44,12.44,0,0,1-2,2.94,13.76,13.76,0,0,1-2.69,2.31,5,5,0,0,1-2.69.94h-33.37A6,6,0,0,1,2529.69,789Z" transform="translate(-2057.45 -703.65)"/><path d="M2612.56,789.9V756h-12.87V789.9h-19V703.65h42.62a5,5,0,0,1,2.69.94,13.76,13.76,0,0,1,2.69,2.31,12,12,0,0,1,2,3,7,7,0,0,1,.75,2.87v24.75a8.43,8.43,0,0,1-.69,3.19,14.24,14.24,0,0,1-1.63,3,10.94,10.94,0,0,1-2,2.19,3.09,3.09,0,0,1-1.81.87,11.79,11.79,0,0,1,4.06,3.32,8,8,0,0,1,2.07,5.31v34.5Zm-12.87-64.38v12h12.87v-12Z" transform="translate(-2057.45 -703.65)"/><path d="M2120.07,853.65h17.25l14.63,15,14.37-15h17V939.9h-18.75V885.65L2151.82,897l-12.75-11.25V939.9h-19Z" transform="translate(-2057.45 -703.65)"/><path d="M2189.82,939.9v-77a6,6,0,0,1,.94-3,14.69,14.69,0,0,1,5.31-5.31,6,6,0,0,1,3-.94h33.38a4.94,4.94,0,0,1,2.68.94,13.47,13.47,0,0,1,2.69,2.31,12,12,0,0,1,2,3,7,7,0,0,1,.75,2.87V939.9h-18.5V906h-13.25V939.9Zm19-64.38v12h12.63v-12Z" transform="translate(-2057.45 -703.65)"/><path d="M2327.94,875.52h-15.87V939.9h-18.88V875.52h-15.87V853.65h50.62Z" transform="translate(-2057.45 -703.65)"/><path d="M2382.69,853.65v21.87h-29.25v12h20.13v18.63h-20.13V918h29.25V939.9h-48.25V853.65Z" transform="translate(-2057.45 -703.65)"/><path d="M2439.81,875.52h-15.87V939.9h-18.88V875.52h-15.87V853.65h50.62Z" transform="translate(-2057.45 -703.65)"/><path d="M2494.56,853.65v21.87h-29.25v12h20.13v18.63h-20.13V918h29.25V939.9h-48.25V853.65Z" transform="translate(-2057.45 -703.65)"/><path d="M2531.31,878.9l16.75,6.87V910l-16.75,8.13V901.9l7.5-3.63-7.5-3.12Zm20.75,0,16.75,6.87V910l-16.75,8.13V901.9l7.5-3.63-7.5-3.12Z" transform="translate(-2057.45 -703.65)"/></svg>