<svg xmlns="http://www.w3.org/2000/svg" viewBox="0 0 1046.71 921.81"><defs><style>.cls-1{fill:#ffd222;}.cls-2{fill:#0f0071;}.cls-3{fill:#0823d3;}.cls-4{fill:#4040d4;}.cls-5{fill:#413fd4;}.cls-6{fill:#4340d7;}.cls-7{fill:#fff;}.cls-8{fill:#0a22d3;}</style></defs><title>Entrée, intro du jeu</title><g id="Calque_4" data-name="Calque 4"><polygon class="cls-1" points="481.55 0 708.13 0 550.19 286.45 715.36 257.55 542.71 557.55 715.36 523.48 504.39 921.81 568.26 629.16 416.13 645.42 524.39 385.29 372 497.75 481.55 0"/></g><g id="Calque_2" data-name="Calque 2"><polygon class="cls-2" points="64.26 356.26 349.16 259.1 358.06 261.81 366.19 252.13 483.1 211.1 469.16 261.03 529.55 286.97 514.45 360.13 553.93 404.26 486.58 481.68 322.45 542.45 315.87 537.81 305.81 546.71 68.52 630.71 61.16 610.19 63.1 595.87 52.65 590.45 0 440.26 64.26 356.26"/><polygon class="cls-3" points="0 440.26 417.29 293.94 403.36 342.32 425.42 354.71 427.36 360.9 434.32 357.42 465.68 370.58 450.97 440.64 486.19 481.68 323.61 540.9 315.1 538.97 306.97 546.32 68.52 630.71 59.61 612.13 62.71 596.64 53.03 590.07 0 440.26"/><polygon class="cls-4" points="483.1 211.1 366.19 252.13 358.06 261.81 349.16 259.1 64.26 356.26 0 440.26 417.29 293.94 483.1 211.1"/><polygon class="cls-5" points="469.16 261.03 529.55 286.97 465.68 370.58 434.32 357.42 427.36 360.9 425.42 354.71 403.36 342.32 469.16 261.03"/><polygon class="cls-6" points="514.45 360.13 553.93 404.26 486.58 481.68 450.97 440.64 514.45 360.13"/><path class="cls-7" d="M672.26,472.39l-39.49,13.42.07,140.35-43.45-37.45s28.93-46.26-24.49-70.65c0,0-15.87-2.32-29,3.1l-51,17.29,43.87,124.9,37.17-11.87-14.71-41,4.12-1.55L591,641.16l80.26-27.61V589l37.16-13.42,14.71,18.84,37.42-13.68Zm-112,97.8c-2.84,8.26-19.61,11.62-19.61,11.62l-8.52-25.29,12.45-5.5s5.61-.87,11.76,4.74S560.26,570.19,560.26,570.19Zm108.39-10.58s-2.33-41.29-2.33-42.32l25.55,34.84Z" transform="translate(-435.61 -75.48)"/><path class="cls-7" d="M835.1,457.29c-14.2-32.77-48.52-23.61-48.52-23.61L728.39,453,772,576.39l35-12.91-13.29-40.13c24.51-8.77,33.29-16.77,33.29-16.77S849.29,490.06,835.1,457.29Zm-37.55,33.87-13.45,5.42-9-26.71,9-3.68s16.16-5.42,19.25,8.52S797.55,491.16,797.55,491.16Z" transform="translate(-435.61 -75.48)"/></g><g id="Calque_3" data-name="Calque 3"><polygon class="cls-8" points="645.29 329.55 730.45 334.19 744 341.55 765.29 337.68 1046.71 355.48 1034.32 555.87 941.93 606.45 915.1 606.45 906.19 597.03 889.93 603.61 540.39 579.61 521.03 528.52 565.93 468 518.32 421.1 553.93 380.26 645.29 329.55"/><polygon class="cls-4" points="1046.71 355.48 765.29 337.68 744 341.55 730.45 334.19 645.29 329.55 553.93 380.26 582.58 380.26 589.93 391.48 604.64 382.19 954.19 405.42 1006.07 377.94 999.48 372.52 1021.16 370.58 1046.71 355.48"/><polygon class="cls-2" points="941.93 606.45 954.19 405.42 1006.07 377.94 999.48 372.52 1021.16 370.58 1046.71 355.48 1034.32 555.87 941.93 606.45"/><path class="cls-7" d="M1062.19,492.52l37.42,2.58-4.9,91.87s1.81,25.8-23,34.32c0,0-8.51,3.1-15,3.36h-27.25v-35l21.38.09s5.71-.38,6.78-6S1062.19,492.52,1062.19,492.52Z" transform="translate(-435.61 -75.48)"/><polygon class="cls-7" points="772.26 426.71 690.58 422.26 682.45 553.1 765.87 557.55 767.61 527.93 721.93 524.64 721.93 504.32 765.87 505.48 767.03 476.26 724.84 474.32 725.61 455.55 769.93 456.9 772.26 426.71"/><path class="cls-7" d="M1229.74,504.32l37,2.52L1262.45,591s.2,15.87,17.42,15.29S1299,592.39,1299,592.39l5.42-82.84,36.39,1.93L1336,597.81s-6.58,43.16-52.84,44.32-56.32-36.78-56.32-36.78-1.74-8.25-1.74-11S1229.74,504.32,1229.74,504.32Z" transform="translate(-435.61 -75.48)"/></g></svg>