<?xml version="1.0" encoding="utf-8"?>
<!-- Generator: Adobe Illustrator 24.0.0, SVG Export Plug-In . SVG Version: 6.00 Build 0)  -->
<svg version="1.1" xmlns="http://www.w3.org/2000/svg" xmlns:xlink="http://www.w3.org/1999/xlink" x="0px" y="0px"
	 viewBox="0 0 652.8 652.8" style="enable-background:new 0 0 652.8 652.8;" xml:space="preserve">
<style type="text/css">
	.st0{fill:#85FF78;}
	.st1{fill:#46723D;}
	.st2{opacity:0.79;fill:#7CE26D;enable-background:new    ;}
	.st3{fill:#6AA05D;}
	.st4{fill:#5CA04D;}
	.st5{fill:#6AC45B;}
	.st6{opacity:0.29;fill:#46723D;enable-background:new    ;}
	.st7{fill:#8DCE7C;}
	.st8{fill:#7CDD6B;}
	.st9{fill:#9ADB8F;}
	.st10{fill:#C8E2C3;}
	.st11{fill:#AED3A3;}
	.st12{fill:#86E576;}
	.st13{fill:#81DB6E;}
	.st14{opacity:0.56;fill:url(#SVGID_1_);enable-background:new    ;}
	.st15{opacity:0.66;fill:#86E874;enable-background:new    ;}
	.st16{enable-background:new    ;}
	.st17{fill:#73D35F;}
</style>
<g id="Calque_25">
	<rect class="st0" width="652.8" height="652.8"/>
</g>
<g id="Calque_24">
	<polygon class="st1" points="273.8,598 0,652.8 312.86,652.8 361,598 	"/>
</g>
<g id="Calque_23">
	<path class="st2" d="M265.7,286.3l2.5,304.7c0,0-0.6,5.3,5.6,7s87.2,0,87.2,0s7-3,7.6-7.7s4.9-304.1,4.9-304.1s0.6-0.8-5.8-2.4
		s-98.2-0.8-98.2-0.8S267.7,283.1,265.7,286.3z"/>
</g>
<g id="Calque_22">
	<polygon class="st3" points="350.8,256.4 352.5,257.7 355.4,255.5 356.8,257.7 359.7,255.5 361.8,257.7 363.5,255.5 365.5,257.7 
		367.8,255.5 369.3,257.7 372,256.4 374.9,259.4 374,261.8 376.1,263.2 374.1,265.3 375.5,267.5 373.5,269.4 363.4,269.8 
		363.4,282.9 349.1,280.7 349.1,275.2 346.5,273.8 345.1,275.2 343.2,273.6 343.1,264.1 	"/>
</g>
<g id="Calque_21">
	<polygon class="st4" points="320.2,226.4 319.4,225 321.7,225.3 321.9,222.9 324,224.4 324.9,221.9 326.1,223.7 328.6,221.9 
		328.6,223.7 332.1,221.9 331.9,223.7 335.6,221.9 335.6,224.9 339,223.7 338.1,225.7 342.1,225.8 340,227.9 344.3,227.9 
		342.5,230.3 345.8,230.3 344.3,232.2 348.2,232.2 345.6,234.7 348.8,236 346.3,237.1 349.6,238.9 346.9,240.3 350,242 346.9,243.5 
		349.5,245.5 346.8,246.2 348.1,248.2 344.9,247.8 346.7,250.7 343.7,249.9 344.3,251.9 342.3,251.8 318.5,227.6 	"/>
</g>
<g id="Calque_20">
	<path class="st5" d="M264.6,242.5l1,30l0.4,10.3h76.5v-18.5l-0.1-29c0,0-2.4-7.1-11.8-8.4S264.6,242.5,264.6,242.5z"/>
</g>
<g id="Calque_19">
	<polygon class="st6" points="271.1,283 283.8,294.3 331.2,294.3 335.1,282.9 	"/>
</g>
<g id="Calque_18">
	<polygon class="st7" points="264.8,242.5 281.8,237.6 283.3,282.9 266.1,282.9 	"/>
</g>
<g id="Calque_17">
	<path class="st8" d="M283.3,282.9c0,0,8.6,221.8,1.4,316l-10.9-0.8c0,0-4.3-0.4-5.6-5.7s-2.5-306-2.5-306s0.1-3.8,3.8-3.2
		L283.3,282.9z"/>
</g>
<g id="Calque_16">
	<polygon class="st9" points="317.8,260.2 320.7,258.4 334.3,258.4 336.7,260.4 337.1,271.3 317.8,271.4 	"/>
</g>
<g id="Calque_15">
	<polygon class="st5" points="320,264.4 335.2,264.4 335.2,262.4 333.6,261.1 321.6,261.1 320,262.3 	"/>
</g>
<g id="Calque_14">
	<polygon class="st10" points="320,264.4 320,269.2 321.5,269.8 333.8,269.8 335.2,269.2 335.2,264.4 	"/>
</g>
<g id="Calque_13">
	<path class="st4" d="M260.9,274.8c0,0,6.8-1.8,7.2-1.7s0.6,8.6,0.6,8.6h-7.8l1.5-1.9l-1.9-0.7l1.8-1.6l-2.4-1.2L260.9,274.8z"/>
</g>
<g id="Calque_12">
	<polygon class="st4" points="343.1,264.1 350.8,256.4 352.5,257.7 355.4,255.5 356.8,257.7 356.8,281.9 349.1,280.7 349.1,275.2 
		346.5,273.8 345.1,275.2 343.2,273.6 	"/>
</g>
<g id="Calque_11">
	<path class="st11" d="M266.2,281.9l75.6-0.4v-45c0,0-1.8-7.7-12.3-8.9c0,0-7.5,0.2-64.9,15.8l0.2-0.9c0,0,47.5-13.4,57.2-14.8
		l6.7-0.8c0,0,9.9-0.6,13.8,8.5l0.1,47.5h-76.5L266.2,281.9z"/>
</g>
<g id="Calque_10">
	<path class="st12" d="M276.9,232.6c0,0-12.2-7.7-16.4-42.8c0,0-1.2-12.2,12.3-33.9c-0.3,7,1.2,13.9,4.2,20.2
		c5.1,10.7-0.9-31.1,0-37.8l11.1,21.5c0,0,14.1,20.2,3.8,68.2"/>
</g>
<g id="Calque_9">
	<path class="st13" d="M285.8,229.7l-6.8-52l-0.9-36.6l9.6,18.6c0,0,14.6,22.9,4,67.2C291.7,226.9,293.2,228.2,285.8,229.7z"/>
</g>
<g id="Calque_8">
	
		<linearGradient id="SVGID_1_" gradientUnits="userSpaceOnUse" x1="1402.1147" y1="2299.3601" x2="1437.2073" y2="2299.3601" gradientTransform="matrix(1 0 0 1 -1142 -2114.01)">
		<stop  offset="0" style="stop-color:#85FF78"/>
		<stop  offset="1" style="stop-color:#85FF78"/>
	</linearGradient>
	<path class="st14" d="M291.4,227.9c10.3-48-3.8-68.2-3.8-68.2l-11.1-21.5c-1,6.7,5.1,48.5,0,37.8c-3-6.3-4.5-13.2-4.2-20.2
		c-13.4,21.8-12.2,33.9-12.2,33.9c4.3,35.1,16.4,42.8,16.4,42.8"/>
</g>
<g id="Calque_7">
	<path class="st9" d="M282.3,229.8c0,0-9.3-12.2-7.5-31.4c0,0,1.3-8,2.8-11.2c0,0,9.1,9.3,9.7,41.9l-4.5,1.2L282.3,229.8z"/>
</g>
<g id="Calque_6">
	<path class="st8" d="M347.2,285l5.9,7.7l1.6,294.9l-0.7,10.6l7-0.2c0,0,6.6-1.7,7.6-7.7l4.9-304.1c0,0,0.1-1-5.8-2.4l-22.4-0.8
		L347.2,285z"/>
</g>
<g id="Calque_5">
	<path class="st15" d="M369.1,568.1c0,0-6.2,17.6-14.3,19.5s-69.3,0-69.3,0s-16.9-1.3-17.7-19.9l0.4,24.7c0,0,0.6,5.4,5.6,5.7
		s87.2,0,87.2,0s7.4-2.3,7.6-7.7L369.1,568.1z"/>
</g>
<g id="Calque_4">
	<polygon class="st6" points="318.5,294.3 319.3,309.5 323.3,316.4 324.2,577.9 327.1,577.9 326.7,316.4 331.2,309.2 331.2,294.3 	
		"/>
</g>
<g id="Calque_3">
	<g class="st16">
		<path class="st17" d="M470.9,577.98h12.01v10.44h-11.66v35.32h-13.57v-35.32h-7.22v-10.44h7.22v-2.09c0-5.34,1.58-9.57,4.74-12.7
			c3.16-3.13,7.61-4.7,13.35-4.7c2.03,0,3.96,0.22,5.79,0.65c1.83,0.44,3.35,1.06,4.57,1.87l-3.57,9.83
			c-1.57-1.1-3.39-1.65-5.48-1.65c-4.12,0-6.18,2.26-6.18,6.79V577.98z"/>
	</g>
</g>
<g id="Calque_2">
	<g class="st16">
		<path class="st17" d="M534.67,604.17h-35.41c0.64,2.9,2.14,5.19,4.52,6.87c2.38,1.68,5.34,2.52,8.88,2.52
			c2.44,0,4.6-0.36,6.48-1.09c1.88-0.72,3.64-1.87,5.26-3.44l7.22,7.83c-4.41,5.05-10.85,7.57-19.31,7.57
			c-5.28,0-9.95-1.03-14.01-3.09c-4.06-2.06-7.19-4.92-9.4-8.57s-3.3-7.8-3.3-12.44c0-4.58,1.09-8.71,3.26-12.4
			c2.18-3.68,5.16-6.55,8.96-8.61s8.05-3.09,12.75-3.09c4.58,0,8.73,0.99,12.44,2.96c3.71,1.97,6.63,4.8,8.74,8.48
			c2.12,3.68,3.18,7.96,3.18,12.83C534.93,600.69,534.85,601.9,534.67,604.17z M502.92,589.11c-2.09,1.74-3.37,4.12-3.83,7.13h23.05
			c-0.46-2.96-1.74-5.32-3.83-7.09c-2.09-1.77-4.64-2.65-7.66-2.65C507.59,586.5,505.01,587.37,502.92,589.11z"/>
		<path class="st17" d="M591.13,576.93v46.81h-12.88v-5.57c-1.8,2.03-3.95,3.58-6.44,4.66c-2.5,1.07-5.19,1.61-8.09,1.61
			c-6.15,0-11.02-1.77-14.62-5.31c-3.6-3.54-5.39-8.79-5.39-15.75v-26.45h13.57v24.45c0,7.54,3.16,11.31,9.48,11.31
			c3.25,0,5.86-1.06,7.83-3.18c1.97-2.12,2.96-5.26,2.96-9.44v-23.14H591.13z"/>
	</g>
</g>
</svg>
