<?xml version="1.0" encoding="utf-8"?>
<!-- Generator: Adobe Illustrator 24.0.0, SVG Export Plug-In . SVG Version: 6.00 Build 0)  -->
<svg version="1.1" xmlns="http://www.w3.org/2000/svg" xmlns:xlink="http://www.w3.org/1999/xlink" x="0px" y="0px"
	 viewBox="0 0 652.8 652.8" style="enable-background:new 0 0 652.8 652.8;" xml:space="preserve">
<style type="text/css">
	.st0{fill:#1DA077;}
	.st1{fill:#007F61;}
	.st2{fill:url(#SVGID_1_);}
	.st3{fill:url(#SVGID_2_);}
	.st4{fill:#008760;}
	.st5{fill:#005C44;}
	.st6{fill:#007251;}
</style>
<g id="Calque_2">
	<rect class="st0" width="652.8" height="652.8"/>
	<path class="st1" d="M32.4,46h11v9.6H32.7v32.5H20.2V55.6h-6.6V46h6.6v-1.9c0-4.9,1.5-8.8,4.4-11.7c2.9-2.9,7-4.3,12.3-4.3
		c1.9,0,3.6,0.2,5.3,0.6c1.7,0.4,3.1,1,4.2,1.7l-3.3,9c-1.4-1-3.1-1.5-5-1.5c-3.8,0-5.7,2.1-5.7,6.2V46z"/>
	<path class="st1" d="M91.1,70.1H58.5c0.6,2.7,2,4.8,4.2,6.3c2.2,1.5,4.9,2.3,8.2,2.3c2.2,0,4.2-0.3,6-1c1.7-0.7,3.3-1.7,4.8-3.2
		l6.6,7.2c-4.1,4.6-10,7-17.8,7c-4.9,0-9.1-0.9-12.9-2.8C53.9,84,51,81.3,49,78c-2-3.4-3-7.2-3-11.4c0-4.2,1-8,3-11.4
		c2-3.4,4.7-6,8.2-7.9c3.5-1.9,7.4-2.8,11.7-2.8c4.2,0,8,0.9,11.4,2.7c3.4,1.8,6.1,4.4,8,7.8c1.9,3.4,2.9,7.3,2.9,11.8
		C91.3,66.9,91.2,68,91.1,70.1z M61.8,56.2c-1.9,1.6-3.1,3.8-3.5,6.6h21.2c-0.4-2.7-1.6-4.9-3.5-6.5c-1.9-1.6-4.3-2.4-7-2.4
		C66.1,53.8,63.8,54.6,61.8,56.2z"/>
	<path class="st1" d="M143,45v43h-11.8v-5.1c-1.7,1.9-3.6,3.3-5.9,4.3c-2.3,1-4.8,1.5-7.4,1.5c-5.7,0-10.1-1.6-13.4-4.9
		c-3.3-3.3-5-8.1-5-14.5V45h12.5v22.5c0,6.9,2.9,10.4,8.7,10.4c3,0,5.4-1,7.2-2.9c1.8-1.9,2.7-4.8,2.7-8.7V45H143z"/>
	<path class="st1" d="M155.2,37c-1.4-1.3-2.2-3-2.2-5c0-2,0.7-3.6,2.2-5c1.4-1.3,3.3-2,5.6-2c2.3,0,4.2,0.6,5.6,1.9s2.2,2.9,2.2,4.8
		c0,2.1-0.7,3.8-2.2,5.2s-3.3,2-5.6,2C158.5,39,156.6,38.4,155.2,37z M154.6,45H167v43h-12.5V45z"/>
	<path class="st1" d="M178.6,28.7h12.5v59.4h-12.5V28.7z"/>
	<path class="st1" d="M202.7,28.7h12.5v59.4h-12.5V28.7z"/>
	<path class="st1" d="M268.7,70.1h-32.6c0.6,2.7,2,4.8,4.2,6.3c2.2,1.5,4.9,2.3,8.2,2.3c2.2,0,4.2-0.3,6-1c1.7-0.7,3.3-1.7,4.8-3.2
		l6.6,7.2c-4.1,4.6-10,7-17.8,7c-4.9,0-9.1-0.9-12.9-2.8c-3.7-1.9-6.6-4.5-8.6-7.9c-2-3.4-3-7.2-3-11.4c0-4.2,1-8,3-11.4
		c2-3.4,4.7-6,8.2-7.9c3.5-1.9,7.4-2.8,11.7-2.8c4.2,0,8,0.9,11.4,2.7c3.4,1.8,6.1,4.4,8,7.8c1.9,3.4,2.9,7.3,2.9,11.8
		C269,66.9,268.9,68,268.7,70.1z M239.5,56.2c-1.9,1.6-3.1,3.8-3.5,6.6h21.2c-0.4-2.7-1.6-4.9-3.5-6.5c-1.9-1.6-4.3-2.4-7-2.4
		C243.8,53.8,241.4,54.6,239.5,56.2z"/>
</g>
<g id="Calque_3">
	
		<linearGradient id="SVGID_1_" gradientUnits="userSpaceOnUse" x1="280.4456" y1="374.4807" x2="672.1243" y2="6.1497" gradientTransform="matrix(1 0 0 -1 0 653.28)">
		<stop  offset="0" style="stop-color:#004C34"/>
		<stop  offset="0.19" style="stop-color:#025239"/>
		<stop  offset="0.45" style="stop-color:#086447"/>
		<stop  offset="0.75" style="stop-color:#12825F"/>
		<stop  offset="1" style="stop-color:#1DA077"/>
	</linearGradient>
	<polygon class="st2" points="504,106.8 652.8,255.6 652.8,652.8 271.7,652.8 169.2,546.5 447.4,139.2 488.4,104.1 	"/>
</g>
<g id="flate_design">
	
		<linearGradient id="SVGID_2_" gradientUnits="userSpaceOnUse" x1="2338.7139" y1="-105.7212" x2="2021.004" y2="39.9188" gradientTransform="matrix(1 0 0 -1 -1871 274.64)">
		<stop  offset="0" style="stop-color:#00825D"/>
		<stop  offset="1" style="stop-color:#00A072"/>
	</linearGradient>
	<path class="st3" d="M503.9,106.8l-5.6-15c0,0-32.6,10.7-76,71.1c0,0-47.6,0.7-78.1,11.5c0,0-3.2,1-8.7,3.1c1,2.4,1.6,4.9,1.6,7.5
		c0,15.1-18.7,27.3-41.8,27.3c-7.2,0-14.3-1.2-21.1-3.7c-62.3,39.2-142.5,115.7-134.7,247c0,0-1.4,49.9,31,91.1
		c0,0,276.5-87.1,285.7-301.2c1.1-27.2-6.4-54-21.4-76.7l-2-3.1C432.9,165.8,464.6,106.8,503.9,106.8z"/>
	<path class="st4" d="M434,167.7c0,0,25.7,34.6,22.3,77.9c-4.4,55.3-19.7,204.5-285.7,301.2C170.6,546.8,284.1,268.7,434,167.7z"/>
	<path class="st5" d="M416,182c0,0-157.6,112.5-232.6,343.5C183.4,525.5,255.7,311.1,416,182z"/>
	<path class="st5" d="M157.8,515.8c0,0,9.5-32.8,38.5-62.3C196.3,453.6,171.5,481.7,157.8,515.8z"/>
	<path class="st5" d="M158.8,422.5c0,0,25.5-25.2,66.6-39.4C225.3,383.1,188.7,397.8,158.8,422.5z"/>
	<path class="st6" d="M164.1,374.1c0,0,32.1-18.2,76-22.2C240.1,351.9,200.4,357.4,164.1,374.1z"/>
	<path class="st6" d="M185.5,331.8c0,0,34.5-14.5,78.6-13.5C264,318.3,223.9,319.4,185.5,331.8z"/>
	<path class="st6" d="M206.1,298.2c0,0,35.6-12,79.5-8.1C285.6,290.2,245.5,288.4,206.1,298.2z"/>
	<path class="st6" d="M233.5,265c0,0,35.6-12,79.5-8.1C313,256.9,272.9,255.2,233.5,265z"/>
	<path class="st6" d="M266.6,239.2c0,0,34.7-14.1,78.8-12.6C345.4,226.6,305.2,227.2,266.6,239.2z"/>
	<path class="st6" d="M298.8,214.3c0,0,34.7-14.1,78.8-12.6C377.6,201.7,337.4,202.3,298.8,214.3z"/>
	<path class="st6" d="M336.9,186.4c0,0,24.8-8.1,58-3.3C395,183.1,364.9,180.2,336.9,186.4z"/>
	<path class="st5" d="M153.4,468.6c0,0,19-29.3,55.8-50.9C209.1,417.6,176.8,438.8,153.4,468.6z"/>
	<path class="st5" d="M399,212.2c0,0,32,46.7,30.2,88.2C429.2,300.4,426.7,260.8,399,212.2z"/>
	<path class="st5" d="M374.8,237.5c0,0,45.8,54.4,44.5,102C419.2,339.5,414.6,294,374.8,237.5z"/>
	<path class="st5" d="M352,268.5c0,0,46.1,60.2,41.5,110.4C393.5,378.9,391.4,330.5,352,268.5z"/>
	<path class="st5" d="M321.9,303.6c0,0,47.8,59.7,43.4,109.1C365.4,412.7,362.9,365,321.9,303.6z"/>
	<path class="st5" d="M297.1,336.8c0,0,44,55.1,40.1,100.8C337.2,437.6,334.9,393.5,297.1,336.8z"/>
	<path class="st5" d="M278.1,366.3c0,0,40.2,50.8,36.6,93C314.7,459.3,312.6,418.6,278.1,366.3z"/>
	<path class="st5" d="M260.2,393.9c0,0,36.4,42.9,33.6,78.3C293.8,472.2,291.5,438.1,260.2,393.9z"/>
	<path class="st5" d="M239.1,431.8c0,0,30,32.5,28.2,58.8C267.2,490.7,265,465.2,239.1,431.8z"/>
	<path class="st5" d="M226.2,462.9c0,0,11.6,33.3,1.6,54.9C227.8,517.8,234.5,496.1,226.2,462.9z"/>
	<path class="st5" d="M438.1,244.4c0,0-6.6-29.2-22.1-52.7C425.2,208.4,432.7,226.1,438.1,244.4z"/>
	<path class="st4" d="M503.9,106.8l-3-7.9c0,0-38.9,6.7-67.8,66.2l4.4-6.4C437.5,158.6,474.8,105.7,503.9,106.8z"/>
</g>
</svg>
