<svg xmlns="http://www.w3.org/2000/svg" viewBox="0 0 1999 2002"><defs><style>.cls-1,.cls-12{fill:none;}.cls-1{stroke:#fff;stroke-width:0.75px;}.cls-1,.cls-10,.cls-11,.cls-12,.cls-9{stroke-miterlimit:10;}.cls-2{fill:#fff;}.cls-3{fill:#e1003a;}.cls-10,.cls-11,.cls-4{fill:#af005f;}.cls-5{fill:#edecf1;}.cls-6{fill:#03090e;}.cls-7,.cls-9{fill:#eb5080;}.cls-8{fill:#ffaf20;}.cls-10,.cls-11,.cls-12,.cls-9{stroke:#000;}.cls-9{stroke-width:7px;}.cls-10{stroke-width:5px;}.cls-11,.cls-12{stroke-width:8px;}</style></defs><title>flashback chico</title><g id="Calque_1" data-name="Calque 1"><rect width="1999" height="2002"/><line class="cls-1" x1="120.22" y1="234.23" x2="493.54" y2="234.23"/><circle class="cls-2" cx="291.29" cy="234.11" r="4.51"/><circle class="cls-2" cx="325.62" cy="234.11" r="4.51"/><circle class="cls-2" cx="308.46" cy="234.23" r="7.14"/><path class="cls-2" d="M82,269.78h19.69v2.32H84.51v12.26h16.11v2.32H84.51v15.61H82Z" transform="translate(-3 2)"/><path class="cls-2" d="M130.67,269.78h2.51V300h17.46l-.46,2.32H130.67Z" transform="translate(-3 2)"/><path class="cls-2" d="M184.17,291.05,180,302.29h-2.56l11.94-32.51h3l12.45,32.51H202.1l-4.23-11.24ZM197,288.73c-3.63-9.66-5.48-14.31-6.13-16.49h0c-.79,2.46-2.88,8.22-5.81,16.49Z" transform="translate(-3 2)"/><path class="cls-2" d="M234.28,293.56c1,4.32,3.86,6.87,9.2,6.87,5.94,0,8.22-3,8.22-6.5s-1.63-5.95-8.78-7.71c-6.87-1.72-9.85-4-9.85-8.64,0-4.27,3.12-8.27,10.08-8.27,7.15,0,10.17,4.37,10.59,8.32h-2.6c-.74-3.49-3-6-8.13-6-4.69,0-7.24,2.18-7.24,5.8s2.13,5,8.13,6.46c9.14,2.27,10.49,5.94,10.49,9.84,0,4.79-3.48,8.92-11,8.92-8.12,0-11.1-4.74-11.7-9.1Z" transform="translate(-3 2)"/><path class="cls-2" d="M284.72,269.78h2.5v14.16h19.51V269.78h2.51v32.51h-2.51v-16H287.22v16h-2.5Z" transform="translate(-3 2)"/><path class="cls-2" d="M376.86,269.78h11.33c6.22,0,9.57,3.3,9.57,8a7,7,0,0,1-5,7.1,8.23,8.23,0,0,1,6.18,8c0,6.5-4.88,9.38-10.54,9.38H376.86Zm10.49,14c5.62,0,7.76-2.09,7.76-5.85,0-3.21-2.23-5.81-6.78-5.81h-9v11.66Zm-8,16.21h9.15c4.27,0,7.85-2.14,7.85-6.92,0-4.14-2.65-7-9.2-7h-7.8Z" transform="translate(-3 2)"/><path class="cls-2" d="M432.73,291.05l-4.14,11.24H426L438,269.78h3l12.44,32.51h-2.74l-4.22-11.24Zm12.86-2.32c-3.62-9.66-5.48-14.31-6.13-16.49h0c-.78,2.46-2.88,8.22-5.8,16.49Z" transform="translate(-3 2)"/><path class="cls-2" d="M506.38,293.6c-1.53,5.16-5.34,9.06-12.21,9.06-9.33,0-14.26-7.43-14.26-16.58,0-8.78,4.83-16.77,14.31-16.77,7,0,11.14,3.91,12.21,9.34h-2.51c-1.48-4.23-4.22-7-9.84-7-8.08,0-11.47,7.38-11.47,14.39s3.34,14.31,11.65,14.31c5.3,0,8-2.74,9.62-6.74Z" transform="translate(-3 2)"/><path class="cls-2" d="M536.62,269.78h2.5v16.9c2.61-2.5,11.89-11.24,17.7-16.9h3.34l-14.58,13.84L561,302.29h-3.11l-14.12-17.05-4.65,4.09v13h-2.5Z" transform="translate(-3 2)"/><path class="cls-2" d="M267.08,165.23h4.58q3.33.35,3.33,2c0,.73-.82,1.1-2.44,1.1l-3.23-.2-4.68.05-10.17,12.89Q244.17,194,243.06,194c-.64,0-1.24-.47-1.78-1.43a4.36,4.36,0,0,1-.77-2.26q0-1.54,17-22.05h-3.89q-8.15,0-24.22.9l-16.87,14.4L206,189.36c-3.53,3.07-5.67,4.6-6.44,4.6-.93,0-1.39-.48-1.39-1.45q0-1.8,14.41-13.79l11.43-9.5q-22.91,1.09-23.65,2.29v.05q0,.94,7.14.95l6.68-.1q1.35,0,1.35.6,0,1.4-10.88,1.4c-6.18,0-9.28-.79-9.28-2.35q0-3,5.49-4.09a70.34,70.34,0,0,1,7.68-.75l19.46-1.3q11.77-9.73,33.68-25.27,27.88-19.73,33.27-19.73c1.8,0,2.69,1.17,2.69,3.5q0,2.94-7,11.68Zm-7.13,0,23.37-28.43,4.34-5.29a32.78,32.78,0,0,0,3.69-5.45l.08-.2c0-.36-.17-.55-.5-.55q-2.35,0-29.68,20l-27.42,20.37Z" transform="translate(-3 2)"/><path class="cls-2" d="M290.75,171.66l-15.91,13.17Q262.81,194,258,194c-.4,0-.6-.22-.6-.67s.34-.95,1-1.12a24.07,24.07,0,0,0,5.64-2q3.15-1.63,13.17-9.61,4.54-3.52,13.07-11.25c2.13-2.22,3.66-3.34,4.59-3.34q2.79,0,2.79,1.8,0,2.29-5.63,9.53,10.88-10,15-10a4.14,4.14,0,0,1,2.55.87,2.71,2.71,0,0,1,1.15,2.22q0,2-2.7,5.84,10.08-9.93,15.87-9.93c2.22,0,3.34.9,3.34,2.7q0,3.49-8.18,11.87T310.86,191q0,1.29,1.74,1.32c1.17,0,1.75.29,1.75.82s-1,1-2.92,1q-3.92,0-3.92-3.44,0-3.9,7.14-12t7.13-9q0-.6-.75-.6-3,0-13.07,9.43a137.78,137.78,0,0,0-12.27,12.62q-2.4,3-3.54,3c-1.3,0-1.95-.6-1.95-1.79s2.61-4.76,7.83-10.58,7.84-9.41,7.84-10.78c0-.6-.34-.89-1-.89q-2.6,0-11.82,8.68a113.45,113.45,0,0,0-11.18,11.67q-2.55,3.28-4.44,3.29c-1.13,0-1.7-.5-1.7-1.49q0-1.9,6.94-10.53Z" transform="translate(-3 2)"/><path class="cls-2" d="M337.05,190.92c0,.9,1,1.35,2.93,1.35.44,0,.66.27.66.82s-1.11,1-3.32,1q-3.76,0-3.77-3.59,0-4.18,11.13-17.51l-13.62,11.12Q319,194,313.55,194c-.4,0-.6-.22-.6-.67a1.07,1.07,0,0,1,1-1.12,18.94,18.94,0,0,0,5.74-2q3.24-1.78,13.77-10.1l15.26-12.8a8.5,8.5,0,0,1,2.7-.35c1.13,0,1.69.65,1.69,1.94s-2.68,5.16-8,11.28S337.05,189.83,337.05,190.92ZM359.1,156.4a2.15,2.15,0,0,1-2.4-2.45q0-2,2.45-3.69a7.71,7.71,0,0,1,4.39-1.5c1.73,0,2.59,1,2.59,2.85q0,2-2.59,3.49A8.9,8.9,0,0,1,359.1,156.4Z" transform="translate(-3 2)"/><path class="cls-2" d="M373.12,178.85q13.71-11.62,19.25-11.63c2.37,0,3.55,1.12,3.55,3.34q0,3-8,10.66c-5.35,5.13-8,8.24-8,9.3s.61,1.64,1.82,1.72,1.82.37,1.82.87c0,.67-1.2,1-3.61,1q-4.17,0-4.17-3.7,0-3.09,4-7.85,2.06-2.44,7.39-7.55,4-3.8,4-4.59c0-.44-.3-.65-.9-.65q-2.85,0-12.37,7.6A120.46,120.46,0,0,0,366,187.71c-3.26,3.44-5.24,5.15-5.93,5.15a1.85,1.85,0,0,1-1.45-.77,2.48,2.48,0,0,1-.65-1.62q0-1.16,6.89-9.28l8.23-9.73-12.77,10.38-9.43,7.23q-7.19,4.89-11,4.89c-.43,0-.65-.2-.65-.6,0-.6.47-1,1.4-1.19a20.7,20.7,0,0,0,4.44-1.5Q348.73,189.08,360,180q10.07-8.18,14.51-12.52a15.26,15.26,0,0,1,2.35-1.8,5,5,0,0,1,1.69-.29,3.18,3.18,0,0,1,1.73.57,1.64,1.64,0,0,1,.87,1.37Q381.1,168.22,373.12,178.85Z" transform="translate(-3 2)"/><path class="cls-2" d="M401.3,185.88q-2.49.6-9.38,4.59-6.07,3.5-9.22,3.49c-.4,0-.6-.22-.6-.67,0-.61.43-1,1.29-1.12q3-.49,8.58-3.72a39.81,39.81,0,0,1,9.93-4.37q2.3-5.54,9.48-11.62,7.64-6.54,13-6.54c2.66,0,4,1.14,4,3.4q0,4.44-8.43,9.68a59.75,59.75,0,0,1-12.67,6.08,8.11,8.11,0,0,0-.7,3.32c0,1.72.6,2.84,1.81,3.37a12.61,12.61,0,0,0,3.42.45c1.2,0,1.81.32,1.81.86,0,.86-2.06,1.28-6.16,1.28q-6.53,0-6.52-5.64A13.16,13.16,0,0,1,401.3,185.88Zm6.59-2.79a60.38,60.38,0,0,0,9.68-6.09q6.78-5,6.78-8c0-.8-.36-1.2-1.09-1.2q-3.25,0-8.84,6Q409.44,179.24,407.89,183.09Z" transform="translate(-3 2)"/><path class="cls-3" d="M177.2,419.68q-6.66-6.48-6.66-17.16V363.78q0-10.68,6.66-17.1t17.57-6.41q11,0,17.7,6.35t6.65,16.92v1.08a1.06,1.06,0,0,1-1.19,1.2l-6.12.24q-1.2,0-1.2-1.08V363.3A15.14,15.14,0,0,0,206.23,352a15.62,15.62,0,0,0-11.46-4.32q-7.08,0-11.39,4.26t-4.32,11.34v39.82q0,7.08,4.32,11.34t11.39,4.26a15.62,15.62,0,0,0,11.46-4.32,15.14,15.14,0,0,0,4.38-11.28v-1.68q0-1.08,1.2-1.08l6.12.36a1.06,1.06,0,0,1,1.19,1.2v.84q0,10.56-6.65,17t-17.7,6.42Q183.87,426.16,177.2,419.68Z" transform="translate(-3 2)"/><path class="cls-3" d="M276.34,341.23h6.12a1.06,1.06,0,0,1,1.2,1.2V424a1.06,1.06,0,0,1-1.2,1.2h-6.12a1.06,1.06,0,0,1-1.2-1.2V387.29a.42.42,0,0,0-.48-.48H244.91a.42.42,0,0,0-.48.48V424a1.06,1.06,0,0,1-1.2,1.2h-6.11a1.06,1.06,0,0,1-1.2-1.2V342.43a1.06,1.06,0,0,1,1.2-1.2h6.11a1.06,1.06,0,0,1,1.2,1.2v36.46a.42.42,0,0,0,.48.48h29.75a.42.42,0,0,0,.48-.48V342.43A1.06,1.06,0,0,1,276.34,341.23Z" transform="translate(-3 2)"/><path class="cls-3" d="M303.45,424V342.43a1.06,1.06,0,0,1,1.2-1.2h6.12a1.06,1.06,0,0,1,1.2,1.2V424a1.06,1.06,0,0,1-1.2,1.2h-6.12A1.06,1.06,0,0,1,303.45,424Z" transform="translate(-3 2)"/><path class="cls-3" d="M336.26,419.68q-6.66-6.48-6.66-17.16V363.78q0-10.68,6.66-17.1t17.57-6.41q11,0,17.7,6.35t6.65,16.92v1.08a1.06,1.06,0,0,1-1.19,1.2l-6.12.24q-1.2,0-1.2-1.08V363.3A15.14,15.14,0,0,0,365.29,352a15.62,15.62,0,0,0-11.46-4.32q-7.08,0-11.39,4.26t-4.32,11.34v39.82q0,7.08,4.32,11.34t11.39,4.26a15.62,15.62,0,0,0,11.46-4.32,15.14,15.14,0,0,0,4.38-11.28v-1.68q0-1.08,1.2-1.08l6.12.36a1.06,1.06,0,0,1,1.19,1.2v.84q0,10.56-6.65,17t-17.7,6.42Q342.93,426.16,336.26,419.68Z" transform="translate(-3 2)"/><path class="cls-3" d="M404.39,423.1a21.47,21.47,0,0,1-8.63-8.58,25.8,25.8,0,0,1-3.06-12.72V364.74A26.14,26.14,0,0,1,395.76,352a21.28,21.28,0,0,1,8.63-8.63,28.7,28.7,0,0,1,25.79,0,21.7,21.7,0,0,1,8.7,8.63A25.74,25.74,0,0,1,442,364.74V401.8a25.4,25.4,0,0,1-3.12,12.72,21.89,21.89,0,0,1-8.7,8.58,28.7,28.7,0,0,1-25.79,0ZM429,414.16q4.44-4.56,4.44-12V364.5q0-7.56-4.44-12.18t-11.75-4.62a15.41,15.41,0,0,0-11.64,4.62q-4.44,4.62-4.44,12.18v37.66q0,7.44,4.44,12a15.52,15.52,0,0,0,11.64,4.56Q424.61,418.72,429,414.16Z" transform="translate(-3 2)"/><path class="cls-2" d="M1826,1739.79l-1-4.16-47.38,11.89-8.25-33.52h-24.14l-22.65,90.62H1706.3l-24.69-89.81h-38.13L1606.59,1851l4.14,1.12,11.7-43.19h15.51l-11.25,42.35,4.15,1.1,11.54-43.45H1703l11.88,43.2L1719,1851l-11.56-42.06h18.41l22.65-90.62H1766l32.84,133.5,4.17-1-24.38-99.07Zm-202.41,64.83,23.17-85.52h15l-22.72,85.52Zm19.93,0,22.72-85.52h12.1l23.51,85.52Z" transform="translate(-3 2)"/></g><g id="Calque_4" data-name="Calque 4"><g id="Calque_2" data-name="Calque 2"><path class="cls-3" d="M1027,417.21S799.51,398.69,695.77,611.67c-26.61,54.62-39.52,114.9-39.08,175.65l1.42,193.9s41.18,245.31,50.13,256,20.59-2.69,42.08,27.75,26.86,96.69,41.18,98.48,111.91-133.39,153.09-142.35,64.46,14.33,112.81-1.79,151.3,76.1,151.3,76.1,26,54.61,51,47.45,66.25-37.6,80.57-43,45.66-79.68,61.77-197.86c0,0,15.22-58.19,18.8-111.9,2.33-34.93,3.15-100.89,3.43-142.76a460.85,460.85,0,0,0-18.13-132.34C1372.89,601,1280.42,423.27,1027,417.21Z" transform="translate(-3 2)"/><path d="M791.75,1368a5.29,5.29,0,0,1-.8,0c-10.24-1.28-14.9-17.79-22-42.8-5.72-20.25-12.2-43.21-22.32-57.54-12.49-17.69-20.64-19.18-27.83-20.49-4.76-.86-9.68-1.76-14-7-1.9-2.28-6.35-7.62-29.39-134.11C664.13,1044,653.8,982.58,653.69,982l-.06-.7-1.41-193.9c-.46-62.19,13.21-123.62,39.53-177.65,24-49.19,56.52-90.17,96.77-121.79,32.2-25.3,69.34-44.68,110.4-57.62,68.88-21.69,124.46-17.86,128.27-17.57,113,2.73,205.6,39.66,275.12,109.76,61.28,61.79,92.64,138.15,108.16,191.34a465.46,465.46,0,0,1,18.31,133.62c-.32,46.48-1.17,109-3.44,143-3.45,51.67-17.74,108.11-18.87,112.48-8.83,64.58-25.92,107-38.71,131.26-14.9,28.24-30.48,44.22-39.32,47.54-4.83,1.81-13.53,12.82-21.94,23.46-13.87,17.55-29.59,37.44-45.54,42a21.36,21.36,0,0,1-5.91.84c-24.52,0-46-41.65-50-49.83-8.79-7.73-102.84-89.09-146.25-74.61-27.78,9.26-47.52,6-66.61,2.88-15-2.46-29.08-4.78-46.66-1-22.91,5-68,55.5-100.86,92.38C811.46,1355.15,799.35,1368,791.75,1368ZM662.58,980.83c15.62,93,42.73,243.83,49.19,253.68,2.08,2.5,4.28,3,8.66,3.8,8,1.45,19,3.45,33.55,24.13,11,15.58,17.7,39.32,23.62,60.27,3.71,13.12,9.86,34.91,14.19,36.29,5.84-1.79,27.27-25.82,46.21-47,35.59-39.9,79.89-89.57,105.64-95.17,19.25-4.18,34.88-1.61,50,.87,18.85,3.1,36.65,6,62.33-2.53,50.23-16.75,151.42,73.17,155.7,77l.67.6.39.81c6.77,14.23,28.19,50.08,45.76,45.07,13.18-3.77,47.93-8.67,60.31-24.35,10.42-13.19-.68-38.21,6.49-40.9,13.21-4.95,56.66-56.88,72.34-171.88l.1-.53c.15-.58,15.16-58.42,18.67-111.07,2.37-35.56,3.16-104.54,3.41-142.49a456.66,456.66,0,0,0-17.94-131.06c-31.35-107.44-121.76-288.59-375-294.65h-.25c-.57,0-57.07-4.29-125.32,17.28-62.76,19.83-148.66,66.23-201.49,174.68-25.71,52.79-39.07,112.84-38.62,173.66Z" transform="translate(-3 2)"/><path class="cls-3" d="M761,1417.65s-40.82,92.48-48.35,112C700.07,1562.09,768.11,1666,768.11,1666s127.74,36.58,252.47,27.59l2.68-137.13S779,1391.53,761,1417.65Z" transform="translate(-3 2)"/><path d="M980.12,1699c-110,0-212.21-28.85-213.36-29.18l-1.63-.47-.87-1.33c-2.82-4.31-69-105.88-55.88-139.73,7.47-19.36,46.74-108.36,48.41-112.14l.37-.65c1.11-1.62,3.35-3.7,7.66-4.43,6.4-1.09,25.87-4.39,146.57,68.83,59,35.8,114,72.88,114.55,73.25l1.84,1.25-2.8,142.89-4.05.29C1007.33,1698.56,993.66,1699,980.12,1699Zm-209-36.47c15,4.09,131.48,34.51,245.09,27.24l2.58-131.35c-87.55-59-225.58-143.89-252.28-139.37a3.16,3.16,0,0,0-1.58.59c-3.17,7.21-40.93,92.86-48.06,111.33C707.27,1555.74,751.92,1633,771.08,1662.53Z" transform="translate(-3 2)"/><path class="cls-4" d="M667.06,1058.22s87.74,127.12,102.06,186.21,9,87.74,30.44,84.16,34.73-57.5,67.5-72.62,93.65-67,131.25-61.67,59.09,25.06,69.83,17.9,109.22,46.55,130.71,68,32.23,64.46,43,69.83,88.63-22.38,96.69-46.55c6.27-18.8,55.48-143,57.3-162.94,1.79-19.7,3.58-100.27,3.58-100.27s10.74-14.32,16.11-3.58,0,188-3.58,197-85.94,173.68-102.06,189.79-77,130.71-150.4,152.2-145,30.44-227.4,3.58-186.22-170.1-195.17-195.17-66.25-143.24-62.67-164.73S667.06,1058.22,667.06,1058.22Z" transform="translate(-3 2)"/><path d="M1035.48,1600.37a335,335,0,0,1-104.81-16.85c-84.42-27.53-189-172.83-198-197.92-2.51-7-9.17-22.12-16.87-39.61-26.69-60.57-48.57-112-46-127.36,2.76-16.57-3.51-112-7.21-160.07L661.33,1042l9.42,13.64c3.6,5.22,88.37,128.49,102.72,187.71,4.53,18.69,7.1,34.32,9.17,46.87,2.83,17.24,4.88,29.7,9.58,33.06.95.68,2.67,1.52,6.6.86,8.28-1.38,16.44-14.2,25.08-27.77,10.76-16.89,22.94-36,41.28-44.49,9.81-4.53,22.63-12.71,36.2-21.38,32.76-20.91,69.88-44.63,97.56-40.67,22.19,3.17,69,33.19,79.94,25.92,2.48-1.65,5-23.44,66.25,9,29.13,15.4,54.29,45.34,66.25,57.3,12.75,12.75,16.64,23,21.49,37.6,2.84,8.54,9.48,21.58,12.53,23.28,1.54-.1,48.13,3.8,59.09-14.32,7.91-13.09,21.21-35,25.07-46.56,2.87-8.62,32.31-23,48.34-46.55,19.21-28.22,36.67-86.42,37.6-96.69,1.8-19.79,6.36-96.9,7.16-100.27l-5.37-1.79-21.48.89c1.25-1.67,7.86-10,15.29-9.32,2.48.22,6,1.52,8.41,6.43,3.51,7,3,59,2,101.26-.75,31.52-2.86,92.86-5.46,99.36-3.53,8.82-86.33,174.57-103,191.3-3.38,3.37-9.43,12.23-17.08,23.44-26.91,39.44-77,112.84-135.24,129.88C1123.75,1590.79,1082.06,1600.37,1035.48,1600.37ZM672.77,1074.71c2.74,38,8.78,128,5.87,145.39-2.34,14,27.52,81.79,45.36,122.28,8.1,18.37,14.49,32.89,17.11,40.21,4.29,12,32.69,54.14,69.19,95.45,45.47,51.46,89.2,85.9,123.15,97,88.52,28.87,163.29,14.37,224.75-3.62,55.15-16.14,104.07-87.82,130.36-126.33,8.22-12,14.17-20.76,18.14-24.73,15.57-15.58,97.63-179.7,101.06-188.3,2.73-8.65,8.7-180.48,3.7-193.38-.5-1-1-1.41-1.17-1.43-1.33-.08-4.45,2.28-6.78,5.1-2.19,9.24-6.06,83.83-7.7,101.85-1.07,11.7-32.18,37-59,76.46-14.34,21.07,7.77,57.55,5.29,65-7,20.87-65.52,48.16-80,54.16a9.26,9.26,0,0,1-7.95,0c-6.4-3.2-9.46-12.4-13.7-25.13-4.56-13.68-10.23-30.7-21.48-42-22.85-22.84-136.3-50.06-148-47.66-11.63,7.42-35-19-73.32-26.27-24.22-4.6-61.59,20.26-91.48,39.35-13.84,8.83-26.91,17.18-37.26,22-16,7.37-27.39,25.33-37.49,41.18S812.51,1331,800.3,1333c-5.42.9-9.77.11-13.3-2.41-7.71-5.52-9.77-18.08-13.2-38.89-2-12.4-4.58-27.85-9-46.22C753.58,1199.3,695.72,1109.26,672.77,1074.71Z" transform="translate(-3 2)"/><path class="cls-5" d="M932.06,963.32s-46.55-69.83-94.9-35.81-57.3,39.39-57.3,39.39,29.55,47.45,74.31,40.29S932.06,963.32,932.06,963.32Z" transform="translate(-3 2)"/><path d="M844.83,1011.52c-40.9,0-66.84-40.86-68-42.73l-1.92-3.09,3.12-1.87c.09-.06,9.66-5.88,57.08-39.25,12.26-8.63,25.5-11.69,39.34-9.11,33.91,6.34,59.53,44.25,60.6,45.86l1.54,2.32-1.86,2.07c-1.39,1.53-34.5,37.72-80,45A63,63,0,0,1,844.83,1011.52Zm-59.92-43.6c7.21,9.91,33.18,41.42,68.7,35.73,36.9-5.91,66.12-33,73.81-40.68-6.06-8.21-28-35.55-54.32-40.46-11.86-2.21-23.26.45-33.88,7.93C805.05,954.48,790.55,964.23,784.91,967.92Z" transform="translate(-3 2)"/><circle class="cls-6" cx="858.33" cy="957.26" r="36.71"/><path d="M1033.93,1196.83c-13.18,0-29.33-6.37-37.64-19.88-8.5-13.81-30.35-10.09-42.62-6.65a14.29,14.29,0,0,1-18-11.72c-5.22-35,23.64-44.87,34.51-48.56,1-.33,2.08-.71,2.86-1,2.6-10.41,13.89-77.63,19-179.94l8.94.45c-5.34,106.74-17.84,179.77-20.16,184.41-1.16,2.32-3.51,3.12-7.76,4.57-11.42,3.88-32.67,11.1-28.55,38.76a5.41,5.41,0,0,0,2.41,3.78,5.26,5.26,0,0,0,4.32.64c25.38-7.12,44.08-3.37,52.66,10.57,7.25,11.78,23.11,17,34.27,15.32,5-.77,11.27-3.21,13.08-10.47,2.89-11.56,14.51-20.09,29.6-21.75,13.11-1.44,24.63,2.63,30.51,10.51,7.7-2.29,27.5-10,27.5-28.86,0-14.11-5.54-16.62-14.71-20.76-2.61-1.18-5.31-2.4-8.11-4l4.44-7.78c2.44,1.39,4.94,2.53,7.36,3.62,9.82,4.44,20,9,20,28.92,0,24.17-24.59,35.69-37.58,38.4l-3.38.71-1.54-3.09c-3.72-7.43-14.48-9.76-23.48-8.77-8.6,1-19.5,5.45-21.89,15-2.31,9.25-9.75,15.5-20.41,17.14A36.18,36.18,0,0,1,1033.93,1196.83Z" transform="translate(-3 2)"/><path class="cls-3" d="M873,1368s16.12-77,143.24-105.64c0,0,100.27-23.28,141.46,32.23s35.81,66.24,39.39,82.36-16.12,94.9-59.09,100.27S971.75,1496,946.38,1487.94C907,1475.41,856.86,1423.48,873,1368Z" transform="translate(-3 2)"/><path d="M975.88,1494c-13.7,0-24.61-.76-30.58-2.66-42.74-13.6-92.21-67.44-75.8-124.26.45-2,5.11-21.07,24.72-43.55,18.53-21.24,54.59-49.7,121.21-64.71l.41-.07c3.6-.37,105.28-26.07,147.2,30.42,20.74,28,16.59,58.55,24.16,66.33,7.8,8,11.37,11.7,13.35,20.63,2.53,11.39-5.08,50.84-24.6,78.53-11,15.56-23.59,24.33-37.54,26.07C1133.09,1481.42,1031.47,1494,975.88,1494Zm40.9-228.14c-123.25,27.86-140.15,102.08-140.3,102.83l-.07.27c-15.08,51.93,32,103.13,71.06,115.55,23,7.31,134.37-3.92,190.06-10.88,11.86-1.49,22.82-9.25,32.57-23.09,18.45-26.18,25.44-63.93,23.46-72.85-1.54-7-4-9.54-11.5-17.19-7.69-7.92-8.74-35.83-29.77-64.16C1113.76,1244.42,1021.34,1265.46,1016.78,1265.88Z" transform="translate(-3 2)"/><path class="cls-7" d="M908.78,1334s55.51-30.44,78.79-43,30.43-7.16,44.76,0c0,0,23.28-10.74,37.6,1.79s75.2,44.77,75.2,44.77Z" transform="translate(-3 2)"/><path d="M1010.72,1290.63h0c5.09,0,9.27,2.12,15.6,5.34.91.46,1.84.94,2.81,1.42l3.07,1.52,3.11-1.41a46.08,46.08,0,0,1,16.75-3.64c5.47,0,9.89,1.45,13.15,4.31,8.6,7.52,31,25.35,49.79,35.83H924c18-9.84,53.78-29.61,67-36.71,8.44-4.55,14.72-6.66,19.76-6.66m0-7.16c-5.94,0-13,2.06-23.15,7.51-23.28,12.54-78.79,43-78.79,43l236.35,3.58s-60.88-32.23-75.2-44.77c-5.28-4.61-11.77-6.07-17.87-6.07a53.05,53.05,0,0,0-19.73,4.28c-8.09-4-13.9-7.51-21.61-7.51Z" transform="translate(-3 2)"/><path class="cls-7" d="M912.36,1337.62s10.19,71.77,111,73.39c109.22,1.74,118.17-69.89,118.17-69.89Z" transform="translate(-3 2)"/><path d="M1027.21,1414.62l-3.89,0c-53.44-.86-81.71-21.46-96-38.59-15.62-18.7-18.38-37.1-18.49-37.87l-.59-4.15,237.37,3.62-.5,4c-.09.78-2.56,19.24-19,37.55C1111.43,1395.43,1082.44,1414.62,1027.21,1414.62Zm-110.36-73.35a81.14,81.14,0,0,0,16.21,30.45c19.15,22.72,50.4,35.06,90.37,35.7,89.91,1.45,109.81-48.22,113.71-62.79Z" transform="translate(-3 2)"/><path class="cls-7" d="M760.17,997.34s43,51.92,159.36,16.11c0,0,57.29,35.81-25.07,128.92s-182.64-109.22-170.1-128.92S738.68,992,760.17,997.34Z" transform="translate(-3 2)"/><path d="M847.63,1170.36c-14.81,0-30.33-6-46.22-17.94-22-16.58-44.69-45.21-62.2-78.56-13-24.65-23.5-53.49-17.87-62.33C734.58,990.72,738,988.1,761,993.86l1.14.29.74.9c.22.26,10.85,12.59,35,20.56,22.52,7.45,61.72,12.53,120.57-5.58l1.57-.48,1.38.87c.7.43,17,10.86,20.45,34.7,4.06,28-11,61.49-44.73,99.62C882,1161.81,865.35,1170.36,847.63,1170.36ZM745.36,998.25c-7.09,0-9.9,4.42-18,17.12-2.06,3.25,1.15,22.75,18.17,55.16s39,60.21,60.16,76.17c31.92,24,60.87,21.78,86.07-6.7,31.73-35.88,46.61-68.26,43-93.66-2.42-17.14-12.35-26.2-15.92-28.95-108.91,32.93-154-9.67-160.66-16.85C752.53,999.13,748.52,998.25,745.36,998.25Z" transform="translate(-3 2)"/><path class="cls-8" d="M967.87,900.65s-23.28-68-141.45-26.86l-89.53,44.76S905.2,864.84,967.87,900.65Z" transform="translate(-3 2)"/><path d="M738,922l-2.69-6.62,90-44.94c47.17-16.44,85.28-17.87,113.28-4.24,25.31,12.31,32.45,32.47,32.74,33.32l3.07,9-8.24-4.7C905.51,869.14,739.65,921.43,738,922Zm89.83-44.87L757,911c49.87-12.81,153.62-36.89,202.46-18.24a61.84,61.84,0,0,0-20.22-18.13C913.27,859.93,874.75,860.78,827.81,877.1Z" transform="translate(-3 2)"/><path class="cls-9" d="M661.24,998.65c-2.65-15.25-14.89-27.37-30.29-28.9-10.45-1-21.5,2.65-28.35,18.63-16.11,37.61,19.7,143.25,19.7,143.25s16.11,30.44,12.53,46.55,5.37,69.83,35.81,50.14C695.93,1212,670.55,1052.23,661.24,998.65Z" transform="translate(-3 2)"/><path d="M658.25,1237.08a19.33,19.33,0,0,1-11.17-3.58c-15.41-10.71-19.58-43-16.62-56.29,2.64-11.88-7.85-35.42-12.12-43.49l-.28-.66c-1.49-4.38-36.17-107.71-19.57-146.44,8.35-19.5,22.5-22.36,32.9-21.32,17.13,1.7,31.22,15.1,34.26,32.58,4.75,27.36,13.38,80.52,17.72,129.16,7.45,83.35-2.31,99.86-10.3,105C667.4,1235.75,662.45,1237.08,658.25,1237.08Zm-31.82-107.22c2.37,4.54,16.49,32.54,12.77,49.29-2.47,11.12,1.88,39.28,13,47,1.61,1.13,6.53,4.55,16-1.59,4.23-2.74,13.31-17.64,6.25-96.72-4.32-48.32-12.9-101.2-17.63-128.43h0c-2.36-13.53-13.18-23.89-26.32-25.2-11-1.1-18.73,4.12-23.79,15.94C591.88,1024.76,624.27,1123.39,626.43,1129.86Z" transform="translate(-3 2)"/><path d="M640.94,1046.42l-5.06-5.06a2,2,0,0,0-.54.77s1.19-4.35-7.23-19.8c-4.15-7.6-6.47-9-7-9.2-2,1.56-4,12-4.15,21.86l-7.17-.1c.14-9.89,1.58-26.78,9.65-28.78,6.25-1.54,11.29,6,15,12.79C644.33,1037.12,643.44,1043.93,640.94,1046.42Z" transform="translate(-3 2)"/><path class="cls-10" d="M632.15,1103.87" transform="translate(-3 2)"/><path d="M642,1128.88a5.64,5.64,0,0,1-1.61-.23c-7.54-2.22-13.42-24.41-16.25-37.44l7-1.53c3.12,14.35,7.9,28.25,10.74,31.55,5.68-6.34,7.27-16.86,7.28-17l7.09,1c-.08.56-2,13.8-10,21.72A6.07,6.07,0,0,1,642,1128.88Z" transform="translate(-3 2)"/></g><g id="Calque_3" data-name="Calque 3"><polygon class="cls-3" points="1043.42 523.06 1373.94 604.64 1422.87 767.73 1371.61 1315.25 1023.73 1525.75 1031.45 509.12 1043.42 523.06"/><path class="cls-3" d="M1022.89,1721.61v42.07s211.3-43.53,271.55-85.52l-23.56-118.6-244.57,26.28-3.42,135.77" transform="translate(-3 2)"/><path d="M1018.41,1771v-49.51l3.52-139.68,252.59-27.14,25,126.28-3.41,1.36c-86.19,54-269.19,84.34-271.18,85.36Zm8.95-49.34v34.72c46.11-6.31,204.3-28.4,262-81l-22.15-110.92-236.55,25.41Z" transform="translate(-3 2)"/><path class="cls-4" d="M1029,476c4.37-6.81.41-190.4,7.58-206.51s37.6-10.75,37.6-3.58-9.93,54.68-7.65,70.31,16.16,14.24,16.6,10.26c10.74-96.69,23.28-78.78,34-82.36s19.7-3.59,3.58,37.6,5.37,26.85,5.37,26.85,16.12-39.39,16.12-32.22,4.06,16.25,14.32,23.27,26.86,10.75,23.28-10.74-1.79-43,23.28-32.23,75.2-5.37,62.66,30.44-21.48,43-5.37,50.13,12.54-9,19.7,0,89.52-10.74,98.48-28.65,51.92,50.14,44.76,64.46-5.37,14.33-7.16,30.44-5.37,25.07,12.53,9,32.23-7.17,32.23,16.11,80.58-1.79,80.58,14.32-41.19,62.67-34,66.25,5.37-12.53,12.53,3.59-21.1,13.2-1.79,23.27c41.18,21.49,10.74,59.09,19.69,32.23,22.78-68.33,39.13-21.9,19.7,51.93-8.95,34-39.39,14.32-35.81,39.39s-10.74,35.81-21.49,34,5.38,34-16.11,35.81-39.39,3.58-23.28,19.7,19.7,37.6,17.91,41.18-34,26.86-30.44,34,32.23,32.23,32.23,32.23L1443,901.54l35.81,39.4s-32.23,60.87-34,77-5.37,17.9,0,37.6,14.32,148.61,12.53,152.19-57.3,12.54-17.9,39.4,32.23,26.85,17.9,37.6-25.07,17.9-25.07,17.9,1.79,3.58,3.58,19.7,12.54,39.39-8.95,41.18-41.18-16.11-21.48,7.16,39.39,25.07,16.11,35.81-32.23,17.91-32.23,17.91-23.28-39.39-28.65-19.7,10.75,37.6-1.79,53.72-28.65,43-34,43,7.16-10.74,7.16,19.7-5.37,35.81-12.53,46.55,1.79,14.33-19.7,17.91-9-10.75-26.85,16.11-35.81,32.23-46.56,21.49-28.65-43-64.46-14.33-100.27,26.86-100.27,26.86,3.58-19.69-3.58-19.69-10.74,5.37-16.11,1.79-14.49-31.92-14.49-31.92L1028,1482s33.64-21.81,42.6-18.23,18.61,28,32.58,14.9,31.88-34.6,35.46-34.6,10.74,5.38,25.06-5.37,39.57-30.87,35-36.92-9.94-13.21-8.15-20.37-14-30.89-14-30.89-10.08-40.26-18.64-39.6-22.87-40.53-31.83-35.16-19.69,9.19-20.59,3.7-8.81-16.38-21-16.3-19.23,2.79-29.12,2.33-24.46,0-24.46,0l-5.93-38.76s-1.12-24.46,10.59-25.32,16.83-23.87,38.44-7,30.92,6.76,36.11,4.65,21.3-12.84,26.68-3.89,17.9,21.49,28.64,25.07,12.54-3.58,16.12,3.58,7.68,8.22,10.11,14.85,23.91,3,27.49,10.22-10.74,21.48,7.16,23.27,27.31,15.49,27.09,24.76-1.91,17.27,7,18.64-9.1,4.19-8.16,8.15-8,21.87,8.1,16.49,34.73-17.6,36.17-25.81,31.74-4,29.12-18.64-26-35.58-11.65-46.59,28.73-16.39,34.1-23.55,10.68-33.78,12.5-42.85-4.13-14.43,10.48-19.81,34.32-62.68,34.32-62.68-24,7.75-7.52-21.19,2.14-80.87,2.14-80.87,0,9,7.17-26.86-12.54-48.34-17.91-64.45,26.86-9,26.86-39.4-23.28-69.83-23.28-73.41,5.37-25.06,8.95-35.81,0-34-8.95-37.6-17.9-39.39-19.69-46.55-16.12-46.56-23.28-46.56-25.07-39.39-32.23-50.13-7.16-23.28-21.49-19.7-53.71-39.39-57.29-43-14.33-21.49-35.81-16.11-44.77-26.86-51.93-26.86-26.86-9-34,1.79,5.37,7.16-17.91,14.32-25.06-3.58-37.6,0-20.57,5.3-25.06,0A60.29,60.29,0,0,1,1029,476Z" transform="translate(-3 2)"/><path d="M1064.33,1640.17c-1.55,0-2.52,0-2.81,0l-5.21-.15.93-5.13c1-5.7,1.09-12.3.18-14.4a17.38,17.38,0,0,0-5.14,1.41c-3.26,1.27-7.72,3-12.81-.39-6-4-13.38-25.3-16.27-34.27l-.23-.72,2.4-106.72,1.88-1.29c10.17-7,34.93-22.89,45-18.87,3.85,1.54,7.15,5.24,10.64,9.15,3.81,4.26,8.13,9.09,11.88,9.26,1.64.09,3.39-.79,5.34-2.62,5.49-5.15,11.76-11.79,17.29-17.64,13.9-14.72,17.52-18.16,21.23-18.16a15.2,15.2,0,0,1,3.69.6c3.77,1,8.94,2.24,18.69-5.08,28.89-21.67,33.06-29.51,33.65-31.25-4.91-6.53-10.7-14.57-8.45-23.55.54-3-5.7-15.78-13.38-27.32l-.42-.64-.19-.75c-4.35-17.36-11-34-14.41-36.21h-.1c-6.44,0-11.59-8.55-18.06-19.31-3.14-5.23-8.89-14.79-11.71-16.22-6,3.56-16.53,8.76-22.67,5.91a7.29,7.29,0,0,1-4.19-5.59c-.61-3.77-6.94-12.56-16.42-12.56h-.1a103.86,103.86,0,0,0-14.38,1.26,77.25,77.25,0,0,1-15,1.07c-9.6-.45-24.26.67-24.4.68l-4.19-.54-1.29-42.48c-.89-3.93-3.72-18.65,1.8-26.18a10.79,10.79,0,0,1,8.16-4.49c2.47-.18,5-2.41,7.91-5,6.53-5.77,16.41-14.51,33.61-1.06,16.16,12.62,23.67,8.38,28.65,5.58a27.92,27.92,0,0,1,3-1.54c.74-.3,2-.94,3.32-1.62,7.24-3.69,22.31-11.38,28.87-.43,5.21,8.68,17,20,26.23,23.12a13,13,0,0,0,7.88.42c3.56-.74,7.62-1,10.82,5.41a27,27,0,0,0,4.53,6.32,26,26,0,0,1,5.71,8.81c1.2,1,6.39,1.74,9.52,2.16,7.36,1,15,2,17.84,7.77,2.06,4.12.74,8.7-.42,12.74-.64,2.22-1.61,5.58-1,6.52.08.12.9,1.16,5,1.57,20.72,2.07,31.38,18.36,31.11,29.32,0,1.22-.08,2.42-.13,3.58-.42,9.14.16,10,3.33,10.52,1.57.25,5.75.89,6.24,4.84s-3.16,5.51-6.68,7a41.35,41.35,0,0,0-3.86,1.77,29.63,29.63,0,0,1-.8,5.07c-.38,1.83-1.15,5.46-.86,6.92a10.62,10.62,0,0,0,3.81-.76c16.44-5.49,32.25-17.06,33.17-22.34,1.12-6.38,8.62-8.06,15.88-9.67,11-2.45,13.85-4,13.25-7.41-.78-4.31-4.09-10-7.29-15.43-6.78-11.55-15.2-25.93-2.68-35.51a185.59,185.59,0,0,1,18.67-12.2c6.49-3.85,12.09-7.18,14.57-10.48,3.12-4.16,7-17.88,11.64-40.78l0-.27a22.54,22.54,0,0,0,.24-5.72c-.3-7,.48-12.76,13.09-17.4,7.87-2.9,20.91-30.8,29.17-53.08-3.14-.12-6.52-1-8.81-3.85-5.34-6.56.46-17,4.09-25,12.13-26.51,4.33-66.91,2.14-75.81a6.54,6.54,0,0,1-.58-2.84V965.17l4.77,17.29c.69-3.22,1.52-7.15,2.48-12,4.76-23.84-3.17-36.49-10.16-47.65-3-4.84-5.9-9.41-7.61-14.52-3.57-10.72,4.86-15.12,11-18.34,7.68-4,15.62-8.16,15.62-22.47,0-21.67-12.88-49.25-19.07-62.51-3.33-7.12-4.2-9.07-4.2-10.9,0-4.7,6-27.59,9.18-37.22s-.75-29.78-6.37-32c-3-1.21-11.08-4.43-22.38-49.63-2.31-9.26-14.42-39.65-19.54-43.19-6.31-.56-12.36-9.92-26.54-36.41-3.46-6.46-6.72-12.57-8.8-15.69a67.34,67.34,0,0,1-5-9.26c-3.82-8.17-5.09-10.23-11.72-8.57s-20.21-.91-59.93-42.47c-.77-.81-1.32-1.39-1.62-1.69-.63-.63-1.29-1.43-2.13-2.44-4.74-5.75-13.58-16.46-29.43-12.49-16.49,4.13-33-10.09-43.89-19.5-3.46-3-7.76-6.7-9.35-7.23a46.47,46.47,0,0,1-8.67-1.47c-7.53-1.71-17.85-4.05-21.4,1.27-1.81,2.73-1.87,3.89-1.91,4.82-.26,5.72-2.68,6.46-18.4,11.3-14.83,4.56-22,2.41-27.75.68-3.58-1.08-6-1.79-9.94-.65-11.28,3.22-22.94,6.55-29.71-1.41a18.47,18.47,0,0,1-4.58-14.38l.15-.91.26-.4c1.38-5.7.91-45.14.49-80-.86-71-1.11-118.21,3-127.47,5.39-12.14,20.88-14.9,33-12.33,8.37,1.78,13.17,5.63,13.17,10.57,0,2.59-.85,8-2.48,18.28-2.65,16.55-6.64,41.57-5.21,51.39.63,4.29,2.31,7.22,4.86,8.46a5.44,5.44,0,0,0,3,.55c8.78-78,18.79-84.09,33-84.32a13.69,13.69,0,0,0,3.87-.4c3.52-1.17,10.84-3.61,15.36,1.15,3.82,4,5.71,11.92-6.19,42.33-6.69,17.1-5.84,22.09-5.45,23.17a9.48,9.48,0,0,0,3.09-1c1.14-2.76,3.81-9.13,6.59-15.42,7.68-17.31,9.48-19.79,13.68-19,1.79.35,3.88,1.94,3.88,5.26,0,6.95,4.63,14.27,12.38,19.58,5.77,3.95,12.32,5.75,14.91,4.1,1.82-1.16,2.33-4.95,1.42-10.41-3.2-19.22-1.22-31.34,6-37.05,5.5-4.32,13.38-4.33,23.41,0,7.73,3.31,18.59,3.85,29.08,4.37,15.12.75,29.4,1.46,35.52,10.56,3.5,5.2,3.68,12.1.53,21.1-3.06,8.75-5.93,15.85-8.23,21.55-7.82,19.34-7.19,19.62.45,23,5.94,2.64,7.22,1.31,8.7-.23,1.09-1.15,2.94-3.07,5.85-2.93s5,2.19,6.66,4.26c3.28,1.82,21.27.71,45.95-6.09,27.57-7.6,42.56-16.31,45.19-21.57a9.22,9.22,0,0,1,6.43-5.26,11.72,11.72,0,0,1,7.63,1.32c9.51,4.76,20.77,20.42,28.15,33.5,5.94,10.53,15.22,29.6,10.56,38.91-5.13,10.26-5.29,12.3-5.88,19.89-.19,2.35-.42,5.28-.83,9-.24,2.15-.51,4.18-.76,6-.19,1.45-.41,3.05-.56,4.48,1.45-1.09,3.51-2.78,6.41-5.39,12.82-11.54,22.32-9.89,26.83-7.88,8.18,3.65,12.87,13.6,12.87,27.32a3.18,3.18,0,0,0,1,2.56c5.25,4.9,25.31,3.48,40,2.44,19.32-1.37,31.44-2,36.83,3.08a8.34,8.34,0,0,1,2.72,6.24c0,9-8.82,22.88-21.28,41.56-3.5,5.25-7.81,11.71-10.62,16.57a5.76,5.76,0,0,1,1.56,0c3.58.39,5.74,3.79,8.47,9.93,5,11.28-3.23,16.86-6.76,19.24l-.16.11c.72.46,1.71,1,3.11,1.77,10.09,5.27,16.29,11.51,19.94,17.7,6.69-14.74,13.28-21,20-19,14.81,4.41,12.5,49.49,1.7,90.53-5.33,20.23-18.25,24-26.8,26.54-7.74,2.27-10.07,3-8.91,11.08,2.69,18.79-4.12,28.64-8.42,32.84a21.59,21.59,0,0,1-17,6.38,57.88,57.88,0,0,0-.1,7.31c.26,10.09.71,27-16.11,28.39-6.62.55-24.21,2-25.38,5,0,0-.2,2,4.9,7.08,16.42,16.42,22,39.88,18.74,46.35-.9,1.81-3.14,3.79-9.46,9.26-5.4,4.66-19.51,16.85-20.72,21.22,3.06,5,19.67,20.56,30.92,30.4L1488,877l-38.14,25.42,34.42,37.87-1.47,2.78c-8.85,16.72-32.13,62.87-33.52,75.39-.5,4.44-1.11,7.78-1.65,10.73-1.4,7.56-2.16,11.72,1.52,25.2,3.55,13,7.86,66.81,9.09,83,3.46,45.26,4.51,69.62,3.12,72.4-1.18,2.36-3.59,3.22-9.41,5.31-6.9,2.48-21.27,7.64-22.07,13.94-.47,3.67,3.82,8.8,12.1,14.44,24.46,16.67,31.18,23.09,31.25,29.84.07,5.5-4.49,8.77-9.78,12.56-1.07.76-2.21,1.58-3.4,2.48-10,7.51-18.37,13.33-22.5,16.17a136.78,136.78,0,0,1,2.77,17.35c.36,3.21,1.1,6.76,1.89,10.52,2.21,10.59,4.51,21.55-1,29-2.91,3.9-7.59,6.15-13.91,6.67-7.56.63-14.74-.91-20.34-2.46.57.69,1.2,1.45,1.9,2.27a126.71,126.71,0,0,0,17.2,16.4c6.49,5.36,11.17,9.23,10.46,14.68-.64,5-5.7,8.28-13.08,11.69-22.33,10.3-31.23,17.27-31.32,17.34l-4,3.19-2.62-4.41c-7-11.83-16.17-22.59-19.55-23a6.36,6.36,0,0,0-.93,2.2c-2.06,7.55-.51,14.88,1.14,22.65,2.27,10.77,4.63,21.91-3.71,32.64-4.05,5.2-8.54,11.63-12.88,17.85-7.46,10.69-12.45,17.64-16.32,21.79,1.94,3.9,3.28,10.24,3.28,20.28,0,29.48-5.16,37.07-11.69,46.68l-1.6,2.35a18.86,18.86,0,0,0-2.82,6.92c-1.76,7.51-4.88,10.42-19.86,12.92-8,1.33-12,.42-14.37-.27-.79,1.1-2,3-3.36,5.07-1.53,2.37-3.51,5.43-6.14,9.38-11.67,17.52-24.08,27.39-35.88,28.56a21.2,21.2,0,0,1-17.56-6.39c-1.61-1.6-3.32-3.6-5.13-5.72-11.54-13.48-25.89-30.25-53.37-8.27C1131.93,1638.52,1077.45,1640.17,1064.33,1640.17Zm-6.27-28.68a7.71,7.71,0,0,1,6,2.83c3.23,3.87,3.23,11.41,2.71,16.85,15.6-.3,63.9-3.11,92.34-25.86,34.24-27.4,54.75-3.43,65.76,9.44,1.7,2,3.3,3.85,4.66,5.21a12.34,12.34,0,0,0,10.35,3.81c8.78-.87,19.46-9.84,29.31-24.61,2.61-3.91,4.56-6.93,6.07-9.27,5.35-8.29,7-10.8,12.85-9,1.59.49,4.25,1.31,10.93.2,11.63-1.94,11.9-3.08,12.61-6.13a27.31,27.31,0,0,1,4.1-9.84c.55-.84,1.1-1.64,1.63-2.43,6.11-9,10.15-14.92,10.15-41.64,0-8.67-1-13.09-1.91-15.27a6.45,6.45,0,0,1-4.13-.82,5.05,5.05,0,0,1-2.46-4.33c0-3.41,3.42-6,7.26-5.53,4-4.15,10.7-13.81,15.89-21.25,4.41-6.31,9-12.83,13.15-18.22,5.79-7.45,4.12-15.32,2-25.29-1.71-8.07-3.64-17.22-1-26.86,1.79-6.54,5.45-8.36,8.2-8.73,9-1.21,20,13.56,26.1,23.21,4.78-3.14,14-8.63,29-15.57,5.63-2.6,7.33-4.08,7.84-4.68-.81-1.41-4.31-4.3-7.16-6.66a135.88,135.88,0,0,1-18.33-17.52c-7.83-9.25-10.91-13.16-8.34-17.08,2.35-3.58,6.46-2.34,11.67-.77s13.28,4,21.2,3.34c3.7-.31,6.15-1.33,7.47-3.11,3.11-4.16,1.15-13.51-.58-21.76-.79-3.8-1.61-7.73-2-11.36-1.61-14.41-3.14-18.18-3.21-18.33l-1.77-3.53,3.36-2c.11-.07,10.82-7.23,24.86-17.76,1.25-.94,2.45-1.8,3.57-2.6,2.32-1.67,5.84-4.19,6-5.18.09-2.52-9.11-10.11-27.35-22.55-11.68-8-16.89-15.47-15.94-23,1.5-11.73,17.41-17.44,27.94-21.22,1.41-.51,3.06-1.1,4.2-1.56.3-16.36-7.61-130-12.62-148.35-4.22-15.45-3.21-20.92-1.69-29.18.52-2.8,1.1-6,1.56-10.1,1.67-15,26.18-62.69,33-75.8l-37.2-40.92,37.1-24.73c-8.77-7.84-25.82-23.54-28.92-29.73-3.75-7.51,6.73-17.36,23.13-31.54,2.76-2.38,6.14-5.3,7.24-6.5.51-4-3.1-22.11-17-36-4.09-4.09-9.26-10.25-7-16.49,3.06-8.33,17-9.49,33-10.83,7.22-.6,8.24-6.17,7.9-19.24-.17-6.67-.31-11.95,3.12-14.93a7.27,7.27,0,0,1,6.2-1.6,12.47,12.47,0,0,0,10.51-3.8c3.08-3,7.94-10.28,5.81-25.17-2.26-15.79,7.45-18.64,15.24-20.93,8.18-2.4,16.63-4.89,20.67-20.23,12.25-46.55,8.75-76.45,4.49-79.59-.89.4-5.81,3.48-13.14,23.2a28.32,28.32,0,0,1-1.81,14.43c-2.76,6.05-6.67,5.07-7.8,4.63-5.58-2.2-2.83-10.44-1.35-14.87.6-1.79,1.19-3.52,1.78-5.17-1.28-6-5.68-14.57-19.3-21.68-5.4-2.82-9.05-5.51-9.27-9.46s2.92-6.07,5.45-7.78c4.2-2.84,5.41-4.1,3.59-8.19-.47-1-.87-1.89-1.21-2.58a7.64,7.64,0,0,1-9.24,1.19,5.93,5.93,0,0,1-3.08-3.82c-1.32-5,2.79-11.75,14.86-29.85,8.27-12.41,19.58-29.36,19.77-36.41-2.93-2.48-19.82-1.29-30-.57-19.85,1.4-38.6,2.73-46.7-4.82a12.15,12.15,0,0,1-3.9-9.11c0-9.88-2.83-17-7.56-19.14-4.32-1.92-10.58.4-17.2,6.35-8.78,7.9-13.72,11.26-18.08,9s-3.72-7.73-2.63-15.88c.24-1.8.5-3.77.73-5.85.4-3.61.62-6.46.8-8.74.69-8.83,1.14-11.88,6.81-23.21,2.44-4.89-6.26-26.78-19.9-45.34-9.84-13.38-15.42-15.74-16.57-15.62,0,0-.13.18-.29.51-8.17,16.35-59.74,30.26-83.94,32.82-15.79,1.68-20.08-.93-22-3.38l-.07-.09c-3.47,3.27-8.45,5.61-18,1.38-16.17-7.18-12.24-16.9-5.11-34.55,2.26-5.61,5.08-12.59,8.08-21.15,2.12-6.06,2.29-10.48.49-13.14-3.62-5.38-16.28-6-28.53-6.62-11.29-.56-23-1.14-32.17-5.09-4.66-2-10.94-3.82-14.36-1.14-4.21,3.3-5.21,13.7-2.74,28.52,1.6,9.58-.23,16.12-5.43,19.44-7.09,4.52-17.45.76-24.79-4.26a39.08,39.08,0,0,1-13.82-15.95c-2.94,6.29-6.72,15-9.94,22.9l-.52,1.27-1.14.76c-1.5,1-9.25,5.75-14.76,1.32s-4.72-14.49,2.73-33.53c11-28.11,8.37-32.5,8-32.91-.11,0-1.28-.4-6,1.18a21.09,21.09,0,0,1-6.56.86c-4.15.07-6.89.11-10.59,7.85-5.33,11.16-9.85,34-13.84,69.9-.42,3.81-4.16,6.53-9.08,6.61-7,.17-14.69-5-16.4-16.71-1.63-11.17,2.34-36,5.23-54.09,1.12-7,2.19-13.71,2.35-16.29-1.52-1.36-8-3.71-15.77-2.9-3.85.41-10.68,1.94-13.24,7.72-3.63,8.17-9.26,72.92-8.67,121.69.73,60.56-3.37,77.59-5,83,0,.91,10.43,6,13,9s8.63,2,20.42-1.4c6.52-1.86,10.82-.57,15,.69,5.07,1.52,10.31,3.1,22.54-.67,5-1.52,10-3.09,12.13-4,.14-1.72.64-4.48,3.37-8.57,7-10.45,21.32-7.19,30.82-5a42.79,42.79,0,0,0,6.92,1.25c4.08,0,8.18,3.54,15,9.4,10.08,8.69,23.88,20.59,35.87,17.59,21.35-5.34,33.37,9.25,38.51,15.48.63.76,1.22,1.48,1.55,1.82s.92.94,1.76,1.82c38.76,40.55,49.53,40.41,51.29,40,14.06-3.51,18.46,5.9,22,13.47a60.57,60.57,0,0,0,4.29,8.09c2.33,3.48,5.54,9.48,9.25,16.42,5.12,9.56,15.68,29.28,19.79,31.74,4.39.3,9.1,4.68,17.22,23.25,4.81,11,8.89,22.74,9.87,26.67,8.06,32.24,14.65,42.54,17,43.48,12.52,5,15.37,31.68,11.54,43.18-3.62,10.88-8.32,30.17-8.7,34,.42,1.21,1.9,4.38,3.34,7.46,7,14.91,19.91,42.65,19.91,66.3,0,19.74-12.29,26.16-20.42,30.41-7.25,3.78-7.65,4.61-6.66,7.57,1.36,4.09,3.83,8,6.69,12.59,7.49,12,16.82,26.83,11.35,54.16-2.14,10.72-3.86,18.53-5.12,23.24a33.41,33.41,0,0,1-1.39,4.38c2.8,11.53,11.83,54.87-3.29,81.44-6.82,12-5,14.85-4.93,14.88.66.82,4.36.73,7.19-.16l8.47-2.68-2.87,8.4c-3.41,9.9-21.19,59.6-37,65.42-7.48,2.76-7.42,4.12-7.23,8.62a31.63,31.63,0,0,1-.41,7.87l-.06.27c-3.41,17-8,37.38-13.25,44.39-3.54,4.71-9.55,8.28-17.16,12.8a177.19,177.19,0,0,0-17.8,11.61c-5.37,4.11-2.94,10.4,5,23.87,3.6,6.15,7.32,12.5,8.38,18.39,2.28,12.73-11.2,15.73-20.11,17.72-3,.66-7.86,1.75-9.07,2.79-2.33,11.18-24.09,24-39.1,29-2.1.7-8.47,2.83-12.68-.94s-2.9-10.63-1.86-15.56a29.2,29.2,0,0,0,.62-3.43c-.75-3.65,1.72-6,4.76-7.69-4.37-4.1-4.05-11.1-3.8-16.62.05-1.11.11-2.24.13-3.4.18-7.29-7.93-18.68-23-20.19-5.65-.57-9.42-2.35-11.52-5.46-3-4.41-1.46-9.74-.22-14,.6-2.09,1.51-5.26,1-6.25-.76-1.52-7.71-2.46-11-2.91-7.15-1-14.53-2-16.66-7.77a17,17,0,0,0-4-6.1,35,35,0,0,1-5.86-8.29c-.17-.33-.31-.58-.42-.76l-.57.12a21.93,21.93,0,0,1-12.54-.69c-11.63-3.88-24.93-16.78-31.07-27-2.27-3.78-12.69,1.54-17.13,3.81-1.57.8-2.93,1.49-4,1.93a20.92,20.92,0,0,0-2,1.06c-6.18,3.48-17.69,10-38.55-6.34-11.34-8.86-15.65-5-22.17.72-3.62,3.19-7.71,6.81-13.19,7.21a1.88,1.88,0,0,0-1.59.86c-2.46,3.35-8.38,6.11-7,11.9l2.31,6.93v32.36c4.62,6.93,19.34,2.77,26,3.08a69.14,69.14,0,0,0,13.32-1,110.66,110.66,0,0,1,15.57-1.35h.15c13.94,0,23.17,11.64,25,19,2-.09,6.91-1.43,14.1-5.74,8.65-5.2,15.88,6.82,23.53,19.55,3.11,5.16,8.25,13.71,10.65,15,6-.21,11,6.63,16.69,22.53,3.1,8.62,5.39,17.17,6,19.72,5.26,8,16.18,25.84,14.19,33.81-1.28,5.12,3.31,11.22,7.37,16.6a7.41,7.41,0,0,1,1.36,5.66c-.42,2.94-1.52,10.74-37.25,37.53-13.17,9.88-21.67,7.75-26.23,6.61l-.93-.23c-2.66,1.85-9.63,9.23-15.31,15.24s-12,12.7-17.68,18c-3.75,3.52-7.77,5.2-11.86,5-7.51-.33-13.17-6.66-18.15-12.24-2.53-2.83-5.4-6-7.3-6.79-3.52-1.31-25.65,8.79-40.93,19.07v96c4.06,12.47,13.93,29,16.47,31.06,1.06.7,1.53.65,4.56-.53A23.67,23.67,0,0,1,1058.06,1611.49Zm266.4-107.67Zm-184.71-55.47Zm108.18-123.6h0Zm0-.3Zm12.81-4.26Zm-102.42-4.81h0ZM1453,1206.65h0Zm1.35-2.17Zm20.33-395.93ZM1349.09,631.91ZM1150.84,476.26Zm132.48-122.1Z" transform="translate(-3 2)"/><path class="cls-7" d="M1204,1058.22s39.39,21.48,64.46,59.08,73.41-53.71,73.41-80.57-17.9-78.78-43-55.51S1193.25,1033.15,1204,1058.22Z" transform="translate(-3 2)"/><path d="M1282.52,1130.74c-5.66,0-12.14-2.48-17.79-11-24.13-36.2-62.5-57.44-62.88-57.65l-1.36-.74-.61-1.42c-8.55-20,24.38-38.55,56.22-56.53,16.11-9.1,31.33-17.69,39.74-25.51,9.34-8.66,17.5-7.77,22.72-5.5,18.49,8.06,27.78,45.56,27.78,64.29,0,22.54-30.08,84.73-57.5,93A22.09,22.09,0,0,1,1282.52,1130.74Zm-74.83-75.58c7.72,4.48,41.62,25.37,64.48,59.66,5.29,7.93,10.57,7.44,14.08,6.38,22.72-6.88,51.14-65.5,51.14-84.47,0-18.65-9.41-50.42-22.41-56.09-1.5-.65-6-2.64-13,3.86-9.18,8.54-24.85,17.38-41.43,26.74C1235.62,1025.29,1204.86,1042.66,1207.69,1055.16Z" transform="translate(-3 2)"/><path d="M1029.79,1188l-4.76,1.72-2.31-11.56,7.07.89c23.33,0,32.16-15.66,33.71-24.91a7.35,7.35,0,0,1,3-4.92c4.16-3,10.74-1.81,19.85-.24,14.83,2.57,26.41,3.87,29.19-4.47,3.11-9.32-6.25-14.79-20.88-22.06-8.13-4-15.81-7.87-19.7-13.32-9.29-13-11.27-117.75-11.57-138.62l9-.13c.73,50.72,4.29,125.69,9.91,133.55,2.59,3.63,9.61,7.12,16.4,10.5,13.89,6.91,31.18,15.51,25.38,32.91-5.44,16.3-24.95,12.93-39.21,10.47-4.21-.73-10.4-1.8-12.69-1.39C1069.81,1168.56,1058.46,1188,1029.79,1188Z" transform="translate(-3 2)"/><path d="M1269.94,748.83a208.14,208.14,0,0,1-18.13-11.16c-20.9-13.91-40.64-27-95.5-18.81-70.59,10.59-128.09,23.16-128.55,23.27l-2-8.72c.45-.11,58.27-12.76,129.25-23.4,58.27-8.75,80.4,6,101.79,20.2a202.72,202.72,0,0,0,17.36,10.71Z" transform="translate(-3 2)"/><path d="M1322.37,804.68c-8.15-3.1-15.41-6.57-22.44-9.93-26.37-12.61-51.26-24.51-120.46-17-88,9.49-150.79,20-151.35,20.06l-1.49-8.83c.57-.09,63.56-10.61,151.88-20.13,71.72-7.73,99,5.28,125.28,17.87,6.86,3.28,14,6.67,21.76,9.64Z" transform="translate(-3 2)"/><path class="cls-5" d="M1111,946.37s39.48-69.47,120-17.37l34.74,30S1134.69,1056.9,1111,946.37Z" transform="translate(-3 2)"/><path d="M1167.45,1003a63.55,63.55,0,0,1-22.41-3.79c-19.34-7.26-32.11-24.76-38-52l-.32-1.49.75-1.32c.67-1.17,16.65-28.73,49.17-36.68,23.48-5.75,49.22.28,76.49,17.92l.44.34,38.51,33.25-4,3C1265.55,964.14,1212.91,1003,1167.45,1003Zm-52.19-55.91c5.36,23.51,16.32,38.52,32.59,44.63,38.14,14.32,95.68-22.25,111.41-33l-30.66-26.48c-25.22-16.26-48.74-21.89-69.92-16.75C1133.27,921.64,1118.68,941.85,1115.26,947.1Z" transform="translate(-3 2)"/><circle class="cls-6" cx="1173.24" cy="948.31" r="36.71"/><path class="cls-2" d="M1037.32,1366.9l1.16-15.53,12,2.28,1.79,17.91,17.91-3.58-5.37-16.12h12.53l4.21,11.16,26.23-.41s-25.07,14.32-26.86,14.32-44.76,3.58-44.76,3.58Z" transform="translate(-3 2)"/><path d="M1032.28,1384.43l1.47-17.81,1.46-19.52,18.61,3.53,1.66,16.64,10.06-2-5.66-17h20l4.19,11.12,37.63-.59-12.09,6.9c-25.89,14.8-27.54,14.8-28.63,14.8-1.69,0-27.52,2.16-44.47,3.57ZM1039,1353l-1,24c11.21-.93,38.23-3.39,42.43-3.63,1.55-.59,6.89-3.42,13.31-7L1081,1366l-5-14h-11l7,18-21,6-2-21Zm42,20.35h0Z" transform="translate(-3 2)"/><polygon class="cls-2" points="1036.26 1312.78 1038.05 1344.6 1064.91 1341.7 1064.91 1306.99 1036.26 1312.78"/><path d="M1037.69,1346.56l-2.18-38.68,36-7.26v42.3Zm5.32-32.89,1.41,25,19.91-2.14v-27.12Z" transform="translate(-3 2)"/><path class="cls-7" d="M1028.24,1289.26a48.46,48.46,0,0,1,50.41.92C1101.17,1304,1135,1333,1145.37,1342a.74.74,0,0,1-.75,1.24c-19.27-7.38-104.42-39-113.27-26.26C1021.36,1331.36,1028.24,1289.26,1028.24,1289.26Z" transform="translate(-3 2)"/><path d="M1144.89,1346.84a4.21,4.21,0,0,1-1.55-.29c-9.94-3.8-35.72-13.43-60.27-20.59-43.35-12.65-48.35-7.59-48.78-7-1,1.44-4,5.82-8,4.21-2.19-.88-6.74-2.72-1.55-34.52l.26-1.54,1.31-.87c1-.68,25.78-16.61,54.26.86,22.81,14,57.19,43.45,67.19,52.14a4.32,4.32,0,0,1-2.83,7.57Zm-103.6-36.45c8.24,0,21.62,2.23,43.79,8.7,16.37,4.77,33.27,10.63,45.74,15.16-14.81-12.47-37.58-30.92-54-41-21.35-13.09-42.71-6-47.78-3.23-1.24,8.06-1.09,19.88-1,25C1029.89,1313.19,1034.7,1310.39,1041.29,1310.39Z" transform="translate(-3 2)"/><path class="cls-7" d="M1025,1410.46s110.92,7.65,121.66-64c0,0-103.73,23.53-121.66,23.53Z" transform="translate(-3 2)"/><path d="M1150.24,1347c-4.63,30.83-27.37,52.28-65.78,62a200.61,200.61,0,0,1-47.76,5.69c-5,0-8-.19-8.42-.22l-3.2-.21-2.09-48.12h3.74c17.32,0,114-23.67,115-23.91l5.78-1.15M1028,1407c17.08.42,101.1-.23,114.15-55.81-20.11,4.53-92.32,18.87-114.15,20.81Z" transform="translate(-3 2)"/><rect x="258.83" y="961.23" width="1534.5" height="8.04" transform="translate(54.71 1990.39) rotate(-89.83)"/><path class="cls-8" d="M1094.36,881.21l142.14-8.09s46.22-4.62,52,5.78-27.73,18.49-46.22,18.49-146.76-3.47-146.76-3.47S1080.5,884.68,1094.36,881.21Z" transform="translate(-3 2)"/><path d="M1242.28,900.28c-18.32,0-145.56-3.44-146.84-3.47l-.77,0-.67-.41c-2.16-1.33-9.17-6.11-8.33-11.53.47-3.07,3.16-5.24,8-6.44l.54-.09,142.07-8.08c8.18-.82,48.39-4.19,54.75,7.25a7.54,7.54,0,0,1-.1,7.75C1285.11,895.11,1256.16,900.28,1242.28,900.28Zm-145.88-9.23c10.92.3,128.4,3.45,145.88,3.45,15.93,0,40-5.91,43.66-12.19a1.76,1.76,0,0,0,0-2c-3-5.39-27.86-6.44-49.18-4.3h-.13l-141.85,8.08c-2.61.69-3.37,1.47-3.43,1.65C1091.22,886.55,1093.57,889.16,1096.4,891.05Z" transform="translate(-3 2)"/><path class="cls-7" d="M1421.08,1010.13s20.8-94.46,74-47.23c0,0,19.64,58.12,8.08,95.66s-8.08,100.51-25.42,93.25-46.22-6.06-46.22-35.12S1421.08,1010.13,1421.08,1010.13Z" transform="translate(-3 2)"/><path d="M1480.32,1156.62a10.48,10.48,0,0,1-4.12-.88,102.23,102.23,0,0,0-13-4c-15.94-4.21-35.78-9.45-35.78-35,0-28.43-10.25-105.2-10.36-106l-.1-.78.17-.77c.47-2.13,11.81-52.27,40-62.08,12.56-4.36,26.18-.13,40.49,12.58l.83.74.37,1.07c.82,2.43,20,59.92,8.12,98.39-4.29,13.94-6.52,32-8.49,48-3.34,27.07-5.61,42.62-13.41,47.42A9,9,0,0,1,1480.32,1156.62Zm-55.13-146.27c1.17,8.79,10.33,78.58,10.33,106.34,0,17.7,11.21,21.94,29.67,26.82a108.63,108.63,0,0,1,14,4.36c1.14.48,1.55.22,1.77.08,4.77-2.93,7.39-24.15,9.49-41.2,2-16.31,4.29-34.8,8.82-49.49,10.15-33-5.16-83.86-7.71-91.87-11.67-10.09-22.38-13.54-31.85-10.25C1437.45,962.87,1426.66,1004.3,1425.19,1010.35Z" transform="translate(-3 2)"/><path d="M1442.37,1012.43c-.34-1.46-3.14-14.52,3.55-22.76,3.39-4.18,8.42-6.21,14.94-6.07,23.4.53,25.15,13.88,25.22,14.45l-8,.9,0,.13c-.06-.28-1.51-7-17.39-7.4-3.92-.08-6.72.92-8.47,3.09-4.27,5.25-2,15.72-2,15.83Z" transform="translate(-3 2)"/><path d="M1466.37,1061.26a6.21,6.21,0,0,1-2.73-.6c-3.07-1.48-4.25-4.9-3.5-10.15,1.91-13.37-7.23-19-7.32-19.07l4.16-6.94c.57.34,13.83,8.53,11.17,27.15-.05.33-.08.62-.1.88a55.25,55.25,0,0,0,10.49-8.85l5.88,5.55C1476.87,1057.23,1470.81,1061.26,1466.37,1061.26Z" transform="translate(-3 2)"/><path class="cls-11" d="M1427.19,1116.65s15.2,33.61,17.81,22c1.57-7,4.7-13.64,10.66-16.85,15.84-8.54-10.58-32.49-10.58-32.49v-61s-16.83-17.88,0-30.51-16.83-42.08-16.83-42.08l-10.48,24.15-9.56-14.59-7.09,37.31s5.8,30.21,4.37,48.48.89,21.84-4.6,24.58" transform="translate(-3 2)"/><polygon class="cls-4" points="1441.03 956.64 1430.51 970.32 1417.84 998.96 1407.36 988.59 1411.52 950.62 1432.63 941.91 1441.03 956.64"/><path class="cls-12" d="M1122,1085s185,165,122,197" transform="translate(-3 2)"/></g></g></svg>