<svg xmlns="http://www.w3.org/2000/svg" xmlns:xlink="http://www.w3.org/1999/xlink" viewBox="0 0 652.78 652.78"><defs><style>.cls-1{fill:#ffb0b0;}.cls-2{fill:url(#Dégradé_sans_nom);}.cls-3{fill:url(#Dégradé_sans_nom_2);}.cls-4{fill:url(#Dégradé_sans_nom_3);}.cls-5{fill:#bf312b;}.cls-6{fill:url(#Dégradé_sans_nom_4);}.cls-10,.cls-7{fill:#ff8383;}.cls-7{opacity:0.88;isolation:isolate;}.cls-8{fill:url(#Dégradé_sans_nom_5);}.cls-9{fill:#ff8d8d;}.cls-11{fill:url(#Dégradé_sans_nom_6);}.cls-12{fill:#ed5b54;}.cls-13{fill:url(#Dégradé_sans_nom_7);}.cls-14{fill:url(#Dégradé_sans_nom_8);}.cls-15{fill:url(#Dégradé_sans_nom_9);}.cls-16{fill:url(#Dégradé_sans_nom_10);}.cls-17{fill:url(#Dégradé_sans_nom_11);}.cls-18{fill:url(#Dégradé_sans_nom_12);}.cls-19{fill:#b74e4e;}.cls-20{fill:#a82020;}.cls-21{fill:url(#Dégradé_sans_nom_13);}.cls-22{fill:url(#Dégradé_sans_nom_14);}.cls-23{fill:url(#Dégradé_sans_nom_15);}.cls-24{fill:#b53333;}.cls-25{fill:#c16868;}.cls-26{fill:url(#Dégradé_sans_nom_16);}.cls-27{fill:#ff7d7d;}.cls-28{fill:#ea7d7d;}.cls-29{fill:#ff908d;}</style><linearGradient id="Dégradé_sans_nom" x1="2366.99" y1="1517.61" x2="3000.21" y2="2641.39" gradientTransform="translate(-2138 -1406)" gradientUnits="userSpaceOnUse"><stop offset="0" stop-color="#ff908d"/><stop offset="0.4" stop-color="#f67570"/><stop offset="0.74" stop-color="#ed5b54"/></linearGradient><linearGradient id="Dégradé_sans_nom_2" x1="2463.31" y1="1728.81" x2="2463.31" y2="1768.66" gradientTransform="translate(-2138 -1406)" gradientUnits="userSpaceOnUse"><stop offset="0" stop-color="#fb8682"/><stop offset="0.15" stop-color="#fb726b"/><stop offset="0.26" stop-color="#ed5b54"/><stop offset="1" stop-color="#fb8581"/></linearGradient><linearGradient id="Dégradé_sans_nom_3" x1="2640.85" y1="1618.81" x2="2640.85" y2="1599.04" gradientTransform="translate(-2138 -1406)" gradientUnits="userSpaceOnUse"><stop offset="0" stop-color="#bf312b"/><stop offset="0.17" stop-color="#c3352f"/><stop offset="0.35" stop-color="#cf423c"/><stop offset="0.53" stop-color="#e35851"/><stop offset="0.7" stop-color="#fb726b"/><stop offset="0.94" stop-color="#cc3f39"/><stop offset="1" stop-color="#bf312b"/></linearGradient><linearGradient id="Dégradé_sans_nom_4" x1="2621" y1="1917.55" x2="2621" y2="1902.11" gradientTransform="translate(-2138 -1406)" gradientUnits="userSpaceOnUse"><stop offset="0" stop-color="#ed5b54"/><stop offset="0.29" stop-color="#e55650"/><stop offset="0.74" stop-color="#d04745"/><stop offset="1" stop-color="#c13d3d"/></linearGradient><linearGradient id="Dégradé_sans_nom_5" x1="2682.81" y1="1707.51" x2="2726.73" y2="1785.44" xlink:href="#Dégradé_sans_nom"/><linearGradient id="Dégradé_sans_nom_6" x1="2464.7" y1="1626.01" x2="2464.7" y2="1649.51" gradientTransform="translate(-2138 -1406)" gradientUnits="userSpaceOnUse"><stop offset="0" stop-color="#ff8383"/><stop offset="0.14" stop-color="#f87370"/><stop offset="0.34" stop-color="#f0615b"/><stop offset="0.48" stop-color="#ed5b54"/><stop offset="0.61" stop-color="#f0615b"/><stop offset="0.81" stop-color="#f87270"/><stop offset="0.96" stop-color="#ff8383"/></linearGradient><linearGradient id="Dégradé_sans_nom_7" x1="2619.33" y1="1910.97" x2="2619.33" y2="1902.11" xlink:href="#Dégradé_sans_nom_4"/><linearGradient id="Dégradé_sans_nom_8" x1="2575.19" y1="1844.64" x2="2688.23" y2="1767.24" gradientTransform="translate(-2138 -1406)" gradientUnits="userSpaceOnUse"><stop offset="0" stop-color="#ed5b54"/><stop offset="0.47" stop-color="#eb5952"/><stop offset="0.68" stop-color="#e4534c"/><stop offset="0.83" stop-color="#d74741"/><stop offset="0.95" stop-color="#c63731"/><stop offset="0.99" stop-color="#bf312b"/></linearGradient><linearGradient id="Dégradé_sans_nom_9" x1="2341.16" y1="1628.93" x2="2341.16" y2="1622.15" gradientTransform="translate(-2138 -1406)" gradientUnits="userSpaceOnUse"><stop offset="0" stop-color="#ff7871"/><stop offset="0.06" stop-color="#fc736c"/><stop offset="0.26" stop-color="#f3655e"/><stop offset="0.52" stop-color="#ee5d56"/><stop offset="1" stop-color="#ed5b54"/></linearGradient><linearGradient id="Dégradé_sans_nom_10" x1="2548.48" y1="1813.84" x2="2557.79" y2="1803.55" xlink:href="#Dégradé_sans_nom"/><linearGradient id="Dégradé_sans_nom_11" x1="2549.31" y1="1838.19" x2="2574.27" y2="1838.19" gradientTransform="translate(-2138 -1406)" gradientUnits="userSpaceOnUse"><stop offset="0" stop-color="#ff908d"/><stop offset="1" stop-color="#ed5b54"/></linearGradient><linearGradient id="Dégradé_sans_nom_12" x1="2559.34" y1="1869.48" x2="2579.72" y2="1869.48" xlink:href="#Dégradé_sans_nom_11"/><radialGradient id="Dégradé_sans_nom_13" cx="2527.41" cy="1774.61" r="45.63" gradientTransform="matrix(1, 0.04, -0.04, 0.83, -2084.33, -1237.63)" gradientUnits="userSpaceOnUse"><stop offset="0" stop-color="#ed5b54"/><stop offset="0.3" stop-color="#ee5f58"/><stop offset="0.61" stop-color="#f26b65"/><stop offset="0.92" stop-color="#f97e79"/><stop offset="1" stop-color="#fb8480"/></radialGradient><linearGradient id="Dégradé_sans_nom_14" x1="2191.74" y1="1625.53" x2="2198.22" y2="1625.53" xlink:href="#Dégradé_sans_nom_9"/><linearGradient id="Dégradé_sans_nom_15" x1="2310.44" y1="1617.87" x2="2320.85" y2="1703.11" gradientTransform="translate(-2138 -1406)" gradientUnits="userSpaceOnUse"><stop offset="0" stop-color="#ff8383"/><stop offset="0.01" stop-color="#ff8383"/><stop offset="0.62" stop-color="#f26d6b"/><stop offset="1" stop-color="#ed6562"/></linearGradient><linearGradient id="Dégradé_sans_nom_16" x1="2448.33" y1="1728.56" x2="2459.2" y2="1728.56" gradientTransform="translate(-2138 -1406)" gradientUnits="userSpaceOnUse"><stop offset="0" stop-color="#ff908d"/><stop offset="0.74" stop-color="#fb8682"/></linearGradient></defs><title>gun pour motion</title><g id="Calque_78" data-name="Calque 78"><rect class="cls-1" width="652.78" height="652.78"/></g><g id="Calque_77" data-name="Calque 77"><path class="cls-2" d="M599.22,303.18C592.39,296.78,573.7,292,573.7,292c-14.73.76-17.77-9.87-17.77-9.87l-4.4-15.2-1.52-2h1.52c-.31-3.49-3.65-12.76-3.65-12.76l.29-2.33-5-16.81-5.77-7.75-17.09-16.4H513l3,3.94-23.54-.08,3-4.1-5.77-.15v-2.26l-2.53,3.33s-15.68-.49-15.68-.61S453,204.59,453,204.59l-79.77-.08-1.76,1-1.21,3.62-1.44.84H295.91l-9.09,2.28-15.88-.07v2.35l-.27,1.8H262l-1.82-3.89-8.74-.22v2.46l-.91,1.65h-9.12v-1.49c0-.16-1.25-2.4-1.25-2.59s-8.58,0-8.58,0l-.69,2.35v1.56l-9-.12-2.21-3.72-8.54-.07-.8,2.46V216l-8.24.15s-.38-1.25-.42-1.52a22.28,22.28,0,0,0-2.31-2.35l-8.62-.08-.57,2.54v1.65h-8.33l-2.51-4.15h-8.61l-.81,2.33v1.82h-8.2v-1.82l-2.64-2.23h-8.81l-.6,2.83-.51,1.22h-6.68l-3.55-4-9.62.1v2.73l-.81,1.22h-5.16L118.47,212H99.8l-5-2.22H84.67l.91,3H64.72L69,209.77H59A6.85,6.85,0,0,0,56,211l-2.53,4.7,1.72,4.21s-2.84,24.21-2.73,26.64,2.73,11.14,2.73,11.14L68.35,292c2.54,4.56,5.27,5.06,5.27,5.06l18.23-.1h1.42l.3,1.12-.81.2-.4,8.4-1.15,3.09,1.12,4.76,16.2-.2-.1-2.94h3.14l1.21,2.84,15.4-.61.3-2,3.75-.21.71,2.64,14.88-.51.41-2,4.56-.1.5,1.93,13.78-.21v-1.72l6.48-.1.4,1.72,13.07-.6v-1.07l6.48.15.15,1.12h13v-1h7.55v2.68l3.09,2.33h8.61l-.06-5.43,8.71.11.21,3.75,2.93,1.82h7.9l.1-5.92h8.72l.76,3.14,1.85,2.17,8.14.1V311h10.15v3.77l2.21,1.52,7.38-.15V311l11-.35v4.64l.91.88,12.49-.14c5.63,2.81,11.84,18.09,11.84,18.09,3.11,4,1,29.84-.49,31.65s-1.06,3.12-1.06,3.12c-.63,3.49,5,2.92,5,2.92l63.84.46c28.2-15.66,30.83,17.31,30.83,17.31l17.11,80.87s-6.08,17.76-7.29,19.85-.31,2.48-.31,2.48c3.35,2,1.37,3.49,1.37,3.49,6.11,6.42,126.39.92,127.45,0,2-1.72,5.47-5,5.47-5a60.12,60.12,0,0,0,.46-9s0-22.18-2.13-34.94-16.25-50.59-16.25-50.59c-10.64-14.73-20.82-44-20.82-44-7.44-45,32.82-45.72,32.82-45.72l39.19-.61C600.74,305.32,599.22,303.18,599.22,303.18ZM397,360.85c-2,3.58-13.5,6.28-13.5,6.28s-40.83.27-47.58.3-7.55-7.58-7.55-7.58V335.77c2.25-8.62,3.53-8.86,3.53-8.86,7.27-2.58,9-12.61,9-12.61a26.5,26.5,0,0,1,12.39-4.36h23.48a23.93,23.93,0,0,1,9.86,3.75c8.89,2.33,16.6,14.77,16.6,14.77C407.89,349.14,399,357.27,397,360.85Z"/></g><g id="Calque_76" data-name="Calque 76"><path class="cls-3" d="M319,323.47l11.09-.66,1.53,4.3a16.68,16.68,0,0,0-3,7.79c-1.24,8.57.56,27.76.56,27.76h-7.7s2.81-15.66.41-25.59S319,323.47,319,323.47Z"/></g><g id="Calque_75" data-name="Calque 75"><path class="cls-4" d="M489.7,208.48V205.1L504.81,193h6.84a11.44,11.44,0,0,1,1.35,4.53c.45,3.23,0,11.3,0,11.3l3,3.94-23.52,0,3-4.1Z"/></g><g id="Calque_74" data-name="Calque 74"><path class="cls-5" d="M540.38,229.27l3.7.4,1.45,1.21,1.51-.8,1.3.8,1.51-1.29,1.68.84,1.06-1.16,1.59.47,1.3-1.36,1.51.83,1.37-1.9,1.75.31.68-1.14h2s1.52-3.65,4.63-2.59a5.52,5.52,0,0,1,5,4,4.61,4.61,0,0,1-2.12,5.88c-.22,0-11.62,9.87-18.76,31.14l-3.65-12.76.29-2.33-5-16.81Z"/></g><g id="Calque_73" data-name="Calque 73"><path class="cls-5" d="M69,209.67l-4.25,3H85.61l-.91-3,4.46-.51v-1.82l-15.8-9.52s-5.27.4-6.28,5.67v5.67Z"/></g><g id="Calque_72" data-name="Calque 72"><path class="cls-6" d="M430.15,496.11l-4.58,5.47s-.23,7.35,3.57,8.76,27.65,1.2,27.65,1.2l82-1.5a2.41,2.41,0,0,0,1.57-2.89,48.15,48.15,0,0,0-2.23-7.15h-3.24v-2.37l-87.36.79S433.5,498,430.15,496.11Z"/></g><g id="Calque_71" data-name="Calque 71"><polygon class="cls-7" points="390.81 226.99 523.19 226.48 539.17 282.38 405.82 282.89 390.81 226.99"/></g><g id="Calque_70" data-name="Calque 70"><path class="cls-5" d="M390.81,227l16,55.9h-1S392.07,235.91,390.81,227Z"/></g><g id="Calque_69" data-name="Calque 69"><path class="cls-5" d="M401.85,227l16,55.9h-1S403.12,235.91,401.85,227Z"/></g><g id="Calque_68" data-name="Calque 68"><path class="cls-5" d="M413,227l16,55.9h-1S414.3,235.91,413,227Z"/></g><g id="Calque_67" data-name="Calque 67"><path class="cls-5" d="M423.75,227l16,55.9h-1S425,235.91,423.75,227Z"/></g><g id="Calque_66" data-name="Calque 66"><path class="cls-5" d="M434.65,227l16,55.9h-1S435.92,235.91,434.65,227Z"/></g><g id="Calque_65" data-name="Calque 65"><path class="cls-5" d="M446.06,227l16,55.9h-1S447.33,235.91,446.06,227Z"/></g><g id="Calque_64" data-name="Calque 64"><path class="cls-5" d="M457.11,226.48l16,55.9h-1S458.38,235.4,457.11,226.48Z"/></g><g id="Calque_63" data-name="Calque 63"><path class="cls-5" d="M468.16,226.48l16,55.9h-1S469.43,235.4,468.16,226.48Z"/></g><g id="Calque_62" data-name="Calque 62"><path class="cls-5" d="M479.34,226.48l16,55.9h-1S480.61,235.4,479.34,226.48Z"/></g><g id="Calque_61" data-name="Calque 61"><path class="cls-5" d="M490.06,226.48l16,55.9h-1S491.32,235.4,490.06,226.48Z"/></g><g id="Calque_60" data-name="Calque 60"><path class="cls-5" d="M501,226.48l16,55.9h-1S502.23,235.4,501,226.48Z"/></g><g id="Calque_59" data-name="Calque 59"><path class="cls-5" d="M512.37,226.48l16,55.9h-1S513.64,235.4,512.37,226.48Z"/></g><g id="Calque_58" data-name="Calque 58"><path class="cls-5" d="M523.19,226.48l16,55.9h-1S524.45,235.4,523.19,226.48Z"/></g><g id="Calque_57" data-name="Calque 57"><path class="cls-8" d="M520.36,353s-5.14-49.36,38.31-55.14c0,0,27.64-4,40.55,5.31,0,0-.45,1.38-2.88,3l-39.19.61s-40.41.76-32.82,45.72Z"/></g><g id="Calque_56" data-name="Calque 56"><polygon class="cls-9" points="67.61 210.64 85.01 210.64 84.71 209.67 69.01 209.67 67.61 210.64"/></g><g id="Calque_55" data-name="Calque 55"><path class="cls-10" d="M462,207.77l-90.83.43a3.61,3.61,0,0,1,2.06-3.63l79.06.08Z"/></g><g id="Calque_54" data-name="Calque 54"><path class="cls-10" d="M55.24,258.07l303.32-1.44s6.94-4.33,9.49-18.61a20.29,20.29,0,0,0,4.45-8.5l-1.29-21.34s-1.32,2.23-4.88,1.37l-70.12.23s-4.1,1.17-9.38,2.49L271,212.2v2.35l-.27,1.8H262l-1.82-3.89-8.74-.22v2.46l-.91,1.65h-9.12v-1.49l-1.25-2.59h-8.58l-.69,2.35v1.56l-9-.12-2.21-3.72-8.54-.07-.8,2.46V216l-8.34-.23-.32-1.18-2.31-2.35-8.62-.08-.57,2.54v1.65h-8.33l-2.51-4.15h-8.61l-.81,2.33v1.82h-8.2v-1.78l-2.64-2.23h-8.81l-.6,2.83-.51,1.22h-6.68l-3.55-4-9.62.1v2.73l-.81,1.22h-5.16L118.47,212H99.8l-5-2.22H84.67l.91,3H64.72L69,209.77H59A9.56,9.56,0,0,0,56,211l-2.53,4.7,1.72,4.21-2.73,26.64Z"/></g><g id="Calque_53" data-name="Calque 53"><path class="cls-11" d="M297.12,220.57s1.89,17.75-15.94,21.3l82.42-.5a17.74,17.74,0,0,0,8.62-10.87v-11Z"/></g><g id="Calque_52" data-name="Calque 52"><path class="cls-12" d="M90.79,294.15l172.79-.45s37.94,0,46.06,20c0,0-8-10.9-27.11-15.53a36.69,36.69,0,0,0-9.28-1.08l-180,.89Z"/></g><g id="Calque_51" data-name="Calque 51"><path class="cls-13" d="M430.15,496.11l-4.58,5.47s2.3,3.8,17.34,3.35l94.18-1.1s-69.91-.58-85.69-1.49c0,0-3.8,1.59-7.88-2.34C443.52,500,432.88,500.22,430.15,496.11Z"/></g><g id="Calque_50" data-name="Calque 50"><path class="cls-12" d="M423,307.57h49.88s6.55-.88,6.5-4.55V285.33l21.62.29L520.4,353l4-.45s9.73,27.65,14.51,31.67c0,0,20.89,41.1,24.23,73.15l.91,21.88s.15,4.25-7.29,3.33l-96.46,1s-6.19-.53-7.12-5.54a23.68,23.68,0,0,0-12-7,62.9,62.9,0,0,1-10-2.63s.64-10-12.5-13.17c0,0-2.28-1.18-.65-2.32s13.63-9.79.26-36.07c0,0-2.85-5.23-10.33-5.77,0,0-3.34-1.52,0-3.65,0,0,8.87-4.07,7.4-15.86,0,0,.52-2.07,4.08-2.22s11.31.61,12.83-12.3l-11.39-65.63a2.82,2.82,0,0,1,1.52-3.66A3,3,0,0,1,423,307.57Z"/></g><g id="Calque_49" data-name="Calque 49"><path class="cls-5" d="M476.15,286.38s-.27-2,3.19-1.05V303s.59,3.52-6.5,4.55H423s-2.64.21-2.09,3.71c0,0,11.4,65.7,11.41,65.74a12.33,12.33,0,0,1-.76-1.44c-.08-.2-11.12-65.33-11.18-65.56-.32-1.21-.3-2.84,2-3.13l47.9-.36s6.28.15,6.18-2.33Z"/></g><g id="Calque_48" data-name="Calque 48"><path class="cls-14" d="M426.5,321.88s59.71-7.52,79.53,22.82,47.91,107,48.15,137.92l-93.95,1s-9.07-21.28-21.42-24.83c-12-3.45-18.33-2.64-18.33-2.64s-5.34-2.08-2.44-3.22c0,0,9.16,1.24,16.6-4.38s10.57-7.13,16.76-20.7c0,0,0-11.65-13.35-20l-7.6-.92s7.7-4.55,10.28-13.06S426.5,321.88,426.5,321.88Z"/></g><g id="Calque_47" data-name="Calque 47"><path class="cls-15" d="M109.41,217.34l187.5-1.19s-.7,4.33-9.31,5.83c-7.9,1.38-178.19.85-178.19.85S110.93,218.88,109.41,217.34Z"/></g><g id="Calque_46" data-name="Calque 46"><path class="cls-12" d="M92.61,304.77l204.46-1.11a15.91,15.91,0,0,1,7.63,5.1l-212.89.41Z"/></g><g id="Calque_45" data-name="Calque 45"><path class="cls-16" d="M415.42,395.17s-.85,9.47-8.28,12.69c0,0,9.87,0,15.87-3.42,0,0-8-1-6.46-12.69l4.79-1.71h-2.28l-2.89,1.07Z"/></g><g id="Calque_44" data-name="Calque 44"><path class="cls-17" d="M411.31,411.5s10.33-.91,14.89,1.42,13.46,22.83,8.71,30c0,0-2,5.7-4.83,8.22,0,0-7.14,2.56-12,1.77a47.23,47.23,0,0,0,5.79-8.75l.35-10.19s-2.84-12.12-5.21-15.79C419,418.16,415.77,413.43,411.31,411.5Z"/></g><g id="Calque_43" data-name="Calque 43"><path class="cls-18" d="M421.34,456.05s9,.3,14.09,1.8l6.29,13.07s-2.56-2.53-10.19-2.54C431.53,468.38,431.78,460.29,421.34,456.05Z"/></g><g id="Calque_42" data-name="Calque 42"><path class="cls-19" d="M377,309.37s7.91,31.7-6.4,47.67c0,0-1.12,4.06,1.4,4,1.89-.09,5-2.62,5-2.62A34.21,34.21,0,0,0,391.27,338V323s1-4.18,1.47-4.63S377,309.37,377,309.37Z"/></g><g id="Calque_41" data-name="Calque 41"><path class="cls-5" d="M378.5,309.92s8.4,33.21-7.12,48.41c0,0-1.72,1.76,0,2.52s7.12-1.93,7.12-1.93a34.23,34.23,0,0,0,14.28-20.44v-15s1.37-4,1.47-4.63C394.56,316.84,378.5,309.92,378.5,309.92Z"/></g><g id="Calque_40" data-name="Calque 40"><path class="cls-5" d="M112.89,285.34v-28l1.47-14.22,246.88-1.83s7.43-3.79,9.57-10.38L370.7,210l.51-1.83,1,.25.17,21.69s-1.72,8.7-11.76,13.07L117.82,245l-1.22,12.3s-.3,28.26.15,28a22.8,22.8,0,0,1-2.12,2.05Z"/></g><g id="Calque_39" data-name="Calque 39"><polygon class="cls-20" points="116.6 258.68 112.89 258 112.89 285.34 114.64 287.39 116.76 285.34 116.6 258.68"/></g><g id="Calque_38" data-name="Calque 38"><path class="cls-21" d="M385,367.43l8.91-4c.44-.24,10.26-6.66,10.54-7.08,1.22-1.78,5-6.94,8.6-8.52,0,0,6.38-11.76,2-23.5,0,0-6.79-17.21-24.26-15.16,0,0-2.53-4.33-13.5-4s-24.91,1.27-24.91,1.27-10.57,1.65-13.36,7.23-8.92,9.1-8.92,9.1,1.22,3,1,4.23,7.84-3.76,9.56-11.91c0,0,6-9.58,32.93-5.21,23.79,3.87,30.26,21.13,30.26,21.13S411.07,358.34,385,367.43Z"/></g><g id="Calque_37" data-name="Calque 37"><path class="cls-22" d="M53.92,216.16l4.36.25s3,3.72,1.52,5.11l-1.52,1.39H54.63a3.82,3.82,0,0,0-.2-4.4C53.27,216.83,53.92,216.16,53.92,216.16Z"/></g><g id="Calque_36" data-name="Calque 36"><path class="cls-23" d="M296.75,216v3.16s1.29,18.38-15.62,22.73l-228.78.38,2.23-19.34H274S295.92,224,296.75,216Z"/></g><g id="Calque_35" data-name="Calque 35"><polygon class="cls-19" points="393.82 294.28 444.95 291.06 445.45 286.46 473.89 282.89 473.89 288.93 470.63 290.85 471.02 302.33 466.61 303.55 393.82 305.96 393.82 294.28"/></g><g id="Calque_34" data-name="Calque 34"><circle class="cls-5" cx="414.71" cy="359.33" r="6.5"/></g><g id="Calque_33" data-name="Calque 33"><circle class="cls-5" cx="325.73" cy="311.03" r="7.48"/></g><g id="Calque_32" data-name="Calque 32"><circle class="cls-5" cx="393.82" cy="300.12" r="5.84"/></g><g id="Calque_31" data-name="Calque 31"><circle class="cls-5" cx="325.42" cy="290.85" r="10.16"/></g><g id="Calque_30" data-name="Calque 30"><polygon class="cls-24" points="325.41 290.01 315.61 290.01 315.61 291.7 335.21 291.8 335.21 290.01 325.41 290.01"/></g><g id="Calque_29" data-name="Calque 29"><polygon class="cls-25" points="413.7 297.02 469.95 293.62 469.15 295.32 413.7 297.02"/></g><g id="Calque_28" data-name="Calque 28"><polygon class="cls-25" points="419.37 299.35 468.77 296.98 468.16 298.16 419.37 299.35"/></g><g id="Calque_27" data-name="Calque 27"><path class="cls-25" d="M425.08,301.06l43-1.65-.5,1.65Z"/></g><g id="Calque_26" data-name="Calque 26"><path class="cls-25" d="M419.37,304.41c.75,0,47.86-2.36,47.86-2.36v1Z"/></g><g id="Calque_25" data-name="Calque 25"><polygon class="cls-5" points="470.63 290.85 471.02 302.33 466.8 303.5 419.37 305.12 419.37 304.4 467.23 302.04 470.63 290.85"/></g><g id="Calque_24" data-name="Calque 24"><path class="cls-26" d="M309.64,313.67s8.44,8.16,10.55,17.78c0,0-5.39-12.47-10.87-15.58Z"/></g><g id="Calque_23" data-name="Calque 23"><path class="cls-27" d="M461.42,218.12l45.67-.91,7.79,30.56-47,9.28s-5.27.91-7.2-2.94-5.24-15.58-4.19-27.18C456.54,226.94,456.85,218.22,461.42,218.12Z"/></g><g id="Calque_22" data-name="Calque 22"><path class="cls-28" d="M464.12,224.13l6.73.71a1.9,1.9,0,0,1,1.71,2.09v0h0a1.93,1.93,0,0,1-2.12,1.72h0l-6.72-.71a1.93,1.93,0,0,1-1.72-2.12h0a1.92,1.92,0,0,1,2.11-1.71Z"/></g><g id="Calque_21" data-name="Calque 21"><rect class="cls-28" x="463.91" y="246.49" width="10.5" height="3.81" rx="1.9" transform="translate(-54.43 160.88) rotate(-18.41)"/></g><g id="Calque_20" data-name="Calque 20"><path class="cls-19" d="M462,230.68l45-13.47s11.17-.86,16.64,11.08-8.8,19.48-8.8,19.48L464,245.32S452.76,240.77,462,230.68Z"/></g><g id="Calque_19" data-name="Calque 19"><path class="cls-25" d="M487.58,239.77l-20.82,5.45s-5.1.15-7.29-5.75,4.51-9.21,4.51-9.21l23,2.42S492.05,235.17,487.58,239.77Z"/></g><g id="Calque_18" data-name="Calque 18"><circle class="cls-5" cx="508.83" cy="231.97" r="8.98"/></g><g id="Calque_17" data-name="Calque 17"><circle class="cls-5" cx="485.45" cy="249.82" r="2.33"/></g><g id="Calque_16" data-name="Calque 16"><rect class="cls-24" x="499.87" y="230.83" width="17.83" height="2.01"/></g><g id="Calque_15" data-name="Calque 15"><polygon class="cls-12" points="202.59 310.15 203.21 312.42 206.65 312.42 206.94 311.28 202.59 310.15"/></g><g id="Calque_14" data-name="Calque 14"><polygon class="cls-12" points="100.58 310.11 101.73 314.35 108.11 314.35 108.64 312.23 100.58 310.11"/></g><g id="Calque_13" data-name="Calque 13"><polygon class="cls-12" points="120.49 309.78 121.63 314.02 128 314.02 128.55 311.9 120.49 309.78"/></g><g id="Calque_12" data-name="Calque 12"><polygon class="cls-12" points="140.31 309.66 141.38 313.67 147.42 313.67 147.93 311.67 140.31 309.66"/></g><g id="Calque_11" data-name="Calque 11"><polygon class="cls-12" points="161.88 310.07 162.68 313.03 167.13 313.03 167.51 311.55 161.88 310.07"/></g><g id="Calque_10" data-name="Calque 10"><polygon class="cls-12" points="182.69 309.94 183.41 312.63 187.45 312.63 187.79 311.28 182.69 309.94"/></g><g id="Calque_9" data-name="Calque 9"><path class="cls-12" d="M223.4,309.66s-.45,5.53,0,5.53a13.52,13.52,0,0,1,2.66,1.6v-5.51Z"/></g><g id="Calque_8" data-name="Calque 8"><polygon class="cls-12" points="243.53 309.66 243.53 315.12 245.35 316.18 245.81 310.94 243.53 309.66"/></g><g id="Calque_7" data-name="Calque 7"><polygon class="cls-12" points="263.74 309.19 263.74 314.35 265.25 316.18 265.25 310.84 263.74 309.19"/></g><g id="Calque_6" data-name="Calque 6"><polygon class="cls-12" points="283.91 309.19 283.91 314.81 284.62 315.49 285 310.84 283.91 309.19"/></g><g id="Calque_5" data-name="Calque 5"><polygon class="cls-12" points="118.28 212.5 118.28 215.15 107.35 215.15 109.41 217.34 284.03 216.15 280.22 215.15 271.56 214.92 271.48 216.15 261.99 215.98 260.2 212.21 260.24 214.78 251.48 215.1 250.27 216.15 241.71 216.15 240.04 212.21 239.88 214.78 230.85 214.78 230.7 216.15 221.88 215.98 219.76 212.21 219.53 214.78 211.1 214.78 211.1 216.15 201.98 216.15 199.71 212.21 199.71 215.15 190.67 215.15 189.38 216.15 181.81 215.98 179.5 212.21 178.89 215.15 170.16 215.15 169.93 216.15 161.96 215.98 158.99 212.21 158.84 214.78 149.5 214.78 149.27 216.15 142.74 215.98 138.71 212.58 138.64 215.08 129.45 214.78 129.37 216.15 122.69 216.15 118.28 212.5"/></g><g id="Calque_4" data-name="Calque 4"><path class="cls-5" d="M462.46,233.36s-.51-3,1.72-3.34,21.27.81,21.27.81,2.32.71,2.32,4.26Z"/></g><g id="Calque_3" data-name="Calque 3"><polygon class="cls-24" points="462.41 234.17 487.77 235.08 487.72 234.17 462.41 232.84 462.41 234.17"/></g><g id="Calque_2" data-name="Calque 2"><path class="cls-29" d="M125.9,559.56v59.36H114v-5q-4.64,5.6-13.44,5.6a22.39,22.39,0,0,1-11-2.72,19.48,19.48,0,0,1-7.72-7.76,25.76,25.76,0,0,1,0-23.36A19.48,19.48,0,0,1,89.54,578a22.39,22.39,0,0,1,11-2.72q8.24,0,12.88,5.2V559.56Zm-15.36,46.52a13.63,13.63,0,0,0,0-17.36,11.2,11.2,0,0,0-15.76,0,13.63,13.63,0,0,0,0,17.36,11.2,11.2,0,0,0,15.76,0Z"/><path class="cls-29" d="M179.34,600.92H146.78a10.1,10.1,0,0,0,4.16,6.32,13.75,13.75,0,0,0,8.16,2.32,16.48,16.48,0,0,0,6-1,14.59,14.59,0,0,0,4.84-3.16l6.64,7.2q-6.09,7-17.76,7a28.11,28.11,0,0,1-12.88-2.84,20.84,20.84,0,0,1-8.64-7.88,21.67,21.67,0,0,1-3-11.44,22,22,0,0,1,3-11.4,20.93,20.93,0,0,1,8.24-7.92,25.51,25.51,0,0,1,23.16-.12,19.85,19.85,0,0,1,8,7.8,23.34,23.34,0,0,1,2.92,11.8Q179.58,597.8,179.34,600.92Zm-29.2-13.84a10.2,10.2,0,0,0-3.52,6.56h21.2a10.34,10.34,0,0,0-3.52-6.52,10.51,10.51,0,0,0-7-2.44A10.74,10.74,0,0,0,150.14,587.08Z"/><path class="cls-29" d="M191.9,618.24a27.43,27.43,0,0,1-8.16-3.32l4.16-9a26,26,0,0,0,7,3,29.32,29.32,0,0,0,8,1.16q7.92,0,7.92-3.92a2.77,2.77,0,0,0-2.16-2.64A32.09,32.09,0,0,0,202,602.2a64,64,0,0,1-8.72-1.84,13.46,13.46,0,0,1-6-3.68q-2.52-2.64-2.52-7.52a11.75,11.75,0,0,1,2.36-7.24A15.09,15.09,0,0,1,194,577a29.43,29.43,0,0,1,10.68-1.76,41.69,41.69,0,0,1,9.08,1,25.57,25.57,0,0,1,7.48,2.76l-4.16,8.88a24.88,24.88,0,0,0-12.4-3.2,12.56,12.56,0,0,0-6,1.12,3.29,3.29,0,0,0-2,2.88,2.86,2.86,0,0,0,2.16,2.8,38.46,38.46,0,0,0,6.88,1.52,73.65,73.65,0,0,1,8.64,1.88,13,13,0,0,1,5.84,3.64,10.34,10.34,0,0,1,2.48,7.36,11.36,11.36,0,0,1-2.4,7.12,15.38,15.38,0,0,1-7,4.84,31.14,31.14,0,0,1-10.92,1.72A41.75,41.75,0,0,1,191.9,618.24Z"/><path class="cls-29" d="M272.3,600.92H239.74a10.1,10.1,0,0,0,4.16,6.32,13.73,13.73,0,0,0,8.16,2.32,16.48,16.48,0,0,0,6-1,14.59,14.59,0,0,0,4.84-3.16l6.64,7.2q-6.09,7-17.76,7a28.11,28.11,0,0,1-12.88-2.84,20.72,20.72,0,0,1-8.64-7.88,21.67,21.67,0,0,1-3-11.44,22,22,0,0,1,3-11.4,20.93,20.93,0,0,1,8.24-7.92,25.51,25.51,0,0,1,23.16-.12,19.85,19.85,0,0,1,8,7.8,23.34,23.34,0,0,1,2.92,11.8Q272.54,597.8,272.3,600.92Zm-29.2-13.84a10.2,10.2,0,0,0-3.52,6.56h21.2a10.34,10.34,0,0,0-3.52-6.52,10.51,10.51,0,0,0-7-2.44A10.74,10.74,0,0,0,243.1,587.08Z"/><path class="cls-29" d="M298.82,576.84a22.33,22.33,0,0,1,8.76-1.6v11.52c-1.39-.11-2.32-.16-2.8-.16q-5.36,0-8.4,3t-3,9v20.32H280.86v-43h11.92v5.68A13.9,13.9,0,0,1,298.82,576.84Z"/><path class="cls-29" d="M344.3,616.84a12.71,12.71,0,0,1-4.52,2,23.05,23.05,0,0,1-5.64.68q-7.68,0-11.88-3.92t-4.2-11.52V586.44h-6.64v-9.6h6.64V566.36h12.48v10.48h10.72v9.6H330.54V604a5.9,5.9,0,0,0,1.4,4.2,5.17,5.17,0,0,0,4,1.48,8,8,0,0,0,5-1.6Z"/><path class="cls-29" d="M415.9,600.92H383.34a10.14,10.14,0,0,0,4.16,6.32,13.77,13.77,0,0,0,8.16,2.32,16.44,16.44,0,0,0,6-1,14.49,14.49,0,0,0,4.84-3.16l6.64,7.2q-6.08,7-17.76,7a28.14,28.14,0,0,1-12.88-2.84,20.84,20.84,0,0,1-8.64-7.88,21.67,21.67,0,0,1-3-11.44,22,22,0,0,1,3-11.4,21,21,0,0,1,8.24-7.92,25.51,25.51,0,0,1,23.16-.12,19.85,19.85,0,0,1,8,7.8,23.23,23.23,0,0,1,2.92,11.8Q416.14,597.8,415.9,600.92Zm-29.2-13.84a10.24,10.24,0,0,0-3.52,6.56h21.2a10.34,10.34,0,0,0-3.52-6.52,10.51,10.51,0,0,0-7-2.44A10.74,10.74,0,0,0,386.7,587.08Z"/><path class="cls-29" d="M456,580q5.36,4.75,5.36,14.36v24.56H449.66v-5.36q-3.53,6-13.12,6a20.36,20.36,0,0,1-8.6-1.68,12.83,12.83,0,0,1-5.56-4.64,12.06,12.06,0,0,1-1.92-6.72,11.22,11.22,0,0,1,4.52-9.44q4.51-3.44,14-3.44h9.92a8,8,0,0,0-2.48-6.28q-2.47-2.21-7.44-2.2a21.72,21.72,0,0,0-6.76,1.08,17.89,17.89,0,0,0-5.64,2.92l-4.48-8.72a27.22,27.22,0,0,1,8.44-3.84,37.66,37.66,0,0,1,10.12-1.36Q450.63,575.24,456,580Zm-10.64,29.68a8.11,8.11,0,0,0,3.52-4.36v-4.4H440.3q-7.68,0-7.68,5a4.49,4.49,0,0,0,1.88,3.8,8.48,8.48,0,0,0,5.16,1.4A10.84,10.84,0,0,0,445.34,609.68Z"/><path class="cls-29" d="M517.5,575.88v35.84q0,11.84-6.16,17.6t-18,5.76a45.14,45.14,0,0,1-11.84-1.52,25.83,25.83,0,0,1-9.28-4.4l5-9a20.47,20.47,0,0,0,6.88,3.56,27.38,27.38,0,0,0,8.32,1.32q6.48,0,9.56-2.92c2.05-1.95,3.08-4.89,3.08-8.84v-1.84q-4.87,5.35-13.6,5.36a22.87,22.87,0,0,1-10.84-2.6,19.77,19.77,0,0,1-7.8-7.32,22,22,0,0,1,0-21.76,19.77,19.77,0,0,1,7.8-7.32,22.87,22.87,0,0,1,10.84-2.6q9.36,0,14.24,6.16v-5.52ZM502,603.68a10.82,10.82,0,0,0,0-15.28,11.48,11.48,0,0,0-8.12-2.92,11.61,11.61,0,0,0-8.16,2.92,10.72,10.72,0,0,0,0,15.28,11.61,11.61,0,0,0,8.16,2.92A11.48,11.48,0,0,0,502,603.68Z"/><path class="cls-29" d="M529.1,559.56h12.48v59.36H529.1Z"/><path class="cls-29" d="M595.1,600.92H562.54a10.14,10.14,0,0,0,4.16,6.32,13.77,13.77,0,0,0,8.16,2.32,16.44,16.44,0,0,0,6-1,14.49,14.49,0,0,0,4.84-3.16l6.64,7.2q-6.07,7-17.76,7a28.14,28.14,0,0,1-12.88-2.84,20.84,20.84,0,0,1-8.64-7.88,21.67,21.67,0,0,1-3-11.44,22,22,0,0,1,3-11.4,21,21,0,0,1,8.24-7.92,25.51,25.51,0,0,1,23.16-.12,19.85,19.85,0,0,1,8,7.8,23.23,23.23,0,0,1,2.92,11.8Q595.34,597.8,595.1,600.92Zm-29.2-13.84a10.24,10.24,0,0,0-3.52,6.56h21.2a10.34,10.34,0,0,0-3.52-6.52,10.51,10.51,0,0,0-7-2.44A10.74,10.74,0,0,0,565.9,587.08Z"/></g></svg>