<?xml version="1.0" encoding="utf-8"?>
<!-- Generator: Adobe Illustrator 24.0.0, SVG Export Plug-In . SVG Version: 6.00 Build 0)  -->
<svg version="1.1" xmlns="http://www.w3.org/2000/svg" xmlns:xlink="http://www.w3.org/1999/xlink" x="0px" y="0px"
	 viewBox="0 0 872.4 303.7" style="enable-background:new 0 0 872.4 303.7;" xml:space="preserve">
<style type="text/css">
	.st0{fill:#FFFFFF;}
	.st1{fill:#0F0071;}
	.st2{fill:none;}
	.st3{fill:#0823D3;}
	.st4{fill:#4040D4;}
	.st5{fill:#413FD4;}
	.st6{fill:#0A22D3;}
</style>
<g id="Calque_2">
	<rect x="283.5" y="86.5" class="st0" width="180.7" height="161.7"/>
</g>
<g id="Calque_9">
	<title>jouer entier</title>
	<polygon class="st1" points="339,1.3 347.5,7.9 360.3,0.7 502.5,1.8 360.6,0 347.8,7.1 339.3,0.6 96.1,2.3 6.1,62.8 6.1,63.9 
		95.8,3.3 	"/>
	<polygon class="st1" points="193.7,293.2 193.8,293.2 193.6,293 	"/>
	<line class="st2" x1="382.8" y1="140.7" x2="383.1" y2="140.7"/>
	<path class="st3" d="M241.7,192.3c5.3,0.2,10.4-2,13.9-5.9c3.5-3.9,5.3-9.1,5.3-15.7s-1.8-11.8-5.3-15.8s-8.1-6-13.9-6
		c-5.3-0.2-10.5,2-14,6c-3.6,4-5.3,9.3-5.3,15.8s1.8,11.7,5.3,15.7S235.9,192.3,241.7,192.3z"/>
	<polygon class="st4" points="397.7,64 433.2,64.7 435.9,68.3 442.4,77.2 458.9,65.5 485.4,65.7 485.5,65.7 768.5,68.2 826.8,32.9 
		818.8,27.1 843.8,23.4 872.4,4.2 642.1,3.3 617.7,9.1 601.5,1.5 502.5,1.8 360.3,0.7 347.5,7.9 339,1.3 95.8,3.3 6.1,63.9 
		5.6,64.2 6.1,64.2 	"/>
	<polygon class="st5" points="364.5,111.7 366.3,109.1 363.6,110.7 	"/>
	<path class="st0" d="M125.8,230.7c6.8,0.1,13.6-1.5,19.7-4.6c5.7-3,10.6-7.5,14-13c2-3.1,3.4-6.6,4.2-10.2c1-5,1.4-10.1,1.3-15.2
		v-74.4h-41.2v63.2c0,7.8-0.6,12.8-1.5,15c-1.1,2.3-3.1,3.4-6.1,3.4c-1.9-0.1-3.8-0.7-5.4-1.8c-2.4-1.6-4.5-3.5-6.4-5.6L91,218.2
		c4.8,4.1,10.2,7.3,16.1,9.5C113.1,229.7,119.4,230.8,125.8,230.7z"/>
	<path class="st0" d="M217.7,226.3c15.4,6,32.5,6,47.9,0c7.4-2.9,14.1-7.3,19.8-12.8c5.6-5.5,10-12.1,13-19.3
		c3-7.4,4.5-15.4,4.5-23.4c0-8-1.5-16-4.4-23.5c-6.1-14.7-17.9-26.3-32.7-32.1c-15.5-5.9-32.6-5.9-48.1,0
		c-7.4,2.9-14.1,7.2-19.8,12.8c-5.6,5.4-10,11.9-12.9,19.1c-5.9,15.2-5.9,31.9,0,47.1c2.9,7.2,7.3,13.7,12.9,19.1
		C203.5,218.9,210.3,223.4,217.7,226.3z M227.7,154.9c3.5-4,8.7-6.2,14-6c5.8,0,10.4,2,13.9,6c3.5,4,5.3,9.2,5.3,15.8
		s-1.8,11.8-5.3,15.7c-3.5,3.9-8.6,6.1-13.9,5.9c-5.8,0-10.5-1.9-14-5.9s-5.3-9.2-5.3-15.7S224.1,158.9,227.7,154.9z"/>
	<path class="st2" d="M265.8,115.2c-15.5-5.9-32.6-5.9-48.1,0c-7.4,2.9-14.1,7.2-19.8,12.8c-5.6,5.4-10,11.9-12.9,19.1
		c-5.9,15.2-5.9,31.9,0,47.1c2.9,7.2,7.3,13.7,12.9,19.1c5.6,5.6,12.4,10.1,19.8,13c15.4,6,32.5,6,47.9,0
		c7.4-2.9,14.1-7.3,19.8-12.8c5.6-5.5,10-12.1,13-19.3c3-7.4,4.5-15.4,4.5-23.4c0-8-1.5-16-4.4-23.5
		C292.4,132.6,280.6,121,265.8,115.2z"/>
	<path class="st2" d="M123.8,176.5c0,7.8-0.6,12.8-1.5,15c-1.1,2.3-3.1,3.4-6.1,3.4c-1.9-0.1-3.8-0.7-5.4-1.8
		c-2.4-1.6-4.5-3.5-6.4-5.6L91,218.2c4.8,4.1,10.2,7.3,16.1,9.5c6,2,12.3,3.1,18.7,3c6.8,0.1,13.6-1.5,19.7-4.6
		c5.7-3,10.6-7.5,14-13c2-3.1,3.4-6.6,4.2-10.2c1-5,1.4-10.1,1.3-15.2v-74.4h-41.2V176.5z"/>
	<path class="st2" d="M382.8,175.7c0,7.1-0.9,12-2.7,14.8s-4.7,4.2-8.8,4.2s-7.1-1.4-8.8-4.1s-2.6-7.7-2.6-15v-62.3h-41.1v62
		c-0.1,6.8,0.4,13.5,1.6,20.2c0.8,4.6,2.5,9.1,5,13.1c4.6,7.1,11.1,12.8,18.7,16.4c7.9,3.8,17,5.7,27.2,5.7c2.3,0,4.4-0.1,6.5-0.3
		l-0.1,0.2h0.4l0.4-0.1c6.6-0.6,13-2.3,19-5c6.7-3,12.5-7.7,17-13.5c0.7-0.9,1.3-1.8,1.9-2.7c2.6-4,4.4-8.5,5.3-13.2
		c1.3-6.6,1.9-13.4,1.8-20.1l0.1-11.6l0.5-50.4l-41-0.5l-0.4,19.6v2l0,0l-0.1,5.6L382.8,175.7z"/>
	<polygon class="st2" points="364.5,111.7 366.3,109.1 363.6,110.7 	"/>
	<path class="st2" d="M640.9,174.4c4-5.2,6.1-11.8,6.2-20c0.1-12.4-3.7-22-11.6-28.7s-19.3-10.1-34.3-10.3l-51.7-0.6l-1.3,114.4
		l40.4,0.2l0.4-37.7l19.6,38l46.1,0.6l-30-46.9C631.1,182.8,637,179.5,640.9,174.4z"/>
	<polygon class="st2" points="495.1,185.7 527.9,186.1 528.2,156.8 495.4,156.4 495.5,145.4 531.7,145.8 532,114.8 514.5,114.6 
		503.7,114.5 455.5,113.9 455.1,144.8 454.7,187.8 454.2,228.2 497.7,228.7 498,228.7 531.8,229.1 532.1,198.1 495,197.7 	"/>
	<path class="st3" d="M371.6,240.5l6.5-9.9h-0.4l0.1-0.2c-2.1,0.2-4.3,0.3-6.5,0.3c-10.2,0-19.3-1.9-27.2-5.7
		c-7.6-3.6-14.1-9.3-18.7-16.4c-2.5-4-4.2-8.5-5-13.1c-1.2-6.7-1.7-13.4-1.6-20.2v-62h41.1v62.3c0,7.3,0.9,12.3,2.6,15
		s4.7,4.1,8.8,4.1s7-1.4,8.8-4.2s2.7-7.7,2.7-14.8v-35l0.1-5.6l-21.5-18.8l3.1-4.5l-0.9-1l2.7-1.6L397.7,64L6.1,64.2H5.6L1.9,241.6
		l7.8,11.1L0,268.3l2.1,23.8l172.5,0.9l11.9-4.6l7.1,4.6l0.2,0.1l1.1,0.7l200.8,2.2l-0.7-1.5L371.6,240.5z M165,187.7
		c0.1,5.1-0.3,10.2-1.3,15.2c-0.8,3.6-2.2,7.1-4.2,10.2c-3.4,5.5-8.3,10-14,13c-6.1,3.1-12.9,4.7-19.7,4.6c-6.4,0.1-12.7-1-18.7-3
		c-5.9-2.2-11.3-5.4-16.1-9.5l13.4-30.7c1.9,2.1,4,4,6.4,5.6c1.6,1.1,3.5,1.7,5.4,1.8c3,0,5-1.1,6.1-3.4c0.9-2.2,1.5-7.2,1.5-15
		v-63.2H165V187.7z M298.4,194.2c-3,7.2-7.4,13.8-13,19.3c-5.7,5.5-12.4,9.9-19.8,12.8c-15.4,6-32.5,6-47.9,0
		c-7.4-2.9-14.2-7.4-19.8-13c-5.6-5.4-10-11.9-12.9-19.1c-5.9-15.2-5.9-31.9,0-47.1c2.9-7.2,7.3-13.7,12.9-19.1
		c5.7-5.6,12.4-9.9,19.8-12.8c15.5-5.9,32.6-5.9,48.1,0c14.8,5.8,26.6,17.4,32.7,32.1c2.9,7.5,4.4,15.5,4.4,23.5
		C302.9,178.8,301.4,186.8,298.4,194.2z"/>
	<path class="st6" d="M485.5,65.7L485.5,65.7l-26.6-0.2l-16.5,11.7l-6.5-8.9l-2.7-3.6L397.7,64l-31.4,45.1l-1.8,2.7l-3.1,4.5
		l21.5,18.9l0,0v-2l0.4-19.6l41,0.5l-0.6,50.4l-0.1,11.6c0.1,6.7-0.5,13.5-1.8,20.1c-0.9,4.7-2.7,9.2-5.3,13.2
		c-0.6,0.9-1.3,1.8-1.9,2.7c-4.5,5.8-10.3,10.5-17,13.5c-6,2.7-12.5,4.4-19,5l-0.4,0.1l-6.5,9.9l23.4,54.1l0.7,1.5l311.4,6l18.4-8.7
		l10.9,10.3l31.1-1.7l1-233.8L485.5,65.7z M531.8,229.1l-33.8-0.4h-0.3l-43.5-0.5l0.5-40.4l0.5-43.1l0.4-30.9l48.2,0.6l10.8,0.1
		l17.5,0.2l-0.3,31l-36.2-0.4l-0.1,11l32.8,0.4l-0.3,29.3l-32.8-0.4l-0.1,12l37.1,0.4L531.8,229.1z M608.6,229.7l-19.6-38l-0.4,37.7
		l-40.4-0.2l1.3-114.4l51.7,0.6c15,0.2,26.4,3.6,34.3,10.3c7.9,6.7,11.7,16.3,11.6,28.7c-0.1,8.2-2.2,14.8-6.2,20
		c-3.9,5.1-9.8,8.4-16.2,9l30,46.9L608.6,229.7z"/>
	<path class="st6" d="M596,145l-6.5-0.2l-0.2,22.3l6.4,0.1c3.9,0,6.9-0.9,9.1-2.7s3.2-4.6,3.3-8.1c0-3.7-1-6.5-3.1-8.4
		S599.9,145,596,145z"/>
	<polygon class="st1" points="843.8,23.4 818.8,27.1 826.8,32.9 768.5,68.2 767.5,302 871.3,237.3 872.4,4.2 	"/>
	<polygon class="st0" points="495.1,185.7 527.9,186.1 528.2,156.8 495.4,156.4 495.5,145.4 531.7,145.8 532,114.8 514.5,114.6 
		503.7,114.5 455.5,113.9 455.1,144.8 454.7,187.8 454.2,228.2 497.7,228.7 498,228.7 531.8,229.1 532.1,198.1 495,197.7 	"/>
	<path class="st0" d="M640.9,174.4c4-5.2,6.1-11.8,6.2-20c0.1-12.4-3.7-22-11.6-28.7s-19.3-10.1-34.3-10.3l-51.7-0.6l-1.3,114.4
		l40.4,0.2l0.4-37.7l19.6,38l46.1,0.6l-30-46.9C631.1,182.8,637,179.5,640.9,174.4z M604.8,164.5c-2.2,1.8-5.2,2.7-9.1,2.7l-6.4-0.1
		l0.2-22.3l6.5,0.2c3.9,0,6.9,1.1,9,3s3.1,4.7,3.1,8.4C608,159.9,607,162.7,604.8,164.5L604.8,164.5z"/>
</g>
</svg>
