<svg id="Visuels" xmlns="http://www.w3.org/2000/svg" viewBox="0 0 1234.65 1227.21"><defs><style>.cls-1,.cls-2,.cls-4{fill:#fff;}.cls-2{stroke:#000;}.cls-2,.cls-4{stroke-miterlimit:10;}.cls-3{fill:#ff4343;}.cls-4{stroke:#ff4343;}</style></defs><title>kitsun noir et blanc reponsiv</title><g id="Calque_22" data-name="Calque 22"><rect width="625.69" height="1227.21"/><rect class="cls-1" x="624.15" width="610.51" height="1225.52"/><path class="cls-1" d="M339.69,712.68l-42.33-.28L255.05,712c-3.44,0-7.22-.09-10.86-.38s-7.3-.66-11-1.23a97.16,97.16,0,0,1-11-2.3,55,55,0,0,1-11.13-4.27,31.45,31.45,0,0,1-5.51-3.7,21.09,21.09,0,0,1-4.86-5.83,17.59,17.59,0,0,1-1.59-3.87c-.22-.76-.3-1.21-.41-1.73s-.22-1-.3-1.55a38.52,38.52,0,0,1-.6-6.38,36.18,36.18,0,0,1,2.24-12.88,35.79,35.79,0,0,1,2.89-6c.58-1,1.2-1.88,1.89-2.8.34-.46.7-.91,1.09-1.37l.61-.7.35-.37.49-.49.78-.77,1.49-.66c11.12-4.89,22.31-10.23,33.2-15.8s21.61-11.48,31.68-17.93a152.08,152.08,0,0,0,14.21-10.18c1.11-.88,2.09-1.79,3.11-2.69s1.85-1.74,2.88-2.86,2-2.1,3-3.17l2.87-3.25a112.39,112.39,0,0,0,10.09-13.75c1.47-2.38,2.8-4.8,4-7.22.58-1.21,1.13-2.42,1.61-3.61.24-.59.48-1.17.66-1.73.11-.29.19-.54.27-.79l.11-.34c0-.09.07-.25,0-.1l1.72-3.54c1-1.33,1.73-2.34,2.6-3.47l2.55-3.25c1.72-2.13,3.47-4.22,5.25-6.29q5.36-6.19,11.13-12a196.14,196.14,0,0,1,25.19-21.63A135.66,135.66,0,0,1,380.3,512a106,106,0,0,1,16.19-7.16,81.2,81.2,0,0,1,18.06-4,69.14,69.14,0,0,1,19.23.72l-15.45,9,.65-2,.59-1.71c.4-1.13.81-2.22,1.23-3.31.84-2.17,1.73-4.29,2.67-6.39,1.86-4.21,3.92-8.3,6.15-12.32a136.19,136.19,0,0,1,16-22.7,114.22,114.22,0,0,1,21.12-19,134.61,134.61,0,0,1,11.9-7.26c3.95-2.21,7.93-4.14,11.9-6,15.88-7.44,31.93-13.22,48.06-18.54,8.08-2.61,16.17-5.1,24.3-7.41s16.22-4.51,24.62-6.52l17.39-4.16L602.58,410c-.3,2.15-.6,4-.92,5.92l-1,5.71c-.71,3.79-1.46,7.56-2.29,11.3q-2.51,11.25-5.63,22.33t-7.08,21.93c-2.65,7.22-5.55,14.37-8.8,21.38-6.54,14-14.51,27.51-24.87,39.27a89.8,89.8,0,0,1-17.66,15.46,61.13,61.13,0,0,1-21.44,8.9l-.82-2.8a61.76,61.76,0,0,0,18.18-11.46A87.69,87.69,0,0,0,544,531.66a130.66,130.66,0,0,0,10.37-18.81,200.65,200.65,0,0,0,7.89-20.14c2.33-6.84,4.33-13.82,6.1-20.86s3.35-14.14,4.69-21.29,2.55-14.33,3.52-21.53c.48-3.61.95-7.2,1.34-10.8l.55-5.38c.16-1.75.32-3.64.42-5.21L594,420.25c-7.6,2.63-15.45,5.39-23.12,8.26s-15.38,5.73-23,8.78c-15.19,6-30.19,12.41-44.3,19.5-3.5,1.77-6.95,3.62-10.25,5.5s-6.48,3.85-9.35,5.84a100.61,100.61,0,0,0-16.16,14.1,128,128,0,0,0-13.66,17.44c-2,3.12-4,6.34-5.75,9.64-.89,1.64-1.74,3.3-2.53,5l-1.14,2.48-.92,2.15-5,11.53-10.49-2.54c-7.56-1.83-15.87-1.35-24.3,1.07s-16.83,6.64-24.8,11.87A165.54,165.54,0,0,0,356.56,559q-5.38,5.09-10.43,10.55c-1.68,1.81-3.33,3.66-4.94,5.53l-2.37,2.8c-.75.91-1.58,2-2.17,2.71l1.71-3.55c-.15.53-.23.74-.32,1l-.27.76c-.18.48-.36,1-.54,1.39-.35.91-.73,1.74-1.1,2.58-.76,1.67-1.56,3.26-2.39,4.82q-2.5,4.62-5.37,8.87a133.71,133.71,0,0,1-12.57,15.82l-3.44,3.61c-1.16,1.18-2.37,2.32-3.55,3.48s-2.55,2.37-3.88,3.55-2.71,2.24-4.07,3.23A157.26,157.26,0,0,1,284.25,637c-11.21,6.41-22.6,11.92-34.1,17.12s-23,10-34.91,14.51l2.26-1.42,0,0-.12.1-.27.28c-.2.21-.4.43-.6.67-.39.47-.78,1-1.14,1.52a21.53,21.53,0,0,0-3.72,11.19,24.24,24.24,0,0,0,.15,4.16c0,.35.08.7.14,1.06l.14.85a4.46,4.46,0,0,0,.33,1c.61,1.45,2.45,3.25,4.88,4.71,5,3,11.46,4.91,18,6.31,3.28.69,6.63,1.25,10,1.68s6.64.67,10.24,1l42.17,3.93,42.16,4.11Z" transform="translate(-179.65 -361.21)"/><circle class="cls-2" cx="395.9" cy="332" r="11.29"/><circle class="cls-2" cx="396.88" cy="207.28" r="11.29"/><circle class="cls-2" cx="443.97" cy="167.3" r="11.29"/><circle class="cls-2" cx="443.55" cy="372.1" r="11.29"/><circle class="cls-2" cx="501.55" cy="379.4" r="11.29"/><circle class="cls-2" cx="503.82" cy="159.54" r="11.29"/><circle class="cls-2" cx="569.66" cy="195.8" r="11.29"/><circle class="cls-2" cx="569.13" cy="345.83" r="11.29"/><path class="cls-2" d="M383.31,646.92v23.56h-5.25v-78.7h5.25v47.69L431,591.78h7.45l-33.37,33.37,33.11,45.33h-6.51l-30.37-41.55Z" transform="translate(-179.65 -361.21)"/><path class="cls-2" d="M477.75,633.75H446.27v-5.24h31.48Z" transform="translate(-179.65 -361.21)"/><path class="cls-2" d="M519.73,597v73.45h-5.25V597H488.24v-5.25H546V597Z" transform="translate(-179.65 -361.21)"/><path class="cls-2" d="M583.58,591.78q21,0,21,21h-5.25q0-15.75-15.74-15.74H567.84q-15.74,0-15.74,15.74t15.74,15.74h15.74q21,0,21,21t-21,21H567.84q-21,0-21-21h5.25q0,15.74,15.74,15.74h15.74q15.74,0,15.74-15.74t-15.74-15.75H567.84q-21,0-21-21t21-21Z" transform="translate(-179.65 -361.21)"/><path class="cls-2" d="M667.53,649.5V591.78h5.24V649.5q0,21-21,21H636.05q-21,0-21-21V591.78h5.25V649.5q0,15.74,15.74,15.74h15.74Q667.53,665.24,667.53,649.5Z" transform="translate(-179.65 -361.21)"/><path class="cls-2" d="M688.52,600.59v69.89h-5.25v-78.7h5.61l46.86,69.89V591.78H741v78.7h-5.61Z" transform="translate(-179.65 -361.21)"/><path class="cls-1" d="M775,619.9a11.29,11.29,0,1,0,11.27,11.32A11.29,11.29,0,0,0,775,619.9Zm5.12,15.48a5.49,5.49,0,0,1-4.44,2,5.91,5.91,0,0,1-4.59-1.94,6.68,6.68,0,0,1-1.72-4.72A6.86,6.86,0,0,1,771,626a5.63,5.63,0,0,1,4.46-2,5.94,5.94,0,0,1,4.61,1.81.56.56,0,0,1,.18.35,5.83,5.83,0,0,1-.63,1.28,8,8,0,0,1-.79,1.25.29.29,0,0,1-.18.07,2.13,2.13,0,0,1-.46-.37,5,5,0,0,0-1-.68,3.3,3.3,0,0,0-1.49-.36,2.57,2.57,0,0,0-2.13,1,3.57,3.57,0,0,0-.74,2.29,3.61,3.61,0,0,0,.74,2.31,2.56,2.56,0,0,0,2.13,1,3.36,3.36,0,0,0,1.5-.34,5.06,5.06,0,0,0,.94-.64,2.22,2.22,0,0,1,.45-.34.26.26,0,0,1,.18.09c.1.11.36.49.79,1.14a6.35,6.35,0,0,1,.66,1.11A.69.69,0,0,1,780.08,635.38Z" transform="translate(-179.65 -361.21)"/><path d="M964,711.71l-42.33-.29L879.38,711c-3.45,0-7.23-.08-10.87-.38s-7.29-.66-11-1.22a97.38,97.38,0,0,1-11-2.31,54.34,54.34,0,0,1-11.12-4.27,31.08,31.08,0,0,1-5.51-3.7,21.24,21.24,0,0,1-4.87-5.82,18.15,18.15,0,0,1-1.58-3.88c-.22-.76-.3-1.21-.42-1.72s-.22-1-.3-1.55a39.62,39.62,0,0,1-.59-6.38,36.15,36.15,0,0,1,2.24-12.88,35.74,35.74,0,0,1,2.88-6c.58-1,1.21-1.89,1.89-2.8.34-.46.71-.92,1.1-1.38l.61-.7.34-.36.5-.5.78-.77,1.48-.65c11.13-4.9,22.32-10.23,33.2-15.8s21.62-11.48,31.68-17.94a152,152,0,0,0,14.21-10.17c1.11-.88,2.09-1.8,3.12-2.69s1.84-1.75,2.88-2.87,2-2.09,3-3.16l2.87-3.25A112.39,112.39,0,0,0,935,584.09c1.48-2.38,2.81-4.8,4-7.22.59-1.22,1.14-2.43,1.62-3.61.23-.59.47-1.18.66-1.73.11-.29.19-.54.27-.8l.11-.33c0-.09.07-.25,0-.1l1.72-3.55c1-1.33,1.73-2.34,2.59-3.47l2.56-3.24c1.72-2.14,3.47-4.23,5.25-6.29q5.36-6.19,11.12-12a196.24,196.24,0,0,1,25.2-21.63,136.27,136.27,0,0,1,14.51-9.06,105.38,105.38,0,0,1,16.18-7.15,80.89,80.89,0,0,1,18.06-4,69.21,69.21,0,0,1,19.24.71l-15.45,9,.64-2,.6-1.72c.39-1.12.81-2.22,1.23-3.31.84-2.17,1.73-4.29,2.66-6.39,1.87-4.2,3.93-8.29,6.16-12.31a136.13,136.13,0,0,1,16-22.7,114.28,114.28,0,0,1,21.13-19,138.58,138.58,0,0,1,11.89-7.27c4-2.21,7.94-4.13,11.91-6,15.88-7.44,31.93-13.22,48.06-18.55,8.08-2.61,16.16-5.09,24.3-7.41s16.22-4.5,24.61-6.51l17.39-4.16L1226.91,409c-.3,2.15-.6,4-.92,5.91l-1,5.71c-.71,3.79-1.46,7.56-2.3,11.31q-2.49,11.25-5.63,22.32T1210,476.2c-2.65,7.23-5.55,14.37-8.81,21.38-6.54,14-14.51,27.51-24.87,39.28a89.66,89.66,0,0,1-17.65,15.45,61,61,0,0,1-21.45,8.9l-.81-2.8A61.81,61.81,0,0,0,1154.56,547a87.31,87.31,0,0,0,13.81-16.26,130.23,130.23,0,0,0,10.37-18.82,202,202,0,0,0,7.89-20.13c2.33-6.85,4.32-13.82,6.1-20.86s3.35-14.14,4.69-21.29,2.54-14.33,3.51-21.54c.49-3.6,1-7.2,1.35-10.8l.55-5.38c.16-1.75.32-3.64.41-5.2l15.1,12.61c-7.61,2.63-15.46,5.39-23.12,8.25s-15.38,5.73-23,8.78c-15.19,6-30.19,12.42-44.29,19.5-3.51,1.78-7,3.62-10.25,5.5s-6.48,3.85-9.36,5.85a101.41,101.41,0,0,0-16.16,14.09,128.83,128.83,0,0,0-13.65,17.45c-2,3.12-4,6.34-5.76,9.63-.88,1.65-1.73,3.31-2.53,5l-1.13,2.47-.93,2.15-5,11.54-10.49-2.54c-7.56-1.83-15.88-1.35-24.3,1.06s-16.84,6.65-24.8,11.87a165.55,165.55,0,0,0-22.77,18.21c-3.58,3.38-7.07,6.91-10.43,10.54-1.68,1.82-3.33,3.67-4.93,5.53l-2.37,2.81c-.75.91-1.59,1.94-2.18,2.7l1.72-3.54c-.15.52-.23.73-.32,1l-.28.77c-.17.48-.35,1-.53,1.39-.36.9-.73,1.74-1.1,2.58-.76,1.67-1.56,3.26-2.39,4.81-1.68,3.09-3.46,6.05-5.38,8.88a132.62,132.62,0,0,1-12.56,15.82l-3.45,3.6c-1.16,1.19-2.36,2.32-3.54,3.48s-2.55,2.38-3.88,3.55-2.71,2.24-4.08,3.24A155.12,155.12,0,0,1,908.57,636c-11.2,6.41-22.59,11.93-34.09,17.12s-23,10-34.91,14.52l2.26-1.42c.13-.13,0,0,0,0l-.11.11-.28.28c-.19.21-.39.43-.59.67a18.31,18.31,0,0,0-1.15,1.52,22.4,22.4,0,0,0-1.9,3.43,22.09,22.09,0,0,0-1.82,7.76,25.37,25.37,0,0,0,.15,4.16c0,.35.09.7.15,1l.14.86a4.41,4.41,0,0,0,.32,1c.61,1.44,2.46,3.24,4.89,4.7,4.94,3,11.46,4.92,18,6.31,3.28.7,6.62,1.25,10,1.69s6.64.67,10.23,1L922,704.69l42.16,4.1Z" transform="translate(-179.65 -361.21)"/><circle cx="1020.22" cy="331.03" r="11.29"/><circle cx="1021.21" cy="206.31" r="11.29"/><circle cx="1068.3" cy="166.33" r="11.29"/><circle cx="1067.88" cy="371.13" r="11.29"/><circle cx="1125.87" cy="378.42" r="11.29"/><circle cx="1128.15" cy="158.57" r="11.29"/><circle cx="1193.98" cy="194.83" r="11.29"/><circle cx="1193.45" cy="344.86" r="11.29"/><circle cx="1219.61" cy="269" r="11.29"/><circle cx="1219.63" cy="268.99" r="9.77"/><path d="M1007.64,646v23.56h-5.25v-78.7h5.25V638.5l47.69-47.69h7.45l-33.37,33.37,33.11,45.33H1056L1025.63,628Z" transform="translate(-179.65 -361.21)"/><path d="M1102.08,632.78H1070.6v-5.25h31.48Z" transform="translate(-179.65 -361.21)"/><path d="M1144.05,596.05v73.46h-5.24V596.05h-26.24v-5.24h57.72v5.24Z" transform="translate(-179.65 -361.21)"/><path d="M1207.91,590.81q21,0,21,21h-5.24q0-15.74-15.74-15.74h-15.74q-15.75,0-15.74,15.74t15.74,15.74h15.74q21,0,21,21t-21,21h-15.74q-21,0-21-21h5.25q0,15.75,15.74,15.74h15.74q15.73,0,15.74-15.74t-15.74-15.74h-15.74q-21,0-21-21t21-21Z" transform="translate(-179.65 -361.21)"/><path d="M1291.86,648.52V590.81h5.24v57.71q0,21-21,21h-15.74q-21,0-21-21V590.81h5.24v57.71q0,15.75,15.74,15.74h15.74Q1291.86,664.26,1291.86,648.52Z" transform="translate(-179.65 -361.21)"/><path d="M1312.84,599.62v69.89h-5.24v-78.7h5.61l46.85,69.88V590.81h5.25v78.7h-5.61Z" transform="translate(-179.65 -361.21)"/><path class="cls-1" d="M1404.6,634a.69.69,0,0,1-.19.39,5.54,5.54,0,0,1-4.44,2,5.94,5.94,0,0,1-4.6-1.94,6.73,6.73,0,0,1-1.71-4.72,6.88,6.88,0,0,1,1.68-4.69,5.65,5.65,0,0,1,4.46-2,6,6,0,0,1,4.61,1.81.58.58,0,0,1,.18.36,5.83,5.83,0,0,1-.63,1.28,6.88,6.88,0,0,1-.8,1.24.21.21,0,0,1-.18.07,2.39,2.39,0,0,1-.45-.36,4.88,4.88,0,0,0-1-.68,3.3,3.3,0,0,0-1.49-.36,2.6,2.6,0,0,0-2.14,1,3.54,3.54,0,0,0-.73,2.28,3.64,3.64,0,0,0,.73,2.32,2.59,2.59,0,0,0,2.14,1,3.44,3.44,0,0,0,1.5-.35,4.82,4.82,0,0,0,.94-.63,2.78,2.78,0,0,1,.44-.35.24.24,0,0,1,.19.1c.09.11.36.49.79,1.14A7,7,0,0,1,1404.6,634Z" transform="translate(-179.65 -361.21)"/><circle class="cls-2" cx="249.27" cy="585.63" r="9.02"/><circle class="cls-2" cx="250.06" cy="486.02" r="9.02"/><circle class="cls-2" cx="287.67" cy="454.09" r="9.02"/><circle class="cls-2" cx="287.33" cy="617.66" r="9.02"/><circle class="cls-2" cx="333.65" cy="623.48" r="9.02"/><circle class="cls-2" cx="335.47" cy="447.89" r="9.02"/><circle class="cls-2" cx="388.05" cy="476.85" r="9.02"/><circle class="cls-2" cx="387.62" cy="596.68" r="9.02"/><path class="cls-2" d="M275.39,909.87v18.82H271.2V865.83h4.19v38.09l38.09-38.09h5.95l-26.65,26.65,26.44,36.21H314L289.76,895.5Z" transform="translate(-179.65 -361.21)"/><path class="cls-2" d="M350.82,899.35H325.67v-4.19h25.15Z" transform="translate(-179.65 -361.21)"/><path class="cls-2" d="M384.34,870v58.67h-4.19V870H359.2v-4.19h46.09V870Z" transform="translate(-179.65 -361.21)"/><path class="cls-2" d="M435.34,865.83q16.76,0,16.76,16.76h-4.19q0-12.57-12.57-12.57H422.77q-12.58,0-12.58,12.57t12.58,12.57h12.57q16.76,0,16.76,16.76t-16.76,16.77H422.77q-16.77,0-16.77-16.77h4.19q0,12.58,12.58,12.58h12.57q12.57,0,12.57-12.58t-12.57-12.57H422.77q-16.77,0-16.77-16.76t16.77-16.76Z" transform="translate(-179.65 -361.21)"/><path class="cls-2" d="M502.38,911.92V865.83h4.19v46.09q0,16.77-16.76,16.77H477.24q-16.75,0-16.76-16.77V865.83h4.19v46.09q0,12.58,12.57,12.58h12.57Q502.38,924.5,502.38,911.92Z" transform="translate(-179.65 -361.21)"/><path class="cls-2" d="M519.14,872.87v55.82H515V865.83h4.49l37.42,55.82V865.83h4.19v62.86h-4.49Z" transform="translate(-179.65 -361.21)"/><path class="cls-1" d="M588.19,888.29a9,9,0,1,0,9,9A9,9,0,0,0,588.19,888.29Zm4.09,12.36a4.41,4.41,0,0,1-3.55,1.59,4.74,4.74,0,0,1-3.67-1.55,5.32,5.32,0,0,1-1.37-3.77,5.45,5.45,0,0,1,1.34-3.74,4.52,4.52,0,0,1,3.56-1.61,4.78,4.78,0,0,1,3.69,1.44.49.49,0,0,1,.14.28,4.52,4.52,0,0,1-.5,1,5.57,5.57,0,0,1-.64,1,.2.2,0,0,1-.14.06,1.87,1.87,0,0,1-.37-.29,3.61,3.61,0,0,0-.77-.54,2.48,2.48,0,0,0-1.18-.29,2.07,2.07,0,0,0-1.71.79,3.16,3.16,0,0,0,0,3.68,2.06,2.06,0,0,0,1.71.81,2.69,2.69,0,0,0,1.19-.27,3.61,3.61,0,0,0,.76-.51,2.49,2.49,0,0,1,.35-.28.22.22,0,0,1,.15.08c.07.09.28.39.63.91a5.31,5.31,0,0,1,.53.89A.58.58,0,0,1,592.28,900.65Z" transform="translate(-179.65 -361.21)"/><circle class="cls-3" cx="251.96" cy="814.25" r="9.04"/><circle class="cls-3" cx="252.75" cy="714.37" r="9.04"/><circle class="cls-3" cx="290.46" cy="682.35" r="9.04"/><circle class="cls-3" cx="290.13" cy="846.37" r="9.04"/><circle class="cls-3" cx="336.57" cy="852.21" r="9.04"/><circle class="cls-3" cx="338.39" cy="676.14" r="9.04"/><circle class="cls-3" cx="391.12" cy="705.18" r="9.04"/><circle class="cls-3" cx="390.69" cy="825.33" r="9.04"/><circle class="cls-3" cx="411.65" cy="764.58" r="9.04"/><circle class="cls-3" cx="411.66" cy="764.57" r="7.83"/><path class="cls-3" d="M277.65,1138.39v18.87h-4.2v-63h4.2v38.2l38.2-38.2h6L295.09,1121l26.51,36.31h-5.21L292.06,1124Z" transform="translate(-179.65 -361.21)"/><path class="cls-2" d="M353.29,1127.85H328.08v-4.21h25.21Z" transform="translate(-179.65 -361.21)"/><path class="cls-2" d="M386.9,1098.43v58.83h-4.2v-58.83h-21v-4.2h46.22v4.2Z" transform="translate(-179.65 -361.21)"/><path class="cls-2" d="M438,1094.23q16.81,0,16.81,16.81h-4.2q0-12.61-12.61-12.61h-12.6q-12.62,0-12.61,12.61t12.61,12.6H438q16.81,0,16.81,16.81T438,1157.26h-12.6q-16.81,0-16.81-16.81h4.2q0,12.61,12.61,12.61H438q12.61,0,12.61-12.61T438,1127.85h-12.6q-16.81,0-16.81-16.81t16.81-16.81Z" transform="translate(-179.65 -361.21)"/><path class="cls-2" d="M505.27,1140.45v-46.22h4.21v46.22q0,16.82-16.81,16.81H480.06q-16.8,0-16.81-16.81v-46.22h4.21v46.22q0,12.61,12.6,12.61h12.61Q505.27,1153.06,505.27,1140.45Z" transform="translate(-179.65 -361.21)"/><path class="cls-2" d="M522.08,1101.29v56h-4.2v-63h4.5l37.52,56v-56h4.2v63h-4.49Z" transform="translate(-179.65 -361.21)"/><path class="cls-4" d="M595.57,1128.84a.57.57,0,0,1-.15.31,4.43,4.43,0,0,1-3.56,1.59,4.76,4.76,0,0,1-3.68-1.55,5.37,5.37,0,0,1-1.38-3.78,5.47,5.47,0,0,1,1.35-3.75,4.53,4.53,0,0,1,3.57-1.62,4.79,4.79,0,0,1,3.7,1.45.46.46,0,0,1,.14.28,4.74,4.74,0,0,1-.5,1,5.57,5.57,0,0,1-.64,1,.2.2,0,0,1-.15.06,2.54,2.54,0,0,1-.36-.29,3.88,3.88,0,0,0-.77-.54,2.53,2.53,0,0,0-1.19-.3,2.07,2.07,0,0,0-1.71.8,3.18,3.18,0,0,0,0,3.69,2.06,2.06,0,0,0,1.71.82,2.78,2.78,0,0,0,1.2-.28,3.56,3.56,0,0,0,.75-.51,2.23,2.23,0,0,1,.36-.28.19.19,0,0,1,.14.08c.08.09.29.4.64.91A5.82,5.82,0,0,1,595.57,1128.84Z" transform="translate(-179.65 -361.21)"/><circle cx="931.62" cy="576.12" r="9.02"/><circle cx="932.41" cy="476.51" r="9.02"/><circle cx="970.02" cy="444.58" r="9.02"/><circle cx="969.68" cy="608.15" r="9.02"/><circle cx="1016" cy="613.97" r="9.02"/><circle cx="1017.82" cy="438.39" r="9.02"/><circle cx="1070.4" cy="467.34" r="9.02"/><circle cx="1069.97" cy="587.17" r="9.02"/><path d="M957.74,900.36v18.82h-4.19V856.32h4.19v38.09l38.09-38.09h5.95L975.13,883l26.44,36.21h-5.2L972.11,886Z" transform="translate(-179.65 -361.21)"/><path d="M1033.17,889.84H1008v-4.19h25.15Z" transform="translate(-179.65 -361.21)"/><path d="M1066.69,860.51v58.67h-4.19V860.51h-21v-4.19h46.09v4.19Z" transform="translate(-179.65 -361.21)"/><path d="M1117.69,856.32q16.75,0,16.76,16.76h-4.19q0-12.57-12.57-12.57h-12.57q-12.58,0-12.58,12.57t12.58,12.57h12.57q16.75,0,16.76,16.77t-16.76,16.76h-12.57q-16.77,0-16.77-16.76h4.19q0,12.57,12.58,12.57h12.57q12.57,0,12.57-12.57t-12.57-12.58h-12.57q-16.77,0-16.77-16.76t16.77-16.76Z" transform="translate(-179.65 -361.21)"/><path d="M1184.73,902.42v-46.1h4.19v46.1q0,16.76-16.76,16.76h-12.57q-16.75,0-16.76-16.76v-46.1H1147v46.1q0,12.57,12.57,12.57h12.57Q1184.73,915,1184.73,902.42Z" transform="translate(-179.65 -361.21)"/><path d="M1201.49,863.36v55.82h-4.19V856.32h4.49l37.42,55.82V856.32h4.19v62.86h-4.49Z" transform="translate(-179.65 -361.21)"/><path d="M966.46,1348v18.81h-4.19v-62.86h4.19V1342l38.09-38.1h6l-26.65,26.66,26.44,36.2h-5.19l-24.27-33.19Z" transform="translate(-179.65 -361.21)"/><path d="M1041.89,1337.46h-25.14v-4.19h25.14Z" transform="translate(-179.65 -361.21)"/><path d="M1075.41,1308.13v58.66h-4.19v-58.66h-21v-4.2h46.09v4.2Z" transform="translate(-179.65 -361.21)"/><path d="M1126.41,1303.93q16.75,0,16.76,16.77H1139q0-12.57-12.57-12.57h-12.57q-12.57,0-12.57,12.57t12.57,12.57h12.57q16.75,0,16.76,16.76t-16.76,16.76h-12.57q-16.77,0-16.76-16.76h4.19q0,12.57,12.57,12.57h12.57q12.57,0,12.57-12.57t-12.57-12.57h-12.57q-16.77,0-16.76-16.76t16.76-16.77Z" transform="translate(-179.65 -361.21)"/><path d="M1193.46,1350v-46.1h4.19V1350q0,16.76-16.77,16.76h-12.57q-16.75,0-16.76-16.76v-46.1h4.19V1350q0,12.57,12.57,12.57h12.57Q1193.45,1362.6,1193.46,1350Z" transform="translate(-179.65 -361.21)"/><path d="M1210.22,1311v55.82H1206v-62.86h4.48l37.42,55.82v-55.82h4.19v62.86h-4.48Z" transform="translate(-179.65 -361.21)"/><path d="M1270.54,878.78a9,9,0,1,0,9,9A9,9,0,0,0,1270.54,878.78Zm4.09,12.36a4.41,4.41,0,0,1-3.55,1.59,4.74,4.74,0,0,1-3.67-1.55,5.32,5.32,0,0,1-1.37-3.77,5.47,5.47,0,0,1,1.34-3.74,4.52,4.52,0,0,1,3.56-1.61,4.78,4.78,0,0,1,3.69,1.44.48.48,0,0,1,.14.29,4.79,4.79,0,0,1-.5,1,5.57,5.57,0,0,1-.64,1,.2.2,0,0,1-.14.06,1.87,1.87,0,0,1-.37-.29,3.61,3.61,0,0,0-.77-.54,2.48,2.48,0,0,0-1.18-.29,2.07,2.07,0,0,0-1.71.79,3.16,3.16,0,0,0,0,3.68,2.06,2.06,0,0,0,1.71.81,2.69,2.69,0,0,0,1.19-.27,3.61,3.61,0,0,0,.76-.51,2,2,0,0,1,.35-.27.21.21,0,0,1,.15.07c.07.09.28.39.63.91a5.31,5.31,0,0,1,.53.89A.58.58,0,0,1,1274.63,891.14Z" transform="translate(-179.65 -361.21)"/><circle class="cls-3" cx="934.31" cy="804.75" r="9.04"/><circle class="cls-3" cx="935.1" cy="704.86" r="9.04"/><circle class="cls-3" cx="972.81" cy="672.84" r="9.04"/><circle class="cls-3" cx="972.48" cy="836.86" r="9.04"/><circle class="cls-3" cx="1018.92" cy="842.7" r="9.04"/><circle class="cls-3" cx="1020.74" cy="666.63" r="9.04"/><circle class="cls-3" cx="1073.47" cy="695.67" r="9.04"/><circle class="cls-3" cx="1073.04" cy="815.82" r="9.04"/><circle class="cls-3" cx="1094" cy="755.07" r="9.04"/><circle class="cls-3" cx="1094.01" cy="755.06" r="7.83"/><path class="cls-3" d="M960,1128.88v18.87h-4.2v-63H960v38.2l38.2-38.2h6l-26.72,26.72,26.51,36.31h-5.21l-24.33-33.28Z" transform="translate(-179.65 -361.21)"/><path d="M1035.64,1118.34h-25.21v-4.21h25.21Z" transform="translate(-179.65 -361.21)"/><path d="M1069.25,1088.92v58.83h-4.2v-58.83h-21v-4.2h46.22v4.2Z" transform="translate(-179.65 -361.21)"/><path d="M1120.39,1084.72q16.81,0,16.81,16.81H1133q0-12.62-12.61-12.61h-12.6q-12.61,0-12.61,12.61t12.61,12.6h12.6q16.81,0,16.81,16.81t-16.81,16.81h-12.6q-16.82,0-16.81-16.81h4.2q0,12.61,12.61,12.61h12.6q12.61,0,12.61-12.61t-12.61-12.6h-12.6q-16.82,0-16.81-16.81t16.81-16.81Z" transform="translate(-179.65 -361.21)"/><path d="M1187.63,1130.94v-46.22h4.2v46.22q0,16.82-16.81,16.81h-12.61q-16.8,0-16.81-16.81v-46.22h4.21v46.22q0,12.61,12.6,12.61H1175Q1187.62,1143.55,1187.63,1130.94Z" transform="translate(-179.65 -361.21)"/><path d="M1204.43,1091.78v56h-4.2v-63h4.5l37.52,56v-56h4.2v63H1242Z" transform="translate(-179.65 -361.21)"/><path class="cls-3" d="M971.27,1519.64v18.87h-4.21v-63h4.21v38.19l38.19-38.19h6L988.7,1502.2l26.52,36.31H1010l-24.33-33.28Z" transform="translate(-179.65 -361.21)"/><path d="M1046.9,1509.09h-25.21v-4.2h25.21Z" transform="translate(-179.65 -361.21)"/><path d="M1080.52,1479.68v58.83h-4.2v-58.83h-21v-4.2h46.22v4.2Z" transform="translate(-179.65 -361.21)"/><path d="M1131.66,1475.48q16.8,0,16.81,16.81h-4.21q0-12.61-12.6-12.61h-12.61q-12.6,0-12.6,12.61t12.6,12.6h12.61q16.8,0,16.81,16.81t-16.81,16.81h-12.61q-16.8,0-16.81-16.81h4.21q0,12.6,12.6,12.61h12.61q12.6,0,12.6-12.61t-12.6-12.61h-12.61q-16.8,0-16.81-16.8t16.81-16.81Z" transform="translate(-179.65 -361.21)"/><path d="M1198.89,1521.7v-46.22h4.2v46.22q0,16.82-16.81,16.81h-12.6q-16.82,0-16.81-16.81v-46.22h4.2v46.22q0,12.6,12.61,12.61h12.6Q1198.9,1534.31,1198.89,1521.7Z" transform="translate(-179.65 -361.21)"/><path d="M1215.7,1482.54v56h-4.2v-63H1216l37.53,56v-56h4.2v63h-4.5Z" transform="translate(-179.65 -361.21)"/><path class="cls-1" d="M331.47,1361v18.81h-4.19V1317h4.19V1355L369.56,1317h6l-26.66,26.65,26.45,36.2h-5.2l-24.26-33.18Z" transform="translate(-179.65 -361.21)"/><path class="cls-1" d="M406.9,1350.47H381.76v-4.19H406.9Z" transform="translate(-179.65 -361.21)"/><path class="cls-1" d="M440.42,1321.14v58.66h-4.19v-58.66h-21V1317h46.1v4.19Z" transform="translate(-179.65 -361.21)"/><path class="cls-1" d="M491.42,1317q16.77,0,16.76,16.76H504q0-12.57-12.57-12.57H478.85q-12.57,0-12.57,12.57t12.57,12.57h12.57q16.77,0,16.76,16.76t-16.76,16.76H478.85q-16.75,0-16.76-16.76h4.19q0,12.57,12.57,12.57h12.57q12.57,0,12.57-12.57t-12.57-12.57H478.85q-16.75,0-16.76-16.76T478.85,1317Z" transform="translate(-179.65 -361.21)"/><path class="cls-1" d="M558.47,1363V1317h4.19V1363q0,16.77-16.76,16.76H533.33q-16.77,0-16.77-16.76V1317h4.19V1363q0,12.57,12.58,12.57H545.9Q558.47,1375.61,558.47,1363Z" transform="translate(-179.65 -361.21)"/><path class="cls-1" d="M575.23,1324v55.81H571V1317h4.48l37.42,55.81V1317h4.19v62.85h-4.48Z" transform="translate(-179.65 -361.21)"/><path class="cls-3" d="M336.28,1532.65v18.87h-4.2v-63h4.2v38.2l38.19-38.2h6l-26.72,26.73,26.51,36.3H375l-24.33-33.28Z" transform="translate(-179.65 -361.21)"/><path class="cls-1" d="M411.91,1522.11H386.7v-4.2h25.21Z" transform="translate(-179.65 -361.21)"/><path class="cls-1" d="M445.53,1492.69v58.83h-4.2v-58.83h-21v-4.2h46.22v4.2Z" transform="translate(-179.65 -361.21)"/><path class="cls-1" d="M496.67,1488.49q16.81,0,16.81,16.81h-4.2q0-12.6-12.61-12.61H484.06q-12.6,0-12.6,12.61t12.6,12.61h12.61q16.81,0,16.81,16.8t-16.81,16.81H484.06q-16.8,0-16.8-16.81h4.2q0,12.61,12.6,12.61h12.61q12.6,0,12.61-12.61t-12.61-12.6H484.06q-16.8,0-16.8-16.81t16.8-16.81Z" transform="translate(-179.65 -361.21)"/><path class="cls-1" d="M563.9,1534.71v-46.22h4.2v46.22q0,16.82-16.8,16.81H538.69q-16.82,0-16.81-16.81v-46.22h4.2v46.22q0,12.61,12.61,12.61H551.3Q563.9,1547.32,563.9,1534.71Z" transform="translate(-179.65 -361.21)"/><path class="cls-1" d="M580.71,1495.55v56h-4.2v-63H581l37.53,56v-56h4.2v63h-4.5Z" transform="translate(-179.65 -361.21)"/><path class="cls-4" d="M1277.92,1119.33a.57.57,0,0,1-.15.31,4.43,4.43,0,0,1-3.56,1.59,4.76,4.76,0,0,1-3.68-1.55,5.37,5.37,0,0,1-1.38-3.78,5.47,5.47,0,0,1,1.35-3.75,4.53,4.53,0,0,1,3.57-1.62,4.79,4.79,0,0,1,3.7,1.45.46.46,0,0,1,.14.28,4.74,4.74,0,0,1-.5,1,5.57,5.57,0,0,1-.64,1,.2.2,0,0,1-.15.06,1.87,1.87,0,0,1-.36-.29,3.88,3.88,0,0,0-.77-.54,2.53,2.53,0,0,0-1.19-.3,2.07,2.07,0,0,0-1.71.8,3.18,3.18,0,0,0,0,3.69,2,2,0,0,0,1.71.82,2.78,2.78,0,0,0,1.2-.28,3.56,3.56,0,0,0,.75-.51,1.84,1.84,0,0,1,.36-.27.16.16,0,0,1,.14.08c.08.08.29.39.64.9A5.82,5.82,0,0,1,1277.92,1119.33Z" transform="translate(-179.65 -361.21)"/></g></svg>