<svg id="Visuels" xmlns="http://www.w3.org/2000/svg" viewBox="0 0 1228.34 1228.34"><defs><style>.cls-1,.cls-3{fill:#fff;}.cls-2{fill:#ff4343;}.cls-3{stroke:#ff4343;stroke-miterlimit:10;}</style></defs><title>kitsun logo</title><g id="Calque_21" data-name="Calque 21"><rect class="cls-1" width="1228.34" height="1228.34"/></g><path d="M496.61,1185.36l-81-.54-80.91-.91c-6.6-.06-13.83-.15-20.79-.71s-14-1.27-20.95-2.35a184.61,184.61,0,0,1-21.07-4.41,103.88,103.88,0,0,1-21.27-8.18,58.91,58.91,0,0,1-10.55-7.07,40.35,40.35,0,0,1-9.3-11.14,33.66,33.66,0,0,1-3-7.41c-.42-1.46-.58-2.32-.79-3.31s-.43-2-.59-3a74.51,74.51,0,0,1-1.13-12.2,69.21,69.21,0,0,1,4.29-24.58,67.65,67.65,0,0,1,5.51-11.44,61.57,61.57,0,0,1,3.63-5.36c.66-.9,1.36-1.75,2.09-2.62l1.17-1.34.67-.7,1-.91,1.48-1.47,2.84-1.25c21.29-9.37,42.7-19.57,63.5-30.22s41.34-22,60.6-34.31a290.08,290.08,0,0,0,27.17-19.46c2.13-1.68,4-3.43,6-5.14s3.53-3.34,5.51-5.45,3.85-4,5.71-6.06l5.45-6.21a215.45,215.45,0,0,0,19.3-26.34c2.82-4.55,5.37-9.19,7.65-13.81,1.12-2.32,2.18-4.63,3.09-6.9.45-1.13.91-2.26,1.27-3.31.2-.55.36-1,.51-1.52l.2-.65c.05-.17.14-.47.05-.18l3.29-6.78c1.81-2.54,3.3-4.48,5-6.64l4.88-6.2c3.28-4.09,6.63-8.09,10-12q10.23-11.81,21.27-23a374.56,374.56,0,0,1,48.25-41.38,260.72,260.72,0,0,1,27.76-17.33,202.35,202.35,0,0,1,31-13.68,155.2,155.2,0,0,1,34.52-7.63,132.59,132.59,0,0,1,36.78,1.36L647,798.84l1.23-3.82,1.14-3.28c.75-2.15,1.54-4.24,2.34-6.36,1.61-4.15,3.32-8.17,5.11-12.22,3.56-8,7.51-15.86,11.81-23.55a260.68,260.68,0,0,1,30.53-43.42,218.62,218.62,0,0,1,40.4-36.33A259.68,259.68,0,0,1,762.27,656c7.56-4.23,15.18-7.91,22.76-11.55C815.42,630.19,846.1,619.13,877,609q23.19-7.49,46.48-14.17c15.64-4.37,31-8.62,47.08-12.47l33.27-8-4.4,32.07c-.56,4.12-1.13,7.59-1.76,11.32l-1.94,10.9c-1.36,7.27-2.79,14.46-4.39,21.63q-4.78,21.49-10.77,42.69T967,735c-5.06,13.83-10.61,27.49-16.83,40.88-12.51,26.73-27.75,52.62-47.57,75.12a171.44,171.44,0,0,1-33.77,29.56,116.72,116.72,0,0,1-41,17l-1.55-5.36a117.89,117.89,0,0,0,34.82-21.93c10.19-9.08,18.74-19.83,26.41-31.11a249.34,249.34,0,0,0,19.83-36,390.85,390.85,0,0,0,15.1-38.5c4.45-13.09,8.26-26.45,11.66-39.9s6.41-27,9-40.73,4.87-27.41,6.72-41.19c.91-6.88,1.82-13.77,2.57-20.64l1-10.29c.31-3.36.62-7,.8-10L983,626c-14.53,5-29.55,10.31-44.21,15.8s-29.41,11-43.92,16.78c-29.07,11.48-57.74,23.76-84.72,37.3-6.71,3.4-13.3,6.92-19.61,10.52s-12.39,7.37-17.89,11.18a193.8,193.8,0,0,0-30.88,27,246.05,246.05,0,0,0-26.12,33.36c-3.92,6-7.64,12.13-11,18.44-1.69,3.14-3.31,6.36-4.83,9.49l-2.17,4.73-1.82,4.12-9.47,22.06-20.06-4.86c-14.46-3.49-30.37-2.59-46.48,2s-32.2,12.72-47.44,22.71a315.77,315.77,0,0,0-43.54,34.82q-10.29,9.69-20,20.16c-3.2,3.47-6.36,7-9.44,10.57l-4.54,5.37c-1.43,1.74-3,3.73-4.16,5.17L494,926c-.29,1-.45,1.39-.62,1.94l-.52,1.46c-.34.91-.68,1.82-1,2.65-.68,1.74-1.4,3.34-2.12,5-1.44,3.18-3,6.23-4.54,9.2a192.65,192.65,0,0,1-10.19,17,253.77,253.77,0,0,1-24,30.26l-6.58,6.89c-2.22,2.27-4.55,4.45-6.78,6.66s-4.88,4.54-7.42,6.79-5.19,4.29-7.8,6.19a299.6,299.6,0,0,1-31.79,20.59c-21.43,12.26-43.21,22.81-65.2,32.7s-44.08,19.07-66.78,27.76l4.33-2.73c.24-.24.06-.07,0-.06l-.22.2-.53.53c-.37.4-.75.82-1.13,1.28a34.56,34.56,0,0,0-2.19,2.91,41.34,41.34,0,0,0-7.12,21.4,47,47,0,0,0,.29,8c.05.67.16,1.35.27,2l.26,1.64a8.54,8.54,0,0,0,.63,2c1.17,2.73,4.7,6.2,9.35,9,9.45,5.69,21.92,9.41,34.35,12.07,6.27,1.32,12.72,2.4,19.08,3.22s12.72,1.28,19.57,1.93l80.68,7.52,80.62,7.86Z" transform="translate(-183.36 -361)"/><circle class="cls-2" cx="764.36" cy="787.12" r="21.59"/><circle class="cls-2" cx="766.23" cy="548.58" r="21.59"/><circle class="cls-2" cx="856.3" cy="472.11" r="21.59"/><circle class="cls-2" cx="855.5" cy="863.82" r="21.59"/><circle class="cls-2" cx="966.43" cy="877.77" r="21.59"/><circle class="cls-2" cx="1154.14" cy="818.28" r="21.59" transform="translate(-183.4 1275.5) rotate(-70.67)"/><circle class="cls-2" cx="1096.7" cy="526.62" r="21.59"/><circle class="cls-2" cx="1095.68" cy="813.58" r="21.59"/><circle class="cls-2" cx="1145.71" cy="668.49" r="21.59"/><circle class="cls-2" cx="1145.74" cy="668.46" r="18.69"/><path class="cls-2" d="M580,1059.62v45.06h-10V954.12h10v91.22l91.22-91.22H685.5L621.68,1018l63.32,86.7H672.56l-58.14-79.48Z" transform="translate(-183.36 -361)"/><path d="M760.67,1034.41H700.46v-10h60.21Z" transform="translate(-183.36 -361)"/><path d="M841,964.15v140.5H831V964.15H780.74v-10H891.13v10Z" transform="translate(-183.36 -361)"/><path d="M963.08,954.12q40.14,0,40.14,40.14h-10q0-30.1-30.1-30.11H933q-30.13,0-30.13,30.11t30.1,30.11h30.12q40.14,0,40.14,40.14t-40.14,40.14H933q-40.14,0-40.14-40.14h10q0,30.1,30.11,30.1H963q30.11,0,30.1-30.1t-30.1-30.1H933q-40.14,0-40.14-40.15T933,954.12Z" transform="translate(-183.36 -361)"/><path d="M1123.65,1064.51V954.12h10v110.39q0,40.14-40.14,40.14h-30.1q-40.15,0-40.15-40.14V954.12h10v110.39q0,30.1,30.11,30.1h30.1Q1123.65,1094.61,1123.65,1064.51Z" transform="translate(-183.36 -361)"/><path d="M1163.79,971v133.67h-10V954.12h10.65l89.65,133.66V954.12h10v150.53h-10.74Z" transform="translate(-183.36 -361)"/><path class="cls-3" d="M1339.29,1036.78a1.38,1.38,0,0,1-.37.73,10.54,10.54,0,0,1-8.5,3.81,11.3,11.3,0,0,1-8.78-3.71,12.77,12.77,0,0,1-3.29-9,13.15,13.15,0,0,1,3.25-8.93,10.81,10.81,0,0,1,8.53-3.85q5.63,0,8.83,3.45a1.11,1.11,0,0,1,.34.69,11.06,11.06,0,0,1-1.2,2.44,14.78,14.78,0,0,1-1.52,2.38.43.43,0,0,1-.36.14,4.63,4.63,0,0,1-.9-.7,9,9,0,0,0-1.82-1.29,6.16,6.16,0,0,0-2.85-.7,4.94,4.94,0,0,0-4.08,1.91,6.83,6.83,0,0,0-1.41,4.37,7,7,0,0,0,1.41,4.44,4.91,4.91,0,0,0,4.08,1.94,6.65,6.65,0,0,0,2.87-.65,9.73,9.73,0,0,0,1.81-1.22,4.56,4.56,0,0,1,.85-.67.52.52,0,0,1,.35.2,23.78,23.78,0,0,1,1.51,2.17A12.89,12.89,0,0,1,1339.29,1036.78Z" transform="translate(-183.36 -361)"/></svg>