<svg id="header" xmlns="http://www.w3.org/2000/svg" viewBox="0 0 272.34 105.57"><defs><style>.cls-1{fill:#eaeaea;}</style></defs><title>logo site</title><path d="M68.52,76.2h28a8.18,8.18,0,0,1,4.13,1.15,12.14,12.14,0,0,1,3.45,3,17.16,17.16,0,0,1,2.37,4.14,12.32,12.32,0,0,1,.92,4.59v39.78a7.52,7.52,0,0,1-1.15,3.67,18,18,0,0,1-2.83,3.67A17.71,17.71,0,0,1,99.73,139a7.38,7.38,0,0,1-3.67,1.15H55.21A5.89,5.89,0,0,1,51.85,139a17.91,17.91,0,0,1-3.22-2.83,14.77,14.77,0,0,1-2.44-3.6,8.2,8.2,0,0,1-.92-3.59v-17.9L68.37,103v10.4H84.13V98.85h-28A8.09,8.09,0,0,1,52,97.7a12.2,12.2,0,0,1-3.44-2.91,15,15,0,0,1-2.37-4.05,12.13,12.13,0,0,1-.92-4.59V45.91a7.46,7.46,0,0,1,1.14-3.67,17.45,17.45,0,0,1,2.84-3.67,17.07,17.07,0,0,1,3.67-2.83,7.38,7.38,0,0,1,3.67-1.15H97.44a6.06,6.06,0,0,1,3.29,1.15A16.66,16.66,0,0,1,104,38.57a14.53,14.53,0,0,1,2.45,3.67,8.6,8.6,0,0,1,.92,3.52v17.9L84.28,71.77V61.36H68.52Z" transform="translate(-45.27 -34.59)"/><path class="cls-1" d="M115.34,140.16V34.59h52.17a6.06,6.06,0,0,1,3.29,1.15,16.66,16.66,0,0,1,3.29,2.83,14.27,14.27,0,0,1,2.45,3.67,8.6,8.6,0,0,1,.92,3.52V87.68a20,20,0,0,1-3,6.5,12,12,0,0,1-7,4.67H138.29v41.31Zm22.95-78.8V76.05h16.06V61.36Z" transform="translate(-45.27 -34.59)"/><path d="M185.41,140.16V45.91a7.38,7.38,0,0,1,1.15-3.67,17.73,17.73,0,0,1,2.83-3.67,17.32,17.32,0,0,1,3.67-2.83,7.41,7.41,0,0,1,3.67-1.15h50.8V140.16H224.89V98.85H208.67v41.31Zm23.26-78.8V76.2h15.45V61.36Z" transform="translate(-45.27 -34.59)"/><path class="cls-1" d="M263.14,139a17.45,17.45,0,0,1-3.68-2.83,18,18,0,0,1-2.83-3.67,7.49,7.49,0,0,1-1.14-3.67V45.91a7.46,7.46,0,0,1,1.14-3.67,17.73,17.73,0,0,1,2.83-3.67,17.13,17.13,0,0,1,3.68-2.83,7.35,7.35,0,0,1,3.67-1.15h40.85A6.09,6.09,0,0,1,311,35.74a16.66,16.66,0,0,1,3.29,2.83,14.53,14.53,0,0,1,2.45,3.67,8.57,8.57,0,0,1,.91,3.52V129a8.32,8.32,0,0,1-.91,3.59,15.1,15.1,0,0,1-2.45,3.6A17,17,0,0,1,311,139a6.09,6.09,0,0,1-3.29,1.15H266.81A7.35,7.35,0,0,1,263.14,139Zm15.45-25.63H294.5v-52H278.59Z" transform="translate(-45.27 -34.59)"/></svg>