<svg id="header" xmlns="http://www.w3.org/2000/svg" viewBox="0 0 121.55 121.55"><title>logo linkedin</title><path d="M2787.19,29.45h-85.94a17.81,17.81,0,0,0-17.8,17.8v85.94a17.82,17.82,0,0,0,17.8,17.81h85.94A17.83,17.83,0,0,0,2805,133.19V47.25A17.82,17.82,0,0,0,2787.19,29.45Zm10.69,103.74a10.7,10.7,0,0,1-10.69,10.69h-85.94a10.69,10.69,0,0,1-10.68-10.69V47.25a10.69,10.69,0,0,1,10.68-10.68h85.94a10.69,10.69,0,0,1,10.69,10.68Z" transform="translate(-2683.45 -29.45)"/><path d="M2705.05,129.63h21.37V79.3h-21.37Zm7.12-43.21h7.13v36.09h-7.13Z" transform="translate(-2683.45 -29.45)"/><path d="M2762.05,79.3h0a21.3,21.3,0,0,0-7.12,1.21V79.3h-21.37v50.33h21.37v-25.4a3.56,3.56,0,0,1,7.12,0v25.4h21.37V101.78C2783.4,90.26,2774.05,79.31,2762.05,79.3Zm14.22,43.21h-7.12V104.23a10.69,10.69,0,0,0-21.37,0v18.28h-7.12V86.42h7.12v7.13l5.7-4.28a14.16,14.16,0,0,1,8.55-2.85h0c7.58,0,14.23,7.19,14.23,15.36Z" transform="translate(-2683.45 -29.45)"/><path d="M2705.05,72.18h21.37V50.81h-21.37Zm7.12-14.24h7.13v7.12h-7.13Z" transform="translate(-2683.45 -29.45)"/></svg>