<svg id="Vidéo" xmlns="http://www.w3.org/2000/svg" viewBox="0 0 831.89 178.83"><defs><style>.cls-1{fill:#463a4f;}</style></defs><title>LOGO VIDEO 2</title><path class="cls-1" d="M1440.78,526.2l-74.84,172.9h-39.52l-74.6-172.9h43.23l52.61,123.5L1401,526.2Z" transform="translate(-1251.82 -523.23)"/><path class="cls-1" d="M1455.1,526.2h40V699.1h-40Z" transform="translate(-1251.82 -523.23)"/><path class="cls-1" d="M1536.12,526.2h78.54q28.15,0,49.77,10.74T1698,567.2q12,19.51,12,45.45t-12,45.44q-12,19.51-33.59,30.26t-49.77,10.75h-78.54Zm76.57,140q25.93,0,41.37-14.45t15.44-39.15q0-24.71-15.44-39.15t-41.37-14.45h-36.56v107.2Z" transform="translate(-1251.82 -523.23)"/><path class="cls-1" d="M1874,667V699.1H1740.13V526.2H1870.8v32.11h-90.9v37.54h80.28V627H1779.9v40Z" transform="translate(-1251.82 -523.23)"/><path class="cls-1" d="M1940.57,690.45a86.24,86.24,0,0,1-33.84-32q-12.23-20.38-12.22-45.82t12.22-45.82a86.19,86.19,0,0,1,33.84-32q21.62-11.61,48.54-11.61t48.41,11.61a87.28,87.28,0,0,1,33.84,32q12.34,20.37,12.35,45.82t-12.35,45.82a87.32,87.32,0,0,1-33.84,32q-21.48,11.61-48.41,11.61T1940.57,690.45Zm76.2-29.51a50.56,50.56,0,0,0,19.39-19.64,61.84,61.84,0,0,0,0-57.31,50.54,50.54,0,0,0-19.39-19.63,57.86,57.86,0,0,0-55.32,0A50.47,50.47,0,0,0,1942.06,584a61.84,61.84,0,0,0,0,57.31,50.49,50.49,0,0,0,19.39,19.64,57.93,57.93,0,0,0,55.32,0Z" transform="translate(-1251.82 -523.23)"/></svg>