<svg id="header" xmlns="http://www.w3.org/2000/svg" viewBox="0 0 121.55 121.55"><title>logo insta</title><path d="M2521.29,150.8h85.94A17.82,17.82,0,0,0,2625,133V47.05a17.83,17.83,0,0,0-17.81-17.8h-85.94a17.83,17.83,0,0,0-17.81,17.8v86A17.82,17.82,0,0,0,2521.29,150.8ZM2510.6,47.05a10.7,10.7,0,0,1,10.69-10.68h85.94a10.69,10.69,0,0,1,10.68,10.68v86a10.69,10.69,0,0,1-10.68,10.68h-85.94A10.7,10.7,0,0,1,2510.6,133Z" transform="translate(-2503.48 -29.25)"/><path d="M2564.26,122.08a32.05,32.05,0,1,0-32.05-32A32.09,32.09,0,0,0,2564.26,122.08Zm0-57A24.93,24.93,0,1,1,2539.33,90,25,25,0,0,1,2564.26,65.1Z" transform="translate(-2503.48 -29.25)"/><path d="M2599.87,65.1a10.69,10.69,0,1,0-10.68-10.69A10.69,10.69,0,0,0,2599.87,65.1Zm0-14.25a3.57,3.57,0,1,1-3.56,3.56A3.57,3.57,0,0,1,2599.87,50.85Z" transform="translate(-2503.48 -29.25)"/></svg>