<svg id="Visuels" xmlns="http://www.w3.org/2000/svg" viewBox="0 0 1228.34 1228.34"><defs><style>.cls-1{fill:#fff;}.cls-2{fill:none;stroke:#000;stroke-miterlimit:10;}.cls-3{fill:#ff4343;}</style></defs><title>logo ktsun note</title><g id="Calque_21" data-name="Calque 21"><rect class="cls-1" width="1228.34" height="1228.34"/></g><g id="Calque_23" data-name="Calque 23"><path d="M416.94,450.34h16.38v74.34h46.11v13.86H416.94Z" transform="translate(-183.36 -361)"/><path d="M502.12,535a32.07,32.07,0,0,1-12.79-12.29,36.72,36.72,0,0,1,0-35.59,32.17,32.17,0,0,1,12.79-12.22,40.82,40.82,0,0,1,36.91,0,32.3,32.3,0,0,1,12.79,12.22,36.72,36.72,0,0,1,0,35.59A32.2,32.2,0,0,1,539,535a40.82,40.82,0,0,1-36.91,0Zm32.76-14.87q5.67-5.79,5.67-15.25t-5.67-15.24a19.27,19.27,0,0,0-14.37-5.8,19.07,19.07,0,0,0-14.3,5.8q-5.61,5.79-5.61,15.24t5.61,15.25a19.07,19.07,0,0,0,14.3,5.8A19.27,19.27,0,0,0,534.88,520.14Z" transform="translate(-183.36 -361)"/><path d="M638.32,471.25v57.08q0,35.53-36.29,35.53a67.18,67.18,0,0,1-18.39-2.46,39,39,0,0,1-14.37-7.11l7.06-11.85a33.58,33.58,0,0,0,11.15,5.86,43.7,43.7,0,0,0,13.67,2.21q11.08,0,16.25-5t5.17-15.38v-3.52a25.9,25.9,0,0,1-9.83,6.67A34.46,34.46,0,0,1,600,535.51a36.51,36.51,0,0,1-17.33-4.09,30.83,30.83,0,0,1-12.22-11.53,32.38,32.38,0,0,1-4.47-17,32,32,0,0,1,4.47-16.95,30.51,30.51,0,0,1,12.22-11.4,37,37,0,0,1,17.33-4,35.41,35.41,0,0,1,13.29,2.39,24.55,24.55,0,0,1,10,7.31v-8.95ZM617.09,516.8a18.18,18.18,0,0,0,5.73-13.92,17.85,17.85,0,0,0-5.73-13.74q-5.73-5.28-14.68-5.29t-14.8,5.29a17.82,17.82,0,0,0-5.74,13.74,18.15,18.15,0,0,0,5.74,13.92q5.73,5.36,14.8,5.36T617.09,516.8Z" transform="translate(-183.36 -361)"/><path d="M670.83,535A32.13,32.13,0,0,1,658,522.72a36.72,36.72,0,0,1,0-35.59,32.23,32.23,0,0,1,12.79-12.22,40.82,40.82,0,0,1,36.91,0,32.23,32.23,0,0,1,12.79,12.22,36.72,36.72,0,0,1,0,35.59A32.13,32.13,0,0,1,707.74,535a40.82,40.82,0,0,1-36.91,0Zm32.76-14.87q5.67-5.79,5.67-15.25t-5.67-15.24a19.27,19.27,0,0,0-14.37-5.8,19.07,19.07,0,0,0-14.3,5.8q-5.61,5.79-5.61,15.24t5.61,15.25a19.07,19.07,0,0,0,14.3,5.8A19.27,19.27,0,0,0,703.59,520.14Z" transform="translate(-183.36 -361)"/><path d="M806.9,501.62l-14,14.36v22.56H776.54v-88.2h16.38v45.23l43.59-45.23h18.4l-37,39.43,39.31,48.77H838Z" transform="translate(-183.36 -361)"/><path d="M859.07,497h34.65v13.1H859.07Z" transform="translate(-183.36 -361)"/><path d="M952.68,534.88a18.38,18.38,0,0,1-6.74,3.4,30.19,30.19,0,0,1-8.38,1.14q-11.09,0-17.13-5.8t-6-16.88V484.36H903.29v-12.6h11.09V456.38h15.75v15.38h18v12.6h-18v32q0,4.92,2.39,7.5t6.93,2.58a13.82,13.82,0,0,0,8.82-2.77Z" transform="translate(-183.36 -361)"/><path d="M970.45,537.28A40.27,40.27,0,0,1,958,531.86l6-12a39.23,39.23,0,0,0,10.9,4.85,45.2,45.2,0,0,0,12.54,1.83q14.12,0,14.11-7.44a5,5,0,0,0-3.59-4.91,61.42,61.42,0,0,0-11.53-2.65,92.3,92.3,0,0,1-13.54-2.9,20.81,20.81,0,0,1-9.08-5.73q-3.84-4.1-3.84-11.4a17.93,17.93,0,0,1,8-15.31q8-5.73,21.61-5.73a62.35,62.35,0,0,1,13.86,1.57,39,39,0,0,1,11.34,4.22l-6,12a37.27,37.27,0,0,0-19.27-5q-6.93,0-10.52,2.08c-2.4,1.39-3.6,3.21-3.6,5.48q0,3.78,3.85,5.36a61.51,61.51,0,0,0,11.9,3,90.53,90.53,0,0,1,13.23,2.9,20.72,20.72,0,0,1,8.89,5.54q3.71,3.9,3.71,11.09,0,9.45-8.19,15.12t-22.3,5.67A60.56,60.56,0,0,1,970.45,537.28Z" transform="translate(-183.36 -361)"/><path d="M1095.69,471.25v67.29h-15V530a25.12,25.12,0,0,1-9.45,7,30.39,30.39,0,0,1-12.22,2.46q-13.48,0-21.23-7.5t-7.75-22.24V471.25h15.75v36.29q0,9.07,4.09,13.54t11.66,4.48q8.43,0,13.42-5.23t5-15.06v-34Z" transform="translate(-183.36 -361)"/><path d="M1175,477.93q7.68,7.44,7.68,22.05v38.56h-15.75V502q0-8.82-4.15-13.3t-11.85-4.47q-8.7,0-13.73,5.23t-5,15.06v34h-15.75V471.25h15V480a24.62,24.62,0,0,1,9.83-7.06,35.3,35.3,0,0,1,13.36-2.39Q1167.26,470.5,1175,477.93Z" transform="translate(-183.36 -361)"/><path d="M343.69,637.54h4v34.34h21.17v3.46H343.69Z" transform="translate(-183.36 -361)"/><path d="M378.46,673.74a13.63,13.63,0,0,1-5.18-5.15,15.65,15.65,0,0,1,0-14.91,13.51,13.51,0,0,1,5.18-5.13,15.88,15.88,0,0,1,14.8,0,13.39,13.39,0,0,1,5.16,5.13,15.87,15.87,0,0,1,0,14.91,13.51,13.51,0,0,1-5.16,5.15,15.58,15.58,0,0,1-14.8,0Zm12.83-2.91a9.64,9.64,0,0,0,3.75-3.92,13,13,0,0,0,0-11.55,9.58,9.58,0,0,0-3.75-3.92,11.37,11.37,0,0,0-10.86,0,9.78,9.78,0,0,0-3.78,3.92,12.86,12.86,0,0,0,0,11.55,9.84,9.84,0,0,0,3.78,3.92,11.45,11.45,0,0,0,10.86,0Z" transform="translate(-183.36 -361)"/><path d="M434.41,646.93v25q0,7.23-3.54,10.72t-10.66,3.48a23.9,23.9,0,0,1-7.48-1.16,15.35,15.35,0,0,1-5.76-3.21l1.95-2.92a14.6,14.6,0,0,0,5,2.86,18.57,18.57,0,0,0,6.19,1c3.6,0,6.24-.84,7.94-2.51s2.53-4.28,2.53-7.8v-3.62a11.49,11.49,0,0,1-4.67,4.1,14.38,14.38,0,0,1-6.4,1.41,15.11,15.11,0,0,1-7.26-1.76,13,13,0,0,1-5.13-4.91,14.65,14.65,0,0,1,0-14.29,13,13,0,0,1,5.1-4.86,15.26,15.26,0,0,1,7.29-1.72,14.48,14.48,0,0,1,6.54,1.45,11.78,11.78,0,0,1,4.69,4.22v-5.46Zm-9,22.6a9.43,9.43,0,0,0,3.86-3.7,10.53,10.53,0,0,0,1.38-5.4,10.4,10.4,0,0,0-1.38-5.37,9.54,9.54,0,0,0-3.83-3.67,11.52,11.52,0,0,0-5.59-1.33,11.69,11.69,0,0,0-5.53,1.3,9.43,9.43,0,0,0-3.84,3.67,11.26,11.26,0,0,0,0,10.8,9.57,9.57,0,0,0,3.84,3.7,11.47,11.47,0,0,0,5.53,1.32A11.65,11.65,0,0,0,425.44,669.53Z" transform="translate(-183.36 -361)"/><path d="M449.36,673.74a13.63,13.63,0,0,1-5.18-5.15,15.65,15.65,0,0,1,0-14.91,13.51,13.51,0,0,1,5.18-5.13,15.88,15.88,0,0,1,14.8,0,13.32,13.32,0,0,1,5.16,5.13,15.87,15.87,0,0,1,0,14.91,13.44,13.44,0,0,1-5.16,5.15,15.58,15.58,0,0,1-14.8,0Zm12.83-2.91a9.64,9.64,0,0,0,3.75-3.92,13,13,0,0,0,0-11.55,9.58,9.58,0,0,0-3.75-3.92,11.37,11.37,0,0,0-10.86,0,9.78,9.78,0,0,0-3.78,3.92,12.86,12.86,0,0,0,0,11.55,9.84,9.84,0,0,0,3.78,3.92,11.45,11.45,0,0,0,10.86,0Z" transform="translate(-183.36 -361)"/><path d="M508.12,673.61a7.32,7.32,0,0,1-2.68,1.48,10.83,10.83,0,0,1-3.32.52,7.52,7.52,0,0,1-8.31-8.27V650.17h-5.08v-3.24h5.08v-6.21h3.83v6.21h8.64v3.24h-8.64v17a5.35,5.35,0,0,0,1.27,3.86,4.81,4.81,0,0,0,3.64,1.32,6.89,6.89,0,0,0,2.3-.38,5.63,5.63,0,0,0,1.92-1.08Z" transform="translate(-183.36 -361)"/><path d="M538.41,646.93l-14.2,31.81a13.72,13.72,0,0,1-4,5.67,9,9,0,0,1-5.45,1.67,11,11,0,0,1-3.84-.65,8.33,8.33,0,0,1-3.07-1.94l1.78-2.86a7.05,7.05,0,0,0,5.18,2.16,5.21,5.21,0,0,0,3.32-1.08A9.82,9.82,0,0,0,520.7,678l1.24-2.76-12.69-28.35h4l10.69,24.14,10.69-24.14Z" transform="translate(-183.36 -361)"/><path d="M565.68,648.52a12.91,12.91,0,0,1,5.07,5.11,16.33,16.33,0,0,1,0,15.06,13,13,0,0,1-5,5.11,14.66,14.66,0,0,1-7.27,1.81,13.33,13.33,0,0,1-6.23-1.44,11.74,11.74,0,0,1-4.57-4.18v15.82h-3.83V646.93h3.67v5.62a11.82,11.82,0,0,1,4.56-4.32,13.38,13.38,0,0,1,6.4-1.51A14.64,14.64,0,0,1,565.68,648.52Zm-2.11,22.31a9.78,9.78,0,0,0,3.81-3.92,11.9,11.9,0,0,0,1.38-5.78,11.76,11.76,0,0,0-1.38-5.75,10,10,0,0,0-3.81-3.91,11.08,11.08,0,0,0-10.82,0,9.88,9.88,0,0,0-3.78,3.91,11.76,11.76,0,0,0-1.38,5.75,11.9,11.9,0,0,0,1.38,5.78,9.71,9.71,0,0,0,3.78,3.92,11.37,11.37,0,0,0,10.82,0Z" transform="translate(-183.36 -361)"/><path d="M605.15,662.32H581.39a10.19,10.19,0,0,0,3.4,7.16,11.35,11.35,0,0,0,7.78,2.72,12.28,12.28,0,0,0,4.86-.94,10.61,10.61,0,0,0,3.83-2.78l2.16,2.48a12.16,12.16,0,0,1-4.72,3.46,16,16,0,0,1-6.24,1.19,15.81,15.81,0,0,1-7.75-1.87,13.43,13.43,0,0,1-5.26-5.15,14.72,14.72,0,0,1-1.89-7.46,15.19,15.19,0,0,1,1.81-7.45,13.16,13.16,0,0,1,5-5.13,13.94,13.94,0,0,1,7.11-1.83,13.77,13.77,0,0,1,7.07,1.83,13,13,0,0,1,4.91,5.1,15.38,15.38,0,0,1,1.79,7.48Zm-20.6-9.69a10.3,10.3,0,0,0-3.16,6.83h20.14a10.29,10.29,0,0,0-3.15-6.83,10.44,10.44,0,0,0-13.83,0Z" transform="translate(-183.36 -361)"/><path d="M630.34,674.31a14.87,14.87,0,0,1-6-3.56l1.56-3.08a15.09,15.09,0,0,0,5.45,3.32,20.1,20.1,0,0,0,7,1.27q5.07,0,7.61-1.87a5.74,5.74,0,0,0,2.54-4.83,4.84,4.84,0,0,0-1.38-3.62,9.32,9.32,0,0,0-3.38-2.08,56.88,56.88,0,0,0-5.56-1.59,57.66,57.66,0,0,1-6.8-2.08,11.14,11.14,0,0,1-4.35-3.05,8.14,8.14,0,0,1-1.81-5.56,9.47,9.47,0,0,1,1.51-5.21,10.3,10.3,0,0,1,4.65-3.75,18.93,18.93,0,0,1,7.77-1.41,23.08,23.08,0,0,1,6.35.89,18.45,18.45,0,0,1,5.37,2.46l-1.35,3.19a18.26,18.26,0,0,0-5.07-2.35,19.08,19.08,0,0,0-5.3-.79q-5,0-7.47,1.92a5.94,5.94,0,0,0-2.51,4.94,4.93,4.93,0,0,0,1.37,3.65,9,9,0,0,0,3.46,2.1c1.38.49,3.25,1,5.59,1.6a54.93,54.93,0,0,1,6.72,2,11.09,11.09,0,0,1,4.35,3,8,8,0,0,1,1.78,5.49,9.3,9.3,0,0,1-1.54,5.21,10.41,10.41,0,0,1-4.72,3.72,19.74,19.74,0,0,1-7.83,1.38A24.34,24.34,0,0,1,630.34,674.31Z" transform="translate(-183.36 -361)"/><path d="M686.69,641a13,13,0,0,1,0,19q-4.11,3.43-11.34,3.43H665.2v11.94h-4v-37.8h14.15Q682.58,637.54,686.69,641Zm-2.86,16.44a8.48,8.48,0,0,0,3-6.93,8.64,8.64,0,0,0-3-7q-3-2.46-8.59-2.46h-10v18.9h10Q680.87,659.89,683.83,657.43Z" transform="translate(-183.36 -361)"/><path d="M721.25,665.24H700.19l-4.54,10.1H691.5l17.28-37.8h3.94L730,675.34h-4.21ZM719.79,662l-9.07-20.31L701.65,662Z" transform="translate(-183.36 -361)"/><path d="M760.72,629.87h3.51l-17.82,50.87H742.9Z" transform="translate(-183.36 -361)"/><path d="M812.21,659.05a9.3,9.3,0,0,1,2,6.19,8.72,8.72,0,0,1-3.59,7.48q-3.6,2.61-10.62,2.62H782.65v-37.8H799q6.33,0,9.8,2.53a8.37,8.37,0,0,1,3.49,7.19,9,9,0,0,1-1.54,5.31,9.24,9.24,0,0,1-4.24,3.27A10,10,0,0,1,812.21,659.05Zm-25.57-18.22v13.72h12q4.59,0,7.08-1.76a6.49,6.49,0,0,0,0-10.21,12.26,12.26,0,0,0-7.08-1.75Zm21,29.48a6,6,0,0,0,2.59-5.4q0-7.06-10.26-7.07H786.64V672H800C803.36,672,805.92,671.47,807.65,670.31Z" transform="translate(-183.36 -361)"/><path d="M841,649.5c2,1.85,3,4.6,3,8.23v17.61h-3.67v-4.43a8.83,8.83,0,0,1-3.81,3.45,13.28,13.28,0,0,1-6,1.25,11.73,11.73,0,0,1-7.56-2.27,7.82,7.82,0,0,1-.19-11.83q2.63-2.21,8.35-2.21h9v-1.73A7.28,7.28,0,0,0,838.1,652q-2-1.92-6-1.92a15.29,15.29,0,0,0-5.18.89,13.25,13.25,0,0,0-4.27,2.46l-1.73-2.86a15.46,15.46,0,0,1,5.19-2.84,20.32,20.32,0,0,1,6.37-1C836.2,646.72,839,647.64,841,649.5Zm-4.32,21.6a8.87,8.87,0,0,0,3.46-4.3v-4.64h-8.91q-7.29,0-7.29,5.08a4.64,4.64,0,0,0,1.89,3.91,8.62,8.62,0,0,0,5.29,1.43A10.1,10.1,0,0,0,836.7,671.1Z" transform="translate(-183.36 -361)"/><path d="M854.41,635.27h3.84v40.07h-3.84Z" transform="translate(-183.36 -361)"/><path d="M891.91,649.82q3.17,3.1,3.16,9v16.47h-3.83v-16.1q0-4.43-2.22-6.75a8.33,8.33,0,0,0-6.31-2.32,9.73,9.73,0,0,0-7.27,2.73,10.31,10.31,0,0,0-2.67,7.53v14.91h-3.83V646.93h3.67v5.24a10.57,10.57,0,0,1,4.35-4,13.81,13.81,0,0,1,6.45-1.43A11.59,11.59,0,0,1,891.91,649.82Z" transform="translate(-183.36 -361)"/><path d="M930.33,662.32H906.58a10.11,10.11,0,0,0,3.4,7.16,11.31,11.31,0,0,0,7.77,2.72,12.21,12.21,0,0,0,4.86-.94,10.65,10.65,0,0,0,3.84-2.78l2.16,2.48a12.19,12.19,0,0,1-4.73,3.46,16,16,0,0,1-6.24,1.19,15.78,15.78,0,0,1-7.74-1.87,13.45,13.45,0,0,1-5.27-5.15,14.72,14.72,0,0,1-1.89-7.46,15.19,15.19,0,0,1,1.81-7.45,13.18,13.18,0,0,1,5-5.13,14.63,14.63,0,0,1,14.17,0,13.12,13.12,0,0,1,4.92,5.1,15.49,15.49,0,0,1,1.78,7.48Zm-20.6-9.69a10.29,10.29,0,0,0-3.15,6.83h20.14a10.34,10.34,0,0,0-3.16-6.83,10.44,10.44,0,0,0-13.83,0Zm10.78-16.82h5.13l-8.75,6.69h-3.78Z" transform="translate(-183.36 -361)"/><path d="M942.43,673.74a13.56,13.56,0,0,1-5.18-5.15,15.65,15.65,0,0,1,0-14.91,13.44,13.44,0,0,1,5.18-5.13,15.88,15.88,0,0,1,14.8,0,13.29,13.29,0,0,1,5.15,5.13,15.8,15.8,0,0,1,0,14.91,13.41,13.41,0,0,1-5.15,5.15,15.58,15.58,0,0,1-14.8,0Zm12.82-2.91a9.6,9.6,0,0,0,3.76-3.92,13,13,0,0,0,0-11.55,9.54,9.54,0,0,0-3.76-3.92,11.35,11.35,0,0,0-10.85,0,9.78,9.78,0,0,0-3.78,3.92,12.77,12.77,0,0,0,0,11.55,9.84,9.84,0,0,0,3.78,3.92,11.43,11.43,0,0,0,10.85,0Z" transform="translate(-183.36 -361)"/><path d="M973.75,670.56a2.87,2.87,0,0,1,.81,2.08,5.58,5.58,0,0,1-.19,1.4,14.38,14.38,0,0,1-.57,1.73l-2.26,7.45h-2.6l1.84-7.83a2.67,2.67,0,0,1-1.4-1,3.09,3.09,0,0,1,.27-3.83,2.92,2.92,0,0,1,4.1,0Z" transform="translate(-183.36 -361)"/><path d="M996.81,639.91A2.65,2.65,0,0,1,996,638a2.59,2.59,0,0,1,.81-1.89,2.7,2.7,0,0,1,2-.81,2.76,2.76,0,0,1,2,.78,2.49,2.49,0,0,1,.81,1.86,2.82,2.82,0,0,1-4.8,2Zm.05,7h3.83v28.41h-3.83Z" transform="translate(-183.36 -361)"/><path d="M1011.39,635.27h3.83v40.07h-3.83Z" transform="translate(-183.36 -361)"/><path d="M1064.79,662.32H1041a10.19,10.19,0,0,0,3.4,7.16,11.35,11.35,0,0,0,7.78,2.72,12.28,12.28,0,0,0,4.86-.94,10.7,10.7,0,0,0,3.83-2.78l2.16,2.48a12.16,12.16,0,0,1-4.72,3.46,16,16,0,0,1-6.24,1.19,15.79,15.79,0,0,1-7.75-1.87,13.43,13.43,0,0,1-5.26-5.15,14.72,14.72,0,0,1-1.89-7.46,15.19,15.19,0,0,1,1.81-7.45,13.16,13.16,0,0,1,5-5.13,13.94,13.94,0,0,1,7.11-1.83,13.77,13.77,0,0,1,7.07,1.83,13,13,0,0,1,4.91,5.1,15.37,15.37,0,0,1,1.78,7.48Zm-20.6-9.69a10.25,10.25,0,0,0-3.16,6.83h20.14a10.25,10.25,0,0,0-3.16-6.83,10.42,10.42,0,0,0-13.82,0Z" transform="translate(-183.36 -361)"/><path d="M1073.67,674.61a14.51,14.51,0,0,1-4.94-2.51l1.73-3a14.61,14.61,0,0,0,4.48,2.3,17.92,17.92,0,0,0,5.62.89,10.72,10.72,0,0,0,5.75-1.22,3.86,3.86,0,0,0,1.86-3.43,3.08,3.08,0,0,0-1-2.45,6.69,6.69,0,0,0-2.6-1.35,34.49,34.49,0,0,0-4.15-.89,49.36,49.36,0,0,1-5.57-1.33,8.18,8.18,0,0,1-3.59-2.29,6.39,6.39,0,0,1-1.48-4.48,7,7,0,0,1,3-5.84q3-2.26,8.26-2.26a21.71,21.71,0,0,1,5.51.72,15.25,15.25,0,0,1,4.53,1.92l-1.67,3.08A14.34,14.34,0,0,0,1081,650a9.63,9.63,0,0,0-5.53,1.3,3.94,3.94,0,0,0-1.87,3.4,3.33,3.33,0,0,0,1.06,2.59,6.48,6.48,0,0,0,2.61,1.43,43.35,43.35,0,0,0,4.32.95A50,50,0,0,1,1087,661a7.93,7.93,0,0,1,3.51,2.22,6.09,6.09,0,0,1,1.46,4.32,6.88,6.88,0,0,1-3.11,5.91q-3.11,2.19-8.61,2.19A22,22,0,0,1,1073.67,674.61Z" transform="translate(-183.36 -361)"/><path d="M1114,673.61a7.2,7.2,0,0,1-2.67,1.48,10.89,10.89,0,0,1-3.33.52,7.52,7.52,0,0,1-8.31-8.27V650.17h-5.08v-3.24h5.08v-6.21h3.83v6.21h8.64v3.24h-8.64v17a5.39,5.39,0,0,0,1.27,3.86,4.83,4.83,0,0,0,3.65,1.32,6.84,6.84,0,0,0,2.29-.38,5.63,5.63,0,0,0,1.92-1.08Z" transform="translate(-183.36 -361)"/><path d="M1139.39,673.77a13.26,13.26,0,0,1-5.21-5.16,15.69,15.69,0,0,1,0-14.93,13.45,13.45,0,0,1,5.21-5.13,15.35,15.35,0,0,1,7.53-1.83,14.48,14.48,0,0,1,6.56,1.43,10.91,10.91,0,0,1,4.57,4.18l-2.86,1.95a8.94,8.94,0,0,0-3.57-3.16,10.46,10.46,0,0,0-4.7-1.06,11.1,11.1,0,0,0-5.53,1.38,9.67,9.67,0,0,0-3.84,3.92,12.92,12.92,0,0,0,0,11.58,9.78,9.78,0,0,0,3.84,3.89,11.2,11.2,0,0,0,5.53,1.37,10.85,10.85,0,0,0,4.7-1,8.86,8.86,0,0,0,3.57-3.13l2.86,1.94a10.84,10.84,0,0,1-4.59,4.18,14.61,14.61,0,0,1-6.54,1.44A15.35,15.35,0,0,1,1139.39,673.77Z" transform="translate(-183.36 -361)"/><path d="M1169.28,673.74a13.56,13.56,0,0,1-5.18-5.15,15.65,15.65,0,0,1,0-14.91,13.44,13.44,0,0,1,5.18-5.13,15.88,15.88,0,0,1,14.8,0,13.29,13.29,0,0,1,5.15,5.13,15.8,15.8,0,0,1,0,14.91,13.41,13.41,0,0,1-5.15,5.15,15.58,15.58,0,0,1-14.8,0Zm12.82-2.91a9.6,9.6,0,0,0,3.76-3.92,13,13,0,0,0,0-11.55,9.54,9.54,0,0,0-3.76-3.92,11.35,11.35,0,0,0-10.85,0,9.78,9.78,0,0,0-3.78,3.92,12.77,12.77,0,0,0,0,11.55,9.84,9.84,0,0,0,3.78,3.92,11.43,11.43,0,0,0,10.85,0Z" transform="translate(-183.36 -361)"/><path d="M1242.75,649.79q3,3.09,3,9.08v16.47H1242v-16.1q0-4.43-2.13-6.75a7.79,7.79,0,0,0-6-2.32,9.07,9.07,0,0,0-7,2.73,10.64,10.64,0,0,0-2.53,7.53v14.91h-3.84v-16.1q0-4.43-2.13-6.75a7.87,7.87,0,0,0-6.08-2.32,9,9,0,0,0-6.93,2.73,10.56,10.56,0,0,0-2.57,7.53v14.91h-3.83V646.93h3.67v5.19a10.27,10.27,0,0,1,4.21-4,13.22,13.22,0,0,1,6.21-1.4,12.1,12.1,0,0,1,6.18,1.51,9.32,9.32,0,0,1,3.92,4.48,11,11,0,0,1,4.51-4.4,13.9,13.9,0,0,1,6.72-1.59Q1239.69,646.72,1242.75,649.79Z" transform="translate(-183.36 -361)"/><path d="M1254.11,659h14.15v3.35h-14.15Z" transform="translate(-183.36 -361)"/><path d="M328.75,713.32a12.91,12.91,0,0,1,5.07,5.11,16.33,16.33,0,0,1,0,15.06,12.93,12.93,0,0,1-5.05,5.11,14.59,14.59,0,0,1-7.26,1.81,13.4,13.4,0,0,1-6.24-1.44,11.78,11.78,0,0,1-4.56-4.18v15.82h-3.83V711.73h3.67v5.62a11.82,11.82,0,0,1,4.56-4.32,13.35,13.35,0,0,1,6.4-1.51A14.67,14.67,0,0,1,328.75,713.32Zm-2.11,22.31a9.78,9.78,0,0,0,3.81-3.92,11.9,11.9,0,0,0,1.37-5.78,11.75,11.75,0,0,0-1.37-5.75,10,10,0,0,0-3.81-3.91,11.1,11.1,0,0,0-10.83,0,10,10,0,0,0-3.78,3.91,11.86,11.86,0,0,0-1.37,5.75,12,12,0,0,0,1.37,5.78,9.84,9.84,0,0,0,3.78,3.92,11.39,11.39,0,0,0,10.83,0Z" transform="translate(-183.36 -361)"/><path d="M347.7,738.54a13.56,13.56,0,0,1-5.18-5.15,15.65,15.65,0,0,1,0-14.91,13.44,13.44,0,0,1,5.18-5.13,15.88,15.88,0,0,1,14.8,0,13.29,13.29,0,0,1,5.15,5.13,15.8,15.8,0,0,1,0,14.91,13.41,13.41,0,0,1-5.15,5.15,15.58,15.58,0,0,1-14.8,0Zm12.82-2.91a9.6,9.6,0,0,0,3.76-3.92,13,13,0,0,0,0-11.55,9.54,9.54,0,0,0-3.76-3.92,11.35,11.35,0,0,0-10.85,0,9.78,9.78,0,0,0-3.78,3.92,12.77,12.77,0,0,0,0,11.55,9.84,9.84,0,0,0,3.78,3.92,11.43,11.43,0,0,0,10.85,0Z" transform="translate(-183.36 -361)"/><path d="M378.34,739.41a14.51,14.51,0,0,1-4.94-2.51l1.73-3a14.61,14.61,0,0,0,4.48,2.3,18,18,0,0,0,5.62.89,10.72,10.72,0,0,0,5.75-1.22,3.86,3.86,0,0,0,1.86-3.43,3.08,3.08,0,0,0-1-2.45,6.71,6.71,0,0,0-2.59-1.35,34.71,34.71,0,0,0-4.16-.89,48.58,48.58,0,0,1-5.56-1.33,8.07,8.07,0,0,1-3.59-2.29,6.35,6.35,0,0,1-1.49-4.48,7,7,0,0,1,3-5.84q3-2.26,8.26-2.26a21.71,21.71,0,0,1,5.51.72,15.31,15.31,0,0,1,4.54,1.92L394,717.24a14.34,14.34,0,0,0-8.37-2.43,9.63,9.63,0,0,0-5.53,1.3,3.94,3.94,0,0,0-1.87,3.4,3.37,3.37,0,0,0,1.06,2.59,6.34,6.34,0,0,0,2.62,1.43,42.09,42.09,0,0,0,4.32,1,50.36,50.36,0,0,1,5.45,1.29,7.93,7.93,0,0,1,3.51,2.22,6.09,6.09,0,0,1,1.46,4.32,6.88,6.88,0,0,1-3.11,5.91q-3.1,2.19-8.61,2.19A22.07,22.07,0,0,1,378.34,739.41Z" transform="translate(-183.36 -361)"/><path d="M428.48,727.12H404.72a10.16,10.16,0,0,0,3.41,7.16A11.26,11.26,0,0,0,415.9,737a12.21,12.21,0,0,0,4.86-.94,10.65,10.65,0,0,0,3.84-2.78l2.16,2.48a12.19,12.19,0,0,1-4.73,3.46,16,16,0,0,1-6.24,1.19,15.81,15.81,0,0,1-7.75-1.87,13.43,13.43,0,0,1-5.26-5.15,14.72,14.72,0,0,1-1.89-7.46,15.19,15.19,0,0,1,1.81-7.45,13.18,13.18,0,0,1,5-5.13,14.63,14.63,0,0,1,14.17,0,13.12,13.12,0,0,1,4.92,5.1,15.49,15.49,0,0,1,1.78,7.48Zm-20.6-9.69a10.34,10.34,0,0,0-3.16,6.83h20.15a10.34,10.34,0,0,0-3.16-6.83,10.44,10.44,0,0,0-13.83,0Zm10.78-16.82h5.13L415,707.3h-3.78Z" transform="translate(-183.36 -361)"/><path d="M476.43,700.07v40.07h-3.67v-5.62a11.59,11.59,0,0,1-4.56,4.37,13.36,13.36,0,0,1-6.4,1.52,14.42,14.42,0,0,1-7.23-1.84,13.05,13.05,0,0,1-5.08-5.13,16.23,16.23,0,0,1,0-15,12.94,12.94,0,0,1,5.08-5.11,14.61,14.61,0,0,1,7.23-1.8A13.4,13.4,0,0,1,468,713a11.86,11.86,0,0,1,4.56,4.18V700.07Zm-8.93,35.56a9.84,9.84,0,0,0,3.78-3.92,12.77,12.77,0,0,0,0-11.55,9.78,9.78,0,0,0-3.78-3.92,11.25,11.25,0,0,0-10.8,0,9.78,9.78,0,0,0-3.78,3.92,12.77,12.77,0,0,0,0,11.55,9.84,9.84,0,0,0,3.78,3.92,11.33,11.33,0,0,0,10.8,0Z" transform="translate(-183.36 -361)"/><path d="M489.61,700.63a2.89,2.89,0,0,1,.81,2.08,5.32,5.32,0,0,1-.19,1.38c-.13.49-.3,1-.51,1.7l-2.32,7.45h-2.6l1.89-7.77a2.73,2.73,0,0,1-1.45-1,2.88,2.88,0,0,1-.54-1.76,2.84,2.84,0,0,1,.81-2.1,3,3,0,0,1,4.1,0Z" transform="translate(-183.36 -361)"/><path d="M524.17,711.73v28.41H520.5V735a10.51,10.51,0,0,1-4.16,4,12.44,12.44,0,0,1-6.05,1.44q-5.57,0-8.77-3.11t-3.22-9.1V711.73h3.84v16.09q0,4.48,2.21,6.81a8.31,8.31,0,0,0,6.32,2.32,9.27,9.27,0,0,0,7.07-2.73q2.6-2.72,2.6-7.58V711.73Z" transform="translate(-183.36 -361)"/><path d="M557.89,714.62q3.17,3.11,3.16,9v16.47h-3.83V724q0-4.42-2.22-6.75a8.33,8.33,0,0,0-6.31-2.32,9.71,9.71,0,0,0-7.27,2.73,10.31,10.31,0,0,0-2.67,7.53v14.91h-3.83V711.73h3.67V717a10.6,10.6,0,0,1,4.34-4,13.88,13.88,0,0,1,6.46-1.43A11.59,11.59,0,0,1,557.89,714.62Z" transform="translate(-183.36 -361)"/><path d="M596.31,727.12H572.55a10.16,10.16,0,0,0,3.41,7.16,11.26,11.26,0,0,0,7.77,2.72,12.21,12.21,0,0,0,4.86-.94,10.65,10.65,0,0,0,3.84-2.78l2.15,2.48a12.08,12.08,0,0,1-4.72,3.46,16,16,0,0,1-6.24,1.19,15.81,15.81,0,0,1-7.75-1.87,13.43,13.43,0,0,1-5.26-5.15,14.72,14.72,0,0,1-1.89-7.46,15.19,15.19,0,0,1,1.81-7.45,13.12,13.12,0,0,1,5-5.13,14.63,14.63,0,0,1,14.17,0,13,13,0,0,1,4.91,5.1,15.38,15.38,0,0,1,1.79,7.48Zm-20.6-9.69a10.3,10.3,0,0,0-3.16,6.83H592.7a10.34,10.34,0,0,0-3.16-6.83,10.44,10.44,0,0,0-13.83,0Z" transform="translate(-183.36 -361)"/><path d="M622.58,738.57a13.26,13.26,0,0,1-5.21-5.16,15.69,15.69,0,0,1,0-14.93,13.45,13.45,0,0,1,5.21-5.13,15.39,15.39,0,0,1,7.54-1.83,14.54,14.54,0,0,1,6.56,1.43,11,11,0,0,1,4.56,4.18l-2.86,2a8.94,8.94,0,0,0-3.57-3.16,10.45,10.45,0,0,0-4.69-1.06,11.11,11.11,0,0,0-5.54,1.38,9.64,9.64,0,0,0-3.83,3.92,12.84,12.84,0,0,0,0,11.58,9.75,9.75,0,0,0,3.83,3.89,11.21,11.21,0,0,0,5.54,1.37,10.83,10.83,0,0,0,4.69-1,8.86,8.86,0,0,0,3.57-3.13l2.86,1.94a10.84,10.84,0,0,1-4.59,4.18,14.53,14.53,0,0,1-6.53,1.44A15.39,15.39,0,0,1,622.58,738.57Z" transform="translate(-183.36 -361)"/><path d="M652.47,738.54a13.63,13.63,0,0,1-5.18-5.15,15.65,15.65,0,0,1,0-14.91,13.51,13.51,0,0,1,5.18-5.13,15.88,15.88,0,0,1,14.8,0,13.29,13.29,0,0,1,5.15,5.13,15.8,15.8,0,0,1,0,14.91,13.41,13.41,0,0,1-5.15,5.15,15.58,15.58,0,0,1-14.8,0Zm12.83-2.91a9.64,9.64,0,0,0,3.75-3.92,13,13,0,0,0,0-11.55,9.58,9.58,0,0,0-3.75-3.92,11.37,11.37,0,0,0-10.86,0,9.78,9.78,0,0,0-3.78,3.92,12.86,12.86,0,0,0,0,11.55,9.84,9.84,0,0,0,3.78,3.92,11.45,11.45,0,0,0,10.86,0Z" transform="translate(-183.36 -361)"/><path d="M707.71,711.73v28.41H704V735a10.45,10.45,0,0,1-4.16,4,12.43,12.43,0,0,1-6,1.44q-5.57,0-8.78-3.11t-3.21-9.1V711.73h3.83v16.09q0,4.48,2.22,6.81a8.29,8.29,0,0,0,6.31,2.32,9.3,9.3,0,0,0,7.08-2.73q2.6-2.72,2.59-7.58V711.73Z" transform="translate(-183.36 -361)"/><path d="M726.16,713a13.66,13.66,0,0,1,6.61-1.45v3.72l-.92,0a9.08,9.08,0,0,0-7,2.75q-2.54,2.76-2.54,7.72v14.48h-3.83V711.73h3.67v5.56A9.34,9.34,0,0,1,726.16,713Z" transform="translate(-183.36 -361)"/><path d="M761.55,713.32a13,13,0,0,1,5.08,5.11,16.3,16.3,0,0,1,0,15,13.12,13.12,0,0,1-5.08,5.13,14.45,14.45,0,0,1-7.23,1.84,13.36,13.36,0,0,1-6.4-1.52,11.62,11.62,0,0,1-4.57-4.37v5.62h-3.67V700.07h3.83v17.06a11.81,11.81,0,0,1,4.57-4.18,13.34,13.34,0,0,1,6.24-1.43A14.63,14.63,0,0,1,761.55,713.32Zm-2.1,22.31a9.76,9.76,0,0,0,3.8-3.92,12.77,12.77,0,0,0,0-11.55,9.7,9.7,0,0,0-3.8-3.92,11.31,11.31,0,0,0-10.83,0,9.78,9.78,0,0,0-3.78,3.92,12.77,12.77,0,0,0,0,11.55,9.84,9.84,0,0,0,3.78,3.92,11.39,11.39,0,0,0,10.83,0Z" transform="translate(-183.36 -361)"/><path d="M801,727.12H777.26a10.16,10.16,0,0,0,3.41,7.16,11.26,11.26,0,0,0,7.77,2.72,12.21,12.21,0,0,0,4.86-.94,10.65,10.65,0,0,0,3.84-2.78l2.16,2.48a12.19,12.19,0,0,1-4.73,3.46,16,16,0,0,1-6.24,1.19,15.81,15.81,0,0,1-7.75-1.87,13.43,13.43,0,0,1-5.26-5.15,14.72,14.72,0,0,1-1.89-7.46,15.19,15.19,0,0,1,1.81-7.45,13.18,13.18,0,0,1,5-5.13,14.63,14.63,0,0,1,14.17,0,13.12,13.12,0,0,1,4.92,5.1,15.49,15.49,0,0,1,1.78,7.48Zm-20.6-9.69a10.34,10.34,0,0,0-3.16,6.83h20.15a10.34,10.34,0,0,0-3.16-6.83,10.44,10.44,0,0,0-13.83,0Z" transform="translate(-183.36 -361)"/><path d="M828.7,704.39a5.61,5.61,0,0,0-1.27,4v3.35h8.75V715h-8.64v25.17H823.7V715h-5.07v-3.24h5.07v-3.51a8.38,8.38,0,0,1,2.24-6.15,8.51,8.51,0,0,1,6.35-2.27,10.59,10.59,0,0,1,3.13.46,7,7,0,0,1,2.54,1.32l-1.3,2.86a6.35,6.35,0,0,0-4.21-1.4A4.89,4.89,0,0,0,828.7,704.39Z" transform="translate(-183.36 -361)"/><path d="M845.09,738.54a13.58,13.58,0,0,1-5.19-5.15,15.65,15.65,0,0,1,0-14.91,13.46,13.46,0,0,1,5.19-5.13,15.86,15.86,0,0,1,14.79,0,13.25,13.25,0,0,1,5.16,5.13,15.87,15.87,0,0,1,0,14.91,13.37,13.37,0,0,1-5.16,5.15,15.56,15.56,0,0,1-14.79,0Zm12.82-2.91a9.73,9.73,0,0,0,3.76-3.92,13,13,0,0,0,0-11.55,9.67,9.67,0,0,0-3.76-3.92,11.35,11.35,0,0,0-10.85,0,9.78,9.78,0,0,0-3.78,3.92,12.77,12.77,0,0,0,0,11.55,9.84,9.84,0,0,0,3.78,3.92,11.43,11.43,0,0,0,10.85,0Z" transform="translate(-183.36 -361)"/><path d="M882.43,713a13.69,13.69,0,0,1,6.61-1.45v3.72l-.91,0a9.08,9.08,0,0,0-7,2.75c-1.7,1.84-2.54,4.41-2.54,7.72v14.48h-3.84V711.73h3.68v5.56A9.32,9.32,0,0,1,882.43,713Z" transform="translate(-183.36 -361)"/><path d="M939.78,714.59q3,3.09,3.05,9.08v16.47H939V724q0-4.42-2.13-6.75a7.79,7.79,0,0,0-6-2.32,9.07,9.07,0,0,0-7,2.73,10.64,10.64,0,0,0-2.54,7.53v14.91H917.5V724q0-4.42-2.13-6.75a7.87,7.87,0,0,0-6.08-2.32,9.08,9.08,0,0,0-6.94,2.73,10.56,10.56,0,0,0-2.56,7.53v14.91H896V711.73h3.67v5.19a10.21,10.21,0,0,1,4.21-4,13.22,13.22,0,0,1,6.21-1.4,12.1,12.1,0,0,1,6.18,1.51,9.32,9.32,0,0,1,3.92,4.48,11,11,0,0,1,4.51-4.4,13.9,13.9,0,0,1,6.72-1.59Q936.72,711.52,939.78,714.59Z" transform="translate(-183.36 -361)"/><path d="M971.72,714.3c2,1.85,3,4.6,3,8.23v17.61H971v-4.43a8.75,8.75,0,0,1-3.8,3.45,13.34,13.34,0,0,1-6,1.25,11.69,11.69,0,0,1-7.56-2.27,7.8,7.8,0,0,1-.19-11.83q2.63-2.2,8.34-2.21h9v-1.73a7.27,7.27,0,0,0-2.05-5.59,8.47,8.47,0,0,0-6-1.92,15.39,15.39,0,0,0-5.19.89,13.2,13.2,0,0,0-4.26,2.46l-1.73-2.86a15.51,15.51,0,0,1,5.18-2.84,20.36,20.36,0,0,1,6.37-1C966.89,711.52,969.74,712.44,971.72,714.3Zm-4.32,21.6a8.85,8.85,0,0,0,3.45-4.3V727h-8.91q-7.29,0-7.29,5.08a4.64,4.64,0,0,0,1.89,3.91,8.64,8.64,0,0,0,5.29,1.43A10.13,10.13,0,0,0,967.4,735.9Z" transform="translate(-183.36 -361)"/><path d="M1008.08,714.62q3.17,3.11,3.16,9v16.47h-3.83V724q0-4.42-2.21-6.75a8.37,8.37,0,0,0-6.32-2.32,9.73,9.73,0,0,0-7.27,2.73,10.31,10.31,0,0,0-2.67,7.53v14.91h-3.83V711.73h3.67V717a10.57,10.57,0,0,1,4.35-4,13.81,13.81,0,0,1,6.45-1.43A11.59,11.59,0,0,1,1008.08,714.62Z" transform="translate(-183.36 -361)"/><path d="M1036.62,738.41a7.2,7.2,0,0,1-2.67,1.48,10.83,10.83,0,0,1-3.32.52,7.53,7.53,0,0,1-8.32-8.27V715h-5.07v-3.24h5.07v-6.21h3.84v6.21h8.64V715h-8.64v17a5.35,5.35,0,0,0,1.27,3.86,4.81,4.81,0,0,0,3.64,1.32,6.89,6.89,0,0,0,2.3-.38,5.68,5.68,0,0,0,1.91-1.08Z" transform="translate(-183.36 -361)"/><path d="M1083.33,711.73v28.41h-3.67V735a10.45,10.45,0,0,1-4.16,4,12.43,12.43,0,0,1-6,1.44q-5.57,0-8.78-3.11t-3.21-9.1V711.73h3.83v16.09q0,4.48,2.21,6.81a8.33,8.33,0,0,0,6.32,2.32,9.3,9.3,0,0,0,7.08-2.73c1.72-1.81,2.59-4.34,2.59-7.58V711.73Z" transform="translate(-183.36 -361)"/><path d="M1117.06,714.62q3.15,3.11,3.15,9v16.47h-3.83V724q0-4.42-2.21-6.75a8.37,8.37,0,0,0-6.32-2.32,9.73,9.73,0,0,0-7.27,2.73,10.31,10.31,0,0,0-2.67,7.53v14.91h-3.83V711.73h3.67V717a10.57,10.57,0,0,1,4.35-4,13.81,13.81,0,0,1,6.45-1.43A11.63,11.63,0,0,1,1117.06,714.62Z" transform="translate(-183.36 -361)"/><path d="M314.57,777.77a13.7,13.7,0,0,1,6.62-1.45V780l-.92,0a9.08,9.08,0,0,0-7,2.75q-2.53,2.76-2.54,7.72v14.48h-3.83V776.53h3.67v5.56A9.37,9.37,0,0,1,314.57,777.77Z" transform="translate(-183.36 -361)"/><path d="M352.56,791.92H328.8a10.19,10.19,0,0,0,3.4,7.16A11.29,11.29,0,0,0,340,801.8a12.28,12.28,0,0,0,4.86-.94,10.7,10.7,0,0,0,3.83-2.78l2.16,2.48a12.16,12.16,0,0,1-4.72,3.46,16,16,0,0,1-6.24,1.19,15.79,15.79,0,0,1-7.75-1.87,13.43,13.43,0,0,1-5.26-5.15,14.72,14.72,0,0,1-1.89-7.46,15.19,15.19,0,0,1,1.81-7.45,13.16,13.16,0,0,1,5-5.13,13.93,13.93,0,0,1,7.1-1.83,13.78,13.78,0,0,1,7.08,1.83,13.09,13.09,0,0,1,4.91,5.1,15.37,15.37,0,0,1,1.78,7.48ZM332,782.23a10.25,10.25,0,0,0-3.16,6.83h20.14a10.25,10.25,0,0,0-3.16-6.83,10.42,10.42,0,0,0-13.82,0Z" transform="translate(-183.36 -361)"/><path d="M383.42,779.42q3.16,3.11,3.16,9.05v16.47h-3.83v-16.1q0-4.43-2.22-6.75a8.35,8.35,0,0,0-6.32-2.32A9.69,9.69,0,0,0,367,782.5a10.31,10.31,0,0,0-2.67,7.53v14.91h-3.84V776.53h3.68v5.24a10.6,10.6,0,0,1,4.34-4,13.88,13.88,0,0,1,6.46-1.43A11.6,11.6,0,0,1,383.42,779.42Z" transform="translate(-183.36 -361)"/><path d="M415.47,779.1c2,1.85,3,4.6,3,8.23v17.61h-3.67v-4.43A8.83,8.83,0,0,1,411,804a13.28,13.28,0,0,1-6,1.25,11.71,11.71,0,0,1-7.56-2.27,7.82,7.82,0,0,1-.19-11.83q2.63-2.21,8.35-2.21h9v-1.73a7.28,7.28,0,0,0-2.06-5.59,8.45,8.45,0,0,0-6-1.92,15.29,15.29,0,0,0-5.18.89,13.25,13.25,0,0,0-4.27,2.46l-1.73-2.86a15.46,15.46,0,0,1,5.19-2.84,20.32,20.32,0,0,1,6.37-1C410.64,776.32,413.49,777.24,415.47,779.1Zm-4.32,21.6a8.87,8.87,0,0,0,3.46-4.3v-4.64H405.7c-4.87,0-7.29,1.69-7.29,5.08a4.66,4.66,0,0,0,1.88,3.91,8.65,8.65,0,0,0,5.3,1.43A10.1,10.1,0,0,0,411.15,800.7Z" transform="translate(-183.36 -361)"/><path d="M436.56,777.77a13.66,13.66,0,0,1,6.61-1.45V780l-.92,0a9.08,9.08,0,0,0-7,2.75q-2.53,2.76-2.54,7.72v14.48h-3.83V776.53h3.67v5.56A9.34,9.34,0,0,1,436.56,777.77Z" transform="translate(-183.36 -361)"/><path d="M475.73,764.87v40.07h-3.67v-5.62a11.59,11.59,0,0,1-4.56,4.37,13.39,13.39,0,0,1-6.4,1.52,14.46,14.46,0,0,1-7.24-1.84,13,13,0,0,1-5.07-5.13,16.23,16.23,0,0,1,0-15,12.91,12.91,0,0,1,5.07-5.11,14.64,14.64,0,0,1,7.24-1.8,13.4,13.4,0,0,1,6.24,1.43,11.86,11.86,0,0,1,4.56,4.18V764.87Zm-8.93,35.56a9.84,9.84,0,0,0,3.78-3.92,12.86,12.86,0,0,0,0-11.55A9.78,9.78,0,0,0,466.8,781a11.26,11.26,0,0,0-10.8,0,9.65,9.65,0,0,0-3.78,3.92,12.77,12.77,0,0,0,0,11.55,9.71,9.71,0,0,0,3.78,3.92,11.33,11.33,0,0,0,10.8,0Z" transform="translate(-183.36 -361)"/><path d="M488.91,800.16a2.87,2.87,0,0,1,.81,2.08,5.58,5.58,0,0,1-.19,1.4,16.42,16.42,0,0,1-.57,1.73l-2.27,7.45H484.1l1.84-7.83a2.69,2.69,0,0,1-1.41-1,3.09,3.09,0,0,1,.27-3.83,2.93,2.93,0,0,1,4.11,0Z" transform="translate(-183.36 -361)"/><path d="M537.94,764.87v40.07h-3.67v-5.62a11.68,11.68,0,0,1-4.57,4.37,13.36,13.36,0,0,1-6.4,1.52,14.45,14.45,0,0,1-7.23-1.84,13.12,13.12,0,0,1-5.08-5.13,16.3,16.3,0,0,1,0-15,13,13,0,0,1,5.08-5.11,14.63,14.63,0,0,1,7.23-1.8,13.34,13.34,0,0,1,6.24,1.43,11.72,11.72,0,0,1,4.56,4.18V764.87ZM529,800.43a9.84,9.84,0,0,0,3.78-3.92,12.77,12.77,0,0,0,0-11.55A9.78,9.78,0,0,0,529,781a10.58,10.58,0,0,0-5.37-1.38A10.7,10.7,0,0,0,518.2,781a9.78,9.78,0,0,0-3.78,3.92,12.77,12.77,0,0,0,0,11.55,9.84,9.84,0,0,0,3.78,3.92,10.79,10.79,0,0,0,5.43,1.37A10.67,10.67,0,0,0,529,800.43Z" transform="translate(-183.36 -361)"/><path d="M574.23,776.53v28.41h-3.68v-5.19a10.42,10.42,0,0,1-4.15,4,12.47,12.47,0,0,1-6,1.44q-5.57,0-8.78-3.11t-3.21-9.1V776.53h3.83v16.09q0,4.49,2.22,6.81a8.3,8.3,0,0,0,6.32,2.32A9.29,9.29,0,0,0,567.8,799q2.6-2.71,2.59-7.58V776.53Z" transform="translate(-183.36 -361)"/><path d="M622.1,779.42q3.15,3.11,3.16,9.05v16.47h-3.84v-16.1q0-4.43-2.21-6.75a8.35,8.35,0,0,0-6.32-2.32,9.69,9.69,0,0,0-7.26,2.73A10.27,10.27,0,0,0,603,790v14.91h-3.83V776.53h3.67v5.24a10.57,10.57,0,0,1,4.35-4,13.81,13.81,0,0,1,6.45-1.43A11.61,11.61,0,0,1,622.1,779.42Z" transform="translate(-183.36 -361)"/><path d="M640,803.34a13.58,13.58,0,0,1-5.19-5.15,15.65,15.65,0,0,1,0-14.91,13.46,13.46,0,0,1,5.19-5.13,15.86,15.86,0,0,1,14.79,0,13.25,13.25,0,0,1,5.16,5.13,15.87,15.87,0,0,1,0,14.91,13.37,13.37,0,0,1-5.16,5.15,15.56,15.56,0,0,1-14.79,0Zm12.82-2.91a9.64,9.64,0,0,0,3.75-3.92,13,13,0,0,0,0-11.55,9.58,9.58,0,0,0-3.75-3.92A11.35,11.35,0,0,0,642,781a9.78,9.78,0,0,0-3.78,3.92,12.77,12.77,0,0,0,0,11.55,9.84,9.84,0,0,0,3.78,3.92,11.43,11.43,0,0,0,10.85,0Z" transform="translate(-183.36 -361)"/><path d="M713.46,779.39q3.06,3.09,3,9.08v16.47h-3.83v-16.1q0-4.43-2.13-6.75a7.79,7.79,0,0,0-6-2.32,9,9,0,0,0-7,2.73A10.64,10.64,0,0,0,695,790v14.91h-3.83v-16.1q0-4.43-2.13-6.75a7.88,7.88,0,0,0-6.08-2.32A9.06,9.06,0,0,0,676,782.5a10.56,10.56,0,0,0-2.56,7.53v14.91h-3.84V776.53h3.67v5.19a10.3,10.3,0,0,1,4.22-4,13.22,13.22,0,0,1,6.21-1.4,12.15,12.15,0,0,1,6.18,1.51,9.25,9.25,0,0,1,3.91,4.48,11.12,11.12,0,0,1,4.51-4.4,14,14,0,0,1,6.73-1.59Q710.41,776.32,713.46,779.39Z" transform="translate(-183.36 -361)"/><path d="M767,764.87v40.07h-3.67v-5.62a11.59,11.59,0,0,1-4.56,4.37,13.36,13.36,0,0,1-6.4,1.52,14.49,14.49,0,0,1-7.24-1.84,13,13,0,0,1-5.07-5.13,16.23,16.23,0,0,1,0-15,12.91,12.91,0,0,1,5.07-5.11,14.67,14.67,0,0,1,7.24-1.8,13.4,13.4,0,0,1,6.24,1.43,11.86,11.86,0,0,1,4.56,4.18V764.87Zm-8.93,35.56a9.84,9.84,0,0,0,3.78-3.92,12.86,12.86,0,0,0,0-11.55,9.78,9.78,0,0,0-3.78-3.92,11.26,11.26,0,0,0-10.8,0,9.65,9.65,0,0,0-3.78,3.92,12.77,12.77,0,0,0,0,11.55,9.71,9.71,0,0,0,3.78,3.92,11.33,11.33,0,0,0,10.8,0Z" transform="translate(-183.36 -361)"/><path d="M802.43,791.92H778.67a10.15,10.15,0,0,0,3.4,7.16,11.26,11.26,0,0,0,7.77,2.72,12.29,12.29,0,0,0,4.87-.94,10.7,10.7,0,0,0,3.83-2.78l2.16,2.48A12.19,12.19,0,0,1,796,804a16,16,0,0,1-6.23,1.19,15.79,15.79,0,0,1-7.75-1.87,13.45,13.45,0,0,1-5.27-5.15,14.72,14.72,0,0,1-1.89-7.46,15.3,15.3,0,0,1,1.81-7.45,13.18,13.18,0,0,1,5-5.13,13.91,13.91,0,0,1,7.1-1.83,13.72,13.72,0,0,1,7.07,1.83,13.12,13.12,0,0,1,4.92,5.1,15.37,15.37,0,0,1,1.78,7.48Zm-20.6-9.69a10.25,10.25,0,0,0-3.16,6.83h20.14a10.3,10.3,0,0,0-3.16-6.83,9.73,9.73,0,0,0-6.94-2.62A9.62,9.62,0,0,0,781.83,782.23Z" transform="translate(-183.36 -361)"/><path d="M824.46,764.87h3.83v40.07h-3.83Z" transform="translate(-183.36 -361)"/><path d="M841.47,765.43a2.89,2.89,0,0,1,.81,2.08,5.79,5.79,0,0,1-.19,1.38c-.13.49-.3,1.05-.51,1.7L839.25,778h-2.59l1.89-7.77a2.76,2.76,0,0,1-1.46-1,2.88,2.88,0,0,1-.54-1.76,2.84,2.84,0,0,1,.81-2.1,2.8,2.8,0,0,1,2.06-.81A2.77,2.77,0,0,1,841.47,765.43Z" transform="translate(-183.36 -361)"/><path d="M873.65,791.92H849.89a10.19,10.19,0,0,0,3.4,7.16,11.29,11.29,0,0,0,7.78,2.72,12.28,12.28,0,0,0,4.86-.94,10.7,10.7,0,0,0,3.83-2.78l2.16,2.48A12.16,12.16,0,0,1,867.2,804a16,16,0,0,1-6.24,1.19,15.79,15.79,0,0,1-7.75-1.87,13.43,13.43,0,0,1-5.26-5.15,14.72,14.72,0,0,1-1.89-7.46,15.19,15.19,0,0,1,1.81-7.45,13.16,13.16,0,0,1,5-5.13,13.93,13.93,0,0,1,7.1-1.83,13.78,13.78,0,0,1,7.08,1.83,13.09,13.09,0,0,1,4.91,5.1,15.37,15.37,0,0,1,1.78,7.48Zm-20.6-9.69a10.25,10.25,0,0,0-3.16,6.83H870a10.25,10.25,0,0,0-3.16-6.83,10.42,10.42,0,0,0-13.82,0Z" transform="translate(-183.36 -361)"/><path d="M904.51,779.42q3.16,3.11,3.16,9.05v16.47h-3.83v-16.1q0-4.43-2.22-6.75a8.35,8.35,0,0,0-6.32-2.32A9.69,9.69,0,0,0,888,782.5a10.31,10.31,0,0,0-2.67,7.53v14.91h-3.84V776.53h3.68v5.24a10.6,10.6,0,0,1,4.34-4,13.88,13.88,0,0,1,6.46-1.43A11.6,11.6,0,0,1,904.51,779.42Z" transform="translate(-183.36 -361)"/><path d="M933.05,803.21a7.2,7.2,0,0,1-2.67,1.48,10.89,10.89,0,0,1-3.33.52,7.52,7.52,0,0,1-8.31-8.27V779.77h-5.08v-3.24h5.08v-6.21h3.83v6.21h8.64v3.24h-8.64v17a5.39,5.39,0,0,0,1.27,3.86,4.83,4.83,0,0,0,3.65,1.32,6.84,6.84,0,0,0,2.29-.38,5.63,5.63,0,0,0,1.92-1.08Z" transform="translate(-183.36 -361)"/><path d="M947.71,777.77a13.7,13.7,0,0,1,6.62-1.45V780l-.92,0a9.08,9.08,0,0,0-7,2.75c-1.7,1.84-2.54,4.41-2.54,7.72v14.48H940V776.53h3.68v5.56A9.37,9.37,0,0,1,947.71,777.77Z" transform="translate(-183.36 -361)"/><path d="M985.7,791.92H961.94a10.19,10.19,0,0,0,3.4,7.16,11.29,11.29,0,0,0,7.78,2.72,12.28,12.28,0,0,0,4.86-.94,10.7,10.7,0,0,0,3.83-2.78l2.16,2.48a12.16,12.16,0,0,1-4.72,3.46,16,16,0,0,1-6.24,1.19,15.79,15.79,0,0,1-7.75-1.87,13.36,13.36,0,0,1-5.26-5.15,14.62,14.62,0,0,1-1.89-7.46,15.29,15.29,0,0,1,1.8-7.45,13.25,13.25,0,0,1,5-5.13,14.65,14.65,0,0,1,14.18,0,13.16,13.16,0,0,1,4.91,5.1,15.37,15.37,0,0,1,1.78,7.48Zm-20.6-9.69a10.25,10.25,0,0,0-3.16,6.83h20.14a10.25,10.25,0,0,0-3.16-6.83,10.42,10.42,0,0,0-13.82,0Z" transform="translate(-183.36 -361)"/><path d="M1015.45,778.12a13,13,0,0,1,5.08,5.11,16.41,16.41,0,0,1,0,15.06,13.06,13.06,0,0,1-5,5.11,14.59,14.59,0,0,1-7.26,1.81,13.34,13.34,0,0,1-6.24-1.44,11.71,11.71,0,0,1-4.56-4.18v15.82h-3.84V776.53h3.67v5.62a11.91,11.91,0,0,1,4.57-4.32,13.35,13.35,0,0,1,6.4-1.51A14.63,14.63,0,0,1,1015.45,778.12Zm-2.1,22.31a9.7,9.7,0,0,0,3.8-3.92,11.9,11.9,0,0,0,1.38-5.78,11.76,11.76,0,0,0-1.38-5.75,9.86,9.86,0,0,0-3.8-3.91,11.1,11.1,0,0,0-10.83,0,10,10,0,0,0-3.78,3.91,11.76,11.76,0,0,0-1.38,5.75,11.9,11.9,0,0,0,1.38,5.78,9.84,9.84,0,0,0,3.78,3.92,11.39,11.39,0,0,0,10.83,0Z" transform="translate(-183.36 -361)"/><path d="M1037.89,777.77a13.69,13.69,0,0,1,6.61-1.45V780l-.91,0a9.08,9.08,0,0,0-7,2.75c-1.7,1.84-2.54,4.41-2.54,7.72v14.48h-3.84V776.53h3.68v5.56A9.32,9.32,0,0,1,1037.89,777.77Z" transform="translate(-183.36 -361)"/><path d="M1051.36,769.51a2.65,2.65,0,0,1-.81-1.94,2.59,2.59,0,0,1,.81-1.89,2.72,2.72,0,0,1,2-.81,2.78,2.78,0,0,1,2,.78,2.49,2.49,0,0,1,.81,1.86,2.83,2.83,0,0,1-4.81,2Zm.06,7h3.83v28.41h-3.83Z" transform="translate(-183.36 -361)"/><path d="M1066.94,804.21a14.41,14.41,0,0,1-4.94-2.51l1.73-3a14.61,14.61,0,0,0,4.48,2.3,17.92,17.92,0,0,0,5.62.89,10.74,10.74,0,0,0,5.75-1.22,3.86,3.86,0,0,0,1.86-3.43,3.05,3.05,0,0,0-1-2.45,6.64,6.64,0,0,0-2.59-1.35,34.28,34.28,0,0,0-4.16-.89,49.11,49.11,0,0,1-5.56-1.33,8.18,8.18,0,0,1-3.59-2.29,6.39,6.39,0,0,1-1.49-4.48,7,7,0,0,1,3-5.84c2-1.51,4.73-2.26,8.26-2.26a21.64,21.64,0,0,1,5.5.72,15.31,15.31,0,0,1,4.54,1.92l-1.67,3.08a14.34,14.34,0,0,0-8.37-2.43,9.67,9.67,0,0,0-5.54,1.3,4,4,0,0,0-1.86,3.4,3.36,3.36,0,0,0,1.05,2.59,6.52,6.52,0,0,0,2.62,1.43,42.09,42.09,0,0,0,4.32.95,49.22,49.22,0,0,1,5.45,1.29,7.93,7.93,0,0,1,3.51,2.22,6,6,0,0,1,1.46,4.32,6.87,6.87,0,0,1-3.1,5.91q-3.11,2.19-8.62,2.19A22,22,0,0,1,1066.94,804.21Z" transform="translate(-183.36 -361)"/><path d="M1117.08,791.92h-23.76a10.19,10.19,0,0,0,3.4,7.16,11.29,11.29,0,0,0,7.78,2.72,12.28,12.28,0,0,0,4.86-.94,10.7,10.7,0,0,0,3.83-2.78l2.16,2.48a12.16,12.16,0,0,1-4.72,3.46,16,16,0,0,1-6.24,1.19,15.79,15.79,0,0,1-7.75-1.87,13.36,13.36,0,0,1-5.26-5.15,14.62,14.62,0,0,1-1.89-7.46,15.29,15.29,0,0,1,1.8-7.45,13.25,13.25,0,0,1,5-5.13,14.65,14.65,0,0,1,14.18,0,13.16,13.16,0,0,1,4.91,5.1,15.37,15.37,0,0,1,1.78,7.48Zm-20.6-9.69a10.25,10.25,0,0,0-3.16,6.83h20.14a10.25,10.25,0,0,0-3.16-6.83,10.42,10.42,0,0,0-13.82,0Z" transform="translate(-183.36 -361)"/><path d="M1163.84,791.92h-23.76a10.19,10.19,0,0,0,3.4,7.16,11.31,11.31,0,0,0,7.78,2.72,12.28,12.28,0,0,0,4.86-.94,10.61,10.61,0,0,0,3.83-2.78l2.16,2.48a12.16,12.16,0,0,1-4.72,3.46,16,16,0,0,1-6.24,1.19,15.81,15.81,0,0,1-7.75-1.87,13.43,13.43,0,0,1-5.26-5.15,14.72,14.72,0,0,1-1.89-7.46,15.19,15.19,0,0,1,1.81-7.45,13.16,13.16,0,0,1,5-5.13,13.94,13.94,0,0,1,7.11-1.83,13.77,13.77,0,0,1,7.07,1.83,13,13,0,0,1,4.91,5.1,15.38,15.38,0,0,1,1.79,7.48Zm-20.6-9.69a10.3,10.3,0,0,0-3.16,6.83h20.14a10.25,10.25,0,0,0-3.16-6.83,10.42,10.42,0,0,0-13.82,0Z" transform="translate(-183.36 -361)"/><path d="M1194.7,779.42q3.16,3.11,3.16,9.05v16.47H1194v-16.1q0-4.43-2.22-6.75a8.33,8.33,0,0,0-6.31-2.32,9.7,9.7,0,0,0-7.27,2.73,10.31,10.31,0,0,0-2.67,7.53v14.91h-3.84V776.53h3.68v5.24a10.6,10.6,0,0,1,4.34-4,13.88,13.88,0,0,1,6.46-1.43A11.59,11.59,0,0,1,1194.7,779.42Z" transform="translate(-183.36 -361)"/><path d="M328.75,842.92a12.91,12.91,0,0,1,5.07,5.11,16.33,16.33,0,0,1,0,15.06,12.93,12.93,0,0,1-5.05,5.11,14.59,14.59,0,0,1-7.26,1.81,13.4,13.4,0,0,1-6.24-1.44,11.78,11.78,0,0,1-4.56-4.18v15.82h-3.83V841.33h3.67V847a11.82,11.82,0,0,1,4.56-4.32,13.35,13.35,0,0,1,6.4-1.51A14.67,14.67,0,0,1,328.75,842.92Zm-2.11,22.31a9.78,9.78,0,0,0,3.81-3.92,11.9,11.9,0,0,0,1.37-5.78,11.75,11.75,0,0,0-1.37-5.75,10,10,0,0,0-3.81-3.91,11.1,11.1,0,0,0-10.83,0,10,10,0,0,0-3.78,3.91,11.86,11.86,0,0,0-1.37,5.75,12,12,0,0,0,1.37,5.78,9.84,9.84,0,0,0,3.78,3.92,11.39,11.39,0,0,0,10.83,0Z" transform="translate(-183.36 -361)"/><path d="M347.7,868.14a13.56,13.56,0,0,1-5.18-5.15,15.65,15.65,0,0,1,0-14.91A13.44,13.44,0,0,1,347.7,843a15.88,15.88,0,0,1,14.8,0,13.29,13.29,0,0,1,5.15,5.13,15.8,15.8,0,0,1,0,14.91,13.41,13.41,0,0,1-5.15,5.15,15.58,15.58,0,0,1-14.8,0Zm12.82-2.91a9.6,9.6,0,0,0,3.76-3.92,13,13,0,0,0,0-11.55,9.54,9.54,0,0,0-3.76-3.92,11.35,11.35,0,0,0-10.85,0,9.78,9.78,0,0,0-3.78,3.92,12.77,12.77,0,0,0,0,11.55,9.84,9.84,0,0,0,3.78,3.92,11.43,11.43,0,0,0,10.85,0Z" transform="translate(-183.36 -361)"/><path d="M377.35,829.67h3.83v40.07h-3.83Z" transform="translate(-183.36 -361)"/><path d="M391.82,834.31a2.65,2.65,0,0,1-.81-1.94,2.59,2.59,0,0,1,.81-1.89,2.71,2.71,0,0,1,2-.81,2.75,2.75,0,0,1,2,.78,2.49,2.49,0,0,1,.81,1.86,2.82,2.82,0,0,1-4.8,2Zm.05,7h3.84v28.41h-3.84Z" transform="translate(-183.36 -361)"/><path d="M410.64,868.17a13.22,13.22,0,0,1-5.22-5.16,15.76,15.76,0,0,1,0-14.93,13.41,13.41,0,0,1,5.22-5.13,15.32,15.32,0,0,1,7.53-1.83,14.51,14.51,0,0,1,6.56,1.43,10.83,10.83,0,0,1,4.56,4.18l-2.86,1.95a8.91,8.91,0,0,0-3.56-3.16,10.49,10.49,0,0,0-4.7-1.06,11.14,11.14,0,0,0-5.54,1.38,9.71,9.71,0,0,0-3.83,3.92,12.84,12.84,0,0,0,0,11.58,9.82,9.82,0,0,0,3.83,3.89,11.24,11.24,0,0,0,5.54,1.37,10.88,10.88,0,0,0,4.7-1,8.84,8.84,0,0,0,3.56-3.13l2.86,1.94a10.73,10.73,0,0,1-4.59,4.18,14.53,14.53,0,0,1-6.53,1.44A15.32,15.32,0,0,1,410.64,868.17Z" transform="translate(-183.36 -361)"/><path d="M461,856.72H437.29a10.11,10.11,0,0,0,3.4,7.16,11.31,11.31,0,0,0,7.77,2.72,12.21,12.21,0,0,0,4.86-.94,10.65,10.65,0,0,0,3.84-2.78l2.16,2.48a12.19,12.19,0,0,1-4.73,3.46,16,16,0,0,1-6.24,1.19,15.78,15.78,0,0,1-7.74-1.87,13.45,13.45,0,0,1-5.27-5.15,14.72,14.72,0,0,1-1.89-7.46,15.19,15.19,0,0,1,1.81-7.45,13.18,13.18,0,0,1,5-5.13,14.63,14.63,0,0,1,14.17,0,13.12,13.12,0,0,1,4.92,5.1,15.49,15.49,0,0,1,1.78,7.48ZM440.44,847a10.27,10.27,0,0,0-3.15,6.83h20.14a10.32,10.32,0,0,0-3.16-6.83,10.44,10.44,0,0,0-13.83,0Z" transform="translate(-183.36 -361)"/><path d="M480.43,855.53l7.83-10.26h3.56l-7.66,10.26,7.66,10.21h-3.56Zm9.61,0,7.83-10.26h3.57l-7.67,10.26,7.67,10.21h-3.57Z" transform="translate(-183.36 -361)"/><path d="M548.9,831.94v37.8h-3.83V839.5l-14.85,25.43h-1.89l-14.85-25.27v30.08h-3.84v-37.8h3.3l16.41,28,16.26-28Z" transform="translate(-183.36 -361)"/><path d="M564.61,868.14a13.63,13.63,0,0,1-5.18-5.15,15.65,15.65,0,0,1,0-14.91,13.51,13.51,0,0,1,5.18-5.13,15.88,15.88,0,0,1,14.8,0,13.25,13.25,0,0,1,5.16,5.13,15.87,15.87,0,0,1,0,14.91,13.37,13.37,0,0,1-5.16,5.15,15.58,15.58,0,0,1-14.8,0Zm12.83-2.91a9.64,9.64,0,0,0,3.75-3.92,13,13,0,0,0,0-11.55,9.58,9.58,0,0,0-3.75-3.92,11.35,11.35,0,0,0-10.85,0,9.65,9.65,0,0,0-3.78,3.92,12.77,12.77,0,0,0,0,11.55,9.71,9.71,0,0,0,3.78,3.92,11.43,11.43,0,0,0,10.85,0Z" transform="translate(-183.36 -361)"/><path d="M617.24,844.22q3.15,3.1,3.16,9v16.47h-3.84v-16.1c0-2.95-.73-5.2-2.21-6.75a8.35,8.35,0,0,0-6.32-2.32,9.69,9.69,0,0,0-7.26,2.73,10.31,10.31,0,0,0-2.68,7.53v14.91h-3.83V841.33h3.67v5.24a10.69,10.69,0,0,1,4.35-4,13.81,13.81,0,0,1,6.45-1.43A11.61,11.61,0,0,1,617.24,844.22Z" transform="translate(-183.36 -361)"/><path d="M645.78,868a7.16,7.16,0,0,1-2.68,1.48,10.83,10.83,0,0,1-3.32.52,7.52,7.52,0,0,1-8.31-8.27V844.57h-5.08v-3.24h5.08v-6.21h3.83v6.21h8.64v3.24H635.3v17a5.35,5.35,0,0,0,1.27,3.86,4.82,4.82,0,0,0,3.64,1.32,6.85,6.85,0,0,0,2.3-.38,5.63,5.63,0,0,0,1.92-1.08Z" transform="translate(-183.36 -361)"/><path d="M653.74,869a14.51,14.51,0,0,1-4.94-2.51l1.73-3a14.61,14.61,0,0,0,4.48,2.3,17.92,17.92,0,0,0,5.62.89,10.72,10.72,0,0,0,5.75-1.22,3.86,3.86,0,0,0,1.86-3.43,3.05,3.05,0,0,0-1-2.45,6.57,6.57,0,0,0-2.59-1.35,34.28,34.28,0,0,0-4.16-.89A49.65,49.65,0,0,1,654.9,856a8.18,8.18,0,0,1-3.59-2.29,6.39,6.39,0,0,1-1.48-4.48,7,7,0,0,1,3-5.84q3-2.26,8.26-2.26a21.77,21.77,0,0,1,5.51.72,15.36,15.36,0,0,1,4.53,1.92l-1.67,3.08a14.34,14.34,0,0,0-8.37-2.43,9.69,9.69,0,0,0-5.54,1.3,4,4,0,0,0-1.86,3.4,3.36,3.36,0,0,0,1.05,2.59,6.58,6.58,0,0,0,2.62,1.43,43.35,43.35,0,0,0,4.32,1,50,50,0,0,1,5.46,1.29,8,8,0,0,1,3.51,2.22,6.09,6.09,0,0,1,1.45,4.32,6.87,6.87,0,0,1-3.1,5.91q-3.11,2.19-8.61,2.19A22,22,0,0,1,653.74,869Z" transform="translate(-183.36 -361)"/><path d="M703.88,856.72H680.12a10.19,10.19,0,0,0,3.4,7.16,11.35,11.35,0,0,0,7.78,2.72,12.28,12.28,0,0,0,4.86-.94,10.7,10.7,0,0,0,3.83-2.78l2.16,2.48a12.16,12.16,0,0,1-4.72,3.46,16,16,0,0,1-6.24,1.19,15.79,15.79,0,0,1-7.75-1.87,13.43,13.43,0,0,1-5.26-5.15,14.72,14.72,0,0,1-1.89-7.46,15.19,15.19,0,0,1,1.81-7.45,13.16,13.16,0,0,1,5-5.13,13.94,13.94,0,0,1,7.11-1.83,13.77,13.77,0,0,1,7.07,1.83,13.09,13.09,0,0,1,4.91,5.1,15.37,15.37,0,0,1,1.78,7.48ZM683.28,847a10.23,10.23,0,0,0-3.16,6.83h20.14A10.23,10.23,0,0,0,697.1,847a10.42,10.42,0,0,0-13.82,0Z" transform="translate(-183.36 -361)"/><path d="M719.46,842.57a13.69,13.69,0,0,1,6.61-1.45v3.72l-.91-.05a9.08,9.08,0,0,0-7,2.75c-1.7,1.84-2.54,4.41-2.54,7.72v14.48h-3.84V841.33h3.68v5.56A9.32,9.32,0,0,1,719.46,842.57Z" transform="translate(-183.36 -361)"/><path d="M740.68,842.57a13.7,13.7,0,0,1,6.62-1.45v3.72l-.92-.05a9.08,9.08,0,0,0-7,2.75q-2.54,2.76-2.54,7.72v14.48H733V841.33h3.67v5.56A9.37,9.37,0,0,1,740.68,842.57Z" transform="translate(-183.36 -361)"/><path d="M772.62,843.9c2,1.85,3,4.6,3,8.23v17.61h-3.67v-4.43a8.72,8.72,0,0,1-3.81,3.45,13.27,13.27,0,0,1-6,1.25,11.69,11.69,0,0,1-7.56-2.27,7.8,7.8,0,0,1-.19-11.83q2.61-2.2,8.34-2.21h9V852a7.31,7.31,0,0,0-2-5.59,8.48,8.48,0,0,0-6-1.92,15.29,15.29,0,0,0-5.18.89,13.25,13.25,0,0,0-4.27,2.46L752.53,845a15.46,15.46,0,0,1,5.19-2.84,20.32,20.32,0,0,1,6.37-1C767.8,841.12,770.64,842,772.62,843.9Zm-4.32,21.6a8.87,8.87,0,0,0,3.46-4.3v-4.64h-8.91q-7.29,0-7.29,5.08a4.64,4.64,0,0,0,1.89,3.91,8.62,8.62,0,0,0,5.29,1.43A10.1,10.1,0,0,0,768.3,865.5Z" transform="translate(-183.36 -361)"/><path d="M801,868a7.2,7.2,0,0,1-2.67,1.48A10.83,10.83,0,0,1,795,870a7.53,7.53,0,0,1-8.32-8.27V844.57h-5.08v-3.24h5.08v-6.21h3.84v6.21h8.63v3.24H790.5v17a5.39,5.39,0,0,0,1.26,3.86,4.83,4.83,0,0,0,3.65,1.32,6.79,6.79,0,0,0,2.29-.38,5.63,5.63,0,0,0,1.92-1.08Z" transform="translate(-183.36 -361)"/><path d="M804.64,865.74l7.67-10.21-7.67-10.26h3.57L816,855.53l-7.83,10.21Zm9.61,0,7.67-10.21-7.67-10.26h3.57l7.83,10.26-7.83,10.21Z" transform="translate(-183.36 -361)"/><path d="M872.57,856.72H848.81a10.16,10.16,0,0,0,3.41,7.16A11.31,11.31,0,0,0,860,866.6a12.21,12.21,0,0,0,4.86-.94,10.65,10.65,0,0,0,3.84-2.78l2.16,2.48a12.19,12.19,0,0,1-4.73,3.46,16,16,0,0,1-6.24,1.19,15.81,15.81,0,0,1-7.75-1.87,13.43,13.43,0,0,1-5.26-5.15,14.72,14.72,0,0,1-1.89-7.46,15.19,15.19,0,0,1,1.81-7.45,13.18,13.18,0,0,1,5-5.13,14.63,14.63,0,0,1,14.17,0,13.12,13.12,0,0,1,4.92,5.1,15.49,15.49,0,0,1,1.78,7.48ZM852,847a10.32,10.32,0,0,0-3.16,6.83H869A10.32,10.32,0,0,0,865.8,847,10.44,10.44,0,0,0,852,847Z" transform="translate(-183.36 -361)"/><path d="M895.42,868a7.32,7.32,0,0,1-2.68,1.48,10.83,10.83,0,0,1-3.32.52,7.52,7.52,0,0,1-8.31-8.27V844.57H876v-3.24h5.08v-6.21h3.83v6.21h8.64v3.24h-8.64v17a5.35,5.35,0,0,0,1.27,3.86,4.81,4.81,0,0,0,3.64,1.32,6.89,6.89,0,0,0,2.3-.38,5.63,5.63,0,0,0,1.92-1.08Z" transform="translate(-183.36 -361)"/><path d="M942.45,829.67v40.07h-3.67v-5.62a11.68,11.68,0,0,1-4.57,4.37,13.36,13.36,0,0,1-6.4,1.52,14.45,14.45,0,0,1-7.23-1.84A13.12,13.12,0,0,1,915.5,863a16.3,16.3,0,0,1,0-15,13,13,0,0,1,5.08-5.11,14.63,14.63,0,0,1,7.23-1.8,13.34,13.34,0,0,1,6.24,1.43,11.72,11.72,0,0,1,4.56,4.18V829.67Zm-8.94,35.56a9.84,9.84,0,0,0,3.78-3.92,12.77,12.77,0,0,0,0-11.55,9.78,9.78,0,0,0-3.78-3.92,10.58,10.58,0,0,0-5.37-1.38,10.7,10.7,0,0,0-5.43,1.38,9.78,9.78,0,0,0-3.78,3.92,12.77,12.77,0,0,0,0,11.55,9.84,9.84,0,0,0,3.78,3.92,10.79,10.79,0,0,0,5.43,1.37A10.67,10.67,0,0,0,933.51,865.23Z" transform="translate(-183.36 -361)"/><path d="M955.62,830.23a2.89,2.89,0,0,1,.81,2.08,5.75,5.75,0,0,1-.18,1.38c-.13.49-.3,1-.52,1.7l-2.32,7.45h-2.59l1.89-7.77a2.76,2.76,0,0,1-1.46-1,2.88,2.88,0,0,1-.54-1.76,2.84,2.84,0,0,1,.81-2.1,3,3,0,0,1,4.1,0Z" transform="translate(-183.36 -361)"/><path d="M990.18,841.33v28.41h-3.67v-5.19a10.45,10.45,0,0,1-4.16,4,12.43,12.43,0,0,1-6,1.44q-5.56,0-8.78-3.11t-3.21-9.1V841.33h3.83v16.09q0,4.49,2.22,6.81a8.29,8.29,0,0,0,6.31,2.32,9.3,9.3,0,0,0,7.08-2.73c1.73-1.82,2.59-4.34,2.59-7.58V841.33Z" transform="translate(-183.36 -361)"/><path d="M1023.91,844.22q3.15,3.1,3.16,9v16.47h-3.84v-16.1q0-4.42-2.21-6.75a8.37,8.37,0,0,0-6.32-2.32,9.69,9.69,0,0,0-7.26,2.73,10.27,10.27,0,0,0-2.68,7.53v14.91h-3.83V841.33h3.67v5.24a10.57,10.57,0,0,1,4.35-4,13.81,13.81,0,0,1,6.45-1.43A11.63,11.63,0,0,1,1023.91,844.22Z" transform="translate(-183.36 -361)"/><path d="M1055.87,868.17a13.26,13.26,0,0,1-5.21-5.16,15.69,15.69,0,0,1,0-14.93,13.45,13.45,0,0,1,5.21-5.13,15.39,15.39,0,0,1,7.54-1.83,14.54,14.54,0,0,1,6.56,1.43,11,11,0,0,1,4.56,4.18l-2.86,1.95a8.94,8.94,0,0,0-3.57-3.16,10.45,10.45,0,0,0-4.69-1.06,11.11,11.11,0,0,0-5.54,1.38,9.64,9.64,0,0,0-3.83,3.92,12.84,12.84,0,0,0,0,11.58,9.75,9.75,0,0,0,3.83,3.89,11.21,11.21,0,0,0,5.54,1.37,10.83,10.83,0,0,0,4.69-1,8.86,8.86,0,0,0,3.57-3.13l2.86,1.94a10.84,10.84,0,0,1-4.59,4.18,14.53,14.53,0,0,1-6.53,1.44A15.39,15.39,0,0,1,1055.87,868.17Z" transform="translate(-183.36 -361)"/><path d="M1106.28,856.72h-23.76a10.19,10.19,0,0,0,3.4,7.16,11.35,11.35,0,0,0,7.78,2.72,12.28,12.28,0,0,0,4.86-.94,10.61,10.61,0,0,0,3.83-2.78l2.16,2.48a12.16,12.16,0,0,1-4.72,3.46,16,16,0,0,1-6.24,1.19,15.81,15.81,0,0,1-7.75-1.87,13.43,13.43,0,0,1-5.26-5.15,14.72,14.72,0,0,1-1.89-7.46,15.19,15.19,0,0,1,1.81-7.45,13.16,13.16,0,0,1,5-5.13,13.94,13.94,0,0,1,7.11-1.83,13.77,13.77,0,0,1,7.07,1.83,13,13,0,0,1,4.91,5.1,15.38,15.38,0,0,1,1.79,7.48Zm-20.6-9.69a10.28,10.28,0,0,0-3.16,6.83h20.14a10.23,10.23,0,0,0-3.16-6.83,10.42,10.42,0,0,0-13.82,0Z" transform="translate(-183.36 -361)"/><path d="M1121.86,842.57a13.7,13.7,0,0,1,6.62-1.45v3.72l-.92-.05a9.08,9.08,0,0,0-7,2.75c-1.7,1.84-2.54,4.41-2.54,7.72v14.48h-3.83V841.33h3.67v5.56A9.37,9.37,0,0,1,1121.86,842.57Z" transform="translate(-183.36 -361)"/><path d="M1139.36,868.17a13.19,13.19,0,0,1-5.21-5.16,15.69,15.69,0,0,1,0-14.93,13.38,13.38,0,0,1,5.21-5.13,15.32,15.32,0,0,1,7.53-1.83,14.51,14.51,0,0,1,6.56,1.43,10.83,10.83,0,0,1,4.56,4.18l-2.86,1.95a8.91,8.91,0,0,0-3.56-3.16,10.49,10.49,0,0,0-4.7-1.06,11.14,11.14,0,0,0-5.54,1.38,9.71,9.71,0,0,0-3.83,3.92,12.84,12.84,0,0,0,0,11.58,9.82,9.82,0,0,0,3.83,3.89,11.24,11.24,0,0,0,5.54,1.37,10.88,10.88,0,0,0,4.7-1,8.84,8.84,0,0,0,3.56-3.13l2.86,1.94a10.73,10.73,0,0,1-4.59,4.18,14.53,14.53,0,0,1-6.53,1.44A15.32,15.32,0,0,1,1139.36,868.17Z" transform="translate(-183.36 -361)"/><path d="M1165.09,829.67h3.83v40.07h-3.83Z" transform="translate(-183.36 -361)"/><path d="M1204.34,856.72h-23.76a10.16,10.16,0,0,0,3.41,7.16,11.31,11.31,0,0,0,7.77,2.72,12.21,12.21,0,0,0,4.86-.94,10.65,10.65,0,0,0,3.84-2.78l2.16,2.48a12.19,12.19,0,0,1-4.73,3.46,16,16,0,0,1-6.24,1.19,15.78,15.78,0,0,1-7.74-1.87,13.45,13.45,0,0,1-5.27-5.15,14.72,14.72,0,0,1-1.89-7.46,15.19,15.19,0,0,1,1.81-7.45,13.18,13.18,0,0,1,5-5.13,14.63,14.63,0,0,1,14.17,0,13.12,13.12,0,0,1,4.92,5.1,15.49,15.49,0,0,1,1.78,7.48Zm-20.6-9.69a10.32,10.32,0,0,0-3.16,6.83h20.15a10.32,10.32,0,0,0-3.16-6.83,10.44,10.44,0,0,0-13.83,0Z" transform="translate(-183.36 -361)"/><path d="M1252.29,829.67v40.07h-3.67v-5.62a11.59,11.59,0,0,1-4.56,4.37,13.36,13.36,0,0,1-6.4,1.52,14.42,14.42,0,0,1-7.23-1.84,13.05,13.05,0,0,1-5.08-5.13,16.23,16.23,0,0,1,0-15,12.94,12.94,0,0,1,5.08-5.11,14.61,14.61,0,0,1,7.23-1.8,13.4,13.4,0,0,1,6.24,1.43,11.86,11.86,0,0,1,4.56,4.18V829.67Zm-8.93,35.56a9.84,9.84,0,0,0,3.78-3.92,12.77,12.77,0,0,0,0-11.55,9.78,9.78,0,0,0-3.78-3.92,11.25,11.25,0,0,0-10.8,0,9.78,9.78,0,0,0-3.78,3.92,12.77,12.77,0,0,0,0,11.55,9.84,9.84,0,0,0,3.78,3.92,11.33,11.33,0,0,0,10.8,0Z" transform="translate(-183.36 -361)"/><path d="M1287.72,856.72H1264a10.15,10.15,0,0,0,3.4,7.16,11.32,11.32,0,0,0,7.78,2.72,12.28,12.28,0,0,0,4.86-.94,10.7,10.7,0,0,0,3.83-2.78l2.16,2.48a12.16,12.16,0,0,1-4.72,3.46A16,16,0,0,1,1275,870a15.79,15.79,0,0,1-7.75-1.87A13.45,13.45,0,0,1,1262,863a14.72,14.72,0,0,1-1.88-7.46,15.29,15.29,0,0,1,1.8-7.45,13.25,13.25,0,0,1,5-5.13,14.65,14.65,0,0,1,14.18,0,13.16,13.16,0,0,1,4.91,5.1,15.37,15.37,0,0,1,1.78,7.48Zm-20.6-9.69a10.23,10.23,0,0,0-3.16,6.83h20.14a10.28,10.28,0,0,0-3.16-6.83,10.42,10.42,0,0,0-13.82,0Z" transform="translate(-183.36 -361)"/><path d="M327.61,901.35q4,4.95,4,14A24,24,0,0,1,329.45,926a15.11,15.11,0,0,1-6.05,6.62,17.89,17.89,0,0,1-9.07,2.24,17,17,0,0,1-9-2.05l1.57-3.13a13.26,13.26,0,0,0,7.34,1.78q6.27,0,9.83-4T327.67,916c0-.94-.06-2-.17-3.08a10.16,10.16,0,0,1-4.48,4.78,14.42,14.42,0,0,1-7.07,1.7,15,15,0,0,1-6.62-1.4,10.83,10.83,0,0,1-4.51-4,10.94,10.94,0,0,1-1.62-6,10.95,10.95,0,0,1,6.3-10.18,15,15,0,0,1,6.61-1.43Q323.61,896.41,327.61,901.35Zm-6,13.64a8.51,8.51,0,0,0,3.43-3,7.5,7.5,0,0,0,1.24-4.21,7.29,7.29,0,0,0-1.16-4,8.39,8.39,0,0,0-3.43-3,11.89,11.89,0,0,0-5.4-1.13A9.75,9.75,0,0,0,309.6,902a7.51,7.51,0,0,0-2.56,6,7.43,7.43,0,0,0,2.56,5.94,10.25,10.25,0,0,0,6.94,2.22A11.27,11.27,0,0,0,321.59,915Z" transform="translate(-183.36 -361)"/><path d="M375.78,907.72a13,13,0,0,1,5.08,5.11,16.41,16.41,0,0,1,0,15.06,13.06,13.06,0,0,1-5.05,5.11,14.66,14.66,0,0,1-7.27,1.81,13.45,13.45,0,0,1-6.23-1.43,11.84,11.84,0,0,1-4.57-4.19V945h-3.83V906.13h3.67v5.62a11.82,11.82,0,0,1,4.56-4.32,13.38,13.38,0,0,1,6.4-1.51A14.64,14.64,0,0,1,375.78,907.72ZM373.67,930a9.78,9.78,0,0,0,3.81-3.92,11.9,11.9,0,0,0,1.38-5.78,11.76,11.76,0,0,0-1.38-5.75,10,10,0,0,0-3.81-3.91,11.08,11.08,0,0,0-10.82,0,9.88,9.88,0,0,0-3.78,3.91,11.76,11.76,0,0,0-1.38,5.75,11.9,11.9,0,0,0,1.38,5.78,9.71,9.71,0,0,0,3.78,3.92,11.37,11.37,0,0,0,10.82,0Z" transform="translate(-183.36 -361)"/><path d="M394.73,932.94a13.63,13.63,0,0,1-5.18-5.15,15.65,15.65,0,0,1,0-14.91,13.51,13.51,0,0,1,5.18-5.13,15.88,15.88,0,0,1,14.8,0,13.39,13.39,0,0,1,5.16,5.13,15.87,15.87,0,0,1,0,14.91,13.51,13.51,0,0,1-5.16,5.15,15.58,15.58,0,0,1-14.8,0ZM407.56,930a9.64,9.64,0,0,0,3.75-3.92,13,13,0,0,0,0-11.55,9.58,9.58,0,0,0-3.75-3.92,11.37,11.37,0,0,0-10.86,0,9.78,9.78,0,0,0-3.78,3.92,12.86,12.86,0,0,0,0,11.55A9.84,9.84,0,0,0,396.7,930a11.45,11.45,0,0,0,10.86,0Z" transform="translate(-183.36 -361)"/><path d="M424.33,899.11a2.65,2.65,0,0,1-.81-1.94,2.59,2.59,0,0,1,.81-1.89,2.7,2.7,0,0,1,2-.81,2.78,2.78,0,0,1,2,.78,2.49,2.49,0,0,1,.81,1.86,2.82,2.82,0,0,1-4.8,2Zm.05,7h3.83v28.41h-3.83Z" transform="translate(-183.36 -361)"/><path d="M461.88,909q3.17,3.11,3.16,9.05v16.47h-3.83v-16.1q0-4.43-2.22-6.75a8.34,8.34,0,0,0-6.32-2.32,9.69,9.69,0,0,0-7.26,2.73,10.31,10.31,0,0,0-2.67,7.53v14.91H438.9V906.13h3.68v5.24a10.6,10.6,0,0,1,4.34-4,13.88,13.88,0,0,1,6.46-1.43A11.59,11.59,0,0,1,461.88,909Z" transform="translate(-183.36 -361)"/><path d="M490.42,932.81a7.2,7.2,0,0,1-2.67,1.48,10.87,10.87,0,0,1-3.32.52,7.53,7.53,0,0,1-8.32-8.27V909.37H471v-3.24h5.08v-6.21h3.83v6.21h8.64v3.24h-8.64v17a5.39,5.39,0,0,0,1.27,3.86,4.83,4.83,0,0,0,3.65,1.32,6.79,6.79,0,0,0,2.29-.38,5.63,5.63,0,0,0,1.92-1.08Z" transform="translate(-183.36 -361)"/><path d="M498.38,933.81a14.51,14.51,0,0,1-4.94-2.51l1.73-3a14.61,14.61,0,0,0,4.48,2.3,18,18,0,0,0,5.62.89,10.72,10.72,0,0,0,5.75-1.22,3.86,3.86,0,0,0,1.86-3.43,3.08,3.08,0,0,0-1-2.45,6.71,6.71,0,0,0-2.59-1.35,34.71,34.71,0,0,0-4.16-.89,48.58,48.58,0,0,1-5.56-1.33A8.07,8.07,0,0,1,496,918.5a6.35,6.35,0,0,1-1.49-4.48,7,7,0,0,1,3-5.84q3-2.26,8.26-2.26a21.71,21.71,0,0,1,5.51.72,15.31,15.31,0,0,1,4.54,1.92l-1.68,3.08a14.34,14.34,0,0,0-8.37-2.43,9.63,9.63,0,0,0-5.53,1.3,3.94,3.94,0,0,0-1.87,3.4,3.37,3.37,0,0,0,1.06,2.59,6.34,6.34,0,0,0,2.62,1.43,42.09,42.09,0,0,0,4.32,1,50.36,50.36,0,0,1,5.45,1.29,7.93,7.93,0,0,1,3.51,2.22,6.09,6.09,0,0,1,1.46,4.32,6.88,6.88,0,0,1-3.11,5.91q-3.11,2.19-8.61,2.19A22.07,22.07,0,0,1,498.38,933.81Z" transform="translate(-183.36 -361)"/><path d="M545.63,907.37a13.73,13.73,0,0,1,6.62-1.45v3.72l-.92,0a9.08,9.08,0,0,0-7,2.75q-2.53,2.76-2.54,7.72v14.48h-3.83V906.13h3.67v5.56A9.37,9.37,0,0,1,545.63,907.37Z" transform="translate(-183.36 -361)"/><path d="M583.62,921.52H559.86a10.16,10.16,0,0,0,3.41,7.16A11.26,11.26,0,0,0,571,931.4a12.21,12.21,0,0,0,4.86-.94,10.65,10.65,0,0,0,3.84-2.78l2.16,2.48a12.19,12.19,0,0,1-4.73,3.46,16,16,0,0,1-6.24,1.19,15.81,15.81,0,0,1-7.75-1.87,13.43,13.43,0,0,1-5.26-5.15,14.72,14.72,0,0,1-1.89-7.46,15.19,15.19,0,0,1,1.81-7.45,13.12,13.12,0,0,1,5-5.13,14.63,14.63,0,0,1,14.17,0,13.12,13.12,0,0,1,4.92,5.1,15.49,15.49,0,0,1,1.78,7.48ZM563,911.83a10.34,10.34,0,0,0-3.16,6.83H580a10.34,10.34,0,0,0-3.16-6.83,10.44,10.44,0,0,0-13.83,0Z" transform="translate(-183.36 -361)"/><path d="M613.38,907.72a12.91,12.91,0,0,1,5.07,5.11,16.33,16.33,0,0,1,0,15.06A12.93,12.93,0,0,1,613.4,933a14.59,14.59,0,0,1-7.26,1.81,13.52,13.52,0,0,1-6.24-1.43,11.88,11.88,0,0,1-4.56-4.19V945h-3.83V906.13h3.67v5.62a11.82,11.82,0,0,1,4.56-4.32,13.35,13.35,0,0,1,6.4-1.51A14.67,14.67,0,0,1,613.38,907.72ZM611.27,930a9.78,9.78,0,0,0,3.81-3.92,11.9,11.9,0,0,0,1.38-5.78,11.76,11.76,0,0,0-1.38-5.75,10,10,0,0,0-3.81-3.91,11.1,11.1,0,0,0-10.83,0,10,10,0,0,0-3.78,3.91,11.86,11.86,0,0,0-1.37,5.75,12,12,0,0,0,1.37,5.78,9.84,9.84,0,0,0,3.78,3.92,11.39,11.39,0,0,0,10.83,0Z" transform="translate(-183.36 -361)"/><path d="M635.81,907.37a13.73,13.73,0,0,1,6.62-1.45v3.72l-.92,0a9.08,9.08,0,0,0-7,2.75Q632,915.1,632,920.06v14.48h-3.83V906.13h3.67v5.56A9.37,9.37,0,0,1,635.81,907.37Z" transform="translate(-183.36 -361)"/><path d="M673.8,921.52H650a10.19,10.19,0,0,0,3.4,7.16,11.31,11.31,0,0,0,7.78,2.72,12.28,12.28,0,0,0,4.86-.94,10.73,10.73,0,0,0,3.84-2.78l2.15,2.48a12.16,12.16,0,0,1-4.72,3.46,16,16,0,0,1-6.24,1.19,15.81,15.81,0,0,1-7.75-1.87,13.43,13.43,0,0,1-5.26-5.15,14.72,14.72,0,0,1-1.89-7.46,15.19,15.19,0,0,1,1.81-7.45,13.12,13.12,0,0,1,5-5.13,14.63,14.63,0,0,1,14.17,0,13,13,0,0,1,4.91,5.1,15.38,15.38,0,0,1,1.79,7.48Zm-20.6-9.69a10.3,10.3,0,0,0-3.16,6.83h20.14a10.29,10.29,0,0,0-3.15-6.83,10.44,10.44,0,0,0-13.83,0ZM664,895h5.13l-8.74,6.69h-3.78Z" transform="translate(-183.36 -361)"/><path d="M682.68,933.81a14.51,14.51,0,0,1-4.94-2.51l1.73-3a14.61,14.61,0,0,0,4.48,2.3,18,18,0,0,0,5.62.89,10.72,10.72,0,0,0,5.75-1.22,3.86,3.86,0,0,0,1.86-3.43,3.08,3.08,0,0,0-1-2.45,6.71,6.71,0,0,0-2.59-1.35,34.71,34.71,0,0,0-4.16-.89,48.58,48.58,0,0,1-5.56-1.33,8.16,8.16,0,0,1-3.6-2.29,6.39,6.39,0,0,1-1.48-4.48,7,7,0,0,1,3-5.84q3-2.26,8.26-2.26a21.71,21.71,0,0,1,5.51.72,15.31,15.31,0,0,1,4.54,1.92l-1.68,3.08a14.34,14.34,0,0,0-8.37-2.43,9.63,9.63,0,0,0-5.53,1.3,3.94,3.94,0,0,0-1.87,3.4,3.37,3.37,0,0,0,1.06,2.59,6.34,6.34,0,0,0,2.62,1.43,42.09,42.09,0,0,0,4.32,1,50.36,50.36,0,0,1,5.45,1.29,7.93,7.93,0,0,1,3.51,2.22,6.09,6.09,0,0,1,1.46,4.32,6.88,6.88,0,0,1-3.11,5.91q-3.1,2.19-8.61,2.19A22.07,22.07,0,0,1,682.68,933.81Z" transform="translate(-183.36 -361)"/><path d="M732.82,921.52H709.06a10.16,10.16,0,0,0,3.41,7.16,11.26,11.26,0,0,0,7.77,2.72,12.21,12.21,0,0,0,4.86-.94,10.65,10.65,0,0,0,3.84-2.78l2.16,2.48a12.19,12.19,0,0,1-4.73,3.46,16,16,0,0,1-6.24,1.19,15.81,15.81,0,0,1-7.75-1.87,13.43,13.43,0,0,1-5.26-5.15,14.72,14.72,0,0,1-1.89-7.46,15.19,15.19,0,0,1,1.81-7.45,13.18,13.18,0,0,1,5-5.13,14.63,14.63,0,0,1,14.17,0,13.12,13.12,0,0,1,4.92,5.1,15.49,15.49,0,0,1,1.78,7.48Zm-20.6-9.69a10.34,10.34,0,0,0-3.16,6.83h20.15a10.34,10.34,0,0,0-3.16-6.83,10.44,10.44,0,0,0-13.83,0Z" transform="translate(-183.36 -361)"/><path d="M763.68,909q3.17,3.11,3.16,9.05v16.47H763v-16.1q0-4.43-2.22-6.75a8.33,8.33,0,0,0-6.31-2.32,9.73,9.73,0,0,0-7.27,2.73,10.31,10.31,0,0,0-2.67,7.53v14.91h-3.83V906.13h3.67v5.24a10.57,10.57,0,0,1,4.35-4,13.81,13.81,0,0,1,6.45-1.43A11.59,11.59,0,0,1,763.68,909Z" transform="translate(-183.36 -361)"/><path d="M792.22,932.81a7.2,7.2,0,0,1-2.67,1.48,10.83,10.83,0,0,1-3.32.52,7.53,7.53,0,0,1-8.32-8.27V909.37h-5.07v-3.24h5.07v-6.21h3.84v6.21h8.64v3.24h-8.64v17a5.35,5.35,0,0,0,1.27,3.86,4.81,4.81,0,0,0,3.64,1.32,6.89,6.89,0,0,0,2.3-.38,5.68,5.68,0,0,0,1.91-1.08Z" transform="translate(-183.36 -361)"/><path d="M817.66,908.7c2,1.85,3,4.6,3,8.23v17.61H817v-4.43a8.83,8.83,0,0,1-3.81,3.45,13.34,13.34,0,0,1-6,1.25,11.69,11.69,0,0,1-7.56-2.27,7.8,7.8,0,0,1-.19-11.83q2.63-2.21,8.34-2.21h9v-1.73a7.27,7.27,0,0,0-2-5.59,8.47,8.47,0,0,0-6-1.92,15.15,15.15,0,0,0-5.19.9,13,13,0,0,0-4.26,2.45l-1.73-2.86a15.32,15.32,0,0,1,5.18-2.83,20.1,20.1,0,0,1,6.38-1C812.83,905.92,815.68,906.84,817.66,908.7Zm-4.32,21.6a8.85,8.85,0,0,0,3.45-4.3v-4.64h-8.91q-7.29,0-7.29,5.08a4.64,4.64,0,0,0,1.89,3.91,8.64,8.64,0,0,0,5.29,1.43A10.13,10.13,0,0,0,813.34,930.3Z" transform="translate(-183.36 -361)"/><path d="M854,909q3.15,3.11,3.15,9.05v16.47h-3.83v-16.1q0-4.43-2.21-6.75a8.37,8.37,0,0,0-6.32-2.32,9.73,9.73,0,0,0-7.27,2.73,10.31,10.31,0,0,0-2.67,7.53v14.91h-3.83V906.13h3.67v5.24a10.57,10.57,0,0,1,4.35-4,13.81,13.81,0,0,1,6.45-1.43A11.63,11.63,0,0,1,854,909Z" transform="translate(-183.36 -361)"/><path d="M882.56,932.81a7.2,7.2,0,0,1-2.67,1.48,10.83,10.83,0,0,1-3.32.52,7.53,7.53,0,0,1-8.32-8.27V909.37h-5.07v-3.24h5.07v-6.21h3.84v6.21h8.64v3.24h-8.64v17a5.35,5.35,0,0,0,1.27,3.86,4.81,4.81,0,0,0,3.64,1.32,6.89,6.89,0,0,0,2.3-.38,5.68,5.68,0,0,0,1.91-1.08Z" transform="translate(-183.36 -361)"/><path d="M903.68,894.47h3.83v40.07h-3.83Z" transform="translate(-183.36 -361)"/><path d="M942.93,921.52H919.17a10.16,10.16,0,0,0,3.41,7.16,11.26,11.26,0,0,0,7.77,2.72,12.21,12.21,0,0,0,4.86-.94,10.65,10.65,0,0,0,3.84-2.78l2.16,2.48a12.19,12.19,0,0,1-4.73,3.46,16,16,0,0,1-6.24,1.19,15.78,15.78,0,0,1-7.74-1.87,13.45,13.45,0,0,1-5.27-5.15,14.72,14.72,0,0,1-1.89-7.46,15.19,15.19,0,0,1,1.81-7.45,13.18,13.18,0,0,1,5-5.13,14.63,14.63,0,0,1,14.17,0,13.12,13.12,0,0,1,4.92,5.1,15.49,15.49,0,0,1,1.78,7.48Zm-20.6-9.69a10.34,10.34,0,0,0-3.16,6.83h20.15a10.34,10.34,0,0,0-3.16-6.83,10.44,10.44,0,0,0-13.83,0Z" transform="translate(-183.36 -361)"/><path d="M951.82,933.81a14.32,14.32,0,0,1-4.94-2.51l1.72-3a14.67,14.67,0,0,0,4.49,2.3,17.9,17.9,0,0,0,5.61.89,10.72,10.72,0,0,0,5.75-1.22,3.87,3.87,0,0,0,1.87-3.43,3.08,3.08,0,0,0-1-2.45A6.64,6.64,0,0,0,962.7,923a34.71,34.71,0,0,0-4.16-.89,49.11,49.11,0,0,1-5.56-1.33,8.13,8.13,0,0,1-3.59-2.29A6.39,6.39,0,0,1,947.9,914a7,7,0,0,1,3-5.84c2-1.51,4.74-2.26,8.26-2.26a21.66,21.66,0,0,1,5.51.72,15.31,15.31,0,0,1,4.54,1.92l-1.68,3.08a14.34,14.34,0,0,0-8.37-2.43,9.65,9.65,0,0,0-5.53,1.3,4,4,0,0,0-1.86,3.4,3.36,3.36,0,0,0,1,2.59,6.34,6.34,0,0,0,2.62,1.43,42.09,42.09,0,0,0,4.32,1,49.78,49.78,0,0,1,5.45,1.29,7.93,7.93,0,0,1,3.51,2.22,6.09,6.09,0,0,1,1.46,4.32,6.88,6.88,0,0,1-3.11,5.91q-3.1,2.19-8.61,2.19A22,22,0,0,1,951.82,933.81Z" transform="translate(-183.36 -361)"/><path d="M1012.11,901.35q4,4.95,4,14a24,24,0,0,1-2.16,10.69,15.09,15.09,0,0,1-6,6.62,17.93,17.93,0,0,1-9.08,2.24,17,17,0,0,1-9-2.05l1.57-3.13a13.24,13.24,0,0,0,7.34,1.78q6.27,0,9.83-4t3.56-11.53c0-.94,0-2-.16-3.08a10.21,10.21,0,0,1-4.48,4.78,14.43,14.43,0,0,1-7.08,1.7,15,15,0,0,1-6.61-1.4,10.77,10.77,0,0,1-4.51-4,10.94,10.94,0,0,1-1.62-6A10.92,10.92,0,0,1,994,897.84a15,15,0,0,1,6.62-1.43Q1008.11,896.41,1012.11,901.35Zm-6,13.64a8.58,8.58,0,0,0,3.43-3,7.58,7.58,0,0,0,1.24-4.21,7.37,7.37,0,0,0-1.16-4,8.45,8.45,0,0,0-3.43-3,11.92,11.92,0,0,0-5.4-1.13A9.73,9.73,0,0,0,994.1,902a7.52,7.52,0,0,0-2.57,6,7.44,7.44,0,0,0,2.57,5.94,10.24,10.24,0,0,0,6.94,2.22A11.27,11.27,0,0,0,1006.09,915Z" transform="translate(-183.36 -361)"/><path d="M1064.32,906.13V945h-3.83V929.19a11.88,11.88,0,0,1-4.56,4.19,13.52,13.52,0,0,1-6.24,1.43,14.59,14.59,0,0,1-7.26-1.81,13,13,0,0,1-5-5.11,16.33,16.33,0,0,1,0-15.06,12.87,12.87,0,0,1,5.08-5.11,14.61,14.61,0,0,1,7.23-1.8,13.35,13.35,0,0,1,6.4,1.51,11.82,11.82,0,0,1,4.56,4.32v-5.62Zm-8.93,23.9a9.84,9.84,0,0,0,3.78-3.92,11.9,11.9,0,0,0,1.37-5.78,11.75,11.75,0,0,0-1.37-5.75,10,10,0,0,0-3.78-3.91,11,11,0,0,0-10.8,0,10,10,0,0,0-3.78,3.91,11.76,11.76,0,0,0-1.38,5.75,11.9,11.9,0,0,0,1.38,5.78,9.84,9.84,0,0,0,3.78,3.92,11.33,11.33,0,0,0,10.8,0Z" transform="translate(-183.36 -361)"/><path d="M1100.61,906.13v28.41h-3.67v-5.19a10.6,10.6,0,0,1-4.16,4,12.55,12.55,0,0,1-6,1.43c-3.7,0-6.63-1-8.77-3.11s-3.21-5.1-3.21-9.1V906.13h3.83v16.09q0,4.49,2.21,6.81a8.33,8.33,0,0,0,6.32,2.32,9.3,9.3,0,0,0,7.08-2.73c1.72-1.81,2.59-4.34,2.59-7.58V906.13Z" transform="translate(-183.36 -361)"/><path d="M1136.09,921.52h-23.76a10.19,10.19,0,0,0,3.4,7.16,11.29,11.29,0,0,0,7.78,2.72,12.28,12.28,0,0,0,4.86-.94,10.7,10.7,0,0,0,3.83-2.78l2.16,2.48a12.16,12.16,0,0,1-4.72,3.46,16,16,0,0,1-6.24,1.19,15.79,15.79,0,0,1-7.75-1.87,13.43,13.43,0,0,1-5.26-5.15,14.72,14.72,0,0,1-1.89-7.46,15.29,15.29,0,0,1,1.8-7.45,13.25,13.25,0,0,1,5-5.13,13.93,13.93,0,0,1,7.1-1.83,13.78,13.78,0,0,1,7.08,1.83,13.09,13.09,0,0,1,4.91,5.1,15.37,15.37,0,0,1,1.78,7.48Zm-20.6-9.69a10.25,10.25,0,0,0-3.16,6.83h20.14a10.25,10.25,0,0,0-3.16-6.83,10.42,10.42,0,0,0-13.82,0Z" transform="translate(-183.36 -361)"/><path d="M1169.57,906.13v28.41h-3.67v-5.19a10.6,10.6,0,0,1-4.16,4,12.57,12.57,0,0,1-6,1.43q-5.57,0-8.77-3.11t-3.22-9.1V906.13h3.84v16.09c0,3,.73,5.26,2.21,6.81a8.31,8.31,0,0,0,6.32,2.32,9.27,9.27,0,0,0,7.07-2.73q2.59-2.72,2.6-7.58V906.13Z" transform="translate(-183.36 -361)"/><path d="M1205.05,921.52h-23.76a10.15,10.15,0,0,0,3.4,7.16,11.26,11.26,0,0,0,7.77,2.72,12.29,12.29,0,0,0,4.87-.94,10.7,10.7,0,0,0,3.83-2.78l2.16,2.48a12.19,12.19,0,0,1-4.73,3.46,16,16,0,0,1-6.23,1.19,15.79,15.79,0,0,1-7.75-1.87,13.45,13.45,0,0,1-5.27-5.15,14.72,14.72,0,0,1-1.89-7.46,15.3,15.3,0,0,1,1.81-7.45,13.18,13.18,0,0,1,5-5.13,13.91,13.91,0,0,1,7.1-1.83,13.72,13.72,0,0,1,7.07,1.83,13.12,13.12,0,0,1,4.92,5.1,15.37,15.37,0,0,1,1.78,7.48Zm-20.6-9.69a10.25,10.25,0,0,0-3.16,6.83h20.14a10.3,10.3,0,0,0-3.16-6.83,10.42,10.42,0,0,0-13.82,0Z" transform="translate(-183.36 -361)"/><path d="M1213.93,933.81a14.41,14.41,0,0,1-4.94-2.51l1.73-3a14.5,14.5,0,0,0,4.48,2.3,17.9,17.9,0,0,0,5.61.89,10.75,10.75,0,0,0,5.76-1.22,3.86,3.86,0,0,0,1.86-3.43,3.08,3.08,0,0,0-1-2.45,6.64,6.64,0,0,0-2.59-1.35,34.28,34.28,0,0,0-4.16-.89,49.11,49.11,0,0,1-5.56-1.33,8.18,8.18,0,0,1-3.59-2.29A6.39,6.39,0,0,1,1210,914a7,7,0,0,1,3-5.84q3-2.26,8.27-2.26a21.64,21.64,0,0,1,5.5.72,15.31,15.31,0,0,1,4.54,1.92l-1.67,3.08a14.34,14.34,0,0,0-8.37-2.43,9.67,9.67,0,0,0-5.54,1.3,4,4,0,0,0-1.86,3.4,3.36,3.36,0,0,0,1.05,2.59,6.4,6.4,0,0,0,2.62,1.43,42.09,42.09,0,0,0,4.32,1,49.22,49.22,0,0,1,5.45,1.29,7.93,7.93,0,0,1,3.51,2.22,6,6,0,0,1,1.46,4.32,6.87,6.87,0,0,1-3.1,5.91q-3.11,2.19-8.62,2.19A22,22,0,0,1,1213.93,933.81Z" transform="translate(-183.36 -361)"/><path d="M332.8,959.27v40.07h-3.68v-5.62a11.59,11.59,0,0,1-4.56,4.37,13.36,13.36,0,0,1-6.4,1.52,14.45,14.45,0,0,1-7.23-1.84,13.05,13.05,0,0,1-5.08-5.13,16.23,16.23,0,0,1,0-15,12.94,12.94,0,0,1,5.08-5.11,14.63,14.63,0,0,1,7.23-1.8,13.37,13.37,0,0,1,6.24,1.43,11.86,11.86,0,0,1,4.56,4.18V959.27Zm-8.94,35.56a9.84,9.84,0,0,0,3.78-3.92,12.77,12.77,0,0,0,0-11.55,9.78,9.78,0,0,0-3.78-3.92,10.58,10.58,0,0,0-5.37-1.38,10.7,10.7,0,0,0-5.43,1.38,9.78,9.78,0,0,0-3.78,3.92,12.77,12.77,0,0,0,0,11.55,9.84,9.84,0,0,0,3.78,3.92,10.69,10.69,0,0,0,5.43,1.37A10.57,10.57,0,0,0,323.86,994.83Z" transform="translate(-183.36 -361)"/><path d="M346,959.83a2.89,2.89,0,0,1,.81,2.08,5.32,5.32,0,0,1-.19,1.38c-.12.49-.29,1.05-.51,1.7l-2.32,7.45h-2.59l1.89-7.77a2.72,2.72,0,0,1-1.46-1,2.88,2.88,0,0,1-.54-1.76,2.84,2.84,0,0,1,.81-2.1,3,3,0,0,1,4.1,0Z" transform="translate(-183.36 -361)"/><path d="M380.53,970.93v28.41h-3.67v-5.19a10.51,10.51,0,0,1-4.16,4,12.44,12.44,0,0,1-6.05,1.44q-5.56,0-8.77-3.11t-3.21-9.1V970.93h3.83V987q0,4.49,2.21,6.81a8.31,8.31,0,0,0,6.32,2.32,9.27,9.27,0,0,0,7.07-2.73q2.59-2.71,2.6-7.58V970.93Z" transform="translate(-183.36 -361)"/><path d="M414.25,973.82q3.17,3.1,3.16,9v16.47h-3.83v-16.1q0-4.43-2.22-6.75a8.33,8.33,0,0,0-6.31-2.32,9.73,9.73,0,0,0-7.27,2.73,10.31,10.31,0,0,0-2.67,7.53v14.91h-3.83V970.93H395v5.24a10.57,10.57,0,0,1,4.35-4,13.81,13.81,0,0,1,6.45-1.43A11.59,11.59,0,0,1,414.25,973.82Z" transform="translate(-183.36 -361)"/><path d="M454.51,981.57l-7.72,7.83v9.94h-4v-37.8h4v22.84L469,961.54h4.59l-16.36,17.11,17.5,20.69H470Z" transform="translate(-183.36 -361)"/><path d="M479.78,963.91A2.65,2.65,0,0,1,479,962a2.59,2.59,0,0,1,.81-1.89,2.72,2.72,0,0,1,2-.81,2.78,2.78,0,0,1,2,.78,2.49,2.49,0,0,1,.81,1.86,2.83,2.83,0,0,1-4.81,2Zm.05,7h3.84v28.41h-3.84Z" transform="translate(-183.36 -361)"/><path d="M509.32,997.61a7.2,7.2,0,0,1-2.67,1.48,10.89,10.89,0,0,1-3.33.52,7.52,7.52,0,0,1-8.31-8.27V974.17h-5.08v-3.24H495v-6.21h3.83v6.21h8.64v3.24h-8.64v17a5.39,5.39,0,0,0,1.27,3.86,4.83,4.83,0,0,0,3.65,1.32,6.84,6.84,0,0,0,2.29-.38,5.63,5.63,0,0,0,1.92-1.08Z" transform="translate(-183.36 -361)"/><path d="M517.28,998.61a14.51,14.51,0,0,1-4.94-2.51l1.73-3a14.61,14.61,0,0,0,4.48,2.3,17.92,17.92,0,0,0,5.62.89,10.72,10.72,0,0,0,5.75-1.22,3.86,3.86,0,0,0,1.86-3.43,3.08,3.08,0,0,0-1-2.45,6.69,6.69,0,0,0-2.6-1.35,34.49,34.49,0,0,0-4.15-.89,49.36,49.36,0,0,1-5.57-1.33,8.18,8.18,0,0,1-3.59-2.29,6.39,6.39,0,0,1-1.48-4.48,7,7,0,0,1,3-5.84q3-2.26,8.26-2.26a21.71,21.71,0,0,1,5.51.72,15.25,15.25,0,0,1,4.53,1.92L533,976.44A14.34,14.34,0,0,0,524.6,974a9.63,9.63,0,0,0-5.53,1.3,3.94,3.94,0,0,0-1.87,3.4,3.33,3.33,0,0,0,1.06,2.59,6.48,6.48,0,0,0,2.61,1.43,43.35,43.35,0,0,0,4.32.95,50,50,0,0,1,5.46,1.29,7.93,7.93,0,0,1,3.51,2.22,6.09,6.09,0,0,1,1.46,4.32,6.88,6.88,0,0,1-3.11,5.91q-3.1,2.19-8.61,2.19A22,22,0,0,1,517.28,998.61Z" transform="translate(-183.36 -361)"/><path d="M568.29,970.93v28.41h-3.68v-5.19a10.42,10.42,0,0,1-4.15,4,12.47,12.47,0,0,1-6.05,1.44c-3.71,0-6.63-1-8.78-3.11s-3.21-5.1-3.21-9.1V970.93h3.83V987q0,4.49,2.22,6.81a8.3,8.3,0,0,0,6.32,2.32,9.29,9.29,0,0,0,7.07-2.73q2.6-2.71,2.59-7.58V970.93Z" transform="translate(-183.36 -361)"/><path d="M602,973.82q3.16,3.1,3.16,9v16.47h-3.84v-16.1c0-3-.73-5.2-2.21-6.75a8.35,8.35,0,0,0-6.32-2.32,9.69,9.69,0,0,0-7.26,2.73,10.31,10.31,0,0,0-2.67,7.53v14.91H579V970.93h3.67v5.24a10.69,10.69,0,0,1,4.35-4,13.87,13.87,0,0,1,6.45-1.43A11.61,11.61,0,0,1,602,973.82Z" transform="translate(-183.36 -361)"/><path d="M640.43,986.32H616.67a10.19,10.19,0,0,0,3.4,7.16,11.35,11.35,0,0,0,7.78,2.72,12.28,12.28,0,0,0,4.86-.94,10.7,10.7,0,0,0,3.83-2.78L638.7,995a12.16,12.16,0,0,1-4.72,3.46,16,16,0,0,1-6.24,1.19,15.79,15.79,0,0,1-7.75-1.87,13.43,13.43,0,0,1-5.26-5.15,14.72,14.72,0,0,1-1.89-7.46,15.19,15.19,0,0,1,1.81-7.45,13.16,13.16,0,0,1,5-5.13,13.93,13.93,0,0,1,7.1-1.83,13.78,13.78,0,0,1,7.08,1.83,13.09,13.09,0,0,1,4.91,5.1,15.37,15.37,0,0,1,1.78,7.48Zm-20.6-9.69a10.25,10.25,0,0,0-3.16,6.83h20.14a10.25,10.25,0,0,0-3.16-6.83,10.42,10.42,0,0,0-13.82,0Zm10.77-16.82h5.13L627,966.5H623.2Z" transform="translate(-183.36 -361)"/><path d="M678.5,998.39a56.74,56.74,0,0,1-1.62-13.85,57.47,57.47,0,0,1,1.62-13.91,39.6,39.6,0,0,1,4.64-11.36h3.67A42.57,42.57,0,0,0,682.14,971a62.77,62.77,0,0,0,0,27.1,42.69,42.69,0,0,0,4.67,11.72h-3.67A41.22,41.22,0,0,1,678.5,998.39Z" transform="translate(-183.36 -361)"/><path d="M712.84,973.5c2,1.85,3,4.6,3,8.23v17.61h-3.67v-4.43a8.72,8.72,0,0,1-3.81,3.45,13.27,13.27,0,0,1-6,1.25,11.69,11.69,0,0,1-7.56-2.27,7.8,7.8,0,0,1-.19-11.83q2.61-2.21,8.34-2.21h9v-1.73a7.31,7.31,0,0,0-2.05-5.59,8.48,8.48,0,0,0-6-1.92,15.05,15.05,0,0,0-5.18.9,13,13,0,0,0-4.27,2.45l-1.73-2.86a15.46,15.46,0,0,1,5.19-2.84,20.32,20.32,0,0,1,6.37-1C708,970.72,710.86,971.64,712.84,973.5Zm-4.32,21.6a8.87,8.87,0,0,0,3.46-4.3v-4.64h-8.91q-7.29,0-7.29,5.08a4.64,4.64,0,0,0,1.89,3.91,8.62,8.62,0,0,0,5.29,1.43A10.1,10.1,0,0,0,708.52,995.1Z" transform="translate(-183.36 -361)"/><path d="M749.21,973.82q3.16,3.1,3.16,9v16.47h-3.83v-16.1q0-4.43-2.22-6.75a8.35,8.35,0,0,0-6.32-2.32,9.69,9.69,0,0,0-7.26,2.73,10.31,10.31,0,0,0-2.67,7.53v14.91h-3.84V970.93h3.68v5.24a10.6,10.6,0,0,1,4.34-4,13.88,13.88,0,0,1,6.46-1.43A11.6,11.6,0,0,1,749.21,973.82Z" transform="translate(-183.36 -361)"/><path d="M762.74,963.91a2.65,2.65,0,0,1-.81-1.94,2.59,2.59,0,0,1,.81-1.89,2.71,2.71,0,0,1,2-.81,2.75,2.75,0,0,1,2,.78,2.49,2.49,0,0,1,.81,1.86,2.82,2.82,0,0,1-4.8,2Zm0,7h3.84v28.41h-3.84Z" transform="translate(-183.36 -361)"/><path d="M821.14,973.79q3,3.09,3.05,9.08v16.47h-3.84v-16.1q0-4.43-2.13-6.75a7.79,7.79,0,0,0-6-2.32,9.07,9.07,0,0,0-7,2.73,10.64,10.64,0,0,0-2.53,7.53v14.91h-3.84v-16.1q0-4.43-2.13-6.75a7.87,7.87,0,0,0-6.08-2.32,9,9,0,0,0-6.93,2.73,10.56,10.56,0,0,0-2.57,7.53v14.91h-3.83V970.93H781v5.19a10.27,10.27,0,0,1,4.21-4,13.22,13.22,0,0,1,6.21-1.4,12.1,12.1,0,0,1,6.18,1.51,9.32,9.32,0,0,1,3.92,4.48,11,11,0,0,1,4.51-4.4,13.9,13.9,0,0,1,6.72-1.59Q818.08,970.72,821.14,973.79Z" transform="translate(-183.36 -361)"/><path d="M853.08,973.5c2,1.85,3,4.6,3,8.23v17.61h-3.67v-4.43a8.83,8.83,0,0,1-3.81,3.45,13.31,13.31,0,0,1-6,1.25,11.69,11.69,0,0,1-7.56-2.27,7.8,7.8,0,0,1-.19-11.83q2.63-2.21,8.35-2.21h9v-1.73a7.27,7.27,0,0,0-2.05-5.59,8.47,8.47,0,0,0-6-1.92,15.15,15.15,0,0,0-5.19.9,13.1,13.1,0,0,0-4.26,2.45L833,974.55a15.51,15.51,0,0,1,5.18-2.84,20.38,20.38,0,0,1,6.38-1C848.25,970.72,851.1,971.64,853.08,973.5Zm-4.32,21.6a8.85,8.85,0,0,0,3.45-4.3v-4.64H843.3q-7.29,0-7.29,5.08a4.64,4.64,0,0,0,1.89,3.91,8.65,8.65,0,0,0,5.3,1.43A10.1,10.1,0,0,0,848.76,995.1Z" transform="translate(-183.36 -361)"/><path d="M866.47,959.27h3.83v40.07h-3.83Z" transform="translate(-183.36 -361)"/><path d="M953.11,973.79q3,3.09,3,9.08v16.47h-3.83v-16.1q0-4.43-2.14-6.75a7.78,7.78,0,0,0-6-2.32,9,9,0,0,0-7,2.73,10.59,10.59,0,0,0-2.54,7.53v14.91h-3.84v-16.1q0-4.43-2.13-6.75a7.86,7.86,0,0,0-6.07-2.32,9.06,9.06,0,0,0-6.94,2.73,10.56,10.56,0,0,0-2.57,7.53v14.91h-3.83V970.93H913v5.19a10.27,10.27,0,0,1,4.21-4,13.22,13.22,0,0,1,6.21-1.4,12.16,12.16,0,0,1,6.19,1.51,9.3,9.3,0,0,1,3.91,4.48,11.12,11.12,0,0,1,4.51-4.4,13.9,13.9,0,0,1,6.72-1.59Q950.07,970.72,953.11,973.79Z" transform="translate(-183.36 -361)"/><path d="M989.91,970.93l-14.2,31.81a13.63,13.63,0,0,1-4,5.67,9,9,0,0,1-5.45,1.67,11,11,0,0,1-3.84-.65,8.33,8.33,0,0,1-3.07-1.94l1.78-2.86a7.07,7.07,0,0,0,5.18,2.16,5.21,5.21,0,0,0,3.32-1.08,9.82,9.82,0,0,0,2.57-3.67l1.24-2.76-12.69-28.35h4l10.69,24.14,10.69-24.14Z" transform="translate(-183.36 -361)"/><path d="M1011.08,997.61a7.2,7.2,0,0,1-2.67,1.48,10.89,10.89,0,0,1-3.33.52,7.52,7.52,0,0,1-8.31-8.27V974.17h-5.08v-3.24h5.08v-6.21h3.83v6.21h8.64v3.24h-8.64v17a5.39,5.39,0,0,0,1.27,3.86,4.83,4.83,0,0,0,3.65,1.32,6.84,6.84,0,0,0,2.29-.38,5.63,5.63,0,0,0,1.92-1.08Z" transform="translate(-183.36 -361)"/><path d="M1041,973.82q3.17,3.1,3.16,9v16.47h-3.83v-16.1q0-4.43-2.22-6.75a8.34,8.34,0,0,0-6.32-2.32,9.69,9.69,0,0,0-7.26,2.73,10.31,10.31,0,0,0-2.67,7.53v14.91H1018V959.27h3.84V975.9a10.31,10.31,0,0,1,4.32-3.83,14.16,14.16,0,0,1,6.32-1.35A11.59,11.59,0,0,1,1041,973.82Z" transform="translate(-183.36 -361)"/><path d="M1058.92,997.74a13.56,13.56,0,0,1-5.18-5.15,15.65,15.65,0,0,1,0-14.91,13.44,13.44,0,0,1,5.18-5.13,15.88,15.88,0,0,1,14.8,0,13.29,13.29,0,0,1,5.15,5.13,15.8,15.8,0,0,1,0,14.91,13.41,13.41,0,0,1-5.15,5.15,15.58,15.58,0,0,1-14.8,0Zm12.83-2.91a9.64,9.64,0,0,0,3.75-3.92,13,13,0,0,0,0-11.55,9.58,9.58,0,0,0-3.75-3.92,11.37,11.37,0,0,0-10.86,0,9.78,9.78,0,0,0-3.78,3.92,12.86,12.86,0,0,0,0,11.55,9.84,9.84,0,0,0,3.78,3.92,11.45,11.45,0,0,0,10.86,0Z" transform="translate(-183.36 -361)"/><path d="M1088.57,959.27h3.83v40.07h-3.83Z" transform="translate(-183.36 -361)"/><path d="M1107.3,997.74a13.63,13.63,0,0,1-5.18-5.15,15.65,15.65,0,0,1,0-14.91,13.51,13.51,0,0,1,5.18-5.13,15.88,15.88,0,0,1,14.8,0,13.25,13.25,0,0,1,5.16,5.13,15.87,15.87,0,0,1,0,14.91,13.37,13.37,0,0,1-5.16,5.15,15.58,15.58,0,0,1-14.8,0Zm12.83-2.91a9.64,9.64,0,0,0,3.75-3.92,13,13,0,0,0,0-11.55,9.58,9.58,0,0,0-3.75-3.92,11.35,11.35,0,0,0-10.85,0,9.65,9.65,0,0,0-3.78,3.92,12.77,12.77,0,0,0,0,11.55,9.71,9.71,0,0,0,3.78,3.92,11.43,11.43,0,0,0,10.85,0Z" transform="translate(-183.36 -361)"/><path d="M1163.25,970.93v25q0,7.23-3.54,10.72t-10.66,3.48a24,24,0,0,1-7.48-1.16,15.23,15.23,0,0,1-5.75-3.21l1.94-2.92a14.55,14.55,0,0,0,5,2.86,18.47,18.47,0,0,0,6.18,1c3.6,0,6.24-.84,7.94-2.51s2.54-4.28,2.54-7.8v-3.62a11.51,11.51,0,0,1-4.68,4.1,14.34,14.34,0,0,1-6.39,1.41,15.12,15.12,0,0,1-7.27-1.76,13,13,0,0,1-5.13-4.91,14.65,14.65,0,0,1,0-14.29,13,13,0,0,1,5.11-4.86,15.26,15.26,0,0,1,7.29-1.72,14.41,14.41,0,0,1,6.53,1.45,11.87,11.87,0,0,1,4.7,4.22v-5.46Zm-9,22.6a9.55,9.55,0,0,0,3.86-3.7,10.63,10.63,0,0,0,1.37-5.4,10.51,10.51,0,0,0-1.37-5.37,9.63,9.63,0,0,0-3.84-3.67,11.52,11.52,0,0,0-5.59-1.33,11.72,11.72,0,0,0-5.53,1.3,9.43,9.43,0,0,0-3.84,3.67,11.33,11.33,0,0,0,0,10.8,9.57,9.57,0,0,0,3.84,3.7,11.5,11.5,0,0,0,5.53,1.32A11.69,11.69,0,0,0,1154.29,993.53Z" transform="translate(-183.36 -361)"/><path d="M1173.94,963.91a2.65,2.65,0,0,1-.81-1.94,2.59,2.59,0,0,1,.81-1.89,2.72,2.72,0,0,1,2-.81,2.78,2.78,0,0,1,2,.78,2.49,2.49,0,0,1,.81,1.86,2.83,2.83,0,0,1-4.81,2Zm0,7h3.84v28.41H1174Z" transform="translate(-183.36 -361)"/><path d="M1214.44,970.93v38.88h-3.83V994a11.74,11.74,0,0,1-4.57,4.18,13.33,13.33,0,0,1-6.23,1.44,14.63,14.63,0,0,1-7.27-1.81,13.06,13.06,0,0,1-5-5.11,16.41,16.41,0,0,1,0-15.06,13,13,0,0,1,5.08-5.11,14.64,14.64,0,0,1,7.24-1.8,13.41,13.41,0,0,1,6.4,1.51,11.89,11.89,0,0,1,4.56,4.32v-5.62Zm-8.94,23.9a9.78,9.78,0,0,0,3.78-3.92,11.9,11.9,0,0,0,1.38-5.78,11.76,11.76,0,0,0-1.38-5.75,10,10,0,0,0-3.78-3.91,10.4,10.4,0,0,0-5.37-1.41,10.52,10.52,0,0,0-5.43,1.41,10,10,0,0,0-3.78,3.91,11.75,11.75,0,0,0-1.37,5.75,11.9,11.9,0,0,0,1.37,5.78,9.84,9.84,0,0,0,3.78,3.92,10.69,10.69,0,0,0,5.43,1.37A10.57,10.57,0,0,0,1205.5,994.83Z" transform="translate(-183.36 -361)"/><path d="M1250.73,970.93v28.41h-3.68v-5.19a10.42,10.42,0,0,1-4.15,4,12.47,12.47,0,0,1-6.05,1.44c-3.71,0-6.63-1-8.78-3.11s-3.21-5.1-3.21-9.1V970.93h3.84V987c0,3,.73,5.26,2.21,6.81a8.3,8.3,0,0,0,6.32,2.32,9.29,9.29,0,0,0,7.07-2.73q2.6-2.71,2.59-7.58V970.93Z" transform="translate(-183.36 -361)"/><path d="M1286.21,986.32h-23.76a10.11,10.11,0,0,0,3.4,7.16,11.31,11.31,0,0,0,7.77,2.72,12.21,12.21,0,0,0,4.86-.94,10.65,10.65,0,0,0,3.84-2.78l2.16,2.48a12.19,12.19,0,0,1-4.73,3.46,16,16,0,0,1-6.24,1.19,15.78,15.78,0,0,1-7.74-1.87,13.45,13.45,0,0,1-5.27-5.15,14.72,14.72,0,0,1-1.89-7.46,15.19,15.19,0,0,1,1.81-7.45,13.18,13.18,0,0,1,5-5.13,14.63,14.63,0,0,1,14.17,0,13.12,13.12,0,0,1,4.92,5.1,15.37,15.37,0,0,1,1.78,7.48Zm-20.61-9.69a10.29,10.29,0,0,0-3.15,6.83h20.14a10.34,10.34,0,0,0-3.16-6.83,10.44,10.44,0,0,0-13.83,0Z" transform="translate(-183.36 -361)"/><path d="M321.83,1062.41a7.2,7.2,0,0,1-2.67,1.48,10.83,10.83,0,0,1-3.32.52,7.53,7.53,0,0,1-8.32-8.27V1039h-5.07v-3.24h5.07v-6.21h3.84v6.21H320V1039h-8.64v17a5.35,5.35,0,0,0,1.27,3.86,4.81,4.81,0,0,0,3.64,1.32,6.89,6.89,0,0,0,2.3-.38,5.68,5.68,0,0,0,1.91-1.08Z" transform="translate(-183.36 -361)"/><path d="M328.75,1028.71a2.65,2.65,0,0,1-.81-1.94,2.59,2.59,0,0,1,.81-1.89,2.7,2.7,0,0,1,2-.81,2.76,2.76,0,0,1,2,.78,2.49,2.49,0,0,1,.81,1.86,2.82,2.82,0,0,1-4.8,2Zm.05,7h3.83v28.41H328.8Z" transform="translate(-183.36 -361)"/><path d="M351,1037a13.7,13.7,0,0,1,6.62-1.45v3.72l-.92,0a9.08,9.08,0,0,0-7,2.75c-1.7,1.84-2.54,4.41-2.54,7.72v14.48h-3.83v-28.41H347v5.56A9.37,9.37,0,0,1,351,1037Z" transform="translate(-183.36 -361)"/><path d="M389,1051.12H365.25a10.19,10.19,0,0,0,3.4,7.16,11.29,11.29,0,0,0,7.78,2.72,12.28,12.28,0,0,0,4.86-.94,10.7,10.7,0,0,0,3.83-2.78l2.16,2.48a12.16,12.16,0,0,1-4.72,3.46,16,16,0,0,1-6.24,1.19,15.68,15.68,0,0,1-7.75-1.87,13.43,13.43,0,0,1-5.26-5.15,14.62,14.62,0,0,1-1.89-7.46,15.29,15.29,0,0,1,1.8-7.45,13.25,13.25,0,0,1,5-5.13,13.93,13.93,0,0,1,7.1-1.83,13.78,13.78,0,0,1,7.08,1.83,13.05,13.05,0,0,1,4.91,5.11,15.31,15.31,0,0,1,1.78,7.47Zm-20.6-9.69a10.25,10.25,0,0,0-3.16,6.83h20.14a10.25,10.25,0,0,0-3.16-6.83,10.42,10.42,0,0,0-13.82,0Zm10.77-16.82h5.13l-8.75,6.69h-3.78Z" transform="translate(-183.36 -361)"/><path d="M437,1024.07v40.07h-3.67v-5.62a11.59,11.59,0,0,1-4.56,4.37,13.41,13.41,0,0,1-6.4,1.52,14.46,14.46,0,0,1-7.24-1.84,13.12,13.12,0,0,1-5.08-5.13,16.3,16.3,0,0,1,0-15,12.91,12.91,0,0,1,5.08-5.1,14.54,14.54,0,0,1,7.24-1.81,13.33,13.33,0,0,1,6.23,1.43,11.81,11.81,0,0,1,4.57,4.18v-17.06ZM428,1059.63a9.71,9.71,0,0,0,3.78-3.92,12.77,12.77,0,0,0,0-11.55,9.65,9.65,0,0,0-3.78-3.92,10.58,10.58,0,0,0-5.37-1.38,10.72,10.72,0,0,0-5.43,1.38,9.78,9.78,0,0,0-3.78,3.92,12.86,12.86,0,0,0,0,11.55,9.84,9.84,0,0,0,3.78,3.92,10.82,10.82,0,0,0,5.43,1.37A10.67,10.67,0,0,0,428,1059.63Z" transform="translate(-183.36 -361)"/><path d="M473.25,1035.73v28.41h-3.67V1059a10.51,10.51,0,0,1-4.16,4,12.47,12.47,0,0,1-6.05,1.44c-3.71,0-6.63-1-8.78-3.11s-3.21-5.1-3.21-9.1v-16.47h3.84v16.09c0,3,.73,5.26,2.21,6.81a8.31,8.31,0,0,0,6.32,2.32,9.28,9.28,0,0,0,7.07-2.73q2.6-2.71,2.59-7.58v-14.91Z" transform="translate(-183.36 -361)"/><path d="M503.78,1028.39a5.65,5.65,0,0,0-1.27,4v3.35h8.75V1039h-8.64v25.17h-3.83V1039h-5.08v-3.24h5.08v-3.51a8.38,8.38,0,0,1,2.24-6.15,8.49,8.49,0,0,1,6.35-2.27,10.59,10.59,0,0,1,3.13.46,6.91,6.91,0,0,1,2.53,1.32l-1.29,2.86a6.37,6.37,0,0,0-4.21-1.4A4.92,4.92,0,0,0,503.78,1028.39Z" transform="translate(-183.36 -361)"/><path d="M520.17,1062.54a13.63,13.63,0,0,1-5.18-5.15,15.65,15.65,0,0,1,0-14.91,13.51,13.51,0,0,1,5.18-5.13,15.88,15.88,0,0,1,14.8,0,13.32,13.32,0,0,1,5.16,5.13,15.87,15.87,0,0,1,0,14.91,13.44,13.44,0,0,1-5.16,5.15,15.58,15.58,0,0,1-14.8,0Zm12.83-2.91a9.64,9.64,0,0,0,3.75-3.92,13,13,0,0,0,0-11.55,9.58,9.58,0,0,0-3.75-3.92,11.37,11.37,0,0,0-10.86,0,9.78,9.78,0,0,0-3.78,3.92,12.86,12.86,0,0,0,0,11.55,9.84,9.84,0,0,0,3.78,3.92,11.45,11.45,0,0,0,10.86,0Z" transform="translate(-183.36 -361)"/><path d="M549.82,1024.07h3.83v40.07h-3.83Z" transform="translate(-183.36 -361)"/><path d="M574.88,1049.88l-6.7,6.16v8.1h-3.84v-40.07h3.84v27.16l17-15.5h4.76l-12.15,11.61,13.28,16.8h-4.7Z" transform="translate(-183.36 -361)"/><path d="M596.8,1024.07h3.83v40.07H596.8Z" transform="translate(-183.36 -361)"/><path d="M615.54,1062.54a13.58,13.58,0,0,1-5.19-5.15,15.65,15.65,0,0,1,0-14.91,13.46,13.46,0,0,1,5.19-5.13,15.86,15.86,0,0,1,14.79,0,13.25,13.25,0,0,1,5.16,5.13,15.87,15.87,0,0,1,0,14.91,13.37,13.37,0,0,1-5.16,5.15,15.56,15.56,0,0,1-14.79,0Zm12.82-2.91a9.64,9.64,0,0,0,3.75-3.92,13,13,0,0,0,0-11.55,9.58,9.58,0,0,0-3.75-3.92,11.35,11.35,0,0,0-10.85,0,9.78,9.78,0,0,0-3.78,3.92,12.77,12.77,0,0,0,0,11.55,9.84,9.84,0,0,0,3.78,3.92,11.43,11.43,0,0,0,10.85,0Z" transform="translate(-183.36 -361)"/><path d="M652.88,1037a13.66,13.66,0,0,1,6.61-1.45v3.72l-.91,0a9.12,9.12,0,0,0-7,2.75q-2.53,2.76-2.53,7.72v14.48h-3.84v-28.41h3.67v5.56A9.39,9.39,0,0,1,652.88,1037Z" transform="translate(-183.36 -361)"/><path d="M699.45,1038.3c2,1.85,3,4.6,3,8.23v17.61h-3.67v-4.43a8.72,8.72,0,0,1-3.81,3.45,13.27,13.27,0,0,1-6,1.25,11.69,11.69,0,0,1-7.56-2.27,7.8,7.8,0,0,1-.19-11.83q2.61-2.2,8.34-2.21h9v-1.73a7.31,7.31,0,0,0-2.05-5.59,8.48,8.48,0,0,0-6-1.92,15.29,15.29,0,0,0-5.18.89,13.25,13.25,0,0,0-4.27,2.46l-1.73-2.86a15.46,15.46,0,0,1,5.19-2.84,20.32,20.32,0,0,1,6.37-1C694.63,1035.52,697.47,1036.44,699.45,1038.3Zm-4.32,21.6a8.87,8.87,0,0,0,3.46-4.3V1051h-8.91q-7.29,0-7.29,5.08a4.64,4.64,0,0,0,1.89,3.91,8.55,8.55,0,0,0,5.29,1.43A10.1,10.1,0,0,0,695.13,1059.9Z" transform="translate(-183.36 -361)"/><path d="M713.84,1063.41a14.51,14.51,0,0,1-4.94-2.51l1.73-3a14.61,14.61,0,0,0,4.48,2.3,17.92,17.92,0,0,0,5.62.89,10.72,10.72,0,0,0,5.75-1.22,3.86,3.86,0,0,0,1.86-3.43,3.08,3.08,0,0,0-1-2.45,6.69,6.69,0,0,0-2.6-1.35,34.49,34.49,0,0,0-4.15-.89,49.36,49.36,0,0,1-5.57-1.33,8.18,8.18,0,0,1-3.59-2.29,6.39,6.39,0,0,1-1.48-4.48,7,7,0,0,1,3-5.84q3-2.27,8.26-2.26a21.29,21.29,0,0,1,5.51.73,15.1,15.1,0,0,1,4.53,1.91l-1.67,3.08a14.34,14.34,0,0,0-8.37-2.43,9.69,9.69,0,0,0-5.54,1.3,4,4,0,0,0-1.86,3.4,3.36,3.36,0,0,0,1,2.59,6.46,6.46,0,0,0,2.62,1.43,43.35,43.35,0,0,0,4.32,1,50,50,0,0,1,5.46,1.29,7.93,7.93,0,0,1,3.51,2.22,6.09,6.09,0,0,1,1.45,4.32,6.87,6.87,0,0,1-3.1,5.91q-3.11,2.19-8.61,2.19A22,22,0,0,1,713.84,1063.41Z" transform="translate(-183.36 -361)"/><path d="M739.2,1028.71a2.65,2.65,0,0,1-.81-1.94,2.59,2.59,0,0,1,.81-1.89,2.7,2.7,0,0,1,2-.81,2.78,2.78,0,0,1,2,.78,2.49,2.49,0,0,1,.81,1.86,2.82,2.82,0,0,1-4.8,2Zm0,7h3.83v28.41h-3.83Z" transform="translate(-183.36 -361)"/><path d="M772.24,1038.3c2,1.85,3,4.6,3,8.23v17.61h-3.67v-4.43a8.72,8.72,0,0,1-3.81,3.45,13.27,13.27,0,0,1-6,1.25,11.69,11.69,0,0,1-7.56-2.27,7.8,7.8,0,0,1-.19-11.83q2.61-2.2,8.34-2.21h9v-1.73a7.31,7.31,0,0,0-2-5.59,8.48,8.48,0,0,0-6-1.92,15.29,15.29,0,0,0-5.18.89,13.25,13.25,0,0,0-4.27,2.46l-1.73-2.86a15.46,15.46,0,0,1,5.19-2.84,20.32,20.32,0,0,1,6.37-1C767.42,1035.52,770.26,1036.44,772.24,1038.3Zm-4.32,21.6a8.87,8.87,0,0,0,3.46-4.3V1051h-8.91q-7.29,0-7.29,5.08a4.64,4.64,0,0,0,1.89,3.91,8.55,8.55,0,0,0,5.29,1.43A10.1,10.1,0,0,0,767.92,1059.9Z" transform="translate(-183.36 -361)"/><path d="M800.59,1062.41a7.2,7.2,0,0,1-2.67,1.48,10.83,10.83,0,0,1-3.32.52,7.53,7.53,0,0,1-8.32-8.27V1039h-5.07v-3.24h5.07v-6.21h3.84v6.21h8.64V1039h-8.64v17a5.39,5.39,0,0,0,1.26,3.86,4.85,4.85,0,0,0,3.65,1.32,6.89,6.89,0,0,0,2.3-.38,5.68,5.68,0,0,0,1.91-1.08Z" transform="translate(-183.36 -361)"/><path d="M807.5,1028.71a2.65,2.65,0,0,1-.81-1.94,2.59,2.59,0,0,1,.81-1.89,2.72,2.72,0,0,1,2-.81,2.78,2.78,0,0,1,2,.78,2.49,2.49,0,0,1,.81,1.86,2.83,2.83,0,0,1-4.81,2Zm.06,7h3.83v28.41h-3.83Z" transform="translate(-183.36 -361)"/><path d="M848,1035.73v38.88h-3.83v-15.82a11.78,11.78,0,0,1-4.56,4.18,13.4,13.4,0,0,1-6.24,1.44,14.59,14.59,0,0,1-7.26-1.81,12.93,12.93,0,0,1-5.05-5.11,16.33,16.33,0,0,1,0-15.06,12.82,12.82,0,0,1,5.07-5.1,14.57,14.57,0,0,1,7.24-1.81,13.35,13.35,0,0,1,6.4,1.51,11.82,11.82,0,0,1,4.56,4.32v-5.62Zm-8.93,23.9a9.84,9.84,0,0,0,3.78-3.92,12,12,0,0,0,1.37-5.78,11.86,11.86,0,0,0-1.37-5.75,10,10,0,0,0-3.78-3.91,11,11,0,0,0-10.8,0,9.88,9.88,0,0,0-3.78,3.91,11.76,11.76,0,0,0-1.38,5.75,11.9,11.9,0,0,0,1.38,5.78,9.71,9.71,0,0,0,3.78,3.92,11.33,11.33,0,0,0,10.8,0Z" transform="translate(-183.36 -361)"/><path d="M884.29,1035.73v28.41h-3.67V1059a10.51,10.51,0,0,1-4.16,4,12.44,12.44,0,0,1-6.05,1.44q-5.56,0-8.77-3.11t-3.22-9.1v-16.47h3.84v16.09q0,4.48,2.21,6.81a8.31,8.31,0,0,0,6.32,2.32,9.27,9.27,0,0,0,7.07-2.73q2.6-2.71,2.6-7.58v-14.91Z" transform="translate(-183.36 -361)"/><path d="M919.77,1051.12H896a10.15,10.15,0,0,0,3.4,7.16,11.27,11.27,0,0,0,7.78,2.72,12.28,12.28,0,0,0,4.86-.94,10.7,10.7,0,0,0,3.83-2.78l2.16,2.48a12.16,12.16,0,0,1-4.72,3.46,16,16,0,0,1-6.24,1.19,15.68,15.68,0,0,1-7.75-1.87,13.45,13.45,0,0,1-5.27-5.15,14.72,14.72,0,0,1-1.89-7.46,15.3,15.3,0,0,1,1.81-7.45,13.25,13.25,0,0,1,5-5.13,14.65,14.65,0,0,1,14.18,0,13.12,13.12,0,0,1,4.91,5.11,15.31,15.31,0,0,1,1.78,7.47Zm-20.6-9.69a10.25,10.25,0,0,0-3.16,6.83h20.14a10.3,10.3,0,0,0-3.16-6.83,10.42,10.42,0,0,0-13.82,0Z" transform="translate(-183.36 -361)"/><path d="M926,1063.54a2.93,2.93,0,0,1-.83-2.1,2.85,2.85,0,0,1,.83-2.08,2.77,2.77,0,0,1,2-.84,2.83,2.83,0,0,1,2.05.84,2.77,2.77,0,0,1,.87,2.08,2.85,2.85,0,0,1-.87,2.1,2.78,2.78,0,0,1-2.05.87A2.72,2.72,0,0,1,926,1063.54Z" transform="translate(-183.36 -361)"/><path d="M935.91,1074.61a43,43,0,0,0,4.7-11.69,61.82,61.82,0,0,0,0-27.16,43,43,0,0,0-4.7-11.69h3.67a39.92,39.92,0,0,1,4.68,11.36,60,60,0,0,1,0,27.79,38.93,38.93,0,0,1-4.7,11.39Z" transform="translate(-183.36 -361)"/><path d="M242.77,1271.32a24.39,24.39,0,0,1-9.36-9.14,26.82,26.82,0,0,1,0-26.21,24.46,24.46,0,0,1,9.36-9.14,26.94,26.94,0,0,1,13.36-3.32,27.87,27.87,0,0,1,10.08,1.77,20.77,20.77,0,0,1,7.85,5.22l-2.31,2.37q-6-6-15.48-6a23.34,23.34,0,0,0-11.52,2.88,21.06,21.06,0,0,0-8.13,8,23.2,23.2,0,0,0,0,22.68,21,21,0,0,0,8.13,8,23.34,23.34,0,0,0,11.52,2.88,21.12,21.12,0,0,0,15.48-6l2.31,2.38a21.11,21.11,0,0,1-7.89,5.25,27.3,27.3,0,0,1-10,1.8A26.93,26.93,0,0,1,242.77,1271.32Z" transform="translate(-183.36 -361)"/><path d="M288.56,1272.11a17.66,17.66,0,0,1-6.73-6.8,20.95,20.95,0,0,1,0-19.66,17.66,17.66,0,0,1,6.73-6.8,20.09,20.09,0,0,1,19.23,0,17.66,17.66,0,0,1,6.73,6.8,20.95,20.95,0,0,1,0,19.66,17.66,17.66,0,0,1-6.73,6.8,20.09,20.09,0,0,1-19.23,0Zm17.36-2.8a14.6,14.6,0,0,0,5.4-5.62,18,18,0,0,0,0-16.42,14.57,14.57,0,0,0-5.4-5.61,15.84,15.84,0,0,0-15.48,0,14.5,14.5,0,0,0-5.4,5.61,18,18,0,0,0,0,16.42,14.53,14.53,0,0,0,5.4,5.62,15.91,15.91,0,0,0,15.48,0Z" transform="translate(-183.36 -361)"/><path d="M361.54,1220.85v53.42H358v-8.85a16.18,16.18,0,0,1-6.27,6.77,17.66,17.66,0,0,1-9.14,2.37,18.6,18.6,0,0,1-9.5-2.45,17.38,17.38,0,0,1-6.66-6.76,19.88,19.88,0,0,1-2.42-9.87,20.11,20.11,0,0,1,2.42-9.9,17.14,17.14,0,0,1,6.66-6.77,19,19,0,0,1,9.5-2.41,17.32,17.32,0,0,1,9,2.38,17,17,0,0,1,6.3,6.62v-24.55Zm-11,48.46a14.6,14.6,0,0,0,5.4-5.62,18,18,0,0,0,0-16.42,14.57,14.57,0,0,0-5.4-5.61,15.84,15.84,0,0,0-15.48,0,14.5,14.5,0,0,0-5.4,5.61,18,18,0,0,0,0,16.42,14.53,14.53,0,0,0,5.4,5.62,15.91,15.91,0,0,0,15.48,0Z" transform="translate(-183.36 -361)"/><path d="M408.48,1256.35H376.15a15.78,15.78,0,0,0,2.23,7.81,14.34,14.34,0,0,0,5.66,5.29,16.94,16.94,0,0,0,8,1.87,17.2,17.2,0,0,0,6.81-1.33,13.31,13.31,0,0,0,5.22-3.92l2.09,2.37A16.16,16.16,0,0,1,400,1273a21.46,21.46,0,0,1-18-.87,17.71,17.71,0,0,1-6.87-6.76,19.4,19.4,0,0,1-2.49-9.87,20.45,20.45,0,0,1,2.34-9.83,17.25,17.25,0,0,1,6.45-6.8,18.61,18.61,0,0,1,18.39,0,17.2,17.2,0,0,1,6.41,6.74,20.21,20.21,0,0,1,2.34,9.79Zm-25-15a13.46,13.46,0,0,0-5.08,5,16.34,16.34,0,0,0-2.2,7.24H405a15,15,0,0,0-2.16-7.2,14,14,0,0,0-12.24-6.77A14.43,14.43,0,0,0,383.5,1241.33Z" transform="translate(-183.36 -361)"/><path d="M443.32,1272.11a17.53,17.53,0,0,1-6.76-6.8,21.09,21.09,0,0,1,0-19.73,17.32,17.32,0,0,1,6.76-6.77,19.85,19.85,0,0,1,9.8-2.41,18.88,18.88,0,0,1,8.24,1.77,14.89,14.89,0,0,1,6,5.14l-2.66,2a12.76,12.76,0,0,0-5-4.21,15.2,15.2,0,0,0-6.58-1.41,15.72,15.72,0,0,0-7.89,2,14.05,14.05,0,0,0-5.47,5.58,18.3,18.3,0,0,0,0,16.56,14.05,14.05,0,0,0,5.47,5.58,15.72,15.72,0,0,0,7.89,2,15.34,15.34,0,0,0,6.58-1.4,12.84,12.84,0,0,0,5-4.21l2.66,1.94a14.92,14.92,0,0,1-6,5.15,18.88,18.88,0,0,1-8.24,1.76A19.45,19.45,0,0,1,443.32,1272.11Z" transform="translate(-183.36 -361)"/><path d="M482.6,1272.11a17.66,17.66,0,0,1-6.73-6.8,20.95,20.95,0,0,1,0-19.66,17.66,17.66,0,0,1,6.73-6.8,20.09,20.09,0,0,1,19.23,0,17.73,17.73,0,0,1,6.73,6.8,20.95,20.95,0,0,1,0,19.66,17.73,17.73,0,0,1-6.73,6.8,20.09,20.09,0,0,1-19.23,0Zm17.35-2.8a14.53,14.53,0,0,0,5.4-5.62,18,18,0,0,0,0-16.42,14.5,14.5,0,0,0-5.4-5.61,15.84,15.84,0,0,0-15.48,0,14.5,14.5,0,0,0-5.4,5.61,18,18,0,0,0,0,16.42,14.53,14.53,0,0,0,5.4,5.62,15.91,15.91,0,0,0,15.48,0Z" transform="translate(-183.36 -361)"/><path d="M555.07,1236.69v37.58h-3.46v-8.06a14,14,0,0,1-5.54,6.16,16.56,16.56,0,0,1-8.64,2.19q-7.35,0-11.52-4.1t-4.18-11.81v-22h3.6v21.67q0,6.35,3.24,9.65t9.15,3.31q6.33,0,10-4t3.71-10.65v-20Z" transform="translate(-183.36 -361)"/><path d="M570.33,1220.85h3.6v53.42h-3.6Z" transform="translate(-183.36 -361)"/><path d="M620.88,1256.35H588.55a15.68,15.68,0,0,0,2.23,7.81,14.31,14.31,0,0,0,5.65,5.29,18.12,18.12,0,0,0,14.83.54,13.31,13.31,0,0,0,5.22-3.92l2.09,2.37a16.05,16.05,0,0,1-6.15,4.54,21.46,21.46,0,0,1-18-.87,17.74,17.74,0,0,1-6.88-6.76,19.5,19.5,0,0,1-2.48-9.87,20.45,20.45,0,0,1,2.34-9.83,17.29,17.29,0,0,1,6.44-6.8,18.63,18.63,0,0,1,18.4,0,17.2,17.2,0,0,1,6.41,6.74,20.21,20.21,0,0,1,2.34,9.79Zm-25-15a13.5,13.5,0,0,0-5.07,5,16.09,16.09,0,0,0-2.2,7.24h28.8a15,15,0,0,0-2.16-7.2,14,14,0,0,0-12.24-6.77A14.46,14.46,0,0,0,595.89,1241.33Z" transform="translate(-183.36 -361)"/><path d="M665,1236.69v37.58h-3.46v-8.06a14,14,0,0,1-5.54,6.16,16.56,16.56,0,0,1-8.64,2.19q-7.35,0-11.52-4.1t-4.18-11.81v-22h3.6v21.67q0,6.35,3.24,9.65t9.15,3.31q6.33,0,10-4t3.71-10.65v-20Z" transform="translate(-183.36 -361)"/><path d="M689.13,1238.6a17,17,0,0,1,8.93-2.2v3.53l-.87-.07q-6.26,0-9.79,3.92t-3.53,10.91v19.58h-3.6v-37.58h3.46v8.21A13,13,0,0,1,689.13,1238.6Z" transform="translate(-183.36 -361)"/><path d="M724.59,1241.62a3,3,0,0,1-.9-2.19,2.85,2.85,0,0,1,.9-2.16,3,3,0,0,1,4.25,0,2.85,2.85,0,0,1,.9,2.16,3,3,0,0,1-.9,2.19,3,3,0,0,1-4.25,0Zm0,32a3,3,0,0,1-.9-2.19,2.85,2.85,0,0,1,.9-2.16,3,3,0,0,1,4.25,0,2.85,2.85,0,0,1,.9,2.16,3,3,0,0,1-.9,2.19,3,3,0,0,1-4.25,0Z" transform="translate(-183.36 -361)"/><path d="M298.68,1327.41l-2,16.13H307.1v2.88H296.3l-1.72,14.25H291.7l1.72-14.25H277.66l-1.8,14.25H273l1.72-14.25H264.34v-2.88h10.72l2-16.13H266.57v-2.88h10.87l1.73-14.26h2.95l-1.8,14.26h15.84l1.73-14.26h2.88L299,1324.53h10.37v2.88Zm-2.88,0H280L278,1343.54h15.76Z" transform="translate(-183.36 -361)"/><path d="M325.14,1357.9a20.25,20.25,0,0,1-7-8.89,38,38,0,0,1,0-27.07,20.2,20.2,0,0,1,7-8.89,18.38,18.38,0,0,1,20.52,0,20.2,20.2,0,0,1,7,8.89,38,38,0,0,1,0,27.07,20.25,20.25,0,0,1-7,8.89,18.33,18.33,0,0,1-20.52,0Zm18.65-2.88a16.93,16.93,0,0,0,5.65-7.63,36.15,36.15,0,0,0,0-23.83,16.93,16.93,0,0,0-5.65-7.63,14.7,14.7,0,0,0-16.78,0,16.86,16.86,0,0,0-5.65,7.63,36.15,36.15,0,0,0,0,23.83A16.86,16.86,0,0,0,327,1355a14.7,14.7,0,0,0,16.78,0Z" transform="translate(-183.36 -361)"/><path d="M372.51,1357.9a20.32,20.32,0,0,1-7-8.89,38.17,38.17,0,0,1,0-27.07,20.27,20.27,0,0,1,7-8.89,18.38,18.38,0,0,1,20.52,0,20.29,20.29,0,0,1,7,8.89,38.17,38.17,0,0,1,0,27.07,20.34,20.34,0,0,1-7,8.89,18.33,18.33,0,0,1-20.52,0Zm18.65-2.88a16.86,16.86,0,0,0,5.65-7.63,36.15,36.15,0,0,0,0-23.83,16.86,16.86,0,0,0-5.65-7.63,14.68,14.68,0,0,0-16.77,0,16.88,16.88,0,0,0-5.66,7.63,36.32,36.32,0,0,0,0,23.83,16.88,16.88,0,0,0,5.66,7.63,14.68,14.68,0,0,0,16.77,0Z" transform="translate(-183.36 -361)"/><path d="M419.89,1357.9a20.25,20.25,0,0,1-7-8.89,38,38,0,0,1,0-27.07,20.2,20.2,0,0,1,7-8.89,18.38,18.38,0,0,1,20.52,0,20.2,20.2,0,0,1,7,8.89,38,38,0,0,1,0,27.07,20.25,20.25,0,0,1-7,8.89,18.33,18.33,0,0,1-20.52,0Zm18.65-2.88a16.93,16.93,0,0,0,5.65-7.63,36.15,36.15,0,0,0,0-23.83,16.93,16.93,0,0,0-5.65-7.63,14.7,14.7,0,0,0-16.78,0,16.86,16.86,0,0,0-5.65,7.63,36.15,36.15,0,0,0,0,23.83,16.86,16.86,0,0,0,5.65,7.63,14.7,14.7,0,0,0,16.78,0Z" transform="translate(-183.36 -361)"/><path d="M467.26,1357.9a20.32,20.32,0,0,1-7-8.89,38.17,38.17,0,0,1,0-27.07,20.27,20.27,0,0,1,7-8.89,18.38,18.38,0,0,1,20.52,0,20.29,20.29,0,0,1,7,8.89,38.17,38.17,0,0,1,0,27.07,20.34,20.34,0,0,1-7,8.89,18.33,18.33,0,0,1-20.52,0Zm18.65-2.88a16.86,16.86,0,0,0,5.65-7.63,36.15,36.15,0,0,0,0-23.83,16.86,16.86,0,0,0-5.65-7.63,14.68,14.68,0,0,0-16.77,0,16.88,16.88,0,0,0-5.66,7.63,36.32,36.32,0,0,0,0,23.83,16.88,16.88,0,0,0,5.66,7.63,14.68,14.68,0,0,0,16.77,0Z" transform="translate(-183.36 -361)"/><path d="M514.64,1357.9a20.25,20.25,0,0,1-7-8.89,38,38,0,0,1,0-27.07,20.2,20.2,0,0,1,7-8.89,18.38,18.38,0,0,1,20.52,0,20.2,20.2,0,0,1,7,8.89,38,38,0,0,1,0,27.07,20.25,20.25,0,0,1-7,8.89,18.33,18.33,0,0,1-20.52,0Zm18.65-2.88a16.93,16.93,0,0,0,5.65-7.63,36.15,36.15,0,0,0,0-23.83,16.93,16.93,0,0,0-5.65-7.63,14.7,14.7,0,0,0-16.78,0,16.86,16.86,0,0,0-5.65,7.63,36.15,36.15,0,0,0,0,23.83,16.86,16.86,0,0,0,5.65,7.63,14.7,14.7,0,0,0,16.78,0Z" transform="translate(-183.36 -361)"/><path d="M562,1357.9a20.32,20.32,0,0,1-7-8.89,38.17,38.17,0,0,1,0-27.07,20.27,20.27,0,0,1,7-8.89,18.38,18.38,0,0,1,20.52,0,20.29,20.29,0,0,1,7,8.89,38.17,38.17,0,0,1,0,27.07,20.34,20.34,0,0,1-7,8.89,18.33,18.33,0,0,1-20.52,0Zm18.65-2.88a16.86,16.86,0,0,0,5.65-7.63,36.15,36.15,0,0,0,0-23.83,16.86,16.86,0,0,0-5.65-7.63,14.68,14.68,0,0,0-16.77,0,16.88,16.88,0,0,0-5.66,7.63,36.32,36.32,0,0,0,0,23.83,16.88,16.88,0,0,0,5.66,7.63,14.68,14.68,0,0,0,16.77,0Z" transform="translate(-183.36 -361)"/><path d="M298.68,1413.81l-2,16.13H307.1v2.88H296.3l-1.72,14.26H291.7l1.72-14.26H277.66l-1.8,14.26H273l1.72-14.26H264.34v-2.88h10.72l2-16.13H266.57v-2.88h10.87l1.73-14.26h2.95l-1.8,14.26h15.84l1.73-14.26h2.88L299,1410.93h10.37v2.88Zm-2.88,0H280L278,1429.94h15.76Z" transform="translate(-183.36 -361)"/><path d="M324.17,1400v21.53H351v3.31H324.17v22.25H320.5v-50.41h33.69V1400Z" transform="translate(-183.36 -361)"/><path d="M369.6,1400v21.53h26.85v3.31H369.6v22.25h-3.67v-50.41h33.69V1400Z" transform="translate(-183.36 -361)"/><path d="M415,1400v21.53h26.86v3.31H415v22.25h-3.67v-50.41h33.69V1400Z" transform="translate(-183.36 -361)"/><path d="M460.46,1400v21.53h26.86v3.31H460.46v22.25h-3.67v-50.41h33.7V1400Z" transform="translate(-183.36 -361)"/><path d="M505.89,1400v21.53h26.86v3.31H505.89v22.25h-3.67v-50.41h33.7V1400Z" transform="translate(-183.36 -361)"/><path d="M551.33,1400v21.53h26.85v3.31H551.33v22.25h-3.68v-50.41h33.7V1400Z" transform="translate(-183.36 -361)"/><path d="M298.68,1500.21l-2,16.13H307.1v2.88H296.3l-1.72,14.25H291.7l1.72-14.25H277.66l-1.8,14.25H273l1.72-14.25H264.34v-2.88h10.72l2-16.13H266.57v-2.88h10.87l1.73-14.26h2.95l-1.8,14.26h15.84l1.73-14.26h2.88L299,1497.33h10.37v2.88Zm-2.88,0H280L278,1516.34h15.76Z" transform="translate(-183.36 -361)"/><path d="M324.17,1486.39v21.53H351v3.31H324.17v22.24H320.5v-50.4h33.69v3.32Z" transform="translate(-183.36 -361)"/><path d="M369.6,1486.39v21.53h26.85v3.31H369.6v22.24h-3.67v-50.4h33.69v3.32Z" transform="translate(-183.36 -361)"/><path d="M444.84,1519.51H434.25v14h-3.59v-14H401.93v-2.67l27.36-33.77h4.1l-26.85,33.2h24.19V1504h3.52v12.31h10.59Z" transform="translate(-183.36 -361)"/><path d="M476.7,1509.1a13,13,0,0,1,4.35,10.19,14.08,14.08,0,0,1-2,7.52,13.61,13.61,0,0,1-6,5.15,22.52,22.52,0,0,1-9.62,1.87,28.76,28.76,0,0,1-10.29-1.83,18.26,18.26,0,0,1-7.49-4.93l1.87-2.81a17.82,17.82,0,0,0,6.66,4.46,24,24,0,0,0,9.25,1.73q6.7,0,10.3-3a11,11,0,0,0-.07-16.38q-3.67-2.94-11-2.95h-3.17v-2.66l14.91-19.08H447.5v-3.32h31.61v2.6L464,1505Q472.35,1505.26,476.7,1509.1Z" transform="translate(-183.36 -361)"/><path d="M530.88,1519.51H520.29v14h-3.6v-14H488v-2.67l27.36-33.77h4.1l-26.86,33.2h24.2V1504h3.52v12.31h10.59Z" transform="translate(-183.36 -361)"/><path d="M562.74,1509.1a13,13,0,0,1,4.35,10.19,14.08,14.08,0,0,1-2,7.52,13.61,13.61,0,0,1-6,5.15,22.52,22.52,0,0,1-9.62,1.87,28.76,28.76,0,0,1-10.29-1.83,18.26,18.26,0,0,1-7.49-4.93l1.87-2.81a17.82,17.82,0,0,0,6.66,4.46,24,24,0,0,0,9.25,1.73q6.7,0,10.3-3a11,11,0,0,0-.07-16.38q-3.67-2.94-11-2.95h-3.17v-2.66l14.91-19.08H533.54v-3.32h31.61v2.6L550,1505Q558.39,1505.26,562.74,1509.1Z" transform="translate(-183.36 -361)"/><rect x="482.07" y="943.54" width="65.93" height="65.93"/><rect class="cls-2" x="482.07" y="1034.63" width="65.93" height="65.93"/><rect class="cls-3" x="482.07" y="1125.71" width="65.93" height="65.93"/></g></svg>