<svg id="Visuels" xmlns="http://www.w3.org/2000/svg" viewBox="0 0 1228.34 1228.34"><defs><style>.cls-1{fill:#fff;}.cls-2{fill:#e36a89;}.cls-3{fill:#efeb85;}</style></defs><title>notice quai 158</title><g id="Calque_21" data-name="Calque 21"><rect class="cls-1" width="1228.34" height="1228.34"/><path d="M292.74,516.84a12.1,12.1,0,0,1-4.22,3.34,12.36,12.36,0,0,1-5.3,1.14,13.58,13.58,0,0,1-6.58-1.7,31.19,31.19,0,0,1-7-5.74,21.35,21.35,0,0,1-10.19-2.8,19.13,19.13,0,0,1-7.11-7.12,20.8,20.8,0,0,1,.08-20.21,18.94,18.94,0,0,1,7.39-7.14,22.66,22.66,0,0,1,21.06,0,19.06,19.06,0,0,1,7.36,7.14A19.68,19.68,0,0,1,291,493.94a20.07,20.07,0,0,1-2,9,19.08,19.08,0,0,1-5.71,6.86,20,20,0,0,1-8.43,3.64q4.31,4.54,8.51,4.54a9.53,9.53,0,0,0,7.45-3.58ZM256,502.23a15.57,15.57,0,0,0,5.93,5.82,17.69,17.69,0,0,0,16.83,0,15.5,15.5,0,0,0,5.88-5.82,17.2,17.2,0,0,0,0-16.58,15.5,15.5,0,0,0-5.88-5.82,17.69,17.69,0,0,0-16.83,0,15.57,15.57,0,0,0-5.93,5.82,17,17,0,0,0,0,16.58Z" transform="translate(-183.36 -361)"/><path d="M326,484.08v29.46h-3.81v-5.38a10.74,10.74,0,0,1-4.31,4.17,13,13,0,0,1-6.27,1.49q-5.78,0-9.1-3.22t-3.33-9.44V484.08h4v16.69q0,4.65,2.3,7.06a8.63,8.63,0,0,0,6.55,2.4,9.67,9.67,0,0,0,7.34-2.82q2.68-2.84,2.68-7.87V484.08Z" transform="translate(-183.36 -361)"/><path d="M356.25,486.74c2.05,1.93,3.08,4.77,3.08,8.54v18.26h-3.81V509a9.13,9.13,0,0,1-3.95,3.58,13.82,13.82,0,0,1-6.19,1.29,12.11,12.11,0,0,1-7.84-2.35,8.1,8.1,0,0,1-.19-12.27q2.72-2.29,8.65-2.29h9.35v-1.79a7.54,7.54,0,0,0-2.13-5.8q-2.13-2-6.21-2a16,16,0,0,0-5.38.92,13.6,13.6,0,0,0-4.42,2.55l-1.8-3a16.11,16.11,0,0,1,5.38-2.93,20.65,20.65,0,0,1,6.61-1Q353.16,483.86,356.25,486.74Zm-4.48,22.4a9.17,9.17,0,0,0,3.58-4.45v-4.81h-9.24q-7.56,0-7.56,5.26a4.81,4.81,0,0,0,2,4.06,8.94,8.94,0,0,0,5.49,1.48A10.47,10.47,0,0,0,351.77,509.14Z" transform="translate(-183.36 -361)"/><path d="M370.08,476.8a2.74,2.74,0,0,1-.84-2,2.68,2.68,0,0,1,.84-2,2.81,2.81,0,0,1,2.07-.84,2.87,2.87,0,0,1,2.07.81,2.58,2.58,0,0,1,.84,1.93,2.93,2.93,0,0,1-5,2.07Zm.05,7.28h4v29.46h-4Z" transform="translate(-183.36 -361)"/><path d="M408.1,474.34v39.2h-4V477.92h-9.24v-3.58Z" transform="translate(-183.36 -361)"/><path d="M440.16,493.46a10.22,10.22,0,0,1,3.89,8.54,11.8,11.8,0,0,1-1.59,6.11,10.85,10.85,0,0,1-4.79,4.22,17.9,17.9,0,0,1-7.84,1.55,23.09,23.09,0,0,1-8-1.38,16.15,16.15,0,0,1-6.08-3.67l2-3.19a14.44,14.44,0,0,0,5.16,3.28,18.53,18.53,0,0,0,6.88,1.26q4.88,0,7.54-2.18a7.18,7.18,0,0,0,2.66-5.83,6.93,6.93,0,0,0-3-6.1Q434,494,426.86,494h-8.34l2-19.66H442v3.58H424.06l-1.34,12.49h5Q436.27,490.41,440.16,493.46Z" transform="translate(-183.36 -361)"/><path d="M477.29,496.68a9.2,9.2,0,0,1,2,5.94,9.89,9.89,0,0,1-1.85,6,11.63,11.63,0,0,1-5.29,3.92,21.72,21.72,0,0,1-8.09,1.38q-7.07,0-11.09-3a9.74,9.74,0,0,1-4-8.23,9.27,9.27,0,0,1,1.93-6,11.59,11.59,0,0,1,5.63-3.67,9.88,9.88,0,0,1-4.6-3.39,8.87,8.87,0,0,1-1.56-5.24,9,9,0,0,1,3.72-7.56q3.72-2.79,10-2.8a19.21,19.21,0,0,1,7.25,1.26,11,11,0,0,1,4.84,3.62,8.94,8.94,0,0,1,1.74,5.48,8.58,8.58,0,0,1-1.63,5.24,10.21,10.21,0,0,1-4.64,3.39A11.94,11.94,0,0,1,477.29,496.68Zm-5.1,11.65a7.1,7.1,0,0,0,0-11.51q-2.94-2.1-8.14-2.1t-8.1,2.1a7.15,7.15,0,0,0,0,11.54c1.94,1.4,4.64,2.1,8.12,2.1S470.23,509.75,472.19,508.33Zm-15.26-18.7a11.76,11.76,0,0,0,7.12,1.9,11.89,11.89,0,0,0,7.14-1.9,6,6,0,0,0,2.6-5.1,6.08,6.08,0,0,0-2.66-5.21,11.92,11.92,0,0,0-7.08-1.9,11.79,11.79,0,0,0-7.09,1.9,6.43,6.43,0,0,0,0,10.31Z" transform="translate(-183.36 -361)"/><path d="M527.83,500H503.19a10.5,10.5,0,0,0,3.53,7.42,11.66,11.66,0,0,0,8.06,2.83,12.76,12.76,0,0,0,5-1,11,11,0,0,0,4-2.88L526,509a12.62,12.62,0,0,1-4.9,3.59,16.61,16.61,0,0,1-6.47,1.23,16.32,16.32,0,0,1-8-1.93,14,14,0,0,1-5.46-5.35,15.21,15.21,0,0,1-2-7.73,15.82,15.82,0,0,1,1.88-7.73,13.66,13.66,0,0,1,5.15-5.32,15.17,15.17,0,0,1,14.7,0,13.62,13.62,0,0,1,5.1,5.3,15.91,15.91,0,0,1,1.84,7.75ZM506.46,490a10.66,10.66,0,0,0-3.27,7.09h20.89A10.72,10.72,0,0,0,520.8,490a10.81,10.81,0,0,0-14.34,0Z" transform="translate(-183.36 -361)"/><path d="M537,512.78a14.83,14.83,0,0,1-5.12-2.6l1.79-3.14a14.93,14.93,0,0,0,4.65,2.38,18.28,18.28,0,0,0,5.82.93q4,0,6-1.26a4,4,0,0,0,1.94-3.56A3.21,3.21,0,0,0,551,503a7.15,7.15,0,0,0-2.69-1.4,40.44,40.44,0,0,0-4.31-.92,51.57,51.57,0,0,1-5.77-1.37,8.55,8.55,0,0,1-3.72-2.38,6.61,6.61,0,0,1-1.54-4.65,7.29,7.29,0,0,1,3.08-6.05q3.08-2.35,8.57-2.35a22,22,0,0,1,5.71.76,15.64,15.64,0,0,1,4.7,2l-1.73,3.19a15,15,0,0,0-8.68-2.52,10,10,0,0,0-5.74,1.35,4.11,4.11,0,0,0-1.93,3.53,3.45,3.45,0,0,0,1.09,2.68,6.67,6.67,0,0,0,2.71,1.49,44.91,44.91,0,0,0,4.48,1,51.39,51.39,0,0,1,5.66,1.34,8.36,8.36,0,0,1,3.64,2.3,6.31,6.31,0,0,1,1.51,4.48,7.11,7.11,0,0,1-3.22,6.13c-2.15,1.51-5.12,2.27-8.93,2.27A22.62,22.62,0,0,1,537,512.78Z" transform="translate(-183.36 -361)"/><path d="M578.9,511.75a7.66,7.66,0,0,1-2.77,1.54,11.31,11.31,0,0,1-3.45.53,7.8,7.8,0,0,1-8.62-8.57V487.44H558.8v-3.36h5.26v-6.44h4v6.44h9v3.36h-9V505a5.54,5.54,0,0,0,1.31,4,5,5,0,0,0,3.78,1.37,7.33,7.33,0,0,0,2.38-.39,5.78,5.78,0,0,0,2-1.12Z" transform="translate(-183.36 -361)"/><path d="M627.34,484.08v29.46h-3.81v-5.38a10.81,10.81,0,0,1-4.31,4.17,13,13,0,0,1-6.27,1.49q-5.78,0-9.1-3.22t-3.34-9.44V484.08h4v16.69q0,4.65,2.3,7.06a8.63,8.63,0,0,0,6.55,2.4,9.63,9.63,0,0,0,7.33-2.82c1.8-1.89,2.69-4.51,2.69-7.87V484.08Z" transform="translate(-183.36 -361)"/><path d="M662.31,487.08q3.27,3.23,3.28,9.38v17.08h-4V496.85q0-4.59-2.3-7a8.64,8.64,0,0,0-6.55-2.41,10.09,10.09,0,0,0-7.53,2.83,10.68,10.68,0,0,0-2.77,7.81v15.46h-4V484.08h3.81v5.44a11,11,0,0,1,4.51-4.18,14.4,14.4,0,0,1,6.69-1.48A12,12,0,0,1,662.31,487.08Z" transform="translate(-183.36 -361)"/><path d="M691.06,472h4v41.55h-4Z" transform="translate(-183.36 -361)"/><path d="M710.5,511.89a14.11,14.11,0,0,1-5.38-5.35,16.22,16.22,0,0,1,0-15.46,14,14,0,0,1,5.38-5.32,16.43,16.43,0,0,1,15.34,0,13.75,13.75,0,0,1,5.35,5.32,16.45,16.45,0,0,1,0,15.46,13.89,13.89,0,0,1-5.35,5.35,16.21,16.21,0,0,1-15.34,0Zm13.3-3a9.89,9.89,0,0,0,3.89-4.06,13.51,13.51,0,0,0,0-12,9.89,9.89,0,0,0-3.89-4.06,11.8,11.8,0,0,0-11.26,0,10.09,10.09,0,0,0-3.92,4.06,13.26,13.26,0,0,0,0,12,10.09,10.09,0,0,0,3.92,4.06,11.8,11.8,0,0,0,11.26,0Z" transform="translate(-183.36 -361)"/><path d="M768.51,484.08V510q0,7.5-3.67,11.11t-11.06,3.61a24.75,24.75,0,0,1-7.75-1.2,16,16,0,0,1-6-3.33l2-3a15.19,15.19,0,0,0,5.18,3,19.29,19.29,0,0,0,6.41,1.07q5.61,0,8.23-2.61c1.76-1.74,2.64-4.43,2.64-8.09v-3.75a12.06,12.06,0,0,1-4.85,4.25,15,15,0,0,1-6.63,1.46,15.71,15.71,0,0,1-7.54-1.82,13.45,13.45,0,0,1-5.32-5.1,15.17,15.17,0,0,1,0-14.81,13.46,13.46,0,0,1,5.3-5,15.86,15.86,0,0,1,7.56-1.79,14.87,14.87,0,0,1,6.77,1.51,12.14,12.14,0,0,1,4.87,4.37v-5.66Zm-9.29,23.44a9.93,9.93,0,0,0,4-3.84,11,11,0,0,0,1.43-5.6,10.84,10.84,0,0,0-1.43-5.57,10.07,10.07,0,0,0-4-3.81,12.9,12.9,0,0,0-11.53,0,9.72,9.72,0,0,0-4,3.8,11.68,11.68,0,0,0,0,11.2,9.94,9.94,0,0,0,4,3.84,12,12,0,0,0,5.74,1.37A12.14,12.14,0,0,0,759.22,507.52Z" transform="translate(-183.36 -361)"/><path d="M784,511.89a14.08,14.08,0,0,1-5.37-5.35,16.22,16.22,0,0,1,0-15.46,13.93,13.93,0,0,1,5.37-5.32,16.45,16.45,0,0,1,15.35,0,13.75,13.75,0,0,1,5.35,5.32,16.45,16.45,0,0,1,0,15.46,13.89,13.89,0,0,1-5.35,5.35,16.23,16.23,0,0,1-15.35,0Zm13.3-3a10,10,0,0,0,3.9-4.06,13.51,13.51,0,0,0,0-12,10,10,0,0,0-3.9-4.06,11.78,11.78,0,0,0-11.25,0,10.09,10.09,0,0,0-3.92,4.06,13.26,13.26,0,0,0,0,12,10.09,10.09,0,0,0,3.92,4.06,11.78,11.78,0,0,0,11.25,0Z" transform="translate(-183.36 -361)"/><path d="M837.42,485.37a14.15,14.15,0,0,1,6.86-1.51v3.86l-.95-.05a9.41,9.41,0,0,0-7.28,2.85c-1.76,1.91-2.63,4.58-2.63,8v15h-4V484.08h3.81v5.77A9.61,9.61,0,0,1,837.42,485.37Z" transform="translate(-183.36 -361)"/><path d="M876.82,500H852.18a10.53,10.53,0,0,0,3.52,7.42,11.71,11.71,0,0,0,8.07,2.83,12.76,12.76,0,0,0,5-1,10.94,10.94,0,0,0,4-2.88L875,509a12.55,12.55,0,0,1-4.9,3.59,16.56,16.56,0,0,1-6.46,1.23,16.32,16.32,0,0,1-8-1.93,14,14,0,0,1-5.46-5.35,15.21,15.21,0,0,1-2-7.73,15.71,15.71,0,0,1,1.88-7.73,13.59,13.59,0,0,1,5.15-5.32,15.17,15.17,0,0,1,14.7,0,13.52,13.52,0,0,1,5.09,5.3,15.81,15.81,0,0,1,1.85,7.75ZM855.45,490a10.66,10.66,0,0,0-3.27,7.09h20.88a10.66,10.66,0,0,0-3.27-7.09,10.81,10.81,0,0,0-14.34,0Zm11.17-17.44h5.32l-9.07,6.94H859Z" transform="translate(-183.36 -361)"/><path d="M903.3,486.74c2.06,1.93,3.08,4.77,3.08,8.54v18.26h-3.81V509a9.1,9.1,0,0,1-3.94,3.58,13.82,13.82,0,0,1-6.19,1.29,12.09,12.09,0,0,1-7.84-2.35,8.11,8.11,0,0,1-.2-12.27q2.72-2.29,8.66-2.29h9.35v-1.79a7.54,7.54,0,0,0-2.13-5.8q-2.13-2-6.22-2a15.91,15.91,0,0,0-5.37.92,13.76,13.76,0,0,0-4.43,2.55l-1.79-3a16,16,0,0,1,5.38-2.93,20.65,20.65,0,0,1,6.61-1Q900.22,483.86,903.3,486.74Zm-4.48,22.4a9.18,9.18,0,0,0,3.59-4.45v-4.81h-9.24q-7.56,0-7.56,5.26a4.81,4.81,0,0,0,2,4.06,8.9,8.9,0,0,0,5.49,1.48A10.43,10.43,0,0,0,898.82,509.14Z" transform="translate(-183.36 -361)"/><path d="M917.19,472h4v41.55h-4Z" transform="translate(-183.36 -361)"/><path d="M932.2,476.8a2.74,2.74,0,0,1-.84-2,2.68,2.68,0,0,1,.84-2,2.81,2.81,0,0,1,2.07-.84,2.87,2.87,0,0,1,2.07.81,2.58,2.58,0,0,1,.84,1.93,2.93,2.93,0,0,1-5,2.07Zm.06,7.28h4v29.46h-4Z" transform="translate(-183.36 -361)"/><path d="M948.35,512.78a14.83,14.83,0,0,1-5.12-2.6L945,507a14.93,14.93,0,0,0,4.65,2.38,18.39,18.39,0,0,0,5.83.93q4,0,6-1.26a4,4,0,0,0,1.93-3.56,3.21,3.21,0,0,0-1.06-2.55,7.23,7.23,0,0,0-2.69-1.4,40.44,40.44,0,0,0-4.31-.92,51.57,51.57,0,0,1-5.77-1.37,8.52,8.52,0,0,1-3.73-2.38,6.65,6.65,0,0,1-1.54-4.65,7.27,7.27,0,0,1,3.09-6.05q3.07-2.35,8.56-2.35a21.92,21.92,0,0,1,5.71.76,15.6,15.6,0,0,1,4.71,2l-1.74,3.19a14.93,14.93,0,0,0-8.68-2.52,10,10,0,0,0-5.74,1.35,4.14,4.14,0,0,0-1.93,3.53,3.45,3.45,0,0,0,1.09,2.68,6.71,6.71,0,0,0,2.72,1.49,43.66,43.66,0,0,0,4.48,1,51.13,51.13,0,0,1,5.65,1.34,8.31,8.31,0,0,1,3.64,2.3,6.32,6.32,0,0,1,1.52,4.48,7.13,7.13,0,0,1-3.22,6.13q-3.23,2.26-8.94,2.27A22.71,22.71,0,0,1,948.35,512.78Z" transform="translate(-183.36 -361)"/><path d="M1000.35,500H975.71a10.5,10.5,0,0,0,3.53,7.42,11.68,11.68,0,0,0,8.06,2.83,12.76,12.76,0,0,0,5-1,11,11,0,0,0,4-2.88l2.24,2.57a12.62,12.62,0,0,1-4.9,3.59,16.61,16.61,0,0,1-6.47,1.23,16.38,16.38,0,0,1-8-1.93,14,14,0,0,1-5.46-5.35,15.31,15.31,0,0,1-2-7.73,15.82,15.82,0,0,1,1.88-7.73,13.66,13.66,0,0,1,5.15-5.32,14.4,14.4,0,0,1,7.37-1.9,14.2,14.2,0,0,1,7.33,1.9,13.48,13.48,0,0,1,5.1,5.3,15.92,15.92,0,0,1,1.85,7.75ZM979,490a10.63,10.63,0,0,0-3.28,7.09H996.6a10.63,10.63,0,0,0-3.28-7.09A10.8,10.8,0,0,0,979,490Zm11.17-17.44h5.32l-9.07,6.94h-3.92Z" transform="translate(-183.36 -361)"/><path d="M1045.88,485.73a13.47,13.47,0,0,1,5.26,5.3,16.92,16.92,0,0,1,0,15.62,13.44,13.44,0,0,1-5.23,5.29,15.15,15.15,0,0,1-7.54,1.88,13.88,13.88,0,0,1-6.46-1.49,12.22,12.22,0,0,1-4.74-4.33v16.4h-4V484.08H1027v5.83a12.18,12.18,0,0,1,4.73-4.48,13.81,13.81,0,0,1,6.63-1.57A15.13,15.13,0,0,1,1045.88,485.73Zm-2.19,23.13a10,10,0,0,0,4-4.06,12.36,12.36,0,0,0,1.43-6,12.19,12.19,0,0,0-1.43-6,10.29,10.29,0,0,0-4-4.06,11.51,11.51,0,0,0-11.22,0,10.28,10.28,0,0,0-3.92,4.06,12.08,12.08,0,0,0-1.43,6,12.25,12.25,0,0,0,1.43,6,10,10,0,0,0,3.92,4.06,11.72,11.72,0,0,0,11.22,0Z" transform="translate(-183.36 -361)"/><path d="M1065.53,511.89a14.08,14.08,0,0,1-5.37-5.35,16.22,16.22,0,0,1,0-15.46,13.93,13.93,0,0,1,5.37-5.32,16.45,16.45,0,0,1,15.35,0,13.82,13.82,0,0,1,5.35,5.32,16.45,16.45,0,0,1,0,15.46,14,14,0,0,1-5.35,5.35,16.23,16.23,0,0,1-15.35,0Zm13.3-3a10,10,0,0,0,3.9-4.06,13.51,13.51,0,0,0,0-12,10,10,0,0,0-3.9-4.06,11.78,11.78,0,0,0-11.25,0,10.09,10.09,0,0,0-3.92,4.06,13.26,13.26,0,0,0,0,12,10.09,10.09,0,0,0,3.92,4.06,11.78,11.78,0,0,0,11.25,0Z" transform="translate(-183.36 -361)"/><path d="M1122.82,484.08v29.46H1119v-5.38a10.74,10.74,0,0,1-4.31,4.17,13,13,0,0,1-6.27,1.49q-5.78,0-9.1-3.22t-3.33-9.44V484.08h4v16.69q0,4.65,2.3,7.06a8.63,8.63,0,0,0,6.55,2.4,9.66,9.66,0,0,0,7.34-2.82q2.68-2.84,2.69-7.87V484.08Z" transform="translate(-183.36 -361)"/><path d="M1142,485.37a14.12,14.12,0,0,1,6.86-1.51v3.86l-1-.05a9.42,9.42,0,0,0-7.28,2.85q-2.62,2.87-2.63,8v15h-4V484.08h3.8v5.77A9.68,9.68,0,0,1,1142,485.37Z" transform="translate(-183.36 -361)"/><path d="M1197.64,484.08v29.46h-3.81v-5.38a10.87,10.87,0,0,1-4.31,4.17,13,13,0,0,1-6.28,1.49q-5.76,0-9.1-3.22t-3.33-9.44V484.08h4v16.69q0,4.65,2.29,7.06a8.65,8.65,0,0,0,6.56,2.4,9.65,9.65,0,0,0,7.33-2.82q2.68-2.84,2.69-7.87V484.08Z" transform="translate(-183.36 -361)"/><path d="M1232.61,487.08q3.27,3.23,3.27,9.38v17.08h-4V496.85q0-4.59-2.3-7a8.64,8.64,0,0,0-6.55-2.41,10.09,10.09,0,0,0-7.53,2.83,10.68,10.68,0,0,0-2.78,7.81v15.46h-4V484.08h3.81v5.44a11,11,0,0,1,4.5-4.18,14.47,14.47,0,0,1,6.7-1.48A12,12,0,0,1,1232.61,487.08Z" transform="translate(-183.36 -361)"/><path d="M1269.34,485.37a14.17,14.17,0,0,1,6.86-1.51v3.86l-1-.05a9.41,9.41,0,0,0-7.28,2.85c-1.76,1.91-2.63,4.58-2.63,8v15h-4V484.08h3.81v5.77A9.61,9.61,0,0,1,1269.34,485.37Z" transform="translate(-183.36 -361)"/><path d="M1308.74,500H1284.1a10.5,10.5,0,0,0,3.53,7.42,11.66,11.66,0,0,0,8.06,2.83,12.76,12.76,0,0,0,5-1,11,11,0,0,0,4-2.88L1307,509a12.62,12.62,0,0,1-4.9,3.59,16.61,16.61,0,0,1-6.47,1.23,16.32,16.32,0,0,1-8-1.93,14,14,0,0,1-5.46-5.35,15.21,15.21,0,0,1-2-7.73,15.82,15.82,0,0,1,1.88-7.73,13.66,13.66,0,0,1,5.15-5.32,15.17,15.17,0,0,1,14.7,0,13.62,13.62,0,0,1,5.1,5.3,15.91,15.91,0,0,1,1.84,7.75ZM1287.37,490a10.66,10.66,0,0,0-3.27,7.09H1305a10.72,10.72,0,0,0-3.28-7.09,10.81,10.81,0,0,0-14.34,0Z" transform="translate(-183.36 -361)"/><path d="M1318,512.78a14.83,14.83,0,0,1-5.12-2.6l1.79-3.14a14.93,14.93,0,0,0,4.65,2.38,18.28,18.28,0,0,0,5.82.93q4,0,6-1.26a4,4,0,0,0,1.94-3.56,3.21,3.21,0,0,0-1.07-2.55,7.15,7.15,0,0,0-2.69-1.4,40.44,40.44,0,0,0-4.31-.92,51.57,51.57,0,0,1-5.77-1.37,8.55,8.55,0,0,1-3.72-2.38,6.61,6.61,0,0,1-1.54-4.65,7.29,7.29,0,0,1,3.08-6.05q3.08-2.35,8.57-2.35a22,22,0,0,1,5.71.76,15.64,15.64,0,0,1,4.7,2l-1.73,3.19a15,15,0,0,0-8.68-2.52,10,10,0,0,0-5.74,1.35,4.11,4.11,0,0,0-1.93,3.53,3.45,3.45,0,0,0,1.09,2.68,6.67,6.67,0,0,0,2.71,1.49,44.91,44.91,0,0,0,4.48,1,51.39,51.39,0,0,1,5.66,1.34,8.36,8.36,0,0,1,3.64,2.3,6.31,6.31,0,0,1,1.51,4.48,7.11,7.11,0,0,1-3.22,6.13c-2.15,1.51-5.12,2.27-8.93,2.27A22.62,22.62,0,0,1,1318,512.78Z" transform="translate(-183.36 -361)"/><path d="M1342.11,496.63h14.68v3.47h-14.68Z" transform="translate(-183.36 -361)"/><path d="M267.94,579a7.71,7.71,0,0,1-2.78,1.54,11.3,11.3,0,0,1-3.44.53,8.64,8.64,0,0,1-6.38-2.24,8.52,8.52,0,0,1-2.24-6.33V554.64h-5.27v-3.36h5.27v-6.44h4v6.44h9v3.36h-9v17.59a5.54,5.54,0,0,0,1.32,4,5,5,0,0,0,3.78,1.37,7.38,7.38,0,0,0,2.38-.39,5.88,5.88,0,0,0,2-1.12Z" transform="translate(-183.36 -361)"/><path d="M294.31,553.94c2.05,1.93,3.08,4.77,3.08,8.54v18.26h-3.81v-4.59a9.07,9.07,0,0,1-3.95,3.58,13.74,13.74,0,0,1-6.18,1.29,12.09,12.09,0,0,1-7.84-2.35,8.09,8.09,0,0,1-.2-12.27q2.71-2.29,8.65-2.29h9.35v-1.79a7.54,7.54,0,0,0-2.12-5.8q-2.13-2-6.22-2a15.73,15.73,0,0,0-5.38.93,13.51,13.51,0,0,0-4.42,2.54l-1.79-3a15.81,15.81,0,0,1,5.37-2.94,20.74,20.74,0,0,1,6.61-1Q291.24,551.06,294.31,553.94Zm-4.48,22.4a9.11,9.11,0,0,0,3.58-4.45v-4.81h-9.24q-7.56,0-7.56,5.26a4.83,4.83,0,0,0,2,4.06,8.94,8.94,0,0,0,5.49,1.48A10.44,10.44,0,0,0,289.83,576.34Z" transform="translate(-183.36 -361)"/><path d="M334.74,551.28v29.46h-3.81v-5.38a10.83,10.83,0,0,1-4.31,4.18,13.08,13.08,0,0,1-6.27,1.48q-5.76,0-9.1-3.22t-3.33-9.44V551.28h4V568q0,4.65,2.29,7.06a8.65,8.65,0,0,0,6.55,2.41,9.66,9.66,0,0,0,7.34-2.83q2.69-2.83,2.69-7.87V551.28Z" transform="translate(-183.36 -361)"/><path d="M353.87,552.57a14.12,14.12,0,0,1,6.86-1.51v3.86l-1,0a9.42,9.42,0,0,0-7.28,2.85q-2.62,2.87-2.63,8v15h-4V551.28h3.8v5.77A9.68,9.68,0,0,1,353.87,552.57Z" transform="translate(-183.36 -361)"/><path d="M387,553.94c2.05,1.93,3.08,4.77,3.08,8.54v18.26h-3.81v-4.59a9.07,9.07,0,0,1-3.95,3.58,13.77,13.77,0,0,1-6.18,1.29,12.09,12.09,0,0,1-7.84-2.35,8.09,8.09,0,0,1-.2-12.27q2.71-2.29,8.65-2.29h9.35v-1.79a7.58,7.58,0,0,0-2.12-5.8c-1.42-1.33-3.5-2-6.22-2a15.73,15.73,0,0,0-5.38.93A13.51,13.51,0,0,0,368,558l-1.79-3a15.81,15.81,0,0,1,5.37-2.94,20.7,20.7,0,0,1,6.61-1Q383.92,551.06,387,553.94Zm-4.48,22.4a9.17,9.17,0,0,0,3.58-4.45v-4.81h-9.24q-7.56,0-7.56,5.26a4.83,4.83,0,0,0,2,4.06,8.94,8.94,0,0,0,5.49,1.48A10.47,10.47,0,0,0,382.51,576.34Z" transform="translate(-183.36 -361)"/><path d="M424.71,554.28q3.27,3.22,3.27,9.38v17.08h-4V564.05q0-4.59-2.3-7a8.65,8.65,0,0,0-6.55-2.41,10.06,10.06,0,0,0-7.53,2.83,10.68,10.68,0,0,0-2.78,7.81v15.46h-4V551.28h3.81v5.44a11,11,0,0,1,4.5-4.18,14.47,14.47,0,0,1,6.7-1.48A12,12,0,0,1,424.71,554.28Z" transform="translate(-183.36 -361)"/><path d="M454.3,579a7.66,7.66,0,0,1-2.77,1.54,11.31,11.31,0,0,1-3.45.53,7.8,7.8,0,0,1-8.62-8.57V554.64H434.2v-3.36h5.26v-6.44h4v6.44h9v3.36h-9v17.59a5.59,5.59,0,0,0,1.31,4,5,5,0,0,0,3.78,1.37,7.33,7.33,0,0,0,2.38-.39,5.78,5.78,0,0,0,2-1.12Z" transform="translate(-183.36 -361)"/><path d="M503.08,539.19v41.55h-3.81v-5.82a12.16,12.16,0,0,1-4.73,4.53A13.85,13.85,0,0,1,487.9,581a15,15,0,0,1-7.5-1.9,13.68,13.68,0,0,1-5.27-5.32,16.9,16.9,0,0,1,0-15.57,13.41,13.41,0,0,1,5.27-5.29,15.13,15.13,0,0,1,7.5-1.88,13.92,13.92,0,0,1,6.47,1.48,12.29,12.29,0,0,1,4.73,4.34V539.19Zm-9.27,36.87a10.09,10.09,0,0,0,3.92-4.06,13.26,13.26,0,0,0,0-12,10.09,10.09,0,0,0-3.92-4.06,11,11,0,0,0-5.57-1.43,11.14,11.14,0,0,0-5.63,1.43,10.09,10.09,0,0,0-3.92,4.06,13.26,13.26,0,0,0,0,12,10.09,10.09,0,0,0,3.92,4.06,11,11,0,0,0,5.63,1.43A10.92,10.92,0,0,0,493.81,576.06Z" transform="translate(-183.36 -361)"/><path d="M539.81,567.24H515.17a10.54,10.54,0,0,0,3.53,7.42,11.7,11.7,0,0,0,8.06,2.83,12.59,12.59,0,0,0,5-1,11,11,0,0,0,4-2.88L538,576.2a12.62,12.62,0,0,1-4.9,3.59,16.61,16.61,0,0,1-6.47,1.23,16.31,16.31,0,0,1-8-1.93,13.84,13.84,0,0,1-5.46-5.35,15.21,15.21,0,0,1-2-7.73,15.82,15.82,0,0,1,1.87-7.73,13.66,13.66,0,0,1,5.15-5.32,14.4,14.4,0,0,1,7.37-1.9,14.2,14.2,0,0,1,7.33,1.9,13.48,13.48,0,0,1,5.1,5.3,15.92,15.92,0,0,1,1.85,7.75Zm-21.36-10a10.63,10.63,0,0,0-3.28,7.09h20.89a10.63,10.63,0,0,0-3.28-7.09,10.83,10.83,0,0,0-14.33,0Z" transform="translate(-183.36 -361)"/><path d="M589.93,551.28v25.88q0,7.5-3.67,11.11t-11.06,3.61a24.75,24.75,0,0,1-7.75-1.2,15.88,15.88,0,0,1-6-3.33l2-3a15.1,15.1,0,0,0,5.18,3,19.29,19.29,0,0,0,6.41,1.07c3.73,0,6.48-.87,8.23-2.61s2.64-4.43,2.64-8.09v-3.75a12.06,12.06,0,0,1-4.85,4.25,15,15,0,0,1-6.63,1.46,15.71,15.71,0,0,1-7.54-1.82,13.39,13.39,0,0,1-5.32-5.1,15.17,15.17,0,0,1,0-14.81,13.46,13.46,0,0,1,5.3-5,15.86,15.86,0,0,1,7.56-1.79,14.87,14.87,0,0,1,6.77,1.51,12.22,12.22,0,0,1,4.87,4.37v-5.66Zm-9.29,23.44a9.93,9.93,0,0,0,4-3.84,11,11,0,0,0,1.43-5.6,10.84,10.84,0,0,0-1.43-5.57,10.07,10.07,0,0,0-4-3.81,12.9,12.9,0,0,0-11.53,0,9.72,9.72,0,0,0-4,3.8,11.68,11.68,0,0,0,0,11.2,9.94,9.94,0,0,0,4,3.84,12,12,0,0,0,5.74,1.37A12.14,12.14,0,0,0,580.64,574.72Z" transform="translate(-183.36 -361)"/><path d="M609.05,552.57a14.17,14.17,0,0,1,6.86-1.51v3.86l-.95,0a9.42,9.42,0,0,0-7.28,2.85q-2.62,2.87-2.63,8v15h-4V551.28h3.81v5.77A9.71,9.71,0,0,1,609.05,552.57Z" transform="translate(-183.36 -361)"/><path d="M623,544a2.74,2.74,0,0,1-.84-2,2.68,2.68,0,0,1,.84-2,2.81,2.81,0,0,1,2.07-.84,2.87,2.87,0,0,1,2.07.81,2.6,2.6,0,0,1,.84,1.93,2.93,2.93,0,0,1-5,2.07Zm.05,7.28h4v29.46h-4Z" transform="translate(-183.36 -361)"/><path d="M638.15,539.19h4v41.55h-4Z" transform="translate(-183.36 -361)"/><path d="M653.21,539.19h4v41.55h-4Z" transform="translate(-183.36 -361)"/><path d="M687.43,553.94c2.05,1.93,3.08,4.77,3.08,8.54v18.26H686.7v-4.59a9.13,9.13,0,0,1-4,3.58,13.82,13.82,0,0,1-6.19,1.29,12.11,12.11,0,0,1-7.84-2.35,7.6,7.6,0,0,1-2.91-6.22,7.51,7.51,0,0,1,2.72-6.05q2.72-2.29,8.65-2.29h9.35v-1.79a7.54,7.54,0,0,0-2.13-5.8q-2.13-2-6.21-2a15.73,15.73,0,0,0-5.38.93,13.41,13.41,0,0,0-4.42,2.54l-1.8-3A16,16,0,0,1,672,552.1a20.65,20.65,0,0,1,6.61-1Q684.34,551.06,687.43,553.94ZM683,576.34a9.17,9.17,0,0,0,3.58-4.45v-4.81h-9.24q-7.56,0-7.56,5.26a4.81,4.81,0,0,0,2,4.06,8.94,8.94,0,0,0,5.49,1.48A10.47,10.47,0,0,0,683,576.34Z" transform="translate(-183.36 -361)"/><path d="M728.31,539.19v41.55H724.5v-5.82a12.16,12.16,0,0,1-4.73,4.53,13.85,13.85,0,0,1-6.64,1.57,15,15,0,0,1-7.5-1.9,13.68,13.68,0,0,1-5.27-5.32,16.9,16.9,0,0,1,0-15.57,13.41,13.41,0,0,1,5.27-5.29,15.13,15.13,0,0,1,7.5-1.88,13.92,13.92,0,0,1,6.47,1.48,12.29,12.29,0,0,1,4.73,4.34V539.19ZM719,576.06A10.09,10.09,0,0,0,723,572a13.26,13.26,0,0,0,0-12A10.09,10.09,0,0,0,719,556a11,11,0,0,0-5.57-1.43,11.14,11.14,0,0,0-5.63,1.43,10.09,10.09,0,0,0-3.92,4.06,13.26,13.26,0,0,0,0,12,10.09,10.09,0,0,0,3.92,4.06,11,11,0,0,0,5.63,1.43A10.92,10.92,0,0,0,719,576.06Z" transform="translate(-183.36 -361)"/><path d="M765,567.24H740.4a10.54,10.54,0,0,0,3.53,7.42,11.7,11.7,0,0,0,8.06,2.83,12.59,12.59,0,0,0,5-1,11,11,0,0,0,4-2.88l2.24,2.57a12.62,12.62,0,0,1-4.9,3.59,16.61,16.61,0,0,1-6.47,1.23,16.31,16.31,0,0,1-8-1.93,13.84,13.84,0,0,1-5.46-5.35,15.21,15.21,0,0,1-2-7.73,15.82,15.82,0,0,1,1.87-7.73,13.66,13.66,0,0,1,5.15-5.32,14.4,14.4,0,0,1,7.37-1.9,14.2,14.2,0,0,1,7.33,1.9,13.48,13.48,0,0,1,5.1,5.3A15.92,15.92,0,0,1,765.1,566Zm-21.36-10a10.63,10.63,0,0,0-3.28,7.09h20.89a10.63,10.63,0,0,0-3.28-7.09,10.83,10.83,0,0,0-14.33,0Z" transform="translate(-183.36 -361)"/><path d="M775.79,575.78a3,3,0,0,1,.84,2.16,6.1,6.1,0,0,1-.19,1.46,15.41,15.41,0,0,1-.59,1.79l-2.35,7.73h-2.69l1.9-8.12a2.86,2.86,0,0,1-1.45-1,2.92,2.92,0,0,1-.56-1.82,3,3,0,0,1,.84-2.16,3.06,3.06,0,0,1,4.25,0Z" transform="translate(-183.36 -361)"/><path d="M840.08,567.24H815.44a10.5,10.5,0,0,0,3.53,7.42,11.68,11.68,0,0,0,8.06,2.83,12.59,12.59,0,0,0,5-1,11,11,0,0,0,4-2.88l2.24,2.57a12.62,12.62,0,0,1-4.9,3.59,16.61,16.61,0,0,1-6.47,1.23,16.38,16.38,0,0,1-8-1.93,14,14,0,0,1-5.46-5.35,15.31,15.31,0,0,1-2-7.73,15.82,15.82,0,0,1,1.88-7.73,13.66,13.66,0,0,1,5.15-5.32,14.4,14.4,0,0,1,7.37-1.9,14.2,14.2,0,0,1,7.33,1.9,13.48,13.48,0,0,1,5.1,5.3,15.92,15.92,0,0,1,1.85,7.75Zm-21.36-10a10.63,10.63,0,0,0-3.28,7.09h20.89a10.67,10.67,0,0,0-3.28-7.09,10.83,10.83,0,0,0-14.33,0Z" transform="translate(-183.36 -361)"/><path d="M872.08,554.28q3.28,3.22,3.28,9.38v17.08h-4V564.05q0-4.59-2.29-7a8.65,8.65,0,0,0-6.55-2.41,10.1,10.1,0,0,0-7.54,2.83,10.72,10.72,0,0,0-2.77,7.81v15.46h-4V551.28h3.8v5.44a11.1,11.1,0,0,1,4.51-4.18,14.4,14.4,0,0,1,6.69-1.48A12,12,0,0,1,872.08,554.28Z" transform="translate(-183.36 -361)"/><path d="M906.69,543.67a5.81,5.81,0,0,0-1.32,4.14v3.47h9.08v3.36h-9v26.1h-4v-26.1h-5.26v-3.36h5.26v-3.64a8.69,8.69,0,0,1,2.32-6.38,8.84,8.84,0,0,1,6.58-2.35,11.35,11.35,0,0,1,3.25.47,7.31,7.31,0,0,1,2.63,1.38l-1.34,3a6.57,6.57,0,0,0-4.37-1.45A5.06,5.06,0,0,0,906.69,543.67Z" transform="translate(-183.36 -361)"/><path d="M938.41,553.94c2.06,1.93,3.08,4.77,3.08,8.54v18.26h-3.8v-4.59a9.18,9.18,0,0,1-4,3.58,13.82,13.82,0,0,1-6.19,1.29,12.09,12.09,0,0,1-7.84-2.35,8.11,8.11,0,0,1-.2-12.27q2.72-2.29,8.66-2.29h9.35v-1.79a7.54,7.54,0,0,0-2.13-5.8q-2.13-2-6.22-2a15.67,15.67,0,0,0-5.37.93,13.56,13.56,0,0,0-4.43,2.54l-1.79-3A15.86,15.86,0,0,1,923,552.1a20.65,20.65,0,0,1,6.61-1Q935.33,551.06,938.41,553.94Zm-4.48,22.4a9.18,9.18,0,0,0,3.59-4.45v-4.81h-9.24q-7.56,0-7.56,5.26a4.81,4.81,0,0,0,2,4.06,8.9,8.9,0,0,0,5.49,1.48A10.41,10.41,0,0,0,933.93,576.34Z" transform="translate(-183.36 -361)"/><path d="M956.81,579.12a13.75,13.75,0,0,1-5.4-5.35,16.28,16.28,0,0,1,0-15.49,13.81,13.81,0,0,1,5.4-5.32,15.87,15.87,0,0,1,7.81-1.9,15.15,15.15,0,0,1,6.81,1.48,11.38,11.38,0,0,1,4.73,4.34l-3,2a9.24,9.24,0,0,0-3.7-3.28,11,11,0,0,0-4.87-1.09,11.56,11.56,0,0,0-5.74,1.43,10,10,0,0,0-4,4.06,13.32,13.32,0,0,0,0,12,10,10,0,0,0,4,4,11.45,11.45,0,0,0,5.74,1.43,11.16,11.16,0,0,0,4.87-1.06,9,9,0,0,0,3.7-3.25l3,2a11.34,11.34,0,0,1-4.76,4.34,15.33,15.33,0,0,1-6.78,1.48A16,16,0,0,1,956.81,579.12Z" transform="translate(-183.36 -361)"/><path d="M1009.09,567.24H984.45a10.53,10.53,0,0,0,3.52,7.42,11.71,11.71,0,0,0,8.07,2.83,12.59,12.59,0,0,0,5-1,10.94,10.94,0,0,0,4-2.88l2.24,2.57a12.55,12.55,0,0,1-4.9,3.59,16.56,16.56,0,0,1-6.46,1.23,16.32,16.32,0,0,1-8-1.93,14,14,0,0,1-5.46-5.35,15.21,15.21,0,0,1-2-7.73,15.71,15.71,0,0,1,1.88-7.73A13.59,13.59,0,0,1,987.5,553a15.17,15.17,0,0,1,14.7,0,13.52,13.52,0,0,1,5.09,5.3,15.81,15.81,0,0,1,1.85,7.75Zm-21.37-10a10.66,10.66,0,0,0-3.27,7.09h20.88a10.66,10.66,0,0,0-3.27-7.09,10.84,10.84,0,0,0-14.34,0Z" transform="translate(-183.36 -361)"/><path d="M1058.81,539.19v41.55H1055v-5.82a12.19,12.19,0,0,1-4.74,4.53,13.81,13.81,0,0,1-6.63,1.57,15,15,0,0,1-7.51-1.9,13.66,13.66,0,0,1-5.26-5.32,16.9,16.9,0,0,1,0-15.57,13.38,13.38,0,0,1,5.26-5.29,15.14,15.14,0,0,1,7.51-1.88,13.87,13.87,0,0,1,6.46,1.48,12.32,12.32,0,0,1,4.74,4.34V539.19Zm-9.27,36.87a10.11,10.11,0,0,0,3.93-4.06,13.34,13.34,0,0,0,0-12,10.11,10.11,0,0,0-3.93-4.06,11.66,11.66,0,0,0-11.19,0,10,10,0,0,0-3.92,4.06,13.26,13.26,0,0,0,0,12,10,10,0,0,0,3.92,4.06,11.66,11.66,0,0,0,11.19,0Z" transform="translate(-183.36 -361)"/><path d="M1072.48,539.78a3,3,0,0,1,.84,2.15,5.72,5.72,0,0,1-.2,1.43c-.13.5-.31,1.09-.53,1.76l-2.41,7.73h-2.69l2-8.06a2.8,2.8,0,0,1-1.51-1,3.24,3.24,0,0,1,.28-4,2.89,2.89,0,0,1,2.13-.84A2.83,2.83,0,0,1,1072.48,539.78Z" transform="translate(-183.36 -361)"/><path d="M1108.32,551.28v29.46h-3.81v-5.38a10.9,10.9,0,0,1-4.31,4.18,13.09,13.09,0,0,1-6.28,1.48q-5.76,0-9.1-3.22t-3.33-9.44V551.28h4V568q0,4.65,2.29,7.06a8.66,8.66,0,0,0,6.56,2.41,9.64,9.64,0,0,0,7.33-2.83q2.68-2.83,2.69-7.87V551.28Z" transform="translate(-183.36 -361)"/><path d="M1143.29,554.28q3.27,3.22,3.27,9.38v17.08h-4V564.05q0-4.59-2.3-7a8.64,8.64,0,0,0-6.55-2.41,10.09,10.09,0,0,0-7.53,2.83,10.68,10.68,0,0,0-2.77,7.81v15.46h-4V551.28h3.81v5.44a11,11,0,0,1,4.51-4.18,14.4,14.4,0,0,1,6.69-1.48A12,12,0,0,1,1143.29,554.28Z" transform="translate(-183.36 -361)"/><path d="M1198.92,551.28V591.6h-4V575.2a12.32,12.32,0,0,1-4.74,4.34,14,14,0,0,1-6.46,1.48,15.15,15.15,0,0,1-7.54-1.88,13.44,13.44,0,0,1-5.23-5.29,16.92,16.92,0,0,1,0-15.62,13.38,13.38,0,0,1,5.26-5.29,15.14,15.14,0,0,1,7.51-1.88,13.81,13.81,0,0,1,6.63,1.57,12.18,12.18,0,0,1,4.73,4.48v-5.83Zm-9.27,24.78a10,10,0,0,0,3.92-4.06,12.25,12.25,0,0,0,1.43-6,12.08,12.08,0,0,0-1.43-6,10.28,10.28,0,0,0-3.92-4.06,10.82,10.82,0,0,0-5.57-1.46,11,11,0,0,0-5.63,1.46,10.42,10.42,0,0,0-3.92,4.06,12.19,12.19,0,0,0-1.42,6,12.36,12.36,0,0,0,1.42,6,10.16,10.16,0,0,0,3.92,4.06,11.07,11.07,0,0,0,5.63,1.43A10.9,10.9,0,0,0,1189.65,576.06Z" transform="translate(-183.36 -361)"/><path d="M1236.55,551.28v29.46h-3.8v-5.38a10.92,10.92,0,0,1-4.32,4.18,13.08,13.08,0,0,1-6.27,1.48q-5.76,0-9.1-3.22t-3.33-9.44V551.28h4V568q0,4.65,2.29,7.06a8.65,8.65,0,0,0,6.55,2.41,9.66,9.66,0,0,0,7.34-2.83q2.68-2.83,2.69-7.87V551.28Z" transform="translate(-183.36 -361)"/><path d="M1266.85,553.94c2.05,1.93,3.08,4.77,3.08,8.54v18.26h-3.81v-4.59a9.07,9.07,0,0,1-3.95,3.58A13.77,13.77,0,0,1,1256,581a12.09,12.09,0,0,1-7.84-2.35,8.09,8.09,0,0,1-.2-12.27q2.71-2.29,8.65-2.29H1266v-1.79a7.58,7.58,0,0,0-2.12-5.8c-1.42-1.33-3.5-2-6.22-2a15.73,15.73,0,0,0-5.38.93,13.51,13.51,0,0,0-4.42,2.54l-1.79-3a15.81,15.81,0,0,1,5.37-2.94,20.7,20.7,0,0,1,6.61-1Q1263.77,551.06,1266.85,553.94Zm-4.48,22.4a9.17,9.17,0,0,0,3.58-4.45v-4.81h-9.24q-7.56,0-7.56,5.26a4.83,4.83,0,0,0,2,4.06,8.94,8.94,0,0,0,5.49,1.48A10.47,10.47,0,0,0,1262.37,576.34Z" transform="translate(-183.36 -361)"/><path d="M1280.68,544a2.74,2.74,0,0,1-.84-2,2.68,2.68,0,0,1,.84-2,2.81,2.81,0,0,1,2.07-.84,2.89,2.89,0,0,1,2.08.81,2.6,2.6,0,0,1,.84,1.93,2.93,2.93,0,0,1-5,2.07Zm.06,7.28h4v29.46h-4Z" transform="translate(-183.36 -361)"/><path d="M1294.09,580.12a3,3,0,0,1-.86-2.18,2.92,2.92,0,0,1,.86-2.16,2.89,2.89,0,0,1,2.1-.86,3,3,0,0,1,2.13.86,2.88,2.88,0,0,1,.9,2.16,2.94,2.94,0,0,1-.9,2.18,2.91,2.91,0,0,1-2.13.9A2.81,2.81,0,0,1,1294.09,580.12Z" transform="translate(-183.36 -361)"/><path d="M259.84,645.67a18.94,18.94,0,0,1-7.39-7.14,20.85,20.85,0,0,1,0-20.38,18.94,18.94,0,0,1,7.39-7.14,22.66,22.66,0,0,1,21.06,0,19.06,19.06,0,0,1,7.36,7.14,20.76,20.76,0,0,1,0,20.44,19.06,19.06,0,0,1-7.36,7.14,22.74,22.74,0,0,1-21.06,0Zm19-3.19a15.18,15.18,0,0,0,5.88-5.83,17.29,17.29,0,0,0,0-16.63,15.22,15.22,0,0,0-5.88-5.82,17.91,17.91,0,0,0-16.83,0A15.29,15.29,0,0,0,256,620a17.08,17.08,0,0,0,0,16.63,15.24,15.24,0,0,0,5.93,5.83,17.91,17.91,0,0,0,16.83,0Z" transform="translate(-183.36 -361)"/><path d="M323.23,621.48q3.28,3.22,3.28,9.38v17.08h-4V631.25q0-4.59-2.29-7a8.65,8.65,0,0,0-6.55-2.41,10.1,10.1,0,0,0-7.54,2.83,10.72,10.72,0,0,0-2.77,7.81v15.46h-4V618.48h3.8v5.44a11.1,11.1,0,0,1,4.51-4.18,14.46,14.46,0,0,1,6.69-1.48A12,12,0,0,1,323.23,621.48Z" transform="translate(-183.36 -361)"/><path d="M360,619.77a14.15,14.15,0,0,1,6.86-1.51v3.86l-.95,0a9.41,9.41,0,0,0-7.28,2.85c-1.76,1.91-2.63,4.58-2.63,8v15h-4V618.48h3.81v5.77A9.61,9.61,0,0,1,360,619.77Z" transform="translate(-183.36 -361)"/><path d="M399.37,634.44H374.73a10.53,10.53,0,0,0,3.52,7.42,11.71,11.71,0,0,0,8.07,2.83,12.76,12.76,0,0,0,5-1,10.94,10.94,0,0,0,4-2.88l2.24,2.57a12.55,12.55,0,0,1-4.9,3.59,16.56,16.56,0,0,1-6.46,1.23,16.32,16.32,0,0,1-8-1.93,14,14,0,0,1-5.46-5.35,15.21,15.21,0,0,1-2-7.73,15.71,15.71,0,0,1,1.88-7.73,13.59,13.59,0,0,1,5.15-5.32,15.17,15.17,0,0,1,14.7,0,13.52,13.52,0,0,1,5.09,5.3,15.81,15.81,0,0,1,1.85,7.75ZM378,624.39a10.66,10.66,0,0,0-3.27,7.09h20.88a10.66,10.66,0,0,0-3.27-7.09,10.81,10.81,0,0,0-14.34,0Z" transform="translate(-183.36 -361)"/><path d="M423.05,646.15a7.58,7.58,0,0,1-2.77,1.54,11.3,11.3,0,0,1-3.44.53,8.66,8.66,0,0,1-6.39-2.24,8.56,8.56,0,0,1-2.24-6.33V621.84H403v-3.36h5.26V612h4v6.44h9v3.36h-9v17.59a5.59,5.59,0,0,0,1.31,4,5,5,0,0,0,3.79,1.37,7.38,7.38,0,0,0,2.38-.39,5.83,5.83,0,0,0,2-1.12Z" transform="translate(-183.36 -361)"/><path d="M438.26,619.77a14.12,14.12,0,0,1,6.86-1.51v3.86l-1,0a9.42,9.42,0,0,0-7.28,2.85q-2.62,2.87-2.63,8v15h-4V618.48h3.8v5.77A9.68,9.68,0,0,1,438.26,619.77Z" transform="translate(-183.36 -361)"/><path d="M456.37,646.29a14,14,0,0,1-5.37-5.35,16.22,16.22,0,0,1,0-15.46,13.87,13.87,0,0,1,5.37-5.32,16.45,16.45,0,0,1,15.35,0,13.72,13.72,0,0,1,5.34,5.32,16.37,16.37,0,0,1,0,15.46,13.87,13.87,0,0,1-5.34,5.35,16.23,16.23,0,0,1-15.35,0Zm13.3-3a9.89,9.89,0,0,0,3.89-4.06,13.51,13.51,0,0,0,0-12,9.89,9.89,0,0,0-3.89-4.06,11.78,11.78,0,0,0-11.25,0,10,10,0,0,0-3.92,4.06,13.26,13.26,0,0,0,0,12,10,10,0,0,0,3.92,4.06,11.78,11.78,0,0,0,11.25,0Z" transform="translate(-183.36 -361)"/><path d="M513.66,618.48v29.46h-3.81v-5.38a10.81,10.81,0,0,1-4.31,4.17,13,13,0,0,1-6.27,1.49q-5.77,0-9.1-3.22t-3.33-9.44V618.48h4v16.69q0,4.65,2.3,7.06a8.63,8.63,0,0,0,6.55,2.4,9.67,9.67,0,0,0,7.34-2.82q2.69-2.84,2.68-7.87V618.48Z" transform="translate(-183.36 -361)"/><path d="M549.56,618.48l-13.11,29.46h-4.09l-13-29.46h4.14l11,25.09,11.15-25.09Z" transform="translate(-183.36 -361)"/><path d="M580,634.44H555.32a10.54,10.54,0,0,0,3.53,7.42,11.71,11.71,0,0,0,8.07,2.83,12.83,12.83,0,0,0,5-1,10.94,10.94,0,0,0,4-2.88l2.24,2.57a12.62,12.62,0,0,1-4.9,3.59,16.61,16.61,0,0,1-6.47,1.23,16.31,16.31,0,0,1-8-1.93,13.84,13.84,0,0,1-5.46-5.35,15.21,15.21,0,0,1-2-7.73,15.82,15.82,0,0,1,1.87-7.73,13.61,13.61,0,0,1,5.16-5.32,15.17,15.17,0,0,1,14.7,0,13.52,13.52,0,0,1,5.09,5.3,15.92,15.92,0,0,1,1.85,7.75ZM558.6,624.39a10.67,10.67,0,0,0-3.28,7.09h20.89a10.66,10.66,0,0,0-3.27-7.09,10.12,10.12,0,0,0-7.2-2.72A10,10,0,0,0,558.6,624.39Z" transform="translate(-183.36 -361)"/><path d="M629.69,606.39v41.55h-3.81v-5.83a12.05,12.05,0,0,1-4.73,4.54,13.83,13.83,0,0,1-6.64,1.57,14.94,14.94,0,0,1-7.5-1.91,13.5,13.5,0,0,1-5.26-5.31,16.82,16.82,0,0,1,0-15.57,13.41,13.41,0,0,1,5.26-5.3,15.12,15.12,0,0,1,7.5-1.87,13.92,13.92,0,0,1,6.47,1.48,12.29,12.29,0,0,1,4.73,4.34V606.39Zm-9.27,36.87a10.09,10.09,0,0,0,3.92-4.06,13.26,13.26,0,0,0,0-12,10.09,10.09,0,0,0-3.92-4.06,11,11,0,0,0-5.57-1.43,11.14,11.14,0,0,0-5.63,1.43,10.09,10.09,0,0,0-3.92,4.06,13.26,13.26,0,0,0,0,12,10.09,10.09,0,0,0,3.92,4.06,11.14,11.14,0,0,0,5.63,1.43A11,11,0,0,0,620.42,643.26Z" transform="translate(-183.36 -361)"/><path d="M659.93,621.14c2.05,1.93,3.08,4.77,3.08,8.54v18.26H659.2v-4.59a9.07,9.07,0,0,1-4,3.58,13.77,13.77,0,0,1-6.18,1.29,12.09,12.09,0,0,1-7.84-2.35,8.09,8.09,0,0,1-.2-12.27q2.72-2.29,8.65-2.29H659v-1.79a7.58,7.58,0,0,0-2.12-5.8c-1.42-1.33-3.5-2-6.22-2a16,16,0,0,0-5.38.92,13.71,13.71,0,0,0-4.42,2.55l-1.79-3a16.16,16.16,0,0,1,5.37-2.94,21,21,0,0,1,6.61-1Q656.85,618.26,659.93,621.14Zm-4.48,22.4a9.17,9.17,0,0,0,3.58-4.45v-4.82h-9.24q-7.56,0-7.56,5.27a4.83,4.83,0,0,0,2,4.06,8.94,8.94,0,0,0,5.49,1.48A10.47,10.47,0,0,0,655.45,643.54Z" transform="translate(-183.36 -361)"/><path d="M697.65,621.48q3.27,3.22,3.27,9.38v17.08h-4V631.25q0-4.59-2.3-7a8.65,8.65,0,0,0-6.55-2.41,10.06,10.06,0,0,0-7.53,2.83,10.68,10.68,0,0,0-2.78,7.81v15.46h-4V618.48h3.81v5.44a11,11,0,0,1,4.5-4.18,14.47,14.47,0,0,1,6.7-1.48A12,12,0,0,1,697.65,621.48Z" transform="translate(-183.36 -361)"/><path d="M712.76,647.18a14.83,14.83,0,0,1-5.12-2.6l1.79-3.14a14.93,14.93,0,0,0,4.65,2.38,18.37,18.37,0,0,0,5.82.93q4,0,6-1.26a4,4,0,0,0,1.93-3.56,3.21,3.21,0,0,0-1.06-2.55,7.23,7.23,0,0,0-2.69-1.4,40.44,40.44,0,0,0-4.31-.92,51,51,0,0,1-5.77-1.37,8.52,8.52,0,0,1-3.73-2.38,6.65,6.65,0,0,1-1.54-4.65,7.29,7.29,0,0,1,3.08-6c2.06-1.57,4.91-2.35,8.57-2.35a21.92,21.92,0,0,1,5.71.76,15.6,15.6,0,0,1,4.71,2L729,624.19a14.93,14.93,0,0,0-8.68-2.52,10,10,0,0,0-5.74,1.35,4.11,4.11,0,0,0-1.93,3.53,3.45,3.45,0,0,0,1.09,2.68,6.71,6.71,0,0,0,2.72,1.49,43.66,43.66,0,0,0,4.48,1,51.13,51.13,0,0,1,5.65,1.34,8.31,8.31,0,0,1,3.64,2.3,6.32,6.32,0,0,1,1.52,4.48,7.13,7.13,0,0,1-3.22,6.13q-3.22,2.26-8.94,2.27A22.66,22.66,0,0,1,712.76,647.18Z" transform="translate(-183.36 -361)"/><path d="M753.78,606.39h4v41.55h-4Z" transform="translate(-183.36 -361)"/><path d="M794.5,634.44H769.86a10.53,10.53,0,0,0,3.52,7.42,11.71,11.71,0,0,0,8.07,2.83,12.76,12.76,0,0,0,5-1,10.94,10.94,0,0,0,4-2.88l2.24,2.57a12.55,12.55,0,0,1-4.9,3.59,16.56,16.56,0,0,1-6.46,1.23,16.32,16.32,0,0,1-8-1.93,14,14,0,0,1-5.46-5.35,15.21,15.21,0,0,1-2-7.73,15.71,15.71,0,0,1,1.88-7.73,13.59,13.59,0,0,1,5.15-5.32,15.17,15.17,0,0,1,14.7,0,13.52,13.52,0,0,1,5.09,5.3,15.81,15.81,0,0,1,1.85,7.75Zm-21.37-10.05a10.66,10.66,0,0,0-3.27,7.09h20.88a10.66,10.66,0,0,0-3.27-7.09,10.81,10.81,0,0,0-14.34,0Z" transform="translate(-183.36 -361)"/><path d="M817.34,606.39h4v41.55h-4Z" transform="translate(-183.36 -361)"/><path d="M836.77,646.29a14.15,14.15,0,0,1-5.37-5.35,16.22,16.22,0,0,1,0-15.46,14,14,0,0,1,5.37-5.32,16.45,16.45,0,0,1,15.35,0,13.75,13.75,0,0,1,5.35,5.32,16.45,16.45,0,0,1,0,15.46,13.89,13.89,0,0,1-5.35,5.35,16.23,16.23,0,0,1-15.35,0Zm13.3-3a9.92,9.92,0,0,0,3.9-4.06,13.51,13.51,0,0,0,0-12,9.92,9.92,0,0,0-3.9-4.06,11.78,11.78,0,0,0-11.25,0,10.09,10.09,0,0,0-3.92,4.06,13.26,13.26,0,0,0,0,12,10.09,10.09,0,0,0,3.92,4.06,11.78,11.78,0,0,0,11.25,0Z" transform="translate(-183.36 -361)"/><path d="M894.79,618.48v25.87q0,7.51-3.67,11.12t-11.06,3.61a24.75,24.75,0,0,1-7.75-1.2,15.88,15.88,0,0,1-6-3.33l2-3a15.1,15.1,0,0,0,5.18,3,19.29,19.29,0,0,0,6.41,1.07c3.73,0,6.48-.87,8.23-2.61s2.63-4.43,2.63-8.09v-3.75a12,12,0,0,1-4.84,4.25,15,15,0,0,1-6.64,1.46A15.7,15.7,0,0,1,871.8,645a13.39,13.39,0,0,1-5.32-5.1,15.17,15.17,0,0,1,0-14.81,13.43,13.43,0,0,1,5.29-5,15.86,15.86,0,0,1,7.56-1.79,14.92,14.92,0,0,1,6.78,1.51,12.14,12.14,0,0,1,4.87,4.37v-5.66Zm-9.3,23.44a9.89,9.89,0,0,0,4-3.84,11,11,0,0,0,1.43-5.6,10.84,10.84,0,0,0-1.43-5.57,10.07,10.07,0,0,0-4-3.81,12.9,12.9,0,0,0-11.53,0,9.72,9.72,0,0,0-4,3.8,11.68,11.68,0,0,0,0,11.2,9.94,9.94,0,0,0,4,3.84,12,12,0,0,0,5.74,1.37A12.1,12.1,0,0,0,885.49,641.92Z" transform="translate(-183.36 -361)"/><path d="M910.3,646.29a14,14,0,0,1-5.37-5.35,16.22,16.22,0,0,1,0-15.46,13.87,13.87,0,0,1,5.37-5.32,16.45,16.45,0,0,1,15.35,0,13.72,13.72,0,0,1,5.34,5.32,16.37,16.37,0,0,1,0,15.46,13.87,13.87,0,0,1-5.34,5.35,16.23,16.23,0,0,1-15.35,0Zm13.3-3a9.89,9.89,0,0,0,3.89-4.06,13.51,13.51,0,0,0,0-12,9.89,9.89,0,0,0-3.89-4.06,11.78,11.78,0,0,0-11.25,0,10,10,0,0,0-3.92,4.06,13.26,13.26,0,0,0,0,12,10,10,0,0,0,3.92,4.06,11.78,11.78,0,0,0,11.25,0Z" transform="translate(-183.36 -361)"/><path d="M955.72,606.39h4v41.55h-4Z" transform="translate(-183.36 -361)"/><path d="M996.43,634.44H971.79a10.5,10.5,0,0,0,3.53,7.42,11.68,11.68,0,0,0,8.06,2.83,12.76,12.76,0,0,0,5-1,11,11,0,0,0,4-2.88l2.24,2.57a12.62,12.62,0,0,1-4.9,3.59,16.61,16.61,0,0,1-6.47,1.23,16.38,16.38,0,0,1-8-1.93,14,14,0,0,1-5.46-5.35,15.31,15.31,0,0,1-2-7.73,15.82,15.82,0,0,1,1.88-7.73,13.66,13.66,0,0,1,5.15-5.32,14.4,14.4,0,0,1,7.37-1.9,14.2,14.2,0,0,1,7.33,1.9,13.48,13.48,0,0,1,5.1,5.3,15.92,15.92,0,0,1,1.85,7.75Zm-21.36-10.05a10.63,10.63,0,0,0-3.28,7.09h20.89a10.67,10.67,0,0,0-3.28-7.09,10.8,10.8,0,0,0-14.33,0Z" transform="translate(-183.36 -361)"/><path d="M1005.64,647.18a14.83,14.83,0,0,1-5.12-2.6l1.79-3.14a14.93,14.93,0,0,0,4.65,2.38,18.33,18.33,0,0,0,5.82.93q4,0,6-1.26a4,4,0,0,0,1.93-3.56,3.21,3.21,0,0,0-1.07-2.55,7.15,7.15,0,0,0-2.69-1.4,39.9,39.9,0,0,0-4.31-.92,50.78,50.78,0,0,1-5.76-1.37,8.52,8.52,0,0,1-3.73-2.38,6.61,6.61,0,0,1-1.54-4.65,7.29,7.29,0,0,1,3.08-6q3.08-2.36,8.57-2.35a22,22,0,0,1,5.71.76,15.71,15.71,0,0,1,4.71,2l-1.74,3.19a15,15,0,0,0-8.68-2.52,10,10,0,0,0-5.74,1.35,4.11,4.11,0,0,0-1.93,3.53,3.45,3.45,0,0,0,1.09,2.68,6.64,6.64,0,0,0,2.72,1.49,43.66,43.66,0,0,0,4.48,1,51.7,51.7,0,0,1,5.65,1.34,8.36,8.36,0,0,1,3.64,2.3,6.31,6.31,0,0,1,1.51,4.48,7.11,7.11,0,0,1-3.22,6.13q-3.21,2.26-8.93,2.27A22.66,22.66,0,0,1,1005.64,647.18Z" transform="translate(-183.36 -361)"/><path d="M1062.17,646.15a7.66,7.66,0,0,1-2.77,1.54,11.3,11.3,0,0,1-3.44.53,7.8,7.8,0,0,1-8.63-8.57V621.84h-5.26v-3.36h5.26V612h4v6.44h9v3.36h-9v17.59a5.59,5.59,0,0,0,1.31,4,5,5,0,0,0,3.78,1.37,7.29,7.29,0,0,0,2.38-.39,5.78,5.78,0,0,0,2-1.12Z" transform="translate(-183.36 -361)"/><path d="M1093.22,621.48q3.29,3.22,3.28,9.38v17.08h-4V631.25q0-4.59-2.29-7a8.65,8.65,0,0,0-6.55-2.41,10.1,10.1,0,0,0-7.54,2.83,10.72,10.72,0,0,0-2.77,7.81v15.46h-4V606.39h4v17.24a10.8,10.8,0,0,1,4.48-4,14.77,14.77,0,0,1,6.55-1.4A12,12,0,0,1,1093.22,621.48Z" transform="translate(-183.36 -361)"/><path d="M1133.07,634.44h-24.64a10.53,10.53,0,0,0,3.52,7.42,11.71,11.71,0,0,0,8.07,2.83,12.76,12.76,0,0,0,5-1,10.94,10.94,0,0,0,4-2.88l2.24,2.57a12.55,12.55,0,0,1-4.9,3.59,16.56,16.56,0,0,1-6.46,1.23,16.32,16.32,0,0,1-8-1.93,14,14,0,0,1-5.46-5.35,15.21,15.21,0,0,1-2-7.73,15.82,15.82,0,0,1,1.88-7.73,13.59,13.59,0,0,1,5.15-5.32,15.17,15.17,0,0,1,14.7,0,13.52,13.52,0,0,1,5.09,5.3,15.81,15.81,0,0,1,1.85,7.75Zm-21.37-10.05a10.66,10.66,0,0,0-3.27,7.09h20.88a10.66,10.66,0,0,0-3.27-7.09,10.81,10.81,0,0,0-14.34,0Z" transform="translate(-183.36 -361)"/><path d="M1186.69,621.45q3.15,3.19,3.16,9.41v17.08h-4V631.25c0-3.06-.73-5.39-2.21-7a8.05,8.05,0,0,0-6.24-2.41,9.43,9.43,0,0,0-7.23,2.83,11,11,0,0,0-2.63,7.81v15.46h-4V631.25q0-4.59-2.22-7a8.13,8.13,0,0,0-6.3-2.41,9.41,9.41,0,0,0-7.19,2.83c-1.78,1.89-2.66,4.49-2.66,7.81v15.46h-4V618.48h3.81v5.38a10.66,10.66,0,0,1,4.37-4.15,13.74,13.74,0,0,1,6.44-1.45,12.56,12.56,0,0,1,6.41,1.57,9.62,9.62,0,0,1,4.06,4.65,11.39,11.39,0,0,1,4.68-4.57,14.39,14.39,0,0,1,7-1.65C1181.67,618.26,1184.58,619.32,1186.69,621.45Z" transform="translate(-183.36 -361)"/><path d="M1226.42,634.44h-24.64a10.5,10.5,0,0,0,3.53,7.42,11.66,11.66,0,0,0,8.06,2.83,12.76,12.76,0,0,0,5-1,11,11,0,0,0,4-2.88l2.24,2.57a12.62,12.62,0,0,1-4.9,3.59,16.61,16.61,0,0,1-6.47,1.23,16.32,16.32,0,0,1-8-1.93,14,14,0,0,1-5.46-5.35,15.21,15.21,0,0,1-2-7.73,15.82,15.82,0,0,1,1.88-7.73,13.66,13.66,0,0,1,5.15-5.32,15.17,15.17,0,0,1,14.7,0,13.62,13.62,0,0,1,5.1,5.3,15.91,15.91,0,0,1,1.84,7.75Zm-21.37-10.05a10.66,10.66,0,0,0-3.27,7.09h20.89a10.72,10.72,0,0,0-3.28-7.09,10.81,10.81,0,0,0-14.34,0Z" transform="translate(-183.36 -361)"/><path d="M297.87,688.65q3.17,3.2,3.16,9.41v17.08h-4V698.45q0-4.59-2.22-7A8.05,8.05,0,0,0,288.6,689a9.39,9.39,0,0,0-7.22,2.83q-2.64,2.83-2.64,7.81v15.46h-4V698.45q0-4.59-2.21-7a8.16,8.16,0,0,0-6.3-2.41,9.42,9.42,0,0,0-7.2,2.83,11,11,0,0,0-2.66,7.81v15.46h-4V685.68h3.81v5.38a10.64,10.64,0,0,1,4.37-4.14,13.77,13.77,0,0,1,6.44-1.46,12.56,12.56,0,0,1,6.41,1.57,9.57,9.57,0,0,1,4.06,4.65,11.39,11.39,0,0,1,4.68-4.57,14.41,14.41,0,0,1,7-1.65Q294.71,685.46,297.87,688.65Z" transform="translate(-183.36 -361)"/><path d="M331,688.34c2.05,1.93,3.08,4.77,3.08,8.54v18.26h-3.81v-4.59a9.07,9.07,0,0,1-3.95,3.58,13.74,13.74,0,0,1-6.18,1.29,12.09,12.09,0,0,1-7.84-2.35,8.11,8.11,0,0,1-.2-12.27c1.81-1.53,4.7-2.29,8.65-2.29h9.35v-1.79a7.55,7.55,0,0,0-2.12-5.8q-2.13-2-6.22-2a15.63,15.63,0,0,0-5.37.93A13.45,13.45,0,0,0,312,692.4l-1.79-3a15.77,15.77,0,0,1,5.38-2.94,20.92,20.92,0,0,1,6.6-1Q327.92,685.46,331,688.34Zm-4.48,22.4a9.11,9.11,0,0,0,3.58-4.45v-4.81h-9.24q-7.56,0-7.56,5.26a4.83,4.83,0,0,0,2,4.06,8.94,8.94,0,0,0,5.49,1.48A10.44,10.44,0,0,0,326.51,710.74Z" transform="translate(-183.36 -361)"/><path d="M352.86,687a14.15,14.15,0,0,1,6.86-1.51v3.86l-1-.05a9.41,9.41,0,0,0-7.28,2.85q-2.64,2.86-2.64,8v15h-4V685.68h3.81v5.77A9.61,9.61,0,0,1,352.86,687Z" transform="translate(-183.36 -361)"/><path d="M366.83,678.4a2.74,2.74,0,0,1-.84-2,2.68,2.68,0,0,1,.84-2,2.81,2.81,0,0,1,2.07-.84,2.87,2.87,0,0,1,2.07.81,2.6,2.6,0,0,1,.84,1.93,2.93,2.93,0,0,1-5,2.07Zm.06,7.28h4v29.46h-4Z" transform="translate(-183.36 -361)"/><path d="M405.78,688.68q3.27,3.23,3.27,9.38v17.08h-4V698.45q0-4.59-2.3-7a8.64,8.64,0,0,0-6.55-2.41,10.09,10.09,0,0,0-7.53,2.83,10.68,10.68,0,0,0-2.77,7.81v15.46h-4V685.68h3.81v5.44a11,11,0,0,1,4.51-4.18,14.53,14.53,0,0,1,6.69-1.48A12,12,0,0,1,405.78,688.68Z" transform="translate(-183.36 -361)"/><path d="M460.18,701.64H435.54a10.48,10.48,0,0,0,3.53,7.42,11.68,11.68,0,0,0,8.06,2.83,12.59,12.59,0,0,0,5-1,11,11,0,0,0,4-2.88l2.24,2.57a12.62,12.62,0,0,1-4.9,3.59,16.61,16.61,0,0,1-6.47,1.23,16.38,16.38,0,0,1-8-1.93,14,14,0,0,1-5.46-5.35,15.31,15.31,0,0,1-2-7.73,15.82,15.82,0,0,1,1.88-7.73,13.66,13.66,0,0,1,5.15-5.32,14.4,14.4,0,0,1,7.37-1.9,14.2,14.2,0,0,1,7.33,1.9,13.48,13.48,0,0,1,5.1,5.3,15.94,15.94,0,0,1,1.85,7.75Zm-21.36-10a10.63,10.63,0,0,0-3.28,7.09h20.89a10.67,10.67,0,0,0-3.28-7.09,10.83,10.83,0,0,0-14.33,0Z" transform="translate(-183.36 -361)"/><path d="M483.87,713.35a7.66,7.66,0,0,1-2.77,1.54,11.36,11.36,0,0,1-3.45.53,8.64,8.64,0,0,1-6.38-2.24,8.52,8.52,0,0,1-2.24-6.33V689h-5.27v-3.36H469v-6.44h4v6.44h9V689h-9v17.59a5.54,5.54,0,0,0,1.32,4A5,5,0,0,0,478.1,712a7.38,7.38,0,0,0,2.38-.39,5.88,5.88,0,0,0,2-1.12Z" transform="translate(-183.36 -361)"/><path d="M532.64,673.59v41.55h-3.81v-5.82a12.1,12.1,0,0,1-4.73,4.53,13.81,13.81,0,0,1-6.63,1.57,15,15,0,0,1-7.51-1.9,13.66,13.66,0,0,1-5.26-5.32,16.82,16.82,0,0,1,0-15.57,13.38,13.38,0,0,1,5.26-5.29,15.14,15.14,0,0,1,7.51-1.88,14,14,0,0,1,6.46,1.48,12.32,12.32,0,0,1,4.74,4.34V673.59Zm-9.27,36.87a10,10,0,0,0,3.92-4.06,13.26,13.26,0,0,0,0-12,10.09,10.09,0,0,0-3.92-4.06,11,11,0,0,0-5.57-1.43,11.17,11.17,0,0,0-5.63,1.43,10.22,10.22,0,0,0-3.92,4.06,13.34,13.34,0,0,0,0,12,10.16,10.16,0,0,0,3.92,4.06,11.07,11.07,0,0,0,5.63,1.43A10.9,10.9,0,0,0,523.37,710.46Z" transform="translate(-183.36 -361)"/><path d="M569.38,701.64H544.74a10.48,10.48,0,0,0,3.53,7.42,11.66,11.66,0,0,0,8.06,2.83,12.59,12.59,0,0,0,5-1,11,11,0,0,0,4-2.88l2.24,2.57a12.62,12.62,0,0,1-4.9,3.59,16.61,16.61,0,0,1-6.47,1.23,16.35,16.35,0,0,1-8-1.93,14,14,0,0,1-5.46-5.35,15.31,15.31,0,0,1-2-7.73,15.82,15.82,0,0,1,1.88-7.73,13.66,13.66,0,0,1,5.15-5.32,15.17,15.17,0,0,1,14.7,0,13.55,13.55,0,0,1,5.1,5.3,15.94,15.94,0,0,1,1.84,7.75Zm-21.37-10a10.66,10.66,0,0,0-3.27,7.09h20.89a10.72,10.72,0,0,0-3.28-7.09,10.84,10.84,0,0,0-14.34,0Z" transform="translate(-183.36 -361)"/><path d="M592.23,673.59h4v41.55h-4Z" transform="translate(-183.36 -361)"/><path d="M626.44,688.34c2,1.93,3.08,4.77,3.08,8.54v18.26h-3.81v-4.59a9.1,9.1,0,0,1-3.94,3.58,13.82,13.82,0,0,1-6.19,1.29,12.09,12.09,0,0,1-7.84-2.35,8.11,8.11,0,0,1-.2-12.27c1.81-1.53,4.7-2.29,8.65-2.29h9.36v-1.79a7.56,7.56,0,0,0-2.13-5.8q-2.13-2-6.22-2a15.63,15.63,0,0,0-5.37.93,13.45,13.45,0,0,0-4.43,2.54l-1.79-3A15.77,15.77,0,0,1,611,686.5a20.92,20.92,0,0,1,6.6-1Q623.37,685.46,626.44,688.34ZM622,710.74a9.18,9.18,0,0,0,3.59-4.45v-4.81h-9.24q-7.56,0-7.56,5.26a4.81,4.81,0,0,0,2,4.06,8.88,8.88,0,0,0,5.48,1.48A10.44,10.44,0,0,0,622,710.74Z" transform="translate(-183.36 -361)"/><path d="M682.27,685.68v25.88q0,7.5-3.67,11.11t-11.06,3.61a24.75,24.75,0,0,1-7.75-1.2,15.83,15.83,0,0,1-6-3.33l2-3a15.19,15.19,0,0,0,5.18,3,19.34,19.34,0,0,0,6.41,1.07c3.74,0,6.48-.87,8.24-2.61s2.63-4.43,2.63-8.09v-3.75a12.06,12.06,0,0,1-4.85,4.25,14.83,14.83,0,0,1-6.63,1.46,15.64,15.64,0,0,1-7.53-1.82,13.42,13.42,0,0,1-5.33-5.1,15.17,15.17,0,0,1,0-14.81,13.46,13.46,0,0,1,5.3-5,15.86,15.86,0,0,1,7.56-1.79,14.87,14.87,0,0,1,6.77,1.51,12.22,12.22,0,0,1,4.87,4.37v-5.66ZM673,709.12a9.87,9.87,0,0,0,4-3.84,11,11,0,0,0,1.43-5.6,10.84,10.84,0,0,0-1.43-5.57,10.07,10.07,0,0,0-4-3.81,12.9,12.9,0,0,0-11.53,0,9.72,9.72,0,0,0-4,3.8,11.68,11.68,0,0,0,0,11.2,9.88,9.88,0,0,0,4,3.84,11.85,11.85,0,0,0,5.74,1.37A12,12,0,0,0,673,709.12Z" transform="translate(-183.36 -361)"/><path d="M701.4,687a14.12,14.12,0,0,1,6.86-1.51v3.86l-1-.05a9.44,9.44,0,0,0-7.28,2.85q-2.62,2.86-2.63,8v15h-4V685.68h3.8v5.77A9.68,9.68,0,0,1,701.4,687Z" transform="translate(-183.36 -361)"/><path d="M715.37,678.4a2.74,2.74,0,0,1-.84-2,2.68,2.68,0,0,1,.84-2,2.81,2.81,0,0,1,2.07-.84,2.87,2.87,0,0,1,2.07.81,2.6,2.6,0,0,1,.84,1.93,2.93,2.93,0,0,1-5,2.07Zm0,7.28h4v29.46h-4Z" transform="translate(-183.36 -361)"/><path d="M730.49,673.59h4v41.55h-4Z" transform="translate(-183.36 -361)"/><path d="M745.55,673.59h4v41.55h-4Z" transform="translate(-183.36 -361)"/><path d="M779.77,688.34c2.05,1.93,3.08,4.77,3.08,8.54v18.26H779v-4.59a9.13,9.13,0,0,1-3.95,3.58,13.79,13.79,0,0,1-6.19,1.29,12.11,12.11,0,0,1-7.84-2.35,8.1,8.1,0,0,1-.19-12.27q2.71-2.29,8.65-2.29h9.35v-1.79a7.56,7.56,0,0,0-2.13-5.8q-2.13-2-6.21-2a15.73,15.73,0,0,0-5.38.93,13.41,13.41,0,0,0-4.42,2.54l-1.79-3a15.81,15.81,0,0,1,5.37-2.94,20.94,20.94,0,0,1,6.61-1Q776.68,685.46,779.77,688.34Zm-4.48,22.4a9.17,9.17,0,0,0,3.58-4.45v-4.81h-9.24q-7.56,0-7.56,5.26a4.81,4.81,0,0,0,2,4.06,8.94,8.94,0,0,0,5.49,1.48A10.47,10.47,0,0,0,775.29,710.74Z" transform="translate(-183.36 -361)"/><path d="M820.65,673.59v41.55h-3.81v-5.82a12.16,12.16,0,0,1-4.73,4.53,13.83,13.83,0,0,1-6.64,1.57,14.93,14.93,0,0,1-7.5-1.9,13.68,13.68,0,0,1-5.27-5.32,16.9,16.9,0,0,1,0-15.57,13.41,13.41,0,0,1,5.27-5.29,15.13,15.13,0,0,1,7.5-1.88,14,14,0,0,1,6.47,1.48,12.29,12.29,0,0,1,4.73,4.34V673.59Zm-9.27,36.87a10.09,10.09,0,0,0,3.92-4.06,13.26,13.26,0,0,0,0-12,10.15,10.15,0,0,0-3.92-4.06,11,11,0,0,0-5.57-1.43,11.14,11.14,0,0,0-5.63,1.43,10.15,10.15,0,0,0-3.92,4.06,13.26,13.26,0,0,0,0,12,10.09,10.09,0,0,0,3.92,4.06,11,11,0,0,0,5.63,1.43A10.92,10.92,0,0,0,811.38,710.46Z" transform="translate(-183.36 -361)"/><path d="M857.38,701.64H832.74a10.52,10.52,0,0,0,3.53,7.42,11.71,11.71,0,0,0,8.07,2.83,12.66,12.66,0,0,0,5-1,10.94,10.94,0,0,0,4-2.88l2.24,2.57a12.62,12.62,0,0,1-4.9,3.59,16.58,16.58,0,0,1-6.47,1.23,16.31,16.31,0,0,1-8-1.93,13.84,13.84,0,0,1-5.46-5.35,15.21,15.21,0,0,1-2-7.73,15.82,15.82,0,0,1,1.87-7.73,13.61,13.61,0,0,1,5.16-5.32,15.17,15.17,0,0,1,14.7,0,13.52,13.52,0,0,1,5.09,5.3,15.94,15.94,0,0,1,1.85,7.75Zm-21.36-10a10.67,10.67,0,0,0-3.28,7.09h20.89a10.66,10.66,0,0,0-3.27-7.09,10.12,10.12,0,0,0-7.2-2.71A10,10,0,0,0,836,691.59Z" transform="translate(-183.36 -361)"/><rect class="cls-2" x="63.52" y="959.37" width="98.89" height="98.89"/><rect class="cls-3" x="63.52" y="1089.49" width="98.89" height="98.89"/><path d="M408.62,1361l-1.32,10.71h7.24v2.81h-7.6l-1.17,9.69H403l1.18-9.69H393.73l-1.22,9.69h-2.76l1.18-9.69h-7.25v-2.81h7.6l1.33-10.71h-7.29v-2.8H393l1.17-9.69h2.8l-1.22,9.69h10.51l1.17-9.69h2.75l-1.17,9.69h7.19v2.8Zm-2.75,0H395.41L394,1371.74h10.5Z" transform="translate(-183.36 -361)"/><path d="M446.11,1372H423.67a9.57,9.57,0,0,0,3.21,6.76,10.7,10.7,0,0,0,7.34,2.57,11.63,11.63,0,0,0,4.59-.89,10,10,0,0,0,3.63-2.63l2,2.35a11.37,11.37,0,0,1-4.47,3.26,15,15,0,0,1-5.89,1.12,14.85,14.85,0,0,1-7.32-1.76,12.65,12.65,0,0,1-5-4.87,13.86,13.86,0,0,1-1.78-7,14.36,14.36,0,0,1,1.71-7,12.3,12.3,0,0,1,4.69-4.85,13.14,13.14,0,0,1,6.7-1.73,13,13,0,0,1,6.68,1.73,12.39,12.39,0,0,1,4.65,4.82,14.54,14.54,0,0,1,1.68,7.07Zm-19.46-9.16a9.73,9.73,0,0,0-3,6.46h19a9.73,9.73,0,0,0-3-6.46,9.87,9.87,0,0,0-13.06,0Z" transform="translate(-183.36 -361)"/><path d="M470.82,1366.87a9.29,9.29,0,0,1,2.93,7.12,10,10,0,0,1-1.48,5.43,10.13,10.13,0,0,1-4.39,3.75,16.41,16.41,0,0,1-7.08,1.37,21.31,21.31,0,0,1-7.32-1.24,15,15,0,0,1-5.54-3.34l1.79-2.91a13.1,13.1,0,0,0,4.74,3,17.23,17.23,0,0,0,6.33,1.15,10.67,10.67,0,0,0,6.78-1.91A6.39,6.39,0,0,0,470,1374a6.24,6.24,0,0,0-2.4-5.2q-2.4-1.89-7.24-1.89h-2.55v-2.7l9.89-12.4H449.42v-3.26h22.95v2.6l-10.1,12.7C466,1364,468.86,1365.06,470.82,1366.87Z" transform="translate(-183.36 -361)"/><path d="M499.94,1364.2a10.15,10.15,0,0,1,4.26,3.74,10.36,10.36,0,0,1,1.53,5.64,10.55,10.55,0,0,1-1.58,5.76,10.42,10.42,0,0,1-4.37,3.85,14.08,14.08,0,0,1-6.24,1.35q-7.1,0-10.87-4.66t-3.77-13.18a22.64,22.64,0,0,1,2-10.1,14.24,14.24,0,0,1,5.71-6.25,16.89,16.89,0,0,1,8.57-2.12,16.12,16.12,0,0,1,8.47,1.94l-1.48,3a12.5,12.5,0,0,0-6.94-1.68q-5.91,0-9.28,3.74t-3.37,10.89c0,.85.05,1.82.16,2.91a9.57,9.57,0,0,1,4.23-4.51,13.59,13.59,0,0,1,6.68-1.61A14,14,0,0,1,499.94,1364.2Zm-.26,15.12a7.75,7.75,0,0,0,0-11.25,9.7,9.7,0,0,0-6.55-2.09,10.66,10.66,0,0,0-4.77,1,8,8,0,0,0-3.24,2.81,7.08,7.08,0,0,0-1.17,4,6.88,6.88,0,0,0,1.1,3.78,7.9,7.9,0,0,0,3.23,2.8,11.22,11.22,0,0,0,5.1,1.07A9.21,9.21,0,0,0,499.68,1379.32Z" transform="translate(-183.36 -361)"/><path d="M529.8,1359.84q2.81,2.63,2.8,7.77v16.63h-3.47v-4.18a8.26,8.26,0,0,1-3.59,3.26,12.62,12.62,0,0,1-5.64,1.17,11,11,0,0,1-7.14-2.14,7.37,7.37,0,0,1-.18-11.17q2.48-2.09,7.88-2.09H529v-1.63a6.86,6.86,0,0,0-1.94-5.28,8,8,0,0,0-5.66-1.81,14.36,14.36,0,0,0-4.89.84,12.35,12.35,0,0,0-4,2.32l-1.63-2.7a14.43,14.43,0,0,1,4.89-2.68,19.06,19.06,0,0,1,6-.94C525.24,1357.21,527.93,1358.08,529.8,1359.84Zm-4.08,20.4a8.38,8.38,0,0,0,3.26-4.06v-4.39h-8.41q-6.89,0-6.89,4.8a4.4,4.4,0,0,0,1.79,3.7,8.11,8.11,0,0,0,5,1.35A9.6,9.6,0,0,0,525.72,1380.24Z" transform="translate(-183.36 -361)"/><path d="M565.68,1368.89a8.36,8.36,0,0,1,1.81,5.4,9,9,0,0,1-1.69,5.44,10.66,10.66,0,0,1-4.82,3.57,19.89,19.89,0,0,1-7.37,1.24q-6.42,0-10.09-2.75a8.86,8.86,0,0,1-3.68-7.5,8.49,8.49,0,0,1,1.76-5.43,10.68,10.68,0,0,1,5.13-3.34,8.86,8.86,0,0,1-4.18-3.08,8.08,8.08,0,0,1-1.43-4.77,8.18,8.18,0,0,1,3.39-6.89c2.26-1.7,5.3-2.55,9.1-2.55a17.62,17.62,0,0,1,6.61,1.15,10,10,0,0,1,4.41,3.29,8.21,8.21,0,0,1,1.58,5,7.84,7.84,0,0,1-1.48,4.77,9.16,9.16,0,0,1-4.23,3.08A10.89,10.89,0,0,1,565.68,1368.89ZM561,1379.5a6.18,6.18,0,0,0,2.67-5.26A6.07,6.07,0,0,0,561,1369a12.57,12.57,0,0,0-7.43-1.92,12.42,12.42,0,0,0-7.36,1.92,6.06,6.06,0,0,0-2.68,5.22,6.13,6.13,0,0,0,2.65,5.28c1.77,1.28,4.23,1.91,7.39,1.91A12.5,12.5,0,0,0,561,1379.5Zm-13.9-17a10.65,10.65,0,0,0,6.47,1.74,10.8,10.8,0,0,0,6.51-1.74,5.45,5.45,0,0,0,2.37-4.64,5.53,5.53,0,0,0-2.42-4.74,10.86,10.86,0,0,0-6.46-1.74,10.69,10.69,0,0,0-6.45,1.74,5.84,5.84,0,0,0,0,9.38Z" transform="translate(-183.36 -361)"/><path d="M594.57,1352.9q3.76,4.66,3.77,13.18a22.64,22.64,0,0,1-2,10.1,14.24,14.24,0,0,1-5.71,6.25,16.88,16.88,0,0,1-8.57,2.11,16.12,16.12,0,0,1-8.47-1.93l1.48-3a12.48,12.48,0,0,0,6.94,1.68q5.91,0,9.28-3.75t3.37-10.88a28,28,0,0,0-.16-2.91,9.57,9.57,0,0,1-4.23,4.51,13.59,13.59,0,0,1-6.68,1.61,14,14,0,0,1-6.25-1.33,10.11,10.11,0,0,1-4.26-3.75,10.3,10.3,0,0,1-1.53-5.63,10.37,10.37,0,0,1,6-9.62,14.08,14.08,0,0,1,6.24-1.35Q590.79,1348.23,594.57,1352.9Zm-5.69,12.88a8,8,0,0,0,3.24-2.81,7.09,7.09,0,0,0,1.17-4,6.93,6.93,0,0,0-1.09-3.77,7.92,7.92,0,0,0-3.24-2.8,11.22,11.22,0,0,0-5.1-1.08,9.22,9.22,0,0,0-6.3,2.12,7.75,7.75,0,0,0,0,11.25,9.7,9.7,0,0,0,6.55,2.09A10.66,10.66,0,0,0,588.88,1365.78Z" transform="translate(-183.36 -361)"/><path d="M406,1483.35l-1.33,10.71h7.25v2.8h-7.6l-1.18,9.69h-2.75l1.17-9.69H391.13l-1.23,9.69h-2.75l1.17-9.69h-7.24v-2.8h7.6l1.33-10.71h-7.3v-2.81h7.65l1.18-9.69h2.8l-1.22,9.69h10.5l1.18-9.69h2.75l-1.17,9.69h7.19v2.81Zm-2.75,0H392.81l-1.38,10.71h10.51Z" transform="translate(-183.36 -361)"/><path d="M443.51,1494.26H421.07a9.57,9.57,0,0,0,3.21,6.76,10.64,10.64,0,0,0,7.34,2.57,11.46,11.46,0,0,0,4.59-.89,10,10,0,0,0,3.62-2.62l2,2.34a11.46,11.46,0,0,1-4.46,3.27,15.22,15.22,0,0,1-5.89,1.12,15,15,0,0,1-7.32-1.76,12.72,12.72,0,0,1-5-4.87,13.91,13.91,0,0,1-1.79-7,14.39,14.39,0,0,1,1.71-7,12.36,12.36,0,0,1,4.7-4.84,13.73,13.73,0,0,1,13.38,0,12.23,12.23,0,0,1,4.64,4.82,14.4,14.4,0,0,1,1.69,7.06Zm-19.46-9.15a9.68,9.68,0,0,0-3,6.45h19a9.69,9.69,0,0,0-3-6.45,9.82,9.82,0,0,0-13.05,0Z" transform="translate(-183.36 -361)"/><path d="M456.28,1472.79a5.32,5.32,0,0,0-1.2,3.77v3.17h8.26v3.06h-8.16v23.76h-3.62v-23.76h-4.79v-3.06h4.79v-3.32a7.91,7.91,0,0,1,2.12-5.81,8,8,0,0,1,6-2.14,10.09,10.09,0,0,1,3,.43,6.83,6.83,0,0,1,2.4,1.25l-1.23,2.7a6,6,0,0,0-4-1.32A4.63,4.63,0,0,0,456.28,1472.79Z" transform="translate(-183.36 -361)"/><path d="M488.89,1481.23a12.29,12.29,0,0,1,4.8,4.82,15.39,15.39,0,0,1,0,14.18,12.41,12.41,0,0,1-4.8,4.84,13.55,13.55,0,0,1-6.83,1.74,12.65,12.65,0,0,1-6-1.43,11,11,0,0,1-4.31-4.13v5.3h-3.47v-37.84h3.62v16.12a11.2,11.2,0,0,1,4.31-4,12.68,12.68,0,0,1,5.89-1.35A13.74,13.74,0,0,1,488.89,1481.23Zm-2,21.06a9.12,9.12,0,0,0,3.59-3.69,12.12,12.12,0,0,0,0-10.92,9.12,9.12,0,0,0-3.59-3.69,10.64,10.64,0,0,0-10.23,0,9.2,9.2,0,0,0-3.57,3.69,12.12,12.12,0,0,0,0,10.92,9.2,9.2,0,0,0,3.57,3.69,10.71,10.71,0,0,0,10.23,0Z" transform="translate(-183.36 -361)"/><path d="M526.05,1491.2a8.39,8.39,0,0,1,1.81,5.41,9,9,0,0,1-1.68,5.43,10.63,10.63,0,0,1-4.82,3.57,20,20,0,0,1-7.37,1.25q-6.44,0-10.1-2.76a8.85,8.85,0,0,1-3.67-7.49,8.43,8.43,0,0,1,1.76-5.43,10.53,10.53,0,0,1,5.12-3.34,9,9,0,0,1-4.18-3.09,8,8,0,0,1-1.43-4.77,8.16,8.16,0,0,1,3.39-6.88q3.39-2.55,9.11-2.55a17.61,17.61,0,0,1,6.6,1.14A10,10,0,0,1,525,1475a8.17,8.17,0,0,1,1.58,5,7.8,7.8,0,0,1-1.48,4.77,9.24,9.24,0,0,1-4.23,3.09A10.82,10.82,0,0,1,526.05,1491.2Zm-4.64,10.61a6.48,6.48,0,0,0,0-10.48,12.56,12.56,0,0,0-7.42-1.91,12.43,12.43,0,0,0-7.37,1.91,6.5,6.5,0,0,0,0,10.5c1.77,1.28,4.23,1.92,7.4,1.92A12.48,12.48,0,0,0,521.41,1501.81Zm-13.9-17a10.73,10.73,0,0,0,6.48,1.73,10.86,10.86,0,0,0,6.5-1.73,5.48,5.48,0,0,0,2.37-4.65,5.54,5.54,0,0,0-2.42-4.74,10.92,10.92,0,0,0-6.45-1.73,10.81,10.81,0,0,0-6.46,1.73,5.85,5.85,0,0,0,0,9.39Z" transform="translate(-183.36 -361)"/><path d="M553.64,1488.27a9.32,9.32,0,0,1,3.54,7.78,10.7,10.7,0,0,1-1.45,5.56,9.93,9.93,0,0,1-4.36,3.85,16.43,16.43,0,0,1-7.14,1.4,21.24,21.24,0,0,1-7.27-1.25,14.86,14.86,0,0,1-5.53-3.34l1.78-2.91a13.24,13.24,0,0,0,4.69,3,17.05,17.05,0,0,0,6.28,1.14c3,0,5.24-.66,6.86-2a6.51,6.51,0,0,0,2.42-5.3,6.33,6.33,0,0,0-2.73-5.56q-2.73-1.89-9.2-1.89h-7.6l1.83-17.9H555.3v3.27H539l-1.23,11.37h4.59Q550.1,1485.49,553.64,1488.27Z" transform="translate(-183.36 -361)"/><path d="M258.28,865.68H244.5V862.1h31.7v3.58H262.42V901.3h-4.14Z" transform="translate(-183.36 -361)"/><path d="M304.81,871.84l-14.73,33a14.05,14.05,0,0,1-4.14,5.88,9.3,9.3,0,0,1-5.66,1.73,11.49,11.49,0,0,1-4-.67,8.56,8.56,0,0,1-3.19-2l1.84-3a7.37,7.37,0,0,0,5.38,2.24,5.44,5.44,0,0,0,3.44-1.12,10.11,10.11,0,0,0,2.66-3.81l1.29-2.86-13.16-29.4h4.15l11.08,25,11.09-25Z" transform="translate(-183.36 -361)"/><path d="M333.09,873.49a13.5,13.5,0,0,1,5.27,5.3,17,17,0,0,1,0,15.62,13.46,13.46,0,0,1-5.24,5.29,15.08,15.08,0,0,1-7.53,1.88,13.92,13.92,0,0,1-6.47-1.49,12.22,12.22,0,0,1-4.73-4.34v16.41h-4V871.84h3.81v5.83a12.18,12.18,0,0,1,4.73-4.48,13.83,13.83,0,0,1,6.64-1.57A15.12,15.12,0,0,1,333.09,873.49Zm-2.18,23.13a10.1,10.1,0,0,0,3.95-4.06,12.36,12.36,0,0,0,1.42-6,12.19,12.19,0,0,0-1.42-6,10.35,10.35,0,0,0-3.95-4.06,11.53,11.53,0,0,0-11.23,0,10.35,10.35,0,0,0-3.92,4.06,12.19,12.19,0,0,0-1.43,6,12.36,12.36,0,0,0,1.43,6,10.09,10.09,0,0,0,3.92,4.06,11.74,11.74,0,0,0,11.23,0Z" transform="translate(-183.36 -361)"/><path d="M352.75,899.65a14.11,14.11,0,0,1-5.38-5.35,16.22,16.22,0,0,1,0-15.46,13.89,13.89,0,0,1,5.38-5.32,16.43,16.43,0,0,1,15.34,0,13.68,13.68,0,0,1,5.35,5.32,16.45,16.45,0,0,1,0,15.46,13.89,13.89,0,0,1-5.35,5.35,16.21,16.21,0,0,1-15.34,0Zm13.3-3a9.89,9.89,0,0,0,3.89-4.06,13.51,13.51,0,0,0,0-12,9.89,9.89,0,0,0-3.89-4.06,11.8,11.8,0,0,0-11.26,0,10.09,10.09,0,0,0-3.92,4.06,13.26,13.26,0,0,0,0,12,10.09,10.09,0,0,0,3.92,4.06,11.8,11.8,0,0,0,11.26,0Z" transform="translate(-183.36 -361)"/><path d="M410.76,871.84v25.87q0,7.51-3.66,11.12T396,912.44a24.77,24.77,0,0,1-7.76-1.2,16.11,16.11,0,0,1-6-3.33l2-3a15.19,15.19,0,0,0,5.18,3,19.33,19.33,0,0,0,6.41,1.06c3.74,0,6.48-.86,8.24-2.6s2.63-4.43,2.63-8.09v-3.75a12,12,0,0,1-4.85,4.25,15,15,0,0,1-6.63,1.46,15.64,15.64,0,0,1-7.53-1.82,13.33,13.33,0,0,1-5.32-5.1,15.1,15.1,0,0,1,0-14.81,13.3,13.3,0,0,1,5.29-5,15.86,15.86,0,0,1,7.56-1.79,14.87,14.87,0,0,1,6.77,1.51A12.24,12.24,0,0,1,407,877.5v-5.66Zm-9.29,23.44a10,10,0,0,0,4-3.84,11,11,0,0,0,1.43-5.6,10.82,10.82,0,0,0-1.43-5.57,10.11,10.11,0,0,0-4-3.81,13,13,0,0,0-11.54,0,9.87,9.87,0,0,0-4,3.81,11.75,11.75,0,0,0,0,11.2,10.07,10.07,0,0,0,4,3.84,12,12,0,0,0,5.74,1.37A12.14,12.14,0,0,0,401.47,895.28Z" transform="translate(-183.36 -361)"/><path d="M429.89,873.13a14.15,14.15,0,0,1,6.86-1.51v3.86l-.95-.05a9.41,9.41,0,0,0-7.28,2.85q-2.64,2.87-2.64,8v15h-4V871.84h3.81v5.77A9.61,9.61,0,0,1,429.89,873.13Z" transform="translate(-183.36 -361)"/><path d="M463,874.5c2.05,1.93,3.08,4.77,3.08,8.54V901.3h-3.81v-4.59a9.07,9.07,0,0,1-3.95,3.58,13.74,13.74,0,0,1-6.18,1.29,12.15,12.15,0,0,1-7.84-2.35,8.11,8.11,0,0,1-.2-12.27c1.81-1.53,4.7-2.29,8.65-2.29h9.35v-1.8a7.53,7.53,0,0,0-2.12-5.79q-2.13-2-6.22-2a15.87,15.87,0,0,0-5.37.92,13.65,13.65,0,0,0-4.43,2.55l-1.79-3a16.11,16.11,0,0,1,5.38-2.94,20.91,20.91,0,0,1,6.6-1Q459.93,871.62,463,874.5Zm-4.48,22.4a9.11,9.11,0,0,0,3.58-4.45v-4.82h-9.23q-7.58,0-7.57,5.27a4.83,4.83,0,0,0,2,4.06,8.94,8.94,0,0,0,5.49,1.48A10.44,10.44,0,0,0,458.53,896.9Z" transform="translate(-183.36 -361)"/><path d="M499.58,873.49a13.47,13.47,0,0,1,5.26,5.3,16.92,16.92,0,0,1,0,15.62,13.44,13.44,0,0,1-5.23,5.29,15.15,15.15,0,0,1-7.54,1.88,13.91,13.91,0,0,1-6.46-1.49,12.24,12.24,0,0,1-4.74-4.34v16.41h-4V871.84h3.81v5.83a12.18,12.18,0,0,1,4.73-4.48,13.81,13.81,0,0,1,6.63-1.57A15.13,15.13,0,0,1,499.58,873.49Zm-2.19,23.13a10,10,0,0,0,3.95-4.06,12.36,12.36,0,0,0,1.43-6,12.19,12.19,0,0,0-1.43-6,10.29,10.29,0,0,0-3.95-4.06,11.51,11.51,0,0,0-11.22,0,10.28,10.28,0,0,0-3.92,4.06,12.08,12.08,0,0,0-1.43,6,12.25,12.25,0,0,0,1.43,6,10,10,0,0,0,3.92,4.06,11.72,11.72,0,0,0,11.22,0Z" transform="translate(-183.36 -361)"/><path d="M538.69,874.84q3.28,3.21,3.28,9.38V901.3h-4V884.61q0-4.59-2.29-7a8.61,8.61,0,0,0-6.55-2.41,10.1,10.1,0,0,0-7.54,2.83,10.72,10.72,0,0,0-2.77,7.81V901.3h-4V859.75h4V877a10.8,10.8,0,0,1,4.48-4,14.63,14.63,0,0,1,6.55-1.4A12,12,0,0,1,538.69,874.84Z" transform="translate(-183.36 -361)"/><path d="M552.72,864.56a2.74,2.74,0,0,1-.84-2,2.68,2.68,0,0,1,.84-2,2.81,2.81,0,0,1,2.07-.84,2.89,2.89,0,0,1,2.08.81,2.58,2.58,0,0,1,.84,1.93,2.93,2.93,0,0,1-5,2.07Zm.06,7.28h4V901.3h-4Z" transform="translate(-183.36 -361)"/><path d="M593.49,887.8H568.85a10.5,10.5,0,0,0,3.53,7.42,11.68,11.68,0,0,0,8.06,2.83,12.76,12.76,0,0,0,5-1,11,11,0,0,0,4-2.88l2.24,2.57a12.72,12.72,0,0,1-4.9,3.59,17.68,17.68,0,0,1-14.51-.7,14,14,0,0,1-5.46-5.35,15.31,15.31,0,0,1-2-7.73,15.82,15.82,0,0,1,1.88-7.73,13.59,13.59,0,0,1,5.15-5.32,14.4,14.4,0,0,1,7.37-1.9,14.2,14.2,0,0,1,7.33,1.9,13.52,13.52,0,0,1,5.1,5.29,16,16,0,0,1,1.85,7.76Zm-21.36-10a10.63,10.63,0,0,0-3.28,7.08h20.89a10.67,10.67,0,0,0-3.28-7.08,10.8,10.8,0,0,0-14.33,0Z" transform="translate(-183.36 -361)"/><path d="M614.63,876.83a3,3,0,0,1-.87-2.19,2.89,2.89,0,0,1,.87-2.15,2.86,2.86,0,0,1,2.1-.87,3,3,0,0,1,2.13.87,2.87,2.87,0,0,1,.89,2.15,3,3,0,0,1-.89,2.19,2.94,2.94,0,0,1-2.13.89A2.84,2.84,0,0,1,614.63,876.83Zm0,23.85a3,3,0,0,1-.87-2.18,2.93,2.93,0,0,1,.87-2.16,2.86,2.86,0,0,1,2.1-.87,3,3,0,0,1,2.13.87,2.91,2.91,0,0,1,.89,2.16,3,3,0,0,1-.89,2.18,2.91,2.91,0,0,1-2.13.9A2.81,2.81,0,0,1,614.63,900.68Z" transform="translate(-183.36 -361)"/><path d="M684.43,862.1v39.2h-4V869.94l-15.4,26.37h-2l-15.4-26.2V901.3h-4V862.1h3.41l17,29.06L681,862.1Z" transform="translate(-183.36 -361)"/><path d="M700.73,899.65a14.11,14.11,0,0,1-5.38-5.35,16.22,16.22,0,0,1,0-15.46,13.89,13.89,0,0,1,5.38-5.32,16.43,16.43,0,0,1,15.34,0,13.68,13.68,0,0,1,5.35,5.32,16.45,16.45,0,0,1,0,15.46,13.89,13.89,0,0,1-5.35,5.35,16.21,16.21,0,0,1-15.34,0Zm13.3-3a10,10,0,0,0,3.89-4.06,13.51,13.51,0,0,0,0-12,10,10,0,0,0-3.89-4.06,11.8,11.8,0,0,0-11.26,0,10.09,10.09,0,0,0-3.92,4.06,13.26,13.26,0,0,0,0,12,10.09,10.09,0,0,0,3.92,4.06,11.8,11.8,0,0,0,11.26,0Z" transform="translate(-183.36 -361)"/><path d="M755.3,874.84q3.27,3.21,3.27,9.38V901.3h-4V884.61q0-4.59-2.3-7a8.6,8.6,0,0,0-6.55-2.41,10.09,10.09,0,0,0-7.53,2.83,10.68,10.68,0,0,0-2.77,7.81V901.3h-4V871.84h3.81v5.43a11,11,0,0,1,4.51-4.17,14.4,14.4,0,0,1,6.69-1.48A12,12,0,0,1,755.3,874.84Z" transform="translate(-183.36 -361)"/><path d="M770.42,900.54a14.89,14.89,0,0,1-5.13-2.6l1.8-3.14a15,15,0,0,0,4.64,2.38,18.39,18.39,0,0,0,5.83.93c2.69,0,4.67-.42,6-1.26a4,4,0,0,0,1.93-3.56,3.21,3.21,0,0,0-1.06-2.55,7.23,7.23,0,0,0-2.69-1.4,38.09,38.09,0,0,0-4.31-.92,51.57,51.57,0,0,1-5.77-1.37,8.49,8.49,0,0,1-3.72-2.38,6.61,6.61,0,0,1-1.54-4.65,7.27,7.27,0,0,1,3.08-6q3.07-2.36,8.57-2.35a22.45,22.45,0,0,1,5.71.75,15.9,15.9,0,0,1,4.7,2l-1.73,3.19A14.88,14.88,0,0,0,778,875a10,10,0,0,0-5.74,1.35,4.11,4.11,0,0,0-1.94,3.53,3.46,3.46,0,0,0,1.1,2.68,6.6,6.6,0,0,0,2.71,1.49,44.28,44.28,0,0,0,4.48,1,52,52,0,0,1,5.66,1.34,8.36,8.36,0,0,1,3.64,2.3,6.29,6.29,0,0,1,1.51,4.48,7.12,7.12,0,0,1-3.22,6.13c-2.15,1.51-5.12,2.27-8.93,2.27A22.62,22.62,0,0,1,770.42,900.54Z" transform="translate(-183.36 -361)"/><path d="M822.41,887.8H797.77a10.54,10.54,0,0,0,3.53,7.42,11.71,11.71,0,0,0,8.07,2.83,12.83,12.83,0,0,0,5-1,10.94,10.94,0,0,0,4-2.88l2.24,2.57a12.72,12.72,0,0,1-4.9,3.59,16.61,16.61,0,0,1-6.47,1.23,16.42,16.42,0,0,1-8-1.93,13.84,13.84,0,0,1-5.46-5.35,15.21,15.21,0,0,1-2-7.73,15.82,15.82,0,0,1,1.87-7.73,13.55,13.55,0,0,1,5.16-5.32,15.17,15.17,0,0,1,14.7,0,13.56,13.56,0,0,1,5.09,5.29,16,16,0,0,1,1.85,7.76Zm-21.36-10a10.67,10.67,0,0,0-3.28,7.08h20.89a10.66,10.66,0,0,0-3.27-7.08,10.12,10.12,0,0,0-7.2-2.72A10,10,0,0,0,801.05,877.75Z" transform="translate(-183.36 -361)"/><path d="M838.57,873.13a14.15,14.15,0,0,1,6.86-1.51v3.86l-.95-.05a9.41,9.41,0,0,0-7.28,2.85q-2.64,2.87-2.64,8v15h-4V871.84h3.81v5.77A9.61,9.61,0,0,1,838.57,873.13Z" transform="translate(-183.36 -361)"/><path d="M860.58,873.13a14.12,14.12,0,0,1,6.86-1.51v3.86l-1-.05a9.42,9.42,0,0,0-7.28,2.85q-2.62,2.87-2.63,8v15h-4V871.84h3.8v5.77A9.68,9.68,0,0,1,860.58,873.13Z" transform="translate(-183.36 -361)"/><path d="M893.7,874.5c2,1.93,3.08,4.77,3.08,8.54V901.3H893v-4.59a9.07,9.07,0,0,1-4,3.58,13.77,13.77,0,0,1-6.18,1.29,12.15,12.15,0,0,1-7.84-2.35,8.09,8.09,0,0,1-.2-12.27q2.72-2.3,8.65-2.29h9.35v-1.8a7.57,7.57,0,0,0-2.12-5.79c-1.42-1.33-3.5-2-6.22-2a16,16,0,0,0-5.38.92,13.71,13.71,0,0,0-4.42,2.55l-1.79-3a16.16,16.16,0,0,1,5.37-2.94,21,21,0,0,1,6.61-1Q890.63,871.62,893.7,874.5Zm-4.48,22.4a9.17,9.17,0,0,0,3.58-4.45v-4.82h-9.24q-7.56,0-7.56,5.27a4.83,4.83,0,0,0,2,4.06,8.94,8.94,0,0,0,5.49,1.48A10.47,10.47,0,0,0,889.22,896.9Z" transform="translate(-183.36 -361)"/><path d="M923.1,899.51a7.66,7.66,0,0,1-2.77,1.54,11.31,11.31,0,0,1-3.45.53,7.8,7.8,0,0,1-8.62-8.57V875.2H903v-3.36h5.26V865.4h4v6.44h9v3.36h-9v17.59a5.54,5.54,0,0,0,1.32,4,5,5,0,0,0,3.78,1.37,7.33,7.33,0,0,0,2.38-.39,5.78,5.78,0,0,0,2-1.12Z" transform="translate(-183.36 -361)"/></g></svg>