<svg id="Visuels" xmlns="http://www.w3.org/2000/svg" viewBox="0 0 1228.34 1228.34"><defs><style>.cls-1{fill:#fff;}.cls-2{fill:#4d4d4d;}.cls-3,.cls-4{fill:#333;}.cls-4{fill-rule:evenodd;}.cls-5{fill:#666;}.cls-6{fill:#242424;}.cls-7{fill:none;stroke:#000;stroke-miterlimit:10;stroke-width:2px;}</style></defs><title>PAROT NOTE SVG</title><g id="Calque_21" data-name="Calque 21"><rect class="cls-1" width="1228.34" height="1228.34"/><g id="Calque_24" data-name="Calque 24"><path class="cls-2" d="M339.82,682.22s-93.85,48.62-49,210.56c0,0-4.34-68.73,46.7-122.75" transform="translate(-183.36 -361)"/><path class="cls-3" d="M362.18,592.18s-122.62,43.26-93.36,242.27c0,0,5.57-82.2,76.64-138.44" transform="translate(-183.36 -361)"/><g id="Maquettes-desktop"><g id="_03_INCENDIES_desktop" data-name="03_INCENDIES_desktop"><g id="Header"><g id="logo"><path id="Combined-Shape" class="cls-4" d="M605.7,839c24.78,0,35.08,8.78,35.08,34.06h0v33.52c0,6-.08,8.72,1.14,11a5.7,5.7,0,0,0,5.42,3.32c5,0,6.63-4.73,6.61-9.22H658c0,11-6.92,17.09-18,17.09-10.08,0-14.81-7.54-15.65-18.7-6.74,12.49-18.22,18.7-31,18.7-14.58,0-23.83-7.09-23.83-20.18,0-8.74,4-16.26,13.7-22.6,8.67-5.68,23.4-9.75,40.68-11.3h0v-3.28c0-19.84-6.9-27.9-18.68-27.9-8.63,0-11.77,3.3-11.65,8.21.15,5.47,2.41,6,2.41,12.54,0,5.86-4.43,8.66-10.44,8.66-5.33,0-10.36-3.31-10.36-10.9C575.18,848.81,586,839,605.7,839Zm244.73,0c27.31,0,43.28,18.25,43.28,44.87s-16,44.89-43.28,44.89-43.28-18.27-43.28-44.89S823.1,839,850.43,839ZM926,811.44V842.5H951v5.21H926v57.6c0,6.29,1.05,10.07,3.57,13.05a10.6,10.6,0,0,0,8.5,3.64c6.65,0,12-4.79,12.26-15.82h4.27c0,12.76-7,22.53-22.36,22.53-12.37,0-23.09-7.1-23.09-26.67V847.71h-15.5v-3.44c17.81-1.08,27-14.82,28.26-32.83Zm-396.6-5c26.47,0,41.09,14.94,41.09,33.53,0,26-21.12,35.08-41.09,35.08a100.88,100.88,0,0,1-12.65-.86v-3.65s2.49.18,4.4.18c20.28,0,30.27-11.29,30.27-31.35,0-9-2.56-16-7.71-20.81-6-5.58-13.17-7.41-23.65-7.41H507.93v96.57c0,10.5,2.07,15.65,19.43,15.65v3.45H470.09v-3.45c13.92,0,19.25-5.15,19.25-15.65v-82.2c0-10.5-5.33-15.65-19.25-15.65v-3.43ZM714.35,839c9.69,0,14.39,7.26,14.39,13.63,0,8.95-5.08,13.61-11.51,13.61a8.25,8.25,0,0,1-8.49-9.23c.36-5.14-.44-7.37-4.32-7.37s-7,3.81-9.31,8.11c-3.89,7.18-5.61,16.21-5.61,33.67v18.88c0,8.78,3.32,13.1,17.79,13.1v3.47H659.4v-3.47c9.71,0,13.36-4.32,13.36-13.1V861c0-9-1.26-13.26-14.59-13.26v-3.45c10.94,0,23.88-.88,32.92-5.33,0,0-1.59,12.92-1.59,21.41A35.06,35.06,0,0,1,697.86,846,21.83,21.83,0,0,1,714.35,839Zm75.74,0c9.67,0,14.38,7.26,14.38,13.63,0,8.95-5.08,13.61-11.5,13.61a8.25,8.25,0,0,1-8.5-9.23c.38-5.14-.43-7.37-4.31-7.37s-7,3.81-9.31,8.11c-3.91,7.18-5.61,16.21-5.61,33.67v18.88c0,8.78,3.34,13.1,17.78,13.1v3.47H733.9v-3.47c9.7,0,14.6-4.32,14.6-13.1V861c0-9-1.25-13.26-14.6-13.26v-3.45c11,0,23.88-.88,32.91-5.33,0,0-1.57,12.92-1.57,21.41A35,35,0,0,1,773.59,846,21.76,21.76,0,0,1,790.09,839Zm60.34,4.34c-13.64,0-23.94,12.8-23.94,40.53s10.3,40.53,23.94,40.53,24-12.79,24-40.53S864.08,843.29,850.43,843.29ZM623.9,879c-21.28,2-35,12.11-35.88,27.62-.54,9.37,4.37,15.51,13.18,15.51,5.42,0,11.12-3,15.64-9.05,4.94-6.73,7-15.93,7-30.3h0Z" transform="translate(-183.36 -361)"/></g></g></g></g><path class="cls-5" d="M668,548.31S798.65,562.65,786.7,745.89c0,0-28.49-105.49-127.25-103.13C659.45,642.76,689.25,600.2,668,548.31Z" transform="translate(-183.36 -361)"/><path class="cls-5" d="M652,665.73s-10.31,32.37-60.13,40.71c0,0,32.72,80.16,105.61,46.21s18.29-20.44,18.29-20.44S685.93,685,652,665.73Z" transform="translate(-183.36 -361)"/><path class="cls-6" d="M653.83,530.3S517.43,322,368.56,524.43s52.07,561.73,52.07,561.73-29.33-72.6-15.4-193.6,82.06-171.78,83.6-172.33c2-.71,148.13-48.4,128.33-122.46S653.83,530.3,653.83,530.3Z" transform="translate(-183.36 -361)"/><circle class="cls-1" cx="359.03" cy="173.33" r="35.52"/><path class="cls-6" d="M541.56,497.14s26.2,25,.83,37.19c0,0,26.4,2.92,28-22.46C570.39,511.87,561.85,497.14,541.56,497.14Z" transform="translate(-183.36 -361)"/><path class="cls-6" d="M581.06,534.86s-25,24.07-37-.53c0,0-4.79,26.85,20.86,28.71C565,563,580.82,554.41,581.06,534.86Z" transform="translate(-183.36 -361)"/><path class="cls-6" d="M544.33,574.44s-24.86-27.11-.38-41c0,0-26.07-2.32-27.36,26.19C516.59,559.62,524.64,574.63,544.33,574.44Z" transform="translate(-183.36 -361)"/><path class="cls-6" d="M505.19,534.57s25-25.71,38-.54c0,0,2.66-26.42-23.76-27.64C519.42,506.39,504.9,514.29,505.19,534.57Z" transform="translate(-183.36 -361)"/><path class="cls-6" d="M416,473S242.79,542.32,248.46,768.34c0,0,15.22-91.51,92.52-147.09" transform="translate(-183.36 -361)"/><path d="M468.9,1485.36l-8.64-12.15a29.65,29.65,0,0,1-3,.16H447.08v12h-4v-37.8h14.15q7.25,0,11.34,3.45a11.78,11.78,0,0,1,4.11,9.51,12.27,12.27,0,0,1-2.25,7.48,12.4,12.4,0,0,1-6.39,4.4l9.23,13Zm-3.19-17.88a9.75,9.75,0,0,0,0-14q-3-2.46-8.59-2.46h-10v19h10Q462.75,1470,465.71,1467.48Z" transform="translate(-183.36 -361)"/><path d="M506.05,1472.34H482.29a10.15,10.15,0,0,0,3.4,7.16,11.27,11.27,0,0,0,7.78,2.72,12.28,12.28,0,0,0,4.86-.94,10.7,10.7,0,0,0,3.83-2.78l2.16,2.48a12.19,12.19,0,0,1-4.73,3.46,16,16,0,0,1-6.23,1.19,15.68,15.68,0,0,1-7.75-1.87,13.45,13.45,0,0,1-5.27-5.15,14.72,14.72,0,0,1-1.89-7.46,15.3,15.3,0,0,1,1.81-7.45,13.18,13.18,0,0,1,5-5.13,14.65,14.65,0,0,1,14.18,0,13.12,13.12,0,0,1,4.91,5.11,15.31,15.31,0,0,1,1.78,7.47Zm-20.6-9.69a10.25,10.25,0,0,0-3.16,6.83h20.14a10.3,10.3,0,0,0-3.16-6.83,10.42,10.42,0,0,0-13.82,0Z" transform="translate(-183.36 -361)"/><path d="M535.8,1458.55a12.91,12.91,0,0,1,5.08,5.1,16.3,16.3,0,0,1,0,15,13.12,13.12,0,0,1-5.08,5.13,14.46,14.46,0,0,1-7.24,1.84,13.35,13.35,0,0,1-6.39-1.52,11.62,11.62,0,0,1-4.57-4.37v5.62h-3.67v-40.07h3.83v17.06a11.81,11.81,0,0,1,4.57-4.18,13.33,13.33,0,0,1,6.23-1.43A14.54,14.54,0,0,1,535.8,1458.55Zm-2.11,22.3a9.72,9.72,0,0,0,3.81-3.92,12.77,12.77,0,0,0,0-11.55,9.72,9.72,0,0,0-3.81-3.92,11.29,11.29,0,0,0-10.82,0,9.78,9.78,0,0,0-3.78,3.92,12.77,12.77,0,0,0,0,11.55,9.78,9.78,0,0,0,3.78,3.92,11.37,11.37,0,0,0,10.82,0Z" transform="translate(-183.36 -361)"/><path d="M558.24,1458.19a13.66,13.66,0,0,1,6.61-1.45v3.72l-.92,0a9.11,9.11,0,0,0-7,2.75q-2.53,2.76-2.53,7.72v14.48h-3.84V1457h3.67v5.56A9.39,9.39,0,0,1,558.24,1458.19Z" transform="translate(-183.36 -361)"/><path d="M590.18,1459.52c2,1.85,3,4.6,3,8.23v17.61h-3.67v-4.43a8.77,8.77,0,0,1-3.81,3.45,13.28,13.28,0,0,1-6,1.25,11.69,11.69,0,0,1-7.56-2.27,7.8,7.8,0,0,1-.19-11.83q2.63-2.21,8.35-2.21h9v-1.73a7.27,7.27,0,0,0-2-5.59,8.45,8.45,0,0,0-6-1.92,15.15,15.15,0,0,0-5.19.9,13.1,13.1,0,0,0-4.26,2.45l-1.73-2.86a15.32,15.32,0,0,1,5.18-2.83,20.1,20.1,0,0,1,6.38-1C585.35,1456.74,588.2,1457.66,590.18,1459.52Zm-4.32,21.6a8.79,8.79,0,0,0,3.45-4.3v-4.64H580.4q-7.29,0-7.29,5.08a4.64,4.64,0,0,0,1.89,3.91,8.59,8.59,0,0,0,5.3,1.43A10.1,10.1,0,0,0,585.86,1481.12Z" transform="translate(-183.36 -361)"/><path d="M626.55,1459.84q3.15,3.11,3.16,9.05v16.47h-3.84v-16.1q0-4.42-2.21-6.75a8.35,8.35,0,0,0-6.32-2.32,9.69,9.69,0,0,0-7.26,2.73,10.27,10.27,0,0,0-2.68,7.53v14.91h-3.83V1457h3.67v5.24a10.63,10.63,0,0,1,4.35-4,13.81,13.81,0,0,1,6.45-1.43A11.61,11.61,0,0,1,626.55,1459.84Z" transform="translate(-183.36 -361)"/><path d="M666.16,1445.29v40.07h-3.68v-5.62a11.59,11.59,0,0,1-4.56,4.37,13.36,13.36,0,0,1-6.4,1.52,14.45,14.45,0,0,1-7.23-1.84,13.05,13.05,0,0,1-5.08-5.13,16.23,16.23,0,0,1,0-15,12.85,12.85,0,0,1,5.08-5.1,14.53,14.53,0,0,1,7.23-1.81,13.4,13.4,0,0,1,6.24,1.43,11.86,11.86,0,0,1,4.56,4.18v-17.06Zm-8.94,35.56a9.78,9.78,0,0,0,3.78-3.92,12.77,12.77,0,0,0,0-11.55,9.78,9.78,0,0,0-3.78-3.92,11.25,11.25,0,0,0-10.8,0,9.78,9.78,0,0,0-3.78,3.92,12.77,12.77,0,0,0,0,11.55,9.78,9.78,0,0,0,3.78,3.92,11.33,11.33,0,0,0,10.8,0Z" transform="translate(-183.36 -361)"/><path d="M676.79,1449.93A2.65,2.65,0,0,1,676,1448a2.59,2.59,0,0,1,.81-1.89,2.72,2.72,0,0,1,2-.81,2.78,2.78,0,0,1,2,.78,2.49,2.49,0,0,1,.81,1.86,2.83,2.83,0,0,1-4.81,2Zm.06,7h3.83v28.41h-3.83Z" transform="translate(-183.36 -361)"/><path d="M714.35,1459.84q3.17,3.11,3.16,9.05v16.47h-3.84v-16.1c0-3-.73-5.2-2.21-6.75a8.35,8.35,0,0,0-6.32-2.32,9.69,9.69,0,0,0-7.26,2.73,10.31,10.31,0,0,0-2.67,7.53v14.91h-3.84V1457H695v5.24a10.69,10.69,0,0,1,4.35-4,13.87,13.87,0,0,1,6.45-1.43A11.61,11.61,0,0,1,714.35,1459.84Z" transform="translate(-183.36 -361)"/><path d="M754.34,1457v25q0,7.23-3.54,10.72t-10.67,3.48a24,24,0,0,1-7.48-1.16,15.38,15.38,0,0,1-5.75-3.21l2-2.92a14.44,14.44,0,0,0,5,2.86,18.53,18.53,0,0,0,6.19,1q5.4,0,7.93-2.51c1.7-1.67,2.54-4.28,2.54-7.8v-3.62a11.49,11.49,0,0,1-4.67,4.1,14.41,14.41,0,0,1-6.4,1.41,15.11,15.11,0,0,1-7.26-1.76,13,13,0,0,1-5.13-4.91,14.65,14.65,0,0,1,0-14.29,13,13,0,0,1,5.1-4.86,15.26,15.26,0,0,1,7.29-1.72,14.48,14.48,0,0,1,6.54,1.45,11.78,11.78,0,0,1,4.69,4.22V1457Zm-9,22.6a9.49,9.49,0,0,0,3.86-3.7,10.53,10.53,0,0,0,1.38-5.4,10.42,10.42,0,0,0-1.38-5.37,9.6,9.6,0,0,0-3.83-3.67,11.63,11.63,0,0,0-5.59-1.33,11.76,11.76,0,0,0-5.54,1.3,9.47,9.47,0,0,0-3.83,3.67,11.26,11.26,0,0,0,0,10.8,9.6,9.6,0,0,0,3.83,3.7,12.33,12.33,0,0,0,11.1,0Z" transform="translate(-183.36 -361)"/><path d="M805.15,1445.29v40.07h-3.67v-5.62a11.68,11.68,0,0,1-4.57,4.37,13.36,13.36,0,0,1-6.4,1.52,14.45,14.45,0,0,1-7.23-1.84,13.12,13.12,0,0,1-5.08-5.13,16.3,16.3,0,0,1,0-15,12.91,12.91,0,0,1,5.08-5.1,14.53,14.53,0,0,1,7.23-1.81,13.34,13.34,0,0,1,6.24,1.43,11.72,11.72,0,0,1,4.56,4.18v-17.06Zm-8.94,35.56a9.78,9.78,0,0,0,3.78-3.92,12.77,12.77,0,0,0,0-11.55,9.78,9.78,0,0,0-3.78-3.92,10.58,10.58,0,0,0-5.37-1.38,10.7,10.7,0,0,0-5.43,1.38,9.78,9.78,0,0,0-3.78,3.92,12.77,12.77,0,0,0,0,11.55,9.78,9.78,0,0,0,3.78,3.92,10.69,10.69,0,0,0,5.43,1.37A10.57,10.57,0,0,0,796.21,1480.85Z" transform="translate(-183.36 -361)"/><path d="M841.44,1457v28.41h-3.68v-5.19a10.51,10.51,0,0,1-4.15,4,12.57,12.57,0,0,1-6.05,1.43c-3.71,0-6.63-1-8.78-3.11s-3.21-5.1-3.21-9.1V1457h3.83V1473q0,4.49,2.22,6.81a8.3,8.3,0,0,0,6.32,2.32,9.29,9.29,0,0,0,7.07-2.73q2.6-2.71,2.59-7.58V1457Z" transform="translate(-183.36 -361)"/><path d="M866.33,1445.29h3.83v40.07h-3.83Z" transform="translate(-183.36 -361)"/><path d="M885.07,1483.76a13.58,13.58,0,0,1-5.19-5.15,15.65,15.65,0,0,1,0-14.91,13.46,13.46,0,0,1,5.19-5.13,15.86,15.86,0,0,1,14.79,0,13.25,13.25,0,0,1,5.16,5.13,15.87,15.87,0,0,1,0,14.91,13.37,13.37,0,0,1-5.16,5.15,15.56,15.56,0,0,1-14.79,0Zm12.82-2.91a9.61,9.61,0,0,0,3.76-3.92,13,13,0,0,0,0-11.55,9.61,9.61,0,0,0-3.76-3.92,11.35,11.35,0,0,0-10.85,0,9.78,9.78,0,0,0-3.78,3.92,12.77,12.77,0,0,0,0,11.55,9.78,9.78,0,0,0,3.78,3.92,11.43,11.43,0,0,0,10.85,0Z" transform="translate(-183.36 -361)"/><path d="M941,1457v25q0,7.23-3.54,10.72t-10.66,3.48a24,24,0,0,1-7.48-1.16,15.23,15.23,0,0,1-5.75-3.21l1.94-2.92a14.49,14.49,0,0,0,5,2.86,18.47,18.47,0,0,0,6.18,1q5.4,0,7.94-2.51c1.69-1.67,2.54-4.28,2.54-7.8v-3.62a11.55,11.55,0,0,1-4.67,4.1,14.41,14.41,0,0,1-6.4,1.41,15.12,15.12,0,0,1-7.27-1.76,13.1,13.1,0,0,1-5.13-4.91,14.65,14.65,0,0,1,0-14.29,13.06,13.06,0,0,1,5.11-4.86,15.26,15.26,0,0,1,7.29-1.72,14.41,14.41,0,0,1,6.53,1.45,11.87,11.87,0,0,1,4.7,4.22V1457Zm-9,22.6a9.55,9.55,0,0,0,3.86-3.7,10.53,10.53,0,0,0,1.38-5.4,10.42,10.42,0,0,0-1.38-5.37,9.63,9.63,0,0,0-3.84-3.67,11.59,11.59,0,0,0-5.58-1.33,11.73,11.73,0,0,0-5.54,1.3,9.34,9.34,0,0,0-3.83,3.67,11.26,11.26,0,0,0,0,10.8,9.48,9.48,0,0,0,3.83,3.7,11.51,11.51,0,0,0,5.54,1.32A11.67,11.67,0,0,0,932.05,1479.55Z" transform="translate(-183.36 -361)"/><path d="M956,1483.76a13.58,13.58,0,0,1-5.19-5.15,15.65,15.65,0,0,1,0-14.91,13.46,13.46,0,0,1,5.19-5.13,15.86,15.86,0,0,1,14.79,0,13.25,13.25,0,0,1,5.16,5.13,15.87,15.87,0,0,1,0,14.91,13.37,13.37,0,0,1-5.16,5.15,15.56,15.56,0,0,1-14.79,0Zm12.82-2.91a9.54,9.54,0,0,0,3.76-3.92,13,13,0,0,0,0-11.55,9.54,9.54,0,0,0-3.76-3.92,11.35,11.35,0,0,0-10.85,0,9.78,9.78,0,0,0-3.78,3.92,12.77,12.77,0,0,0,0,11.55,9.78,9.78,0,0,0,3.78,3.92,11.43,11.43,0,0,0,10.85,0Z" transform="translate(-183.36 -361)"/><path d="M1021.63,1458.55a12.91,12.91,0,0,1,5.08,5.1,16.41,16.41,0,0,1,0,15.06,13.06,13.06,0,0,1-5.05,5.11,14.59,14.59,0,0,1-7.26,1.81,13.46,13.46,0,0,1-6.24-1.43,11.74,11.74,0,0,1-4.56-4.19v15.82h-3.84V1457h3.67v5.62a11.91,11.91,0,0,1,4.57-4.32,13.35,13.35,0,0,1,6.4-1.51A14.53,14.53,0,0,1,1021.63,1458.55Zm-2.1,22.3a9.63,9.63,0,0,0,3.8-3.92,11.9,11.9,0,0,0,1.38-5.78,11.76,11.76,0,0,0-1.38-5.75,9.86,9.86,0,0,0-3.8-3.91,11.1,11.1,0,0,0-10.83,0,10,10,0,0,0-3.78,3.91,11.76,11.76,0,0,0-1.38,5.75,11.9,11.9,0,0,0,1.38,5.78,9.78,9.78,0,0,0,3.78,3.92,11.39,11.39,0,0,0,10.83,0Z" transform="translate(-183.36 -361)"/><path d="M1054.68,1459.52c2,1.85,3,4.6,3,8.23v17.61H1054v-4.43a8.71,8.71,0,0,1-3.81,3.45,13.28,13.28,0,0,1-6,1.25,11.73,11.73,0,0,1-7.56-2.27,7.81,7.81,0,0,1-.18-11.83q2.61-2.21,8.34-2.21h9v-1.73a7.28,7.28,0,0,0-2.06-5.59q-2-1.92-6-1.92a15.05,15.05,0,0,0-5.18.9,13,13,0,0,0-4.27,2.45l-1.73-2.86a15.27,15.27,0,0,1,5.19-2.83,20,20,0,0,1,6.37-1C1049.86,1456.74,1052.7,1457.66,1054.68,1459.52Zm-4.32,21.6a8.87,8.87,0,0,0,3.46-4.3v-4.64h-8.91q-7.29,0-7.29,5.08a4.64,4.64,0,0,0,1.89,3.91,8.55,8.55,0,0,0,5.29,1.43A10.1,10.1,0,0,0,1050.36,1481.12Z" transform="translate(-183.36 -361)"/><path d="M1075.77,1458.19a13.66,13.66,0,0,1,6.61-1.45v3.72l-.92,0a9.11,9.11,0,0,0-7,2.75q-2.54,2.76-2.53,7.72v14.48h-3.84V1457h3.67v5.56A9.34,9.34,0,0,1,1075.77,1458.19Z" transform="translate(-183.36 -361)"/><path d="M1097,1458.19a13.69,13.69,0,0,1,6.61-1.45v3.72l-.91,0a9.08,9.08,0,0,0-7,2.75c-1.7,1.84-2.54,4.41-2.54,7.72v14.48h-3.84V1457H1093v5.56A9.37,9.37,0,0,1,1097,1458.19Z" transform="translate(-183.36 -361)"/><path d="M1114.46,1483.76a13.58,13.58,0,0,1-5.19-5.15,15.65,15.65,0,0,1,0-14.91,13.46,13.46,0,0,1,5.19-5.13,15.86,15.86,0,0,1,14.79,0,13.25,13.25,0,0,1,5.16,5.13,15.87,15.87,0,0,1,0,14.91,13.37,13.37,0,0,1-5.16,5.15,15.56,15.56,0,0,1-14.79,0Zm12.82-2.91a9.61,9.61,0,0,0,3.76-3.92,13,13,0,0,0,0-11.55,9.61,9.61,0,0,0-3.76-3.92,11.35,11.35,0,0,0-10.85,0,9.78,9.78,0,0,0-3.78,3.92,12.77,12.77,0,0,0,0,11.55,9.78,9.78,0,0,0,3.78,3.92,11.43,11.43,0,0,0,10.85,0Z" transform="translate(-183.36 -361)"/><path d="M1159.06,1483.63a7.2,7.2,0,0,1-2.67,1.48,10.53,10.53,0,0,1-3.32.52,7.53,7.53,0,0,1-8.32-8.27v-17.17h-5.07V1457h5.07v-6.21h3.84V1457h8.64v3.24h-8.64v17a5.39,5.39,0,0,0,1.26,3.86,4.85,4.85,0,0,0,3.65,1.32,6.79,6.79,0,0,0,2.29-.38,5.63,5.63,0,0,0,1.92-1.08Z" transform="translate(-183.36 -361)"/><path d="M1178.53,1461.76a2.92,2.92,0,0,1-.84-2.11,2.84,2.84,0,0,1,.84-2.08,2.78,2.78,0,0,1,2-.83,2.86,2.86,0,0,1,2,.83,2.79,2.79,0,0,1,.87,2.08,2.87,2.87,0,0,1-.87,2.11,2.81,2.81,0,0,1-2,.86A2.73,2.73,0,0,1,1178.53,1461.76Zm0,23a2.88,2.88,0,0,1-.84-2.1,2.82,2.82,0,0,1,.84-2.08,2.75,2.75,0,0,1,2-.84,2.83,2.83,0,0,1,2,.84,2.77,2.77,0,0,1,.87,2.08,2.83,2.83,0,0,1-.87,2.1,2.78,2.78,0,0,1-2,.87A2.7,2.7,0,0,1,1178.53,1484.76Z" transform="translate(-183.36 -361)"/><path d="M372,1515.81a11.8,11.8,0,0,1,4.1,9.51,11.68,11.68,0,0,1-4.1,9.47q-4.11,3.43-11.34,3.43H350.5v11.94h-4v-37.8h14.15Q367.89,1512.36,372,1515.81Zm-2.87,16.44a8.48,8.48,0,0,0,3-6.93,8.64,8.64,0,0,0-3-7q-3-2.46-8.58-2.46H350.5v18.9h10.05Q366.16,1534.71,369.13,1532.25Z" transform="translate(-183.36 -361)"/><path d="M402.13,1524.32c2,1.85,3,4.6,3,8.23v17.61h-3.68v-4.43a8.69,8.69,0,0,1-3.8,3.45,13.34,13.34,0,0,1-6,1.25,11.69,11.69,0,0,1-7.56-2.27,7.8,7.8,0,0,1-.19-11.83q2.63-2.2,8.35-2.21h9v-1.73a7.27,7.27,0,0,0-2.05-5.59,8.47,8.47,0,0,0-6-1.92,15.15,15.15,0,0,0-5.19.9,13.1,13.1,0,0,0-4.26,2.45l-1.73-2.86a15.32,15.32,0,0,1,5.18-2.83,20.1,20.1,0,0,1,6.38-1C397.3,1521.54,400.15,1522.46,402.13,1524.32Zm-4.32,21.6a8.85,8.85,0,0,0,3.45-4.3V1537h-8.91q-7.29,0-7.29,5.08A4.64,4.64,0,0,0,387,1546a8.59,8.59,0,0,0,5.3,1.43A10.12,10.12,0,0,0,397.81,1545.92Z" transform="translate(-183.36 -361)"/><path d="M423.21,1523a13.73,13.73,0,0,1,6.62-1.45v3.72l-.92,0a9.08,9.08,0,0,0-7,2.75q-2.53,2.76-2.54,7.72v14.48h-3.83v-28.41h3.67v5.56A9.37,9.37,0,0,1,423.21,1523Z" transform="translate(-183.36 -361)"/><path d="M444.44,1523a13.66,13.66,0,0,1,6.61-1.45v3.72l-.92,0a9.08,9.08,0,0,0-7,2.75q-2.53,2.76-2.54,7.72v14.48h-3.83v-28.41h3.67v5.56A9.34,9.34,0,0,1,444.44,1523Z" transform="translate(-183.36 -361)"/><path d="M461.9,1548.56a13.63,13.63,0,0,1-5.18-5.15,15.65,15.65,0,0,1,0-14.91,13.51,13.51,0,0,1,5.18-5.13,15.88,15.88,0,0,1,14.8,0,13.25,13.25,0,0,1,5.16,5.13,15.87,15.87,0,0,1,0,14.91,13.37,13.37,0,0,1-5.16,5.15,15.58,15.58,0,0,1-14.8,0Zm12.83-2.91a9.64,9.64,0,0,0,3.75-3.92,13,13,0,0,0,0-11.55,9.58,9.58,0,0,0-3.75-3.92,11.35,11.35,0,0,0-10.85,0,9.65,9.65,0,0,0-3.78,3.92,12.77,12.77,0,0,0,0,11.55,9.71,9.71,0,0,0,3.78,3.92,11.43,11.43,0,0,0,10.85,0Z" transform="translate(-183.36 -361)"/><path d="M506.51,1548.43a7.2,7.2,0,0,1-2.67,1.48,10.89,10.89,0,0,1-3.33.52,7.52,7.52,0,0,1-8.31-8.27V1525h-5.08v-3.24h5.08v-6.21H496v6.21h8.64V1525H496v17a5.39,5.39,0,0,0,1.27,3.86,4.83,4.83,0,0,0,3.65,1.32,6.84,6.84,0,0,0,2.29-.38,5.63,5.63,0,0,0,1.92-1.08Z" transform="translate(-183.36 -361)"/><path d="M552.35,1537.14H528.59a10.16,10.16,0,0,0,3.41,7.16,11.26,11.26,0,0,0,7.77,2.72,12.28,12.28,0,0,0,4.86-.94,10.65,10.65,0,0,0,3.84-2.78l2.16,2.48a12.26,12.26,0,0,1-4.73,3.46,16,16,0,0,1-6.24,1.19,15.71,15.71,0,0,1-7.75-1.87,13.43,13.43,0,0,1-5.26-5.15,14.72,14.72,0,0,1-1.89-7.46,15.19,15.19,0,0,1,1.81-7.45,13.12,13.12,0,0,1,5-5.13,14.63,14.63,0,0,1,14.17,0,13.08,13.08,0,0,1,4.92,5.11,15.42,15.42,0,0,1,1.78,7.47Zm-20.6-9.69a10.3,10.3,0,0,0-3.16,6.83h20.15a10.34,10.34,0,0,0-3.16-6.83,10.44,10.44,0,0,0-13.83,0Z" transform="translate(-183.36 -361)"/><path d="M561.24,1549.43a14.47,14.47,0,0,1-5-2.51l1.73-3a14.61,14.61,0,0,0,4.48,2.3,18,18,0,0,0,5.62.89,10.72,10.72,0,0,0,5.75-1.22,3.86,3.86,0,0,0,1.86-3.43,3.08,3.08,0,0,0-1-2.45,6.71,6.71,0,0,0-2.59-1.35,34.71,34.71,0,0,0-4.16-.89,48.58,48.58,0,0,1-5.56-1.33,8.13,8.13,0,0,1-3.59-2.29,6.35,6.35,0,0,1-1.49-4.48,7,7,0,0,1,3-5.84q3-2.27,8.26-2.26a21.29,21.29,0,0,1,5.51.73,15.06,15.06,0,0,1,4.54,1.91l-1.68,3.08a14.34,14.34,0,0,0-8.37-2.43,9.63,9.63,0,0,0-5.53,1.3,4,4,0,0,0-1.87,3.4,3.37,3.37,0,0,0,1.06,2.59,6.34,6.34,0,0,0,2.62,1.43,42.09,42.09,0,0,0,4.32,1,50.36,50.36,0,0,1,5.45,1.29,7.93,7.93,0,0,1,3.51,2.22,6.09,6.09,0,0,1,1.46,4.32,6.88,6.88,0,0,1-3.11,5.91q-3.11,2.19-8.61,2.19A22,22,0,0,1,561.24,1549.43Z" transform="translate(-183.36 -361)"/><path d="M601.6,1548.43a7.2,7.2,0,0,1-2.67,1.48,10.83,10.83,0,0,1-3.32.52,7.53,7.53,0,0,1-8.32-8.27V1525h-5.08v-3.24h5.08v-6.21h3.83v6.21h8.64V1525h-8.64v17a5.39,5.39,0,0,0,1.27,3.86,4.83,4.83,0,0,0,3.65,1.32,6.79,6.79,0,0,0,2.29-.38,5.63,5.63,0,0,0,1.92-1.08Z" transform="translate(-183.36 -361)"/><path d="M648.31,1521.75v28.41h-3.67V1545a10.6,10.6,0,0,1-4.16,4,12.57,12.57,0,0,1-6.05,1.43q-5.56,0-8.77-3.11t-3.22-9.1v-16.47h3.84v16.09c0,3,.73,5.26,2.21,6.81a8.31,8.31,0,0,0,6.32,2.32,9.27,9.27,0,0,0,7.07-2.73q2.6-2.71,2.6-7.58v-14.91Z" transform="translate(-183.36 -361)"/><path d="M682,1524.64q3.16,3.1,3.16,9v16.47h-3.83v-16.1q0-4.43-2.22-6.75a8.34,8.34,0,0,0-6.32-2.32,9.69,9.69,0,0,0-7.26,2.73,10.31,10.31,0,0,0-2.67,7.53v14.91h-3.84v-28.41h3.68V1527a10.6,10.6,0,0,1,4.34-4,13.88,13.88,0,0,1,6.46-1.43A11.59,11.59,0,0,1,682,1524.64Z" transform="translate(-183.36 -361)"/><path d="M720.45,1537.14H696.69a10.19,10.19,0,0,0,3.4,7.16,11.31,11.31,0,0,0,7.78,2.72,12.28,12.28,0,0,0,4.86-.94,10.61,10.61,0,0,0,3.83-2.78l2.16,2.48a12.16,12.16,0,0,1-4.72,3.46,16,16,0,0,1-6.24,1.19,15.71,15.71,0,0,1-7.75-1.87,13.43,13.43,0,0,1-5.26-5.15,14.72,14.72,0,0,1-1.89-7.46,15.19,15.19,0,0,1,1.81-7.45,13.16,13.16,0,0,1,5-5.13,13.94,13.94,0,0,1,7.11-1.83,13.77,13.77,0,0,1,7.07,1.83,13,13,0,0,1,4.91,5.11,15.31,15.31,0,0,1,1.79,7.47Zm-20.6-9.69a10.3,10.3,0,0,0-3.16,6.83h20.14a10.25,10.25,0,0,0-3.16-6.83,10.42,10.42,0,0,0-13.82,0Z" transform="translate(-183.36 -361)"/><path d="M767.21,1537.14H743.45a10.16,10.16,0,0,0,3.41,7.16,11.26,11.26,0,0,0,7.77,2.72,12.21,12.21,0,0,0,4.86-.94,10.65,10.65,0,0,0,3.84-2.78l2.16,2.48a12.19,12.19,0,0,1-4.73,3.46,16,16,0,0,1-6.24,1.19,15.64,15.64,0,0,1-7.74-1.87,13.39,13.39,0,0,1-5.27-5.15,14.72,14.72,0,0,1-1.89-7.46,15.19,15.19,0,0,1,1.81-7.45,13.12,13.12,0,0,1,5-5.13,14.63,14.63,0,0,1,14.17,0,13.08,13.08,0,0,1,4.92,5.11,15.42,15.42,0,0,1,1.78,7.47Zm-20.6-9.69a10.34,10.34,0,0,0-3.16,6.83H763.6a10.34,10.34,0,0,0-3.16-6.83,10.44,10.44,0,0,0-13.83,0Z" transform="translate(-183.36 -361)"/><path d="M798.07,1524.64q3.16,3.1,3.16,9v16.47H797.4v-16.1q0-4.43-2.21-6.75a8.37,8.37,0,0,0-6.32-2.32,9.73,9.73,0,0,0-7.27,2.73,10.31,10.31,0,0,0-2.67,7.53v14.91H775.1v-28.41h3.67V1527a10.57,10.57,0,0,1,4.35-4,13.81,13.81,0,0,1,6.45-1.43A11.59,11.59,0,0,1,798.07,1524.64Z" transform="translate(-183.36 -361)"/><path d="M826.61,1548.43a7.2,7.2,0,0,1-2.67,1.48,10.83,10.83,0,0,1-3.32.52,7.53,7.53,0,0,1-8.32-8.27V1525h-5.07v-3.24h5.07v-6.21h3.84v6.21h8.64V1525h-8.64v17a5.35,5.35,0,0,0,1.27,3.86,4.81,4.81,0,0,0,3.64,1.32,6.89,6.89,0,0,0,2.3-.38,5.68,5.68,0,0,0,1.91-1.08Z" transform="translate(-183.36 -361)"/><path d="M841.27,1523a13.73,13.73,0,0,1,6.62-1.45v3.72l-.92,0a9.08,9.08,0,0,0-7,2.75q-2.54,2.76-2.54,7.72v14.48h-3.83v-28.41h3.67v5.56A9.37,9.37,0,0,1,841.27,1523Z" transform="translate(-183.36 -361)"/><path d="M879.26,1537.14H855.5a10.19,10.19,0,0,0,3.4,7.16,11.31,11.31,0,0,0,7.78,2.72,12.28,12.28,0,0,0,4.86-.94,10.61,10.61,0,0,0,3.83-2.78l2.16,2.48a12.16,12.16,0,0,1-4.72,3.46,16,16,0,0,1-6.24,1.19,15.71,15.71,0,0,1-7.75-1.87,13.43,13.43,0,0,1-5.26-5.15,14.72,14.72,0,0,1-1.89-7.46,15.19,15.19,0,0,1,1.81-7.45,13.12,13.12,0,0,1,5-5.13,14.63,14.63,0,0,1,14.17,0,13,13,0,0,1,4.91,5.11,15.31,15.31,0,0,1,1.79,7.47Zm-20.6-9.69a10.3,10.3,0,0,0-3.16,6.83h20.14a10.25,10.25,0,0,0-3.16-6.83,10.42,10.42,0,0,0-13.82,0Z" transform="translate(-183.36 -361)"/><path d="M909,1523.35a12.82,12.82,0,0,1,5.07,5.1,16.33,16.33,0,0,1,0,15.06,13,13,0,0,1-5.05,5.11,14.59,14.59,0,0,1-7.26,1.81,13.52,13.52,0,0,1-6.24-1.43,11.88,11.88,0,0,1-4.56-4.19v15.82h-3.83v-38.88h3.67v5.62a11.82,11.82,0,0,1,4.56-4.32,13.35,13.35,0,0,1,6.4-1.51A14.57,14.57,0,0,1,909,1523.35Zm-2.11,22.3a9.78,9.78,0,0,0,3.81-3.92,12,12,0,0,0,1.37-5.78,11.86,11.86,0,0,0-1.37-5.75,10,10,0,0,0-3.81-3.91,11.1,11.1,0,0,0-10.83,0,10,10,0,0,0-3.78,3.91,11.75,11.75,0,0,0-1.37,5.75,11.9,11.9,0,0,0,1.37,5.78,9.84,9.84,0,0,0,3.78,3.92,11.39,11.39,0,0,0,10.83,0Z" transform="translate(-183.36 -361)"/><path d="M931.45,1523a13.7,13.7,0,0,1,6.62-1.45v3.72l-.92,0a9.08,9.08,0,0,0-7,2.75q-2.53,2.76-2.54,7.72v14.48h-3.83v-28.41h3.67v5.56A9.37,9.37,0,0,1,931.45,1523Z" transform="translate(-183.36 -361)"/><path d="M944.92,1514.73a2.65,2.65,0,0,1-.81-1.94,2.59,2.59,0,0,1,.81-1.89,2.72,2.72,0,0,1,2-.81,2.78,2.78,0,0,1,2,.78,2.49,2.49,0,0,1,.81,1.86,2.83,2.83,0,0,1-4.81,2Zm.06,7h3.83v28.41H945Z" transform="translate(-183.36 -361)"/><path d="M960.5,1549.43a14.51,14.51,0,0,1-4.94-2.51l1.73-3a14.61,14.61,0,0,0,4.48,2.3,17.92,17.92,0,0,0,5.62.89,10.72,10.72,0,0,0,5.75-1.22,3.86,3.86,0,0,0,1.86-3.43,3.08,3.08,0,0,0-1-2.45,6.69,6.69,0,0,0-2.6-1.35,34.49,34.49,0,0,0-4.15-.89,49.36,49.36,0,0,1-5.57-1.33,8.18,8.18,0,0,1-3.59-2.29,6.39,6.39,0,0,1-1.48-4.48,7,7,0,0,1,3-5.84q3-2.27,8.26-2.26a21.29,21.29,0,0,1,5.51.73,15,15,0,0,1,4.53,1.91l-1.67,3.08a14.34,14.34,0,0,0-8.37-2.43,9.63,9.63,0,0,0-5.53,1.3,3.94,3.94,0,0,0-1.87,3.4,3.33,3.33,0,0,0,1.06,2.59,6.36,6.36,0,0,0,2.61,1.43,43.35,43.35,0,0,0,4.32,1,50,50,0,0,1,5.46,1.29,7.93,7.93,0,0,1,3.51,2.22,6.09,6.09,0,0,1,1.46,4.32,6.88,6.88,0,0,1-3.11,5.91q-3.11,2.19-8.61,2.19A22,22,0,0,1,960.5,1549.43Z" transform="translate(-183.36 -361)"/><path d="M1010.64,1537.14H986.88a10.19,10.19,0,0,0,3.4,7.16,11.31,11.31,0,0,0,7.78,2.72,12.28,12.28,0,0,0,4.86-.94,10.61,10.61,0,0,0,3.83-2.78l2.16,2.48a12.16,12.16,0,0,1-4.72,3.46,16,16,0,0,1-6.24,1.19,15.71,15.71,0,0,1-7.75-1.87,13.43,13.43,0,0,1-5.26-5.15,14.72,14.72,0,0,1-1.89-7.46,15.19,15.19,0,0,1,1.81-7.45,13.12,13.12,0,0,1,5-5.13,14.63,14.63,0,0,1,14.17,0,13,13,0,0,1,4.91,5.11,15.31,15.31,0,0,1,1.79,7.47Zm-20.6-9.69a10.3,10.3,0,0,0-3.16,6.83H1007a10.29,10.29,0,0,0-3.15-6.83,10.44,10.44,0,0,0-13.83,0Z" transform="translate(-183.36 -361)"/><path d="M1058.59,1510.09v40.07h-3.67v-5.62a11.59,11.59,0,0,1-4.56,4.37,13.39,13.39,0,0,1-6.4,1.52,14.46,14.46,0,0,1-7.24-1.84,13,13,0,0,1-5.07-5.13,16.23,16.23,0,0,1,0-15,12.82,12.82,0,0,1,5.07-5.1,14.54,14.54,0,0,1,7.24-1.81,13.4,13.4,0,0,1,6.24,1.43,11.86,11.86,0,0,1,4.56,4.18v-17.06Zm-8.93,35.56a9.84,9.84,0,0,0,3.78-3.92,12.86,12.86,0,0,0,0-11.55,9.78,9.78,0,0,0-3.78-3.92,11.26,11.26,0,0,0-10.8,0,9.65,9.65,0,0,0-3.78,3.92,12.77,12.77,0,0,0,0,11.55,9.71,9.71,0,0,0,3.78,3.92,11.33,11.33,0,0,0,10.8,0Z" transform="translate(-183.36 -361)"/><path d="M1094,1537.14h-23.76a10.15,10.15,0,0,0,3.4,7.16,11.27,11.27,0,0,0,7.78,2.72,12.2,12.2,0,0,0,4.85-.94,10.65,10.65,0,0,0,3.84-2.78l2.16,2.48a12.19,12.19,0,0,1-4.73,3.46,16,16,0,0,1-6.23,1.19,15.68,15.68,0,0,1-7.75-1.87,13.45,13.45,0,0,1-5.27-5.15,14.72,14.72,0,0,1-1.89-7.46,15.3,15.3,0,0,1,1.81-7.45,13.18,13.18,0,0,1,5-5.13,14.65,14.65,0,0,1,14.18,0,13.12,13.12,0,0,1,4.91,5.11,15.31,15.31,0,0,1,1.78,7.47Zm-20.6-9.69a10.25,10.25,0,0,0-3.16,6.83h20.14a10.3,10.3,0,0,0-3.16-6.83,10.42,10.42,0,0,0-13.82,0Z" transform="translate(-183.36 -361)"/><path d="M1142,1510.09v40.07h-3.67v-5.62a11.68,11.68,0,0,1-4.57,4.37,13.36,13.36,0,0,1-6.4,1.52,14.45,14.45,0,0,1-7.23-1.84,13.12,13.12,0,0,1-5.08-5.13,16.3,16.3,0,0,1,0-15,12.91,12.91,0,0,1,5.08-5.1,14.53,14.53,0,0,1,7.23-1.81,13.34,13.34,0,0,1,6.24,1.43,11.79,11.79,0,0,1,4.56,4.18v-17.06Zm-8.94,35.56a9.84,9.84,0,0,0,3.78-3.92,12.77,12.77,0,0,0,0-11.55,9.78,9.78,0,0,0-3.78-3.92,10.58,10.58,0,0,0-5.37-1.38,10.7,10.7,0,0,0-5.43,1.38,9.78,9.78,0,0,0-3.78,3.92,12.77,12.77,0,0,0,0,11.55,9.84,9.84,0,0,0,3.78,3.92,10.69,10.69,0,0,0,5.43,1.37A10.57,10.57,0,0,0,1133,1545.65Z" transform="translate(-183.36 -361)"/><path d="M1160.35,1523a13.73,13.73,0,0,1,6.62-1.45v3.72l-.92,0a9.08,9.08,0,0,0-7,2.75q-2.54,2.76-2.54,7.72v14.48h-3.83v-28.41h3.67v5.56A9.37,9.37,0,0,1,1160.35,1523Z" transform="translate(-183.36 -361)"/><path d="M1177.82,1548.56a13.63,13.63,0,0,1-5.18-5.15,15.65,15.65,0,0,1,0-14.91,13.51,13.51,0,0,1,5.18-5.13,15.88,15.88,0,0,1,14.8,0,13.39,13.39,0,0,1,5.16,5.13,15.87,15.87,0,0,1,0,14.91,13.51,13.51,0,0,1-5.16,5.15,15.58,15.58,0,0,1-14.8,0Zm12.83-2.91a9.64,9.64,0,0,0,3.75-3.92,13,13,0,0,0,0-11.55,9.58,9.58,0,0,0-3.75-3.92,11.37,11.37,0,0,0-10.86,0,9.78,9.78,0,0,0-3.78,3.92,12.86,12.86,0,0,0,0,11.55,9.84,9.84,0,0,0,3.78,3.92,11.45,11.45,0,0,0,10.86,0Z" transform="translate(-183.36 -361)"/><path d="M1230.45,1524.64q3.15,3.1,3.16,9v16.47h-3.84v-16.1q0-4.43-2.21-6.75a8.35,8.35,0,0,0-6.32-2.32,9.69,9.69,0,0,0-7.26,2.73,10.27,10.27,0,0,0-2.68,7.53v14.91h-3.83v-28.41h3.67V1527a10.63,10.63,0,0,1,4.35-4,13.81,13.81,0,0,1,6.45-1.43A11.61,11.61,0,0,1,1230.45,1524.64Z" transform="translate(-183.36 -361)"/><path d="M1268.87,1537.14h-23.76a10.15,10.15,0,0,0,3.4,7.16,11.26,11.26,0,0,0,7.77,2.72,12.21,12.21,0,0,0,4.86-.94,10.65,10.65,0,0,0,3.84-2.78l2.16,2.48a12.19,12.19,0,0,1-4.73,3.46,16,16,0,0,1-6.23,1.19,15.68,15.68,0,0,1-7.75-1.87,13.45,13.45,0,0,1-5.27-5.15,14.72,14.72,0,0,1-1.89-7.46,15.3,15.3,0,0,1,1.81-7.45,13.18,13.18,0,0,1,5-5.13,13.91,13.91,0,0,1,7.1-1.83,13.72,13.72,0,0,1,7.07,1.83,13.08,13.08,0,0,1,4.92,5.11,15.31,15.31,0,0,1,1.78,7.47Zm-20.6-9.69a10.25,10.25,0,0,0-3.16,6.83h20.14a10.3,10.3,0,0,0-3.16-6.83,9.73,9.73,0,0,0-6.94-2.62A9.62,9.62,0,0,0,1248.27,1527.45Z" transform="translate(-183.36 -361)"/><path d="M1275.1,1549.56a2.87,2.87,0,0,1-.83-2.1,2.81,2.81,0,0,1,.83-2.08,2.76,2.76,0,0,1,2-.84,2.85,2.85,0,0,1,2,.84,2.8,2.8,0,0,1,.86,2.08,2.86,2.86,0,0,1-.86,2.1,2.8,2.8,0,0,1-2,.87A2.71,2.71,0,0,1,1275.1,1549.56Z" transform="translate(-183.36 -361)"/><line class="cls-7" x1="592.02" y1="220.29" x2="846.84" y2="220.29"/><line class="cls-7" x1="1008.3" y1="267.13" x2="1008.3" y2="457"/><path d="M1084.53,565.92a13,13,0,0,1,5.08,5.1,16.35,16.35,0,0,1,0,15.07,13,13,0,0,1-5,5.1,14.49,14.49,0,0,1-7.26,1.81,13.49,13.49,0,0,1-6.24-1.43,11.81,11.81,0,0,1-4.56-4.19v15.83h-3.84V564.33h3.68v5.61a11.82,11.82,0,0,1,4.56-4.32,13.35,13.35,0,0,1,6.4-1.51A14.53,14.53,0,0,1,1084.53,565.92Zm-2.1,22.3a9.76,9.76,0,0,0,3.81-3.91,12,12,0,0,0,1.37-5.78,11.84,11.84,0,0,0-1.37-5.75,10,10,0,0,0-3.81-3.92,11.17,11.17,0,0,0-10.83,0,10,10,0,0,0-3.78,3.92,11.73,11.73,0,0,0-1.38,5.75,11.93,11.93,0,0,0,1.38,5.78,9.82,9.82,0,0,0,3.78,3.91,11.31,11.31,0,0,0,10.83,0Z" transform="translate(-183.36 -361)"/><path d="M1124,579.72h-23.76a10.13,10.13,0,0,0,3.4,7.15,11.28,11.28,0,0,0,7.78,2.73,12.28,12.28,0,0,0,4.86-1,10.58,10.58,0,0,0,3.83-2.78l2.16,2.49a12.13,12.13,0,0,1-4.72,3.45,16,16,0,0,1-6.24,1.19,15.78,15.78,0,0,1-7.75-1.86,13.41,13.41,0,0,1-5.27-5.16,14.71,14.71,0,0,1-1.89-7.45,15.27,15.27,0,0,1,1.81-7.45,13.05,13.05,0,0,1,5-5.13,14.58,14.58,0,0,1,14.18,0,13,13,0,0,1,4.91,5.1,15.35,15.35,0,0,1,1.78,7.48Zm-20.6-9.7a10.27,10.27,0,0,0-3.16,6.83h20.14a10.32,10.32,0,0,0-3.16-6.83,10.42,10.42,0,0,0-13.82,0Z" transform="translate(-183.36 -361)"/><path d="M1146.85,591a7.21,7.21,0,0,1-2.67,1.49,10.87,10.87,0,0,1-3.32.51,8.33,8.33,0,0,1-6.16-2.16,8.24,8.24,0,0,1-2.16-6.1V567.57h-5.08v-3.24h5.08v-6.21h3.83v6.21H1145v3.24h-8.64v16.95a5.39,5.39,0,0,0,1.27,3.86,4.8,4.8,0,0,0,3.65,1.33,7.1,7.1,0,0,0,2.29-.38,5.63,5.63,0,0,0,1.92-1.08Z" transform="translate(-183.36 -361)"/><path d="M1153.76,557.31a2.66,2.66,0,0,1-.81-1.95,2.59,2.59,0,0,1,.81-1.89,2.72,2.72,0,0,1,2-.81,2.78,2.78,0,0,1,2,.78,2.53,2.53,0,0,1,.81,1.87,2.83,2.83,0,0,1-4.81,2Zm0,7h3.84v28.4h-3.84Z" transform="translate(-183.36 -361)"/><path d="M1183.3,591a7.21,7.21,0,0,1-2.67,1.49,10.88,10.88,0,0,1-3.33.51,7.52,7.52,0,0,1-8.31-8.26V567.57h-5.08v-3.24H1169v-6.21h3.83v6.21h8.64v3.24h-8.64v16.95a5.39,5.39,0,0,0,1.27,3.86,4.8,4.8,0,0,0,3.65,1.33,7.1,7.1,0,0,0,2.29-.38,5.63,5.63,0,0,0,1.92-1.08Z" transform="translate(-183.36 -361)"/><path d="M1210.05,557a5.66,5.66,0,0,0-1.26,4v3.35h8.74v3.24h-8.64v25.16h-3.83V567.57H1200v-3.24h5.08v-3.51a8.38,8.38,0,0,1,2.24-6.16,8.53,8.53,0,0,1,6.35-2.27,10.92,10.92,0,0,1,3.13.46,7.37,7.37,0,0,1,2.54,1.32L1218,557a6.32,6.32,0,0,0-4.21-1.41A4.92,4.92,0,0,0,1210.05,557Z" transform="translate(-183.36 -361)"/><path d="M1226.44,591.14a13.58,13.58,0,0,1-5.18-5.16,15.63,15.63,0,0,1,0-14.9,13.37,13.37,0,0,1,5.18-5.13,15.8,15.8,0,0,1,14.8,0,13.19,13.19,0,0,1,5.16,5.13,15.85,15.85,0,0,1,0,14.9,13.4,13.4,0,0,1-5.16,5.16,15.65,15.65,0,0,1-14.8,0Zm12.83-2.92a9.62,9.62,0,0,0,3.75-3.91,13,13,0,0,0,0-11.56,9.64,9.64,0,0,0-3.75-3.92,11.45,11.45,0,0,0-10.86,0,9.84,9.84,0,0,0-3.78,3.92,12.88,12.88,0,0,0,0,11.56,9.82,9.82,0,0,0,3.78,3.91,11.37,11.37,0,0,0,10.86,0Z" transform="translate(-183.36 -361)"/><path d="M1263.78,565.57a13.73,13.73,0,0,1,6.62-1.46v3.73l-.92-.06a9.06,9.06,0,0,0-7,2.76c-1.69,1.83-2.54,4.41-2.54,7.72v14.47h-3.83v-28.4h3.67v5.56A9.28,9.28,0,0,1,1263.78,565.57Z" transform="translate(-183.36 -361)"/><path d="M1321.13,567.19q3.06,3.07,3,9.07v16.47h-3.83V576.64q0-4.42-2.13-6.75a7.77,7.77,0,0,0-6-2.32,9.07,9.07,0,0,0-7,2.72,10.65,10.65,0,0,0-2.54,7.54v14.9h-3.83V576.64q0-4.42-2.14-6.75a7.81,7.81,0,0,0-6.07-2.32,9.09,9.09,0,0,0-6.94,2.72,10.57,10.57,0,0,0-2.56,7.54v14.9h-3.84v-28.4H1281v5.18a10.24,10.24,0,0,1,4.22-4,13.31,13.31,0,0,1,6.21-1.4,12.15,12.15,0,0,1,6.18,1.51,9.3,9.3,0,0,1,3.91,4.48,11.18,11.18,0,0,1,4.51-4.4,13.91,13.91,0,0,1,6.73-1.59Q1318.08,564.11,1321.13,567.19Z" transform="translate(-183.36 -361)"/><path d="M1353.07,566.89c2,1.86,3,4.6,3,8.24v17.6h-3.67V588.3a8.74,8.74,0,0,1-3.81,3.46,13.27,13.27,0,0,1-6,1.24,11.69,11.69,0,0,1-7.56-2.27,7.79,7.79,0,0,1-.19-11.82q2.61-2.22,8.34-2.22h9V575a7.29,7.29,0,0,0-2-5.58,8.48,8.48,0,0,0-6-1.92,15,15,0,0,0-5.18.89,12.89,12.89,0,0,0-4.27,2.46l-1.73-2.87a15.44,15.44,0,0,1,5.19-2.83,20,20,0,0,1,6.37-1Q1350.11,564.11,1353.07,566.89Zm-4.32,21.6a8.89,8.89,0,0,0,3.46-4.29v-4.65h-8.91q-7.29,0-7.29,5.08a4.63,4.63,0,0,0,1.89,3.91,8.55,8.55,0,0,0,5.29,1.44A10.1,10.1,0,0,0,1348.75,588.49Z" transform="translate(-183.36 -361)"/><path d="M1381.42,591a7.21,7.21,0,0,1-2.67,1.49,10.82,10.82,0,0,1-3.32.51,8.33,8.33,0,0,1-6.16-2.16,8.24,8.24,0,0,1-2.16-6.1V567.57H1362v-3.24h5.07v-6.21H1371v6.21h8.64v3.24H1371v16.95a5.35,5.35,0,0,0,1.27,3.86,4.77,4.77,0,0,0,3.64,1.33,7.16,7.16,0,0,0,2.3-.38,5.68,5.68,0,0,0,1.91-1.08Z" transform="translate(-183.36 -361)"/><path class="cls-2" d="M1091.44,987.86s-50.65,26.24-26.44,113.64c0,0-2.34-37.09,25.21-66.24" transform="translate(-183.36 -361)"/><path class="cls-3" d="M1103.5,939.27s-66.17,23.35-50.38,130.75c0,0,3-44.36,41.36-74.71" transform="translate(-183.36 -361)"/><path class="cls-5" d="M1268.54,915.59s70.53,7.74,64.08,106.63c0,0-15.38-56.93-68.68-55.65C1263.94,966.57,1280,943.59,1268.54,915.59Z" transform="translate(-183.36 -361)"/><path class="cls-5" d="M1259.9,979s-5.56,17.47-32.45,22c0,0,17.66,43.27,57,24.94s9.87-11,9.87-11S1278.23,989.34,1259.9,979Z" transform="translate(-183.36 -361)"/><path class="cls-6" d="M1260.91,905.87s-73.62-112.4-154-3.17,28.1,303.17,28.1,303.17-15.83-39.18-8.31-104.49,44.28-92.7,45.12-93c1.06-.39,79.94-26.12,69.26-66.1S1260.91,905.87,1260.91,905.87Z" transform="translate(-183.36 -361)"/><circle class="cls-1" cx="1017.4" cy="547.05" r="19.17"/><path class="cls-6" d="M1200.32,888.54s14.13,13.12.44,19.51c0,0,14.25,1.53,15.11-11.79C1215.87,896.26,1211.27,888.54,1200.32,888.54Z" transform="translate(-183.36 -361)"/><path class="cls-6" d="M1220.86,908.32s-13,13-19.18-.27c0,0-2.49,14.49,10.81,15.49A18.24,18.24,0,0,0,1220.86,908.32Z" transform="translate(-183.36 -361)"/><path class="cls-6" d="M1201.81,929.7s-13.42-14.64-.2-22.14c0,0-14.07-1.25-14.77,14.13A17,17,0,0,0,1201.81,929.7Z" transform="translate(-183.36 -361)"/><path class="cls-6" d="M1181.47,908.16s13-13.86,19.72-.28c0,0,1.38-14.26-12.34-14.92C1188.85,893,1181.31,897.22,1181.47,908.16Z" transform="translate(-183.36 -361)"/><path class="cls-6" d="M1132.53,875s-93.46,37.4-90.4,159.38c0,0,8.21-49.39,49.93-79.39" transform="translate(-183.36 -361)"/><rect x="726.27" y="697.4" width="65.93" height="65.93"/><rect class="cls-3" x="726.27" y="782.41" width="65.93" height="65.93"/><rect class="cls-2" x="726.27" y="866.63" width="65.93" height="65.93"/><rect class="cls-5" x="726.27" y="951.64" width="65.93" height="65.93"/><path d="M482.7,1029.71a24.48,24.48,0,0,1-9.36-9.15,26.8,26.8,0,0,1,0-26.2,24.48,24.48,0,0,1,9.36-9.15,26.92,26.92,0,0,1,13.35-3.31,28.08,28.08,0,0,1,10.08,1.76,20.89,20.89,0,0,1,7.85,5.22l-2.3,2.38q-6-6-15.48-6a23.39,23.39,0,0,0-11.52,2.88,21.11,21.11,0,0,0-8.14,8,23.27,23.27,0,0,0,0,22.68,21.11,21.11,0,0,0,8.14,8,23.28,23.28,0,0,0,11.52,2.88,21.12,21.12,0,0,0,15.48-6.05L514,1026a21.05,21.05,0,0,1-7.88,5.26,27.6,27.6,0,0,1-10.05,1.8A26.92,26.92,0,0,1,482.7,1029.71Z" transform="translate(-183.36 -361)"/><path d="M528.49,1030.5a17.59,17.59,0,0,1-6.73-6.8,20.95,20.95,0,0,1,0-19.66,17.59,17.59,0,0,1,6.73-6.8,20.07,20.07,0,0,1,19.22,0,17.59,17.59,0,0,1,6.73,6.8,20.95,20.95,0,0,1,0,19.66,17.59,17.59,0,0,1-6.73,6.8,20.07,20.07,0,0,1-19.22,0Zm17.35-2.81a14.43,14.43,0,0,0,5.4-5.61,18,18,0,0,0,0-16.42,14.53,14.53,0,0,0-5.4-5.62,15.91,15.91,0,0,0-15.48,0,14.53,14.53,0,0,0-5.4,5.62,18,18,0,0,0,0,16.42,14.43,14.43,0,0,0,5.4,5.61,15.84,15.84,0,0,0,15.48,0Z" transform="translate(-183.36 -361)"/><path d="M601.46,979.24v53.42h-3.53v-8.86a16.1,16.1,0,0,1-6.26,6.77,17.64,17.64,0,0,1-9.15,2.38,18.7,18.7,0,0,1-9.5-2.45,17.54,17.54,0,0,1-6.66-6.77,21.46,21.46,0,0,1,0-19.76A17.21,17.21,0,0,1,573,997.2a18.88,18.88,0,0,1,9.5-2.41,17.38,17.38,0,0,1,9,2.37,17,17,0,0,1,6.3,6.63V979.24Zm-11,48.45a14.43,14.43,0,0,0,5.4-5.61,18,18,0,0,0,0-16.42,14.53,14.53,0,0,0-5.4-5.62,15.91,15.91,0,0,0-15.48,0,14.53,14.53,0,0,0-5.4,5.62,18,18,0,0,0,0,16.42,14.43,14.43,0,0,0,5.4,5.61,15.84,15.84,0,0,0,15.48,0Z" transform="translate(-183.36 -361)"/><path d="M648.4,1014.73H616.08a15.65,15.65,0,0,0,2.23,7.81,14.34,14.34,0,0,0,5.65,5.3,17.1,17.1,0,0,0,8,1.87,17.33,17.33,0,0,0,6.8-1.33,13.24,13.24,0,0,0,5.22-3.93l2.09,2.38a15.89,15.89,0,0,1-6.16,4.53,21.38,21.38,0,0,1-18-.86,17.76,17.76,0,0,1-6.88-6.77,19.49,19.49,0,0,1-2.48-9.86,20.45,20.45,0,0,1,2.34-9.83,17.29,17.29,0,0,1,6.44-6.8,18.63,18.63,0,0,1,18.4,0,17.17,17.17,0,0,1,6.41,6.73,20.24,20.24,0,0,1,2.34,9.79Zm-25-15a13.43,13.43,0,0,0-5.07,5,16,16,0,0,0-2.2,7.23H645a15,15,0,0,0-2.16-7.2A14,14,0,0,0,630.55,998,14.36,14.36,0,0,0,623.42,999.72Z" transform="translate(-183.36 -361)"/><path d="M683.25,1030.5a17.56,17.56,0,0,1-6.77-6.8,21.09,21.09,0,0,1,0-19.73,17.28,17.28,0,0,1,6.77-6.77,19.71,19.71,0,0,1,9.79-2.41,19.1,19.1,0,0,1,8.25,1.76,14.92,14.92,0,0,1,6,5.15l-2.67,1.94a12.81,12.81,0,0,0-5-4.21A15.39,15.39,0,0,0,693,998a15.66,15.66,0,0,0-7.88,2,14.05,14.05,0,0,0-5.47,5.58,18.3,18.3,0,0,0,0,16.56,14.05,14.05,0,0,0,5.47,5.58,15.66,15.66,0,0,0,7.88,2,15.24,15.24,0,0,0,6.59-1.41,12.73,12.73,0,0,0,5-4.21l2.67,2a14.89,14.89,0,0,1-6,5.14A19,19,0,0,1,693,1033,19.52,19.52,0,0,1,683.25,1030.5Z" transform="translate(-183.36 -361)"/><path d="M722.53,1030.5a17.69,17.69,0,0,1-6.74-6.8,21,21,0,0,1,0-19.66,17.69,17.69,0,0,1,6.74-6.8,20.07,20.07,0,0,1,19.22,0,17.59,17.59,0,0,1,6.73,6.8,20.95,20.95,0,0,1,0,19.66,17.59,17.59,0,0,1-6.73,6.8,20.07,20.07,0,0,1-19.22,0Zm17.35-2.81a14.43,14.43,0,0,0,5.4-5.61,18,18,0,0,0,0-16.42,14.53,14.53,0,0,0-5.4-5.62,15.91,15.91,0,0,0-15.48,0,14.53,14.53,0,0,0-5.4,5.62,18,18,0,0,0,0,16.42,14.43,14.43,0,0,0,5.4,5.61,15.84,15.84,0,0,0,15.48,0Z" transform="translate(-183.36 -361)"/><path d="M795,995.08v37.58h-3.45v-8.06a13.92,13.92,0,0,1-5.55,6.15,16.42,16.42,0,0,1-8.64,2.2q-7.33,0-11.52-4.11t-4.17-11.8v-22h3.6v21.67q0,6.33,3.24,9.65t9.14,3.31c4.23,0,7.57-1.32,10.05-4s3.7-6.19,3.7-10.66v-20Z" transform="translate(-183.36 -361)"/><path d="M810.26,979.24h3.6v53.42h-3.6Z" transform="translate(-183.36 -361)"/><path d="M860.8,1014.73H828.47a15.75,15.75,0,0,0,2.23,7.81,14.36,14.36,0,0,0,5.66,5.3,17.06,17.06,0,0,0,8,1.87,17.37,17.37,0,0,0,6.81-1.33,13.24,13.24,0,0,0,5.22-3.93l2.09,2.38a16,16,0,0,1-6.16,4.53,21.4,21.4,0,0,1-18-.86,17.74,17.74,0,0,1-6.87-6.77,19.39,19.39,0,0,1-2.49-9.86,20.45,20.45,0,0,1,2.34-9.83,17.25,17.25,0,0,1,6.45-6.8,18.61,18.61,0,0,1,18.39,0,17.1,17.1,0,0,1,6.41,6.73,20.24,20.24,0,0,1,2.34,9.79Zm-25-15a13.39,13.39,0,0,0-5.08,5,16.3,16.3,0,0,0-2.2,7.23h28.8a15,15,0,0,0-2.16-7.2A14,14,0,0,0,842.94,998,14.32,14.32,0,0,0,835.82,999.72Z" transform="translate(-183.36 -361)"/><path d="M904.94,995.08v37.58h-3.46v-8.06a14,14,0,0,1-5.54,6.15,16.47,16.47,0,0,1-8.64,2.2q-7.35,0-11.53-4.11T871.6,1017v-22h3.6v21.67q0,6.33,3.24,9.65t9.14,3.31c4.23,0,7.57-1.32,10-4s3.7-6.19,3.7-10.66v-20Z" transform="translate(-183.36 -361)"/><path d="M929.05,997a17.16,17.16,0,0,1,8.93-2.19v3.53l-.86-.08q-6.27,0-9.79,3.93t-3.53,10.91v19.58h-3.6V995.08h3.45v8.2A13.14,13.14,0,0,1,929.05,997Z" transform="translate(-183.36 -361)"/><path d="M964.51,1000a3,3,0,0,1-.9-2.2,2.88,2.88,0,0,1,.9-2.16,3.06,3.06,0,0,1,4.25,0,2.88,2.88,0,0,1,.9,2.16,3,3,0,0,1-.9,2.2,3,3,0,0,1-4.25,0Zm0,32a3,3,0,0,1-.9-2.2,2.88,2.88,0,0,1,.9-2.16,3.06,3.06,0,0,1,4.25,0,2.88,2.88,0,0,1,.9,2.16,3,3,0,0,1-.9,2.2,3,3,0,0,1-4.25,0Z" transform="translate(-183.36 -361)"/><path d="M538.61,1085.8l-2,16.12H547v2.88h-10.8l-1.73,14.26h-2.88l1.73-14.26H517.58l-1.8,14.26H512.9l1.73-14.26H504.26v-2.88H515l2-16.12H506.49v-2.88h10.88l1.72-14.26h3l-1.8,14.26h15.84l1.72-14.26h2.88L539,1082.92h10.36v2.88Zm-2.88,0H519.89l-1.95,16.12h15.77Z" transform="translate(-183.36 -361)"/><path d="M565.06,1116.29a20.32,20.32,0,0,1-7-8.89,38.2,38.2,0,0,1,0-27.08,20.38,20.38,0,0,1,7-8.89,18.38,18.38,0,0,1,20.52,0,20.4,20.4,0,0,1,7,8.89,38.2,38.2,0,0,1,0,27.08,20.34,20.34,0,0,1-7,8.89,18.38,18.38,0,0,1-20.52,0Zm18.65-2.88a16.85,16.85,0,0,0,5.65-7.63,36.18,36.18,0,0,0,0-23.84,16.9,16.9,0,0,0-5.65-7.63,14.68,14.68,0,0,0-16.77,0,17,17,0,0,0-5.66,7.63,36.35,36.35,0,0,0,0,23.84,16.93,16.93,0,0,0,5.66,7.63,14.68,14.68,0,0,0,16.77,0Z" transform="translate(-183.36 -361)"/><path d="M612.44,1116.29a20.25,20.25,0,0,1-7-8.89,38.06,38.06,0,0,1,0-27.08,20.31,20.31,0,0,1,7-8.89,18.38,18.38,0,0,1,20.52,0,20.31,20.31,0,0,1,7,8.89,38.06,38.06,0,0,1,0,27.08,20.25,20.25,0,0,1-7,8.89,18.38,18.38,0,0,1-20.52,0Zm18.65-2.88a16.92,16.92,0,0,0,5.65-7.63,36.18,36.18,0,0,0,0-23.84,17,17,0,0,0-5.65-7.63,14.7,14.7,0,0,0-16.78,0,17,17,0,0,0-5.65,7.63,36.18,36.18,0,0,0,0,23.84,16.92,16.92,0,0,0,5.65,7.63,14.7,14.7,0,0,0,16.78,0Z" transform="translate(-183.36 -361)"/><path d="M659.81,1116.29a20.32,20.32,0,0,1-7-8.89,38.2,38.2,0,0,1,0-27.08,20.38,20.38,0,0,1,7-8.89,18.38,18.38,0,0,1,20.52,0,20.4,20.4,0,0,1,7,8.89,38.2,38.2,0,0,1,0,27.08,20.34,20.34,0,0,1-7,8.89,18.38,18.38,0,0,1-20.52,0Zm18.65-2.88a16.85,16.85,0,0,0,5.65-7.63,36.18,36.18,0,0,0,0-23.84,16.9,16.9,0,0,0-5.65-7.63,14.68,14.68,0,0,0-16.77,0,17,17,0,0,0-5.66,7.63,36.35,36.35,0,0,0,0,23.84,16.93,16.93,0,0,0,5.66,7.63,14.68,14.68,0,0,0,16.77,0Z" transform="translate(-183.36 -361)"/><path d="M707.19,1116.29a20.25,20.25,0,0,1-7-8.89,38.06,38.06,0,0,1,0-27.08,20.31,20.31,0,0,1,7-8.89,18.38,18.38,0,0,1,20.52,0,20.31,20.31,0,0,1,7,8.89,38.06,38.06,0,0,1,0,27.08,20.25,20.25,0,0,1-7,8.89,18.38,18.38,0,0,1-20.52,0Zm18.65-2.88a16.92,16.92,0,0,0,5.65-7.63,36.18,36.18,0,0,0,0-23.84,17,17,0,0,0-5.65-7.63,14.7,14.7,0,0,0-16.78,0,17,17,0,0,0-5.65,7.63,36.18,36.18,0,0,0,0,23.84,16.92,16.92,0,0,0,5.65,7.63,14.7,14.7,0,0,0,16.78,0Z" transform="translate(-183.36 -361)"/><path d="M754.56,1116.29a20.32,20.32,0,0,1-7-8.89,38.2,38.2,0,0,1,0-27.08,20.38,20.38,0,0,1,7-8.89,18.38,18.38,0,0,1,20.52,0,20.4,20.4,0,0,1,7,8.89,38.2,38.2,0,0,1,0,27.08,20.34,20.34,0,0,1-7,8.89,18.38,18.38,0,0,1-20.52,0Zm18.65-2.88a16.85,16.85,0,0,0,5.65-7.63,36.18,36.18,0,0,0,0-23.84,16.9,16.9,0,0,0-5.65-7.63,14.68,14.68,0,0,0-16.77,0,17,17,0,0,0-5.66,7.63,36.35,36.35,0,0,0,0,23.84,16.93,16.93,0,0,0,5.66,7.63,14.68,14.68,0,0,0,16.77,0Z" transform="translate(-183.36 -361)"/><path d="M801.94,1116.29a20.25,20.25,0,0,1-7-8.89,38.06,38.06,0,0,1,0-27.08,20.31,20.31,0,0,1,7-8.89,18.38,18.38,0,0,1,20.52,0,20.31,20.31,0,0,1,7,8.89,38.06,38.06,0,0,1,0,27.08,20.25,20.25,0,0,1-7,8.89,18.38,18.38,0,0,1-20.52,0Zm18.65-2.88a16.92,16.92,0,0,0,5.65-7.63,36.18,36.18,0,0,0,0-23.84,17,17,0,0,0-5.65-7.63,14.7,14.7,0,0,0-16.78,0,17,17,0,0,0-5.65,7.63,36.18,36.18,0,0,0,0,23.84,16.92,16.92,0,0,0,5.65,7.63,14.7,14.7,0,0,0,16.78,0Z" transform="translate(-183.36 -361)"/><path d="M538.61,1172.2l-2,16.13H547v2.88h-10.8l-1.73,14.25h-2.88l1.73-14.25H517.58l-1.8,14.25H512.9l1.73-14.25H504.26v-2.88H515l2-16.13H506.49v-2.88h10.88l1.72-14.26h3l-1.8,14.26h15.84l1.72-14.26h2.88L539,1169.32h10.36v2.88Zm-2.88,0H519.89l-1.95,16.13h15.77Z" transform="translate(-183.36 -361)"/><path d="M583.64,1181.09a13,13,0,0,1,4.36,10.19,14.08,14.08,0,0,1-2,7.52,13.55,13.55,0,0,1-6,5.15,22.51,22.51,0,0,1-9.61,1.87,28.81,28.81,0,0,1-10.3-1.83,18.17,18.17,0,0,1-7.49-4.94l1.87-2.8a18,18,0,0,0,6.66,4.46,24.24,24.24,0,0,0,9.26,1.73q6.69,0,10.29-3a10.05,10.05,0,0,0,3.6-8.17,9.94,9.94,0,0,0-3.67-8.21q-3.68-3-11-3H566.4v-2.67l14.9-19.08H554.44v-3.31h31.61v2.59L570.93,1177Q579.29,1177.25,583.64,1181.09Z" transform="translate(-183.36 -361)"/><path d="M623.46,1181.09a12.94,12.94,0,0,1,4.35,10.19,14.08,14.08,0,0,1-2,7.52,13.58,13.58,0,0,1-6,5.15,22.44,22.44,0,0,1-9.61,1.87,28.72,28.72,0,0,1-10.29-1.83,18.11,18.11,0,0,1-7.49-4.94l1.87-2.8a17.82,17.82,0,0,0,6.66,4.46,24.18,24.18,0,0,0,9.25,1.73q6.71,0,10.3-3a11,11,0,0,0-.07-16.38q-3.67-3-11-3h-3.17v-2.67l14.91-19.08H594.26v-3.31h31.61v2.59L610.75,1177Q619.11,1177.25,623.46,1181.09Z" transform="translate(-183.36 -361)"/><path d="M663.27,1181.09a12.92,12.92,0,0,1,4.36,10.19,14,14,0,0,1-2,7.52,13.5,13.5,0,0,1-6,5.15,22.47,22.47,0,0,1-9.61,1.87,28.81,28.81,0,0,1-10.3-1.83,18.24,18.24,0,0,1-7.49-4.94l1.88-2.8a17.82,17.82,0,0,0,6.66,4.46,24.18,24.18,0,0,0,9.25,1.73q6.69,0,10.29-3a11,11,0,0,0-.07-16.38c-2.44-2-6.12-3-11-3H646v-2.67l14.9-19.08H634.08v-3.31h31.61v2.59L650.56,1177Q658.92,1177.25,663.27,1181.09Z" transform="translate(-183.36 -361)"/><path d="M703.09,1181.09a13,13,0,0,1,4.36,10.19,14.08,14.08,0,0,1-2,7.52,13.55,13.55,0,0,1-6,5.15,22.51,22.51,0,0,1-9.61,1.87,28.81,28.81,0,0,1-10.3-1.83,18.17,18.17,0,0,1-7.49-4.94l1.87-2.8a17.9,17.9,0,0,0,6.66,4.46,24.2,24.2,0,0,0,9.26,1.73q6.69,0,10.29-3a10.05,10.05,0,0,0,3.6-8.17,9.94,9.94,0,0,0-3.67-8.21q-3.67-3-11-3h-3.16v-2.67l14.9-19.08H673.89v-3.31H705.5v2.59L690.38,1177Q698.74,1177.25,703.09,1181.09Z" transform="translate(-183.36 -361)"/><path d="M742.91,1181.09a12.94,12.94,0,0,1,4.35,10.19,14.08,14.08,0,0,1-2,7.52,13.58,13.58,0,0,1-6,5.15,22.44,22.44,0,0,1-9.61,1.87,28.72,28.72,0,0,1-10.29-1.83,18.11,18.11,0,0,1-7.49-4.94l1.87-2.8a17.82,17.82,0,0,0,6.66,4.46,24.18,24.18,0,0,0,9.25,1.73q6.71,0,10.3-3a11,11,0,0,0-.07-16.38q-3.68-3-11-3h-3.17v-2.67l14.91-19.08H713.71v-3.31h31.61v2.59L730.2,1177Q738.56,1177.25,742.91,1181.09Z" transform="translate(-183.36 -361)"/><path d="M782.72,1181.09a12.92,12.92,0,0,1,4.36,10.19,14,14,0,0,1-2,7.52,13.5,13.5,0,0,1-6,5.15,22.47,22.47,0,0,1-9.61,1.87,28.81,28.81,0,0,1-10.3-1.83,18.24,18.24,0,0,1-7.49-4.94l1.88-2.8a17.82,17.82,0,0,0,6.66,4.46,24.18,24.18,0,0,0,9.25,1.73q6.69,0,10.29-3a11,11,0,0,0-.07-16.38c-2.44-2-6.12-3-11-3h-3.17v-2.67l14.9-19.08H753.53v-3.31h31.61v2.59L770,1177Q778.36,1177.25,782.72,1181.09Z" transform="translate(-183.36 -361)"/><path d="M538.61,1258.6l-2,16.12H547v2.88h-10.8l-1.73,14.26h-2.88l1.73-14.26H517.58l-1.8,14.26H512.9l1.73-14.26H504.26v-2.88H515l2-16.12H506.49v-2.88h10.88l1.72-14.26h3l-1.8,14.26h15.84l1.72-14.26h2.88L539,1255.72h10.36v2.88Zm-2.88,0H519.89l-1.95,16.12h15.77Z" transform="translate(-183.36 -361)"/><path d="M597.64,1277.89H587.06v14h-3.6v-14H554.73v-2.66l27.36-33.77h4.11l-26.86,33.19h24.19v-12.31h3.53v12.31h10.58Z" transform="translate(-183.36 -361)"/><path d="M607.51,1241.46h19.94a29.17,29.17,0,0,1,13.93,3.24,23.71,23.71,0,0,1,9.47,9,26.69,26.69,0,0,1,0,26,23.71,23.71,0,0,1-9.47,9,29.17,29.17,0,0,1-13.93,3.24H607.51Zm19.65,47.09a26.32,26.32,0,0,0,12.32-2.77,19.84,19.84,0,0,0,8.2-7.74,23.92,23.92,0,0,0,0-22.76,19.84,19.84,0,0,0-8.2-7.74,26.44,26.44,0,0,0-12.32-2.77h-16v43.78Z" transform="translate(-183.36 -361)"/><path d="M704.2,1277.89H693.62v14H690v-14H661.29v-2.66l27.36-33.77h4.1l-26.85,33.19h24.19v-12.31h3.53v12.31H704.2Z" transform="translate(-183.36 -361)"/><path d="M714.07,1241.46H734a29.17,29.17,0,0,1,13.93,3.24,23.71,23.71,0,0,1,9.47,9,26.69,26.69,0,0,1,0,26,23.71,23.71,0,0,1-9.47,9,29.17,29.17,0,0,1-13.93,3.24H714.07Zm19.65,47.09a26.25,26.25,0,0,0,12.31-2.77,19.81,19.81,0,0,0,8.21-7.74,23.92,23.92,0,0,0,0-22.76,19.81,19.81,0,0,0-8.21-7.74,26.37,26.37,0,0,0-12.31-2.77h-16v43.78Z" transform="translate(-183.36 -361)"/><path d="M810.76,1277.89H800.18v14h-3.6v-14H767.85v-2.66l27.36-33.77h4.1l-26.85,33.19h24.19v-12.31h3.53v12.31h10.58Z" transform="translate(-183.36 -361)"/><path d="M820.62,1241.46h20a29.19,29.19,0,0,1,13.93,3.24,23.71,23.71,0,0,1,9.47,9,26.69,26.69,0,0,1,0,26,23.71,23.71,0,0,1-9.47,9,29.19,29.19,0,0,1-13.93,3.24h-20Zm19.66,47.09a26.25,26.25,0,0,0,12.31-2.77,19.87,19.87,0,0,0,8.21-7.74,23.92,23.92,0,0,0,0-22.76,19.87,19.87,0,0,0-8.21-7.74,26.37,26.37,0,0,0-12.31-2.77h-16v43.78Z" transform="translate(-183.36 -361)"/><path d="M538.61,1345l-2,16.13H547V1364h-10.8l-1.73,14.26h-2.88l1.73-14.26H517.58l-1.8,14.26H512.9l1.73-14.26H504.26v-2.87H515l2-16.13H506.49v-2.88h10.88l1.72-14.26h3l-1.8,14.26h15.84l1.72-14.26h2.88L539,1342.12h10.36V1345Zm-2.88,0H519.89l-1.95,16.13h15.77Z" transform="translate(-183.36 -361)"/><path d="M584.58,1350.29a13.76,13.76,0,0,1,5.94,5.25,15.93,15.93,0,0,1-.08,15.88,14.37,14.37,0,0,1-6,5.33,19.37,19.37,0,0,1-8.64,1.87q-9.8,0-15-6.66t-5.22-18.61a32.6,32.6,0,0,1,2.77-14.15,19.66,19.66,0,0,1,7.81-8.75,23,23,0,0,1,11.81-3q7.13,0,11.45,2.59l-1.52,3q-3.6-2.3-9.93-2.3-8.72,0-13.72,5.65t-5,16.38a38.67,38.67,0,0,0,.43,6,13.4,13.4,0,0,1,5.87-7.63,18.78,18.78,0,0,1,10.19-2.74A20.19,20.19,0,0,1,584.58,1350.29Zm.68,21.89a11.07,11.07,0,0,0,3.67-8.68,10.94,10.94,0,0,0-3.67-8.64q-3.68-3.24-10-3.24a16,16,0,0,0-7.23,1.59,12.07,12.07,0,0,0-5,4.31,11.05,11.05,0,0,0-1.77,6.12,10.75,10.75,0,0,0,1.7,5.76,12.05,12.05,0,0,0,4.93,4.4,16.94,16.94,0,0,0,7.77,1.65A13.87,13.87,0,0,0,585.26,1372.18Z" transform="translate(-183.36 -361)"/><path d="M627.92,1350.29a13.65,13.65,0,0,1,5.94,5.25,15.9,15.9,0,0,1-.07,15.88,14.39,14.39,0,0,1-6,5.33,19.31,19.31,0,0,1-8.64,1.87q-9.79,0-15-6.66t-5.22-18.61a32.6,32.6,0,0,1,2.77-14.15,19.66,19.66,0,0,1,7.81-8.75,23,23,0,0,1,11.81-3q7.13,0,11.45,2.59l-1.51,3q-3.6-2.3-9.94-2.3-8.72,0-13.72,5.65t-5,16.38a39.92,39.92,0,0,0,.43,6,13.45,13.45,0,0,1,5.87-7.63,18.78,18.78,0,0,1,10.19-2.74A20.19,20.19,0,0,1,627.92,1350.29Zm.68,21.89a11.07,11.07,0,0,0,3.67-8.68,10.94,10.94,0,0,0-3.67-8.64q-3.68-3.24-10-3.24a16.05,16.05,0,0,0-7.24,1.59,12.14,12.14,0,0,0-5,4.31,11,11,0,0,0-1.76,6.12,10.74,10.74,0,0,0,1.69,5.76,12.12,12.12,0,0,0,4.93,4.4,17,17,0,0,0,7.78,1.65A13.86,13.86,0,0,0,628.6,1372.18Z" transform="translate(-183.36 -361)"/><path d="M671.26,1350.29a13.65,13.65,0,0,1,5.94,5.25,15.9,15.9,0,0,1-.07,15.88,14.33,14.33,0,0,1-6,5.33,19.3,19.3,0,0,1-8.63,1.87q-9.79,0-15-6.66t-5.22-18.61a32.6,32.6,0,0,1,2.78-14.15,19.6,19.6,0,0,1,7.81-8.75,23,23,0,0,1,11.8-3q7.14,0,11.45,2.59l-1.51,3q-3.6-2.3-9.94-2.3-8.7,0-13.71,5.65t-5,16.38a38.61,38.61,0,0,0,.44,6,13.43,13.43,0,0,1,5.86-7.63,18.83,18.83,0,0,1,10.19-2.74A20.19,20.19,0,0,1,671.26,1350.29Zm.69,21.89a11.07,11.07,0,0,0,3.67-8.68,10.94,10.94,0,0,0-3.67-8.64q-3.68-3.24-10-3.24a16.08,16.08,0,0,0-7.24,1.59,12.2,12.2,0,0,0-5,4.31,11.13,11.13,0,0,0-1.76,6.12,10.74,10.74,0,0,0,1.69,5.76,12.15,12.15,0,0,0,4.94,4.4,16.91,16.91,0,0,0,7.77,1.65A13.87,13.87,0,0,0,672,1372.18Z" transform="translate(-183.36 -361)"/><path d="M714.61,1350.29a13.76,13.76,0,0,1,5.94,5.25,15.93,15.93,0,0,1-.08,15.88,14.37,14.37,0,0,1-6,5.33,19.37,19.37,0,0,1-8.64,1.87q-9.79,0-15-6.66t-5.22-18.61a32.6,32.6,0,0,1,2.77-14.15,19.66,19.66,0,0,1,7.81-8.75,23,23,0,0,1,11.81-3q7.13,0,11.45,2.59l-1.52,3q-3.6-2.3-9.93-2.3-8.71,0-13.72,5.65t-5,16.38a38.67,38.67,0,0,0,.43,6,13.4,13.4,0,0,1,5.87-7.63,18.78,18.78,0,0,1,10.19-2.74A20.19,20.19,0,0,1,714.61,1350.29Zm.68,21.89a11.07,11.07,0,0,0,3.67-8.68,10.94,10.94,0,0,0-3.67-8.64q-3.67-3.24-10-3.24a16,16,0,0,0-7.23,1.59,12.07,12.07,0,0,0-5,4.31,11.05,11.05,0,0,0-1.77,6.12,10.75,10.75,0,0,0,1.7,5.76,12.05,12.05,0,0,0,4.93,4.4,16.94,16.94,0,0,0,7.77,1.65A13.87,13.87,0,0,0,715.29,1372.18Z" transform="translate(-183.36 -361)"/><path d="M758,1350.29a13.65,13.65,0,0,1,5.94,5.25,15.9,15.9,0,0,1-.07,15.88,14.33,14.33,0,0,1-6,5.33,19.31,19.31,0,0,1-8.64,1.87q-9.8,0-15-6.66T729,1353.35a32.6,32.6,0,0,1,2.77-14.15,19.66,19.66,0,0,1,7.81-8.75,23,23,0,0,1,11.81-3q7.13,0,11.45,2.59l-1.51,3q-3.6-2.3-9.94-2.3-8.72,0-13.71,5.65t-5,16.38a39.92,39.92,0,0,0,.43,6,13.45,13.45,0,0,1,5.87-7.63,18.8,18.8,0,0,1,10.19-2.74A20.19,20.19,0,0,1,758,1350.29Zm.68,21.89a11.08,11.08,0,0,0,3.68-8.68,11,11,0,0,0-3.68-8.64q-3.66-3.24-10-3.24a16.08,16.08,0,0,0-7.24,1.59,12.14,12.14,0,0,0-5,4.31,11.13,11.13,0,0,0-1.76,6.12,10.74,10.74,0,0,0,1.69,5.76,12.12,12.12,0,0,0,4.93,4.4,17,17,0,0,0,7.78,1.65A13.84,13.84,0,0,0,758.63,1372.18Z" transform="translate(-183.36 -361)"/><path d="M801.29,1350.29a13.65,13.65,0,0,1,5.94,5.25,15.9,15.9,0,0,1-.07,15.88,14.37,14.37,0,0,1-6,5.33,19.37,19.37,0,0,1-8.64,1.87q-9.79,0-15-6.66t-5.22-18.61a32.6,32.6,0,0,1,2.78-14.15,19.6,19.6,0,0,1,7.81-8.75,23,23,0,0,1,11.81-3q7.13,0,11.44,2.59l-1.51,3q-3.6-2.3-9.93-2.3-8.72,0-13.72,5.65t-5,16.38a38.67,38.67,0,0,0,.43,6,13.4,13.4,0,0,1,5.87-7.63,18.77,18.77,0,0,1,10.18-2.74A20.13,20.13,0,0,1,801.29,1350.29Zm.69,21.89a11.07,11.07,0,0,0,3.67-8.68,10.94,10.94,0,0,0-3.67-8.64q-3.68-3.24-10-3.24a16.08,16.08,0,0,0-7.24,1.59,12.11,12.11,0,0,0-5,4.31,11.05,11.05,0,0,0-1.77,6.12,10.83,10.83,0,0,0,1.69,5.76,12.15,12.15,0,0,0,4.94,4.4,16.94,16.94,0,0,0,7.77,1.65A13.87,13.87,0,0,0,802,1372.18Z" transform="translate(-183.36 -361)"/></g></g></svg>