<svg id="Visuels" xmlns="http://www.w3.org/2000/svg" viewBox="0 0 1228.34 1228.34"><defs><style>.cls-1,.cls-7{fill:#fff;}.cls-2{fill:#4d4d4d;}.cls-3,.cls-6{fill:#333;}.cls-4{fill:#242424;}.cls-5{fill:#666;}.cls-6,.cls-7{fill-rule:evenodd;}</style></defs><title>parot svg</title><g id="Calque_21" data-name="Calque 21"><rect class="cls-1" width="1228.34" height="1228.34"/><g id="Calque_17" data-name="Calque 17"><path class="cls-2" d="M529.29,763.8s-116.47,60.34-60.79,261.32c0,0-5.39-85.29,58-152.33" transform="translate(-183.36 -361)"/><path class="cls-3" d="M557,652.06S404.86,705.75,441.17,952.74c0,0,6.92-102,95.11-171.82" transform="translate(-183.36 -361)"/><path class="cls-3" d="M936.55,597.61s162.17,17.81,147.35,245.21c0,0-35.37-130.92-157.94-128C926,714.83,963,662,936.55,597.61Z" transform="translate(-183.36 -361)"/><path class="cls-3" d="M916.68,743.34s-12.8,40.17-74.63,50.52c0,0,40.61,99.49,131.08,57.35s22.69-25.36,22.69-25.36S958.82,767.22,916.68,743.34Z" transform="translate(-183.36 -361)"/><path class="cls-4" d="M919,575.27S749.71,316.8,565,568s64.62,697.13,64.62,697.13-36.41-90.1-19.12-240.27S712.39,811.31,714.21,811s183.84-60.07,159.27-152S919,575.27,919,575.27Z" transform="translate(-183.36 -361)"/><path class="cls-5" d="M733.55,842.28s89.22-23.09,174.65,96.78c0,0-42-47.21-73.28-49.72,0,0,104.51,70.53,98.65,153.36,0,0-11.8-47.33-51-55.5,0,0,77.76,77.64,66.61,133.55,0,0-7.32-38.61-28.2-46.69,0,0,63,329.29-297.53,412.87,0,0,65.47-110,43.8-193.91S581.7,1053.24,733.55,842.28Z" transform="translate(-183.36 -361)"/><circle class="cls-1" cx="597.32" cy="219.27" r="44.08"/><path class="cls-4" d="M780.16,535.67s32,29.91.52,44.6c0,0,33.18,2.81,35.16-27.81C815.84,552.46,805.35,535.67,780.16,535.67Z" transform="translate(-183.36 -361)"/><path class="cls-4" d="M825.29,581.85s-28.72,28.42-43-2.1c0,0-4.72,33.94,25.87,36.24C808.13,616,825,606.11,825.29,581.85Z" transform="translate(-183.36 -361)"/><path class="cls-4" d="M780.72,629.78s-27.67-36.32,4.17-50.73c0,0-32.45-5-37.27,30.08C747.62,609.13,756.36,627.78,780.72,629.78Z" transform="translate(-183.36 -361)"/><path class="cls-4" d="M736.31,580.54s30.38-32,46-.79c0,0,2.57-32.64-29-34.18C753.29,545.57,736,555.37,736.31,580.54Z" transform="translate(-183.36 -361)"/><g id="Header"><g id="logo"><path id="Combined-Shape" class="cls-6" d="M691,1089.91v-4.05m0,142.33v-4.08m471.75-97.72c32.29,0,51.18,21.59,51.18,53s-18.89,53.08-51.18,53.08-51.17-21.6-51.17-53.08S1130.39,1126.39,1162.7,1126.39Zm89.39-32.52v36.72h29.46v6.16h-29.46v68.11c0,7.44,1.24,11.9,4.22,15.43a12.55,12.55,0,0,0,10,4.3c7.86,0,14.17-5.67,14.5-18.71h5c0,15.09-8.33,26.64-26.43,26.64-14.63,0-27.3-8.39-27.3-31.54v-64.23h-18.33v-4.06c21.06-1.28,31.86-17.53,33.41-38.82Zm-250.29,32.52c11.46,0,17,8.59,17,16.12,0,10.59-6,16.1-13.62,16.1-5.69,0-10.51-4.21-10-10.93.43-6.07-.52-8.7-5.11-8.7-4.43,0-8.26,4.5-11,9.58-4.59,8.49-6.63,19.17-6.63,39.82v22.31c0,10.39,3.93,15.49,21,15.49v4.11H936.83v-4.11c11.48,0,15.8-5.1,15.8-15.49v-58.24c0-10.6-1.49-15.68-17.25-15.68v-4.08c12.93,0,28.23-1,38.92-6.3,0,0-1.88,15.28-1.88,25.32a41.37,41.37,0,0,1,9.89-17A25.78,25.78,0,0,1,1001.8,1126.39Zm89.56,0c11.43,0,17,8.59,17,16.12,0,10.59-6,16.1-13.59,16.1a9.75,9.75,0,0,1-10-10.93c.44-6.07-.51-8.7-5.1-8.7s-8.27,4.5-11,9.58c-4.62,8.49-6.63,19.17-6.63,39.82v22.31c0,10.39,4,15.49,21,15.49v4.11h-58.08v-4.11c11.47,0,17.26-5.1,17.26-15.49v-58.24c0-10.6-1.47-15.68-17.26-15.68v-4.08c13,0,28.24-1,38.91-6.3,0,0-1.86,15.28-1.86,25.32a41.46,41.46,0,0,1,9.88-17A25.72,25.72,0,0,1,1091.36,1126.39Zm71.34,5.14c-16.13,0-28.31,15.12-28.31,47.91s12.18,47.93,28.31,47.93,28.31-15.12,28.31-47.93S1178.84,1131.53,1162.7,1131.53Z" transform="translate(-183.36 -361)"/></g></g><g id="Header-2" data-name="Header"><g id="logo-2" data-name="logo"><path id="Combined-Shape-2" data-name="Combined-Shape" class="cls-7" d="M839.76,1121.16c29.29,0,41.48,10.38,41.48,40.27h0v39.63c0,7.13-.1,10.31,1.34,13A6.74,6.74,0,0,0,889,1218c5.89,0,7.83-5.6,7.82-10.91h4.8c0,13-8.18,20.21-21.25,20.21-11.92,0-17.51-8.91-18.51-22.11-8,14.77-21.54,22.11-36.69,22.11-17.25,0-28.18-8.38-28.18-23.86,0-10.34,4.77-19.23,16.2-26.72,10.25-6.71,27.66-11.53,48.1-13.36h0v-3.88c0-23.46-8.17-33-22.1-33-10.19,0-13.91,3.9-13.76,9.71.17,6.47,2.84,7.07,2.84,14.82,0,6.94-5.23,10.25-12.34,10.25-6.31,0-12.25-3.91-12.25-12.89C803.67,1132.81,816.47,1121.16,839.76,1121.16Zm-90.19-38.45c31.31,0,48.59,17.67,48.59,39.64,0,30.71-25,41.48-48.59,41.48a118.25,118.25,0,0,1-15-1v-4.31s2.94.21,5.2.21c24,0,35.79-13.35,35.79-37.07,0-10.62-3-19-9.12-24.6-7.08-6.6-15.57-8.76-28-8.76H724.15v114.18c0,12.42,2.45,18.51,23,18.51V1225H679.41V1221c16.46,0,22.76-6.09,22.76-18.51v-97.19c0-12.42-6.3-18.51-22.76-18.51v-4Zm111.71,85.75c-25.17,2.34-41.41,14.31-42.43,32.66-.64,11.07,5.17,18.33,15.59,18.33,6.4,0,13.14-3.49,18.49-10.7,5.83-8,8.3-18.84,8.3-35.82h0Z" transform="translate(-183.36 -361)"/></g></g><path class="cls-4" d="M623.79,504.18s-214.92,86-207.89,366.5c0,0,18.89-113.57,114.82-182.55" transform="translate(-183.36 -361)"/></g></g></svg>