<svg id="Calque_1" data-name="Calque 1" xmlns="http://www.w3.org/2000/svg" viewBox="0 0 863.56 1014.75"><defs><style>.cls-1{fill:#ffe600;}.cls-2{fill:#fff800;}.cls-3{fill:#efdd00;}.cls-4{fill:#edd000;}</style></defs><title>bouton player</title><polygon class="cls-1" points="819.31 541.4 406.22 780.03 0 1014.57 0 545.5 0 76.43 50.95 1 406.22 310.97 863.56 468.99 851.49 489.1 839.42 497.15 839.85 507.78 819.31 541.4"/><polygon class="cls-2" points="863.48 469.07 484.08 682.2 457.26 694.26 457.26 703.6 51.03 938.13 51.03 469.07 51.03 183.68 65.71 153.87 50.95 145.82 51.03 0 204.38 88.53 210.53 108.28 236.05 106.82 457.26 234.53 549.56 287.82 552.46 309.42 587.33 309.42 600.65 317.32 863.48 469.07"/><polygon class="cls-3" points="0 1014.75 50.95 938.31 450.07 707.8 457.26 694.26 485.42 680.86 574.22 631.1 579.28 609.78 608.78 601.74 626.87 601.6 863.56 468.99 852.86 486.51 839.42 497.15 839.85 507.78 819.31 541.4 0 1014.75"/><polygon class="cls-4" points="51.03 37.07 0 110.21 0 120.66 51.03 52.74 51.03 37.07"/><polygon class="cls-4" points="51.03 11.59 0 84.73 0 95.18 51.03 27.26 51.03 11.59"/><polygon class="cls-4" points="51.03 66.57 0 139.71 0 150.16 51.03 82.24 51.03 66.57"/><polygon class="cls-4" points="51.03 100.09 0 173.23 0 183.68 51.03 115.77 51.03 100.09"/><polygon class="cls-4" points="51.03 129.59 0 202.73 0 213.18 48.68 148.39 51.03 145.26 51.03 129.59"/><polygon class="cls-4" points="51.03 164.46 0 237.6 0 248.05 51.03 180.13 60.34 164.6 51.03 164.46"/><polygon class="cls-4" points="51.03 193.96 0 267.1 0 277.55 51.03 209.63 51.03 193.96"/><polygon class="cls-4" points="51.03 226.14 0 299.28 0 309.73 51.03 241.81 51.03 226.14"/><polygon class="cls-4" points="51.03 255.64 0 328.78 0 339.23 51.03 271.31 51.03 255.64"/><polygon class="cls-4" points="51.03 287.82 0 360.96 0 371.41 51.03 303.5 51.03 287.82"/><polygon class="cls-4" points="51.03 317.32 0 390.46 0 400.91 51.03 333 51.03 317.32"/><polygon class="cls-4" points="51.03 350.85 0 423.99 0 434.44 51.03 366.52 51.03 350.85"/><polygon class="cls-4" points="51.03 380.35 0 453.49 0 463.94 51.03 396.02 51.03 380.35"/><polygon class="cls-4" points="51.03 415.21 0 488.35 0 498.8 51.03 430.88 51.03 415.21"/><polygon class="cls-4" points="51.03 444.71 0 517.85 0 528.3 51.03 460.38 51.03 444.71"/><polygon class="cls-4" points="51.03 476.89 0 550.03 0 560.48 51.03 492.57 51.03 476.89"/><polygon class="cls-4" points="51.03 506.39 0 579.54 0 589.99 51.03 522.07 51.03 506.39"/><polygon class="cls-4" points="51.03 538.58 0 611.72 0 622.17 51.03 554.25 51.03 538.58"/><polygon class="cls-4" points="51.03 568.08 0 641.22 0 651.67 51.03 583.75 51.03 568.08"/><polygon class="cls-4" points="51.03 601.6 0 674.74 0 685.19 51.03 617.27 51.03 601.6"/><polygon class="cls-4" points="51.03 631.1 0 704.24 0 714.69 51.03 646.77 51.03 631.1"/><polygon class="cls-4" points="51.03 665.97 0 739.11 0 749.56 51.03 681.64 51.03 665.97"/><polygon class="cls-4" points="51.03 695.47 0 768.61 0 779.06 51.03 711.14 51.03 695.47"/><polygon class="cls-4" points="51.03 727.65 0 800.79 0 811.24 51.03 743.32 51.03 727.65"/><polygon class="cls-4" points="51.03 757.15 0 830.29 0 840.74 51.03 772.82 51.03 757.15"/><polygon class="cls-4" points="51.03 789.33 0 862.47 0 872.92 51.03 805 51.03 789.33"/><polygon class="cls-4" points="51.03 818.83 0 891.97 0 902.42 51.03 834.5 51.03 818.83"/><polygon class="cls-4" points="51.03 852.36 0 925.5 0 935.95 51.03 868.03 51.03 852.36"/><polygon class="cls-4" points="51.03 881.86 0 955 0 965.45 51.03 897.53 51.03 881.86"/><polygon class="cls-3" points="573.92 631.24 591.35 639.29 607.44 631.24 622.19 615.15 624.88 601.74 592.69 613.81 573.92 631.24"/><polygon class="cls-3" points="198.46 254.44 198.46 683.54 574.23 468.99 198.46 254.44"/><polygon class="cls-1" points="198.46 304.05 198.46 684.88 531.96 494.46 198.46 304.05"/></svg>