<svg id="Calque_13" data-name="Calque 13" xmlns="http://www.w3.org/2000/svg" viewBox="0 0 2001 1996"><defs><style>.cls-1{fill:#fff;}</style></defs><title>QUAI 158 NOIR ET BLANC</title><rect class="cls-1" y="1" width="2001" height="1995"/><rect x="1" width="2000" height="1002"/><path d="M1333.85,1407.78q-3.66-2.79-9.95-2.78t-9.79,2.78a9,9,0,0,0-3.61,7.53,9.11,9.11,0,0,0,3.61,7.63q3.6,2.77,9.79,2.78t9.95-2.83a9.1,9.1,0,0,0,3.66-7.58A9,9,0,0,0,1333.85,1407.78Z" transform="translate(-1.51 -2.08)"/><path d="M1315.76,1391.18q3,2.37,8.14,2.37a13.21,13.21,0,0,0,8.25-2.37,7.75,7.75,0,0,0,3.09-6.5,8,8,0,0,0-3.09-6.65,13,13,0,0,0-8.25-2.42,12.62,12.62,0,0,0-8.09,2.42,8,8,0,0,0-3,6.65A7.83,7.83,0,0,0,1315.76,1391.18Z" transform="translate(-1.51 -2.08)"/><path d="M1548.1,1722.74c-25.62-.66-48.27-1.4-48.27-1.4s15.2-2.89,44.55-.9h3.72v-13.9c-17.64-.5-30.84-.93-30.84-.93s10.49-2,30.84-1.52v-41.16c-27.5-.39-65.89-1.52-81.89-2v48.45c16.76.41,35.18,1.3,37.44,3.19,1.78,1.47-16,1.33-37.44.66v9.25q39.66,7.42,81.89,17Zm-77.59-36.49s7.64-1.55,22.39-.48c0,0,35.39,0,37.85,1.33S1470.51,1686.25,1470.51,1686.25Z" transform="translate(-1.51 -2.08)"/><path d="M1315.91,1696.53s15.19-5.69,44.54-1.78c0,0,2.83,0,7.37,0a64.31,64.31,0,0,0,7.78-15.14v-13.1c-33.51-.68-72.41-2-72.41-2s15.2-2.89,44.55-.9c0,0,12.8,0,27.86.19v-16.18h-62.15q-43.21,0-52.93,22c21.16.21,50.84.78,54,2.36,2.37,1.2-25.5.87-55,.21a36.47,36.47,0,0,0-1.78,10.12,238.63,238.63,0,0,1,38.15-.09s70.43,0,75.33,2.48c4.22,2.14-88.14-.59-113.51-1.38,0,.3,0,.6,0,.91a36.89,36.89,0,0,0,1.57,10.94q46.92,3.35,99.14,10a55.35,55.35,0,0,0,5.95-6C1338.66,1698,1315.91,1696.53,1315.91,1696.53Z" transform="translate(-1.51 -2.08)"/><path d="M1260.45,1695.27c34.66,1,68.76,3,102.08,6.17l3.53-4.7c-36.27-3.48-72.5-5.59-108.15-6.54Z" transform="translate(-1.51 -2.08)"/><path d="M1107.06,1698q31.25-2,63.11-2.82l-.55-5c-21.65.56-42.88,1.53-63.55,2.86Z" transform="translate(-1.51 -2.08)"/><path d="M668.62,1643.2c11.41-20.41,17.19-43.9,17.19-69.82s-5.78-49.4-17.19-69.81a124.17,124.17,0,0,0-47.48-48.08c-20-11.42-42.76-17.21-67.53-17.21s-47.5,5.79-67.53,17.21a124.17,124.17,0,0,0-47.48,48.08c-11.41,20.41-17.19,43.9-17.19,69.81s5.78,49.41,17.19,69.82a124.24,124.24,0,0,0,47.48,48.08c20,11.42,42.75,17.21,67.53,17.21s47.49-5.79,67.53-17.21A124.17,124.17,0,0,0,668.62,1643.2Zm-50,43.74q-29.05,16.55-65.06,16.55t-65.05-16.55a118.8,118.8,0,0,1-45.6-46.18q-16.54-29.62-16.55-67.38T443,1506a118.8,118.8,0,0,1,45.6-46.18q29-16.55,65.05-16.55t65.06,16.55A118.91,118.91,0,0,1,664.26,1506q16.56,29.63,16.55,67.37t-16.55,67.38A118.91,118.91,0,0,1,618.67,1686.94Z" transform="translate(-1.51 -2.08)"/><path d="M1466.44,1710l.58,5.18q41.31,7.13,79.76,16.61l1.31-4.83C1521.33,1720.39,1494,1714.77,1466.44,1710Z" transform="translate(-1.51 -2.08)"/><path d="M1649.74,1758.13c-3.75-1.4-4.47-2.81-8.26-4.16l1,6c2.2.79.24.89,2.41,1.69l5.43,124.92c-6-3.89-11.15-11.64-20.3-15.33-67.54-27.28-144-115.61-460.42-115.62h-.06c-5.69,0-11.52,0-17.33.08-8.14.07-16,.12-23.59.17-126.43.82-176.14,15.09-361.14,88.09-21.46,8.46-58.8,14.31-96.06,14.31a175,175,0,0,1-64.85-12.2c-25.84-10.24-53.47-37.83-81.87-67.63l-1.22-1.29-1.77-.22c-35.86-4.53-68.27-16.18-96.33-34.65a195.19,195.19,0,0,1-65.71-71.65c-15.61-29.13-23.52-61.85-23.52-97.26,0-38.77,9.44-74.16,28-105.17s44.73-55.7,77.65-73.38,70.6-26.71,111.77-26.71,78.67,9,111.47,26.7,58.87,42.39,77.67,73.41,28.32,66.39,28.32,105.15a213,213,0,0,1-9.71,65,192.52,192.52,0,0,1-29.09,56.33,199.81,199.81,0,0,1-45.12,44.2,211.19,211.19,0,0,1-57.81,28.36l-7.65,2.44,5.57,5.79c10,10.44,20,18.11,29.58,22.81,4.93,2.42,13.41,2.92,19.65,2.92,11,0,40.82-1.73,81.5-17.82,12.65-5,22.32-10.23,32.56-15.77a361.23,361.23,0,0,1,36-17.6l-3.52-4c-29,12.24-42.35,23-66.9,32.68-33.4,13.21-61.9,17.47-79.66,17.47-8.48,0-14.52-1-17.46-2.41q-13.65-6.69-28.17-21.78,65.64-20.91,105.42-74.35t39.79-124.3q0-59.81-29-107.74t-79.58-75.22q-50.52-27.29-113.84-27.3t-114.13,27.3q-50.84,27.32-79.58,75.22t-28.75,107.74q0,54.61,24.11,99.62a199.29,199.29,0,0,0,67.37,73.47q43.28,28.47,98.46,35.43c31.36,32.91,57.95,58.65,83.64,68.83a179.67,179.67,0,0,0,66.69,12.55c38.94,0,72.29-6.09,93.06-15.31,191.61-85.06,243.17-86,387.77-87.26,5.87,0,11.64,0,17.35-.08,335.88-2.66,439.16,113.06,486.1,134.67Z" transform="translate(-1.51 -2.08)"/><path d="M1467.52,1197.94c.22,8.7-1.44,17.07-7.14,22a71.6,71.6,0,0,1-7,5.41L1578.48,1273,975.77,1402.23,932,1373.89l-.83.66c-18.56,15-44.6,20.68-52.09,11.4s-11.47-28.15-11.47-28.15l-91.64,36.12s-14.72-1.13-25.39-7.11c16,146,42,378.16,42,378.16l34-15c-17.65-18-30.23-44.67-35.18-76.56l-.6,0,.57-.18a201.27,201.27,0,0,1-2.31-30.71V1465.91l92.64-.09-1.72,151.27c-.07,14.64,1,27.21,3.33,37.91,21.23.19,52.4.76,55.59,2.38,2.36,1.2-25.54.87-55,.21a85.89,85.89,0,0,0,5.17,15.48c11.12.68,20,1.7,21.62,3.23,1.32,1.24-6.77,1.6-19.28,1.46a49.74,49.74,0,0,0,14.08,16.39c21.16.46,50.85,1.75,54,5.28,2,2.29-18,2.09-42.15,1.07,7.45,2.79,16,4.13,25.68,4.13q32.52,0,52.28-21.2c.19-.2.36-.42.54-.63-28.41-.69-55.47-1.57-55.47-1.57s15.2-2.89,44.55-.9c0,0,5.27,0,13,.05a63.76,63.76,0,0,0,7.87-12.42c-30.74.12-107.49-2.38-107.49-2.38s15.2-2.89,44.54-.9c0,0,42.7,0,63.92,1.17q8.25-18.42,8.28-45.44l-2.71-154.59,93.32.09.26,178.27c20.45.13,59.34.61,62.93,2.44,2.57,1.3-30.76.8-62.92,0l0,18.08c20.46.13,59.31.62,62.9,2.44,2.57,1.31-30.74.8-62.89,0l0,22.11c6.33.34,10.87.77,12,1.34s-3.77.76-12,.8v2.25c20.18-.77,41.14-2.44,63.59-2.19,0-1,0-2,0-3-17-1-29.6-1.76-29.6-1.76s10.09-3.77,29.7-3q1.68-40.25,32.71-63.86,32.8-25,101.36-25h72q0-29.62-18-45.59t-54-16a157.85,157.85,0,0,0-49.08,7.84q-24.12,7.85-41,21.2L1181,1499q25.56-18,61.28-27.88a274.54,274.54,0,0,1,73.47-9.87q72.6,0,111.52,34.56t38.92,104.26v59.7a241.86,241.86,0,0,1,37.08,0s23.89,0,44.8.49V1465.82l90.63.09.77,292.06c2.82.75,10.17-4.77,13-4l13-481.86Zm-579.14,442.2s15.2-2.89,44.55-.9c0,0,70.44,0,75.33,2.48S888.38,1640.14,888.38,1640.14Zm331.7-203.39h-16.71V1378h-14.43v-13.4h31.14Zm63.82-10.67a23,23,0,0,1-10.05,8.66q-6.76,3.26-16.66,3.25a56.83,56.83,0,0,1-15-2,38.82,38.82,0,0,1-12.53-5.72l6.6-12.79a31.74,31.74,0,0,0,9.49,4.8,36.35,36.35,0,0,0,11,1.7q6.29,0,9.9-2.48a7.92,7.92,0,0,0,3.61-6.91,7.79,7.79,0,0,0-3.76-7q-3.77-2.37-13-2.37H1235l3.71-40.62h44V1378h-30.1l-1.14,13.72h5.88q15.25,0,22.53,6.08t7.27,16.29A22.62,22.62,0,0,1,1283.9,1426.08Zm66.71,1.44a24.35,24.35,0,0,1-10.73,7.74,48,48,0,0,1-31.91,0,24,24,0,0,1-10.62-7.74,18.89,18.89,0,0,1-3.76-11.7,17.85,17.85,0,0,1,2.83-10,20.55,20.55,0,0,1,8.1-7,17.68,17.68,0,0,1-6.19-6.24,17,17,0,0,1-2.16-8.61,17.62,17.62,0,0,1,3.5-10.93,22.34,22.34,0,0,1,9.8-7.16,38.35,38.35,0,0,1,14.43-2.53,39.1,39.1,0,0,1,14.59,2.53,22.33,22.33,0,0,1,9.85,7.16,17.68,17.68,0,0,1,3.5,10.93,17,17,0,0,1-2.16,8.61,17.34,17.34,0,0,1-6.29,6.24,20.46,20.46,0,0,1,8.2,7,17.85,17.85,0,0,1,2.83,10A18.75,18.75,0,0,1,1350.61,1427.52Zm283.45-20q-15.68,14.82-40.66,14.81t-40.65-14.52q-15.69-14.5-15.69-36a47.09,47.09,0,0,1,15.69-36q15.68-14.5,40.65-14.52t40.66,13.94q15.69,13.93,15.69,34.85Q1649.75,1392.72,1634.06,1407.53Z" transform="translate(-1.51 -2.08)"/><path d="M1256.23,1167.62l6-1.49,50,15.5,1.07-.31s-7.33-24.28-3.34-42.4l-37.47-14s-26,6.78-66.64,17.43C1222,1145,1239.74,1152.05,1256.23,1167.62Z" transform="translate(-1.51 -2.08)"/><path d="M758,1341.64l90.33-21.81-57-36.85,52.82-13.11c.87-13.1,4.88-25.57,15.26-32.65,0,0,39.3,5.68,86-20.77,22.68-12.84,41.43-.94,54.72,14.71l76.64-19-9.49-19.79s38.65-15.46,64.73-30.62c-158.35,41.76-394,104.66-394,109.22,0,1.76,3.54,34.75,8.8,82.91A96.18,96.18,0,0,1,758,1341.64Z" transform="translate(-1.51 -2.08)"/><path d="M1264.16,1183.66H1304v.39l9.36-2.73a125.89,125.89,0,0,1-4.06-21.21H1304v12.55h-44.12C1261,1175.22,1262.68,1179.34,1264.16,1183.66Z" transform="translate(-1.51 -2.08)"/><path d="M995.36,1225.92v-7.5H1060v26.18h-50c2.44,3.89,4.55,7.65,6.29,11H1060v1.34l33.42-10.26-1-2.08H1071v-26.18h8.87l-5.27-11H1071v-7.5l-2.61-5.44H1060v12.94H990.72v4.25h-6.36v5.39A61.94,61.94,0,0,1,995.36,1225.92Z" transform="translate(-1.51 -2.08)"/><path d="M1483.05,1207.42h-16.19a22.43,22.43,0,0,1-5,11h21.15Z" transform="translate(-1.51 -2.08)"/><path d="M844.28,1283.5H785.37v11h60.15C845,1291,844.55,1287.29,844.28,1283.5Z" transform="translate(-1.51 -2.08)"/><path d="M893.66,1390.38v9.4h11V1388.4A51.43,51.43,0,0,1,893.66,1390.38Z" transform="translate(-1.51 -2.08)"/><path d="M1547,1283.5v-27.9h30.45v-11h-137v-13.33a43.21,43.21,0,0,1-11,1.21v12.12h-64c-5.75,4.31-9.6,6.75-27.47.21l-.51-.21H1315v-26.18h4.23a35.3,35.3,0,0,1,1.76-10.35l-31.54,10.35H1304v26.18h-19.62a14.26,14.26,0,0,1-3.16,11H1304v27.9h-77.21a174.62,174.62,0,0,0-19.71,11H1304v35H1186.11v-16.69a127.42,127.42,0,0,1-11,9.42v7.27h-12.88c-7.86,3-16.69,3.49-27.35,0H1071v-35h44.41a30.21,30.21,0,0,0-4-11h-19.76c-11.13,3.37-27.49,7.58-37.33,11H1060v35H1047.2a38.08,38.08,0,0,1-5.78,11H1060v30.77H995.36V1369a54.35,54.35,0,0,1-11-1.09v3.38H935.48c-1.41,1-2.86,2.09-4.36,3.3a76.86,76.86,0,0,1-11.61,7.7h64.85v26.83h11v-26.83H1060v9.22h11v-9.22h80.9v-11H1071v-30.77h104.14V1367h11v-26.53H1317.2v-11H1315v-35h114.45v30.58h11V1294.5H1536v22h11v-22h111.35v-11Zm-117.54,0H1315v-27.9h114.45Zm106.54,0h-95.54v-27.9H1536Z" transform="translate(-1.51 -2.08)"/><polygon points="806.91 1327.39 755.48 1327.39 755.48 1338.39 761.35 1338.39 806.91 1327.39"/><path d="M1417.84,1120.16c-11.07-7.51-21.47-2.69-42.28,7s-48,8.34-48,8.34c-18.61,22.54,6,92,12,99.37s27.56,4.92,35.63-7.67,35.63-7.68,47.81-3.21,34.4-18.49,34.3-32.34S1428.91,1127.67,1417.84,1120.16Zm-68.14,36.08c-1.16,3.18-4.66,12.73-4.66,12.73l-5.66-7.48s-4.8-14.4,6.73-13.78,25.08-8.86,31.58-8.29,32.17-9.87,32.17-9.87l8.61,8.57s-7.08,1-19.2,2-18.88,5.72-29.52,7.23S1350.87,1153.06,1349.7,1156.24Zm74.71,54.87c-1.92-.7-18.69-2.49-23.75-6.52s-1.22-2.62-11,.32-26.24,12.17-30.08,10.77c0,0,34.3-22.29,41.28-17.55s22.34,10.36,23.75,6.52C1424.6,1204.65,1426.33,1211.81,1424.41,1211.11Z" transform="translate(-1.51 -2.08)"/><path d="M982.66,1227.9c-14-9.47-27.07-3.39-53.31,8.78s-60.48,10.52-60.48,10.52c-23.48,28.42,7.59,116,15.08,125.31s34.76,6.2,44.93-9.68,44.92-9.68,60.29-4,43.38-23.31,43.25-40.78S996.62,1237.36,982.66,1227.9Zm-6.56,113c-1.92-.7-18.69-2.49-23.74-6.52s-1.22-2.63-11,.32-26.24,12.17-30.08,10.76c0,0,34.3-22.28,41.28-17.55s22.34,10.36,23.74,6.52C976.29,1334.46,978,1341.63,976.1,1340.93Zm-21.46-84.1c-15.56.84-24.13,6.41-37.76,8s-24.13,6.41-25.54,10.25-5.63,15.37-5.63,15.37l-7.49-9.28s-6.6-17.67,8.25-16.58,32-10.06,40.39-9.17,41.08-11.08,41.08-11.08L979.28,1255S970.19,1256,954.64,1256.83Z" transform="translate(-1.51 -2.08)"/><path d="M1240.19,1172.08c-25.06-17-73-21.51-101.46-.66a353.85,353.85,0,0,1-53.64,32.52s42.26,91.1,46.4,108.27,46.44,1.36,57.78-15.35,77.31-47.31,77.31-47.31S1265.26,1189.09,1240.19,1172.08Zm-44.83,105.41c-6.46-.19-21.88,18.12-26.43,18.64s-26,5.7-27.26,3.08-19.55-48.57-18.58-50.37c6.85-12.74,23.31,43.39,26.45,46.72s15.74-7.3,22.21-7.11,17.85-13.07,18.55-15S1201.82,1277.68,1195.36,1277.49Zm44.2-73.1-3.85-8.31a15.58,15.58,0,0,0-2.56-3.87c-5.72-6.32-11.58-13.48-25.85-12.71-15.56.84-36.36,4.11-40.9,4.62s-5.76-2.11-5.76-2.11a70,70,0,0,1,11.36-4.85c15.28-5.16,43.19-9.7,66,13.59,0,0,10.63,12.61,9.22,16.45S1242,1209.63,1239.56,1204.39Z" transform="translate(-1.51 -2.08)"/><path d="M1128.26,1248.59c2.13,2.22,4.49,6.51,6.85,11.64l454-149.39Z" transform="translate(-1.51 -2.08)"/><path d="M1123.22,1250.1,763.64,1357.57c-12.44,17.59,5.91,23,5.91,23l357.89-117.76C1125.34,1257,1123.72,1252.29,1123.22,1250.1Z" transform="translate(-1.51 -2.08)"/><path d="M439.57,1390s36.2,27.39,48.91,69.46c0,0,46-44,130.12,0,0,0,9.78-35.22,48.92-69.46C667.52,1390,572.62,1331.31,439.57,1390Z" transform="translate(-1.51 -2.08)"/><path d="M771.22,1551.43s-45.56,13.34-89,6.85c0,0,17.61,66.52-47,123.66,0,0,26,18.07,40.18,68.09C675.34,1750,790.78,1681.55,771.22,1551.43Z" transform="translate(-1.51 -2.08)"/><path d="M421,1742.2s8.21-45.6,43-72.39c0,0-47.94-33.27-40.11-106.64,0,0-40.71,3-86.59-21.45C337.33,1541.72,301.63,1643.39,421,1742.2Z" transform="translate(-1.51 -2.08)"/><path d="M587.29,1332.29H534.46l-23.19,33.77,94.61,5.36Zm-28.86,30.33a9.3,9.3,0,1,1,9.3-9.3A9.3,9.3,0,0,1,558.43,1362.62Z" transform="translate(-1.51 -2.08)"/><path d="M309.8,1651.41l24.38,46.86,40.67,5-38.92-86.41ZM350,1663a9.29,9.29,0,1,1-12.53-4A9.29,9.29,0,0,1,350,1663Z" transform="translate(-1.51 -2.08)"/><path d="M755.83,1721.15l27.71-45L767,1638.71l-54.2,77.74Zm-10.68-40.48a9.29,9.29,0,1,1,3,12.79A9.3,9.3,0,0,1,745.15,1680.67Z" transform="translate(-1.51 -2.08)"/><path d="M1652.48,1752l16,175s-327-307-887.35-77.72c-77.45,31.69-96.65,32.72-134.65,29.72-74.41-5.88-119.8-96.66-119.8-96.66s50.87,60.66,126.2,71.42c49,7,117.67-18.7,160.64-35.38,50-19.38,99-35.38,152.48-48.09,158.92-37.73,455.51-62.4,680.94,109.38L1639.48,1753Z" transform="translate(-1.51 -2.08)"/><path class="cls-1" d="M1341.85,387.78q-3.66-2.79-9.95-2.78t-9.79,2.78a9,9,0,0,0-3.61,7.53,9.11,9.11,0,0,0,3.61,7.63q3.6,2.78,9.79,2.78t9.95-2.83a9.1,9.1,0,0,0,3.66-7.58A9,9,0,0,0,1341.85,387.78Z" transform="translate(-1.51 -2.08)"/><path class="cls-1" d="M1323.76,371.18q3,2.37,8.14,2.37a13.21,13.21,0,0,0,8.25-2.37,7.75,7.75,0,0,0,3.09-6.5,8,8,0,0,0-3.09-6.65,13,13,0,0,0-8.25-2.42,12.62,12.62,0,0,0-8.09,2.42,8,8,0,0,0-3,6.65A7.83,7.83,0,0,0,1323.76,371.18Z" transform="translate(-1.51 -2.08)"/><path class="cls-1" d="M1556.1,702.74c-25.62-.66-48.27-1.4-48.27-1.4s15.2-2.89,44.55-.9h3.72v-13.9c-17.64-.5-30.84-.93-30.84-.93s10.49-2,30.84-1.52V642.94c-27.5-.39-65.89-1.52-81.89-2v48.45c16.76.41,35.18,1.3,37.44,3.19,1.78,1.47-16,1.33-37.44.66v9.25q39.66,7.42,81.89,17Zm-77.59-36.49s7.64-1.55,22.39-.48c0,0,35.39,0,37.85,1.33S1478.51,666.25,1478.51,666.25Z" transform="translate(-1.51 -2.08)"/><path class="cls-1" d="M1323.91,676.53s15.19-5.69,44.54-1.78c0,0,2.83,0,7.37,0a64.31,64.31,0,0,0,7.78-15.14v-13.1c-33.51-.68-72.41-1.95-72.41-1.95s15.2-2.89,44.55-.9c0,0,12.8,0,27.86.19V627.71h-62.15q-43.21,0-52.93,22c21.16.21,50.84.78,54,2.36,2.37,1.2-25.5.87-55,.21a36.47,36.47,0,0,0-1.78,10.12,238.63,238.63,0,0,1,38.15-.09s70.43,0,75.33,2.48c4.22,2.14-88.14-.59-113.51-1.38,0,.3,0,.6,0,.91a36.89,36.89,0,0,0,1.57,10.94q46.92,3.35,99.14,10a55.35,55.35,0,0,0,5.95-6C1346.66,678,1323.91,676.53,1323.91,676.53Z" transform="translate(-1.51 -2.08)"/><path class="cls-1" d="M1268.45,675.27c34.66,1,68.76,3,102.08,6.17l3.53-4.7c-36.27-3.48-72.5-5.59-108.15-6.54Z" transform="translate(-1.51 -2.08)"/><path class="cls-1" d="M1115.06,678q31.25-2,63.11-2.82l-.55-5c-21.65.56-42.88,1.53-63.55,2.86Z" transform="translate(-1.51 -2.08)"/><path class="cls-1" d="M676.62,623.2c11.41-20.41,17.19-43.9,17.19-69.82S688,504,676.62,483.57a124.17,124.17,0,0,0-47.48-48.08c-20-11.42-42.76-17.21-67.53-17.21s-47.5,5.79-67.53,17.21a124.17,124.17,0,0,0-47.48,48.08c-11.41,20.41-17.19,43.9-17.19,69.81s5.78,49.41,17.19,69.82a124.24,124.24,0,0,0,47.48,48.08c20,11.42,42.75,17.21,67.53,17.21s47.49-5.79,67.53-17.21A124.17,124.17,0,0,0,676.62,623.2Zm-50,43.74q-29.05,16.54-65.06,16.55t-65.05-16.55A118.8,118.8,0,0,1,451,620.76q-16.54-29.62-16.55-67.38T451,486a118.8,118.8,0,0,1,45.6-46.18q29-16.54,65.05-16.55t65.06,16.55A118.91,118.91,0,0,1,672.26,486q16.56,29.63,16.55,67.37t-16.55,67.38A118.91,118.91,0,0,1,626.67,666.94Z" transform="translate(-1.51 -2.08)"/><path class="cls-1" d="M1474.44,690l.58,5.18q41.31,7.13,79.76,16.61l1.31-4.83C1529.33,700.39,1502,694.77,1474.44,690Z" transform="translate(-1.51 -2.08)"/><path class="cls-1" d="M1657.74,738.13c-3.75-1.4-4.47-2.81-8.26-4.16l1,6c2.2.79.24.89,2.41,1.69l5.43,124.92c-6-3.89-11.15-11.64-20.3-15.33C1570.48,824,1494,735.64,1177.6,735.63h-.06c-5.69,0-11.52,0-17.33.08-8.14.07-16,.12-23.59.17C1010.19,736.7,960.48,751,775.48,824c-21.46,8.46-58.8,14.31-96.06,14.31a175,175,0,0,1-64.85-12.2c-25.84-10.24-53.47-37.83-81.87-67.63l-1.22-1.29-1.77-.22c-35.86-4.53-68.27-16.18-96.33-34.65a195.19,195.19,0,0,1-65.71-71.65c-15.61-29.13-23.52-61.85-23.52-97.26,0-38.77,9.44-74.16,28-105.17s44.73-55.7,77.65-73.38,70.6-26.71,111.77-26.71,78.67,9,111.47,26.7,58.87,42.39,77.67,73.41,28.32,66.39,28.32,105.15a213,213,0,0,1-9.71,65,192.52,192.52,0,0,1-29.09,56.33,199.81,199.81,0,0,1-45.12,44.2,211.19,211.19,0,0,1-57.81,28.36l-7.65,2.44,5.57,5.79c10,10.44,20,18.11,29.58,22.81,4.93,2.42,13.41,2.92,19.65,2.92,11,0,40.82-1.73,81.5-17.82,12.65-5,22.32-10.23,32.56-15.77a361.23,361.23,0,0,1,36-17.6l-3.52-4c-29,12.24-42.35,23-66.9,32.68-33.4,13.21-61.9,17.47-79.66,17.47-8.48,0-14.52-1-17.46-2.41q-13.65-6.69-28.17-21.78,65.64-20.91,105.42-74.35t39.79-124.3q0-59.81-29-107.74t-79.58-75.22q-50.52-27.29-113.84-27.3t-114.13,27.3q-50.84,27.32-79.58,75.22T339.15,553.38q0,54.61,24.11,99.62a199.29,199.29,0,0,0,67.37,73.47q43.28,28.47,98.46,35.43c31.36,32.91,57.95,58.65,83.64,68.83a179.67,179.67,0,0,0,66.69,12.55c38.94,0,72.29-6.09,93.06-15.31,191.61-85.06,243.17-86,387.77-87.26,5.87-.05,11.64,0,17.35-.08,335.88-2.66,439.16,113.06,486.1,134.67Z" transform="translate(-1.51 -2.08)"/><path class="cls-1" d="M1475.52,177.94c.22,8.7-1.44,17.07-7.14,22a71.6,71.6,0,0,1-7,5.41L1586.48,253,983.77,382.23,940,353.89l-.83.66c-18.56,15-44.6,20.68-52.09,11.4s-11.47-28.15-11.47-28.15l-91.64,36.12s-14.72-1.13-25.39-7.11c16,146,42,378.16,42,378.16l34-15c-17.65-18-30.23-44.67-35.18-76.56l-.6,0,.57-.18A201.27,201.27,0,0,1,797,622.48V445.91l92.64-.09-1.72,151.27c-.07,14.64,1,27.21,3.33,37.91,21.23.19,52.4.76,55.59,2.38,2.36,1.2-25.54.87-55,.21A85.89,85.89,0,0,0,897,653.07c11.12.68,20,1.7,21.62,3.23,1.32,1.24-6.77,1.6-19.28,1.46a49.74,49.74,0,0,0,14.08,16.39c21.16.46,50.85,1.75,54,5.28,2,2.29-18,2.09-42.15,1.07,7.45,2.79,16,4.13,25.68,4.13q32.52,0,52.28-21.2c.19-.2.36-.42.54-.63-28.41-.69-55.47-1.57-55.47-1.57s15.2-2.89,44.55-.9c0,0,5.27,0,13,0a63.76,63.76,0,0,0,7.87-12.42c-30.74.12-107.49-2.38-107.49-2.38s15.2-2.89,44.54-.9c0,0,42.7,0,63.92,1.17q8.25-18.42,8.28-45.44l-2.71-154.59,93.32.09.26,178.27c20.45.13,59.34.61,62.93,2.44,2.57,1.3-30.76.8-62.92,0l0,18.08c20.46.13,59.31.62,62.9,2.44,2.57,1.31-30.74.8-62.89,0l0,22.11c6.33.34,10.87.77,12,1.34s-3.77.76-12,.8v2.25c20.18-.77,41.14-2.44,63.59-2.19,0-1,0-2,0-3-17-1-29.6-1.76-29.6-1.76s10.09-3.77,29.7-3q1.68-40.25,32.71-63.86,32.8-25,101.36-25h72q0-29.62-18-45.59t-54-16a157.85,157.85,0,0,0-49.08,7.84q-24.12,7.85-41,21.2L1189,479q25.56-18,61.28-27.88a274.54,274.54,0,0,1,73.47-9.87q72.6,0,111.52,34.56t38.92,104.26v59.7a241.86,241.86,0,0,1,37.08,0s23.89,0,44.8.49V445.82l90.63.09.77,292.06c2.82.75,10.17-4.77,13-4l13-481.86ZM896.38,620.14s15.2-2.89,44.55-.9c0,0,70.44,0,75.33,2.48S896.38,620.14,896.38,620.14Zm331.7-203.39h-16.71V358h-14.43v-13.4h31.14Zm63.82-10.67a23,23,0,0,1-10.05,8.66q-6.76,3.25-16.66,3.25a56.83,56.83,0,0,1-15-2,38.82,38.82,0,0,1-12.53-5.72l6.6-12.79a31.74,31.74,0,0,0,9.49,4.8,36.35,36.35,0,0,0,11,1.7q6.29,0,9.9-2.48a7.92,7.92,0,0,0,3.61-6.91,7.79,7.79,0,0,0-3.76-7q-3.77-2.37-13-2.37H1243l3.71-40.62h44V358h-30.1l-1.14,13.72h5.88q15.25,0,22.53,6.08t7.27,16.29A22.62,22.62,0,0,1,1291.9,406.08Zm66.71,1.44a24.35,24.35,0,0,1-10.73,7.74,48,48,0,0,1-31.91,0,24,24,0,0,1-10.62-7.74,18.89,18.89,0,0,1-3.76-11.7,17.85,17.85,0,0,1,2.83-10,20.55,20.55,0,0,1,8.1-7,17.68,17.68,0,0,1-6.19-6.24,17,17,0,0,1-2.16-8.61,17.62,17.62,0,0,1,3.5-10.93,22.34,22.34,0,0,1,9.8-7.16,38.35,38.35,0,0,1,14.43-2.53,39.1,39.1,0,0,1,14.59,2.53,22.33,22.33,0,0,1,9.85,7.16,17.68,17.68,0,0,1,3.5,10.93,17,17,0,0,1-2.16,8.61,17.34,17.34,0,0,1-6.29,6.24,20.46,20.46,0,0,1,8.2,7,17.85,17.85,0,0,1,2.83,10A18.75,18.75,0,0,1,1358.61,407.52Zm283.45-20q-15.68,14.82-40.66,14.81t-40.65-14.52q-15.69-14.51-15.69-36a47.09,47.09,0,0,1,15.69-36q15.68-14.51,40.65-14.52t40.66,13.94q15.69,13.93,15.69,34.85Q1657.75,372.72,1642.06,387.53Z" transform="translate(-1.51 -2.08)"/><path class="cls-1" d="M1264.23,147.62l6-1.49,50,15.5,1.07-.31S1314,137,1318,118.92l-37.47-14s-26,6.78-66.64,17.43C1230,125,1247.74,132.05,1264.23,147.62Z" transform="translate(-1.51 -2.08)"/><path class="cls-1" d="M766,321.64l90.33-21.81-57-36.85,52.82-13.11c.87-13.1,4.88-25.57,15.26-32.65,0,0,39.3,5.68,86-20.77,22.68-12.84,41.43-.94,54.72,14.71l76.64-19-9.49-19.79s38.65-15.46,64.73-30.62c-158.35,41.76-394,104.66-394,109.22,0,1.76,3.54,34.75,8.8,82.91A96.18,96.18,0,0,1,766,321.64Z" transform="translate(-1.51 -2.08)"/><path class="cls-1" d="M1272.16,163.66H1312v.39l9.36-2.73a125.89,125.89,0,0,1-4.06-21.21H1312v12.55h-44.12C1269,155.22,1270.68,159.34,1272.16,163.66Z" transform="translate(-1.51 -2.08)"/><path class="cls-1" d="M1003.36,205.92v-7.5H1068V224.6h-50c2.44,3.89,4.55,7.65,6.29,11H1068v1.34l33.42-10.26-1-2.08H1079V198.42h8.87l-5.27-11H1079v-7.5l-2.61-5.44H1068v12.94H998.72v4.25h-6.36v5.39A61.94,61.94,0,0,1,1003.36,205.92Z" transform="translate(-1.51 -2.08)"/><path class="cls-1" d="M1491.05,187.42h-16.19a22.43,22.43,0,0,1-5,11h21.15Z" transform="translate(-1.51 -2.08)"/><path class="cls-1" d="M852.28,263.5H793.37v11h60.15C853,271,852.55,267.29,852.28,263.5Z" transform="translate(-1.51 -2.08)"/><path class="cls-1" d="M901.66,370.38v9.4h11V368.4A51.43,51.43,0,0,1,901.66,370.38Z" transform="translate(-1.51 -2.08)"/><path class="cls-1" d="M1555,263.5V235.6h30.45v-11h-137V211.27a43.21,43.21,0,0,1-11,1.21V224.6h-64c-5.75,4.31-9.6,6.75-27.47.21l-.51-.21H1323V198.42h4.23a35.3,35.3,0,0,1,1.76-10.35l-31.54,10.35H1312V224.6h-19.62a14.26,14.26,0,0,1-3.16,11H1312v27.9h-77.21a174.62,174.62,0,0,0-19.71,11H1312v35H1194.11V292.79a127.42,127.42,0,0,1-11,9.42v7.27h-12.88c-7.86,2.95-16.69,3.49-27.35,0H1079v-35h44.41a30.21,30.21,0,0,0-4-11h-19.76c-11.13,3.37-27.49,7.58-37.33,11H1068v35H1055.2a38.08,38.08,0,0,1-5.78,11H1068v30.77h-64.61V349a54.35,54.35,0,0,1-11-1.09v3.38H943.48c-1.41,1-2.86,2.09-4.36,3.3a76.86,76.86,0,0,1-11.61,7.7h64.85v26.83h11V362.25H1068v9.22h11v-9.22h80.9v-11H1079V320.48h104.14V347h11V320.48H1325.2v-11H1323v-35h114.45v30.58h11V274.5H1544v22h11v-22h111.35v-11Zm-117.54,0H1323V235.6h114.45Zm106.54,0h-95.54V235.6H1544Z" transform="translate(-1.51 -2.08)"/><polygon class="cls-1" points="814.91 307.39 763.48 307.39 763.48 318.39 769.35 318.39 814.91 307.39"/><path class="cls-1" d="M1425.84,100.16c-11.07-7.51-21.47-2.69-42.28,7s-48,8.34-48,8.34c-18.61,22.54,6,92,12,99.37s27.56,4.92,35.63-7.67,35.63-7.68,47.81-3.21,34.4-18.49,34.3-32.34S1436.91,107.67,1425.84,100.16Zm-68.14,36.08C1356.54,139.42,1353,149,1353,149l-5.66-7.48s-4.8-14.4,6.73-13.78,25.08-8.86,31.58-8.29,32.17-9.87,32.17-9.87l8.61,8.57s-7.08,1-19.2,2-18.88,5.72-29.52,7.23S1358.87,133.06,1357.7,136.24Zm74.71,54.87c-1.92-.7-18.69-2.49-23.75-6.52s-1.22-2.62-11,.32-26.24,12.17-30.08,10.77c0,0,34.3-22.29,41.28-17.55s22.34,10.36,23.75,6.52C1432.6,184.65,1434.33,191.81,1432.41,191.11Z" transform="translate(-1.51 -2.08)"/><path class="cls-1" d="M990.66,207.9c-14-9.47-27.07-3.39-53.31,8.78s-60.48,10.52-60.48,10.52c-23.48,28.42,7.59,116,15.08,125.31s34.76,6.2,44.93-9.68,44.92-9.68,60.29-4.05,43.38-23.31,43.25-40.78S1004.62,217.36,990.66,207.9Zm-6.56,113c-1.92-.7-18.69-2.49-23.74-6.52s-1.22-2.63-11,.32-26.24,12.17-30.08,10.76c0,0,34.3-22.28,41.28-17.55s22.34,10.36,23.74,6.52C984.29,314.46,986,321.63,984.1,320.93Zm-21.46-84.1c-15.56.84-24.13,6.41-37.76,7.95s-24.13,6.41-25.54,10.25-5.63,15.37-5.63,15.37l-7.49-9.28s-6.6-17.67,8.25-16.58,32-10.06,40.39-9.17,41.08-11.08,41.08-11.08L987.28,235S978.19,236,962.64,236.83Z" transform="translate(-1.51 -2.08)"/><path class="cls-1" d="M1248.19,152.08c-25.06-17-73-21.51-101.46-.66a353.85,353.85,0,0,1-53.64,32.52s42.26,91.1,46.4,108.27,46.44,1.36,57.78-15.35,77.31-47.31,77.31-47.31S1273.26,169.09,1248.19,152.08Zm-44.83,105.41c-6.46-.19-21.88,18.12-26.43,18.64s-26,5.7-27.26,3.08-19.55-48.57-18.58-50.37c6.85-12.74,23.31,43.39,26.45,46.72s15.74-7.3,22.21-7.11,17.85-13.07,18.55-15S1209.82,257.68,1203.36,257.49Zm44.2-73.1-3.85-8.31a15.58,15.58,0,0,0-2.56-3.87c-5.72-6.32-11.58-13.48-25.85-12.71-15.56.84-36.36,4.11-40.9,4.62s-5.76-2.11-5.76-2.11a70,70,0,0,1,11.36-4.85c15.28-5.16,43.19-9.7,66,13.59,0,0,10.63,12.61,9.22,16.45S1250,189.63,1247.56,184.39Z" transform="translate(-1.51 -2.08)"/><path class="cls-1" d="M1136.26,228.59c2.13,2.22,4.49,6.51,6.85,11.64l454-149.39Z" transform="translate(-1.51 -2.08)"/><path class="cls-1" d="M1131.22,230.1,771.64,337.57c-12.44,17.59,5.91,22.95,5.91,22.95l357.89-117.76C1133.34,237,1131.72,232.29,1131.22,230.1Z" transform="translate(-1.51 -2.08)"/><path class="cls-1" d="M447.57,370s36.2,27.39,48.91,69.46c0,0,46-44,130.12,0,0,0,9.78-35.22,48.92-69.46C675.52,370,580.62,311.31,447.57,370Z" transform="translate(-1.51 -2.08)"/><path class="cls-1" d="M779.22,531.43s-45.56,13.34-89,6.85c0,0,17.61,66.52-47,123.66,0,0,26,18.07,40.18,68.09C683.34,730,798.78,661.55,779.22,531.43Z" transform="translate(-1.51 -2.08)"/><path class="cls-1" d="M429,722.2s8.21-45.6,43-72.39c0,0-47.94-33.27-40.11-106.64,0,0-40.71,3-86.59-21.45C345.33,521.72,309.63,623.39,429,722.2Z" transform="translate(-1.51 -2.08)"/><path class="cls-1" d="M595.29,312.29H542.46l-23.19,33.77,94.61,5.36Zm-28.86,30.33a9.3,9.3,0,1,1,9.3-9.3A9.3,9.3,0,0,1,566.43,342.62Z" transform="translate(-1.51 -2.08)"/><path class="cls-1" d="M317.8,631.41l24.38,46.86,40.67,5-38.92-86.41ZM358,643a9.29,9.29,0,1,1-12.53-4A9.29,9.29,0,0,1,358,643Z" transform="translate(-1.51 -2.08)"/><path class="cls-1" d="M763.83,701.15l27.71-45L775,618.71l-54.2,77.74Zm-10.68-40.48a9.29,9.29,0,1,1,3,12.79A9.3,9.3,0,0,1,753.15,660.67Z" transform="translate(-1.51 -2.08)"/><path class="cls-1" d="M1660.48,732l16,175s-327-307-887.35-77.72C711.68,860.94,692.48,862,654.48,859c-74.41-5.88-119.8-96.66-119.8-96.66s50.87,60.66,126.2,71.42c49,7,117.67-18.7,160.64-35.38,50-19.38,99-35.38,152.48-48.09,158.92-37.73,455.51-62.4,680.94,109.38L1647.48,733Z" transform="translate(-1.51 -2.08)"/></svg>