<svg id="duo" xmlns="http://www.w3.org/2000/svg" viewBox="0 0 2001 1996"><defs><style>.cls-1{fill:#efeb85;}.cls-2{fill:#e46a8a;}</style></defs><title>quai 158 CARRE JAUNE ROSE</title><rect class="cls-1" y="1" width="2001" height="1995"/><rect class="cls-2" x="1" width="2000" height="1002"/><path class="cls-2" d="M1331.34,1407.7q-3.66-2.79-9.95-2.79t-9.79,2.79a9,9,0,0,0-3.61,7.52,9.09,9.09,0,0,0,3.61,7.63q3.6,2.79,9.79,2.79t9.95-2.84a9.1,9.1,0,0,0,3.66-7.58A8.94,8.94,0,0,0,1331.34,1407.7Z" transform="translate(1 -2)"/><path class="cls-2" d="M1313.24,1391.1c2,1.58,4.71,2.37,8.15,2.37a13.21,13.21,0,0,0,8.25-2.37,7.75,7.75,0,0,0,3.09-6.5,8,8,0,0,0-3.09-6.65,13,13,0,0,0-8.25-2.42,12.62,12.62,0,0,0-8.09,2.42,8,8,0,0,0-3,6.65A7.86,7.86,0,0,0,1313.24,1391.1Z" transform="translate(1 -2)"/><path class="cls-2" d="M1545.59,1722.65c-25.62-.65-48.27-1.39-48.27-1.39s15.2-2.89,44.54-.9h3.73v-13.9c-17.64-.49-30.84-.92-30.84-.92s10.49-2,30.84-1.53v-41.15c-27.5-.39-65.89-1.53-81.88-2v48.44c16.76.42,35.17,1.3,37.44,3.19,1.78,1.48-16,1.33-37.44.66v9.25q39.65,7.42,81.89,17ZM1468,1686.17s7.64-1.55,22.39-.49c0,0,35.39,0,37.85,1.33S1468,1686.17,1468,1686.17Z" transform="translate(1 -2)"/><path class="cls-2" d="M1313.39,1696.44s15.2-5.68,44.55-1.77c0,0,2.83,0,7.37,0a64.89,64.89,0,0,0,7.78-15.14v-13.1c-33.51-.69-72.41-2-72.41-2s15.19-2.89,44.54-.91c0,0,12.8,0,27.87.2v-16.19h-62.15q-43.21,0-52.93,22c21.16.21,50.84.79,54,2.37,2.36,1.2-25.5.87-55,.21a36.83,36.83,0,0,0-1.79,10.11,238.68,238.68,0,0,1,38.15-.09s70.44,0,75.33,2.49c4.23,2.14-88.13-.6-113.5-1.38,0,.3,0,.6,0,.91a37,37,0,0,0,1.57,10.94c31.27,2.23,64.31,5.51,99.14,10a57.22,57.22,0,0,0,5.95-6C1336.15,1697.9,1313.39,1696.44,1313.39,1696.44Z" transform="translate(1 -2)"/><path class="cls-2" d="M1257.93,1695.19c34.67,1,68.77,3,102.09,6.16l3.52-4.69c-36.26-3.48-72.49-5.59-108.14-6.54Z" transform="translate(1 -2)"/><path class="cls-2" d="M1104.54,1697.89q31.26-2,63.12-2.81l-.55-5c-21.65.57-42.88,1.54-63.55,2.87Z" transform="translate(1 -2)"/><path class="cls-2" d="M666.11,1643.12c11.41-20.42,17.19-43.9,17.19-69.82s-5.78-49.4-17.19-69.81a124.33,124.33,0,0,0-47.48-48.09c-20-11.42-42.76-17.21-67.53-17.21s-47.5,5.79-67.53,17.21a124.2,124.2,0,0,0-47.48,48.09c-11.41,20.41-17.19,43.89-17.19,69.81s5.78,49.4,17.19,69.82a124.24,124.24,0,0,0,47.48,48.08c20,11.42,42.75,17.21,67.53,17.21s47.49-5.79,67.53-17.21A124.31,124.31,0,0,0,666.11,1643.12Zm-50,43.73q-29,16.56-65,16.56t-65.05-16.56a118.77,118.77,0,0,1-45.6-46.17q-16.54-29.62-16.55-67.38t16.55-67.38a118.77,118.77,0,0,1,45.6-46.17q29-16.56,65.05-16.56t65,16.56a118.84,118.84,0,0,1,45.6,46.17q16.54,29.63,16.55,67.38t-16.55,67.38A118.84,118.84,0,0,1,616.15,1686.85Z" transform="translate(1 -2)"/><path class="cls-2" d="M1463.93,1710l.58,5.17q41.31,7.13,79.76,16.61l1.31-4.82C1518.81,1720.31,1491.52,1714.68,1463.93,1710Z" transform="translate(1 -2)"/><path class="cls-2" d="M1647.23,1758.05c-3.75-1.41-4.47-2.81-8.26-4.17l1,6c2.19.79.23.9,2.41,1.7l5.42,124.92c-6-3.89-11.15-11.64-20.3-15.34-67.53-27.28-144-115.61-460.41-115.61H1167c-5.69,0-11.52,0-17.33.07-8.15.07-16,.12-23.59.17-126.44.82-176.14,15.09-361.14,88.09-21.46,8.47-58.8,14.32-96.07,14.32a175.18,175.18,0,0,1-64.84-12.2c-25.84-10.24-53.47-37.84-81.87-67.63l-1.22-1.29-1.77-.22c-35.86-4.53-68.27-16.19-96.33-34.65a195.24,195.24,0,0,1-65.72-71.66c-15.6-29.12-23.51-61.84-23.51-97.25,0-38.78,9.44-74.16,28-105.17s44.73-55.7,77.65-73.39,70.6-26.7,111.77-26.7,78.67,9,111.47,26.7,58.86,42.39,77.67,73.41,28.32,66.38,28.32,105.15a213,213,0,0,1-9.71,65,192.39,192.39,0,0,1-29.09,56.33,199.86,199.86,0,0,1-45.12,44.21,211.19,211.19,0,0,1-57.81,28.36l-7.65,2.44,5.57,5.79c10,10.43,20,18.11,29.57,22.81,4.94,2.41,13.41,2.92,19.66,2.92,10.95,0,40.81-1.74,81.5-17.82,12.65-5,22.32-10.24,32.56-15.78a361.42,361.42,0,0,1,36-17.59l-3.52-4c-29,12.23-42.35,23-66.9,32.68-33.4,13.2-61.91,17.47-79.66,17.47-8.49,0-14.52-1-17.46-2.41q-13.65-6.69-28.17-21.79Q694,1751,733.77,1697.6t39.79-124.3q0-59.82-29-107.74t-79.58-75.22Q614.41,1363,551.1,1363T437,1390.34q-50.84,27.3-79.58,75.22T328.64,1573.3q0,54.6,24.11,99.61a199.24,199.24,0,0,0,67.37,73.48q43.26,28.47,98.45,35.43c31.37,32.91,58,58.64,83.64,68.83a180,180,0,0,0,66.69,12.55c39,0,72.3-6.1,93.07-15.32,191.61-85.06,243.17-86,387.77-87.26,5.87,0,11.63,0,17.35-.07,335.88-2.67,439.16,113.06,486.1,134.66Z" transform="translate(1 -2)"/><path class="cls-2" d="M1465,1197.86c.22,8.7-1.44,17.06-7.14,22a73,73,0,0,1-7,5.4L1576,1272.88,973.26,1402.14l-43.82-28.33c-.28.21-.55.42-.83.65-18.56,15-44.61,20.69-52.1,11.41s-11.46-28.16-11.46-28.16l-91.64,36.13s-14.73-1.14-25.4-7.11c16,146,42,378.15,42,378.15l34-15c-17.66-18-30.23-44.66-35.18-76.56l-.6,0,.57-.18a201.37,201.37,0,0,1-2.31-30.71V1465.82l92.64-.09L877.37,1617c-.07,14.64,1,27.21,3.33,37.9,21.23.2,52.39.76,55.59,2.38,2.36,1.2-25.54.87-55,.21a86.54,86.54,0,0,0,5.16,15.49c11.13.68,20,1.7,21.63,3.23,1.32,1.24-6.77,1.59-19.28,1.46a49.68,49.68,0,0,0,14.07,16.38c21.16.47,50.86,1.75,54,5.29,2,2.28-18,2.08-42.15,1.06,7.46,2.79,16,4.14,25.69,4.14q32.52,0,52.28-21.21l.54-.62c-28.42-.69-55.47-1.57-55.47-1.57s15.2-2.89,44.55-.9c0,0,5.27,0,13,0a64.54,64.54,0,0,0,7.87-12.42c-30.74.11-107.5-2.39-107.5-2.39s15.2-2.88,44.55-.9c0,0,42.7,0,63.92,1.18q8.25-18.42,8.27-45.45l-2.7-154.59,93.31.09.27,178.28c20.45.12,59.33.61,62.92,2.43,2.58,1.31-30.76.8-62.92,0l0,18.08c20.45.13,59.31.62,62.89,2.44,2.58,1.3-30.73.8-62.89,0l0,22.11c6.33.34,10.86.78,12,1.35s-3.77.75-12,.79v2.25c20.18-.77,41.15-2.43,63.6-2.19,0-1,0-2,0-3-17-.94-29.59-1.75-29.59-1.75s10.09-3.77,29.7-3.06q1.68-40.23,32.71-63.86,32.8-25,101.35-25h72q0-29.62-18-45.6t-54-16A157.65,157.65,0,0,0,1252,1541q-24.11,7.85-40.94,21.2l-32.53-63.31q25.54-18,61.28-27.88a274.54,274.54,0,0,1,73.47-9.87q72.6,0,111.52,34.56T1463.7,1600v59.7a243.19,243.19,0,0,1,37.08,0s23.88,0,44.8.49V1465.73l90.63.09.77,292.06c2.81.76,10.17-4.76,13-4L1663,1272Zm-579.14,442.2s15.2-2.89,44.55-.9c0,0,70.44,0,75.33,2.48S885.87,1640.06,885.87,1640.06Zm331.69-203.39h-16.7V1377.9h-14.43v-13.41h31.13Zm63.83-10.67a23.1,23.1,0,0,1-10.06,8.66q-6.75,3.24-16.65,3.25a56.72,56.72,0,0,1-15-2,38.83,38.83,0,0,1-12.53-5.73l6.6-12.78a31.49,31.49,0,0,0,9.49,4.79,36,36,0,0,0,11,1.7q6.29,0,9.9-2.47a7.92,7.92,0,0,0,3.61-6.91,7.77,7.77,0,0,0-3.77-7q-3.77-2.37-13-2.37h-18.46l3.72-40.63h44v13.41h-30.11l-1.13,13.71h5.88q15.25,0,22.53,6.08t7.27,16.29A22.66,22.66,0,0,1,1281.39,1426Zm66.7,1.44a24.24,24.24,0,0,1-10.72,7.73,47.82,47.82,0,0,1-31.91,0,24,24,0,0,1-10.62-7.73,18.89,18.89,0,0,1-3.76-11.7,17.82,17.82,0,0,1,2.83-10,20.47,20.47,0,0,1,8.1-7,17.6,17.6,0,0,1-6.19-6.24,17,17,0,0,1-2.17-8.61,17.6,17.6,0,0,1,3.51-10.93,22.44,22.44,0,0,1,9.8-7.17,38.55,38.55,0,0,1,14.43-2.52,39.3,39.3,0,0,1,14.59,2.52,22.43,22.43,0,0,1,9.85,7.17,17.66,17.66,0,0,1,3.5,10.93,17,17,0,0,1-2.16,8.61,17.42,17.42,0,0,1-6.29,6.24,20.35,20.35,0,0,1,8.19,7,17.83,17.83,0,0,1,2.84,10A18.69,18.69,0,0,1,1348.09,1427.44Zm283.46-20q-15.67,14.8-40.66,14.81t-40.66-14.52a49.19,49.19,0,0,1,0-72q15.69-14.52,40.66-14.52t40.66,13.94a44.67,44.67,0,0,1,15.68,34.85Q1647.23,1392.64,1631.55,1407.45Z" transform="translate(1 -2)"/><path class="cls-2" d="M1253.72,1167.53l6-1.49,50,15.51,1.07-.31s-7.33-24.29-3.35-42.4l-37.46-14s-26,6.79-66.65,17.43C1219.5,1144.86,1237.23,1152,1253.72,1167.53Z" transform="translate(1 -2)"/><path class="cls-2" d="M755.53,1341.56l90.32-21.81-57-36.85,52.81-13.11c.88-13.1,4.89-25.57,15.26-32.66,0,0,39.3,5.69,86-20.76,22.68-12.84,41.43-.94,54.72,14.71l76.64-19-9.49-19.79s38.65-15.47,64.72-30.62C971.21,1203.41,735.6,1266.3,735.6,1270.87c0,1.75,3.53,34.74,8.8,82.91A95.51,95.51,0,0,1,755.53,1341.56Z" transform="translate(1 -2)"/><path class="cls-2" d="M1261.65,1183.57h39.83v.4l9.36-2.73a125.89,125.89,0,0,1-4.06-21.21h-5.3v12.54h-44.13C1258.46,1175.13,1260.17,1179.25,1261.65,1183.57Z" transform="translate(1 -2)"/><path class="cls-2" d="M992.85,1225.84v-7.5h64.61v26.18h-50c2.45,3.88,4.56,7.65,6.3,11h43.72v1.33l33.42-10.26-1-2.07h-21.42v-26.18h8.87l-5.27-11h-3.6v-7.5l-2.61-5.44h-8.39v12.94H988.21v4.24h-6.36V1217A62,62,0,0,1,992.85,1225.84Z" transform="translate(1 -2)"/><path class="cls-2" d="M1480.54,1207.34h-16.19a22.43,22.43,0,0,1-5,11h21.15Z" transform="translate(1 -2)"/><path class="cls-2" d="M841.77,1283.41H782.85v11H843C842.47,1290.91,842,1287.2,841.77,1283.41Z" transform="translate(1 -2)"/><path class="cls-2" d="M891.15,1390.3v9.4h11v-11.38A51.43,51.43,0,0,1,891.15,1390.3Z" transform="translate(1 -2)"/><path class="cls-2" d="M1544.47,1283.41v-27.89h30.45v-11h-137v-13.33a43.21,43.21,0,0,1-11,1.21v12.12h-64c-5.75,4.3-9.59,6.74-27.46.2-.18-.06-.33-.14-.51-.2h-22.51v-26.18h4.23a35.5,35.5,0,0,1,1.75-10.35l-31.53,10.35h14.55v26.18h-19.62a14.31,14.31,0,0,1-3.16,11h22.78v27.89h-77.22a178.54,178.54,0,0,0-19.7,11h96.92v35H1183.6v-16.68a127.27,127.27,0,0,1-11,9.41v7.27h-12.88c-7.87,3-16.69,3.49-27.35,0h-63.91v-35h44.41a30.47,30.47,0,0,0-4-11h-19.77c-11.12,3.38-27.48,7.59-37.32,11h5.66v35h-12.78a37.8,37.8,0,0,1-5.77,11h18.55v30.78H992.85v-2.29a54.42,54.42,0,0,1-11-1.1v3.39H933c-1.41,1-2.86,2.08-4.36,3.29a76.68,76.68,0,0,1-11.61,7.71h64.85V1409h11v-26.82h64.61v9.21h11v-9.21h80.9v-11h-80.9v-30.78H1172.6v26.53h11v-26.53h131.09v-11h-2.21v-35h114.44V1325h11v-30.59h95.55v22h11v-22h111.35v-11Zm-117.55,0H1312.48v-27.89h114.44Zm106.55,0h-95.55v-27.89h95.55Z" transform="translate(1 -2)"/><polygon class="cls-2" points="806.91 1327.39 755.48 1327.39 755.48 1338.39 761.35 1338.39 806.91 1327.39"/><path class="cls-2" d="M1415.33,1120.07c-11.07-7.5-21.47-2.68-42.28,7s-48,8.34-48,8.34c-18.62,22.54,6,92,12,99.37s27.56,4.91,35.63-7.67,35.62-7.68,47.81-3.22,34.4-18.48,34.3-32.34S1426.39,1127.58,1415.33,1120.07Zm-68.14,36.09c-1.17,3.18-4.66,12.73-4.66,12.73l-5.66-7.49s-4.8-14.39,6.73-13.78,25.08-8.86,31.58-8.28,32.17-9.87,32.17-9.87L1416,1138s-7.09,1-19.2,2-18.89,5.71-29.52,7.23S1348.36,1153,1347.19,1156.16ZM1421.9,1211c-1.92-.71-18.69-2.49-23.75-6.52s-1.22-2.63-11,.32-26.24,12.17-30.08,10.76c0,0,34.3-22.28,41.28-17.55s22.34,10.36,23.75,6.52C1422.09,1204.56,1423.82,1211.73,1421.9,1211Z" transform="translate(1 -2)"/><path class="cls-2" d="M980.15,1227.81c-14-9.47-27.08-3.38-53.31,8.79s-60.48,10.51-60.48,10.51c-23.48,28.43,7.59,116,15.08,125.32s34.75,6.2,44.92-9.68,44.93-9.68,60.29-4,43.39-23.31,43.26-40.79S994.1,1237.28,980.15,1227.81Zm-6.56,113c-1.92-.7-18.69-2.49-23.75-6.52s-1.21-2.62-11,.33-26.24,12.17-30.08,10.76c0,0,34.3-22.28,41.27-17.55s22.35,10.36,23.75,6.52C973.78,1334.38,975.51,1341.55,973.59,1340.84Zm-21.47-84.09c-15.55.84-24.12,6.41-37.76,8s-24.12,6.41-25.53,10.25l-5.63,15.36-7.49-9.28s-6.6-17.66,8.25-16.58,32-10.06,40.39-9.16,41.08-11.09,41.08-11.09l11.33,10.69S967.68,1255.91,952.12,1256.75Z" transform="translate(1 -2)"/><path class="cls-2" d="M1237.68,1172c-25.07-17-73-21.51-101.47-.66a353.89,353.89,0,0,1-53.63,32.51s42.25,91.11,46.4,108.27,46.44,1.37,57.78-15.34,77.31-47.31,77.31-47.31S1262.74,1189,1237.68,1172Zm-44.83,105.41c-6.47-.19-21.89,18.12-26.43,18.63s-26.05,5.71-27.26,3.08-19.55-48.56-18.58-50.36c6.84-12.74,23.31,43.39,26.45,46.71s15.74-7.3,22.2-7.11,17.86-13.06,18.56-15S1199.31,1277.6,1192.85,1277.41Zm44.2-73.11-3.85-8.3a15.68,15.68,0,0,0-2.56-3.87c-5.72-6.33-11.59-13.48-25.85-12.71-15.56.83-36.36,4.1-40.9,4.62s-5.76-2.11-5.76-2.11a70.52,70.52,0,0,1,11.36-4.86c15.28-5.15,43.19-9.7,66,13.6,0,0,10.63,12.61,9.22,16.45S1239.48,1209.55,1237.05,1204.3Z" transform="translate(1 -2)"/><path class="cls-2" d="M1125.75,1248.5c2.13,2.22,4.49,6.52,6.85,11.65l454-149.39Z" transform="translate(1 -2)"/><path class="cls-2" d="M1120.7,1250,761.13,1357.48c-12.44,17.6,5.91,23,5.91,23l357.89-117.77C1122.83,1257,1121.2,1252.2,1120.7,1250Z" transform="translate(1 -2)"/><path class="cls-2" d="M437.06,1389.92s36.19,27.4,48.91,69.46c0,0,46-44,130.12,0,0,0,9.78-35.21,48.91-69.46C665,1389.92,570.11,1331.23,437.06,1389.92Z" transform="translate(1 -2)"/><path class="cls-2" d="M768.7,1551.35s-45.56,13.33-89,6.84c0,0,17.61,66.53-47,123.67,0,0,26,18.07,40.19,68.08C672.83,1749.94,788.27,1681.46,768.7,1551.35Z" transform="translate(1 -2)"/><path class="cls-2" d="M418.47,1742.12s8.21-45.6,43-72.4c0,0-47.93-33.26-40.11-106.63,0,0-40.7,3-86.58-21.45C334.82,1541.64,299.11,1643.31,418.47,1742.12Z" transform="translate(1 -2)"/><path class="cls-2" d="M584.78,1332.2H532L508.76,1366l94.61,5.37Zm-28.86,30.33a9.3,9.3,0,1,1,9.3-9.29A9.29,9.29,0,0,1,555.92,1362.53Z" transform="translate(1 -2)"/><path class="cls-2" d="M307.29,1651.32l24.38,46.86,40.67,5-38.92-86.4Zm40.22,11.6a9.29,9.29,0,1,1-12.53-4A9.3,9.3,0,0,1,347.51,1662.92Z" transform="translate(1 -2)"/><path class="cls-2" d="M753.32,1721.07l27.71-45-16.58-37.46-54.2,77.73Zm-10.68-40.48a9.29,9.29,0,1,1,3,12.78A9.3,9.3,0,0,1,742.64,1680.59Z" transform="translate(1 -2)"/><path class="cls-2" d="M1650,1751.88l16,175s-327-307-887.35-77.71c-77.45,31.69-96.65,32.71-134.65,29.71-74.41-5.87-119.8-96.65-119.8-96.65s50.87,60.65,126.2,71.41c49,7,117.67-18.69,160.64-35.37,50-19.39,99-35.39,152.48-48.09,158.92-37.74,455.51-62.4,680.94,109.38L1637,1752.88Z" transform="translate(1 -2)"/><path class="cls-1" d="M1339.34,387.7q-3.66-2.79-9.95-2.79t-9.79,2.79a9,9,0,0,0-3.61,7.52,9.09,9.09,0,0,0,3.61,7.63q3.6,2.79,9.79,2.79t9.95-2.84a9.1,9.1,0,0,0,3.66-7.58A8.94,8.94,0,0,0,1339.34,387.7Z" transform="translate(1 -2)"/><path class="cls-1" d="M1321.24,371.1c2,1.58,4.71,2.37,8.15,2.37a13.21,13.21,0,0,0,8.25-2.37,7.75,7.75,0,0,0,3.09-6.5,8,8,0,0,0-3.09-6.65,13,13,0,0,0-8.25-2.42,12.62,12.62,0,0,0-8.09,2.42,8,8,0,0,0-3,6.65A7.86,7.86,0,0,0,1321.24,371.1Z" transform="translate(1 -2)"/><path class="cls-1" d="M1553.59,702.65c-25.62-.65-48.27-1.39-48.27-1.39s15.2-2.89,44.54-.9h3.73v-13.9c-17.64-.49-30.84-.92-30.84-.92s10.49-2,30.84-1.53V642.86c-27.5-.39-65.89-1.53-81.88-2v48.44c16.76.42,35.17,1.3,37.44,3.19,1.78,1.48-16,1.33-37.44.66v9.25q39.65,7.43,81.89,17ZM1476,666.17s7.64-1.55,22.39-.49c0,0,35.39,0,37.85,1.33S1476,666.17,1476,666.17Z" transform="translate(1 -2)"/><path class="cls-1" d="M1321.39,676.44s15.2-5.68,44.55-1.77c0,0,2.83,0,7.37,0a64.89,64.89,0,0,0,7.78-15.14v-13.1c-33.51-.69-72.41-2-72.41-2s15.19-2.89,44.54-.91c0,0,12.8,0,27.87.2V627.62h-62.15q-43.21,0-52.93,22c21.16.21,50.84.79,54,2.37,2.36,1.2-25.5.87-55,.21a36.83,36.83,0,0,0-1.79,10.11,238.68,238.68,0,0,1,38.15-.09s70.44,0,75.33,2.49c4.23,2.14-88.13-.6-113.5-1.38,0,.3,0,.6,0,.91a37,37,0,0,0,1.57,10.94c31.27,2.23,64.31,5.51,99.14,10.05a57.22,57.22,0,0,0,5.95-6C1344.15,677.9,1321.39,676.44,1321.39,676.44Z" transform="translate(1 -2)"/><path class="cls-1" d="M1265.93,675.19c34.67,1,68.77,3,102.09,6.16l3.52-4.69c-36.26-3.48-72.49-5.59-108.14-6.54Z" transform="translate(1 -2)"/><path class="cls-1" d="M1112.54,677.89q31.26-2,63.12-2.81l-.55-5c-21.65.57-42.88,1.54-63.55,2.87Z" transform="translate(1 -2)"/><path class="cls-1" d="M674.11,623.12c11.41-20.42,17.19-43.9,17.19-69.82s-5.78-49.4-17.19-69.81a124.33,124.33,0,0,0-47.48-48.09c-20-11.42-42.76-17.21-67.53-17.21S511.6,424,491.57,435.4a124.2,124.2,0,0,0-47.48,48.09c-11.41,20.41-17.19,43.89-17.19,69.81s5.78,49.4,17.19,69.82a124.24,124.24,0,0,0,47.48,48.08c20,11.42,42.75,17.21,67.53,17.21s47.49-5.79,67.53-17.21A124.31,124.31,0,0,0,674.11,623.12Zm-50,43.73q-29,16.56-65,16.56t-65.05-16.56a118.77,118.77,0,0,1-45.6-46.17q-16.54-29.62-16.55-67.38t16.55-67.38a118.77,118.77,0,0,1,45.6-46.17q29-16.56,65.05-16.56t65,16.56a118.84,118.84,0,0,1,45.6,46.17q16.54,29.63,16.55,67.38t-16.55,67.38A118.84,118.84,0,0,1,624.15,666.85Z" transform="translate(1 -2)"/><path class="cls-1" d="M1471.93,690l.58,5.17q41.31,7.13,79.76,16.61l1.31-4.82C1526.81,700.31,1499.52,694.68,1471.93,690Z" transform="translate(1 -2)"/><path class="cls-1" d="M1655.23,738.05c-3.75-1.41-4.47-2.81-8.26-4.17l1,6c2.19.79.23.9,2.41,1.7l5.42,124.92c-6-3.89-11.15-11.64-20.3-15.34-67.53-27.28-144-115.61-460.41-115.61H1175c-5.69,0-11.52,0-17.33.07-8.15.07-16,.12-23.59.17C1007.67,736.61,958,750.88,773,823.88c-21.46,8.47-58.8,14.32-96.07,14.32A175.18,175.18,0,0,1,612.06,826c-25.84-10.24-53.47-37.84-81.87-67.63L529,757.08l-1.77-.22c-35.86-4.53-68.27-16.19-96.33-34.65a195.24,195.24,0,0,1-65.72-71.66c-15.6-29.12-23.51-61.84-23.51-97.25,0-38.78,9.44-74.16,28-105.17s44.73-55.7,77.65-73.39S517.93,348,559.1,348s78.67,9,111.47,26.7,58.86,42.39,77.67,73.41,28.32,66.38,28.32,105.15a213,213,0,0,1-9.71,65,192.39,192.39,0,0,1-29.09,56.33,199.86,199.86,0,0,1-45.12,44.21,211.19,211.19,0,0,1-57.81,28.36l-7.65,2.44,5.57,5.79c10,10.43,20,18.11,29.57,22.81,4.94,2.41,13.41,2.92,19.66,2.92,10.95,0,40.81-1.74,81.5-17.82,12.65-5,22.32-10.24,32.56-15.78a361.42,361.42,0,0,1,36-17.59l-3.52-4c-29,12.23-42.35,23-66.9,32.68-33.4,13.2-61.91,17.47-79.66,17.47-8.49,0-14.52-1-17.46-2.41q-13.65-6.69-28.17-21.79Q702,731,741.77,677.6t39.79-124.3q0-59.82-29-107.74t-79.58-75.22Q622.41,343,559.1,343T445,370.34q-50.84,27.3-79.58,75.22T336.64,553.3q0,54.6,24.11,99.61a199.24,199.24,0,0,0,67.37,73.48q43.26,28.47,98.45,35.43c31.37,32.91,58,58.64,83.64,68.83A180,180,0,0,0,676.9,843.2c39,0,72.3-6.1,93.07-15.32,191.61-85.06,243.17-86,387.77-87.26,5.87,0,11.63,0,17.35-.07,335.88-2.67,439.16,113.06,486.1,134.66Z" transform="translate(1 -2)"/><path class="cls-1" d="M1473,177.86c.22,8.7-1.44,17.06-7.14,22a73,73,0,0,1-7,5.4L1584,252.88,981.26,382.14l-43.82-28.33c-.28.21-.55.42-.83.65-18.56,15-44.61,20.69-52.1,11.41s-11.46-28.16-11.46-28.16l-91.64,36.13s-14.73-1.14-25.4-7.11c16,146,42,378.15,42,378.15l34-15c-17.66-18-30.23-44.66-35.18-76.56l-.6,0,.57-.18a201.37,201.37,0,0,1-2.31-30.71V445.82l92.64-.09L885.37,597c-.07,14.64,1,27.21,3.33,37.9,21.23.2,52.39.76,55.59,2.38,2.36,1.2-25.54.87-55,.21A86.54,86.54,0,0,0,894.44,653c11.13.68,20,1.7,21.63,3.23,1.32,1.24-6.77,1.59-19.28,1.46a49.68,49.68,0,0,0,14.07,16.38c21.16.47,50.86,1.75,54,5.29,2,2.28-18,2.08-42.15,1.06,7.46,2.79,16,4.14,25.69,4.14q32.52,0,52.28-21.21l.54-.62c-28.42-.69-55.47-1.57-55.47-1.57s15.2-2.89,44.55-.9c0,0,5.27,0,13,0a64.54,64.54,0,0,0,7.87-12.42c-30.74.11-107.5-2.39-107.5-2.39s15.2-2.88,44.55-.9c0,0,42.7,0,63.92,1.18q8.25-18.42,8.27-45.45l-2.7-154.59,93.31.09.27,178.28c20.45.12,59.33.61,62.92,2.43,2.58,1.31-30.76.8-62.92,0l0,18.08c20.45.13,59.31.62,62.89,2.44,2.58,1.3-30.73.8-62.89,0l0,22.11c6.33.34,10.86.78,12,1.35s-3.77.75-12,.79v2.25c20.18-.77,41.15-2.43,63.6-2.19,0-1,0-2,0-3-17-.94-29.59-1.75-29.59-1.75s10.09-3.77,29.7-3.06q1.68-40.23,32.71-63.86,32.8-25,101.35-25h72q0-29.62-18-45.6t-54-16A157.65,157.65,0,0,0,1260,521q-24.11,7.85-40.94,21.2l-32.53-63.31q25.54-18,61.28-27.88a274.54,274.54,0,0,1,73.47-9.87q72.6,0,111.52,34.56T1471.7,580v59.7a243.19,243.19,0,0,1,37.08,0s23.88,0,44.8.49V445.73l90.63.09.77,292.06c2.81.76,10.17-4.76,13-4L1671,252ZM893.87,620.06s15.2-2.89,44.55-.9c0,0,70.44,0,75.33,2.48S893.87,620.06,893.87,620.06Zm331.69-203.39h-16.7V357.9h-14.43V344.49h31.13ZM1289.39,406a23.1,23.1,0,0,1-10.06,8.66q-6.75,3.24-16.65,3.25a56.72,56.72,0,0,1-15-2,38.83,38.83,0,0,1-12.53-5.73l6.6-12.78a31.49,31.49,0,0,0,9.49,4.79,36,36,0,0,0,11,1.7q6.29,0,9.9-2.47a7.92,7.92,0,0,0,3.61-6.91,7.77,7.77,0,0,0-3.77-7q-3.77-2.37-13-2.37h-18.46l3.72-40.63h44V357.9h-30.11L1257,371.61h5.88q15.25,0,22.53,6.08t7.27,16.29A22.66,22.66,0,0,1,1289.39,406Zm66.7,1.44a24.24,24.24,0,0,1-10.72,7.73,47.82,47.82,0,0,1-31.91,0,24,24,0,0,1-10.62-7.73,18.89,18.89,0,0,1-3.76-11.7,17.82,17.82,0,0,1,2.83-10,20.47,20.47,0,0,1,8.1-7,17.6,17.6,0,0,1-6.19-6.24,17,17,0,0,1-2.17-8.61,17.6,17.6,0,0,1,3.51-10.93,22.44,22.44,0,0,1,9.8-7.17,38.55,38.55,0,0,1,14.43-2.52,39.3,39.3,0,0,1,14.59,2.52,22.43,22.43,0,0,1,9.85,7.17,17.66,17.66,0,0,1,3.5,10.93,17,17,0,0,1-2.16,8.61,17.42,17.42,0,0,1-6.29,6.24,20.35,20.35,0,0,1,8.19,7,17.83,17.83,0,0,1,2.84,10A18.69,18.69,0,0,1,1356.09,407.44Zm283.46-20q-15.67,14.81-40.66,14.81t-40.66-14.52a49.19,49.19,0,0,1,0-72q15.69-14.52,40.66-14.52t40.66,13.94A44.67,44.67,0,0,1,1655.23,350Q1655.23,372.64,1639.55,387.45Z" transform="translate(1 -2)"/><path class="cls-1" d="M1261.72,147.53l6-1.49,50,15.51,1.07-.31s-7.33-24.29-3.35-42.4l-37.46-14s-26,6.79-66.65,17.43C1227.5,124.86,1245.23,132,1261.72,147.53Z" transform="translate(1 -2)"/><path class="cls-1" d="M763.53,321.56l90.32-21.81-57-36.85,52.81-13.11c.88-13.1,4.89-25.57,15.26-32.66,0,0,39.3,5.69,86-20.76,22.68-12.84,41.43-.94,54.72,14.71l76.64-19-9.49-19.79s38.65-15.47,64.72-30.62C979.21,183.41,743.6,246.3,743.6,250.87c0,1.75,3.53,34.74,8.8,82.91A95.51,95.51,0,0,1,763.53,321.56Z" transform="translate(1 -2)"/><path class="cls-1" d="M1269.65,163.57h39.83v.4l9.36-2.73a125.89,125.89,0,0,1-4.06-21.21h-5.3v12.54h-44.13C1266.46,155.13,1268.17,159.25,1269.65,163.57Z" transform="translate(1 -2)"/><path class="cls-1" d="M1000.85,205.84v-7.5h64.61v26.18h-50c2.45,3.88,4.56,7.65,6.3,11h43.72v1.33l33.42-10.26-1-2.07h-21.42V198.34h8.87l-5.27-11h-3.6v-7.5l-2.61-5.44h-8.39v12.94H996.21v4.24h-6.36V197A62,62,0,0,1,1000.85,205.84Z" transform="translate(1 -2)"/><path class="cls-1" d="M1488.54,187.34h-16.19a22.43,22.43,0,0,1-5,11h21.15Z" transform="translate(1 -2)"/><path class="cls-1" d="M849.77,263.41H790.85v11H851C850.47,270.91,850,267.2,849.77,263.41Z" transform="translate(1 -2)"/><path class="cls-1" d="M899.15,370.3v9.4h11V368.32A51.43,51.43,0,0,1,899.15,370.3Z" transform="translate(1 -2)"/><path class="cls-1" d="M1552.47,263.41V235.52h30.45v-11h-137V211.19a43.21,43.21,0,0,1-11,1.21v12.12h-64c-5.75,4.3-9.59,6.74-27.46.2-.18-.06-.33-.14-.51-.2h-22.51V198.34h4.23a35.5,35.5,0,0,1,1.75-10.35l-31.53,10.35h14.55v26.18h-19.62a14.31,14.31,0,0,1-3.16,11h22.78v27.89h-77.22a178.54,178.54,0,0,0-19.7,11h96.92v35H1191.6V292.71a127.27,127.27,0,0,1-11,9.41v7.27h-12.88c-7.87,3-16.69,3.49-27.35,0h-63.91v-35h44.41a30.47,30.47,0,0,0-4-11h-19.77c-11.12,3.38-27.48,7.59-37.32,11h5.66v35h-12.78a37.8,37.8,0,0,1-5.77,11h18.55v30.78h-64.61v-2.29a54.42,54.42,0,0,1-11-1.1v3.39H941c-1.41,1-2.86,2.08-4.36,3.29A76.68,76.68,0,0,1,925,362.17h64.85V389h11V362.17h64.61v9.21h11v-9.21h80.9v-11h-80.9V320.39H1180.6v26.53h11V320.39h131.09v-11h-2.21v-35h114.44V305h11V274.41h95.55v22h11v-22h111.35v-11Zm-117.55,0H1320.48V235.52h114.44Zm106.55,0h-95.55V235.52h95.55Z" transform="translate(1 -2)"/><polygon class="cls-1" points="814.91 307.39 763.48 307.39 763.48 318.39 769.35 318.39 814.91 307.39"/><path class="cls-1" d="M1423.33,100.07c-11.07-7.5-21.47-2.68-42.28,7s-48,8.34-48,8.34c-18.62,22.54,6,92,12,99.37s27.56,4.91,35.63-7.67,35.62-7.68,47.81-3.22,34.4-18.48,34.3-32.34S1434.39,107.58,1423.33,100.07Zm-68.14,36.09c-1.17,3.18-4.66,12.73-4.66,12.73l-5.66-7.49s-4.8-14.39,6.73-13.78,25.08-8.86,31.58-8.28,32.17-9.87,32.17-9.87L1424,118s-7.09,1-19.2,2-18.89,5.71-29.52,7.23S1356.36,133,1355.19,136.16ZM1429.9,191c-1.92-.71-18.69-2.49-23.75-6.52s-1.22-2.63-11,.32-26.24,12.17-30.08,10.76c0,0,34.3-22.28,41.28-17.55s22.34,10.36,23.75,6.52C1430.09,184.56,1431.82,191.73,1429.9,191Z" transform="translate(1 -2)"/><path class="cls-1" d="M988.15,207.81c-14-9.47-27.08-3.38-53.31,8.79s-60.48,10.51-60.48,10.51c-23.48,28.43,7.59,116,15.08,125.32s34.75,6.2,44.92-9.68,44.93-9.68,60.29-4.05,43.39-23.31,43.26-40.79S1002.1,217.28,988.15,207.81Zm-6.56,113c-1.92-.7-18.69-2.49-23.75-6.52s-1.21-2.62-11,.33-26.24,12.17-30.08,10.76c0,0,34.3-22.28,41.27-17.55s22.35,10.36,23.75,6.52C981.78,314.38,983.51,321.55,981.59,320.84Zm-21.47-84.09c-15.55.84-24.12,6.41-37.76,7.95s-24.12,6.41-25.53,10.25l-5.63,15.36L883.71,261s-6.6-17.66,8.25-16.58,32-10.06,40.39-9.16,41.08-11.09,41.08-11.09l11.33,10.69S975.68,235.91,960.12,236.75Z" transform="translate(1 -2)"/><path class="cls-1" d="M1245.68,152c-25.07-17-73-21.51-101.47-.66a353.89,353.89,0,0,1-53.63,32.51S1132.83,275,1137,292.12s46.44,1.37,57.78-15.34,77.31-47.31,77.31-47.31S1270.74,169,1245.68,152Zm-44.83,105.41c-6.47-.19-21.89,18.12-26.43,18.63s-26.05,5.71-27.26,3.08-19.55-48.56-18.58-50.36c6.84-12.74,23.31,43.39,26.45,46.71s15.74-7.3,22.2-7.11,17.86-13.06,18.56-15S1207.31,257.6,1200.85,257.41Zm44.2-73.11-3.85-8.3a15.68,15.68,0,0,0-2.56-3.87c-5.72-6.33-11.59-13.48-25.85-12.71-15.56.83-36.36,4.1-40.9,4.62s-5.76-2.11-5.76-2.11a70.52,70.52,0,0,1,11.36-4.86c15.28-5.15,43.19-9.7,66,13.6,0,0,10.63,12.61,9.22,16.45S1247.48,189.55,1245.05,184.3Z" transform="translate(1 -2)"/><path class="cls-1" d="M1133.75,228.5c2.13,2.22,4.49,6.52,6.85,11.65l454-149.39Z" transform="translate(1 -2)"/><path class="cls-1" d="M1128.7,230,769.13,337.48c-12.44,17.6,5.91,23,5.91,23l357.89-117.77C1130.83,237,1129.2,232.2,1128.7,230Z" transform="translate(1 -2)"/><path class="cls-1" d="M445.06,369.92s36.19,27.4,48.91,69.46c0,0,46-44,130.12,0,0,0,9.78-35.21,48.91-69.46C673,369.92,578.11,311.23,445.06,369.92Z" transform="translate(1 -2)"/><path class="cls-1" d="M776.7,531.35s-45.56,13.33-89,6.84c0,0,17.61,66.53-47,123.67,0,0,26,18.07,40.19,68.08C680.83,729.94,796.27,661.46,776.7,531.35Z" transform="translate(1 -2)"/><path class="cls-1" d="M426.47,722.12s8.21-45.6,43-72.4c0,0-47.93-33.26-40.11-106.63,0,0-40.7,3-86.58-21.45C342.82,521.64,307.11,623.31,426.47,722.12Z" transform="translate(1 -2)"/><path class="cls-1" d="M592.78,312.2H540L516.76,346l94.61,5.37Zm-28.86,30.33a9.3,9.3,0,1,1,9.3-9.29A9.29,9.29,0,0,1,563.92,342.53Z" transform="translate(1 -2)"/><path class="cls-1" d="M315.29,631.32l24.38,46.86,40.67,5-38.92-86.4Zm40.22,11.6A9.29,9.29,0,1,1,343,639,9.3,9.3,0,0,1,355.51,642.92Z" transform="translate(1 -2)"/><path class="cls-1" d="M761.32,701.07l27.71-45-16.58-37.46-54.2,77.73Zm-10.68-40.48a9.29,9.29,0,1,1,3,12.78A9.3,9.3,0,0,1,750.64,660.59Z" transform="translate(1 -2)"/><path class="cls-1" d="M1658,731.88l16,175s-327-307-887.35-77.71C709.17,860.86,690,861.88,652,858.88c-74.41-5.87-119.8-96.65-119.8-96.65s50.87,60.65,126.2,71.41c49,7,117.67-18.69,160.64-35.37,50-19.39,99-35.39,152.48-48.09,158.92-37.74,455.51-62.4,680.94,109.38L1645,732.88Z" transform="translate(1 -2)"/></svg>