<svg id="flate_design" data-name="flate design" xmlns="http://www.w3.org/2000/svg" viewBox="0 0 655 653"><defs><style>.cls-1{fill:#f70000;}.cls-2{fill:#f7f7f7;}.cls-3{fill:#af0000;}.cls-4{fill:#e5e5e5;}.cls-5,.cls-9{fill:#fff;}.cls-5{opacity:0.35;}.cls-11,.cls-13,.cls-5{isolation:isolate;}.cls-6{fill:#dadbdc;}.cls-7{fill:#960000;}.cls-8{fill:#e3e0e3;}.cls-10{fill:#efefef;}.cls-12{fill:#b20000;}.cls-13{fill:#262626;opacity:0.21;}</style></defs><title>soda pour motion</title><polygon class="cls-1" points="0 0 655 1 655 653 2 653 0 0"/><path class="cls-2" d="M576.11,92.86,536.82,221.28h27.46l36.1-125,2-.71-1.66-2.37,3-1.19-2.13-2.6,3.32-.47-2.61-2.37,3.2-.24-2.72-2.6,2.72-.36L605,80.18l.83,1.54,1.07-1.66v2.25l.83-2,1.06,2.6,2.13-1.42.12,1.89L613,82.32v2.25L615.08,83v.79A1,1,0,0,0,616,84.9a1.09,1.09,0,0,0,.47-.08l1.6-.62,62.74,28.17s15.86-6,13.37-18.11L631.33,66.69,630.15,63l-3.91,1.18-1.42-3.43-3.67.94-1.66-3.55-3.78,1.19-1.31-3.44-3.78.48-2.25-3.67L605.05,54,602,51.89l-2.17,2.89-3.4-2.18-1.89,3-3.79-1.18,1.07,4.14-4-.63,1,2.92-2.91,1,.7,3.35-3.22,1.08,1.42,2.61-2.72.82,1,2.61-2,1.42.12,2.6-2,1.42L579,81.43l-1.42,1.66-.12,2.84Z" transform="translate(-249 -2)"/><polygon class="cls-3" points="191.7 604.67 140 652 325 652 374.57 604.2 191.7 604.67"/><path class="cls-4" d="M579.27,82.09,599.79,93.3S584.16,83.67,579.27,82.09Z" transform="translate(-249 -2)"/><path class="cls-4" d="M580.22,78.3l20.51,11.21S585.11,79.88,580.22,78.3Z" transform="translate(-249 -2)"/><path class="cls-4" d="M581.32,75.78,601.84,87S586.21,77.36,581.32,75.78Z" transform="translate(-249 -2)"/><path class="cls-4" d="M583.06,72.39l19.49,11.2S587.71,74,583.06,72.39Z" transform="translate(-249 -2)"/><path class="cls-4" d="M584,69.94l20.54,11.21S588.9,71.52,584,69.94Z" transform="translate(-249 -2)"/><path class="cls-4" d="M589.67,62.08l15.18,17.78S593.68,65.29,589.67,62.08Z" transform="translate(-249 -2)"/><path class="cls-4" d="M592.11,58.32l14.94,21.56S596.22,62.26,592.11,58.32Z" transform="translate(-249 -2)"/><path class="cls-4" d="M620.78,61.89l-10,19.73S619.33,66.61,620.78,61.89Z" transform="translate(-249 -2)"/><path class="cls-4" d="M615.8,59.5l-7.33,20.88S615,64.37,615.8,59.5Z" transform="translate(-249 -2)"/><path class="cls-4" d="M610.54,56.92,607.4,79.16S610.69,61.92,610.54,56.92Z" transform="translate(-249 -2)"/><path class="cls-4" d="M605.39,54l2.21,25.65S606.61,59.83,605.39,54Z" transform="translate(-249 -2)"/><path class="cls-4" d="M599.54,55l8.22,24.91S602.39,59.93,599.54,55Z" transform="translate(-249 -2)"/><path class="cls-4" d="M630.54,66.8,616.8,84.17S628.34,71.11,630.54,66.8Z" transform="translate(-249 -2)"/><path class="cls-4" d="M626.67,64.94,614.12,83.19S624.72,69.39,626.67,64.94Z" transform="translate(-249 -2)"/><path class="cls-4" d="M594.89,55.26l11.8,25.57S597.15,60.49,594.89,55.26Z" transform="translate(-249 -2)"/><path class="cls-4" d="M585.69,67.41,605,80.52S590.41,69.45,585.69,67.41Z" transform="translate(-249 -2)"/><path class="cls-4" d="M587.54,66l17.1,13.92S591.81,68.4,587.54,66Z" transform="translate(-249 -2)"/><path class="cls-4" d="M694.12,94.28s-10.06.36-13.37,18.11C680.75,112.39,697.54,105.05,694.12,94.28Z" transform="translate(-249 -2)"/><path class="cls-5" d="M580.73,136.93s15.18-63,22.33-62.77,78.53,34.63,78.53,34.63,3.45-10.24,6.69-11.86c.79-.39-75.15-34.56-80.32-34.16s-9.14-2.38-16.29,6.36-22.86,67.53-22.86,67.53Z" transform="translate(-249 -2)"/><path class="cls-6" d="M403.43,195.72l37.28,410.95s88.65,12.31,182.87-.48l39.17-409.05S532.2,191,403.43,195.72Z" transform="translate(-249 -2)"/><path class="cls-7" d="M438.34,595.31s68.65,11.83,187.49,0l36.92-398.17s-174.7-7.1-259.44,1.42Z" transform="translate(-249 -2)"/><path class="cls-8" d="M407.09,142.22l-4.73,30.3s-14.68,4.26-7.1,15.15l-8,12.78S501.36,186.72,677,199l-7.1-13.25s5.68-9.47-4.87-11.12c-2.13-.33-3.2-2.88-3.66-5l-4.73-28.88S534.92,129.91,407.09,142.22Z" transform="translate(-249 -2)"/><path class="cls-9" d="M387.21,200.45s-1.42,3.79,34.09,2.37,240.51,0,240.51,0,23.2,0,15.15-3.79-7.1-13.25-7.1-13.25l-274.6,1.89S395.73,198.56,387.21,200.45Z" transform="translate(-249 -2)"/><path class="cls-2" d="M396.68,175.36s125-9.94,271.76.95c0,0,6.15-.95,1.42,9.47,0,0-140.14-12.31-274.6,1.89C395.26,187.67,386.74,180.57,396.68,175.36Z" transform="translate(-249 -2)"/><path class="cls-9" d="M407.09,142.22s143-11.36,249.51-1.42c0,0-1.42,25.09,6.63,30.3,0,0-162.87-10.89-260.87,1.42C402.36,172.52,409,144.59,407.09,142.22Z" transform="translate(-249 -2)"/><path class="cls-10" d="M478.11,599.33s1.66,9.23,3.79,10.89,74.09,4,102.5.47c0,0,1.42-2.84,3.08-12.54C587.48,598.15,551.54,603.59,478.11,599.33Z" transform="translate(-249 -2)"/><g class="cls-11"><path class="cls-12" d="M673.78,596.19a27.54,27.54,0,0,1-8.16-3.32l4.16-9a26,26,0,0,0,7,3,29.32,29.32,0,0,0,8,1.16q7.92,0,7.92-3.92a2.77,2.77,0,0,0-2.16-2.64,31.94,31.94,0,0,0-6.64-1.36,64,64,0,0,1-8.72-1.84,13.52,13.52,0,0,1-6-3.68q-2.52-2.64-2.52-7.52a11.81,11.81,0,0,1,2.36-7.24A15.14,15.14,0,0,1,675.9,555a29.43,29.43,0,0,1,10.68-1.76,41.69,41.69,0,0,1,9.08,1,25.57,25.57,0,0,1,7.48,2.76L699,565.83a24.88,24.88,0,0,0-12.4-3.2,12.56,12.56,0,0,0-6,1.12,3.31,3.31,0,0,0-2,2.88,2.86,2.86,0,0,0,2.16,2.8,38.46,38.46,0,0,0,6.88,1.52,73.65,73.65,0,0,1,8.64,1.88,13,13,0,0,1,5.84,3.64,10.34,10.34,0,0,1,2.48,7.36,11.36,11.36,0,0,1-2.4,7.12,15.33,15.33,0,0,1-7,4.84,31.14,31.14,0,0,1-10.92,1.72A41.81,41.81,0,0,1,673.78,596.19Z" transform="translate(-249 -2)"/><path class="cls-12" d="M720.54,594.67a21.11,21.11,0,0,1-8.44-7.88,23,23,0,0,1,0-22.88,21.11,21.11,0,0,1,8.44-7.88,27.54,27.54,0,0,1,24.36,0,21.2,21.2,0,0,1,8.4,7.88,23,23,0,0,1,0,22.88,21.2,21.2,0,0,1-8.4,7.88,27.54,27.54,0,0,1-24.36,0ZM740.62,584a13.77,13.77,0,0,0,0-17.36,10.39,10.39,0,0,0-7.88-3.24,10.52,10.52,0,0,0-7.92,3.24,13.63,13.63,0,0,0,0,17.36,10.52,10.52,0,0,0,7.92,3.24A10.39,10.39,0,0,0,740.62,584Z" transform="translate(-249 -2)"/><path class="cls-12" d="M808.5,537.51v59.36H796.58v-5q-4.64,5.6-13.44,5.6a22.37,22.37,0,0,1-11-2.72,19.48,19.48,0,0,1-7.72-7.76,25.76,25.76,0,0,1,0-23.36,19.48,19.48,0,0,1,7.72-7.76,22.37,22.37,0,0,1,11-2.72q8.24,0,12.88,5.2V537.51ZM793.14,584a13.63,13.63,0,0,0,0-17.36,11.2,11.2,0,0,0-15.76,0,13.63,13.63,0,0,0,0,17.36,11.2,11.2,0,0,0,15.76,0Z" transform="translate(-249 -2)"/><path class="cls-12" d="M852.74,558q5.35,4.75,5.36,14.36v24.56H846.42v-5.36q-3.52,6-13.12,6a20.36,20.36,0,0,1-8.6-1.68,12.83,12.83,0,0,1-5.56-4.64,12.06,12.06,0,0,1-1.92-6.72,11.19,11.19,0,0,1,4.52-9.44q4.51-3.43,14-3.44h9.92a8,8,0,0,0-2.48-6.28q-2.49-2.2-7.44-2.2a21.68,21.68,0,0,0-6.76,1.08,17.67,17.67,0,0,0-5.64,2.92l-4.48-8.72a27.11,27.11,0,0,1,8.44-3.84,37.66,37.66,0,0,1,10.12-1.36Q847.37,553.19,852.74,558ZM842.1,587.63a8.16,8.16,0,0,0,3.52-4.36v-4.4h-8.56q-7.68,0-7.68,5a4.47,4.47,0,0,0,1.88,3.8,8.48,8.48,0,0,0,5.16,1.4A10.86,10.86,0,0,0,842.1,587.63Z" transform="translate(-249 -2)"/></g><g class="cls-11"><g class="cls-11"><path class="cls-10" d="M471.88,315.33q9.48,0,9.48,7.74a15.69,15.69,0,0,1-.28,2.79l-1.37,7.86q-.94,5.46-4.09,8.1t-8.84,2.63q-5.7,0-7.94-2.63a7.45,7.45,0,0,1-1.54-5,17.1,17.1,0,0,1,.32-3.11l1.37-7.86Q460.85,315.33,471.88,315.33Zm-4,23a4.63,4.63,0,0,0,3.14-1,6.29,6.29,0,0,0,1.65-3.78L474,326a9.59,9.59,0,0,0,.12-1.42q0-3.18-3.23-3.18c-2.7.05-4.31,1.59-4.83,4.6l-1.34,7.54a13.64,13.64,0,0,0-.15,2.05Q464.54,338.36,467.84,338.36Z" transform="translate(-249 -2)"/><path class="cls-10" d="M501.87,329a8.5,8.5,0,0,1-1.34,4.44l-.43.55h-5.93a3,3,0,0,0,1-2.24,1.56,1.56,0,0,0-.45-1.16,1.69,1.69,0,0,0-1.24-.45,2.84,2.84,0,0,0-2.32,1.33l-2.2,12.42h-6.68L485.6,325h6.21l-.47,2.63a6.51,6.51,0,0,1,5.42-3.18,5.37,5.37,0,0,1,3.83,1.21A4.43,4.43,0,0,1,501.87,329Z" transform="translate(-249 -2)"/><path class="cls-10" d="M511.3,338.87a3.28,3.28,0,0,0,1.61-.39l-.19,4.44a6.44,6.44,0,0,1-4.21,1.53q-3.57,0-4.64-1.65a4.24,4.24,0,0,1-.7-2.34,14.08,14.08,0,0,1,.15-2.18L505.68,325h6.68l-2.2,12.38a3.44,3.44,0,0,0,0,.43C510.12,338.52,510.52,338.87,511.3,338.87Zm-4.83-20.28a5.1,5.1,0,0,1,1.12-3.67,4.6,4.6,0,0,1,3.48-1.16q3.3,0,3.3,2.9a5,5,0,0,1-1.12,3.62,4.76,4.76,0,0,1-3.52,1.14C507.55,321.42,506.47,320.48,506.47,318.59Z" transform="translate(-249 -2)"/><path class="cls-10" d="M528.65,352.43a10,10,0,0,1-7,2.91q-4,0-5.72-1.46a4.71,4.71,0,0,1-1.75-3.81q0-3.46,4.4-6-3.35-1.06-3.34-5.07a13.24,13.24,0,0,1,.2-2.16l.78-4.6a9.72,9.72,0,0,1,2.91-5.64,8.39,8.39,0,0,1,5.92-2.1q3.63,0,5,1.76l.23-1.25h5.86l-3.46,19.53A13.7,13.7,0,0,1,528.65,352.43Zm-6.15-2.71c1.7,0,2.82-1.55,3.34-4.64l.39-2.28q-5.46,2.55-5.46,5.15a1.84,1.84,0,0,0,.45,1.28A1.68,1.68,0,0,0,522.5,349.72ZM522.23,336a4.32,4.32,0,0,0-.08,1,1.76,1.76,0,0,0,.59,1.24,2.65,2.65,0,0,0,2,.61,3.21,3.21,0,0,0,2.42-1.1l1.18-6.6a2.17,2.17,0,0,0-2.09-1,3.42,3.42,0,0,0-2.39.78,3.57,3.57,0,0,0-1.1,2.12Z" transform="translate(-249 -2)"/><path class="cls-10" d="M545.49,338.87a3.28,3.28,0,0,0,1.61-.39l-.19,4.44a6.44,6.44,0,0,1-4.21,1.53q-3.57,0-4.64-1.65a4.24,4.24,0,0,1-.7-2.34,14.08,14.08,0,0,1,.15-2.18L539.87,325h6.68l-2.2,12.38a3.44,3.44,0,0,0,0,.43C544.31,338.52,544.71,338.87,545.49,338.87Zm-4.83-20.28a5.1,5.1,0,0,1,1.12-3.67,4.6,4.6,0,0,1,3.48-1.16q3.3,0,3.3,2.9a5,5,0,0,1-1.12,3.62,4.76,4.76,0,0,1-3.52,1.14C541.74,321.42,540.66,320.48,540.66,318.59Z" transform="translate(-249 -2)"/><path class="cls-10" d="M562.15,331.83a1.46,1.46,0,0,0-1.63-1.68,3.42,3.42,0,0,0-2.69,1.21l-2.2,12.54H549l3.34-18.9h6.21l-.43,2.31a7.2,7.2,0,0,1,5.85-2.86c2.36,0,3.89.57,4.6,1.73a4.69,4.69,0,0,1,.67,2.51,16.63,16.63,0,0,1-.2,2.63l-1.06,6.06a3.44,3.44,0,0,0,0,.43c0,.71.4,1.06,1.18,1.06a3.28,3.28,0,0,0,1.61-.39l-.19,4.44a6.44,6.44,0,0,1-4.21,1.53q-5.34,0-5.34-4.48a10.37,10.37,0,0,1,.15-1.69l.95-5.23A7.23,7.23,0,0,0,562.15,331.83Z" transform="translate(-249 -2)"/><path class="cls-10" d="M591.43,337.85a.91.91,0,0,0,1,1,3.57,3.57,0,0,0,1.75-.39l-.19,4.44a6.59,6.59,0,0,1-4.25,1.53q-4.32,0-4.79-3.14a6.4,6.4,0,0,1-5.78,3.14c-4.3,0-6.44-1.85-6.44-5.54a12.35,12.35,0,0,1,.19-2.08l.83-4.6a9.76,9.76,0,0,1,2.89-5.64,8.3,8.3,0,0,1,5.89-2.1c2.42,0,4.07.56,4.93,1.69l.2-1.18h6l-2.2,12.38A3.57,3.57,0,0,0,591.43,337.85ZM579.8,336a5,5,0,0,0-.08,1,1.8,1.8,0,0,0,.59,1.24,2.66,2.66,0,0,0,2,.61,3.19,3.19,0,0,0,2.41-1.1l1.18-6.6c-.29-.66-1-1-2-1a3.21,3.21,0,0,0-3.54,2.9Z" transform="translate(-249 -2)"/><path class="cls-10" d="M604,337.85a.91.91,0,0,0,1,1,3.59,3.59,0,0,0,1.75-.39l-.2,4.44a6.56,6.56,0,0,1-4.24,1.53c-2.39,0-3.93-.55-4.64-1.65a4.24,4.24,0,0,1-.67-2.32,12.94,12.94,0,0,1,.16-2.2l4.28-24.21h6.68L604,337.38A2.42,2.42,0,0,0,604,337.85Z" transform="translate(-249 -2)"/></g><g class="cls-11"><path class="cls-10" d="M492.57,383c0,1.81,1.31,2.72,3.91,2.72s3.91-.82,3.91-2.44a2.43,2.43,0,0,0-1.33-2.12,13.07,13.07,0,0,0-3.25-1.38c-1.27-.37-2.54-.79-3.81-1.28a7.86,7.86,0,0,1-3.24-2.28,5.71,5.71,0,0,1-1.34-3.87q0-9.85,12.7-9.86,4.63,0,7,1.75a5.66,5.66,0,0,1,2.38,4.85,8.2,8.2,0,0,1-.29,2.18,5,5,0,0,1-.61,1.48l-.32.47h-7a3.18,3.18,0,0,0,.86-2.28c0-1.7-1.11-2.56-3.34-2.56q-4.2,0-4.2,2.68a2.38,2.38,0,0,0,1.33,2.12,11.78,11.78,0,0,0,3.24,1.24,38.56,38.56,0,0,1,3.84,1.12,7.38,7.38,0,0,1,3.26,2.22,5.94,5.94,0,0,1,1.33,4q0,5-3,7.4t-9.2,2.42q-6.21,0-8.49-2.2a6.11,6.11,0,0,1-1.69-4.56,13.34,13.34,0,0,1,.24-2.4l.12-.63h7.07l-.08.48A3.76,3.76,0,0,0,492.57,383Z" transform="translate(-249 -2)"/><path class="cls-10" d="M522.4,371.6q4.25,0,6.41,1.84a5.08,5.08,0,0,1,1.69,4.05,10.14,10.14,0,0,1-.2,1.89l-.82,4.6c-.5,2.77-1.66,4.74-3.48,5.89a13.51,13.51,0,0,1-7.29,1.73q-4.56,0-6.68-1.73a4.74,4.74,0,0,1-1.58-3.89,11.56,11.56,0,0,1,.2-2l.83-4.6Q512.85,371.6,522.4,371.6Zm1.06,8.56a5.38,5.38,0,0,0,.08-1,2.45,2.45,0,0,0-.51-1.35,2,2,0,0,0-1.79-.75,3,3,0,0,0-2.14.84,4,4,0,0,0-1.1,2.26l-.51,2.95a5.45,5.45,0,0,0-.08,1,2.29,2.29,0,0,0,.51,1.32,2.07,2.07,0,0,0,1.79.71,2.88,2.88,0,0,0,2.14-.89,4,4,0,0,0,1.1-2.14Z" transform="translate(-249 -2)"/></g><g class="cls-11"><path class="cls-10" d="M551.25,385a.91.91,0,0,0,1,1,3.59,3.59,0,0,0,1.75-.39l-.2,4.44a6.56,6.56,0,0,1-4.24,1.53c-2.89,0-4.48-1.05-4.8-3.14A6.39,6.39,0,0,1,539,391.6q-6.43,0-6.44-5.54a11.46,11.46,0,0,1,.2-2.08l.82-4.6a9.76,9.76,0,0,1,2.89-5.64,8.87,8.87,0,0,1,6.27-2.1,6.52,6.52,0,0,1,3.93,1.06l2-11.48h6.72l-4.12,23.31A2.42,2.42,0,0,0,551.25,385Zm-11.64-1.89a5.05,5.05,0,0,0-.07,1,1.78,1.78,0,0,0,.58,1.24,2.69,2.69,0,0,0,2,.61,3.23,3.23,0,0,0,2.42-1.1l1.18-6.6c-.29-.66-1-1-2.05-1a3.21,3.21,0,0,0-3.54,2.9Z" transform="translate(-249 -2)"/></g><g class="cls-11"><path class="cls-10" d="M575.49,385a.91.91,0,0,0,1,1,3.59,3.59,0,0,0,1.75-.39l-.2,4.44a6.56,6.56,0,0,1-4.24,1.53c-2.89,0-4.48-1.05-4.8-3.14a6.39,6.39,0,0,1-5.78,3.14q-6.43,0-6.44-5.54A11.46,11.46,0,0,1,557,384l.82-4.6a9.76,9.76,0,0,1,2.89-5.64,8.31,8.31,0,0,1,5.89-2.1c2.43,0,4.07.56,4.94,1.69l.19-1.18h6l-2.2,12.38A2.42,2.42,0,0,0,575.49,385Zm-11.64-1.89a4.92,4.92,0,0,0-.08,1,1.8,1.8,0,0,0,.59,1.24,2.69,2.69,0,0,0,2,.61,3.23,3.23,0,0,0,2.42-1.1l1.17-6.6c-.28-.66-1-1-2-1a3.21,3.21,0,0,0-3.54,2.9Z" transform="translate(-249 -2)"/></g></g><path class="cls-13" d="M475.32,202.34s50.32-.17,112.29.18c0,0,14.07,172.16-.13,395.63,0,0-36.46,4.49-109.37,1.18C470.54,599,471.06,326.39,475.32,202.34Z" transform="translate(-249 -2)"/></svg>