<svg id="Calque_19" data-name="Calque 19" xmlns="http://www.w3.org/2000/svg" xmlns:xlink="http://www.w3.org/1999/xlink" viewBox="0 0 724.32 1102.12"><defs><style>.cls-1{fill:#d1a88f;}.cls-2,.cls-38{fill:#af7875;}.cls-2{opacity:0.55;}.cls-3{fill:url(#Dégradé_sans_nom_92);}.cls-4{fill:url(#Dégradé_sans_nom_105);}.cls-5{fill:url(#Dégradé_sans_nom_92-2);}.cls-6{fill:url(#Dégradé_sans_nom_53);}.cls-7{fill:url(#Dégradé_sans_nom_54);}.cls-8{fill:url(#Dégradé_sans_nom_54-2);}.cls-9{fill:url(#Dégradé_sans_nom_53-2);}.cls-10{fill:#996b51;}.cls-11{fill:url(#Dégradé_sans_nom_188);}.cls-12{fill:#c19985;}.cls-13{fill:none;}.cls-14{fill:url(#Dégradé_sans_nom_77);}.cls-15{fill:#ceae9f;}.cls-16{fill:url(#Dégradé_sans_nom_91);}.cls-17{fill:url(#Dégradé_sans_nom_91-2);}.cls-18{fill:url(#Dégradé_sans_nom_92-3);}.cls-19{fill:url(#Dégradé_sans_nom_110);}.cls-20{fill:url(#Dégradé_sans_nom_113);}.cls-21{fill:#541e19;}.cls-22{fill:#260e09;}.cls-23{fill:url(#Dégradé_sans_nom_113-2);}.cls-24{fill:url(#Dégradé_sans_nom_116);}.cls-25{fill:url(#Dégradé_sans_nom_121);}.cls-26{fill:url(#Dégradé_sans_nom_122);}.cls-27{fill:url(#Dégradé_sans_nom_144);}.cls-28{fill:url(#Dégradé_sans_nom_144-2);}.cls-29{fill:url(#Dégradé_sans_nom_53-3);}.cls-30{fill:url(#Dégradé_sans_nom_187);}.cls-31{fill:url(#Dégradé_sans_nom_156);}.cls-32{fill:url(#Dégradé_sans_nom_156-2);}.cls-33{fill:#cea691;}.cls-34{fill:#9b4431;}.cls-35{fill:#83391f;}.cls-36{fill:#934220;}.cls-37,.cls-50{fill:#76442e;}.cls-37{opacity:0.57;}.cls-38{opacity:0.51;}.cls-39{fill:#382b23;}.cls-40{fill:url(#Dégradé_sans_nom_21);}.cls-41{fill:#2b1c12;}.cls-42{fill:#291f16;}.cls-43{fill:url(#Dégradé_sans_nom_15);}.cls-44{fill:url(#Dégradé_sans_nom_19);}.cls-45{fill:#edded6;}.cls-46{fill:#33130c;}.cls-47{fill:url(#Dégradé_sans_nom_197);}.cls-48{fill:#fff;}.cls-49{fill:url(#Dégradé_sans_nom_53-4);}.cls-51{fill:url(#Dégradé_sans_nom_197-2);}.cls-52{fill:url(#Dégradé_sans_nom_53-5);}.cls-53{fill:#7c2829;}.cls-54{fill:#bf6e6c;}.cls-55{fill:#e0c1bd;}.cls-56{fill:#e4a89e;}.cls-57{fill:#d89c93;}.cls-58{fill:#5c1819;}.cls-59{fill:#b34845;}.cls-60{fill:#ab4142;}</style><linearGradient id="Dégradé_sans_nom_92" x1="1398.53" y1="750.39" x2="1229.68" y2="925.38" gradientUnits="userSpaceOnUse"><stop offset="0" stop-color="#c39a81"/><stop offset="0.67" stop-color="#cba289"/><stop offset="1" stop-color="#d1a88f"/></linearGradient><linearGradient id="Dégradé_sans_nom_105" x1="1389.87" y1="800.18" x2="1255.51" y2="909.13" gradientUnits="userSpaceOnUse"><stop offset="0.4" stop-color="#c19881"/><stop offset="0.77" stop-color="#c9a088"/><stop offset="1" stop-color="#d1a88f"/></linearGradient><linearGradient id="Dégradé_sans_nom_92-2" x1="1508.71" y1="726.36" x2="1661.08" y2="897.26" xlink:href="#Dégradé_sans_nom_92"/><radialGradient id="Dégradé_sans_nom_53" cx="1307.65" cy="826.79" r="38.33" gradientTransform="matrix(0.02, 1, -0.52, 0.01, 1705.6, -490.71)" gradientUnits="userSpaceOnUse"><stop offset="0" stop-color="#ccb4aa"/><stop offset="0.46" stop-color="#cdb1a5"/><stop offset="1" stop-color="#ceaa97"/></radialGradient><radialGradient id="Dégradé_sans_nom_54" cx="1595.21" cy="842.21" r="18.11" gradientTransform="translate(1053.74 2461.84) rotate(-92.43) scale(1 0.72)" gradientUnits="userSpaceOnUse"><stop offset="0" stop-color="#ccb4aa"/><stop offset="0.54" stop-color="#cdb0a2"/><stop offset="1" stop-color="#ceaa97"/></radialGradient><radialGradient id="Dégradé_sans_nom_54-2" cx="1307.66" cy="849.23" r="13.52" gradientTransform="matrix(1, 0, 0, 1, 0, 0)" xlink:href="#Dégradé_sans_nom_54"/><radialGradient id="Dégradé_sans_nom_53-2" cx="1595.43" cy="824.83" r="29.96" gradientTransform="translate(1182.47 2406.47) rotate(-87.94) scale(1 0.43)" xlink:href="#Dégradé_sans_nom_53"/><linearGradient id="Dégradé_sans_nom_188" x1="1469.85" y1="1047.31" x2="1469.85" y2="1111.16" gradientUnits="userSpaceOnUse"><stop offset="0" stop-color="#c19881"/><stop offset="0.52" stop-color="#c49b84"/><stop offset="0.91" stop-color="#cda48c"/><stop offset="1" stop-color="#d1a88f"/></linearGradient><radialGradient id="Dégradé_sans_nom_77" cx="1445.09" cy="1294.11" r="128.92" gradientTransform="translate(14.79 843.82) rotate(1.99) scale(1 0.31)" xlink:href="#Dégradé_sans_nom_92"/><radialGradient id="Dégradé_sans_nom_91" cx="1317.56" cy="1261.75" r="35.63" gradientUnits="userSpaceOnUse"><stop offset="0" stop-color="#ceb1a7"/><stop offset="0.49" stop-color="#cfae9e"/><stop offset="1" stop-color="#d1a88f"/></radialGradient><radialGradient id="Dégradé_sans_nom_91-2" cx="1571.28" cy="1263.11" r="31.18" xlink:href="#Dégradé_sans_nom_91"/><linearGradient id="Dégradé_sans_nom_92-3" x1="1551.73" y1="936.93" x2="1508.09" y2="972.32" xlink:href="#Dégradé_sans_nom_92"/><linearGradient id="Dégradé_sans_nom_110" x1="1368.5" y1="956.67" x2="1427.09" y2="956.67" gradientUnits="userSpaceOnUse"><stop offset="0" stop-color="#d1a88f"/><stop offset="0.28" stop-color="#cca38a"/><stop offset="1" stop-color="#c39a81"/></linearGradient><linearGradient id="Dégradé_sans_nom_113" x1="1477.86" y1="1047.98" x2="1477.86" y2="1076.87" gradientUnits="userSpaceOnUse"><stop offset="0" stop-color="#d1a88f"/><stop offset="0.74" stop-color="#c39a81"/></linearGradient><linearGradient id="Dégradé_sans_nom_113-2" x1="1413.05" y1="1012.78" x2="1413.05" y2="1077.18" xlink:href="#Dégradé_sans_nom_113"/><linearGradient id="Dégradé_sans_nom_116" x1="1530.24" y1="1019.33" x2="1530.24" y2="1074.18" gradientUnits="userSpaceOnUse"><stop offset="0" stop-color="#d1a88f"/><stop offset="1" stop-color="#c39a81"/></linearGradient><linearGradient id="Dégradé_sans_nom_121" x1="1479.41" y1="888.47" x2="1479.41" y2="1028.39" gradientUnits="userSpaceOnUse"><stop offset="0" stop-color="#d1a88f"/><stop offset="0.2" stop-color="#d0a992"/><stop offset="1" stop-color="#cead9b"/></linearGradient><linearGradient id="Dégradé_sans_nom_122" x1="1168.95" y1="796.77" x2="1727.61" y2="796.77" gradientUnits="userSpaceOnUse"><stop offset="0" stop-color="#c39a81"/><stop offset="0.28" stop-color="#c59c83" stop-opacity="0.95"/><stop offset="0.71" stop-color="#cca38a" stop-opacity="0.82"/><stop offset="1" stop-color="#d1a88f" stop-opacity="0.7"/></linearGradient><linearGradient id="Dégradé_sans_nom_144" x1="1542.85" y1="1030.73" x2="1577.09" y2="1030.73" gradientUnits="userSpaceOnUse"><stop offset="0" stop-color="#d1a88f"/><stop offset="0.09" stop-color="#cca38a"/><stop offset="0.33" stop-color="#c59c83"/><stop offset="1" stop-color="#c39a81"/></linearGradient><linearGradient id="Dégradé_sans_nom_144-2" x1="1328.45" y1="1045.17" x2="1393.37" y2="1045.17" xlink:href="#Dégradé_sans_nom_144"/><radialGradient id="Dégradé_sans_nom_53-3" cx="1462.61" cy="1162.43" r="31.84" gradientTransform="matrix(1, 0, 0, 1, 0, 0)" xlink:href="#Dégradé_sans_nom_53"/><linearGradient id="Dégradé_sans_nom_187" x1="1114.34" y1="1042.95" x2="1277.02" y2="880.28" gradientUnits="userSpaceOnUse"><stop offset="0" stop-color="#d1a88f"/><stop offset="0.49" stop-color="#d0ab97"/><stop offset="1" stop-color="#cdb1a5"/></linearGradient><linearGradient id="Dégradé_sans_nom_156" x1="1123.98" y1="1086.57" x2="1266.79" y2="1086.57" gradientUnits="userSpaceOnUse"><stop offset="0" stop-color="#c19881"/><stop offset="0.61" stop-color="#c9a088"/><stop offset="1" stop-color="#d1a88f"/></linearGradient><linearGradient id="Dégradé_sans_nom_156-2" x1="1534.69" y1="1003.67" x2="1762.28" y2="1003.67" xlink:href="#Dégradé_sans_nom_156"/><linearGradient id="Dégradé_sans_nom_21" x1="1446.32" y1="1260.37" x2="1447.27" y2="1326.44" gradientUnits="userSpaceOnUse"><stop offset="0" stop-color="#271912"/><stop offset="0.27" stop-color="#2a1b14"/><stop offset="0.44" stop-color="#32231a"/><stop offset="0.58" stop-color="#412f23"/><stop offset="0.71" stop-color="#564131"/><stop offset="0.83" stop-color="#715743"/><stop offset="0.94" stop-color="#927359"/><stop offset="1" stop-color="#a78567"/></linearGradient><linearGradient id="Dégradé_sans_nom_15" x1="1130.56" y1="811.25" x2="1128.98" y2="934.81" gradientUnits="userSpaceOnUse"><stop offset="0" stop-color="#271912"/><stop offset="0.06" stop-color="#302118"/><stop offset="0.51" stop-color="#705742"/><stop offset="0.83" stop-color="#98785d"/><stop offset="1" stop-color="#a78567"/></linearGradient><linearGradient id="Dégradé_sans_nom_19" x1="1762.65" y1="861.4" x2="1756.97" y2="776.84" gradientUnits="userSpaceOnUse"><stop offset="0" stop-color="#a78567"/><stop offset="1" stop-color="#271912"/></linearGradient><linearGradient id="Dégradé_sans_nom_197" x1="236.67" y1="496.26" x2="236.67" y2="472.37" gradientUnits="userSpaceOnUse"><stop offset="0" stop-color="#77002b"/><stop offset="0.25" stop-color="#5a081e"/><stop offset="0.52" stop-color="#450e14"/><stop offset="0.77" stop-color="#37120e"/><stop offset="1" stop-color="#33130c"/></linearGradient><radialGradient id="Dégradé_sans_nom_53-4" cx="1304.83" cy="910.12" r="22.36" gradientTransform="matrix(1, 0, 0, 1, 0, 0)" xlink:href="#Dégradé_sans_nom_53"/><linearGradient id="Dégradé_sans_nom_197-2" x1="523.32" y1="490.86" x2="523.32" y2="466.98" xlink:href="#Dégradé_sans_nom_197"/><radialGradient id="Dégradé_sans_nom_53-5" cx="1595.07" cy="904.42" r="27.03" gradientTransform="matrix(1, 0, 0, 1, 0, 0)" xlink:href="#Dégradé_sans_nom_53"/></defs><title>sofiane TETE</title><g id="peau"><path class="cls-1" d="M1128.88,1142s-35.45,10-40.84-38.53c0,0-18.5-9.25-12.33-37.76s3.85-43.15,1.54-57,4.62-40.07.77-47-7.71-29.28,10-28.51,24.65,9.25,24.65,9.25l11.56-124.06s-7.7-100.18-7.7-107.11,3.85-78.6,3.85-78.6,240.42-254.29,433.06-174.15S1750,686.58,1750,718.17s10.79,218.08,10.79,218.08,10.79-9.25,17-6.94,10.79,6.16,12.33,10-.77,47-1.54,56.25,2.31,42.38,4.63,46.23,12.33,53.94-1.54,57c0,0,3.85,34.67-33.14,36.21,0,0-18.49,67-22.35,74s-68.58,131-114.81,171.83-43.92,74.75-151,77.83S1324.6,1451,1298.4,1434,1162,1252.18,1162,1252.18l-13.1-27.74Z" transform="translate(-1074.45 -406.85)"/><path class="cls-2" d="M1765.37,1014.84s23.88,29.28,3.08,43.16,13.87,13.87,13.87,13.87,19.26-3.86,3.08-43.93C1785.4,1027.94,1776.15,1009.45,1765.37,1014.84Z" transform="translate(-1074.45 -406.85)"/><path class="cls-3" d="M1179.73,871.52s-17-49.32,40.07-87.85,181.86-10,181.86-10,46.23,90.15,6.93,121.75-57.79,54.71-121,53.93S1192.06,917.75,1179.73,871.52Z" transform="translate(-1074.45 -406.85)"/><path class="cls-4" d="M1243.69,822.2s60.11-37.76,112.5,12.33-2.31,27-2.31,27,34.68,20.81,38.53,25.43-1.54,40.84-132.54,31.59c0,0-39.3-2.31-26.2,7.71s67,29.28,111.74,8.47,62.41-33.13,63.18-46.23c0,0,20-82.45-12.33-101.72S1240.61,772.88,1243.69,822.2Z" transform="translate(-1074.45 -406.85)"/><path class="cls-5" d="M1503.37,863s-24.66-27,11.56-96.32,194.18,33.13,194.18,33.13,21.58,48.55,20.81,69.36c0,0-60-78.66-122.46-61.68s-37,16.21-37,16.21.77,20.81,19.27,28.51c0,0-43.16,3.86-64,20.81s-.77,2.31-.77,2.31l-10,9.25Z" transform="translate(-1074.45 -406.85)"/><path class="cls-6" d="M1255.25,817.58s54.71-16.18,93.24,11.56l11.56,11.55s-30.06-14.64-55.48-10.78-45.47,6.93-45.47,6.93S1286.84,826.05,1255.25,817.58Z" transform="translate(-1074.45 -406.85)"/><path class="cls-7" d="M1572.72,832.22s10,16.95,17,20,15.41,1.54,15.41,1.54l9.24-23.11Z" transform="translate(-1074.45 -406.85)"/><path class="cls-8" d="M1293,855.34s13.1-10.79,8.47-16.19,20.81.77,20.81.77.77,21.58-8.48,21.58S1293.78,862.27,1293,855.34Z" transform="translate(-1074.45 -406.85)"/><path class="cls-9" d="M1549.61,829.91s53.94-29.28,78.59-23.89,43.16,29.28,43.16,29.28-17-17.72-47-11.56S1549.61,829.91,1549.61,829.91Z" transform="translate(-1074.45 -406.85)"/><path class="cls-10" d="M1377,832.22s20.8,13.1,26.2,24.66,10.18,52.93-25.35,63.45c0,0,30.74-18,20.73-33.4v-6.17l-20.73-19.58,14.56,1.09S1407.82,856.88,1377,832.22Z" transform="translate(-1074.45 -406.85)"/><path class="cls-10" d="M1545,852.25s64.73-37.75,130.23,14.64c0,0-33.14-50.85-123.29-20.8Z" transform="translate(-1074.45 -406.85)"/><path class="cls-10" d="M1566.56,836.07s59.33-24.66,107.11,16.18c0,0-36.22-40.84-109.42-19.26l-4.63,4.62Z" transform="translate(-1074.45 -406.85)"/><path class="cls-10" d="M1293.13,839.74c16.74-.53,37,2.35,60.75,11.74,0,0-27-15.8-60.75-15.13" transform="translate(-1074.45 -406.85)"/><path class="cls-11" d="M1387,1081.71s23.88,21.12,39.3,26.75,80.13.71,80.13.71l46.24-35.2s-27.74-43.65-60.11-7.75l-35.44,2.82s-23.89-46.46-63.19-3.52Z" transform="translate(-1074.45 -406.85)"/><path class="cls-12" d="M1386.25,1069.91s23.88,15.77,39.3,20,80.13.53,80.13.53l46.24-26.28s-27.74-32.59-60.11-5.78l-35.44,2.1s-23.89-34.69-63.19-2.63Z" transform="translate(-1074.45 -406.85)"/><path class="cls-10" d="M1282.11,837.17a92.87,92.87,0,0,0-45.35,18.94l-1.55,3.85s16.26-15.65,47.82-19.45" transform="translate(-1074.45 -406.85)"/><path class="cls-13" d="M1357.74,846.86s-15.42-13.1-57.8-13.87,12.33-2.31,12.33-2.31S1339.24,831.45,1357.74,846.86Z" transform="translate(-1074.45 -406.85)"/><path class="cls-14" d="M1315.35,1298.45s13.85-37.43,62.7-43.11,141.65,4.1,141.65,4.1,48,25.24,53.72,35.82-6.52,28.48-19.55,34.17-164.44-12.24-185.61,2.4S1315.35,1298.45,1315.35,1298.45Z" transform="translate(-1074.45 -406.85)"/><path class="cls-15" d="M1352.34,1347s114.05,19.26,161.82,6.16S1394,1331.55,1352.34,1347Z" transform="translate(-1074.45 -406.85)"/><path class="cls-16" d="M1292.93,1293.42s58.18-32.13,61.65-41.68-7.81-29.52-29.52-21.71-45.15,23.45-45.15,32.13,0,34.73,7.81,33S1292.93,1293.42,1292.93,1293.42Z" transform="translate(-1074.45 -406.85)"/><path class="cls-17" d="M1536.51,1263s53.94,25.43,59.33,26.2,12.33-40.07,10.79-43.16-30.05-12.33-43.92-7.7-27.74,10.79-27,17.72Z" transform="translate(-1074.45 -406.85)"/><path class="cls-18" d="M1507,874s-7.78,74,16,98.69,26.17,64.73,26.17,64.73,21.3-7.71,4.26-40.07-17-69.35-17-69.35S1506.39,881.71,1507,874Z" transform="translate(-1074.45 -406.85)"/><path class="cls-19" d="M1369.29,1048.75s2.32-34.68,30.83-58.56c0,0,14.64-26.2,21.57-40.07,2.41-4.83-5.39-74.75,5.4-85.54,0,0-23.12,49.32-49.32,62.42,0,0,13.1,42.38,0,63.19S1369.29,1048.75,1369.29,1048.75Z" transform="translate(-1074.45 -406.85)"/><path class="cls-20" d="M1451,1050.29s33.91,22.35,53.17-2.31l.77,6.16s-2,14.83-15.41,20.81c-6.93,3.08-27.74,3.08-33.9-4.63S1451,1050.29,1451,1050.29Z" transform="translate(-1074.45 -406.85)"/><path class="cls-21" d="M1414.76,1071.09s18.49-4.62,19.26-10,17,6.93,17,6.93-4.62-27-39.3-12.33C1411.67,1055.68,1385.48,1069.55,1414.76,1071.09Z" transform="translate(-1074.45 -406.85)"/><path class="cls-22" d="M1421.69,1066.47s-11.56-6.16-2.31-12.33,11.56,3.86,11.56,3.86S1434,1066.47,1421.69,1066.47Z" transform="translate(-1074.45 -406.85)"/><path class="cls-21" d="M1526.62,1071.09s-14.23-4.62-14.83-10-13,6.93-13,6.93,3.56-27,30.24-12.33C1529,1055.68,1549.15,1069.55,1526.62,1071.09Z" transform="translate(-1074.45 -406.85)"/><path class="cls-22" d="M1521.28,1066.47s8.89-6.16,1.78-12.33-8.9,3.86-8.9,3.86S1511.79,1066.47,1521.28,1066.47Z" transform="translate(-1074.45 -406.85)"/><path class="cls-23" d="M1447.89,1034.88s-8.47-33.91-40.07-17.73c0,0-13.87,8.48-10.79,15.42,0,0,22.35,3.08,8.48,6.93s-30,4.62-30.82-3.85c0,0-10.79,16.18,2.31,30.82s27.74,10,27.74,10-20-17,16.18-23.89c0,0,6.94-3.08,18.71.53,0,0,12.89,5.64,16,11.8C1455.6,1064.93,1451,1037.19,1447.89,1034.88Z" transform="translate(-1074.45 -406.85)"/><path class="cls-24" d="M1505.68,1045.67s6.17-28.52,23.12-26.2,28.51,29.28,27.74,34.67-1.54,17.73-12.33,20c0,0-.24-10.54-13.22-18s-22-5.5-25.57-3S1505.68,1045.67,1505.68,1045.67Z" transform="translate(-1074.45 -406.85)"/><path class="cls-25" d="M1448.66,888.47s40.07,41.61,30.82,73.2-27.74,38.53-27.74,38.53-20,12.33,3.86,23.89,59.33-3.85,59.33-3.85-22.35-17.73-21.57-31.6-16.19-85.53-16.19-87.07S1448.66,888.47,1448.66,888.47Z" transform="translate(-1074.45 -406.85)"/><path class="cls-26" d="M1169,824.51l29.28-57.79,50.08-30.82,134.85-11.56s50.86,30,82.45,20.8,64-15.41,64-15.41l148.72,13.1s31.59,23.12,33.14,26.2,16.18,34.68,16.18,34.68L1676,750.54l-124.83-6.17-40.84,35.45s-13.87,30-13.1,33.9-25.43-30.05-53.94-21.57c0,0-23.89,5.39-26.2,20,0,0-6.94-23.11-17.72-30s-60.88-41.61-60.88-41.61l-132.54,67s-22.34,47-23.11,48.55-13.1,13.1-13.1,13.1Z" transform="translate(-1074.45 -406.85)"/><path class="cls-27" d="M1546.86,999.16s33.57,29.55,9.68,55.75l-3.08,15.41s17.72-27,23.12-35.44-33.73-43.74-33.73-43.74S1546.42,995,1546.86,999.16Z" transform="translate(-1074.45 -406.85)"/><path class="cls-28" d="M1386.48,1008.47s-27.2,41.82-8.71,57.23,15.41,16.18,15.41,16.18-8.47-7.7-17-6.93c0,0-10-2.31-12.33-8.48-1.89-5,1.54-33.13-.77-35.44s-34.68-8.48-34.68-8.48S1378.23,1020.58,1386.48,1008.47Z" transform="translate(-1074.45 -406.85)"/><path class="cls-10" d="M1372.38,1041.81s8.47-35.44,28.51-51.62C1400.89,990.19,1377,1006.37,1372.38,1041.81Z" transform="translate(-1074.45 -406.85)"/><path class="cls-29" d="M1418.61,1158.17s3.08-6.17,29.28-4.62,45.47-3.86,53.94,2.31,3.08,9.24,3.08,9.24-20.8-12.33-48.54,6.94A87.89,87.89,0,0,0,1418.61,1158.17Z" transform="translate(-1074.45 -406.85)"/><path class="cls-30" d="M1171.42,1069.5s-11.23-103.82,80.91-56.74c0,0,58.43,15.7,113.11-44.06,0,0-90.64,48.29-140.08,9.66s-54.87-68.31-54.87-68.31-.15-40.29-5.4-57.8l-18.39-18.76-6.74,9.66-16.48,158.14s-3,58,38.21,87.53Z" transform="translate(-1074.45 -406.85)"/><path class="cls-31" d="M1143.52,953.2s-16.18,62.41,7.9,119l10.74,15.75a1.32,1.32,0,0,0,1.62.46c8.86-4,73.9-33.25,76.06-30.37,2.31,3.07-45.3,72.19,13.56,113a1.29,1.29,0,0,1,.45.56l12.84,30.19a1.38,1.38,0,0,1,.1.6l-2.27,34a1.39,1.39,0,0,1-.21.62L1241,1273.51a1.31,1.31,0,0,1-2.23,0l-105.12-175.2a1.28,1.28,0,0,1-.17-.46c-1-6.42-21.57-135.27,1.24-198.69C1135.63,896.55,1128.88,939.33,1143.52,953.2Z" transform="translate(-1074.45 -406.85)"/><path class="cls-32" d="M1618.19,1148.92s137.93-36.21,121-161.05c0,0-40.84-43.15-40.84-55.48s-27.74,64.73-147.18-7.7a65.84,65.84,0,0,1-16-10.37c-8.62-7.36,117.75,66.62,154-1.19l18.49-5.4s44.7-6.93,30.06-49.31,14.64-76.29,14.64-76.29l10,219.61-6.16,119.44-70.89,104-35.45-6.94S1642.07,1158.94,1618.19,1148.92Z" transform="translate(-1074.45 -406.85)"/><path class="cls-33" d="M1422.81,803s12,29.2,12,45.38-3.08,69.35-1.54,79.37-3.08,51.63-7.7,54.71-36.22,21.58-33.91,36.22c0,0-6.93,19.26.77,18.49s.2,4.8.2,4.8-17.15,2.13-17.92-6.34,19.26-42.38,25.43-45.46l21.57-40.07s-2.31-70.9.77-77.06,3.09-36.22-5.39-60.88C1417.07,812.18,1418.53,805.42,1422.81,803Z" transform="translate(-1074.45 -406.85)"/><path class="cls-33" d="M1486.42,805.25l10.79,8.47s-7.71,30.83,6.16,49.32l8.48,15.41s-13.1,61.65,11.56,90.16,35,43.3,35,43.3,6.41,13.55,5.86,26.82a27.87,27.87,0,0,1-9.25,20s6.17-17,1.54-32.37c-2.5-8.35-12.33-27-18.49-30.82s-31.6-38.53-32.37-47-6.16-74-6.16-74.74S1486.42,805.25,1486.42,805.25Z" transform="translate(-1074.45 -406.85)"/><path class="cls-34" d="M1086.49,1011.76s0-43.15-3.85-46.23-1.54-13.1,2.31-10,14.64,22.35,14.64,23.12-9.24,33.9-10,35.44S1086.49,1011.76,1086.49,1011.76Z" transform="translate(-1074.45 -406.85)"/><polygon class="cls-35" points="15.13 607.22 25.15 571.77 23.83 569.41 13.58 607.28 15.13 607.22"/><path class="cls-36" d="M1774.61,982.48s7.71-23.89,13.1-24.66-6.93,45.46-6.16,49.32S1776.92,983.25,1774.61,982.48Z" transform="translate(-1074.45 -406.85)"/><path class="cls-37" d="M1098.82,977.86l12.33,29.28-2.31,5.39L1085,976.31s2.32-10.78.77-11.55-5.39-6.94-5.39-6.94,2.31-5.39,6.94.77S1098.82,977.86,1098.82,977.86Z" transform="translate(-1074.45 -406.85)"/><path class="cls-37" d="M1773.66,978.72,1768.45,991v19.26l19.24-34.15s-3.23-8.92-1.72-9.72,4.94-6.4,4.94-6.4-2.79-4.35-7,1.33S1773.66,978.72,1773.66,978.72Z" transform="translate(-1074.45 -406.85)"/><path class="cls-38" d="M1111.15,1007.14s-6.93,14.64-3.08,24.66,8.48,28.51,8.48,28.51-13.1,12.33-21.58,6.93-15.41-22.34,1.54-55.48C1096.51,1011.76,1097.28,1001.74,1111.15,1007.14Z" transform="translate(-1074.45 -406.85)"/><path class="cls-37" d="M1086.49,1101.92s13.88,0,8.48,18.49l-2.31,1.54s-4.62-13.87-4.62-18.49C1088,1103.46,1086.49,1102.69,1086.49,1101.92Z" transform="translate(-1074.45 -406.85)"/><path class="cls-37" d="M1787.71,1114.25s-6.93-16.19,2.31-15.41h1.55s.77,10-2.32,17Z" transform="translate(-1074.45 -406.85)"/></g><g id="cheveux_barbe_sourcis" data-name="cheveux barbe sourcis"><path class="cls-39" d="M1123.87,980.55s0,67.81,10.79,109.42,78.59,140.25,78.59,140.25l17.34,58.18,33.14-50.86s-8.48-14.64,4.62-34.68S1388.56,1125,1388.56,1125l45.46-7.7s1.18,26.24-10.79,27.74c-49.31,6.16-137.93,93.24-137.93,93.24l-27.74,57.79s-7.7,41.61,9.25,52.4,47-4.62,47-4.62l7.71,56.25,36.22-37,21.57,27.74,30.82-18.49s44.7,13.87,46.24,21.57,28.51,20.81,28.51,20.81v-42.38l40.07,20,20,20,17-40.07,17.72-23.12,53.17-54.71-29.28-66.27s-71.67-77.06-102.49-81.68l-23.12.77,7.71-34.67,39.3,5.39,29.28,21.58,33.13,17.72,29.29,20,22.34,47.78,26.2,53.17,17-52.4s45.47-64.73,57.8-90.16,21.57-136.39,21.57-136.39-2.31,140.25-3.08,147.18-9.25,85.53-13.87,95.55-25.43,53.17-25.43,53.17-3.08,1.54-3.08,7.71-13.1,17.72-14.64,20.8,3.08,12.33-8.48,17.72-17.72,17.73-17.72,20.81-19.26,23.12-19.26,23.12-.78,22.34-6.94,27-47,44.69-53.17,47.77-33.9,12.33-33.9,12.33l-40.07,23.12s-13.87-5.4-27-.77-20-3.86-41.61,3.85-41.62,12.33-43.93,9.25-9.24-6.94-20-9.25-27.74-13.1-27.74-13.1-23.12-7.71-29.28-7.71-28.51-4.62-28.51-4.62l-25.43-26.2L1263,1434.8s-8.48-25.43-11.56-25.43-26.2-9.24-26.2-9.24L1216,1369.3,1199,1340l-19.27-23.11v-17l-29.28-40.07-.77-17.72-12.33-13.87S1120.4,982.48,1123.87,980.55Z" transform="translate(-1074.45 -406.85)"/><path class="cls-40" d="M1414.76,1272.21l-6.17,23.12,20-10.79-10.79,27.74s20.8-10,20.8-6.93,6.94,23.89,6.94,20.8,3.85-21.57,3.85-21.57,18.5,19.26,17,13.87-7.71-33.14-7.71-33.14,15.41,12.33,17.72,13.1-7.7-20-7.7-20l16.18,4.62-14.64-17.72s-34.68-10.79-53.94,0Z" transform="translate(-1074.45 -406.85)"/><path class="cls-39" d="M1400.12,795.23s.77-28.51-2.32-32.36-1.54-32.37-20-35.45-62.42,10-69.35,10.79-36.22.77-36.22.77-22.34-3.08-28.51,3.08-40.07,27.74-40.07,27.74L1192.06,786l-9.24,17.73,13.1-14.64-13.87,22.34,10.78-5.39s-12.33,16.18-17.72,21.58-.77,30-.77,30l3.08,5.39s3.85-18.49,15.41-24.66c0,0,14-35.34,37.65-39.81.55-.1,1.1-.19,1.65-.26,24.66-3.08,15.41-17.72,91.7-6.16Z" transform="translate(-1074.45 -406.85)"/><path class="cls-41" d="M1362.36,777.51c-2.31-.77,3.85-47-64-30.82,0,0-55.48,0-60.87,3.08S1202.85,769,1202.85,769l-11.56,16.18,3.86,23.89-20.81,17.72-1.3,6.51,27.5-17.29s47-49.32,76.29-38.53S1362.36,777.51,1362.36,777.51Z" transform="translate(-1074.45 -406.85)"/><path class="cls-39" d="M1510.31,779.82s-2.31-31.59,13.1-43.92,154.88,6.93,154.88,6.93L1703.72,766s16.18,19.26,20,43.92a280.42,280.42,0,0,1,3.08,47s-2.31-37-30.83-46.24-44.69-25.43-44.69-25.43-23.12-14.64-60.1,1.54c-2.55,1.12-55.48,3.09-72.44,12.33Z" transform="translate(-1074.45 -406.85)"/><path class="cls-41" d="M1528,766s-6.16-34.68,68.58-26.2l90.93,18.49s24.66,12.33,31.59,38.53l-1.54,27s-9.25-37.76-40.07-38.53l-25.43-5.39s1.54-15.41-35.44-6.16h-63.19S1525.72,770.57,1528,766Z" transform="translate(-1074.45 -406.85)"/><path class="cls-42" d="M1142,776s57.79-104.8,67-92.47,60.1,10,73.2-3.08S1357,650.36,1357,650.36,1444,628,1450.2,637.26s68.58,33.91,80.91,34.68,53.94-29.28,53.94-29.28,17-8.48,29.28,6.16,39.3,24.66,65.5,44.7,49.32,43.15,57.8,49.31,16.95,25.43,16.95,25.43l8.47,18.49s3.86-81.68,13.1-87.84,6.17-33.13,4.63-36.22-14.64-37.75-13.1-42.38,10.79-33.9,10.79-36.21-23.89-33.91-27-47,16.18-32.36-20-48.55-39.3-17-39.3-22.34-23.12-19.27-47-23.89-53.94,7.71-53.94,7.71-22.35-17.73-35.45-17.73S1532.65,420,1498,426.13s-57.79-9.25-61.65-12.33-33.9-10.79-37.75-4.62-38.53,19.26-46.24,20-98.63,3.08-97.09,13.87-23.89,3.08-29.28,3.08-30.82-22.34-30.82-5.39,12.32,25.43-6.94,35.45-38.53,17.72-38.53,17.72,17,7.7,6.94,22.35-15.41,12.32-19.27,26.19,2.31,32.37-.77,44.7-30.82,37-30.82,41.61,7.7,48.54,7.7,51.63V709.7c0,3.08,6.94,93.24,6.94,93.24Z" transform="translate(-1074.45 -406.85)"/><path class="cls-43" d="M1123.48,977.86s22.35-178,18.5-201.89l-21.58,26.2-3.08,142.55Z" transform="translate(-1074.45 -406.85)"/><path class="cls-44" d="M1763.82,784.44c0,2.31-2.31,145.64-2.31,145.64l-10.78-151.8-.39-21.38Z" transform="translate(-1074.45 -406.85)"/><polygon class="cls-1" points="584.58 812.96 557.61 835.31 526.79 833.77 558.38 886.94 580.64 851.71 584.58 812.96"/><polygon class="cls-1" points="167.7 825.29 194.67 832.23 211.62 846.1 187.61 899.27 170.69 864.04 167.7 825.29"/></g><g id="yeux"><path class="cls-45" d="M1538.05,886.16s25.51-23,54.71-20c30.82,3.09,55.48,22.35,55.48,22.35s-17.72,24.66-65.5,13.87S1538.05,886.16,1538.05,886.16Z" transform="translate(-1074.45 -406.85)"/><path class="cls-45" d="M1373.15,893.86s-17.73-38.52-104.8-12.33L1239.84,897s57.78,11.68,74.74,13.1C1323.83,910.82,1349.26,907.73,1373.15,893.86Z" transform="translate(-1074.45 -406.85)"/><path class="cls-46" d="M1340.78,889.63a28.8,28.8,0,0,1-6.66,18.73c-.2.24-7.94,1.69-17.23,1.69-.77,0-28.51-2.32-30.79-4.47-2.47-2.33-4.65-10.08-4.65-16,0-4.44,1.36-8.49,2.72-12.42.36-1.07,15.38-4.92,27.33-4.92,10.24,0,23.12-.77,24.22.75A28.23,28.23,0,0,1,1340.78,889.63Z" transform="translate(-1074.45 -406.85)"/><path class="cls-46" d="M1336.93,873.06s5.39,7.7,2.31,26.2c0,0-1.54,6.93-6.93,9.24,0,0-26,5.81-46.53-2.87a44,44,0,0,1-2.79-26.41s.77-3.08,6.8-3.51C1294.19,875.4,1310.72,868.25,1336.93,873.06Z" transform="translate(-1074.45 -406.85)"/><circle class="cls-47" cx="236.67" cy="484.31" r="11.94"/><circle cx="237.05" cy="483.16" r="6.16"/><path class="cls-48" d="M1313,888.21c.72-.2,3.08-3.91,1.54-5.59-2.86-3.13-4.62.56-5.39,2.24S1309.19,889.33,1313,888.21Z" transform="translate(-1074.45 -406.85)"/><path class="cls-49" d="M1335.91,908.3s-7.76,6.42-61.16-4l-1,3.44S1324.87,925.82,1335.91,908.3Z" transform="translate(-1074.45 -406.85)"/><path class="cls-50" d="M1272.2,906.19s-4.62,5.4-4.62,8.48c0,0,3.85-6.17,6.16-6.94s-.77,11.56-.77,11.56l3.08-3.85v6.93l4.63-4.62s3.85,7.71,4.62,6.17,4.63-4.63,4.63-4.63l5.39-3.08s6.93,5.39,3.85,8.48c0,0,4.63-2.32,2.31-5.4,0,0,2.32,3.08,1.54,4.63s3.09-4.63,3.09-4.63l10-.77s-.77,3.85,1.55,6.17c0,0-2.32-4.63-.78-6.17s7.71.77,7.71.77,1.54,5.4,1.54,6.17.77-6.17,0-6.94,3.08,0,3.08,0,.77,3.85,0,5.4,3.09-2.32,1.55-5.4,3.85-1.54,3.85-1.54,4.62,6.94,4.62,8.48-.77-10-.77-10C1338.9,915.12,1293.48,920.68,1272.2,906.19Z" transform="translate(-1074.45 -406.85)"/><path class="cls-50" d="M1636.33,905.32s3.48,5.8,3.15,8.86c0,0-2.72-6.49-4.66-7.47s-.56,11.57-.56,11.57l-2.29-4.12-.74,6.89-3.56-5s-4.2,7.3-4.71,5.7-3.56-5-3.56-5l-4.4-3.58s-6.66,4.72-4.28,8.07c0,0-3.81-2.73-1.45-5.58,0,0-2.36,2.85-1.85,4.45s-2.21-4.88-2.21-4.88l-8.7-1.71s.27,3.9-2,6c0,0,2.52-4.38,1.34-6.06s-6.84,0-6.84,0-1.93,5.22-2,6,0-6.2.74-6.9-2.7-.29-2.7-.29-1.09,3.76-.58,5.37-2.45-2.59-.77-5.51-3.22-1.9-3.22-1.9-4.79,6.47-5,8,1.74-9.89,1.74-9.89C1576.91,907.94,1616.13,917.73,1636.33,905.32Z" transform="translate(-1074.45 -406.85)"/><path class="cls-46" d="M1569.64,883.46c0-7.21,2.5-14.05,7.35-18.65,2.67-2.54,13.26,1.31,21.16,1.31,10.76,0,21.58,1.54,23.38,5.23a27.37,27.37,0,0,1-6,32.2c-4.87,4.51-11,5-18.18,5-7.88,0-15.38-1-20.37-6.36A27.27,27.27,0,0,1,1569.64,883.46Z" transform="translate(-1074.45 -406.85)"/><circle class="cls-51" cx="523.32" cy="478.92" r="11.94"/><circle cx="523.32" cy="478.92" r="6.55"/><path class="cls-52" d="M1557.31,901.57s48.55,15.41,75.52,5.39l-9.49-4s-37.52,3.24-62.95-4.46Z" transform="translate(-1074.45 -406.85)"/><path class="cls-48" d="M1594.66,891.64s3.81-1.46,6,0c0,0-.16-.09-.93.68S1594.66,891.64,1594.66,891.64Z" transform="translate(-1074.45 -406.85)"/><path class="cls-48" d="M1598.15,882.82c.72-.21,3.08-3.92,1.54-5.6-2.86-3.12-4.62.56-5.39,2.24S1594.3,883.94,1598.15,882.82Z" transform="translate(-1074.45 -406.85)"/><path class="cls-48" d="M1308.78,895.49s3.81-1.46,6,0c0,0-.16-.08-.93.69S1308.78,895.49,1308.78,895.49Z" transform="translate(-1074.45 -406.85)"/><path class="cls-53" d="M1387,890s-22.32-14.34-42.76-16.8h0s-29.68-7.09-59,2.16h0s64-14.64,87.85,18.49h0s-20.81,11.56-39.3,14.64h0S1362.36,907.73,1387,890Z" transform="translate(-1074.45 -406.85)"/><path class="cls-53" d="M1528,885.39s20.34-14.52,41.08-16.9h0s30.12-6.83,59.84,2.09h0s-54.69-16-90.9,15.58c-.82.71,1.75,2.27,1.75,2.27s21.11,11.15,39.88,14.13h0A101.57,101.57,0,0,1,1528,885.39Z" transform="translate(-1074.45 -406.85)"/><path d="M1390.1,890l-26.2-10-.92,4.25-6.79-6.56v6.94s-1.54-5.4-2.31-7.71-6.16-1.54-6.16-1.54-3.86,2.31-3.08,4.62c0,0-2.13-1.15-.78-3.85s-10.78-3.85-10.78-3.85-2.31,0-3.09,3.85a3.87,3.87,0,0,1-.77-3.85c.77-2.31-6.93,0-6.93,0s-.77,5.39,0,6.16-2.31-2.31-1.54-6.16-4.63,0-4.63,0v6.16c0,.77-4.62-4.62-3.08-6.93s-5.39.77-5.39.77,0,5.39,1.54,6.93-4.62-5.39-3.85-6.93-7.71,1.54-7.71,1.54,3.08,1.54,3.85,3.85c0,0-3.08-3.85-6.16-3.85s2.31,8.48,2.31,8.48-6.93-6.17-6.16-7.71-3.8,2.28-3.8,2.28,5.34,6.2,1.48,8.51c0,0,.78-7.71-3.85-10,0,0,2.31,7.71-.77,9.25,0,0,1.18-8.12-1.54-5.4-1.54,1.54-1.54,6.17-1.54,6.17s-.77-2.31-1.54-1.54-3.08,2.31-4.63,3.85.77-2.31.77-2.31-4.62,0-6.16,2.31,0-2.31,0-2.31-4.62,3.85-4.62,4.62.77-3.85.77-3.85-4.63,8.47-4.63,9.25.77-6.17,2.32-6.94-4.63,3.85-4.63,6.16v-5.39s-1.54,3.85-1.54,6.17-4.62,3.08-4.62,3.08l3.08-3.86s-4.62,6.17-6.16,6.17a6.75,6.75,0,0,0,1.54-4.62s-3.09,6.16-5.4,6.16a2.85,2.85,0,0,1-2.31,1.54,66.7,66.7,0,0,0-7.7,1.54s8.47-3.85,7.7-3.85-12.33,3.85-12.33,3.85l3.85-3.85-8.47,3.08,2.31-3.85h-8.48s21.58-24.66,63.19-30c0,0,33.13-3.09,42.38-2.31S1356.19,872.29,1390.1,890Z" transform="translate(-1074.45 -406.85)"/><path d="M1526.49,885.39l23.22-10,.82,4.24,6-6.55V880s1.37-5.39,2-7.7,5.46-1.54,5.46-1.54,3.42,2.31,2.74,4.62c0,0,1.88-1.15.68-3.85s9.56-3.86,9.56-3.86,2,0,2.73,3.86a4.22,4.22,0,0,0,.69-3.86c-.69-2.31,6.14,0,6.14,0s.69,5.4,0,6.17,2.05-2.31,1.37-6.17,4.1,0,4.1,0v6.17c0,.77,4.1-4.62,2.73-6.94s4.78.77,4.78.77,0,5.4-1.36,6.94,4.09-5.39,3.41-6.94,6.83,1.55,6.83,1.55-2.73,1.54-3.41,3.85c0,0,2.73-3.85,5.46-3.85s-2,8.47-2,8.47,6.15-6.16,5.46-7.7,3.37,2.28,3.37,2.28-4.73,6.19-1.32,8.5c0,0-.68-7.7,3.42-10,0,0-2.05,7.7.68,9.24,0,0-1-8.11,1.37-5.39,1.36,1.54,1.36,6.16,1.36,6.16s.69-2.31,1.37-1.54,2.73,2.31,4.1,3.86-.69-2.32-.69-2.32,4.1,0,5.47,2.32,0-2.32,0-2.32,4.1,3.86,4.1,4.63a37.06,37.06,0,0,1-.69-3.86s4.1,8.48,4.1,9.25-.68-6.16-2-6.93,4.1,3.85,4.1,6.16v-5.39a24.68,24.68,0,0,1,1.37,6.16c0,2.31,4.09,3.08,4.09,3.08l-2.73-3.85s4.1,6.17,5.47,6.17a7.27,7.27,0,0,1-1.37-4.63s2.73,6.17,4.78,6.17c0,0,.68,1.54,2,1.54a53.17,53.17,0,0,1,6.83,1.54s-7.51-3.85-6.83-3.85,10.93,3.85,10.93,3.85l-3.42-3.85,7.52,3.08-2-3.85h7.51s-19.12-24.66-56-30.06c0,0-29.36-3.08-37.56-2.31S1556.54,867.66,1526.49,885.39Z" transform="translate(-1074.45 -406.85)"/></g><g id="bouche"><path class="cls-54" d="M1317.67,1223.67c28.67,6.37,42.38,20.8,42.38,20.8,23.11,17,68.58,16.18,68.58,16.18s38.53-3.08,70.89-3.08c20.51,0,30.5-12.37,35.06-21.44a16.07,16.07,0,0,1,14.85-8.84c13,.4,32.29.24,30.23-4.39-3.08-6.94-14.64-7.71-14.64-7.71-10-8.48-60.11-50.09-60.11-50.09-24.65-14.64-48.54,6.94-48.54,6.94l-17.73-9.25c-23.11-5.39-40.84,10.79-40.84,10.79-9.24,6.16-33.13,23.12-33.13,23.12s-35.45,17.72-38.53,18.49C1326.14,1215.19,1310.73,1222.13,1317.67,1223.67Z" transform="translate(-1074.45 -406.85)"/><path class="cls-53" d="M1330.77,1214.42s66.26-26.2,77.82-35.45,39.3,3.09,40.84,5.4,8.48,15.41,16.18,3.85,23.12-15.41,33.14-11.56,50.09,35.45,50.09,35.45l12.33,6.16s16.55,10.72-3.67,9.21-39.49-13.83-67.23-8.44-77.82.77-99.4-1.54-53,7-53,7S1322.29,1222.9,1330.77,1214.42Z" transform="translate(-1074.45 -406.85)"/><path class="cls-55" d="M1445.58,1236.77s20,3.08,34.68-1.54C1480.26,1235.23,1460.22,1226,1445.58,1236.77Z" transform="translate(-1074.45 -406.85)"/><path class="cls-56" d="M1390.87,1226s25.43,14.64,35.45,13.87,10-8.48,10-8.48S1419.38,1230.6,1390.87,1226Z" transform="translate(-1074.45 -406.85)"/><path class="cls-57" d="M1390.87,1198.24s36.22,2.22,43.15-2.31c8.28-5.41,6.17-7.83,6.17-7.83s-13.87-17.29-37-4.07S1390.87,1198.24,1390.87,1198.24Z" transform="translate(-1074.45 -406.85)"/><path class="cls-57" d="M1475.63,1191.3s6.94-19.26,20-12.33,39.3,22.35,39.3,22.35S1481.8,1194.39,1475.63,1191.3Z" transform="translate(-1074.45 -406.85)"/><path class="cls-58" d="M1329.56,1225.14s-11.89-3-.34-8.41,48.55-10,48.55-10,58.56-1.54,62.42-2.31,13.87-5.39,13.87-5.39l19.26,6.16s32.36-5.39,57.79,6.17,38.53,7.7,38.53,7.7,10.79,1.55.77,5.4-30.05-1.54-38.53-6.94-63.18-3.85-72.43-3.08-59.33-3.08-59.33-3.08-28.51,3.08-43.16,6.93S1336.06,1227.39,1329.56,1225.14Z" transform="translate(-1074.45 -406.85)"/><path class="cls-59" d="M1396.26,1221.36c2.2-6.58,1.54,19.26,1.54,19.26S1395.49,1223.67,1396.26,1221.36Z" transform="translate(-1074.45 -406.85)"/><path class="cls-59" d="M1410.13,1225.21s-4.62,12.33-2.31,16.18C1407.82,1241.39,1409.36,1226,1410.13,1225.21Z" transform="translate(-1074.45 -406.85)"/><path class="cls-13" d="M1464.07,1226.75s3.09,14.64,1.54,17S1464.07,1226.75,1464.07,1226.75Z" transform="translate(-1074.45 -406.85)"/><path class="cls-60" d="M1508,1225.21c-.77-.77,3.85,11.56,3.85,11.56S1509.54,1226.75,1508,1225.21Z" transform="translate(-1074.45 -406.85)"/><path class="cls-59" d="M1457.91,1228.29s2.31,10.79,1.54,13.87S1462.53,1236,1457.91,1228.29Z" transform="translate(-1074.45 -406.85)"/></g></svg>