<?xml version="1.0" encoding="utf-8"?>
<!-- Generator: Adobe Illustrator 24.0.0, SVG Export Plug-In . SVG Version: 6.00 Build 0)  -->
<svg version="1.1" xmlns="http://www.w3.org/2000/svg" xmlns:xlink="http://www.w3.org/1999/xlink" x="0px" y="0px"
	 viewBox="0 0 652.7 648.9" style="enable-background:new 0 0 652.7 648.9;" xml:space="preserve">
<style type="text/css">
	.st0{fill:#00BFCE;}
	.st1{opacity:0.5;fill:#012D2D;enable-background:new    ;}
	.st2{fill:#009FA3;}
	.st3{fill:#005656;}
	.st4{opacity:0.33;fill:#B4FCF7;enable-background:new    ;}
</style>
<g id="Calque_20">
	<rect class="st0" width="652.8" height="648.9"/>
</g>
<g id="Calque_19">
	<path class="st1" d="M617,98.9l35.7,35.9v514.1H73.9L57,636.3C56.9,636.3,172,583.1,617,98.9z"/>
</g>
<g id="Calque_18">
	<path class="st2" d="M75.3,113.6c-3.4-0.9-6.1-2-8.2-3.3l4.2-9c1.9,1.2,4.2,2.2,7,3c2.7,0.8,5.4,1.2,8,1.2c5.3,0,7.9-1.3,7.9-3.9
		c0-1.2-0.7-2.1-2.2-2.6c-1.4-0.5-3.7-1-6.6-1.4c-3.5-0.5-6.4-1.1-8.7-1.8c-2.3-0.7-4.3-1.9-6-3.7c-1.7-1.8-2.5-4.3-2.5-7.5
		c0-2.7,0.8-5.1,2.4-7.2s3.9-3.7,6.9-4.9c3-1.2,6.6-1.8,10.7-1.8c3,0,6.1,0.3,9.1,1s5.5,1.6,7.5,2.8l-4.2,8.9
		c-3.8-2.1-7.9-3.2-12.4-3.2c-2.7,0-4.7,0.4-6,1.1s-2,1.7-2,2.9c0,1.3,0.7,2.3,2.2,2.8c1.4,0.5,3.7,1,6.9,1.5
		c3.5,0.6,6.4,1.2,8.6,1.9c2.2,0.7,4.2,1.9,5.8,3.6c1.7,1.8,2.5,4.2,2.5,7.4c0,2.7-0.8,5-2.4,7.1s-3.9,3.7-7,4.8
		c-3.1,1.1-6.7,1.7-10.9,1.7C82.2,114.9,78.7,114.5,75.3,113.6z"/>
</g>
<g id="Calque_17">
	<path class="st2" d="M141.5,112.2c-1.2,0.9-2.7,1.6-4.5,2c-1.8,0.5-3.7,0.7-5.6,0.7c-5.1,0-9.1-1.3-11.9-3.9s-4.2-6.5-4.2-11.5
		V81.8h-6.6v-9.6h6.6V61.7h12.5v10.5h10.7v9.6h-10.7v17.5c0,1.8,0.5,3.2,1.4,4.2s2.3,1.5,4,1.5c2,0,3.7-0.5,5-1.6L141.5,112.2z"/>
</g>
<g id="Calque_16">
	<path class="st2" d="M190.5,71.3L171,116.9c-2,5-4.4,8.5-7.3,10.5c-2.9,2-6.4,3-10.5,3c-2.2,0-4.5-0.3-6.6-1
		c-2.2-0.7-4-1.7-5.4-2.9l4.6-8.9c1,0.9,2.1,1.5,3.3,2c1.3,0.5,2.5,0.7,3.7,0.7c1.7,0,3.1-0.4,4.2-1.2c1.1-0.8,2-2.2,2.9-4.1
		l0.2-0.4l-18.6-43.4h12.9l12.1,29.2l12.2-29.2h11.8V71.3z"/>
</g>
<g id="Calque_15">
	<path class="st2" d="M195.6,54.9h12.5v59.4h-12.5V54.9z"/>
</g>
<g id="Calque_14">
	<path class="st2" d="M227.9,112.1c-3.6-1.9-6.4-4.5-8.4-7.9s-3-7.2-3-11.4s1-8.1,3-11.4c2-3.4,4.8-6,8.4-7.9
		c3.6-1.9,7.7-2.8,12.2-2.8s8.6,0.9,12.2,2.8c3.6,1.9,6.4,4.5,8.4,7.9s3,7.2,3,11.4s-1,8.1-3,11.4c-2,3.4-4.8,6-8.4,7.9
		c-3.6,1.9-7.6,2.8-12.2,2.8C235.6,114.9,231.5,114,227.9,112.1z M248,101.5c2.1-2.2,3.1-5.1,3.1-8.7s-1-6.5-3.1-8.7
		s-4.7-3.2-7.9-3.2s-5.8,1.1-7.9,3.2c-2.1,2.2-3.1,5.1-3.1,8.7s1,6.5,3.1,8.7s4.7,3.2,7.9,3.2S246,103.6,248,101.5z"/>
</g>
<g id="Calque_13">
	<path class="st2" d="M592.9,78.1c0,0,5.1-3.4,15.5,8.5c0,0,11.1,10.7,10.2,16.5L604,123l-4.8,6.9c0,0-0.7,3-4.4,6.6
		c0,0-91.2,111.9-168.4,179.4l-13.9,14.7l-6.8,7.2l-9.1,3.2c0,0-103.8,110.8-142.6,144.7c0,0-7.4-5.2-11.1,6.4l-72.5,67.1
		c0,0-6.2,6.6-7.1,9.7c-0.9,3.1-4.8,3.3-7.2,2.7l-3.8,3.3l-9.7,8.3c0,0-2.3,2.2-7.4-2.6c0,0-11.9-8.9-20.6-19.3c0,0-5.8-6.9-3.3-9.1
		s8.4-9.4,8.4-9.4l4.3-2.2c0,0-4-5.3,0.3-8.4c3.9-1.5,7.5-3.7,10.6-6.6c5-4.8,68-74.2,68-74.2s6.9-6.9,6.8-11
		c0,0,116-120.6,144.6-141l4.1-8.5l7.3-7.1l14.3-13.9c0,0,138.1-137.6,181.2-168.8c0,0,2.7-3.2,6-3.9s6.1-4.5,6.1-4.5
		S592.2,78.1,592.9,78.1z"/>
</g>
<g id="Calque_12">
	<path class="st3" d="M250.4,486.5c0,0-2.1,5.2-7.5,5.7c0,0-24.6-20.4-28.5-26.7c0,0-10.3-11.3-11.6-14.1s5.4-7,5.4-7
		s-0.2-3.6,0.9-3.7c0,0,18.7,26.4,44.9,45.2C253,486.5,251.6,486.8,250.4,486.5z"/>
</g>
<g id="Calque_11">
	<path class="st3" d="M594.8,78.6c-0.4,0.1-0.6,0.3-0.7,0.7c-0.2,1.4,0,5.6,8.5,13.7c10.6,10.1,13.5,8.3,13.5,8.3s2.2-1.7-0.5-5.7
		S604.5,82.1,599,79.5C597.7,78.8,596.2,78.5,594.8,78.6z"/>
</g>
<g id="Calque_10">
	<path class="st3" d="M113.4,559.4l-36.7,33c0,0-3.6,7.8-5.9,13.9s-11.2,25.2-12.4,25.4s-1.6,2.7-1.6,2.7c-0.7,1.5,0,2.2,1.6,2.6
		s3.6-1.7,3.6-1.7s18.6-9.1,27.2-12.6c0.8-0.3,13.3-6.4,13.3-6.4l32.6-35.7C129.6,577.6,113.4,559.4,113.4,559.4z M86.6,608.1
		c-1.2,0-2.1-1-2.1-2.2s1-2.1,2.2-2.1s2.1,1,2.1,2.1C88.8,607.2,87.8,608.1,86.6,608.1C86.7,608.1,86.6,608.1,86.6,608.1z"/>
</g>
<g id="Calque_9">
	<path class="st0" d="M85.1,607.1c0,0-21.5,24.1-26.1,26.4l-2.1,2.8l2.2-2.8c0,0,2.4,0.6,26.3-26.1L85.1,607.1z"/>
</g>
<g id="Calque_8">
	<polygon class="st3" points="354.2,299.4 358,290.8 404.9,338 396.8,341.3 	"/>
</g>
<g id="Calque_7">
	<path class="st3" d="M567,96.9c0,0-1-3.8,5.3-4.2c3.2,2,6.2,4.3,8.9,6.9c4.6,4.5,9.3,7.4,14.8,14.7s7.2,8.9,7.2,8.9
		s2.6,3.6-4.2,6.6c0,0-0.5-2.5-5.9-8.3C587.6,115.6,566.6,96.9,567,96.9z"/>
</g>
<g id="Calque_6">
	<path class="st3" d="M421.2,272.3c0,0-5.9-5,2.5-15.8s17.2-22.9,17.2-22.9l134.8-128.5l17.2,15.7c0,0-117.2,123.4-127.6,131.3
		s-30.7,19.8-30.7,19.8S429.6,276.3,421.2,272.3z"/>
</g>
<g id="Calque_5">
	<path class="st0" d="M430.7,261.6l21.8-25.6c2.5-2.8,5.1-5.4,8-7.9l25.7-21l-17.7,23.7c-3.3,4.4-7.2,8.3-11.7,11.6L430.7,261.6z"/>
</g>
<g id="Calque_4">
	<path class="st3" d="M123.2,539.6c0,0,24.1,28.4,32.3,31.4c-0.2,1.9-1.8,3.5-3.7,3.7c-3.3,0.4-31.5-27.1-31.2-31.6
		C120.9,538.7,123.2,539.6,123.2,539.6z"/>
</g>
<g id="Calque_3">
	<path class="st4" d="M608.4,86.5c0,0-9.1-11.5-15.5-8.5S573,92.4,573,92.4s-6.5,0.3-6,4.5c0,0-6.4-6.7-209,193.9l-3.8,8.6
		c0,0-18.6,10.3-145.2,141.2c0,0-1.4-0.1-0.9,3.7c0,0-6.7,3.5-5.4,7l-68,74.3c0,0-5.6,4.9-10.6,6.6c0,0-4.3,2.3-1,7.4
		c0,0-2.8-0.6-2.6,3.5c0,0,0.4-1.3-1-0.4s-8.4,9.4-8.4,9.4s-2.2,2.4,2.2,7.3l-36.7,33c0,0-15.2,36.4-18.3,39.3s-1.4,4.6-1.4,4.6
		S239,412.9,608.4,86.5z"/>
</g>
</svg>
