<svg id="flate_design" data-name="flate design" xmlns="http://www.w3.org/2000/svg" xmlns:xlink="http://www.w3.org/1999/xlink" viewBox="0 0 653 653.13"><defs><style>.cls-1{fill:#8261a3;}.cls-2{fill:#341c4c;}.cls-3{fill:#546;}.cls-4,.cls-7{fill:#513b63;}.cls-5{fill:#462f56;}.cls-11,.cls-6{opacity:0.48;}.cls-10,.cls-11,.cls-6{isolation:isolate;}.cls-6{fill:url(#Dégradé_sans_nom);}.cls-7{stroke:#b7b7b7;stroke-miterlimit:10;stroke-width:2px;}.cls-8{fill:#352742;}.cls-9{fill:#cecece;}.cls-11{fill:url(#Dégradé_sans_nom_2);}.cls-12{fill:#635270;}.cls-13{fill:#201828;}</style><linearGradient id="Dégradé_sans_nom" x1="1284.25" y1="-736.69" x2="1087.98" y2="-722.01" gradientTransform="matrix(1, 0.02, 0.02, -1, -521.41, -399.3)" gradientUnits="userSpaceOnUse"><stop offset="0.3" stop-color="#513b63"/><stop offset="1" stop-color="#462f56"/></linearGradient><linearGradient id="Dégradé_sans_nom_2" x1="902.58" y1="-798.05" x2="1194.17" y2="-841.1" gradientTransform="matrix(1, 0.02, 0.02, -1, -518.51, -393.25)" gradientUnits="userSpaceOnUse"><stop offset="0" stop-color="#513b63"/><stop offset="0.01" stop-color="#513b63"/><stop offset="0.23" stop-color="#493259"/><stop offset="0.52" stop-color="#462f56"/></linearGradient></defs><title>tel pour motion</title><polygon class="cls-1" points="1 0 653 0 653 653 0 653 1 0"/><polygon class="cls-2" points="261.77 609.6 533.05 653.13 140.91 653.13 83.9 608.79 261.77 609.6"/><path class="cls-3" d="M548,70.05A25.19,25.19,0,0,1,565.29,55.6c11.86-2.77,27.65,1.14,57.9,15.61l111,50.2a24.76,24.76,0,0,1,9.45,9.86c.16.3.31.61.46.93a25,25,0,0,1-.21,21.6L530.53,594.65A25.33,25.33,0,0,1,510,608.86L390.48,619.53a33,33,0,0,1-8-.26c-39.82-6.18-46.52-20.89-51.62-31.44s1.55-22.67,16.55-61.51Z" transform="translate(-264 -1)"/><path class="cls-4" d="M549,74.25a28.53,28.53,0,0,1,22.41-16.92c11.72-1.48,26.34,4.22,53.11,16.29L739,126.4c6.29,5.13,10.25,15.33,9.78,23.55l-223,460.66-137.13,9.21a11.78,11.78,0,0,1-1.68,0c-42.22-2.69-49.37-18.09-54.6-28.93-5.1-10.55,1.55-22.67,16.55-61.51Z" transform="translate(-264 -1)"/><path class="cls-3" d="M341.68,603.47s-6.13-6.63,9.66-38.87L563.13,85.25a39.49,39.49,0,0,1,21-18.84c9.13-3.38,26.47,5.24,26.47,5.24l134,62.46c2.37,1.94,5.88,13.83,4,16.26l-365.51,469S352.49,619.15,341.68,603.47Z" transform="translate(-264 -1)"/><path class="cls-5" d="M582.36,75c8.16-4,14.06-4.94,42.52,8.06l116.36,52.69a17.31,17.31,0,0,1,4.83,20.92L537.25,601.07a19.23,19.23,0,0,1-16.07,11l-131.45,7.58a31,31,0,0,1-6.6-.32c-26.5-4.1-35-14.22-35.23-22.27-.35-15.23,200.87-463.47,220.63-507.44A29.56,29.56,0,0,1,582.36,75Z" transform="translate(-264 -1)"/><path class="cls-6" d="M605.43,83.28l128.62,56.21a8.94,8.94,0,0,1,1.25.86c2.25,1.92,8.24,8.58,1.76,21-7.71,14.83-199.15,418-199.23,418.14-.6,1.23-9.35,23.25-11.71,24.88s56-439.06,67.56-515.36a8,8,0,0,1,9.18-6.62A8.1,8.1,0,0,1,605.43,83.28Z" transform="translate(-264 -1)"/><path class="cls-4" d="M602.28,97a9.07,9.07,0,0,0-1.74-.78,12.67,12.67,0,0,0-15.61,7L543,198.77l-.53,1.3a9.88,9.88,0,0,0,1.78,10.47,9.21,9.21,0,0,0,4.69,2.7c8.28,2,14.77-3.16,16.49-4.72a2.91,2.91,0,0,0,.67-.92l2.12-4.71,37.58-83.7a2.83,2.83,0,0,0,.23-1.49l-2.41-18.76A2.72,2.72,0,0,0,602.28,97Z" transform="translate(-264 -1)"/><rect class="cls-3" x="511.66" y="145.58" width="128.94" height="23.35" rx="11.67" transform="translate(-63.6 620.46) rotate(-66.28)"/><ellipse class="cls-7" cx="595.89" cy="114.59" rx="9.64" ry="7.38" transform="translate(13.43 630.12) rotate(-69.23)"/><ellipse class="cls-4" cx="583.29" cy="143.51" rx="9.64" ry="7.38" transform="translate(-21.74 637) rotate(-69.23)"/><ellipse class="cls-4" cx="570.67" cy="172.41" rx="9.64" ry="7.38" transform="translate(-56.91 643.85) rotate(-69.23)"/><ellipse class="cls-8" cx="596.12" cy="114.36" rx="7.36" ry="6.04" transform="translate(13.8 630.18) rotate(-69.23)"/><path class="cls-3" d="M598.76,107.55c2.53,1,3.91,3.8,3.56,6.87" transform="translate(-264 -1)"/><ellipse class="cls-8" cx="584.16" cy="143.83" rx="6.98" ry="5.35" transform="translate(-21.48 638.02) rotate(-69.23)"/><ellipse class="cls-8" cx="571.45" cy="172.4" rx="6.98" ry="5.35" transform="translate(-56.4 644.57) rotate(-69.23)"/><circle class="cls-9" cx="295.54" cy="196.34" r="3.91"/><path class="cls-5" d="M566.12,96.12,564.71,101s-2.71,1.69-7-2.3l-12.6-10.41s-3.16-2-3-4.9l2.62-6.16s-.67,1.7,2.68,3.93l15.26,12.33s2.85,1.76,4.22.55Z" transform="translate(-264 -1)"/><path class="cls-5" d="M355.24,578.91l-2.07,4.6s-2.92,1.29-6.59-3.24l-11.94-13.44a4.45,4.45,0,0,1-1.37-4.35l3.11-7a6.91,6.91,0,0,0,2.42,6l13.4,14.32s2.59,2.14,4.11,1.13Z" transform="translate(-264 -1)"/><g class="cls-10"><g class="cls-10"><path class="cls-4" d="M669.53,581.84a19.86,19.86,0,0,1,7.72,7.76,25.59,25.59,0,0,1,0,23.28,19.86,19.86,0,0,1-7.72,7.76,21.93,21.93,0,0,1-10.92,2.76q-8.24,0-13-5.2v20.08H633.17V579.72h11.92v5q4.63-5.59,13.52-5.6A21.93,21.93,0,0,1,669.53,581.84Zm-5.2,28.08a13.77,13.77,0,0,0,0-17.36,11.2,11.2,0,0,0-15.76,0,13.77,13.77,0,0,0,0,17.36,11.2,11.2,0,0,0,15.76,0Z" transform="translate(-264 -1)"/></g><g class="cls-10"><path class="cls-4" d="M727.45,583.88q4.92,4.8,4.92,14.24v24.64H719.89V600q0-5.12-2.24-7.64a8.21,8.21,0,0,0-6.48-2.52,9.92,9.92,0,0,0-7.52,2.92q-2.8,2.93-2.8,8.68v21.28H688.37V563.4h12.48v20.8a16.59,16.59,0,0,1,6-3.8,21.73,21.73,0,0,1,7.68-1.32Q722.53,579.08,727.45,583.88Z" transform="translate(-264 -1)"/></g><g class="cls-10"><path class="cls-4" d="M752.41,620.56a21.11,21.11,0,0,1-8.44-7.88,23,23,0,0,1,0-22.88,21.11,21.11,0,0,1,8.44-7.88,27.54,27.54,0,0,1,24.36,0,21.2,21.2,0,0,1,8.4,7.88,23,23,0,0,1,0,22.88,21.2,21.2,0,0,1-8.4,7.88,27.54,27.54,0,0,1-24.36,0Zm20.08-10.64a13.77,13.77,0,0,0,0-17.36,10.39,10.39,0,0,0-7.88-3.24,10.52,10.52,0,0,0-7.92,3.24,13.63,13.63,0,0,0,0,17.36,10.52,10.52,0,0,0,7.92,3.24A10.39,10.39,0,0,0,772.49,609.92Z" transform="translate(-264 -1)"/></g><g class="cls-10"><path class="cls-4" d="M835.61,583.88q4.92,4.8,4.92,14.24v24.64H828.05V600q0-5.12-2.24-7.64a8.21,8.21,0,0,0-6.48-2.52,9.92,9.92,0,0,0-7.52,2.92q-2.8,2.93-2.8,8.68v21.28H796.53v-43h11.92v5a16.63,16.63,0,0,1,6.16-4.2,21.4,21.4,0,0,1,8.08-1.48Q830.69,579.08,835.61,583.88Z" transform="translate(-264 -1)"/></g><g class="cls-10"><path class="cls-4" d="M894.21,604.76H861.65a10.14,10.14,0,0,0,4.16,6.32A13.77,13.77,0,0,0,874,613.4a16.44,16.44,0,0,0,6-1,14.49,14.49,0,0,0,4.84-3.16l6.64,7.2q-6.07,7-17.76,7a28.14,28.14,0,0,1-12.88-2.84,20.84,20.84,0,0,1-8.64-7.88,21.67,21.67,0,0,1-3-11.44,22,22,0,0,1,3-11.4,21,21,0,0,1,8.24-7.92,25.51,25.51,0,0,1,23.16-.12,19.85,19.85,0,0,1,8,7.8,23.23,23.23,0,0,1,2.92,11.8Q894.45,601.64,894.21,604.76ZM865,590.92a10.24,10.24,0,0,0-3.52,6.56h21.2a10.34,10.34,0,0,0-3.52-6.52,10.51,10.51,0,0,0-7-2.44A10.74,10.74,0,0,0,865,590.92Z" transform="translate(-264 -1)"/></g></g><path class="cls-3" d="M521.48,365.7l-5.66-1.56c-.46-.13-1-.27-1.45-.44s-1-.34-1.42-.55a12.19,12.19,0,0,1-1.4-.7,7.66,7.66,0,0,1-1.34-1,4.43,4.43,0,0,1-.61-.69,2.81,2.81,0,0,1-.44-1,2.25,2.25,0,0,1-.08-.58,1,1,0,0,1,0-.24.81.81,0,0,1,0-.22,6.47,6.47,0,0,1,.15-.88,5.06,5.06,0,0,1,.76-1.65,4.38,4.38,0,0,1,.59-.7c.12-.1.23-.21.36-.31l.19-.14.11-.07h.14l.13-.07h.23c1.66-.26,3.35-.58,5-.94s3.31-.78,4.88-1.29a20.74,20.74,0,0,0,2.27-.86c.18-.08.35-.16.51-.25l.49-.28.52-.32.5-.33a16.41,16.41,0,0,0,1.84-1.49c.28-.27.54-.54.79-.83.12-.14.24-.28.34-.42a.8.8,0,0,0,.15-.21l.07-.1h0a6,6,0,0,1,.82-.77h0l.46-.34c.3-.23.61-.45.92-.66.63-.43,1.27-.84,1.92-1.22a26.42,26.42,0,0,1,4.15-2,19.69,19.69,0,0,1,2.26-.7,14.31,14.31,0,0,1,2.43-.39,11.56,11.56,0,0,1,2.56.11,9.49,9.49,0,0,1,2.56.78l-2.39.66.15-.25.14-.21.29-.4c.19-.26.38-.51.58-.76a15.88,15.88,0,0,1,1.26-1.43,18.74,18.74,0,0,1,3-2.48,15.53,15.53,0,0,1,3.51-1.8,17.12,17.12,0,0,1,1.85-.56c.61-.15,1.21-.27,1.81-.38a58.4,58.4,0,0,1,7.1-.79c1.18-.06,2.35-.11,3.53-.13s2.33,0,3.53,0l2.48.06-.9,2.16c-.12.28-.22.51-.34.76l-.34.73c-.23.49-.46,1-.7,1.44-.49,1-1,1.88-1.55,2.79s-1.12,1.82-1.73,2.7-1.25,1.73-1.94,2.55a22.87,22.87,0,0,1-4.72,4.39,12.4,12.4,0,0,1-2.92,1.44,8.42,8.42,0,0,1-3.19.44v-.18a.26.26,0,0,1,.22-.26,8.41,8.41,0,0,0,2.62-.86,12,12,0,0,0,2.43-1.69,16.82,16.82,0,0,0,2.06-2.16,28.32,28.32,0,0,0,1.77-2.42c.56-.83,1.07-1.7,1.56-2.58a27.33,27.33,0,0,0,1.38-2.69c.38-.91.85-1.83,1.24-2.76l.56-1.4.26-.71c.09-.23.18-.47.24-.68l1.58,2.23c-1.11.08-2.26.17-3.39.28s-2.27.23-3.39.37c-2.25.26-4.49.59-6.64,1-.53.12-1.06.24-1.57.38s-1,.28-1.46.45A14,14,0,0,0,552.5,341a18.51,18.51,0,0,0-2.45,1.85c-.39.35-.76.71-1.12,1.09-.18.19-.35.38-.51.58l-.24.29-.2.26-1.08,1.37-1.31-.71a6.53,6.53,0,0,0-3.3-.72,13,13,0,0,0-3.75.71,21.82,21.82,0,0,0-3.7,1.64c-.6.32-1.19.67-1.77,1-.29.18-.58.37-.86.57l-.42.29a1.2,1.2,0,0,0-.29.26l-.24.3c-.16.2-.32.38-.49.56-.32.35-.65.68-1,1a17.45,17.45,0,0,1-2.24,1.68l-.59.36-.6.34c-.19.11-.43.23-.65.34a6.31,6.31,0,0,1-.66.29,21.54,21.54,0,0,1-2.61.86c-1.73.46-3.45.8-5.18,1.08s-3.44.53-5.2.71l.36-.11h0l-.11.07a1.56,1.56,0,0,0-.2.16,2.79,2.79,0,0,0-.38.39,3.18,3.18,0,0,0-.52,1,3.5,3.5,0,0,0-.13.56v.42a1.59,1.59,0,0,0,.49.8,8.35,8.35,0,0,0,2.18,1.49c.42.21.85.4,1.28.58s.87.32,1.34.49l5.48,2.22,5,2.17Z" transform="translate(-264 -1)"/><circle class="cls-3" cx="295.47" cy="371.98" r="1.57"/><circle class="cls-3" cx="300.02" cy="355.29" r="1.57"/><circle class="cls-3" cx="307.76" cy="351.59" r="1.57"/><circle class="cls-3" cx="300.44" cy="379.05" r="1.57"/><circle class="cls-3" cx="307.96" cy="382.08" r="1.57"/><circle class="cls-3" cx="316.06" cy="352.67" r="1.57"/><circle class="cls-3" cx="323.61" cy="359.87" r="1.57"/><circle class="cls-3" cx="318.22" cy="379.98" r="1.57"/><circle class="cls-3" cx="324.41" cy="370.73" r="1.57"/><circle class="cls-3" cx="324.42" cy="370.73" r="1.36"/><path class="cls-3" d="M535.35,360l-.83,3.16-.71-.19,2.79-10.55.7.18-1.69,6.4,8.09-4.71,1,.27L539,357.84l2.84,7.25-.88-.23-2.6-6.65Z" transform="translate(-264 -1)"/><path class="cls-3" d="M548.49,361.57l-4.23-1.12.19-.7,4.22,1.11Z" transform="translate(-264 -1)"/><path class="cls-3" d="M555.42,358.13,552.81,368l-.7-.18,2.6-9.86-3.52-.93.19-.7,7.74,2-.18.7Z" transform="translate(-264 -1)"/><path class="cls-3" d="M564.17,359.65a2.58,2.58,0,0,1,2.25,2.87,2.7,2.7,0,0,1-.18.69l-.7-.19a2,2,0,0,0-1-2.54,2.12,2.12,0,0,0-.51-.13l-2.11-.55a2.18,2.18,0,1,0-1.12,4.22h0l2.12.56a2.91,2.91,0,0,1-1.49,5.63l-2.11-.56a2.57,2.57,0,0,1-2.26-2.86,2.41,2.41,0,0,1,.18-.7l.71.19a1.92,1.92,0,0,0,1,2.52,2.15,2.15,0,0,0,.54.14l2.11.56a2.18,2.18,0,1,0,1.12-4.22l-2.11-.56a2.91,2.91,0,1,1,1.49-5.63Z" transform="translate(-264 -1)"/><path class="cls-3" d="M573.38,370.41l2-7.74.7.18-2,7.74a2.56,2.56,0,0,1-3.56,2.07l-2.11-.55a2.57,2.57,0,0,1-2.26-2.86,2.41,2.41,0,0,1,.18-.7l2-7.74.7.18-2,7.74a1.93,1.93,0,0,0,1,2.53,2,2,0,0,0,.53.14l2.11.56a1.93,1.93,0,0,0,2.51-1.06A1.69,1.69,0,0,0,573.38,370.41Z" transform="translate(-264 -1)"/><path class="cls-3" d="M577.93,364.59,575.45,374l-.7-.19,2.79-10.56.75.2,3.81,11,2.48-9.38.7.19-2.79,10.56-.75-.2Z" transform="translate(-264 -1)"/><g class="cls-10"><path class="cls-3" d="M589.41,371.28s-.06.08-.18.2-.18.18-.19.19h0s0,0,0-.06l-.09-.1a.51.51,0,0,0-.16-.09.25.25,0,0,0-.22,0,.29.29,0,0,0-.11.4.29.29,0,0,0,.17.14.39.39,0,0,0,.34,0h0a1.13,1.13,0,0,1,.1.24,1.65,1.65,0,0,1,.07.27l-.05,0a.54.54,0,0,1-.32.12.83.83,0,0,1-.35,0,.89.89,0,0,1-.57-.43.94.94,0,0,1,.34-1.27.89.89,0,0,1,.71-.1.86.86,0,0,1,.55.4A.08.08,0,0,1,589.41,371.28Z" transform="translate(-264 -1)"/></g><path class="cls-11" d="M505.76,251.75,365,576.75s-17.36,28,7.27,35.59l85.55-3Z" transform="translate(-264 -1)"/><polygon class="cls-12" points="220.06 237.48 203.83 274.62 204.06 275.53 205.41 276.09 206.44 275.56 222.57 238.64 222.52 237.16 221.41 236.72 220.06 237.48"/><polygon class="cls-12" points="255.91 157.45 226.02 224.66 226.26 225.56 227.6 226.13 228.64 225.59 258.41 158.61 258.36 157.13 257.26 156.69 255.91 157.45"/><polygon class="cls-5" points="255.04 156.94 225.15 224.15 225.38 225.06 226.73 225.62 227.76 225.08 257.54 158.1 257.49 156.62 256.39 156.18 255.04 156.94"/><polygon class="cls-5" points="219.25 236.87 203.01 274.01 203.25 274.92 204.6 275.48 205.63 274.95 221.75 238.04 221.7 236.56 220.6 236.11 219.25 236.87"/><path class="cls-3" d="M592.92,109l5.72,11.47a8.1,8.1,0,0,0,1.28-1.06c.1-.14-5.52-11.46-5.52-11.46A5.31,5.31,0,0,0,592.92,109Z" transform="translate(-264 -1)"/><circle class="cls-13" cx="307.48" cy="171.48" r="2.71"/><circle class="cls-13" cx="320.75" cy="143.11" r="2.71"/></svg>