<svg id="silhouette" xmlns="http://www.w3.org/2000/svg" viewBox="0 0 763.11 1110.25"><defs><style>.cls-1{fill:#ff0043;}.cls-2{fill:#fff;}.cls-3{stroke:#000;stroke-miterlimit:10;stroke-width:4px;}</style></defs><title>tete menu refait sur</title><g id="Calque_10" data-name="Calque 10"><path d="M55.07,744.22s-35.86,10-41.32-38.52c0,0-18.71-9.25-12.47-37.76s3.89-43.15,1.55-57,4.68-40.07.78-47-7.79-29.28,10.14-28.51,25,9.25,25,9.25L50.4,420.55s-7.8-100.18-7.8-107.11,3.9-78.6,3.9-78.6S289.76-19.45,484.68,60.73,683.5,288.82,683.5,320.41s10.91,218.07,10.91,218.07,10.92-9.24,17.15-6.93,10.92,6.16,12.48,10-.78,47-1.56,56.25,2.34,42.38,4.68,46.23,12.47,53.94-1.56,57c0,0,3.9,34.68-33.53,36.22,0,0-18.71,67-22.61,74s-69.39,131-116.17,171.84-44.44,74.75-152.82,77.83-147.36-7.71-173.87-24.66-138-181.85-138-181.85L75.34,826.67Z" transform="translate(-0.01 0)"/><path d="M44.85,581.8s0,67.81,10.92,109.42S135.3,831.47,135.3,831.47l17.54,58.18,33.53-50.86s-8.58-14.64,4.67-34.68,121.63-77.82,121.63-77.82l46-7.71s1.19,26.24-10.92,27.74c-49.9,6.16-139.56,93.24-139.56,93.24l-28.07,57.79s-7.8,41.61,9.35,52.4S237,945.13,237,945.13l7.79,56.25,36.65-37,21.83,27.74,31.19-18.49s45.22,13.87,46.78,21.57S410.12,1016,410.12,1016V973.63l40.55,20,20.27,20,17.15-40.07,18-23,53.8-54.71L530.2,829.55s-72.51-77.06-103.69-81.68l-23.39.77L410.91,714l39.77,5.39,29.63,21.58,33.52,17.72,29.63,20,22.61,47.78,26.51,53.17,17.15-52.4s46-64.73,58.48-90.16,21.86-136.37,21.86-136.37S687.73,740.93,687,747.86s-9.36,85.53-14,95.55-25.73,53.17-25.73,53.17-3.12,1.54-3.12,7.71-13.26,17.72-14.82,20.8,3.12,12.33-8.57,17.72-17.93,17.73-17.93,20.81-19.5,23.12-19.5,23.12-.78,22.34-7,27-47.56,44.69-53.8,47.77-34.31,12.33-34.31,12.33L447.63,1097s-14-5.4-27.29-.77-20.27-3.85-42.1,3.85-42.11,12.33-44.44,9.25-9.36-6.94-20.28-9.25-28.06-13.1-28.06-13.1-23.4-7.7-29.63-7.7-28.85-4.63-28.85-4.63l-25.73-26.2-15.59-12.33s-8.58-25.43-11.7-25.43-26.51-9.24-26.51-9.24l-9.38-30.86-17.16-29.29-19.49-23.11v-17L71.79,861.08,71,843.36,58.5,829.55S41.35,583.73,44.85,581.8Z" transform="translate(-0.01 0)"/><path d="M62.16,375.22s58.48-104.8,67.84-92.47,60.81,10,74.07-3.08,75.63-30.06,75.63-30.06,88.1-22.34,94.34-13.09,69.39,33.9,81.86,34.67,54.58-29.28,54.58-29.28,17.15-8.48,29.63,6.16,39.76,24.66,66.27,44.7,49.9,43.15,58.48,49.31S682,367.55,682,367.55l8.58,18.5s3.9-81.68,13.25-87.85,6.24-33.13,4.68-36.22-14.81-37.75-13.26-42.38,10.92-33.9,10.92-36.21-24.17-33.91-27.29-47S695.26,104,658.62,87.85s-39.76-17-39.76-22.35S595.47,46.23,571.3,41.61s-54.58,7.71-54.58,7.71-22.65-17.77-35.87-17.77-23.39-12.33-58.47-6.16S363.9,16.14,360,13.06,325.7,2.27,321.8,8.44s-39,19.26-46.78,20-99.8,3.08-98.24,13.87-24.17,3.08-29.63,3.08S116,23.05,116,40s12.48,25.43-7,35.45S70,93.17,70,93.17s17.15,7.71,7,22.35-15.59,12.32-19.49,26.2,2.34,32.36-.78,44.69S25.5,223.41,25.5,228s7.8,48.54,7.8,51.63V309c0,3.08,7,93.24,7,93.24Z" transform="translate(-0.01 0)"/><path d="M44.46,579.11s22.61-178,18.72-201.89l-21.83,26.2L38.23,546Z" transform="translate(-0.01 0)"/><path d="M692.38,385.69c0,2.32-2.34,145.64-2.34,145.64L679.12,379.55l-.38-21.38Z" transform="translate(-0.01 0)"/></g><path class="cls-1" d="M85.26,738.12s-35.87,10-41.33-38.52c0,0-18.71-9.25-12.47-37.76s3.9-43.15,1.56-57,4.68-40.07.78-47S26,528.56,43.93,529.33s25,9.25,25,9.25l11.7-124.06s-7.8-100.18-7.8-107.11,3.9-78.6,3.9-78.6S320-25.48,514.91,54.66,713.73,282.75,713.73,314.34s10.92,218.07,10.92,218.07,10.91-9.24,17.15-6.93,10.91,6.16,12.47,10-.78,47-1.56,56.26,2.34,42.38,4.68,46.23,12.48,53.94-1.56,57c0,0,3.9,34.68-33.52,36.22,0,0-18.72,67-22.61,74S630.3,936.19,583.52,977s-44.44,74.75-152.81,77.83-147.36-7.71-173.87-24.66-138-181.85-138-181.85l-13.31-27.8Z" transform="translate(-0.01 0)"/><path class="cls-1" d="M75.07,575.7s0,67.81,10.91,109.42,79.53,140.25,79.53,140.25l17.56,58.18,33.53-50.86S208,818.05,221.28,798s121.63-77.83,121.63-77.83l46-7.7s1.19,26.24-10.92,27.74c-49.9,6.16-139.56,93.24-139.56,93.24l-28.07,57.79s-7.79,41.61,9.36,52.4S267.28,939,267.28,939l7.8,56.25,36.64-37L333.55,986l31.19-18.49S410,981.4,411.52,989.1s28.85,20.81,28.85,20.81V967.55l40.54,20,20.27,20,17.16-40.07,17.93-23.12,53.8-54.71-29.63-66.27s-72.51-77.06-103.7-81.68l-23.39.77,7.8-34.67,39.76,5.39,29.63,21.58,33.53,17.78,29.62,20,22.61,47.78,26.51,53.17L640,821.1s46-64.73,58.47-90.16,21.78-136.39,21.78-136.39-2.34,140.25-3.12,147.18-9.35,85.53-14,95.55-25.73,53.17-25.73,53.17-3.12,1.54-3.12,7.71S661,915.88,659.44,919s3.12,12.33-8.58,17.72-17.93,17.73-17.93,20.81-19.49,23.12-19.49,23.12-.78,22.34-7,27-47.56,44.69-53.8,47.77-34.3,12.33-34.3,12.33l-40.55,23.12s-14-5.4-27.29-.77-20.27-3.86-42.1,3.85-42.1,12.33-44.44,9.25-9.36-6.94-20.27-9.25-28.07-13.1-28.07-13.1-23.39-7.71-29.63-7.71-28.85-4.62-28.85-4.62l-25.73-26.2L215.82,1030s-8.63-25.4-11.75-25.4-26.51-9.24-26.51-9.24l-9.36-30.83-17.13-29.31-19.49-23.11v-17L102,855l-.78-17.72L88.69,823.4S71.53,577.63,75.07,575.7Z" transform="translate(-0.01 0)"/><path class="cls-1" d="M92.35,369.12s58.48-104.8,67.83-92.47,60.82,10,74.07-3.08,75.63-30,75.63-30,88.1-22.34,94.34-13.1,69.39,33.91,81.87,34.68,54.58-29.28,54.58-29.28,17.15-8.48,29.62,6.16,39.77,24.66,66.28,44.7S686.47,329.86,695,336s17.15,25.43,17.15,25.43l8.58,18.49s3.9-81.68,13.26-87.84,6.23-33.13,4.67-36.22-14.81-37.75-13.25-42.38,10.91-33.9,10.91-36.21-24.17-33.91-27.28-47,16.37-32.36-20.28-48.55-39.73-17-39.73-22.39-23.39-19.27-47.56-23.89-54.58,7.71-54.58,7.71-22.61-17.73-35.86-17.73-23.39-12.33-58.48-6.16S394.12,10,390.22,7,355.91-3.84,352,2.33s-39,19.26-46.78,20S205.43,25.41,207,36.2s-24.17,3.08-29.63,3.08-31.18-22.34-31.18-5.39,12.47,25.43-7,35.45-39,17.72-39,17.72,17.15,7.7,7,22.35S91.59,121.73,87.69,135.6,90,168,86.91,180.3s-31.19,37-31.19,41.61,7.8,48.54,7.8,51.63v29.31c0,3.08,7,93.24,7,93.24Z" transform="translate(-0.01 0)"/><path class="cls-1" d="M74.65,573S97.26,395,93.36,371.12l-21.83,26.2L68.41,539.87Z" transform="translate(-0.01 0)"/><path class="cls-1" d="M722.56,379.55c0,2.31-2.34,145.64-2.34,145.64l-10.91-151.8L708.92,352Z" transform="translate(-0.01 0)"/><path class="cls-2" d="M465.6,464.28,457.13,416h10.71l3.36,23.31L474.91,416h10.71l-8.75,48.3Z" transform="translate(-0.01 0)"/><path class="cls-2" d="M489.26,464.28V416H500v48.3Z" transform="translate(-0.01 0)"/><path class="cls-2" d="M503.61,452h16.52v-6.65H508.58a3.68,3.68,0,0,1-1.89-.52,5.6,5.6,0,0,1-1.58-1.37A7.71,7.71,0,0,1,504,441.6a5.62,5.62,0,0,1-.42-2.1V423.89a13.77,13.77,0,0,1,.31-3,9.09,9.09,0,0,1,1-2.56,5.06,5.06,0,0,1,1.75-1.75,5.14,5.14,0,0,1,2.63-.63h21.35V428.2H514.07v6.72h10.85a3.46,3.46,0,0,1,1.61.56,10.6,10.6,0,0,1,1.89,1.44,8.34,8.34,0,0,1,1.54,2,4.91,4.91,0,0,1,.63,2.34v15.39a14.25,14.25,0,0,1-.28,2.84,9,9,0,0,1-.87,2.45,4.87,4.87,0,0,1-1.54,1.71,4,4,0,0,1-2.28.63h-22Z" transform="translate(-0.01 0)"/><path class="cls-2" d="M537.77,463.76a8.45,8.45,0,0,1-3-3,3.32,3.32,0,0,1-.52-1.68V416h10.5v36h7.35V416h10.57v43.19a3.81,3.81,0,0,1-.42,1.65,6.81,6.81,0,0,1-1.12,1.64,7.52,7.52,0,0,1-1.51,1.3,2.72,2.72,0,0,1-1.5.52H539.43A3.48,3.48,0,0,1,537.77,463.76Z" transform="translate(-0.01 0)"/><path class="cls-2" d="M593.35,416v12.25H577V435h11.27v10.43H577V452h16.38v12.25h-27V416Z" transform="translate(-0.01 0)"/><path class="cls-2" d="M597,464.28V416h10.64v36h16.31v12.25Z" transform="translate(-0.01 0)"/><path class="cls-2" d="M627.58,452h16.49v-6.65H632.52a3.68,3.68,0,0,1-1.89-.52,5.6,5.6,0,0,1-1.58-1.37A7.71,7.71,0,0,1,628,441.6a5.62,5.62,0,0,1-.42-2.1V423.89a13.77,13.77,0,0,1,.31-3,8.69,8.69,0,0,1,1-2.56,5.06,5.06,0,0,1,1.75-1.75,5.14,5.14,0,0,1,2.63-.63h21.35V428.2H638.07v6.72h10.85a3.57,3.57,0,0,1,1.61.56,10.6,10.6,0,0,1,1.89,1.44,8.54,8.54,0,0,1,1.54,2,4.91,4.91,0,0,1,.63,2.34v15.39a14.32,14.32,0,0,1-.28,2.84,8.86,8.86,0,0,1-.88,2.45,4.61,4.61,0,0,1-1.54,1.71,4.06,4.06,0,0,1-2.27.63h-22Z" transform="translate(-0.01 0)"/><path d="M166.29,824.19v-19h-7.22v19H148.43v-48.3H172.3a2.75,2.75,0,0,1,1.51.52,7.16,7.16,0,0,1,1.5,1.3,6.32,6.32,0,0,1,1.12,1.68,3.93,3.93,0,0,1,.42,1.61v13.86a4.74,4.74,0,0,1-.38,1.78,8.27,8.27,0,0,1-.91,1.68,6.88,6.88,0,0,1-1.12,1.23,1.73,1.73,0,0,1-1,.49,6.5,6.5,0,0,1,2.28,1.85,4.5,4.5,0,0,1,1.15,3v19.32Zm-7.21-36.05v6.72h7.21v-6.72Z" transform="translate(-0.01 0)"/><path d="M180.5,824.19V781.07a3.43,3.43,0,0,1,.53-1.68,8.08,8.08,0,0,1,1.29-1.68,8.48,8.48,0,0,1,1.68-1.3,3.35,3.35,0,0,1,1.68-.52h18.69a2.75,2.75,0,0,1,1.51.52,7.46,7.46,0,0,1,1.5,1.3,6.32,6.32,0,0,1,1.12,1.68,3.93,3.93,0,0,1,.42,1.61v43.19H198.56v-19h-7.42v19Zm10.64-36.05v6.72h7.07v-6.72Z" transform="translate(-0.01 0)"/><path d="M212.56,824.19v-48.3h23.87a2.75,2.75,0,0,1,1.51.52,7.74,7.74,0,0,1,1.5,1.3,6.32,6.32,0,0,1,1.12,1.68A3.93,3.93,0,0,1,241,781v19.18a9.25,9.25,0,0,1-1.36,3,5.51,5.51,0,0,1-3.19,2.14H223.07v18.9Zm10.5-36.05v6.72h7.35v-6.72Z" transform="translate(-0.01 0)"/><path d="M261.56,824.19V811.94h16.38V775.89h10.5v43.19a3.76,3.76,0,0,1-.42,1.64,7.82,7.82,0,0,1-1.08,1.65,7.52,7.52,0,0,1-1.47,1.29,2.84,2.84,0,0,1-1.51.53Z" transform="translate(-0.01 0)"/><path d="M319.07,775.89v12.25H302.69v6.72H314v10.43H302.69v6.65h16.38v12.25h-27v-48.3Z" transform="translate(-0.01 0)"/><path d="M326.24,823.66a8.08,8.08,0,0,1-1.68-1.29,8.43,8.43,0,0,1-1.29-1.68,3.43,3.43,0,0,1-.53-1.68V775.89h10.5v36.05h7.35V775.89h10.57v43.19a3.91,3.91,0,0,1-.42,1.64,6.86,6.86,0,0,1-1.12,1.65,8.38,8.38,0,0,1-1.5,1.29,2.84,2.84,0,0,1-1.51.53H327.92A3.43,3.43,0,0,1,326.24,823.66Z" transform="translate(-0.01 0)"/><path d="M137.64,566.69l-8.47-48.3h10.71l3.36,23.31L147,518.39h10.71l-8.75,48.3Z" transform="translate(-0.01 0)"/><path d="M161.3,554.44h8.26v-23.8H161.3V518.39h27v12.25h-8.19v23.8h8.19v12.25h-27Z" transform="translate(-0.01 0)"/><path d="M192,566.69v-48.3h23.87a2.81,2.81,0,0,1,1.5.53,7.75,7.75,0,0,1,1.51,1.29,7,7,0,0,1,1.12,1.68,4.09,4.09,0,0,1,.42,1.61v38a3.81,3.81,0,0,1-.42,1.65,6.81,6.81,0,0,1-1.12,1.64,7.52,7.52,0,0,1-1.51,1.3,2.8,2.8,0,0,1-1.5.52Zm10.5-12.25h7.35v-23.8h-7.35Z" transform="translate(-0.01 0)"/><path d="M251.07,518.39v12.25H234.69v6.72H246v10.43H234.69v6.65h16.38v12.25h-27v-48.3Zm-19.25-3.22,4.55-9.38h9.1l-4.62,9.38Z" transform="translate(-0.01 0)"/><path d="M278.55,566.69H259.86a3.39,3.39,0,0,1-1.69-.52,8.06,8.06,0,0,1-1.67-1.3,7.56,7.56,0,0,1-1.3-1.68,3.33,3.33,0,0,1-.53-1.68v-38a3.43,3.43,0,0,1,.53-1.68,8.3,8.3,0,0,1,3-3,3.5,3.5,0,0,1,1.69-.53h18.69a2.81,2.81,0,0,1,1.5.53,7.75,7.75,0,0,1,1.51,1.29,6.71,6.71,0,0,1,1.11,1.68,3.87,3.87,0,0,1,.37,1.71v38a3.65,3.65,0,0,1-.43,1.65,6.77,6.77,0,0,1-1.11,1.64,7.52,7.52,0,0,1-1.51,1.3A2.82,2.82,0,0,1,278.55,566.69Zm-6-36h-7.28v23.8h7.28Z" transform="translate(-0.01 0)"/><path d="M286.73,554.44h16.52v-6.65H291.7a3.68,3.68,0,0,1-1.89-.52,5.43,5.43,0,0,1-1.57-1.37,7.56,7.56,0,0,1-1.09-1.89,5.62,5.62,0,0,1-.42-2.1V526.3a13.78,13.78,0,0,1,.32-3,8.69,8.69,0,0,1,1-2.56A4.89,4.89,0,0,1,289.8,519a5.1,5.1,0,0,1,2.62-.63h21.35v12.25H297.25v6.72h10.82a3.46,3.46,0,0,1,1.61.56,9.45,9.45,0,0,1,1.89,1.44,8.34,8.34,0,0,1,1.54,2,4.8,4.8,0,0,1,.63,2.34V559a14.25,14.25,0,0,1-.28,2.84,8.53,8.53,0,0,1-.87,2.45,4.87,4.87,0,0,1-1.54,1.71,4,4,0,0,1-2.28.63h-22Z" transform="translate(-0.01 0)"/><path class="cls-2" d="M240.67,690.28V647.16a3.43,3.43,0,0,1,.53-1.68,8.15,8.15,0,0,1,3-3,3.43,3.43,0,0,1,1.68-.53h18.69a2.84,2.84,0,0,1,1.51.53,7.69,7.69,0,0,1,1.5,1.29,6.75,6.75,0,0,1,1.12,1.68,4.09,4.09,0,0,1,.42,1.61v43.19H258.76v-19h-7.42v19Zm15.26-60.9,4.55,9.38h-9l-4.62-9.38Zm-4.62,24.85V661h7.07v-6.72Z" transform="translate(-0.01 0)"/><path class="cls-2" d="M289.67,690.28V642h23.87a2.84,2.84,0,0,1,1.51.53,8.38,8.38,0,0,1,1.5,1.29,6.75,6.75,0,0,1,1.12,1.68,4.09,4.09,0,0,1,.42,1.61v19.18a9.25,9.25,0,0,1-1.36,3,5.56,5.56,0,0,1-3.19,2.13H300.17v18.9Zm10.5-36V661h7.35v-6.72Z" transform="translate(-0.01 0)"/><path class="cls-2" d="M321.73,690.28V642h10.64v36h16.31v12.25Z" transform="translate(-0.01 0)"/><path class="cls-2" d="M352.32,690.28V647.16a3.43,3.43,0,0,1,.53-1.68,8.43,8.43,0,0,1,1.29-1.68,8.08,8.08,0,0,1,1.68-1.29,3.43,3.43,0,0,1,1.68-.53h18.69a2.84,2.84,0,0,1,1.51.53,8.38,8.38,0,0,1,1.5,1.29,6.75,6.75,0,0,1,1.12,1.68,4.09,4.09,0,0,1,.42,1.61v43.19H370.38v-19H363v19Zm10.64-36V661h7.11v-6.72Z" transform="translate(-0.01 0)"/><path class="cls-2" d="M412.73,654.23h-8.89v36H393.27v-36h-8.89V642h28.35Z" transform="translate(-0.01 0)"/><path class="cls-2" d="M433.31,690.28V642h23.87a2.81,2.81,0,0,1,1.5.53,7.75,7.75,0,0,1,1.51,1.29,7,7,0,0,1,1.12,1.68,4.09,4.09,0,0,1,.42,1.61v38.08a3.81,3.81,0,0,1-.42,1.65,6.81,6.81,0,0,1-1.12,1.64,7.52,7.52,0,0,1-1.51,1.3,2.72,2.72,0,0,1-1.5.52ZM443.81,678h7.35v-23.8h-7.35Z" transform="translate(-0.01 0)"/><path class="cls-2" d="M492.39,642v12.25H476V661h11.27v10.43H476V678h16.38v12.25h-27V642Z" transform="translate(-0.01 0)"/><path class="cls-2" d="M516.47,689.76a8.45,8.45,0,0,1-3-3,3.32,3.32,0,0,1-.52-1.68V647.14a3.35,3.35,0,0,1,.52-1.68,8.48,8.48,0,0,1,1.3-1.68,8.08,8.08,0,0,1,1.68-1.29,3.33,3.33,0,0,1,1.68-.53h18.69a2.81,2.81,0,0,1,1.5.53,7.75,7.75,0,0,1,1.51,1.29,7,7,0,0,1,1.12,1.68,4.09,4.09,0,0,1,.42,1.61v12.11H530.8v-5h-7.21V678h7.21v-4.9h10.57v12a3.81,3.81,0,0,1-.42,1.65,6.81,6.81,0,0,1-1.12,1.64,7.52,7.52,0,0,1-1.51,1.3,2.72,2.72,0,0,1-1.5.52H518.13A3.45,3.45,0,0,1,516.47,689.76Z" transform="translate(-0.01 0)"/><path class="cls-2" d="M568.9,690.28H550.21a3.32,3.32,0,0,1-1.68-.52,8.45,8.45,0,0,1-3-3,3.32,3.32,0,0,1-.52-1.68V647.14a3.35,3.35,0,0,1,.52-1.68,8.48,8.48,0,0,1,1.3-1.68,8.08,8.08,0,0,1,1.68-1.29,3.33,3.33,0,0,1,1.68-.53h18.69a2.81,2.81,0,0,1,1.5.53,7.75,7.75,0,0,1,1.51,1.29,7,7,0,0,1,1.12,1.68,4.09,4.09,0,0,1,.42,1.61v38.08a3.81,3.81,0,0,1-.42,1.65,6.81,6.81,0,0,1-1.12,1.64,7.52,7.52,0,0,1-1.51,1.3A2.73,2.73,0,0,1,568.9,690.28Zm-6-36h-7.28v23.8h7.28Z" transform="translate(-0.01 0)"/><path class="cls-2" d="M580.59,689.76a8.45,8.45,0,0,1-3-3,3.32,3.32,0,0,1-.52-1.68V642h10.5v36h7.35V642h10.57v43.19a3.81,3.81,0,0,1-.42,1.65,6.81,6.81,0,0,1-1.12,1.64,7.52,7.52,0,0,1-1.51,1.3,2.72,2.72,0,0,1-1.5.52H582.27A3.46,3.46,0,0,1,580.59,689.76Z" transform="translate(-0.01 0)"/><path class="cls-2" d="M609.15,690.28V642h10.64v36h16.28v12.25Z" transform="translate(-0.01 0)"/><path class="cls-2" d="M666.76,642v12.25H650.38V661h11.27v10.43H650.38V678h16.38v12.25h-27V642Z" transform="translate(-0.01 0)"/><path class="cls-2" d="M673.9,689.76a8.45,8.45,0,0,1-3-3,3.32,3.32,0,0,1-.52-1.68V642h10.5v36h7.35V642H698.8v43.19a3.81,3.81,0,0,1-.42,1.65,6.81,6.81,0,0,1-1.12,1.64,7.52,7.52,0,0,1-1.51,1.3,2.8,2.8,0,0,1-1.5.52H675.56A3.36,3.36,0,0,1,673.9,689.76Z" transform="translate(-0.01 0)"/><path class="cls-2" d="M720.31,690.28v-19h-7.24v19H702.43V642H726.3a2.81,2.81,0,0,1,1.5.53,7.75,7.75,0,0,1,1.51,1.29,7,7,0,0,1,1.12,1.68,4.09,4.09,0,0,1,.42,1.61V661a4.61,4.61,0,0,1-.39,1.79,8.27,8.27,0,0,1-.91,1.68,5.91,5.91,0,0,1-1.12,1.22,1.73,1.73,0,0,1-1,.49A6.69,6.69,0,0,1,729.7,668a4.49,4.49,0,0,1,1.16,3v19.32Zm-7.21-36V661h7.21v-6.72Z" transform="translate(-0.01 0)"/><path d="M285.8,349.18a8.43,8.43,0,0,1-1.68-1.29,8.12,8.12,0,0,1-1.3-1.68,3.6,3.6,0,0,1-.52-1.68V306.59a3.53,3.53,0,0,1,.52-1.68,7.63,7.63,0,0,1,1.3-1.68,7.8,7.8,0,0,1,1.68-1.3,3.38,3.38,0,0,1,1.68-.52h18.69a2.72,2.72,0,0,1,1.5.52,7.52,7.52,0,0,1,1.51,1.3,6.32,6.32,0,0,1,1.12,1.68,3.78,3.78,0,0,1,.42,1.61v12.11H300.15v-5h-7.21v23.84h7.21v-4.9h10.57v12a3.76,3.76,0,0,1-.42,1.64,7.07,7.07,0,0,1-1.12,1.65,7.8,7.8,0,0,1-1.51,1.29,2.89,2.89,0,0,1-1.5.53H287.48A3.46,3.46,0,0,1,285.8,349.18Z" transform="translate(-0.01 0)"/><path d="M338.23,349.71H319.54a3.5,3.5,0,0,1-1.68-.53,8.43,8.43,0,0,1-1.68-1.29,8.12,8.12,0,0,1-1.3-1.68,3.6,3.6,0,0,1-.52-1.68V306.59a3.53,3.53,0,0,1,.52-1.68,7.63,7.63,0,0,1,1.3-1.68,7.8,7.8,0,0,1,1.68-1.3,3.38,3.38,0,0,1,1.68-.52h18.69a2.72,2.72,0,0,1,1.5.52,7.52,7.52,0,0,1,1.51,1.3,6.32,6.32,0,0,1,1.12,1.68,3.78,3.78,0,0,1,.42,1.61V344.6a3.63,3.63,0,0,1-.42,1.64,7.07,7.07,0,0,1-1.12,1.65,7.8,7.8,0,0,1-1.51,1.29A2.89,2.89,0,0,1,338.23,349.71Zm-6-36H325v23.76h7.28Z" transform="translate(-0.01 0)"/><path d="M346.42,349.71v-48.3h9.31l8.61,19.39V301.41h10.57v48.3h-9.24l-8.61-19.46v19.46Z" transform="translate(-0.01 0)"/><path d="M406.9,313.66H398v36H387.44v-36h-8.9V301.41H406.9Z" transform="translate(-0.01 0)"/><path d="M410.53,349.71V306.59a3.43,3.43,0,0,1,.53-1.68,8.16,8.16,0,0,1,1.29-1.68,8.78,8.78,0,0,1,1.68-1.3,3.38,3.38,0,0,1,1.68-.52H434.4a2.72,2.72,0,0,1,1.51.52,7.16,7.16,0,0,1,1.5,1.3,6.17,6.17,0,0,1,1.12,1.68,3.78,3.78,0,0,1,.42,1.61v43.19H428.59v-19h-7.42v19Zm10.64-36v6.72h7.07v-6.72Z" transform="translate(-0.01 0)"/><path d="M446.09,349.18a9.15,9.15,0,0,1-1.68-1.29,8.43,8.43,0,0,1-1.29-1.68,3.5,3.5,0,0,1-.53-1.68V306.59a3.43,3.43,0,0,1,.53-1.68,8.16,8.16,0,0,1,1.29-1.68,8.78,8.78,0,0,1,1.68-1.3,3.38,3.38,0,0,1,1.68-.52h18.69a2.72,2.72,0,0,1,1.51.52,7.46,7.46,0,0,1,1.5,1.3,6.17,6.17,0,0,1,1.12,1.68,3.78,3.78,0,0,1,.42,1.61v12.11H460.44v-5h-7.21v23.84h7.21v-4.9H471v12a3.63,3.63,0,0,1-.42,1.64,6.33,6.33,0,0,1-1.12,1.65,7.74,7.74,0,0,1-1.5,1.29,2.81,2.81,0,0,1-1.51.53H447.77A3.46,3.46,0,0,1,446.09,349.18Z" transform="translate(-0.01 0)"/><path d="M503,313.66h-8.89v36H483.54v-36h-8.89V301.41H503Z" transform="translate(-0.01 0)"/><path d="M164.09,349.19a8.08,8.08,0,0,1-1.68-1.29,7.56,7.56,0,0,1-1.3-1.68,3.32,3.32,0,0,1-.52-1.68V306.6a3.38,3.38,0,0,1,.52-1.68,7.56,7.56,0,0,1,1.3-1.68,8.2,8.2,0,0,1,1.68-1.3,3.32,3.32,0,0,1,1.68-.52h18.69a2.88,2.88,0,0,1,1.5.52,8.16,8.16,0,0,1,1.51,1.3,6.75,6.75,0,0,1,1.12,1.68,3.93,3.93,0,0,1,.42,1.61v12.11H178.44v-5h-7.21v23.84h7.21v-4.9H189v12a3.76,3.76,0,0,1-.42,1.64,6.86,6.86,0,0,1-1.12,1.65,7.75,7.75,0,0,1-1.51,1.29,2.81,2.81,0,0,1-1.5.53H165.77A3.36,3.36,0,0,1,164.09,349.19Z" transform="translate(-0.01 0)"/><path d="M206.78,349.71l-8.46-48.3H209l3.36,23.31,3.71-23.31H226.8l-8.75,48.3Z" transform="translate(-0.01 0)"/><line class="cls-3" x1="246.85" y1="349.69" x2="261.55" y2="301.42"/></svg>